<svg width="192" height="88" viewBox="0 0 192 88" fill="none" xmlns="http://www.w3.org/2000/svg">
<rect width="192" height="88" fill="white"/>
<path d="M82.311 5.34424H5V82.6552H82.311V5.34424Z" fill="#005DAC"/>
<path d="M8.92041 67.1476V56.7285H18.1294C20.0261 56.7285 23.0815 56.986 23.0815 59.4663C23.0815 60.685 22.0173 61.5433 20.7728 61.8523C22.3177 62.3157 23.0815 63.174 23.0815 64.3412C23.0815 66.8988 20.1806 67.1391 18.1294 67.1476H8.92041ZM12.3019 62.762L13.2717 61.1657C13.5206 60.8052 13.9326 60.5906 14.3703 60.582H18.138C18.8074 60.582 19.3567 60.2731 19.3567 59.7496C19.3567 59.226 18.816 58.9171 18.138 58.9171H12.3105V62.762H12.3019ZM12.3019 62.762V67.1476L13.2717 65.5513C13.5206 65.1908 13.9326 64.9763 14.3703 64.9677H18.0865C18.7903 64.9763 19.3481 64.4785 19.3481 63.8691C19.3481 63.2598 18.7988 62.7706 18.0865 62.7706H12.3105L12.3019 62.762ZM31.2606 59.2432L26.6947 67.1562H22.721L29.0892 56.7285H33.4406L39.8002 67.1476H35.8265L34.7623 65.2938H28.8661L29.8445 63.6975C30.0934 63.337 30.5054 63.1225 30.9431 63.1139H33.4921L31.2606 59.2432ZM58.9219 59.2432L54.3561 67.1562H50.3738L56.742 56.7285H61.0933L67.4529 67.1476H63.4878L62.415 65.2938H56.5189L57.4887 63.6975C57.7376 63.337 58.1409 63.1225 58.5786 63.1139H61.1362L58.9048 59.2432H58.9134H58.9219ZM45.9624 64.9677C46.7348 64.9677 47.3528 64.5901 47.3528 63.8348V56.7285H50.7171V64.1438C50.7171 66.3924 49.2323 67.1476 47.2841 67.1476H41.654C41.2163 67.1476 40.8129 66.9245 40.5554 66.564L39.577 64.9591H45.9538L45.9624 64.9677ZM73.6066 64.9677C74.379 64.9677 74.9969 64.5901 74.9969 63.8348V56.7285H78.3699V64.1438C78.3699 66.3924 76.8851 67.1476 74.9369 67.1476H69.3068C68.869 67.1476 68.4571 66.9245 68.2082 66.564L67.2298 64.9591H73.5894L73.6066 64.9677Z" fill="white"/>
<path d="M50.8877 32.235C53.2221 31.5398 55.2304 29.6345 55.2304 26.931C55.2304 21.4296 49.4888 20.8546 45.9185 20.8546H32.0835V44.0016H36.924V25.7552H51.334L49.7377 28.8449C49.7377 28.8449 49.4201 29.5058 48.3215 29.5058H43.0519C43.0519 29.5058 41.2324 29.5658 41.2324 31.7544V36.6206C41.2324 36.6206 41.3783 34.7239 42.9747 34.578L50.0209 34.5522L48.5018 37.5132C48.5018 37.5132 48.1756 38.3028 47.1801 38.3114H42.9489C42.9489 38.3114 41.2153 38.2942 41.2153 40.3111V44.0101H45.9013C49.7634 43.993 55.2133 43.4523 55.2133 37.7793C55.2133 35.1788 53.78 33.2735 50.8705 32.2436L50.8877 32.235Z" fill="white"/>
<path d="M177.358 50.248L184.31 37.752H179.564L174.758 47.2356L169.943 37.752H165.197L172.157 50.248" fill="#005DAC"/>
<path d="M109.359 37.752H105.316V50.248H109.359V37.752Z" fill="#005DAC"/>
<path d="M120.668 37.752V44.7553L115.853 37.752H111.055V50.248H115.098V43.322L115.132 43.3735L119.861 50.248H124.718V37.752H120.668Z" fill="#005DAC"/>
<path d="M166.49 50.2476L163.581 45.3813L163.366 44.978C163.958 44.6947 164.465 44.2656 164.842 43.7335C165.254 43.1499 165.46 42.4461 165.443 41.7424C165.443 41.236 165.349 40.7296 165.16 40.2576C164.971 39.777 164.688 39.3393 164.319 38.9702C163.932 38.584 163.46 38.2751 162.945 38.0862C162.362 37.8631 161.735 37.7515 161.109 37.7601H153.479L154.5 40.352H159.598C159.967 40.3348 160.328 40.4722 160.585 40.7296C160.826 40.9614 160.954 41.2789 160.954 41.6051C160.954 41.9569 160.826 42.2917 160.585 42.5491C160.328 42.8066 159.967 43.0812 159.598 43.0641H155.462L156.38 45.6302H159.109L161.744 50.2476H166.49Z" fill="#005DAC"/>
<path d="M139.175 46.2992C139.175 45.4839 138.875 43.1494 135.27 42.5143C134.919 42.4371 134.464 42.4199 134.283 42.4113C133.803 42.3856 133.125 42.3599 132.267 42.3856H132.052C131.606 42.3856 130.541 42.274 130.507 41.4072C130.507 41.4072 130.438 40.4803 131.752 40.3945L138.66 40.3773V37.7596C138.66 37.7596 132.747 37.7596 130.782 37.7596C129.4 37.7596 126.439 37.7768 126.079 40.6777C126.079 40.6777 126.079 40.7034 126.079 40.7463C126.079 40.7721 126.079 40.7978 126.079 40.815C126.07 40.9437 126.053 41.1411 126.061 41.3042C126.079 41.9136 126.345 43.6987 128.928 44.4969C128.928 44.4969 129.906 44.9003 131.717 45.0033C131.717 45.0033 133.048 44.9947 133.254 45.0033C133.254 45.0033 134.223 45.029 134.515 45.6555C134.515 45.6555 135.348 47.1403 133.425 47.5694C133.314 47.5866 132.979 47.6209 132.704 47.6123H126.851V50.2557H133.408C133.408 50.2557 138.558 50.3587 139.124 47.0373C139.201 46.7369 139.193 46.3936 139.193 46.2992H139.175Z" fill="#005DAC"/>
<path d="M91.803 37.7523V50.2484H92.3695H95.8454V45.2191L99.347 45.1847C100.154 45.1847 100.411 44.6355 100.411 44.6355L101.639 42.61L95.8454 42.6357V41.8719C95.914 40.3871 97.313 40.3271 97.313 40.3271H101.561C102.445 40.3528 102.703 39.8722 102.703 39.8722L103.99 37.7523H91.7944H91.803Z" fill="#005DAC"/>
<path d="M144.544 41.9232V42.6355L150.337 42.6098L149.118 44.6353C149.118 44.6353 148.852 45.176 148.054 45.1845L144.596 45.2189L144.63 46.3775C144.63 46.3775 144.63 46.4891 144.664 46.6092C144.879 47.2014 145.437 47.622 146.097 47.622L151.11 47.6391H152.174V50.2396H140.51V37.7435H152.174V40.3354L146.089 40.3612C145.239 40.3612 144.544 41.0564 144.544 41.906V41.9232Z" fill="#005DAC"/>
</svg>
