<svg width="24" height="24" viewBox="0 0 24 24" fill="none" xmlns="http://www.w3.org/2000/svg">
<mask id="mask0_174_1375" style="mask-type:alpha" maskUnits="userSpaceOnUse" x="0" y="0" width="24" height="24">
<rect width="24" height="24" fill="#D9D9D9"/>
</mask>
<g mask="url(#mask0_174_1375)">
<path d="M3 21C2.71667 21 2.47917 20.9042 2.2875 20.7125C2.09583 20.5208 2 20.2833 2 20C2 19.7167 2.09583 19.4792 2.2875 19.2875C2.47917 19.0958 2.71667 19 3 19H11V7.825C10.5667 7.675 10.1917 7.44167 9.875 7.125C9.55833 6.80833 9.325 6.43333 9.175 6H6L8.75 12.45C8.83333 12.6333 8.88333 12.8208 8.9 13.0125C8.91667 13.2042 8.90833 13.4 8.875 13.6C8.725 14.3667 8.3125 14.9583 7.6375 15.375C6.9625 15.7917 6.25 16 5.5 16C4.75 16 4.0375 15.7917 3.3625 15.375C2.6875 14.9583 2.275 14.3667 2.125 13.6C2.09167 13.4 2.08333 13.2042 2.1 13.0125C2.11667 12.8208 2.16667 12.6333 2.25 12.45L5 6H4C3.71667 6 3.47917 5.90417 3.2875 5.7125C3.09583 5.52083 3 5.28333 3 5C3 4.71667 3.09583 4.47917 3.2875 4.2875C3.47917 4.09583 3.71667 4 4 4H9.175C9.375 3.41667 9.73333 2.9375 10.25 2.5625C10.7667 2.1875 11.35 2 12 2C12.65 2 13.2333 2.1875 13.75 2.5625C14.2667 2.9375 14.625 3.41667 14.825 4H20C20.2833 4 20.5208 4.09583 20.7125 4.2875C20.9042 4.47917 21 4.71667 21 5C21 5.28333 20.9042 5.52083 20.7125 5.7125C20.5208 5.90417 20.2833 6 20 6H19L21.75 12.45C21.8333 12.6333 21.8833 12.8208 21.9 13.0125C21.9167 13.2042 21.9083 13.4 21.875 13.6C21.725 14.3667 21.3125 14.9583 20.6375 15.375C19.9625 15.7917 19.25 16 18.5 16C17.75 16 17.0375 15.7917 16.3625 15.375C15.6875 14.9583 15.275 14.3667 15.125 13.6C15.0917 13.4 15.0833 13.2042 15.1 13.0125C15.1167 12.8208 15.1667 12.6333 15.25 12.45L18 6H14.825C14.675 6.43333 14.4417 6.80833 14.125 7.125C13.8083 7.44167 13.4333 7.675 13 7.825V19H21C21.2833 19 21.5208 19.0958 21.7125 19.2875C21.9042 19.4792 22 19.7167 22 20C22 20.2833 21.9042 20.5208 21.7125 20.7125C21.5208 20.9042 21.2833 21 21 21H3ZM16.625 13H20.375L18.5 8.65L16.625 13ZM3.625 13H7.375L5.5 8.65L3.625 13ZM12 6C12.2833 6 12.5208 5.90417 12.7125 5.7125C12.9042 5.52083 13 5.28333 13 5C13 4.71667 12.9042 4.47917 12.7125 4.2875C12.5208 4.09583 12.2833 4 12 4C11.7167 4 11.4792 4.09583 11.2875 4.2875C11.0958 4.47917 11 4.71667 11 5C11 5.28333 11.0958 5.52083 11.2875 5.7125C11.4792 5.90417 11.7167 6 12 6Z" fill="white"/>
</g>
</svg>
