<svg width="11" height="12" viewBox="0 0 11 12" fill="none" xmlns="http://www.w3.org/2000/svg">
<path d="M5.29585 1.85674L9.14875 3.39789C9.29859 3.45783 9.41846 3.63763 9.41846 3.79602V5.21732C9.41846 5.45278 9.22581 5.64542 8.99036 5.64542H1.28455C1.04909 5.64542 0.856445 5.45278 0.856445 5.21732V3.79602C0.856445 3.63763 0.976316 3.45783 1.12615 3.39789L4.97906 1.85674C5.06468 1.82249 5.21023 1.82249 5.29585 1.85674Z" stroke="#002953" stroke-width="0.642151" stroke-miterlimit="10" stroke-linecap="round" stroke-linejoin="round"/>
<path d="M9.41846 10.3545H0.856445V9.07019C0.856445 8.83474 1.04909 8.64209 1.28455 8.64209H8.99036C9.22581 8.64209 9.41846 8.83474 9.41846 9.07019V10.3545Z" stroke="#002953" stroke-width="0.642151" stroke-miterlimit="10" stroke-linecap="round" stroke-linejoin="round"/>
<path d="M1.71289 8.64221V5.64551" stroke="#002953" stroke-width="0.642151" stroke-miterlimit="10" stroke-linecap="round" stroke-linejoin="round"/>
<path d="M3.4248 8.64221V5.64551" stroke="#002953" stroke-width="0.642151" stroke-miterlimit="10" stroke-linecap="round" stroke-linejoin="round"/>
<path d="M5.13672 8.64221V5.64551" stroke="#002953" stroke-width="0.642151" stroke-miterlimit="10" stroke-linecap="round" stroke-linejoin="round"/>
<path d="M6.84961 8.64221V5.64551" stroke="#002953" stroke-width="0.642151" stroke-miterlimit="10" stroke-linecap="round" stroke-linejoin="round"/>
<path d="M8.5625 8.64221V5.64551" stroke="#002953" stroke-width="0.642151" stroke-miterlimit="10" stroke-linecap="round" stroke-linejoin="round"/>
<path d="M0.427734 10.3545H9.84595" stroke="#002953" stroke-width="0.642151" stroke-miterlimit="10" stroke-linecap="round" stroke-linejoin="round"/>
<path d="M5.13727 4.57507C5.49192 4.57507 5.77942 4.28757 5.77942 3.93292C5.77942 3.57827 5.49192 3.29077 5.13727 3.29077C4.78262 3.29077 4.49512 3.57827 4.49512 3.93292C4.49512 4.28757 4.78262 4.57507 5.13727 4.57507Z" stroke="#002953" stroke-width="0.642151" stroke-miterlimit="10" stroke-linecap="round" stroke-linejoin="round"/>
</svg>
