<svg width="94" height="105" viewBox="0 0 94 105" fill="none" xmlns="http://www.w3.org/2000/svg">
<circle cx="47" cy="47" r="47" fill="#E5EAF7"/>
<path d="M10.75 99.0044L10.75 14.2827C10.75 13.334 11.5772 12.5371 12.6332 12.5371H82.4522C83.5083 12.5371 84.3354 13.334 84.3354 14.2827V99.0044C84.3354 99.953 83.5083 100.75 82.4522 100.75H12.6332C11.5772 100.75 10.75 99.953 10.75 99.0044Z" fill="white" stroke="#D3DAE1" stroke-width="0.5"/>
<path fill-rule="evenodd" clip-rule="evenodd" d="M59.675 53.4013C59.72 53.13 59.6425 52.8525 59.465 52.6425C59.2863 52.4337 59.025 52.3125 58.75 52.3125H36.25C35.975 52.3125 35.7138 52.4337 35.535 52.6425C35.3575 52.8525 35.28 53.13 35.325 53.4013C35.325 53.4013 36.6025 61.2063 37.2313 65.055C37.5038 66.7175 38.94 67.9375 40.6238 67.9375H54.3763C56.06 67.9375 57.4963 66.7175 57.7688 65.055L59.675 53.4013ZM57.6463 54.1875L55.9175 64.7525C55.7938 65.5075 55.1413 66.0625 54.3763 66.0625C50.9125 66.0625 44.0875 66.0625 40.6238 66.0625C39.8588 66.0625 39.2063 65.5075 39.0825 64.7525L37.3538 54.1875H57.6463Z" fill="#999999"/>
<path fill-rule="evenodd" clip-rule="evenodd" d="M55.8037 52.7675L52.0537 46.5175C51.7875 46.0737 51.2112 45.93 50.7675 46.1962C50.3237 46.4625 50.18 47.0387 50.4462 47.4825L54.1962 53.7325C54.4625 54.1762 55.0387 54.32 55.4825 54.0537C55.9262 53.7875 56.07 53.2112 55.8037 52.7675Z" fill="#999999"/>
<path fill-rule="evenodd" clip-rule="evenodd" d="M40.8037 53.7325L44.5537 47.4825C44.82 47.0387 44.6762 46.4625 44.2325 46.1962C43.7887 45.93 43.2125 46.0737 42.9462 46.5175L39.1962 52.7675C38.93 53.2112 39.0737 53.7875 39.5175 54.0537C39.9612 54.32 40.5375 54.1762 40.8037 53.7325Z" fill="#999999"/>
<path fill-rule="evenodd" clip-rule="evenodd" d="M46.5625 57.625V62.625C46.5625 63.1425 46.9825 63.5625 47.5 63.5625C48.0175 63.5625 48.4375 63.1425 48.4375 62.625V57.625C48.4375 57.1075 48.0175 56.6875 47.5 56.6875C46.9825 56.6875 46.5625 57.1075 46.5625 57.625Z" fill="#999999"/>
<path fill-rule="evenodd" clip-rule="evenodd" d="M41.5625 57.625V62.625C41.5625 63.1425 41.9825 63.5625 42.5 63.5625C43.0175 63.5625 43.4375 63.1425 43.4375 62.625V57.625C43.4375 57.1075 43.0175 56.6875 42.5 56.6875C41.9825 56.6875 41.5625 57.1075 41.5625 57.625Z" fill="#999999"/>
<path fill-rule="evenodd" clip-rule="evenodd" d="M51.5625 57.625V62.625C51.5625 63.1425 51.9825 63.5625 52.5 63.5625C53.0175 63.5625 53.4375 63.1425 53.4375 62.625V57.625C53.4375 57.1075 53.0175 56.6875 52.5 56.6875C51.9825 56.6875 51.5625 57.1075 51.5625 57.625Z" fill="#999999"/>
<path fill-rule="evenodd" clip-rule="evenodd" d="M60 52.3125H35C34.4825 52.3125 34.0625 52.7325 34.0625 53.25C34.0625 53.7675 34.4825 54.1875 35 54.1875H60C60.5175 54.1875 60.9375 53.7675 60.9375 53.25C60.9375 52.7325 60.5175 52.3125 60 52.3125Z" fill="#999999"/>
<path d="M11.9506 11.5352H81.9964C83.0714 11.5352 83.9448 12.4168 83.9448 13.5018V20.0151H9.85938V13.646C9.85938 12.4789 10.7972 11.5352 11.9506 11.5352Z" fill="#FF6700"/>
<path d="M15.2504 15.472C15.2504 16.2012 14.6543 16.7917 13.9182 16.7917C13.1821 16.7917 12.5859 16.2012 12.5859 15.472C12.5859 14.7429 13.1821 14.1523 13.9182 14.1523C14.6543 14.1523 15.2504 14.7429 15.2504 15.472Z" fill="white"/>
<path d="M18.8481 15.472C18.8481 16.2012 18.2519 16.7917 17.5158 16.7917C16.7797 16.7917 16.1836 16.2012 16.1836 15.472C16.1836 14.7429 16.7797 14.1523 17.5158 14.1523C18.2519 14.1523 18.8481 14.7429 18.8481 15.472Z" fill="white"/>
<path d="M22.4457 15.472C22.4457 16.2012 21.8496 16.7917 21.1135 16.7917C20.3774 16.7917 19.7812 16.2012 19.7812 15.472C19.7812 14.7429 20.3774 14.1523 21.1135 14.1523C21.8496 14.1523 22.4457 14.7429 22.4457 15.472Z" fill="white"/>
</svg>
