<svg xmlns="http://www.w3.org/2000/svg" width="26" height="26" viewBox="0 0 26 26">
  <path id="Path_32370" data-name="Path 32370" d="M28.117,9.753,21.247,2.883a1.2,1.2,0,0,0-.9-.383H10.656a1.2,1.2,0,0,0-.9.383L2.883,9.753a1.2,1.2,0,0,0-.383.9v9.716a1.181,1.181,0,0,0,.383.876l6.869,6.869a1.288,1.288,0,0,0,.9.383h9.716a1.288,1.288,0,0,0,.9-.383l6.842-6.869a1.288,1.288,0,0,0,.383-.9V10.656A1.2,1.2,0,0,0,28.117,9.753ZM15.5,7.536a1.843,1.843,0,0,1,1.834,1.943l-.356,7.116a1.455,1.455,0,0,1-1.478,1.4,1.474,1.474,0,0,1-1.478-1.4l-.356-7.116A1.843,1.843,0,0,1,15.5,7.536Zm0,15.928a1.943,1.943,0,1,1,1.943-1.943A1.951,1.951,0,0,1,15.5,23.464Z" transform="translate(-2.5 -2.5)" fill="#b40000"/>
</svg>
