<svg xmlns="http://www.w3.org/2000/svg" width="12" height="12" viewBox="0 0 12 12">
  <g id="Group_16656" data-name="Group 16656" transform="translate(320 504) rotate(180)">
    <path id="Subtraction_3" data-name="Subtraction 3" d="M5446-206h-6a3,3,0,0,1-3-3v-6a3,3,0,0,1,3-3h6a3,3,0,0,1,3,3v6A3,3,0,0,1,5446-206Zm-5.544-6.489a.551.551,0,0,0-.383.149c-.121.115-.244.238-.387.387a.522.522,0,0,0-.145.3.031.031,0,0,1,0,.01.06.06,0,0,0,0,.01v.152c0,.01,0,.019.007.028l0,.013c0,.013.007.026.011.039a.579.579,0,0,0,.15.26l.1.1.037.037.06.061q1.17,1.168,2.338,2.339l.406.407.01.01a.579.579,0,0,0,.349.185.837.837,0,0,0,.1.007.535.535,0,0,0,.394-.157q1.479-1.481,2.96-2.961a.594.594,0,0,0,.189-.331.556.556,0,0,0-.145-.5c-.143-.149-.265-.271-.384-.386a.562.562,0,0,0-.387-.154.575.575,0,0,0-.407.169l-.869.866-.445.444L5444-211l-.01.014-.012-.005v-4.029a.534.534,0,0,0-.477-.551.075.075,0,0,1-.018-.005l-.008,0h-.753l-.044.012a.82.82,0,0,0-.118.036.514.514,0,0,0-.339.506v4.04L5442.2-211l-.014-.013-.28-.278-.1-.1c-.316-.313-.624-.618-.921-.922A.6.6,0,0,0,5440.456-212.489Z" transform="translate(-5129 710)" fill="#f80"/>
  </g>
</svg>
