<svg width="22" height="13" viewBox="0 0 22 13" fill="none" xmlns="http://www.w3.org/2000/svg">
<path d="M3 6.5C2.16667 6.5 1.45833 6.20833 0.875 5.625C0.291667 5.04167 0 4.33333 0 3.5C0 2.66667 0.291667 1.95833 0.875 1.375C1.45833 0.791667 2.16667 0.5 3 0.5C3.83333 0.5 4.54167 0.791667 5.125 1.375C5.70833 1.95833 6 2.66667 6 3.5C6 4.33333 5.70833 5.04167 5.125 5.625C4.54167 6.20833 3.83333 6.5 3 6.5ZM2 12.5C1.71667 12.5 1.47917 12.4042 1.2875 12.2125C1.09583 12.0208 1 11.7833 1 11.5C1 11.2167 1.09583 10.9792 1.2875 10.7875C1.47917 10.5958 1.71667 10.5 2 10.5H20C20.2833 10.5 20.5208 10.5958 20.7125 10.7875C20.9042 10.9792 21 11.2167 21 11.5C21 11.7833 20.9042 12.0208 20.7125 12.2125C20.5208 12.4042 20.2833 12.5 20 12.5H2ZM11 6.5C10.1667 6.5 9.45833 6.20833 8.875 5.625C8.29167 5.04167 8 4.33333 8 3.5C8 2.66667 8.29167 1.95833 8.875 1.375C9.45833 0.791667 10.1667 0.5 11 0.5C11.8333 0.5 12.5417 0.791667 13.125 1.375C13.7083 1.95833 14 2.66667 14 3.5C14 4.33333 13.7083 5.04167 13.125 5.625C12.5417 6.20833 11.8333 6.5 11 6.5ZM19 6.5C18.1667 6.5 17.4583 6.20833 16.875 5.625C16.2917 5.04167 16 4.33333 16 3.5C16 2.66667 16.2917 1.95833 16.875 1.375C17.4583 0.791667 18.1667 0.5 19 0.5C19.8333 0.5 20.5417 0.791667 21.125 1.375C21.7083 1.95833 22 2.66667 22 3.5C22 4.33333 21.7083 5.04167 21.125 5.625C20.5417 6.20833 19.8333 6.5 19 6.5Z" fill="#666666"/>
</svg>
