<svg width="18" height="19" viewBox="0 0 18 19" fill="none" xmlns="http://www.w3.org/2000/svg">
<path d="M2 18.5C1.45 18.5 0.979167 18.3042 0.5875 17.9125C0.195833 17.5208 0 17.05 0 16.5V2.5C0 1.95 0.195833 1.47917 0.5875 1.0875C0.979167 0.695833 1.45 0.5 2 0.5H16C16.55 0.5 17.0208 0.695833 17.4125 1.0875C17.8042 1.47917 18 1.95 18 2.5V16.5C18 17.05 17.8042 17.5208 17.4125 17.9125C17.0208 18.3042 16.55 18.5 16 18.5H2ZM16 4.75L9.95 11.55L6.7 8.3C6.5 8.1 6.26667 8 6 8C5.73333 8 5.5 8.1 5.3 8.3L2 11.6V14.45L6 10.45L9.3 13.75C9.5 13.95 9.74583 14.0458 10.0375 14.0375C10.3292 14.0292 10.5667 13.9167 10.75 13.7L16 7.75V4.75Z" fill="#666666"/>
</svg>
