<svg width="17" height="14" viewBox="0 0 17 14" fill="none" xmlns="http://www.w3.org/2000/svg">
<path d="M8.49563 3C8.70688 3 8.88542 3.07187 9.03125 3.21562C9.17708 3.35937 9.25 3.5375 9.25 3.75V13.25C9.25 13.4625 9.17854 13.6406 9.03563 13.7844C8.89271 13.9281 8.71563 14 8.50438 14C8.29313 14 8.11458 13.9281 7.96875 13.7844C7.82292 13.6406 7.75 13.4625 7.75 13.25V3.75C7.75 3.5375 7.82146 3.35937 7.96438 3.21562C8.10729 3.07187 8.28438 3 8.49563 3ZM5.24563 5C5.45688 5 5.63542 5.07187 5.78125 5.21562C5.92708 5.35938 6 5.5375 6 5.75V11.25C6 11.4625 5.92854 11.6406 5.78562 11.7844C5.64271 11.9281 5.46562 12 5.25437 12C5.04313 12 4.86458 11.9281 4.71875 11.7844C4.57292 11.6406 4.5 11.4625 4.5 11.25V5.75C4.5 5.5375 4.57146 5.35938 4.71438 5.21562C4.85729 5.07187 5.03438 5 5.24563 5ZM11.7456 5C11.9569 5 12.1354 5.07187 12.2812 5.21562C12.4271 5.35938 12.5 5.5375 12.5 5.75V11.25C12.5 11.4625 12.4285 11.6406 12.2856 11.7844C12.1427 11.9281 11.9656 12 11.7544 12C11.5431 12 11.3646 11.9281 11.2188 11.7844C11.0729 11.6406 11 11.4625 11 11.25V5.75C11 5.5375 11.0715 5.35938 11.2144 5.21562C11.3573 5.07187 11.5344 5 11.7456 5ZM8.5 1.5C7.83333 1.5 7.21875 1.65278 6.65625 1.95833C6.09375 2.26389 5.63194 2.69444 5.27083 3.25C4.90972 3.80556 4.44785 4.23611 3.88521 4.54167C3.32257 4.84722 2.72194 5 2.08333 5H1.25C1.0375 5 0.859375 4.92854 0.715625 4.78563C0.571875 4.64271 0.5 4.46563 0.5 4.25438C0.5 4.04313 0.571875 3.86458 0.715625 3.71875C0.859375 3.57292 1.0375 3.5 1.25 3.5H2.08333C2.47389 3.5 2.83889 3.40625 3.17833 3.21875C3.51778 3.03125 3.79861 2.77778 4.02083 2.45833C4.50694 1.69444 5.14451 1.09375 5.93354 0.65625C6.72243 0.21875 7.5766 0 8.49604 0C9.41535 0 10.2708 0.21875 11.0625 0.65625C11.8542 1.09375 12.4931 1.69444 12.9792 2.45833C13.2014 2.77778 13.4822 3.03125 13.8217 3.21875C14.1611 3.40625 14.5261 3.5 14.9167 3.5H15.75C15.9625 3.5 16.1406 3.57146 16.2844 3.71437C16.4281 3.85729 16.5 4.03437 16.5 4.24562C16.5 4.45687 16.4281 4.63542 16.2844 4.78125C16.1406 4.92708 15.9625 5 15.75 5H14.9167C14.2781 5 13.6774 4.84722 13.1148 4.54167C12.5522 4.23611 12.0903 3.80556 11.7292 3.25C11.3681 2.69444 10.9062 2.26389 10.3438 1.95833C9.78125 1.65278 9.16667 1.5 8.5 1.5ZM2.25438 9.25C2.04313 9.25 1.86458 9.17854 1.71875 9.03563C1.57292 8.89271 1.5 8.71563 1.5 8.50438C1.5 8.29313 1.57146 8.11458 1.71437 7.96875C1.85729 7.82292 2.03437 7.75 2.24562 7.75C2.45687 7.75 2.63542 7.82146 2.78125 7.96438C2.92708 8.10729 3 8.28438 3 8.49563C3 8.70688 2.92854 8.88542 2.78563 9.03125C2.64271 9.17708 2.46563 9.25 2.25438 9.25ZM14.7544 9.25C14.5431 9.25 14.3646 9.17854 14.2188 9.03563C14.0729 8.89271 14 8.71563 14 8.50438C14 8.29313 14.0715 8.11458 14.2144 7.96875C14.3573 7.82292 14.5344 7.75 14.7456 7.75C14.9569 7.75 15.1354 7.82146 15.2812 7.96438C15.4271 8.10729 15.5 8.28438 15.5 8.49563C15.5 8.70688 15.4285 8.88542 15.2856 9.03125C15.1427 9.17708 14.9656 9.25 14.7544 9.25Z" fill="#FF6700"/>
</svg>
