<svg width="20" height="20" viewBox="0 0 20 20" fill="none" xmlns="http://www.w3.org/2000/svg">
<path d="M1 18.5C0.716667 18.5 0.479167 18.4042 0.2875 18.2125C0.0958333 18.0208 0 17.7833 0 17.5C0 17.2167 0.0958333 16.9792 0.2875 16.7875C0.479167 16.5958 0.716667 16.5 1 16.5H2V2.5C2 1.95 2.19583 1.47917 2.5875 1.0875C2.97917 0.695833 3.45 0.5 4 0.5H10C10.3833 0.5 10.7208 0.591667 11.0125 0.775C11.3042 0.958333 11.5417 1.2 11.725 1.5H14C14.55 1.5 15.0208 1.69583 15.4125 2.0875C15.8042 2.47917 16 2.95 16 3.5V6.5C16 6.78333 15.9042 7.02083 15.7125 7.2125C15.5208 7.40417 15.2833 7.5 15 7.5C14.7167 7.5 14.4792 7.40417 14.2875 7.2125C14.0958 7.02083 14 6.78333 14 6.5V3.5H12V7.6C12 7.78333 11.9542 7.95 11.8625 8.1C11.7708 8.25 11.6417 8.36667 11.475 8.45C10.4083 9.08333 9.5625 9.9375 8.9375 11.0125C8.3125 12.0875 8 13.25 8 14.5C8 14.9833 8.05417 15.4625 8.1625 15.9375C8.27083 16.4125 8.41667 16.8667 8.6 17.3C8.73333 17.5833 8.72083 17.8542 8.5625 18.1125C8.40417 18.3708 8.18333 18.5 7.9 18.5H1ZM8 10.5C8.28333 10.5 8.52083 10.4042 8.7125 10.2125C8.90417 10.0208 9 9.78333 9 9.5C9 9.21667 8.90417 8.97917 8.7125 8.7875C8.52083 8.59583 8.28333 8.5 8 8.5C7.71667 8.5 7.47917 8.59583 7.2875 8.7875C7.09583 8.97917 7 9.21667 7 9.5C7 9.78333 7.09583 10.0208 7.2875 10.2125C7.47917 10.4042 7.71667 10.5 8 10.5ZM14.4 19.5C14.2667 19.5 14.1625 19.4625 14.0875 19.3875C14.0125 19.3125 13.9583 19.2167 13.925 19.1L13.7 18C13.5 17.9167 13.3125 17.825 13.1375 17.725C12.9625 17.625 12.7917 17.5083 12.625 17.375L11.575 17.75C11.4583 17.7833 11.3458 17.7792 11.2375 17.7375C11.1292 17.6958 11.0417 17.625 10.975 17.525L10.375 16.5C10.3083 16.4 10.2875 16.2917 10.3125 16.175C10.3375 16.0583 10.3917 15.9583 10.475 15.875L11.3 15.15C11.2667 14.9 11.25 14.6875 11.25 14.5125C11.25 14.3375 11.2667 14.125 11.3 13.875L10.475 13.15C10.3917 13.0667 10.3375 12.9667 10.3125 12.85C10.2875 12.7333 10.3083 12.625 10.375 12.525L10.975 11.5C11.0417 11.4 11.1292 11.3292 11.2375 11.2875C11.3458 11.2458 11.4583 11.2417 11.575 11.275L12.625 11.65C12.7917 11.5167 12.9625 11.3958 13.1375 11.2875C13.3125 11.1792 13.5 11.0833 13.7 11L13.925 9.9C13.9583 9.78333 14.0125 9.6875 14.0875 9.6125C14.1625 9.5375 14.2667 9.5 14.4 9.5H15.6C15.7333 9.5 15.8375 9.5375 15.9125 9.6125C15.9875 9.6875 16.0417 9.78333 16.075 9.9L16.3 11C16.5 11.0833 16.6875 11.175 16.8625 11.275C17.0375 11.375 17.2083 11.4917 17.375 11.625L18.425 11.25C18.5417 11.2167 18.6542 11.2208 18.7625 11.2625C18.8708 11.3042 18.9583 11.375 19.025 11.475L19.625 12.5C19.6917 12.6 19.7125 12.7083 19.6875 12.825C19.6625 12.9417 19.6083 13.0417 19.525 13.125L18.7 13.85C18.7333 14.1 18.75 14.3125 18.75 14.4875C18.75 14.6625 18.7333 14.875 18.7 15.125L19.525 15.85C19.6083 15.9333 19.6625 16.0333 19.6875 16.15C19.7125 16.2667 19.6917 16.375 19.625 16.475L19.025 17.5C18.9583 17.6 18.875 17.6708 18.775 17.7125C18.675 17.7542 18.5667 17.7583 18.45 17.725L17.375 17.375C17.2083 17.5083 17.0375 17.625 16.8625 17.725C16.6875 17.825 16.5 17.9167 16.3 18L16.075 19.1C16.0417 19.2167 15.9875 19.3125 15.9125 19.3875C15.8375 19.4625 15.7333 19.5 15.6 19.5H14.4ZM15 16.5C15.55 16.5 16.0208 16.3042 16.4125 15.9125C16.8042 15.5208 17 15.05 17 14.5C17 13.95 16.8042 13.4792 16.4125 13.0875C16.0208 12.6958 15.55 12.5 15 12.5C14.45 12.5 13.9792 12.6958 13.5875 13.0875C13.1958 13.4792 13 13.95 13 14.5C13 15.05 13.1958 15.5208 13.5875 15.9125C13.9792 16.3042 14.45 16.5 15 16.5Z" fill="#666666"/>
</svg>
