<svg xmlns="http://www.w3.org/2000/svg" xmlns:xlink="http://www.w3.org/1999/xlink" width="63"
    height="63" viewBox="0 0 63 63">
    <defs>
        <filter id="Path_32425" x="0" y="0" width="63" height="63" filterUnits="userSpaceOnUse">
            <feOffset dy="3" input="SourceAlpha" />
            <feGaussianBlur stdDeviation="1.5" result="blur" />
            <feFlood flood-color="#bdbbbb" flood-opacity="0.631" />
            <feComposite operator="in" in2="blur" />
            <feComposite in="SourceGraphic" />
        </filter>
    </defs>
    <g id="delete_watchlist" transform="translate(-152.5 -569.5)">
        <g transform="matrix(1, 0, 0, 1, 152.5, 569.5)" filter="url(#Path_32425)">
            <g id="Path_32425-2" data-name="Path 32425" transform="translate(4.5 1.5)"
                fill="#3977de">
                <path
                    d="M 27 53.5 C 23.42230033874512 53.5 19.95189094543457 52.79941177368164 16.68515968322754 51.41770172119141 C 13.52962017059326 50.0830192565918 10.69554042816162 48.17221069335938 8.261670112609863 45.73833084106445 C 5.827789783477783 43.30445861816406 3.916980028152466 40.47037887573242 2.582299947738647 37.31483840942383 C 1.200590014457703 34.04811096191406 0.5 30.57769966125488 0.5 27 C 0.5 23.42230033874512 1.200590014457703 19.95189094543457 2.582299947738647 16.68515968322754 C 3.916980028152466 13.52962017059326 5.827789783477783 10.69554042816162 8.261670112609863 8.261670112609863 C 10.69554042816162 5.827789783477783 13.52962017059326 3.916980028152466 16.68515968322754 2.582299947738647 C 19.95189094543457 1.200590014457703 23.42230033874512 0.5 27 0.5 C 30.57769966125488 0.5 34.04811096191406 1.200590014457703 37.31483840942383 2.582299947738647 C 40.47037887573242 3.916980028152466 43.30445861816406 5.827789783477783 45.73833084106445 8.261670112609863 C 48.17221069335938 10.69554042816162 50.0830192565918 13.52962017059326 51.41770172119141 16.68515968322754 C 52.79941177368164 19.95189094543457 53.5 23.42230033874512 53.5 27 C 53.5 30.57769966125488 52.79941177368164 34.04811096191406 51.41770172119141 37.31483840942383 C 50.0830192565918 40.47037887573242 48.17221069335938 43.30445861816406 45.73833084106445 45.73833084106445 C 43.30445861816406 48.17221069335938 40.47037887573242 50.0830192565918 37.31483840942383 51.41770172119141 C 34.04811096191406 52.79941177368164 30.57769966125488 53.5 27 53.5 Z"
                    stroke="none" />
                <path
                    d="M 27 1 C 23.48958015441895 1 20.08470153808594 1.687301635742188 16.87992858886719 3.042800903320312 C 13.78398895263672 4.352268218994141 11.00334167480469 6.22711181640625 8.615219116210938 8.615219116210938 C 6.22711181640625 11.00334167480469 4.352268218994141 13.78398895263672 3.042800903320312 16.87992858886719 C 1.687301635742188 20.08470153808594 1 23.48958015441895 1 27 C 1 30.51041984558105 1.687301635742188 33.91529846191406 3.042800903320312 37.12007141113281 C 4.352268218994141 40.21601104736328 6.22711181640625 42.99665832519531 8.615219116210938 45.38478088378906 C 11.00334167480469 47.77288818359375 13.78398895263672 49.64772796630859 16.87992858886719 50.95719909667969 C 20.08470153808594 52.31269836425781 23.48958015441895 53 27 53 C 30.51041984558105 53 33.91529846191406 52.31269836425781 37.12007141113281 50.95719909667969 C 40.21601104736328 49.64772796630859 42.99665832519531 47.77288818359375 45.38478088378906 45.38478088378906 C 47.77288818359375 42.99665832519531 49.64772796630859 40.21601104736328 50.95719909667969 37.12007141113281 C 52.31269836425781 33.91529846191406 53 30.51041984558105 53 27 C 53 23.48958015441895 52.31269836425781 20.08470153808594 50.95719909667969 16.87992858886719 C 49.64772796630859 13.78398895263672 47.77288818359375 11.00334167480469 45.38478088378906 8.615219116210938 C 42.99665832519531 6.22711181640625 40.21601104736328 4.352268218994141 37.12007141113281 3.042800903320312 C 33.91529846191406 1.687301635742188 30.51041984558105 1 27 1 M 27 0 C 41.91168975830078 0 54 12.08831024169922 54 27 C 54 41.91168975830078 41.91168975830078 54 27 54 C 12.08831024169922 54 0 41.91168975830078 0 27 C 0 12.08831024169922 12.08831024169922 0 27 0 Z"
                    stroke="none" fill="#f3f5f8" />
            </g>
        </g>
        <g id="Group_14839" data-name="Group 14839" transform="translate(4272 -13749)">
            <rect id="Rectangle_3121" data-name="Rectangle 3121" width="24" height="24"
                transform="translate(-4100 14335)" fill="none" />
            <g id="Group_14583" data-name="Group 14583" transform="translate(-4139.482 14308.845)">
                <g id="Group_14575" data-name="Group 14575" transform="translate(43.482 32.335)">
                    <g id="Group_14572" data-name="Group 14572" transform="translate(1.634 0.036)">
                        <g id="Group_14571" data-name="Group 14571">
                            <path id="Path_32382" data-name="Path 32382"
                                d="M98.1,103.226H94.266c-1.324,0-2.648.022-3.971,0H90.24c-.084-.007-.066,0,.044.011,0,0-.1-.022-.095-.018a.7.7,0,0,0-.117-.033c-.088-.007.146.084.018.007-.026-.015-.055-.029-.084-.047-.153-.091-.011.007-.007,0s-.175-.153-.168-.168.088.146.018.015c-.018-.036-.04-.069-.058-.1-.069-.124.026.04.015.044a1.038,1.038,0,0,1-.044-.139.728.728,0,0,0-.018-.095c.062.164.011.066.011-.007V95.375c0-1.225.029-2.458,0-3.683v-.058l-.729.729H99.357l-.729-.729v11.115c0,.168.044-.157,0,0a.964.964,0,0,1-.051.186c.011-.029.026-.058.036-.084-.015.029-.029.058-.044.084a.758.758,0,0,1-.077.12c.018-.026.036-.047.055-.073-.022.026-.04.047-.062.069s-.044.044-.069.066c-.058.051-.047.04.036-.026a.864.864,0,0,1-.12.077l-.084.044c.1-.04.113-.047.04-.022-.047.011-.095.026-.142.036-.08.015-.066.011.047-.007a.825.825,0,0,1-.1,0,.729.729,0,1,0,0,1.459,2.02,2.02,0,0,0,1.991-1.991c0-.131,0-.266,0-.4V91.629a.741.741,0,0,0-.729-.729H89.029a.741.741,0,0,0-.729.729v11.039a2,2,0,0,0,.707,1.543,2.116,2.116,0,0,0,1.375.474H98.1a.729.729,0,1,0,0-1.459Z"
                                transform="translate(-88.3 -90.9)" fill="#fff" />
                        </g>
                    </g>
                    <g id="Group_14574" data-name="Group 14574" transform="translate(0 0)">
                        <g id="Group_14573" data-name="Group 14573">
                            <path id="Path_32383" data-name="Path 32383"
                                d="M44.212,91.387H56.141c.551,0,1.1.015,1.656,0h.022a.729.729,0,1,0,0-1.459H45.89c-.551,0-1.1-.015-1.656,0h-.022a.729.729,0,0,0,0,1.459Z"
                                transform="translate(-43.482 -89.922)" fill="#fff" />
                        </g>
                    </g>
                </g>
                <g id="Group_14577" data-name="Group 14577" transform="translate(47.744 30.156)">
                    <g id="Group_14576" data-name="Group 14576" transform="translate(0 0)">
                        <path id="Path_32384" data-name="Path 32384"
                            d="M161.812,33.067V31.784c0-.029.018-.1-.007,0-.029.12.011-.036.015-.047.026-.12-.069.1,0,0a.717.717,0,0,1,.051-.08c.015.007-.106.106-.04.055a.373.373,0,0,0,.066-.066c.051-.066-.047.055-.055.04a.253.253,0,0,1,.062-.036c.128-.069.011.015-.022,0,.011,0,.23-.062.095-.029-.095.026-.026,0,.007.007h3.231c.044,0,.088,0,.128,0a.274.274,0,0,0,.055,0c-.033.033-.15-.033-.047,0a.486.486,0,0,0,.069.018c.091.015-.113-.073-.04-.018a.255.255,0,0,0,.062.033c.018.011.095.04,0,0s.007.015.033.036.036.073,0,0c-.047-.1.007.022.022.044.036.055-.007.047,0,0-.022-.058-.026-.058,0,0,0,.015.007.033.011.047.04.131,0-.142,0,.007v1.284a.729.729,0,1,0,1.459,0v-.806a2.741,2.741,0,0,0-.128-1.1,1.65,1.65,0,0,0-1.506-1.007c-.175,0-.35,0-.525,0h-2.079a2.324,2.324,0,0,0-1.947.529,1.675,1.675,0,0,0-.427,1.1c0,.113,0,.23,0,.343v.941a.728.728,0,1,0,1.455,0Z"
                            transform="translate(-160.356 -30.156)" fill="#fff" />
                    </g>
                </g>
                <g id="Group_14582" data-name="Group 14582" transform="translate(48.672 35.74)">
                    <g id="Group_14579" data-name="Group 14579" transform="translate(0 0)">
                        <g id="Group_14578" data-name="Group 14578">
                            <path id="Path_32385" data-name="Path 32385"
                                d="M185.8,184.012V189.6a.729.729,0,1,0,1.459,0v-5.587a.729.729,0,1,0-1.459,0Z"
                                transform="translate(-185.8 -183.282)" fill="#fff" />
                        </g>
                    </g>
                    <g id="Group_14581" data-name="Group 14581" transform="translate(3.224 0)">
                        <g id="Group_14580" data-name="Group 14580">
                            <path id="Path_32386" data-name="Path 32386"
                                d="M274.2,184.012V189.6a.729.729,0,1,0,1.459,0v-5.587a.729.729,0,1,0-1.459,0Z"
                                transform="translate(-274.2 -183.282)" fill="#fff" />
                        </g>
                    </g>
                </g>
            </g>
        </g>
    </g>
</svg>
