<svg xmlns="http://www.w3.org/2000/svg" width="16" height="17" viewBox="0 0 16 17">
  <g id="delete_watchlist_popup" transform="translate(-43.482 -30.155)">
    <g id="Group_14575" data-name="Group 14575" transform="translate(43.482 32.471)">
      <g id="Group_14572" data-name="Group 14572" transform="translate(1.736 0.038)">
        <g id="Group_14571" data-name="Group 14571">
          <path id="Path_32382" data-name="Path 32382" d="M98.706,104h-4.07c-1.406,0-2.812.023-4.217,0H90.36c-.089-.008-.07,0,.046.012,0,0-.108-.023-.1-.019a.743.743,0,0,0-.124-.035c-.093-.008.155.089.019.008-.027-.016-.058-.031-.089-.05-.163-.1-.012.008-.008,0s-.186-.163-.178-.178.093.155.019.015c-.019-.039-.043-.074-.062-.108-.074-.132.027.043.015.046a1.1,1.1,0,0,1-.046-.147.774.774,0,0,0-.019-.1c.066.174.012.07.012-.008v-7.78c0-1.3.031-2.612,0-3.913v-.062l-.775.775h10.972l-.775-.775v11.81c0,.178.046-.167,0,0a1.024,1.024,0,0,1-.054.2c.012-.031.027-.062.039-.089-.015.031-.031.062-.046.089a.8.8,0,0,1-.081.128c.019-.027.039-.05.058-.077-.023.027-.043.05-.066.074s-.046.047-.074.07c-.062.054-.05.043.039-.027a.919.919,0,0,1-.128.081l-.089.047c.108-.043.12-.05.043-.023-.05.012-.1.027-.151.039-.085.015-.07.012.05-.008a.874.874,0,0,1-.1,0,.775.775,0,0,0,0,1.55,2.146,2.146,0,0,0,2.115-2.116c0-.139,0-.283,0-.422V91.675a.787.787,0,0,0-.775-.775H89.075a.787.787,0,0,0-.775.775V103.4a2.13,2.13,0,0,0,.751,1.639,2.246,2.246,0,0,0,1.46.5h8.195a.775.775,0,0,0,0-1.55Z" transform="translate(-88.3 -90.9)" fill="#e54f35"/>
        </g>
      </g>
      <g id="Group_14574" data-name="Group 14574" transform="translate(0 0)">
        <g id="Group_14573" data-name="Group 14573">
          <path id="Path_32383" data-name="Path 32383" d="M44.257,91.479H56.925c.585,0,1.173.015,1.758,0h.023a.775.775,0,0,0,0-1.55H46.039c-.585,0-1.173-.015-1.758,0h-.023a.775.775,0,0,0,0,1.55Z" transform="translate(-43.482 -89.922)" fill="#e54f35"/>
        </g>
      </g>
    </g>
    <g id="Group_14577" data-name="Group 14577" transform="translate(48.008 30.156)">
      <g id="Group_14576" data-name="Group 14576" transform="translate(0 0)">
        <path id="Path_32384" data-name="Path 32384" d="M161.9,33.249V31.885c0-.031.019-.1-.008,0-.031.128.012-.039.015-.05.027-.128-.074.1,0,0a.761.761,0,0,1,.054-.085c.015.008-.112.112-.043.058a.4.4,0,0,0,.07-.07c.054-.07-.05.058-.058.043a.268.268,0,0,1,.066-.039c.136-.074.012.016-.023,0,.012,0,.244-.066.1-.031-.1.027-.027,0,.008.008h3.431c.046,0,.093,0,.136,0a.291.291,0,0,0,.058,0c-.035.035-.159-.035-.05,0a.516.516,0,0,0,.074.019c.1.015-.12-.077-.043-.019a.271.271,0,0,0,.066.035c.019.012.1.043,0,0s.008.015.035.039.039.077,0,0c-.05-.108.008.023.023.046.039.058-.008.05,0,0-.023-.062-.027-.062,0,0,0,.015.008.035.012.05.043.139,0-.151,0,.008v1.364a.775.775,0,1,0,1.549,0V32.4a2.914,2.914,0,0,0-.136-1.17,1.752,1.752,0,0,0-1.6-1.069c-.186,0-.372,0-.558,0h-2.208a2.467,2.467,0,0,0-2.068.562,1.78,1.78,0,0,0-.453,1.166c0,.12,0,.244,0,.364v1a.773.773,0,1,0,1.545,0Z" transform="translate(-160.356 -30.156)" fill="#e54f35"/>
      </g>
    </g>
    <g id="Group_14582" data-name="Group 14582" transform="translate(48.994 36.089)">
      <g id="Group_14579" data-name="Group 14579" transform="translate(0 0)">
        <g id="Group_14578" data-name="Group 14578">
          <path id="Path_32385" data-name="Path 32385" d="M185.8,184.058v5.936a.775.775,0,1,0,1.549,0v-5.936a.775.775,0,1,0-1.549,0Z" transform="translate(-185.8 -183.282)" fill="#e54f35"/>
        </g>
      </g>
      <g id="Group_14581" data-name="Group 14581" transform="translate(3.424 0)">
        <g id="Group_14580" data-name="Group 14580">
          <path id="Path_32386" data-name="Path 32386" d="M274.2,184.058v5.936a.775.775,0,1,0,1.549,0v-5.936a.775.775,0,1,0-1.549,0Z" transform="translate(-274.2 -183.282)" fill="#e54f35"/>
        </g>
      </g>
    </g>
  </g>
</svg>
