<svg width="16" height="16" viewBox="0 0 16 16" fill="none" xmlns="http://www.w3.org/2000/svg">
<mask id="mask0_5078_5232" style="mask-type:alpha" maskUnits="userSpaceOnUse" x="0" y="0" width="16" height="16">
<rect width="16" height="16" fill="#D9D9D9"/>
</mask>
<g mask="url(#mask0_5078_5232)">
<path d="M6.13203 5.5H9.86536L8.0987 2H7.8987L6.13203 5.5ZM7.4987 13.4V6.5H1.7487L7.4987 13.4ZM8.4987 13.4L14.2487 6.5H8.4987V13.4ZM10.9654 5.5H14.4154L13.032 2.73333C12.9098 2.51111 12.7459 2.33333 12.5404 2.2C12.3348 2.06667 12.1043 2 11.8487 2H9.23203L10.9654 5.5ZM1.58203 5.5H5.03203L6.76536 2H4.1487C3.89314 2 3.66259 2.06667 3.45703 2.2C3.25148 2.33333 3.08759 2.51111 2.96536 2.73333L1.58203 5.5Z" fill="white"/>
</g>
</svg>
