<svg xmlns="http://www.w3.org/2000/svg" width="16" height="14" viewBox="0 0 16 14">
  <g id="Group_16646" data-name="Group 16646" transform="translate(547 -200)">
    <path id="Path_32495" data-name="Path 32495" d="M-531,208.71a7.1,7.1,0,0,1-.22.834,3.255,3.255,0,0,1-2.587,2.144c-.218.04-.442.047-.679.071v-1.266a6.369,6.369,0,0,0,.668-.1,2.1,2.1,0,0,0,1.564-2.147,2.1,2.1,0,0,0-1.8-1.98,3.443,3.443,0,0,0-.4-.026c-.255,0-.509,0-.788,0,0-.07,0-.131,0-.191-.019-.521,0-1.046-.067-1.562a3.535,3.535,0,0,0-1.055-2.084,3.691,3.691,0,0,0-2.261-1.1,3.783,3.783,0,0,0-4.116,2.972c-.072.316-.1.643-.146.975-.266.033-.542.049-.81.1a2.584,2.584,0,0,0-2.046,2.591,2.592,2.592,0,0,0,2.161,2.514c.043.007.112.056.112.087.008.394.005.789.005,1.228a7.417,7.417,0,0,1-.864-.2,3.823,3.823,0,0,1-2.622-3.1c-.013-.071-.029-.142-.043-.212v-.792c.011-.033.025-.066.032-.1a6.276,6.276,0,0,1,.143-.645,3.765,3.765,0,0,1,2.708-2.589.177.177,0,0,0,.146-.153,4.592,4.592,0,0,1,.478-1.294,4.975,4.975,0,0,1,3.142-2.505c.338-.093.691-.127,1.038-.188h.5a.973.973,0,0,0,.136.027,4.744,4.744,0,0,1,1.379.3A5.123,5.123,0,0,1-534,204.852c0,.106.036.139.14.157a3.288,3.288,0,0,1,2.669,2.216,6.789,6.789,0,0,1,.195.756Z" fill="#f80"/>
    <path id="Path_32496" data-name="Path 32496" d="M-396.18,375.919c-.036-.043-.07-.089-.11-.129q-1.562-1.585-3.126-3.168a.781.781,0,0,0-.125-.089l.909-.923,1.8,1.837.035-.016v-6.215h1.265v6.238l1.821-1.847.895.91c-.015.016-.056.061-.1.1l-3.124,3.169c-.039.04-.073.086-.11.129Z" transform="translate(-142.851 -161.919)" fill="#f80"/>
  </g>
</svg>
