<svg width="218" height="218" viewBox="0 0 218 218" fill="none" xmlns="http://www.w3.org/2000/svg">
<circle opacity="0.2" cx="108.971" cy="108.971" r="108.971" fill="#E8E8E8"/>
<path d="M164.467 119.258L164.431 119.276C160.174 122.541 158.37 128.097 159.885 133.238L159.903 133.275C162.321 141.446 156.332 149.69 147.817 149.907H147.781C142.405 150.051 137.679 153.478 135.893 158.547V158.565C133.043 166.611 123.338 169.768 116.32 164.915C111.963 161.94 106.203 161.784 101.618 164.915H101.6C94.5833 169.749 84.8781 166.611 82.0458 158.547C80.2439 153.465 75.5246 150.051 70.158 149.906H70.1219C61.6075 149.69 55.6182 141.446 58.0356 133.274L58.0536 133.238C59.5685 128.097 57.7647 122.541 53.5077 119.276L53.4716 119.258C46.7067 114.062 46.7067 103.888 53.4716 98.6931L53.5077 98.6752C57.7647 95.4102 59.5685 89.8539 58.0356 84.7128V84.6766C55.6 76.505 61.6073 68.2609 70.1219 68.0445H70.158C75.5156 67.9002 80.2599 64.4726 82.0458 59.4037V59.3858C84.8778 51.3403 94.5833 48.1835 101.6 53.0363H101.618C106.038 56.0849 111.883 56.0849 116.32 53.0363C123.408 48.1416 133.059 51.3886 135.893 59.3858V59.4037C137.679 64.4547 142.405 67.9004 147.781 68.0445H147.817C156.332 68.2609 162.321 76.505 159.903 84.6766L159.885 84.7128C158.37 89.8539 160.174 95.4102 164.431 98.6752L164.467 98.6931C171.232 103.888 171.232 114.063 164.467 119.258Z" fill="#3EB655"/>
<path d="M108.969 142.574C127.528 142.574 142.572 127.53 142.572 108.971C142.572 90.4132 127.528 75.3688 108.969 75.3688C90.4111 75.3688 75.3667 90.4132 75.3667 108.971C75.3667 127.53 90.4111 142.574 108.969 142.574Z" fill="#8BD399"/>
<path d="M100.975 122.126L93.5442 114.22C91.5982 112.15 91.6986 108.894 93.7686 106.948C95.8386 104.999 99.0959 105.104 101.04 107.173L104.587 110.945L119.665 93.7124C121.534 91.5737 124.785 91.3568 126.925 93.2284C129.064 95.1 129.279 98.3497 127.409 100.488L108.595 121.99C106.591 124.279 103.053 124.338 100.975 122.126Z" fill="white"/>
</svg>
