<svg width="73" height="73" viewBox="0 0 73 73" fill="none" xmlns="http://www.w3.org/2000/svg">
<circle opacity="0.2" cx="36.4771" cy="36.9205" r="35.9713" fill="#E8E8E8"/>
<path d="M36.4771 54.8601C46.3849 54.8601 54.4167 46.8282 54.4167 36.9205C54.4167 27.0127 46.3849 18.9809 36.4771 18.9809C26.5694 18.9809 18.5375 27.0127 18.5375 36.9205C18.5375 46.8282 26.5694 54.8601 36.4771 54.8601Z" fill="#E24C4B"/>
<path d="M44.6618 45.1051C43.9891 45.7778 42.8678 45.7778 42.1951 45.1051L36.4769 39.3869L30.7586 45.1051C30.0859 45.7778 28.9647 45.7778 28.2919 45.1051C27.6192 44.4324 27.6192 43.3111 28.2919 42.6384L34.0102 36.9202L28.2919 31.202C27.6192 30.5293 27.6192 29.408 28.2919 28.7353C28.9647 28.0626 30.0859 28.0626 30.7586 28.7353L36.4769 34.4535L42.1951 28.7353C42.8678 28.0626 43.9891 28.0626 44.6618 28.7353C45.3345 29.408 45.3345 30.5293 44.6618 31.202L38.9436 36.9202L44.6618 42.6384C45.3345 43.3111 45.3345 44.4323 44.6618 45.1051Z" fill="white"/>
</svg>
