<svg width="15" height="17" viewBox="0 0 15 17" fill="none" xmlns="http://www.w3.org/2000/svg">
<path d="M1.7109 14.2315C1.87987 14.2315 1.91367 14.2146 2.06574 14.1808L5.10721 13.5725C5.42825 13.4881 5.7493 13.336 6.00275 13.0825L13.3699 5.71542C14.502 4.58332 14.502 2.64016 13.3699 1.50806L12.7447 0.849076C11.6126 -0.283025 9.65251 -0.283025 8.52041 0.849076L1.1533 8.23308C0.916743 8.46964 0.747773 8.80758 0.663288 9.12862L0.0212002 12.2039C-0.063285 12.7784 0.105685 13.336 0.511214 13.7415C0.832258 14.0626 1.30537 14.2315 1.7109 14.2315ZM2.2854 9.44967L9.65251 2.06566C10.1425 1.57565 11.0381 1.57565 11.5112 2.06566L12.1533 2.70775C12.7278 3.28225 12.7278 4.09331 12.1533 4.65091L4.80306 12.0349L1.67711 12.5587L2.2854 9.44967Z" fill="white"/>
<path d="M13.3026 15.2791H0.832542C0.342528 15.2791 0.0214844 15.6001 0.0214844 16.0901C0.0214844 16.5801 0.427013 16.9012 0.832542 16.9012H13.235C13.725 16.9012 14.1305 16.5801 14.1305 16.0901C14.1136 15.6001 13.7081 15.2791 13.3026 15.2791Z" fill="white"/>
</svg>
