<svg width="16" height="16" viewBox="0 0 16 16" fill="none" xmlns="http://www.w3.org/2000/svg">
<path d="M1.5 16C1.0875 16 0.734375 15.8531 0.440625 15.5594C0.146875 15.2656 0 14.9125 0 14.5V3.5C0 3.0875 0.146875 2.73438 0.440625 2.44063C0.734375 2.14688 1.0875 2 1.5 2H6.75C7 2 7.1875 2.07812 7.3125 2.23438C7.4375 2.39062 7.5 2.5625 7.5 2.75C7.5 2.9375 7.43597 3.10938 7.30792 3.26562C7.17986 3.42188 6.99389 3.5 6.75 3.5H1.5V14.5H12.5V9.73979C12.5 9.4966 12.5781 9.3125 12.7344 9.1875C12.8906 9.0625 13.0625 9 13.25 9C13.4375 9 13.6094 9.0625 13.7656 9.1875C13.9219 9.3125 14 9.5 14 9.75V14.5C14 14.9125 13.8531 15.2656 13.5594 15.5594C13.2656 15.8531 12.9125 16 12.5 16H1.5ZM5 10.2537V8.44438C5 8.24535 5.03472 8.05556 5.10417 7.875C5.17361 7.69444 5.28236 7.53014 5.43042 7.38208L12.375 0.4375C12.5278 0.284722 12.6944 0.173611 12.875 0.104167C13.0556 0.0347222 13.2396 0 13.4271 0C13.6271 0 13.8177 0.0347222 13.999 0.104167C14.1802 0.173611 14.3468 0.283195 14.4988 0.432917L15.5625 1.5C15.7153 1.65278 15.8264 1.82069 15.8958 2.00375C15.9653 2.18681 16 2.37306 16 2.5625C16 2.75222 15.9651 2.93882 15.8954 3.12229C15.8257 3.30562 15.7147 3.47319 15.5625 3.625L8.61792 10.5696C8.46986 10.7176 8.3059 10.8264 8.12604 10.8958C7.94618 10.9653 7.75701 11 7.55854 11H5.75375C5.54292 11 5.36458 10.9285 5.21875 10.7854C5.07292 10.6425 5 10.4653 5 10.2537ZM6.5 9.5H7.5625L12.375 4.6875L11.8542 4.14583L11.3125 3.625L6.5 8.4375V9.5Z" fill="#002953"/>
</svg>
