<svg xmlns="http://www.w3.org/2000/svg" width="38" height="36" viewBox="0 0 38 36">
  <g id="Group_18057" data-name="Group 18057" transform="translate(504.027 -188)">
    <path id="Path_32558" data-name="Path 32558" d="M-466.027,211.365c-.042.166-.087.33-.125.5a5.284,5.284,0,0,1-5.335,4.286q-7.949.01-15.9,0a1.344,1.344,0,0,0-.836.273q-5.1,3.672-10.211,7.328c-.106.076-.218.145-.384.255v-7.819c-.441-.072-.848-.106-1.237-.208a5.311,5.311,0,0,1-3.956-5.319q-.033-8.575,0-17.15a5.282,5.282,0,0,1,4.257-5.39,6.056,6.056,0,0,1,1.218-.108q13.505-.009,27.011,0a5.293,5.293,0,0,1,5.373,4.289c.038.167.083.332.124.5Zm-30.547,8.214c.192-.13.312-.207.428-.29q3.632-2.6,7.26-5.212a1.338,1.338,0,0,1,.838-.263q8.206.011,16.412,0c.185,0,.37,0,.553-.009a2.851,2.851,0,0,0,1.6-.612,3.233,3.233,0,0,0,1.2-2.74q-.015-8.371-.005-16.742c0-.149-.013-.3-.016-.447a3.018,3.018,0,0,0-2.994-2.937q-13.723.01-27.445.007a2.992,2.992,0,0,0-3.033,3.113q-.02,8.616,0,17.231a2.921,2.921,0,0,0,1.723,2.826,4.05,4.05,0,0,0,1.412.3c.677.049,1.359.012,2.065.012Z" transform="translate(0 0)" fill="#aeb2b7"/>
    <path id="Path_32559" data-name="Path 32559" d="M-357.71,287.885v2.184h-17.814v-2.184Z" transform="translate(-118.417 -91.722)" fill="#aeb2b7"/>
    <path id="Path_32560" data-name="Path 32560" d="M-375.537,349.843v-2.2h17.811v2.2Z" transform="translate(-118.405 -146.591)" fill="#aeb2b7"/>
    <path id="Path_32561" data-name="Path 32561" d="M-375.517,409.715v-2.208h17.811v2.208Z" transform="translate(-118.423 -201.567)" fill="#aeb2b7"/>
  </g>
</svg>
