<svg id="eye_closed" xmlns="http://www.w3.org/2000/svg" width="22" height="19" viewBox="0 0 22 19">
    <g id="Group_8709" data-name="Group 8709" transform="translate(0 0)">
        <g id="Group_8708" data-name="Group 8708">
            <path id="Path_28836" data-name="Path 28836"
                d="M234.363,160.068l-3.2,3.24-.015-.17a3.07,3.07,0,0,1,3.049-3.086Z"
                transform="translate(-223.155 -154.099)" fill="#FF6700" />
            <path id="Path_28837" data-name="Path 28837"
                d="M160.908,66.61a5.138,5.138,0,0,0-5.315,4.885,6.653,6.653,0,0,0,.469,2.141l-2.781,2.891a12.235,12.235,0,0,1-3.625-4.8,12.1,12.1,0,0,1,11.253-7.669,12.846,12.846,0,0,1,4.2.926L162.827,67.1A5.54,5.54,0,0,0,160.908,66.61Z"
                transform="translate(-149.655 -62.52)" fill="#FF6700" />
            <path id="Path_28838" data-name="Path 28838"
                d="M18.952,33.328l-2.274,2.28-.454.455a11.842,11.842,0,0,1,3.726,4.99,11.8,11.8,0,0,1-10.972,7.5A11.67,11.67,0,0,1,4.6,47.708l-.424.425-2.908,2.92L0,49.783l17.681-17.73Zm-5.516,5.525L11.9,40.4a3.176,3.176,0,0,1,.075.655,3,3,0,0,1-2.992,3,3.068,3.068,0,0,1-.648-.075L6.869,45.446a5.205,5.205,0,0,0,2.275.428,5.068,5.068,0,0,0,4.768-4.821A4.929,4.929,0,0,0,13.436,38.853Z"
                transform="translate(2.05 -32.053)" fill="#FF6700" />
        </g>
    </g>
</svg>
