<svg width="22" height="23" viewBox="0 0 22 23" fill="none" xmlns="http://www.w3.org/2000/svg">
<path d="M11 3.5C13.2333 3.5 15.125 4.275 16.675 5.825C18.225 7.375 19 9.26667 19 11.5C19 13.7333 18.225 15.625 16.675 17.175C15.125 18.725 13.2333 19.5 11 19.5C8.76667 19.5 6.875 18.725 5.325 17.175C3.775 15.625 3 13.7333 3 11.5C3 9.26667 3.775 7.375 5.325 5.825C6.875 4.275 8.76667 3.5 11 3.5ZM7.5 9.5C7.5 9.78333 7.59583 10.0208 7.7875 10.2125C7.97917 10.4042 8.21667 10.5 8.5 10.5C8.78333 10.5 9.02083 10.4042 9.2125 10.2125C9.40417 10.0208 9.5 9.78333 9.5 9.5C9.5 9.21667 9.40417 8.97917 9.2125 8.7875C9.02083 8.59583 8.78333 8.5 8.5 8.5C8.21667 8.5 7.97917 8.59583 7.7875 8.7875C7.59583 8.97917 7.5 9.21667 7.5 9.5ZM12.5 9.5C12.5 9.78333 12.5958 10.0208 12.7875 10.2125C12.9792 10.4042 13.2167 10.5 13.5 10.5C13.7833 10.5 14.0208 10.4042 14.2125 10.2125C14.4042 10.0208 14.5 9.78333 14.5 9.5C14.5 9.21667 14.4042 8.97917 14.2125 8.7875C14.0208 8.59583 13.7833 8.5 13.5 8.5C13.2167 8.5 12.9792 8.59583 12.7875 8.7875C12.5958 8.97917 12.5 9.21667 12.5 9.5ZM0 4.5V2.5C0 1.95 0.195833 1.47917 0.5875 1.0875C0.979167 0.695833 1.45 0.5 2 0.5H4C4.28333 0.5 4.52083 0.595833 4.7125 0.7875C4.90417 0.979167 5 1.21667 5 1.5C5 1.78333 4.90417 2.02083 4.7125 2.2125C4.52083 2.40417 4.28333 2.5 4 2.5H2V4.5C2 4.78333 1.90417 5.02083 1.7125 5.2125C1.52083 5.40417 1.28333 5.5 1 5.5C0.716667 5.5 0.479167 5.40417 0.2875 5.2125C0.0958333 5.02083 0 4.78333 0 4.5ZM4 22.5H2C1.45 22.5 0.979167 22.3042 0.5875 21.9125C0.195833 21.5208 0 21.05 0 20.5V18.5C0 18.2167 0.0958333 17.9792 0.2875 17.7875C0.479167 17.5958 0.716667 17.5 1 17.5C1.28333 17.5 1.52083 17.5958 1.7125 17.7875C1.90417 17.9792 2 18.2167 2 18.5V20.5H4C4.28333 20.5 4.52083 20.5958 4.7125 20.7875C4.90417 20.9792 5 21.2167 5 21.5C5 21.7833 4.90417 22.0208 4.7125 22.2125C4.52083 22.4042 4.28333 22.5 4 22.5ZM20 22.5H18C17.7167 22.5 17.4792 22.4042 17.2875 22.2125C17.0958 22.0208 17 21.7833 17 21.5C17 21.2167 17.0958 20.9792 17.2875 20.7875C17.4792 20.5958 17.7167 20.5 18 20.5H20V18.5C20 18.2167 20.0958 17.9792 20.2875 17.7875C20.4792 17.5958 20.7167 17.5 21 17.5C21.2833 17.5 21.5208 17.5958 21.7125 17.7875C21.9042 17.9792 22 18.2167 22 18.5V20.5C22 21.05 21.8042 21.5208 21.4125 21.9125C21.0208 22.3042 20.55 22.5 20 22.5ZM20 4.5V2.5H18C17.7167 2.5 17.4792 2.40417 17.2875 2.2125C17.0958 2.02083 17 1.78333 17 1.5C17 1.21667 17.0958 0.979167 17.2875 0.7875C17.4792 0.595833 17.7167 0.5 18 0.5H20C20.55 0.5 21.0208 0.695833 21.4125 1.0875C21.8042 1.47917 22 1.95 22 2.5V4.5C22 4.78333 21.9042 5.02083 21.7125 5.2125C21.5208 5.40417 21.2833 5.5 21 5.5C20.7167 5.5 20.4792 5.40417 20.2875 5.2125C20.0958 5.02083 20 4.78333 20 4.5ZM11 15C11.6333 15 12.2208 14.85 12.7625 14.55C13.3042 14.25 13.7417 13.8417 14.075 13.325C14.175 13.1417 14.1708 12.9583 14.0625 12.775C13.9542 12.5917 13.7917 12.5 13.575 12.5H8.425C8.20833 12.5 8.04583 12.5917 7.9375 12.775C7.82917 12.9583 7.825 13.1417 7.925 13.325C8.25833 13.8417 8.69583 14.25 9.2375 14.55C9.77917 14.85 10.3667 15 11 15Z" fill="#666666"/>
</svg>
