<svg width="37" height="36" viewBox="0 0 37 36" fill="none" xmlns="http://www.w3.org/2000/svg">
<path d="M18.4771 35.9212C28.3849 35.9212 36.4167 27.8894 36.4167 17.9816C36.4167 8.07382 28.3849 0.0419922 18.4771 0.0419922C8.56937 0.0419922 0.537537 8.07382 0.537537 17.9816C0.537537 27.8894 8.56937 35.9212 18.4771 35.9212Z" fill="#E24C4B"/>
<path d="M26.6618 26.1663C25.9891 26.839 24.8678 26.839 24.1951 26.1663L18.4769 20.4481L12.7586 26.1663C12.0859 26.839 10.9647 26.839 10.2919 26.1663C9.61924 25.4936 9.61924 24.3723 10.2919 23.6996L16.0102 17.9814L10.2919 12.2632C9.61924 11.5905 9.61924 10.4692 10.2919 9.79652C10.9647 9.12382 12.0859 9.12382 12.7586 9.79652L18.4769 15.5147L24.1951 9.79652C24.8678 9.12382 25.9891 9.12382 26.6618 9.79652C27.3345 10.4692 27.3345 11.5905 26.6618 12.2632L20.9436 17.9814L26.6618 23.6996C27.3345 24.3723 27.3345 25.4935 26.6618 26.1663Z" fill="white"/>
</svg>
