<svg xmlns="http://www.w3.org/2000/svg" width="12" height="15" viewBox="0 0 12 15">
  <g id="settings_icon" transform="translate(0 0)">
    <g id="Group_14547" data-name="Group 14547" transform="translate(0 0)">
      <path id="Path_32374" data-name="Path 32374" d="M8.17,1.166a2.264,2.264,0,0,1,0,4.334v5.833a.67.67,0,0,1-1.339,0V5.5a2.264,2.264,0,0,1,0-4.334v-.5a.67.67,0,0,1,1.339,0ZM6.563,3.333A.938.938,0,1,0,7.5,2.4.937.937,0,0,0,6.563,3.333Zm-3.616,3.7h0a2.264,2.264,0,0,1,0,4.334.67.67,0,0,1-1.338,0,2.264,2.264,0,0,1,0-4.334V.667a.67.67,0,0,1,1.339,0ZM1.339,9.2a.938.938,0,1,0,.938-.933A.937.937,0,0,0,1.339,9.2ZM13.393,5.166h0a2.264,2.264,0,0,1,0,4.334v1.833a.67.67,0,0,1-1.339,0V9.5a2.264,2.264,0,0,1,0-4.334V.667a.67.67,0,0,1,1.339,0ZM11.786,7.333a.938.938,0,1,0,.937-.933A.937.937,0,0,0,11.786,7.333Z" transform="translate(12 0) rotate(90)" fill="#aeb2b7"/>
    </g>
  </g>
</svg>
