<svg width="24" height="25" viewBox="0 0 24 25" fill="none" xmlns="http://www.w3.org/2000/svg">
<g clip-path="url(#clip0_1868_28180)">
<path d="M19.2656 0.911656V5.1875H23.5411L19.2656 0.911656Z" fill="#FF6700"/>
<path d="M18.5625 6.59375C18.1742 6.59375 17.8594 6.27894 17.8594 5.89062V0.5H7.78125C6.61814 0.5 5.67188 1.44627 5.67188 2.60938V10.4698C5.90353 10.4488 6.13795 10.4375 6.375 10.4375C8.77163 10.4375 10.917 11.5332 12.3368 13.25H19.9688C20.3571 13.25 20.6719 13.5648 20.6719 13.9531C20.6719 14.3414 20.3571 14.6562 19.9688 14.6562H13.2632C13.7027 15.5139 13.9861 16.464 14.0771 17.4688H19.9688C20.3571 17.4688 20.6719 17.7836 20.6719 18.1719C20.6719 18.5602 20.3571 18.875 19.9688 18.875H14.0771C13.8668 21.1971 12.6261 23.2262 10.8168 24.5H21.8438C23.0069 24.5 23.9531 23.5537 23.9531 22.3906V6.59375H18.5625ZM19.9688 10.4375H9.65625C9.26794 10.4375 8.95312 10.1227 8.95312 9.73438C8.95312 9.34606 9.26794 9.03125 9.65625 9.03125H19.9688C20.3571 9.03125 20.6719 9.34606 20.6719 9.73438C20.6719 10.1227 20.3571 10.4375 19.9688 10.4375Z" fill="#FF6700"/>
<path d="M6.375 11.8438C2.88567 11.8438 0.046875 14.6825 0.046875 18.1719C0.046875 21.6612 2.88567 24.5 6.375 24.5C9.86433 24.5 12.7031 21.6612 12.7031 18.1719C12.7031 14.6825 9.86433 11.8438 6.375 11.8438ZM8.25 18.875H6.375C5.98669 18.875 5.67188 18.5602 5.67188 18.1719V15.3594C5.67188 14.9711 5.98669 14.6562 6.375 14.6562C6.76331 14.6562 7.07812 14.9711 7.07812 15.3594V17.4688H8.25C8.63831 17.4688 8.95312 17.7836 8.95312 18.1719C8.95312 18.5602 8.63831 18.875 8.25 18.875Z" fill="#FF6700"/>
</g>
<defs>
<clipPath id="clip0_1868_28180">
<rect width="24" height="24" fill="white" transform="translate(0 0.5)"/>
</clipPath>
</defs>
</svg>
