<svg width="185" height="170" viewBox="0 0 185 170" fill="none" xmlns="http://www.w3.org/2000/svg">
    <path
        d="M135.579 48.8726H54.2493C52.4996 48.8726 50.8225 49.5672 49.585 50.8047C48.3496 52.04 47.655 53.7172 47.655 55.4668V68.6554H135.579V48.8726Z"
        fill="url(#paint0_linear_528_4061)" />
    <path d="M47.655 56.9746H135.579V61.0697H47.655V56.9746Z" fill="url(#paint1_linear_528_4061)" />
    <path
        d="M135.579 46.848C135.579 45.1005 134.884 43.4233 133.647 42.1858C132.409 40.9505 130.732 40.2537 128.985 40.2537C121.113 40.2537 108.147 40.2537 101.205 40.2537C98.3762 40.2537 95.8637 42.0583 94.9581 44.7378C93.6876 48.5031 92.0764 53.2686 92.0764 53.2686H135.579V46.848Z"
        fill="url(#paint2_linear_528_4061)" />
    <path
        d="M141.048 70.0117C141.443 67.475 140.709 64.8901 139.039 62.9382C137.368 60.9863 134.928 59.863 132.359 59.863C112.969 59.863 71.1835 59.863 51.7941 59.863C49.2245 59.863 46.7846 60.9863 45.114 62.9382C43.4435 64.8901 42.7093 67.475 43.105 70.0117C45.3426 84.3257 49.3696 110.101 51.3478 122.766C52.0183 127.048 55.7045 130.202 60.0369 130.202H124.116C128.448 130.202 132.134 127.048 132.805 122.766C134.783 110.101 138.81 84.3257 141.048 70.0117Z"
        fill="url(#paint3_linear_528_4061)" />
    <path
        d="M43.105 70.0117L44.2326 77.2214C43.8347 74.6826 44.7074 72.0976 46.3779 70.1457C48.0485 68.1938 50.4884 67.0706 53.058 67.0706H131.095C133.664 67.0706 136.104 68.1938 137.775 70.1457C139.445 72.0976 140.318 74.6826 139.92 77.2214L141.048 70.0117C141.443 67.475 140.709 64.8901 139.039 62.9382C137.368 60.9863 134.928 59.863 132.359 59.863C112.969 59.863 71.1835 59.863 51.7941 59.863C49.2245 59.863 46.7846 60.9863 45.114 62.9382C43.4435 64.8901 42.7093 67.475 43.105 70.0117Z"
        fill="#E9F3FC" />
    <path
        d="M87.0537 112.281C87.0537 109.854 85.0864 107.885 82.6575 107.885C77.7799 107.885 69.9525 107.885 65.0727 107.885C62.646 107.885 60.6765 109.854 60.6765 112.281V116.677C60.6765 119.106 62.646 121.073 65.0727 121.073H82.6575C85.0864 121.073 87.0537 119.106 87.0537 116.677C87.0537 115.264 87.0537 113.697 87.0537 112.281Z"
        fill="url(#paint4_linear_528_4061)" />
    <path
        d="M73.5178 51.5301C73.4211 50.9102 73.3749 50.2992 73.3771 49.6969C73.3815 48.4857 72.4012 47.4966 71.1878 47.49C69.9745 47.4856 68.9853 48.466 68.9809 49.6793C68.9765 50.5102 69.0403 51.3565 69.1766 52.2137C69.3634 53.4117 70.491 54.2316 71.689 54.0425C72.8869 53.8557 73.7068 52.7281 73.5178 51.5301Z"
        fill="url(#paint5_linear_528_4061)" />
    <path
        d="M75.8258 43.1048C76.2566 42.5993 76.7402 42.1245 77.2765 41.6805C78.2107 40.9067 78.3426 39.5219 77.5689 38.5856C76.7951 37.6514 75.4103 37.5195 74.4739 38.2932C73.7376 38.9021 73.0716 39.5593 72.4781 40.2539C71.6912 41.1793 71.8033 42.5663 72.7265 43.3532C73.6497 44.1402 75.0389 44.028 75.8258 43.1048Z"
        fill="url(#paint6_linear_528_4061)" />
    <path
        d="M84.1105 38.5085C84.9985 38.3085 85.9349 38.159 86.9175 38.0601C88.1242 37.9392 89.0057 36.8621 88.8848 35.6554C88.7639 34.4486 87.6868 33.565 86.4801 33.6859C85.3151 33.8024 84.2028 33.9826 83.1477 34.22C81.963 34.486 81.2178 35.662 81.4838 36.8445C81.7498 38.0293 82.9257 38.7745 84.1105 38.5085Z"
        fill="url(#paint7_linear_528_4061)" />
    <path
        d="M95.3624 38.0515C96.7032 38.0866 97.9759 38.0756 99.1893 38.0251C100.4 37.9745 101.343 36.948 101.293 35.7369C101.242 34.5257 100.218 33.5827 99.0046 33.6333C97.8858 33.6794 96.7098 33.6882 95.4745 33.6575C94.2611 33.6267 93.2522 34.5873 93.2214 35.7984C93.1906 37.0118 94.1512 38.0207 95.3624 38.0515Z"
        fill="url(#paint8_linear_528_4061)" />
    <path
        d="M108.272 36.6468C109.69 36.2357 110.969 35.7455 112.116 35.196C113.209 34.6707 113.67 33.3562 113.145 32.2616C112.62 31.1691 111.305 30.7075 110.213 31.2328C109.268 31.6857 108.215 32.0857 107.045 32.4264C105.88 32.7649 105.21 33.9849 105.548 35.1499C105.887 36.3148 107.107 36.9853 108.272 36.6468Z"
        fill="url(#paint9_linear_528_4061)" />
    <path
        d="M118.722 29.7975C119.772 28.2984 120.458 26.7004 120.836 25.0847C121.113 23.9022 120.377 22.7196 119.197 22.4426C118.016 22.1679 116.831 22.902 116.557 24.0824C116.299 25.1771 115.833 26.2585 115.121 27.2741C114.427 28.2676 114.666 29.6392 115.66 30.336C116.653 31.0328 118.027 30.791 118.722 29.7975Z"
        fill="url(#paint10_linear_528_4061)" />
    <path
        d="M120.025 16.266C119.052 13.9954 117.526 12.083 115.715 10.8345C114.715 10.1443 113.345 10.3971 112.657 11.395C111.967 12.393 112.22 13.7646 113.218 14.4526C114.394 15.2637 115.354 16.5276 115.985 18.0003C116.464 19.1169 117.759 19.6335 118.873 19.1543C119.988 18.6751 120.504 17.3826 120.025 16.266Z"
        fill="url(#paint11_linear_528_4061)" />
    <path d="M91.8367 9.77711C94.215 -3.69063 114.827 -2.82018 102.827 9.77711H91.8367Z"
        fill="url(#paint12_linear_528_4061)" />
    <path d="M91.8367 13.1885C94.215 26.654 114.827 25.7858 102.827 13.1885H91.8367Z"
        fill="url(#paint13_linear_528_4061)" />
    <path
        d="M91.639 13.7028H106.357C107.571 13.7028 108.556 12.7181 108.556 11.5047C108.556 10.2914 107.571 9.30664 106.357 9.30664H91.639C90.4279 9.30664 89.4409 10.2914 89.4409 11.5047C89.4409 12.7181 90.4279 13.7028 91.639 13.7028Z"
        fill="url(#paint14_linear_528_4061)" />
    <g filter="url(#filter0_dd_528_4061)">
        <path
            d="M140.943 107.228C148.589 114.875 148.589 127.272 140.943 134.919C133.296 142.565 120.899 142.565 113.253 134.919C105.606 127.272 105.606 114.875 113.253 107.228C120.899 99.5819 133.296 99.5819 140.943 107.228Z"
            fill="#ABC1DF" stroke="#8DA3BE" stroke-width="0.3" />
        <path fill-rule="evenodd" clip-rule="evenodd"
            d="M127.103 127.43C126.665 127.43 126.291 127.074 126.215 126.585L123.975 112.199C123.693 110.387 124.922 108.727 126.544 108.727H127.661C129.283 108.727 130.512 110.387 130.23 112.199L127.991 126.585C127.916 127.074 127.541 127.43 127.103 127.43Z"
            fill="#E9F3FC" />
        <path fill-rule="evenodd" clip-rule="evenodd"
            d="M129.152 131.371C129.152 130.243 128.231 129.322 127.103 129.322C125.975 129.322 125.054 130.243 125.054 131.371C125.054 132.5 125.975 133.42 127.103 133.42C128.231 133.42 129.152 132.501 129.152 131.371Z"
            fill="#E9F3FC" />
    </g>
    <path
        d="M1.54 165C1.43733 165 1.358 164.972 1.302 164.916C1.246 164.851 1.218 164.771 1.218 164.678V155.536C1.218 155.433 1.246 155.354 1.302 155.298C1.358 155.233 1.43733 155.2 1.54 155.2H2.184C2.296 155.2 2.38 155.228 2.436 155.284C2.492 155.331 2.52467 155.368 2.534 155.396L7.182 162.536V155.536C7.182 155.433 7.21 155.354 7.266 155.298C7.322 155.233 7.40133 155.2 7.504 155.2H8.176C8.27867 155.2 8.358 155.233 8.414 155.298C8.47933 155.354 8.512 155.433 8.512 155.536V164.664C8.512 164.757 8.47933 164.837 8.414 164.902C8.358 164.967 8.28333 165 8.19 165H7.518C7.41533 165 7.336 164.972 7.28 164.916C7.23333 164.86 7.20067 164.823 7.182 164.804L2.548 157.734V164.678C2.548 164.771 2.51533 164.851 2.45 164.916C2.394 164.972 2.31467 165 2.212 165H1.54ZM13.4987 165.14C12.7894 165.14 12.1967 165.005 11.7207 164.734C11.2447 164.463 10.8807 164.09 10.6287 163.614C10.3767 163.129 10.2367 162.578 10.2087 161.962C10.1994 161.803 10.1947 161.603 10.1947 161.36C10.1947 161.108 10.1994 160.907 10.2087 160.758C10.2367 160.133 10.3767 159.582 10.6287 159.106C10.89 158.63 11.2587 158.257 11.7347 157.986C12.2107 157.715 12.7987 157.58 13.4987 157.58C14.1987 157.58 14.7867 157.715 15.2627 157.986C15.7387 158.257 16.1027 158.63 16.3547 159.106C16.616 159.582 16.7607 160.133 16.7887 160.758C16.798 160.907 16.8027 161.108 16.8027 161.36C16.8027 161.603 16.798 161.803 16.7887 161.962C16.7607 162.578 16.6207 163.129 16.3687 163.614C16.1167 164.09 15.7527 164.463 15.2767 164.734C14.8007 165.005 14.208 165.14 13.4987 165.14ZM13.4987 164.062C14.0774 164.062 14.5394 163.88 14.8847 163.516C15.23 163.143 15.4167 162.601 15.4447 161.892C15.454 161.752 15.4587 161.575 15.4587 161.36C15.4587 161.145 15.454 160.968 15.4447 160.828C15.4167 160.119 15.23 159.582 14.8847 159.218C14.5394 158.845 14.0774 158.658 13.4987 158.658C12.92 158.658 12.4534 158.845 12.0987 159.218C11.7534 159.582 11.5714 160.119 11.5527 160.828C11.5434 160.968 11.5387 161.145 11.5387 161.36C11.5387 161.575 11.5434 161.752 11.5527 161.892C11.5714 162.601 11.7534 163.143 12.0987 163.516C12.4534 163.88 12.92 164.062 13.4987 164.062ZM24.2234 165.14C23.6261 165.14 23.1174 165.009 22.6974 164.748C22.2867 164.477 21.9741 164.104 21.7594 163.628C21.5447 163.152 21.4374 162.606 21.4374 161.99V158.042C21.4374 157.949 21.4654 157.874 21.5214 157.818C21.5867 157.753 21.6661 157.72 21.7594 157.72H22.4594C22.5527 157.72 22.6274 157.753 22.6834 157.818C22.7487 157.874 22.7814 157.949 22.7814 158.042V161.92C22.7814 163.311 23.3881 164.006 24.6014 164.006C25.1801 164.006 25.6421 163.824 25.9874 163.46C26.3421 163.087 26.5194 162.573 26.5194 161.92V158.042C26.5194 157.949 26.5474 157.874 26.6034 157.818C26.6687 157.753 26.7481 157.72 26.8414 157.72H27.5274C27.6301 157.72 27.7094 157.753 27.7654 157.818C27.8214 157.874 27.8494 157.949 27.8494 158.042V164.678C27.8494 164.771 27.8214 164.851 27.7654 164.916C27.7094 164.972 27.6301 165 27.5274 165H26.8834C26.7901 165 26.7107 164.972 26.6454 164.916C26.5894 164.851 26.5614 164.771 26.5614 164.678V164.062C26.3094 164.389 26.0014 164.65 25.6374 164.846C25.2827 165.042 24.8114 165.14 24.2234 165.14ZM30.0253 167.66C29.9319 167.66 29.8526 167.627 29.7873 167.562C29.7313 167.506 29.7033 167.431 29.7033 167.338V158.042C29.7033 157.949 29.7313 157.874 29.7873 157.818C29.8526 157.753 29.9319 157.72 30.0253 157.72H30.6693C30.7626 157.72 30.8373 157.753 30.8933 157.818C30.9586 157.874 30.9913 157.949 30.9913 158.042V158.658C31.2153 158.35 31.5139 158.093 31.8873 157.888C32.2606 157.683 32.7273 157.58 33.2873 157.58C33.8099 157.58 34.2533 157.669 34.6173 157.846C34.9906 158.023 35.2939 158.266 35.5273 158.574C35.7699 158.882 35.9519 159.232 36.0733 159.624C36.1946 160.016 36.2599 160.436 36.2693 160.884C36.2786 161.033 36.2833 161.192 36.2833 161.36C36.2833 161.528 36.2786 161.687 36.2693 161.836C36.2599 162.275 36.1946 162.695 36.0733 163.096C35.9519 163.488 35.7699 163.838 35.5273 164.146C35.2939 164.445 34.9906 164.687 34.6173 164.874C34.2533 165.051 33.8099 165.14 33.2873 165.14C32.7459 165.14 32.2886 165.042 31.9153 164.846C31.5513 164.641 31.2526 164.389 31.0193 164.09V167.338C31.0193 167.431 30.9913 167.506 30.9353 167.562C30.8793 167.627 30.7999 167.66 30.6973 167.66H30.0253ZM32.9933 164.006C33.4786 164.006 33.8566 163.903 34.1273 163.698C34.4073 163.483 34.6079 163.208 34.7293 162.872C34.8506 162.527 34.9206 162.158 34.9393 161.766C34.9486 161.495 34.9486 161.225 34.9393 160.954C34.9206 160.562 34.8506 160.198 34.7293 159.862C34.6079 159.517 34.4073 159.241 34.1273 159.036C33.8566 158.821 33.4786 158.714 32.9933 158.714C32.5359 158.714 32.1626 158.821 31.8733 159.036C31.5933 159.251 31.3833 159.526 31.2433 159.862C31.1126 160.189 31.0379 160.525 31.0193 160.87C31.0099 161.019 31.0053 161.197 31.0053 161.402C31.0053 161.607 31.0099 161.789 31.0193 161.948C31.0286 162.275 31.1033 162.597 31.2433 162.914C31.3926 163.231 31.6119 163.493 31.9013 163.698C32.1906 163.903 32.5546 164.006 32.9933 164.006ZM40.7291 165.14C40.0665 165.14 39.4925 165.014 39.0071 164.762C38.5311 164.501 38.1625 164.132 37.9011 163.656C37.6398 163.171 37.4998 162.592 37.4811 161.92C37.4718 161.78 37.4671 161.593 37.4671 161.36C37.4671 161.127 37.4718 160.94 37.4811 160.8C37.4998 160.128 37.6398 159.554 37.9011 159.078C38.1625 158.593 38.5311 158.224 39.0071 157.972C39.4925 157.711 40.0665 157.58 40.7291 157.58C41.2705 157.58 41.7325 157.655 42.1151 157.804C42.5071 157.953 42.8291 158.145 43.0811 158.378C43.3331 158.611 43.5198 158.863 43.6411 159.134C43.7718 159.405 43.8418 159.661 43.8511 159.904C43.8605 159.997 43.8325 160.072 43.7671 160.128C43.7018 160.184 43.6225 160.212 43.5291 160.212H42.8571C42.7638 160.212 42.6938 160.193 42.6471 160.156C42.6005 160.109 42.5538 160.035 42.5071 159.932C42.3391 159.475 42.1105 159.153 41.8211 158.966C41.5318 158.779 41.1725 158.686 40.7431 158.686C40.1831 158.686 39.7258 158.859 39.3711 159.204C39.0258 159.549 38.8391 160.105 38.8111 160.87C38.8018 161.206 38.8018 161.533 38.8111 161.85C38.8391 162.625 39.0258 163.185 39.3711 163.53C39.7258 163.866 40.1831 164.034 40.7431 164.034C41.1725 164.034 41.5318 163.941 41.8211 163.754C42.1105 163.567 42.3391 163.245 42.5071 162.788C42.5538 162.685 42.6005 162.615 42.6471 162.578C42.6938 162.531 42.7638 162.508 42.8571 162.508H43.5291C43.6225 162.508 43.7018 162.536 43.7671 162.592C43.8325 162.648 43.8605 162.723 43.8511 162.816C43.8418 163.012 43.7998 163.213 43.7251 163.418C43.6505 163.623 43.5291 163.833 43.3611 164.048C43.2025 164.253 43.0018 164.44 42.7591 164.608C42.5165 164.767 42.2225 164.897 41.8771 165C41.5411 165.093 41.1585 165.14 40.7291 165.14ZM48.2557 165.14C47.5464 165.14 46.9537 165.005 46.4777 164.734C46.0017 164.463 45.6377 164.09 45.3857 163.614C45.1337 163.129 44.9937 162.578 44.9657 161.962C44.9564 161.803 44.9517 161.603 44.9517 161.36C44.9517 161.108 44.9564 160.907 44.9657 160.758C44.9937 160.133 45.1337 159.582 45.3857 159.106C45.6471 158.63 46.0157 158.257 46.4917 157.986C46.9677 157.715 47.5557 157.58 48.2557 157.58C48.9557 157.58 49.5437 157.715 50.0197 157.986C50.4957 158.257 50.8597 158.63 51.1117 159.106C51.3731 159.582 51.5177 160.133 51.5457 160.758C51.5551 160.907 51.5597 161.108 51.5597 161.36C51.5597 161.603 51.5551 161.803 51.5457 161.962C51.5177 162.578 51.3777 163.129 51.1257 163.614C50.8737 164.09 50.5097 164.463 50.0337 164.734C49.5577 165.005 48.9651 165.14 48.2557 165.14ZM48.2557 164.062C48.8344 164.062 49.2964 163.88 49.6417 163.516C49.9871 163.143 50.1737 162.601 50.2017 161.892C50.2111 161.752 50.2157 161.575 50.2157 161.36C50.2157 161.145 50.2111 160.968 50.2017 160.828C50.1737 160.119 49.9871 159.582 49.6417 159.218C49.2964 158.845 48.8344 158.658 48.2557 158.658C47.6771 158.658 47.2104 158.845 46.8557 159.218C46.5104 159.582 46.3284 160.119 46.3097 160.828C46.3004 160.968 46.2957 161.145 46.2957 161.36C46.2957 161.575 46.3004 161.752 46.3097 161.892C46.3284 162.601 46.5104 163.143 46.8557 163.516C47.2104 163.88 47.6771 164.062 48.2557 164.062ZM53.3948 165C53.3015 165 53.2221 164.972 53.1568 164.916C53.1008 164.851 53.0728 164.771 53.0728 164.678V158.042C53.0728 157.949 53.1008 157.874 53.1568 157.818C53.2221 157.753 53.3015 157.72 53.3948 157.72H54.0248C54.1181 157.72 54.1928 157.753 54.2488 157.818C54.3141 157.874 54.3468 157.949 54.3468 158.042V158.532C54.5615 158.243 54.8321 158.014 55.1588 157.846C55.4855 157.669 55.8775 157.58 56.3348 157.58C57.3895 157.571 58.1361 158 58.5748 158.868C58.7895 158.476 59.1021 158.163 59.5128 157.93C59.9235 157.697 60.3901 157.58 60.9128 157.58C61.3981 157.58 61.8368 157.692 62.2288 157.916C62.6301 158.14 62.9428 158.481 63.1668 158.938C63.4001 159.386 63.5168 159.951 63.5168 160.632V164.678C63.5168 164.771 63.4841 164.851 63.4188 164.916C63.3628 164.972 63.2881 165 63.1948 165H62.5368C62.4435 165 62.3641 164.972 62.2988 164.916C62.2428 164.851 62.2148 164.771 62.2148 164.678V160.758C62.2148 160.235 62.1401 159.825 61.9908 159.526C61.8415 159.227 61.6408 159.017 61.3888 158.896C61.1368 158.775 60.8615 158.714 60.5628 158.714C60.3201 158.714 60.0728 158.775 59.8208 158.896C59.5688 159.017 59.3588 159.227 59.1908 159.526C59.0321 159.825 58.9528 160.235 58.9528 160.758V164.678C58.9528 164.771 58.9201 164.851 58.8548 164.916C58.7988 164.972 58.7241 165 58.6308 165H57.9728C57.8795 165 57.8001 164.972 57.7348 164.916C57.6788 164.851 57.6508 164.771 57.6508 164.678V160.758C57.6508 160.235 57.5715 159.825 57.4128 159.526C57.2541 159.227 57.0488 159.017 56.7968 158.896C56.5448 158.775 56.2788 158.714 55.9988 158.714C55.7561 158.714 55.5088 158.775 55.2568 158.896C55.0048 159.017 54.7948 159.227 54.6268 159.526C54.4681 159.825 54.3888 160.231 54.3888 160.744V164.678C54.3888 164.771 54.3561 164.851 54.2908 164.916C54.2348 164.972 54.1601 165 54.0668 165H53.3948ZM65.5962 165C65.5029 165 65.4235 164.972 65.3582 164.916C65.3022 164.851 65.2742 164.771 65.2742 164.678V158.042C65.2742 157.949 65.3022 157.874 65.3582 157.818C65.4235 157.753 65.5029 157.72 65.5962 157.72H66.2682C66.3615 157.72 66.4362 157.753 66.4922 157.818C66.5482 157.874 66.5762 157.949 66.5762 158.042V164.678C66.5762 164.771 66.5482 164.851 66.4922 164.916C66.4362 164.972 66.3615 165 66.2682 165H65.5962ZM65.4842 156.362C65.3909 156.362 65.3115 156.334 65.2462 156.278C65.1902 156.213 65.1622 156.133 65.1622 156.04V155.284C65.1622 155.191 65.1902 155.116 65.2462 155.06C65.3115 154.995 65.3909 154.962 65.4842 154.962H66.3662C66.4595 154.962 66.5342 154.995 66.5902 155.06C66.6555 155.116 66.6882 155.191 66.6882 155.284V156.04C66.6882 156.133 66.6555 156.213 66.5902 156.278C66.5342 156.334 66.4595 156.362 66.3662 156.362H65.4842ZM68.8835 165C68.7902 165 68.7109 164.972 68.6455 164.916C68.5895 164.851 68.5615 164.771 68.5615 164.678V158.042C68.5615 157.949 68.5895 157.874 68.6455 157.818C68.7109 157.753 68.7902 157.72 68.8835 157.72H69.5415C69.6349 157.72 69.7095 157.753 69.7655 157.818C69.8309 157.874 69.8635 157.949 69.8635 158.042V158.658C70.1062 158.341 70.4095 158.084 70.7735 157.888C71.1469 157.683 71.6229 157.58 72.2015 157.58C72.8082 157.58 73.3215 157.715 73.7415 157.986C74.1709 158.247 74.4929 158.616 74.7075 159.092C74.9222 159.559 75.0295 160.105 75.0295 160.73V164.678C75.0295 164.771 75.0015 164.851 74.9455 164.916C74.8895 164.972 74.8149 165 74.7215 165H74.0215C73.9282 165 73.8489 164.972 73.7835 164.916C73.7275 164.851 73.6995 164.771 73.6995 164.678V160.8C73.6995 160.147 73.5409 159.638 73.2235 159.274C72.9062 158.901 72.4395 158.714 71.8235 158.714C71.2449 158.714 70.7782 158.901 70.4235 159.274C70.0782 159.638 69.9055 160.147 69.9055 160.8V164.678C69.9055 164.771 69.8729 164.851 69.8075 164.916C69.7515 164.972 69.6769 165 69.5835 165H68.8835ZM79.7938 168.08C79.1591 168.08 78.6364 167.996 78.2258 167.828C77.8244 167.66 77.5071 167.455 77.2738 167.212C77.0498 166.979 76.8864 166.741 76.7838 166.498C76.6904 166.265 76.6391 166.078 76.6298 165.938C76.6204 165.845 76.6484 165.765 76.7138 165.7C76.7884 165.635 76.8678 165.602 76.9518 165.602H77.6238C77.7078 165.602 77.7778 165.621 77.8338 165.658C77.8898 165.695 77.9364 165.775 77.9738 165.896C78.0298 166.036 78.1138 166.19 78.2258 166.358C78.3378 166.535 78.5104 166.685 78.7438 166.806C78.9771 166.937 79.3038 167.002 79.7238 167.002C80.1624 167.002 80.5311 166.941 80.8298 166.82C81.1284 166.708 81.3524 166.503 81.5018 166.204C81.6604 165.915 81.7398 165.513 81.7398 165V164.048C81.5158 164.337 81.2218 164.58 80.8578 164.776C80.4938 164.963 80.0364 165.056 79.4858 165.056C78.9631 165.056 78.5151 164.967 78.1418 164.79C77.7684 164.603 77.4604 164.356 77.2178 164.048C76.9844 163.731 76.8071 163.371 76.6858 162.97C76.5738 162.569 76.5084 162.149 76.4898 161.71C76.4804 161.449 76.4804 161.192 76.4898 160.94C76.5084 160.501 76.5738 160.081 76.6858 159.68C76.8071 159.279 76.9844 158.919 77.2178 158.602C77.4604 158.285 77.7684 158.037 78.1418 157.86C78.5151 157.673 78.9631 157.58 79.4858 157.58C80.0458 157.58 80.5078 157.687 80.8718 157.902C81.2451 158.107 81.5484 158.359 81.7818 158.658V158.056C81.7818 157.963 81.8098 157.883 81.8658 157.818C81.9311 157.753 82.0104 157.72 82.1038 157.72H82.7478C82.8411 157.72 82.9204 157.753 82.9858 157.818C83.0511 157.883 83.0838 157.963 83.0838 158.056V164.846C83.0838 165.471 82.9764 166.027 82.7618 166.512C82.5564 166.997 82.2111 167.38 81.7258 167.66C81.2498 167.94 80.6058 168.08 79.7938 168.08ZM79.7658 163.936C80.2324 163.936 80.6058 163.829 80.8858 163.614C81.1751 163.399 81.3851 163.129 81.5158 162.802C81.6558 162.475 81.7304 162.144 81.7398 161.808C81.7491 161.677 81.7538 161.519 81.7538 161.332C81.7538 161.136 81.7491 160.973 81.7398 160.842C81.7304 160.506 81.6558 160.175 81.5158 159.848C81.3851 159.521 81.1751 159.251 80.8858 159.036C80.6058 158.821 80.2324 158.714 79.7658 158.714C79.2991 158.714 78.9258 158.821 78.6458 159.036C78.3658 159.241 78.1651 159.517 78.0438 159.862C77.9224 160.198 77.8524 160.562 77.8338 160.954C77.8244 161.197 77.8244 161.444 77.8338 161.696C77.8524 162.088 77.9224 162.457 78.0438 162.802C78.1651 163.138 78.3658 163.413 78.6458 163.628C78.9258 163.833 79.2991 163.936 79.7658 163.936ZM88.4389 165C88.3456 165 88.2663 164.972 88.2009 164.916C88.1449 164.851 88.1169 164.771 88.1169 164.678V158.042C88.1169 157.949 88.1449 157.874 88.2009 157.818C88.2663 157.753 88.3456 157.72 88.4389 157.72H89.1109C89.2043 157.72 89.2789 157.753 89.3349 157.818C89.3909 157.874 89.4189 157.949 89.4189 158.042V164.678C89.4189 164.771 89.3909 164.851 89.3349 164.916C89.2789 164.972 89.2043 165 89.1109 165H88.4389ZM88.3269 156.362C88.2336 156.362 88.1543 156.334 88.0889 156.278C88.0329 156.213 88.0049 156.133 88.0049 156.04V155.284C88.0049 155.191 88.0329 155.116 88.0889 155.06C88.1543 154.995 88.2336 154.962 88.3269 154.962H89.2089C89.3023 154.962 89.3769 154.995 89.4329 155.06C89.4983 155.116 89.5309 155.191 89.5309 155.284V156.04C89.5309 156.133 89.4983 156.213 89.4329 156.278C89.3769 156.334 89.3023 156.362 89.2089 156.362H88.3269ZM93.8696 165.14C93.3469 165.14 92.8989 165.075 92.5256 164.944C92.1523 164.813 91.8489 164.655 91.6156 164.468C91.3823 164.281 91.2049 164.095 91.0836 163.908C90.9716 163.721 90.9109 163.572 90.9016 163.46C90.8923 163.357 90.9249 163.278 90.9996 163.222C91.0743 163.166 91.1489 163.138 91.2236 163.138H91.8396C91.8956 163.138 91.9376 163.147 91.9656 163.166C92.0029 163.175 92.0496 163.213 92.1056 163.278C92.2269 163.409 92.3623 163.539 92.5116 163.67C92.6609 163.801 92.8429 163.908 93.0576 163.992C93.2816 164.076 93.5569 164.118 93.8836 164.118C94.3596 164.118 94.7516 164.029 95.0596 163.852C95.3676 163.665 95.5216 163.395 95.5216 163.04C95.5216 162.807 95.4563 162.62 95.3256 162.48C95.2043 162.34 94.9803 162.214 94.6536 162.102C94.3363 161.99 93.8976 161.873 93.3376 161.752C92.7776 161.621 92.3343 161.463 92.0076 161.276C91.6809 161.08 91.4476 160.851 91.3076 160.59C91.1676 160.319 91.0976 160.016 91.0976 159.68C91.0976 159.335 91.2003 159.003 91.4056 158.686C91.6109 158.359 91.9096 158.093 92.3016 157.888C92.7029 157.683 93.2023 157.58 93.7996 157.58C94.2849 157.58 94.7003 157.641 95.0456 157.762C95.3909 157.883 95.6756 158.037 95.8996 158.224C96.1236 158.401 96.2916 158.579 96.4036 158.756C96.5156 158.933 96.5763 159.083 96.5856 159.204C96.5949 159.297 96.5669 159.377 96.5016 159.442C96.4363 159.498 96.3616 159.526 96.2776 159.526H95.6896C95.6243 159.526 95.5683 159.512 95.5216 159.484C95.4843 159.456 95.4469 159.423 95.4096 159.386C95.3163 159.265 95.2043 159.143 95.0736 159.022C94.9523 158.901 94.7889 158.803 94.5836 158.728C94.3876 158.644 94.1263 158.602 93.7996 158.602C93.3329 158.602 92.9829 158.7 92.7496 158.896C92.5163 159.092 92.3996 159.339 92.3996 159.638C92.3996 159.815 92.4509 159.974 92.5536 160.114C92.6563 160.254 92.8523 160.38 93.1416 160.492C93.4309 160.604 93.8603 160.725 94.4296 160.856C95.0456 160.977 95.5309 161.141 95.8856 161.346C96.2403 161.551 96.4923 161.789 96.6416 162.06C96.7909 162.331 96.8656 162.643 96.8656 162.998C96.8656 163.39 96.7489 163.749 96.5156 164.076C96.2916 164.403 95.9556 164.664 95.5076 164.86C95.0689 165.047 94.5229 165.14 93.8696 165.14ZM100.766 165.14C100.244 165.14 99.7956 165.075 99.4223 164.944C99.049 164.813 98.7456 164.655 98.5123 164.468C98.279 164.281 98.1016 164.095 97.9803 163.908C97.8683 163.721 97.8076 163.572 97.7983 163.46C97.789 163.357 97.8216 163.278 97.8963 163.222C97.971 163.166 98.0456 163.138 98.1203 163.138H98.7363C98.7923 163.138 98.8343 163.147 98.8623 163.166C98.8996 163.175 98.9463 163.213 99.0023 163.278C99.1236 163.409 99.259 163.539 99.4083 163.67C99.5576 163.801 99.7396 163.908 99.9543 163.992C100.178 164.076 100.454 164.118 100.78 164.118C101.256 164.118 101.648 164.029 101.956 163.852C102.264 163.665 102.418 163.395 102.418 163.04C102.418 162.807 102.353 162.62 102.222 162.48C102.101 162.34 101.877 162.214 101.55 162.102C101.233 161.99 100.794 161.873 100.234 161.752C99.6743 161.621 99.231 161.463 98.9043 161.276C98.5776 161.08 98.3443 160.851 98.2043 160.59C98.0643 160.319 97.9943 160.016 97.9943 159.68C97.9943 159.335 98.097 159.003 98.3023 158.686C98.5076 158.359 98.8063 158.093 99.1983 157.888C99.5996 157.683 100.099 157.58 100.696 157.58C101.182 157.58 101.597 157.641 101.942 157.762C102.288 157.883 102.572 158.037 102.796 158.224C103.02 158.401 103.188 158.579 103.3 158.756C103.412 158.933 103.473 159.083 103.482 159.204C103.492 159.297 103.464 159.377 103.398 159.442C103.333 159.498 103.258 159.526 103.174 159.526H102.586C102.521 159.526 102.465 159.512 102.418 159.484C102.381 159.456 102.344 159.423 102.306 159.386C102.213 159.265 102.101 159.143 101.97 159.022C101.849 158.901 101.686 158.803 101.48 158.728C101.284 158.644 101.023 158.602 100.696 158.602C100.23 158.602 99.8796 158.7 99.6463 158.896C99.413 159.092 99.2963 159.339 99.2963 159.638C99.2963 159.815 99.3476 159.974 99.4503 160.114C99.553 160.254 99.749 160.38 100.038 160.492C100.328 160.604 100.757 160.725 101.326 160.856C101.942 160.977 102.428 161.141 102.782 161.346C103.137 161.551 103.389 161.789 103.538 162.06C103.688 162.331 103.762 162.643 103.762 162.998C103.762 163.39 103.646 163.749 103.412 164.076C103.188 164.403 102.852 164.664 102.404 164.86C101.966 165.047 101.42 165.14 100.766 165.14ZM107.859 165.14C107.262 165.14 106.753 165.009 106.333 164.748C105.922 164.477 105.61 164.104 105.395 163.628C105.18 163.152 105.073 162.606 105.073 161.99V158.042C105.073 157.949 105.101 157.874 105.157 157.818C105.222 157.753 105.302 157.72 105.395 157.72H106.095C106.188 157.72 106.263 157.753 106.319 157.818C106.384 157.874 106.417 157.949 106.417 158.042V161.92C106.417 163.311 107.024 164.006 108.237 164.006C108.816 164.006 109.278 163.824 109.623 163.46C109.978 163.087 110.155 162.573 110.155 161.92V158.042C110.155 157.949 110.183 157.874 110.239 157.818C110.304 157.753 110.384 157.72 110.477 157.72H111.163C111.266 157.72 111.345 157.753 111.401 157.818C111.457 157.874 111.485 157.949 111.485 158.042V164.678C111.485 164.771 111.457 164.851 111.401 164.916C111.345 164.972 111.266 165 111.163 165H110.519C110.426 165 110.346 164.972 110.281 164.916C110.225 164.851 110.197 164.771 110.197 164.678V164.062C109.945 164.389 109.637 164.65 109.273 164.846C108.918 165.042 108.447 165.14 107.859 165.14ZM116.223 165.14C115.262 165.14 114.496 164.846 113.927 164.258C113.358 163.661 113.045 162.849 112.989 161.822C112.98 161.701 112.975 161.547 112.975 161.36C112.975 161.164 112.98 161.005 112.989 160.884C113.026 160.221 113.18 159.643 113.451 159.148C113.722 158.644 114.09 158.257 114.557 157.986C115.033 157.715 115.588 157.58 116.223 157.58C116.932 157.58 117.525 157.729 118.001 158.028C118.486 158.327 118.855 158.751 119.107 159.302C119.359 159.853 119.485 160.497 119.485 161.234V161.472C119.485 161.575 119.452 161.654 119.387 161.71C119.331 161.766 119.256 161.794 119.163 161.794H114.319C114.319 161.803 114.319 161.822 114.319 161.85C114.319 161.878 114.319 161.901 114.319 161.92C114.338 162.303 114.422 162.662 114.571 162.998C114.72 163.325 114.935 163.591 115.215 163.796C115.495 164.001 115.831 164.104 116.223 164.104C116.559 164.104 116.839 164.053 117.063 163.95C117.287 163.847 117.469 163.735 117.609 163.614C117.749 163.483 117.842 163.385 117.889 163.32C117.973 163.199 118.038 163.129 118.085 163.11C118.132 163.082 118.206 163.068 118.309 163.068H118.981C119.074 163.068 119.149 163.096 119.205 163.152C119.27 163.199 119.298 163.269 119.289 163.362C119.28 163.502 119.205 163.675 119.065 163.88C118.925 164.076 118.724 164.272 118.463 164.468C118.202 164.664 117.884 164.827 117.511 164.958C117.138 165.079 116.708 165.14 116.223 165.14ZM114.319 160.828H118.155V160.786C118.155 160.366 118.076 159.993 117.917 159.666C117.768 159.339 117.548 159.083 117.259 158.896C116.97 158.7 116.624 158.602 116.223 158.602C115.822 158.602 115.476 158.7 115.187 158.896C114.907 159.083 114.692 159.339 114.543 159.666C114.394 159.993 114.319 160.366 114.319 160.786V160.828ZM123.439 165.14C122.916 165.14 122.468 165.075 122.095 164.944C121.722 164.813 121.418 164.655 121.185 164.468C120.952 164.281 120.774 164.095 120.653 163.908C120.541 163.721 120.48 163.572 120.471 163.46C120.462 163.357 120.494 163.278 120.569 163.222C120.644 163.166 120.718 163.138 120.793 163.138H121.409C121.465 163.138 121.507 163.147 121.535 163.166C121.572 163.175 121.619 163.213 121.675 163.278C121.796 163.409 121.932 163.539 122.081 163.67C122.23 163.801 122.412 163.908 122.627 163.992C122.851 164.076 123.126 164.118 123.453 164.118C123.929 164.118 124.321 164.029 124.629 163.852C124.937 163.665 125.091 163.395 125.091 163.04C125.091 162.807 125.026 162.62 124.895 162.48C124.774 162.34 124.55 162.214 124.223 162.102C123.906 161.99 123.467 161.873 122.907 161.752C122.347 161.621 121.904 161.463 121.577 161.276C121.25 161.08 121.017 160.851 120.877 160.59C120.737 160.319 120.667 160.016 120.667 159.68C120.667 159.335 120.77 159.003 120.975 158.686C121.18 158.359 121.479 158.093 121.871 157.888C122.272 157.683 122.772 157.58 123.369 157.58C123.854 157.58 124.27 157.641 124.615 157.762C124.96 157.883 125.245 158.037 125.469 158.224C125.693 158.401 125.861 158.579 125.973 158.756C126.085 158.933 126.146 159.083 126.155 159.204C126.164 159.297 126.136 159.377 126.071 159.442C126.006 159.498 125.931 159.526 125.847 159.526H125.259C125.194 159.526 125.138 159.512 125.091 159.484C125.054 159.456 125.016 159.423 124.979 159.386C124.886 159.265 124.774 159.143 124.643 159.022C124.522 158.901 124.358 158.803 124.153 158.728C123.957 158.644 123.696 158.602 123.369 158.602C122.902 158.602 122.552 158.7 122.319 158.896C122.086 159.092 121.969 159.339 121.969 159.638C121.969 159.815 122.02 159.974 122.123 160.114C122.226 160.254 122.422 160.38 122.711 160.492C123 160.604 123.43 160.725 123.999 160.856C124.615 160.977 125.1 161.141 125.455 161.346C125.81 161.551 126.062 161.789 126.211 162.06C126.36 162.331 126.435 162.643 126.435 162.998C126.435 163.39 126.318 163.749 126.085 164.076C125.861 164.403 125.525 164.664 125.077 164.86C124.638 165.047 124.092 165.14 123.439 165.14ZM133.037 165.14C132.571 165.14 132.146 165.047 131.763 164.86C131.381 164.673 131.073 164.421 130.839 164.104C130.606 163.787 130.489 163.427 130.489 163.026C130.489 162.382 130.751 161.869 131.273 161.486C131.796 161.103 132.477 160.851 133.317 160.73L135.403 160.436V160.03C135.403 159.582 135.273 159.232 135.011 158.98C134.759 158.728 134.344 158.602 133.765 158.602C133.345 158.602 133.005 158.686 132.743 158.854C132.491 159.022 132.314 159.237 132.211 159.498C132.155 159.638 132.057 159.708 131.917 159.708H131.287C131.185 159.708 131.105 159.68 131.049 159.624C131.003 159.559 130.979 159.484 130.979 159.4C130.979 159.26 131.031 159.087 131.133 158.882C131.245 158.677 131.413 158.476 131.637 158.28C131.861 158.084 132.146 157.921 132.491 157.79C132.846 157.65 133.275 157.58 133.779 157.58C134.339 157.58 134.811 157.655 135.193 157.804C135.576 157.944 135.875 158.135 136.089 158.378C136.313 158.621 136.472 158.896 136.565 159.204C136.668 159.512 136.719 159.825 136.719 160.142V164.678C136.719 164.771 136.687 164.851 136.621 164.916C136.565 164.972 136.491 165 136.397 165H135.753C135.651 165 135.571 164.972 135.515 164.916C135.459 164.851 135.431 164.771 135.431 164.678V164.076C135.31 164.244 135.147 164.412 134.941 164.58C134.736 164.739 134.479 164.874 134.171 164.986C133.863 165.089 133.485 165.14 133.037 165.14ZM133.331 164.09C133.714 164.09 134.064 164.011 134.381 163.852C134.699 163.684 134.946 163.427 135.123 163.082C135.31 162.737 135.403 162.303 135.403 161.78V161.388L133.779 161.626C133.117 161.719 132.617 161.878 132.281 162.102C131.945 162.317 131.777 162.592 131.777 162.928C131.777 163.189 131.852 163.409 132.001 163.586C132.16 163.754 132.356 163.88 132.589 163.964C132.832 164.048 133.079 164.09 133.331 164.09ZM140.889 165C140.749 165 140.637 164.967 140.553 164.902C140.478 164.837 140.418 164.753 140.371 164.65L137.781 158.154C137.762 158.107 137.753 158.061 137.753 158.014C137.753 157.93 137.781 157.86 137.837 157.804C137.893 157.748 137.963 157.72 138.047 157.72H138.719C138.822 157.72 138.901 157.748 138.957 157.804C139.013 157.86 139.046 157.911 139.055 157.958L141.197 163.474L143.325 157.958C143.344 157.911 143.376 157.86 143.423 157.804C143.479 157.748 143.558 157.72 143.661 157.72H144.347C144.422 157.72 144.487 157.748 144.543 157.804C144.608 157.86 144.641 157.93 144.641 158.014C144.641 158.061 144.632 158.107 144.613 158.154L142.009 164.65C141.972 164.753 141.911 164.837 141.827 164.902C141.752 164.967 141.64 165 141.491 165H140.889ZM147.624 165.14C147.157 165.14 146.732 165.047 146.35 164.86C145.967 164.673 145.659 164.421 145.426 164.104C145.192 163.787 145.076 163.427 145.076 163.026C145.076 162.382 145.337 161.869 145.86 161.486C146.382 161.103 147.064 160.851 147.904 160.73L149.99 160.436V160.03C149.99 159.582 149.859 159.232 149.598 158.98C149.346 158.728 148.93 158.602 148.352 158.602C147.932 158.602 147.591 158.686 147.33 158.854C147.078 159.022 146.9 159.237 146.798 159.498C146.742 159.638 146.644 159.708 146.504 159.708H145.874C145.771 159.708 145.692 159.68 145.636 159.624C145.589 159.559 145.566 159.484 145.566 159.4C145.566 159.26 145.617 159.087 145.72 158.882C145.832 158.677 146 158.476 146.224 158.28C146.448 158.084 146.732 157.921 147.078 157.79C147.432 157.65 147.862 157.58 148.366 157.58C148.926 157.58 149.397 157.655 149.78 157.804C150.162 157.944 150.461 158.135 150.676 158.378C150.9 158.621 151.058 158.896 151.152 159.204C151.254 159.512 151.306 159.825 151.306 160.142V164.678C151.306 164.771 151.273 164.851 151.208 164.916C151.152 164.972 151.077 165 150.984 165H150.34C150.237 165 150.158 164.972 150.102 164.916C150.046 164.851 150.018 164.771 150.018 164.678V164.076C149.896 164.244 149.733 164.412 149.528 164.58C149.322 164.739 149.066 164.874 148.758 164.986C148.45 165.089 148.072 165.14 147.624 165.14ZM147.918 164.09C148.3 164.09 148.65 164.011 148.968 163.852C149.285 163.684 149.532 163.427 149.71 163.082C149.896 162.737 149.99 162.303 149.99 161.78V161.388L148.366 161.626C147.703 161.719 147.204 161.878 146.868 162.102C146.532 162.317 146.364 162.592 146.364 162.928C146.364 163.189 146.438 163.409 146.588 163.586C146.746 163.754 146.942 163.88 147.176 163.964C147.418 164.048 147.666 164.09 147.918 164.09ZM153.4 165C153.307 165 153.228 164.972 153.162 164.916C153.106 164.851 153.078 164.771 153.078 164.678V158.042C153.078 157.949 153.106 157.874 153.162 157.818C153.228 157.753 153.307 157.72 153.4 157.72H154.072C154.166 157.72 154.24 157.753 154.296 157.818C154.352 157.874 154.38 157.949 154.38 158.042V164.678C154.38 164.771 154.352 164.851 154.296 164.916C154.24 164.972 154.166 165 154.072 165H153.4ZM153.288 156.362C153.195 156.362 153.116 156.334 153.05 156.278C152.994 156.213 152.966 156.133 152.966 156.04V155.284C152.966 155.191 152.994 155.116 153.05 155.06C153.116 154.995 153.195 154.962 153.288 154.962H154.17C154.264 154.962 154.338 154.995 154.394 155.06C154.46 155.116 154.492 155.191 154.492 155.284V156.04C154.492 156.133 154.46 156.213 154.394 156.278C154.338 156.334 154.264 156.362 154.17 156.362H153.288ZM156.565 165C156.472 165 156.392 164.972 156.327 164.916C156.271 164.851 156.243 164.771 156.243 164.678V155.382C156.243 155.289 156.271 155.214 156.327 155.158C156.392 155.093 156.472 155.06 156.565 155.06H157.223C157.326 155.06 157.405 155.093 157.461 155.158C157.517 155.214 157.545 155.289 157.545 155.382V164.678C157.545 164.771 157.517 164.851 157.461 164.916C157.405 164.972 157.326 165 157.223 165H156.565ZM161.423 165.14C160.957 165.14 160.532 165.047 160.149 164.86C159.767 164.673 159.459 164.421 159.225 164.104C158.992 163.787 158.875 163.427 158.875 163.026C158.875 162.382 159.137 161.869 159.659 161.486C160.182 161.103 160.863 160.851 161.703 160.73L163.789 160.436V160.03C163.789 159.582 163.659 159.232 163.397 158.98C163.145 158.728 162.73 158.602 162.151 158.602C161.731 158.602 161.391 158.686 161.129 158.854C160.877 159.022 160.7 159.237 160.597 159.498C160.541 159.638 160.443 159.708 160.303 159.708H159.673C159.571 159.708 159.491 159.68 159.435 159.624C159.389 159.559 159.365 159.484 159.365 159.4C159.365 159.26 159.417 159.087 159.519 158.882C159.631 158.677 159.799 158.476 160.023 158.28C160.247 158.084 160.532 157.921 160.877 157.79C161.232 157.65 161.661 157.58 162.165 157.58C162.725 157.58 163.197 157.655 163.579 157.804C163.962 157.944 164.261 158.135 164.475 158.378C164.699 158.621 164.858 158.896 164.951 159.204C165.054 159.512 165.105 159.825 165.105 160.142V164.678C165.105 164.771 165.073 164.851 165.007 164.916C164.951 164.972 164.877 165 164.783 165H164.139C164.037 165 163.957 164.972 163.901 164.916C163.845 164.851 163.817 164.771 163.817 164.678V164.076C163.696 164.244 163.533 164.412 163.327 164.58C163.122 164.739 162.865 164.874 162.557 164.986C162.249 165.089 161.871 165.14 161.423 165.14ZM161.717 164.09C162.1 164.09 162.45 164.011 162.767 163.852C163.085 163.684 163.332 163.427 163.509 163.082C163.696 162.737 163.789 162.303 163.789 161.78V161.388L162.165 161.626C161.503 161.719 161.003 161.878 160.667 162.102C160.331 162.317 160.163 162.592 160.163 162.928C160.163 163.189 160.238 163.409 160.387 163.586C160.546 163.754 160.742 163.88 160.975 163.964C161.218 164.048 161.465 164.09 161.717 164.09ZM170.476 165.14C169.916 165.14 169.449 165.042 169.076 164.846C168.702 164.641 168.404 164.389 168.18 164.09V164.678C168.18 164.771 168.147 164.851 168.082 164.916C168.026 164.972 167.951 165 167.858 165H167.214C167.12 165 167.041 164.972 166.976 164.916C166.92 164.851 166.892 164.771 166.892 164.678V155.382C166.892 155.289 166.92 155.214 166.976 155.158C167.041 155.093 167.12 155.06 167.214 155.06H167.886C167.988 155.06 168.068 155.093 168.124 155.158C168.18 155.214 168.208 155.289 168.208 155.382V158.602C168.441 158.313 168.74 158.07 169.104 157.874C169.477 157.678 169.934 157.58 170.476 157.58C170.998 157.58 171.442 157.673 171.806 157.86C172.179 158.037 172.482 158.285 172.716 158.602C172.958 158.919 173.14 159.279 173.262 159.68C173.383 160.081 173.448 160.501 173.458 160.94C173.467 161.089 173.472 161.229 173.472 161.36C173.472 161.491 173.467 161.631 173.458 161.78C173.448 162.228 173.383 162.653 173.262 163.054C173.14 163.455 172.958 163.815 172.716 164.132C172.482 164.44 172.179 164.687 171.806 164.874C171.442 165.051 170.998 165.14 170.476 165.14ZM170.182 164.006C170.667 164.006 171.045 163.903 171.316 163.698C171.596 163.483 171.796 163.208 171.918 162.872C172.039 162.527 172.109 162.158 172.128 161.766C172.137 161.495 172.137 161.225 172.128 160.954C172.109 160.562 172.039 160.198 171.918 159.862C171.796 159.517 171.596 159.241 171.316 159.036C171.045 158.821 170.667 158.714 170.182 158.714C169.743 158.714 169.379 158.817 169.09 159.022C168.8 159.227 168.581 159.489 168.432 159.806C168.292 160.123 168.217 160.445 168.208 160.772C168.198 160.921 168.194 161.103 168.194 161.318C168.194 161.523 168.198 161.701 168.208 161.85C168.226 162.195 168.301 162.536 168.432 162.872C168.572 163.199 168.782 163.469 169.062 163.684C169.351 163.899 169.724 164.006 170.182 164.006ZM175.3 165C175.207 165 175.127 164.972 175.062 164.916C175.006 164.851 174.978 164.771 174.978 164.678V155.382C174.978 155.289 175.006 155.214 175.062 155.158C175.127 155.093 175.207 155.06 175.3 155.06H175.958C176.061 155.06 176.14 155.093 176.196 155.158C176.252 155.214 176.28 155.289 176.28 155.382V164.678C176.28 164.771 176.252 164.851 176.196 164.916C176.14 164.972 176.061 165 175.958 165H175.3ZM181.026 165.14C180.065 165.14 179.3 164.846 178.73 164.258C178.161 163.661 177.848 162.849 177.792 161.822C177.783 161.701 177.778 161.547 177.778 161.36C177.778 161.164 177.783 161.005 177.792 160.884C177.83 160.221 177.984 159.643 178.254 159.148C178.525 158.644 178.894 158.257 179.36 157.986C179.836 157.715 180.392 157.58 181.026 157.58C181.736 157.58 182.328 157.729 182.804 158.028C183.29 158.327 183.658 158.751 183.91 159.302C184.162 159.853 184.288 160.497 184.288 161.234V161.472C184.288 161.575 184.256 161.654 184.19 161.71C184.134 161.766 184.06 161.794 183.966 161.794H179.122C179.122 161.803 179.122 161.822 179.122 161.85C179.122 161.878 179.122 161.901 179.122 161.92C179.141 162.303 179.225 162.662 179.374 162.998C179.524 163.325 179.738 163.591 180.018 163.796C180.298 164.001 180.634 164.104 181.026 164.104C181.362 164.104 181.642 164.053 181.866 163.95C182.09 163.847 182.272 163.735 182.412 163.614C182.552 163.483 182.646 163.385 182.692 163.32C182.776 163.199 182.842 163.129 182.888 163.11C182.935 163.082 183.01 163.068 183.112 163.068H183.784C183.878 163.068 183.952 163.096 184.008 163.152C184.074 163.199 184.102 163.269 184.092 163.362C184.083 163.502 184.008 163.675 183.868 163.88C183.728 164.076 183.528 164.272 183.266 164.468C183.005 164.664 182.688 164.827 182.314 164.958C181.941 165.079 181.512 165.14 181.026 165.14ZM179.122 160.828H182.958V160.786C182.958 160.366 182.879 159.993 182.72 159.666C182.571 159.339 182.352 159.083 182.062 158.896C181.773 158.7 181.428 158.602 181.026 158.602C180.625 158.602 180.28 158.7 179.99 158.896C179.71 159.083 179.496 159.339 179.346 159.666C179.197 159.993 179.122 160.366 179.122 160.786V160.828Z"
        fill="#9E9E9E" />
    <defs>
        <filter id="filter0_dd_528_4061" x="106.963" y="101.026" width="40.2693" height="40.2693"
            filterUnits="userSpaceOnUse" color-interpolation-filters="sRGB">
            <feFlood flood-opacity="0" result="BackgroundImageFix" />
            <feColorMatrix in="SourceAlpha" type="matrix"
                values="0 0 0 0 0 0 0 0 0 0 0 0 0 0 0 0 0 0 127 0" result="hardAlpha" />
            <feOffset dy="0.0203125" />
            <feGaussianBlur stdDeviation="0.107324" />
            <feColorMatrix type="matrix"
                values="0 0 0 0 0.854902 0 0 0 0 0.337255 0 0 0 0 0.337255 0 0 0 0.0305 0" />
            <feBlend mode="normal" in2="BackgroundImageFix" result="effect1_dropShadow_528_4061" />
            <feColorMatrix in="SourceAlpha" type="matrix"
                values="0 0 0 0 0 0 0 0 0 0 0 0 0 0 0 0 0 0 127 0" result="hardAlpha" />
            <feOffset dy="0.0875" />
            <feGaussianBlur stdDeviation="0.202344" />
            <feColorMatrix type="matrix"
                values="0 0 0 0 0.854902 0 0 0 0 0.337255 0 0 0 0 0.337255 0 0 0 0.052 0" />
            <feBlend mode="normal" in2="effect1_dropShadow_528_4061"
                result="effect2_dropShadow_528_4061" />
            <feBlend mode="normal" in="SourceGraphic" in2="effect2_dropShadow_528_4061"
                result="shape" />
        </filter>
        <linearGradient id="paint0_linear_528_4061" x1="47.655" y1="54.4557" x2="135.579"
            y2="54.4557" gradientUnits="userSpaceOnUse">
            <stop stop-color="#CADCF0" />
            <stop offset="1" stop-color="#A4BBDB" />
        </linearGradient>
        <linearGradient id="paint1_linear_528_4061" x1="47.655" y1="59.021" x2="135.579" y2="59.021"
            gradientUnits="userSpaceOnUse">
            <stop stop-color="#A4BBDB" />
            <stop offset="1" stop-color="#8DA3BE" />
        </linearGradient>
        <linearGradient id="paint2_linear_528_4061" x1="48.1145" y1="54.4556" x2="136.038"
            y2="54.4556" gradientUnits="userSpaceOnUse">
            <stop stop-color="#CADCF0" />
            <stop offset="1" stop-color="#A4BBDB" />
        </linearGradient>
        <linearGradient id="paint3_linear_528_4061" x1="43.0017" y1="95.0326" x2="141.153"
            y2="95.0326" gradientUnits="userSpaceOnUse">
            <stop stop-color="#E9F3FC" />
            <stop offset="1" stop-color="#CADCF0" />
        </linearGradient>
        <linearGradient id="paint4_linear_528_4061" x1="60.6787" y1="114.479" x2="87.0559"
            y2="114.479" gradientUnits="userSpaceOnUse">
            <stop stop-color="#559AFF" />
            <stop offset="1" stop-color="#2E69EF" />
        </linearGradient>
        <linearGradient id="paint5_linear_528_4061" x1="68.9812" y1="50.7798" x2="73.5449"
            y2="50.7798" gradientUnits="userSpaceOnUse">
            <stop stop-color="#559AFF" />
            <stop offset="1" stop-color="#2E69EF" />
        </linearGradient>
        <linearGradient id="paint6_linear_528_4061" x1="71.9546" y1="40.8333" x2="78.073"
            y2="40.8333" gradientUnits="userSpaceOnUse">
            <stop stop-color="#559AFF" />
            <stop offset="1" stop-color="#2E69EF" />
        </linearGradient>
        <linearGradient id="paint7_linear_528_4061" x1="81.4308" y1="36.1186" x2="88.8959"
            y2="36.1186" gradientUnits="userSpaceOnUse">
            <stop stop-color="#559AFF" />
            <stop offset="1" stop-color="#2E69EF" />
        </linearGradient>
        <linearGradient id="paint8_linear_528_4061" x1="93.2216" y1="35.8516" x2="101.295"
            y2="35.8516" gradientUnits="userSpaceOnUse">
            <stop stop-color="#559AFF" />
            <stop offset="1" stop-color="#2E69EF" />
        </linearGradient>
        <linearGradient id="paint9_linear_528_4061" x1="105.462" y1="33.8752" x2="113.362"
            y2="33.8752" gradientUnits="userSpaceOnUse">
            <stop stop-color="#559AFF" />
            <stop offset="1" stop-color="#2E69EF" />
        </linearGradient>
        <linearGradient id="paint10_linear_528_4061" x1="114.725" y1="26.5596" x2="120.895"
            y2="26.5596" gradientUnits="userSpaceOnUse">
            <stop stop-color="#559AFF" />
            <stop offset="1" stop-color="#2E69EF" />
        </linearGradient>
        <linearGradient id="paint11_linear_528_4061" x1="112.269" y1="14.8893" x2="120.204"
            y2="14.8893" gradientUnits="userSpaceOnUse">
            <stop stop-color="#559AFF" />
            <stop offset="1" stop-color="#2E69EF" />
        </linearGradient>
        <linearGradient id="paint12_linear_528_4061" x1="91.8367" y1="4.88854" x2="106.553"
            y2="4.88854" gradientUnits="userSpaceOnUse">
            <stop stop-color="#E9F3FC" />
            <stop offset="1" stop-color="#CADCF0" />
        </linearGradient>
        <linearGradient id="paint13_linear_528_4061" x1="91.8367" y1="18.077" x2="106.553"
            y2="18.077" gradientUnits="userSpaceOnUse">
            <stop stop-color="#E9F3FC" />
            <stop offset="1" stop-color="#CADCF0" />
        </linearGradient>
        <linearGradient id="paint14_linear_528_4061" x1="89.4431" y1="11.5047" x2="108.556"
            y2="11.5047" gradientUnits="userSpaceOnUse">
            <stop stop-color="#559AFF" />
            <stop offset="1" stop-color="#2E69EF" />
        </linearGradient>
    </defs>
</svg>
