<svg xmlns="http://www.w3.org/2000/svg" width="18" height="18" viewBox="0 0 18 18">
  <g id="Group_9299" data-name="Group 9299" transform="translate(-254.036 -152)">
    <path id="Path_32296" data-name="Path 32296" d="M12.206,13.508a4.3,4.3,0,0,0,4.361-4.215,4.3,4.3,0,0,0-4.361-4.215A4.3,4.3,0,0,0,7.845,9.294,4.3,4.3,0,0,0,12.206,13.508Zm0-7.038a2.877,2.877,0,0,1,2.922,2.823,2.923,2.923,0,0,1-5.843,0A2.877,2.877,0,0,1,12.206,6.47Zm6.525,6.715a5.21,5.21,0,0,0-3.1,1.014,5.314,5.314,0,0,0-2.211-.474H10.993A5.227,5.227,0,0,0,7.358,15.16a4.807,4.807,0,0,0-1.508,3.5v2.254a1.17,1.17,0,0,0,1.178,1.158h8.612a5.155,5.155,0,0,0,8.209-3.941A5.04,5.04,0,0,0,18.731,13.186Zm-11.441,7.5V18.662a3.448,3.448,0,0,1,1.08-2.512,3.771,3.771,0,0,1,2.623-1.032h2.425a3.886,3.886,0,0,1,1.13.166,4.8,4.8,0,0,0-.2,5.4Zm11.441,1.006a3.558,3.558,0,1,1,3.679-3.556A3.623,3.623,0,0,1,18.731,21.689Z" transform="translate(248.186 146.921)" fill="#53565a"/>
    <path id="Path_28351" data-name="Path 28351" d="M385.656,391.914a.541.541,0,0,0-.673-.044.36.36,0,0,0-.052.567l1.083,1.065a.522.522,0,0,0,.362.141.528.528,0,0,0,.3-.089l2.519-1.724a.361.361,0,0,0,.067-.567.541.541,0,0,0-.672-.056l-2.156,1.479Zm0,0" transform="translate(-120.281 -227.456)" fill="#53565a" stroke="#53565a" stroke-width="0.3"/>
  </g>
</svg>
