<svg width="26" height="26" viewBox="0 0 26 26" fill="none" xmlns="http://www.w3.org/2000/svg">
<g clip-path="url(#clip0_61_1450)">
<path d="M22.2409 10.9106C22.2721 7.24488 19.15 3.88442 15.2813 3.41973C15.2043 3.4106 15.1205 3.39671 15.0318 3.38202C14.8403 3.35029 14.6422 3.31767 14.4424 3.31767C13.6494 3.31767 13.4375 3.87465 13.3817 4.20683C13.3274 4.52981 13.3792 4.80104 13.5353 5.01332C13.7978 5.37037 14.2599 5.43376 14.631 5.48455C14.7397 5.49957 14.8424 5.51354 14.9283 5.53283C18.4042 6.30952 19.5746 7.53063 20.1466 10.977C20.1606 11.0612 20.1669 11.165 20.1736 11.275C20.1985 11.687 20.2505 12.5441 21.172 12.5441H21.1721C21.2488 12.5441 21.3312 12.5375 21.4171 12.5244C22.2751 12.394 22.2482 11.6105 22.2353 11.2341C22.2317 11.1281 22.2282 11.0278 22.2372 10.9611C22.2396 10.9443 22.2408 10.9274 22.2409 10.9106Z" fill="#1C74D0"/>
<path d="M14.2174 2.07419C14.3204 2.08161 14.4178 2.08872 14.499 2.10116C20.2068 2.97894 22.8317 5.68326 23.5592 11.4357C23.5715 11.5335 23.5735 11.6528 23.5755 11.779C23.5827 12.2285 23.5977 13.1634 24.6017 13.1828L24.6329 13.1831C24.9478 13.1831 25.1983 13.0882 25.3775 12.9007C25.69 12.5737 25.6682 12.0881 25.6506 11.6977C25.6463 11.602 25.6422 11.5118 25.6433 11.4328C25.7159 5.54955 20.6233 0.214621 14.7452 0.0162298C14.7209 0.0154224 14.6976 0.0167143 14.6741 0.0200248C14.6626 0.0217205 14.6412 0.0238199 14.6045 0.0238199C14.5459 0.0238199 14.4738 0.0187329 14.3973 0.0135652C14.3049 0.00726708 14.2 0 14.0938 0C13.1577 0 12.9797 0.665342 12.957 1.06196C12.9045 1.97858 13.7912 2.0431 14.2174 2.07419Z" fill="#1C74D0"/>
<path d="M23.2837 18.8704C23.1624 18.7777 23.0369 18.6818 22.9194 18.5872C22.2962 18.0857 21.6332 17.6234 20.992 17.1763C20.8589 17.0836 20.7259 16.9908 20.5933 16.8978C19.7719 16.3209 19.0335 16.0405 18.3359 16.0405C17.3963 16.0405 16.577 16.5597 15.9009 17.5835C15.6013 18.0374 15.2379 18.2581 14.79 18.2581C14.5251 18.2581 14.2242 18.1825 13.8956 18.0333C11.2445 16.8311 9.35144 14.9879 8.26889 12.5548C7.74558 11.3788 7.91522 10.6101 8.8362 9.98449C9.35919 9.62953 10.3327 8.96871 10.2637 7.70327C10.1856 6.26624 7.01491 1.94241 5.67898 1.45132C5.11336 1.24332 4.51907 1.24138 3.90945 1.44647C2.37367 1.96276 1.27158 2.86945 0.722024 4.06836C0.190961 5.22681 0.214943 6.58705 0.791384 8.00203C2.45781 12.0931 4.80071 15.6599 7.75527 18.6033C10.6472 21.4846 14.2017 23.8448 18.3199 25.6181C18.6911 25.7778 19.0804 25.8649 19.3647 25.9285C19.4616 25.9503 19.5453 25.9688 19.6063 25.9856C19.6398 25.9947 19.6743 25.9996 19.709 25.9999L19.7415 26.0001C19.7415 26.0001 19.7415 26.0001 19.7417 26.0001C21.6786 26.0001 24.0043 24.2301 24.7186 22.2123C25.3443 20.4455 24.2018 19.5721 23.2837 18.8704Z" fill="#1C74D0"/>
<path d="M15.0741 6.7474C14.7425 6.7558 14.0523 6.77292 13.8102 7.47581C13.6969 7.80428 13.7105 8.08947 13.8506 8.32347C14.0561 8.6668 14.45 8.77201 14.8083 8.82974C16.1076 9.03823 16.7748 9.7567 16.9083 11.0906C16.9703 11.7126 17.3891 12.1469 17.9269 12.1469C17.9666 12.1469 18.0073 12.1446 18.0478 12.1397C18.6946 12.0627 19.0081 11.5875 18.9798 10.7274C18.9901 9.82978 18.5203 8.81069 17.7213 7.99896C16.9196 7.18472 15.9532 6.72617 15.0741 6.7474Z" fill="#1C74D0"/>
</g>
<defs>
<clipPath id="clip0_61_1450">
<rect width="26" height="26" fill="white"/>
</clipPath>
</defs>
</svg>
