<svg xmlns="http://www.w3.org/2000/svg" width="20.5" height="20.5" viewBox="0 0 20.5 20.5">
  <g id="Group_18005" data-name="Group 18005" transform="translate(-715.75 -709.75)">
    <path id="Path_32552" data-name="Path 32552" d="M725.18,710h1.367c.4.055.8.091,1.194.168a10.02,10.02,0,0,1,6.013,3.6,9.844,9.844,0,0,1,2.134,4.864c.039.262.075.524.112.786v1.406c-.012.056-.027.111-.037.168-.094.556-.144,1.123-.287,1.666a9.463,9.463,0,0,1-3.42,5.279,9.816,9.816,0,0,1-4.4,1.915c-.344.058-.69.1-1.036.151h-1.367c-.4-.055-.8-.091-1.194-.168a10.02,10.02,0,0,1-6.013-3.6,9.845,9.845,0,0,1-2.134-4.864c-.039-.262-.075-.524-.112-.786V719.18c.012-.056.027-.111.037-.168.094-.556.144-1.123.287-1.666a9.463,9.463,0,0,1,3.42-5.279,9.816,9.816,0,0,1,4.4-1.915C724.488,710.094,724.834,710.05,725.18,710Zm10.269,10.015a9.446,9.446,0,1,0-9.465,9.424A9.447,9.447,0,0,0,735.449,720.015Z" fill="#ff6700" stroke="#ff6700" stroke-width="0.5"/>
    <path id="Path_32553" data-name="Path 32553" d="M816.662,816.668a3.405,3.405,0,0,1,1.02-2.392c.178-.181.357-.361.539-.539a1.126,1.126,0,0,1,1.654,0q.91.9,1.81,1.809a1.1,1.1,0,0,1,0,1.647c-.332.34-.672.672-1.007,1.009a.275.275,0,0,0-.029.441,12.649,12.649,0,0,0,2.741,2.705c.258.184.309.183.529-.037.314-.312.624-.628.94-.938a1.1,1.1,0,0,1,1.646-.01q.914.9,1.813,1.806a1.1,1.1,0,0,1,0,1.661,4.814,4.814,0,0,1-1.509,1.185,3.332,3.332,0,0,1-2.3.156,11.534,11.534,0,0,1-5.509-3.7,10.539,10.539,0,0,1-2.116-3.587,12.015,12.015,0,0,1-.275-1.207Zm.676.04a3.35,3.35,0,0,0,.1.612,12.646,12.646,0,0,0,.593,1.5,11.7,11.7,0,0,0,3.392,4,9.651,9.651,0,0,0,3.287,1.7,2.7,2.7,0,0,0,1.9-.153,4.3,4.3,0,0,0,1.2-.98.439.439,0,0,0,0-.738q-.874-.88-1.752-1.755a.451.451,0,0,0-.754.006c-.317.319-.628.642-.946.96a.924.924,0,0,1-1.285.109,13.276,13.276,0,0,1-2.959-2.9.92.92,0,0,1,.094-1.342c.33-.333.665-.661.993-1a.43.43,0,0,0,.031-.669q-.916-.934-1.849-1.852a.422.422,0,0,0-.656,0c-.216.207-.428.419-.632.638A2.742,2.742,0,0,0,817.338,816.708Z" transform="translate(-96.681 -99.338)" fill="#ff6700" stroke="#ff6700" stroke-width="0.5"/>
  </g>
</svg>
