<svg width="123" height="115" viewBox="0 0 123 115" fill="none" xmlns="http://www.w3.org/2000/svg">
<circle cx="61.5038" cy="57.4901" r="57.326" fill="#D6E4F1" fill-opacity="0.33"/>
<g filter="url(#filter0_dddddd_6_2486)">
<rect x="10.8296" y="28.7735" width="79.5032" height="15.4693" fill="white"/>
</g>
<g filter="url(#filter1_dddddd_6_2486)">
<rect x="10.8296" y="50.6159" width="79.5032" height="15.4693" fill="white"/>
</g>
<g filter="url(#filter2_dddddd_6_2486)">
<rect x="10.8296" y="72.7916" width="79.5032" height="15.4693" fill="white"/>
</g>
<path d="M87.2855 28.8455H13.6254C12.8175 28.8465 12.043 29.1679 11.4717 29.7391C10.9005 30.3104 10.5791 31.0849 10.5781 31.8928V41.1955C10.5791 42.0034 10.9005 42.7779 11.4717 43.3492C12.043 43.9204 12.8175 44.2418 13.6254 44.2427H87.2855C88.0934 44.2418 88.8679 43.9204 89.4392 43.3492C90.0104 42.7779 90.3318 42.0034 90.3328 41.1955V31.8928C90.3318 31.0849 90.0104 30.3104 89.4392 29.7391C88.8679 29.1679 88.0934 28.8465 87.2855 28.8455ZM90.012 41.1955C90.0109 41.9182 89.7233 42.6111 89.2122 43.1222C88.7011 43.6333 88.0083 43.9209 87.2855 43.9219H13.6254C12.9026 43.9209 12.2098 43.6333 11.6987 43.1222C11.1876 42.6111 10.9 41.9182 10.8989 41.1955V31.8928C10.9 31.17 11.1876 30.4772 11.6987 29.9661C12.2098 29.455 12.9026 29.1674 13.6254 29.1663H87.2855C88.0083 29.1674 88.7011 29.455 89.2122 29.9661C89.7233 30.4772 90.0109 31.17 90.012 31.8928V41.1955Z" fill="#8AB9FF"/>
<path d="M87.2855 66.2156H13.6254C12.8175 66.2146 12.043 65.8933 11.4717 65.322C10.9005 64.7507 10.5791 63.9762 10.5781 63.1683V53.8658C10.5791 53.0579 10.9005 52.2834 11.4717 51.7121C12.043 51.1409 12.8175 50.8195 13.6254 50.8185H87.2855C88.0934 50.8195 88.8679 51.1409 89.4392 51.7121C90.0104 52.2834 90.3318 53.0579 90.3328 53.8658V63.1683C90.3318 63.9762 90.0104 64.7507 89.4392 65.322C88.8679 65.8933 88.0934 66.2146 87.2855 66.2156ZM13.6254 51.1394C12.9026 51.1402 12.2095 51.4277 11.6984 51.9388C11.1873 52.45 10.8998 53.143 10.8989 53.8658V63.1683C10.8996 63.8912 11.1871 64.5844 11.6982 65.0957C12.2094 65.6069 12.9025 65.8945 13.6254 65.8953H87.2855C88.0084 65.8946 88.7014 65.6071 89.2126 65.0959C89.7238 64.5848 90.0113 63.8917 90.0122 63.1688V53.8658C90.0113 53.143 89.7238 52.45 89.2127 51.9388C88.7015 51.4277 88.0085 51.1402 87.2857 51.1394H13.6254Z" fill="#8AB9FF" fill-opacity="0.5"/>
<path d="M87.2855 88.1887H13.6254C12.8175 88.1877 12.043 87.8663 11.4717 87.2951C10.9005 86.7238 10.5791 85.9493 10.5781 85.1414V75.8389C10.5791 75.031 10.9005 74.2565 11.4717 73.6852C12.043 73.114 12.8175 72.7926 13.6254 72.7916H87.2855C88.0934 72.7926 88.8679 73.114 89.4392 73.6852C90.0104 74.2565 90.3318 75.031 90.3328 75.8389V85.1414C90.3318 85.9493 90.0104 86.7238 89.4392 87.2951C88.8679 87.8663 88.0934 88.1877 87.2855 88.1887ZM13.6254 73.1117C12.9026 73.1125 12.2095 73.4 11.6984 73.9112C11.1873 74.4223 10.8998 75.1153 10.8989 75.8382V85.1406C10.8997 85.8635 11.1872 86.5566 11.6983 87.0678C12.2095 87.579 12.9025 87.8665 13.6254 87.8673H87.2855C88.0084 87.8665 88.7014 87.579 89.2126 87.0679C89.7238 86.5568 90.0113 85.8637 90.0122 85.1408V75.8389C90.0115 75.1159 89.7241 74.4227 89.2129 73.9114C88.7017 73.4001 88.0085 73.1125 87.2855 73.1117H13.6254Z" fill="#8AB9FF" fill-opacity="0.5"/>
<path d="M21.6525 41.8481C20.6035 41.8481 19.5781 41.537 18.7058 40.9542C17.8336 40.3714 17.1538 39.5431 16.7524 38.5739C16.3509 37.6047 16.2459 36.5383 16.4505 35.5095C16.6552 34.4806 17.1603 33.5355 17.9021 32.7938C18.6439 32.052 19.5889 31.5469 20.6178 31.3422C21.6466 31.1376 22.7131 31.2426 23.6822 31.644C24.6514 32.0455 25.4798 32.7253 26.0626 33.5975C26.6454 34.4697 26.9564 35.4952 26.9564 36.5442C26.9564 37.9509 26.3976 39.2999 25.403 40.2946C24.4083 41.2893 23.0592 41.8481 21.6525 41.8481Z" fill="#5282ED"/>
<path d="M84.0574 40.8744H31.8726C31.559 40.8744 31.2582 40.7392 31.0364 40.4986C30.8146 40.258 30.6899 39.9316 30.6899 39.5913C30.6899 39.251 30.8146 38.9246 31.0364 38.684C31.2582 38.4434 31.559 38.3082 31.8726 38.3082H84.0574C84.3711 38.3082 84.6719 38.4434 84.8937 38.684C85.1155 38.9246 85.2401 39.251 85.2401 39.5913C85.2401 39.9316 85.1155 40.258 84.8937 40.4986C84.6719 40.7392 84.3711 40.8744 84.0574 40.8744Z" fill="#E2E8F9"/>
<path d="M70.1435 35.4214H31.9716C31.6313 35.4214 31.3049 35.2862 31.0643 35.0455C30.8237 34.8049 30.6885 34.4785 30.6885 34.1382C30.6885 33.7979 30.8237 33.4716 31.0643 33.2309C31.3049 32.9903 31.6313 32.8551 31.9716 32.8551H70.1435C70.4838 32.8551 70.8102 32.9903 71.0508 33.2309C71.2915 33.4716 71.4266 33.7979 71.4266 34.1382C71.4266 34.4785 71.2915 34.8049 71.0508 35.0455C70.8102 35.2862 70.4838 35.4214 70.1435 35.4214Z" fill="#E2E8F9"/>
<path d="M21.6525 63.8209C20.6035 63.8209 19.5781 63.5099 18.7058 62.9271C17.8336 62.3443 17.1538 61.5159 16.7524 60.5467C16.3509 59.5776 16.2459 58.5112 16.4505 57.4823C16.6552 56.4534 17.1603 55.5084 17.9021 54.7666C18.6439 54.0248 19.5889 53.5197 20.6178 53.315C21.6466 53.1104 22.7131 53.2154 23.6822 53.6169C24.6514 54.0183 25.4798 54.6981 26.0626 55.5703C26.6454 56.4426 26.9564 57.468 26.9564 58.517C26.9564 59.9237 26.3976 61.2728 25.403 62.2675C24.4083 63.2621 23.0592 63.8209 21.6525 63.8209Z" fill="#E2E8F9" fill-opacity="0.8"/>
<path d="M84.0574 62.8475H31.8726C31.559 62.8475 31.2582 62.7123 31.0364 62.4716C30.8146 62.231 30.6899 61.9046 30.6899 61.5643C30.6899 61.224 30.8146 60.8976 31.0364 60.657C31.2582 60.4164 31.559 60.2812 31.8726 60.2812H84.0574C84.3711 60.2812 84.6719 60.4164 84.8937 60.657C85.1155 60.8976 85.2401 61.224 85.2401 61.5643C85.2401 61.9046 85.1155 62.231 84.8937 62.4716C84.6719 62.7123 84.3711 62.8475 84.0574 62.8475Z" fill="#E2E8F9" fill-opacity="0.8"/>
<path d="M70.1435 57.3943H31.9716C31.6313 57.3943 31.3049 57.2591 31.0643 57.0185C30.8237 56.7779 30.6885 56.4515 30.6885 56.1112C30.6885 55.7709 30.8237 55.4445 31.0643 55.2039C31.3049 54.9632 31.6313 54.8281 31.9716 54.8281H70.1435C70.4838 54.8281 70.8102 54.9632 71.0508 55.2039C71.2915 55.4445 71.4266 55.7709 71.4266 56.1112C71.4266 56.4515 71.2915 56.7779 71.0508 57.0185C70.8102 57.2591 70.4838 57.3943 70.1435 57.3943Z" fill="#E2E8F9" fill-opacity="0.8"/>
<path d="M21.6525 85.794C20.6035 85.794 19.5781 85.4829 18.7058 84.9001C17.8336 84.3173 17.1538 83.4889 16.7524 82.5198C16.3509 81.5506 16.2459 80.4842 16.4505 79.4553C16.6552 78.4265 17.1603 77.4814 17.9021 76.7396C18.6439 75.9979 19.5889 75.4927 20.6178 75.2881C21.6466 75.0834 22.7131 75.1885 23.6822 75.5899C24.6514 75.9913 25.4798 76.6711 26.0626 77.5434C26.6454 78.4156 26.9564 79.441 26.9564 80.4901C26.9564 81.8967 26.3976 83.2458 25.403 84.2405C24.4083 85.2352 23.0592 85.794 21.6525 85.794Z" fill="#E2E8F9" fill-opacity="0.8"/>
<path d="M84.0574 84.8205H31.8726C31.559 84.8205 31.2582 84.6854 31.0364 84.4447C30.8146 84.2041 30.6899 83.8777 30.6899 83.5374C30.6899 83.1971 30.8146 82.8707 31.0364 82.6301C31.2582 82.3895 31.559 82.2543 31.8726 82.2543H84.0574C84.3711 82.2543 84.6719 82.3895 84.8937 82.6301C85.1155 82.8707 85.2401 83.1971 85.2401 83.5374C85.2401 83.8777 85.1155 84.2041 84.8937 84.4447C84.6719 84.6854 84.3711 84.8205 84.0574 84.8205Z" fill="#E2E8F9" fill-opacity="0.8"/>
<path d="M70.1435 79.3674H31.9716C31.6313 79.3674 31.3049 79.2322 31.0643 78.9916C30.8237 78.751 30.6885 78.4246 30.6885 78.0843C30.6885 77.744 30.8237 77.4176 31.0643 77.177C31.3049 76.9363 31.6313 76.8011 31.9716 76.8011H70.1435C70.4838 76.8011 70.8102 76.9363 71.0508 77.177C71.2915 77.4176 71.4266 77.744 71.4266 78.0843C71.4266 78.4246 71.2915 78.751 71.0508 78.9916C70.8102 79.2322 70.4838 79.3674 70.1435 79.3674Z" fill="#E2E8F9" fill-opacity="0.8"/>
<path d="M21.382 38.4098C21.2502 38.4101 21.122 38.3675 21.0166 38.2885L21.01 38.2836L19.6352 37.232C19.5716 37.1832 19.5181 37.1223 19.478 37.0529C19.4378 36.9834 19.4118 36.9067 19.4013 36.8272C19.3908 36.7476 19.396 36.6668 19.4167 36.5893C19.4375 36.5118 19.4733 36.4391 19.5221 36.3755C19.5709 36.3118 19.6318 36.2583 19.7012 36.2182C19.7707 36.178 19.8474 36.152 19.9269 36.1415C20.0064 36.131 20.0873 36.1362 20.1648 36.1569C20.2423 36.1777 20.3149 36.2135 20.3786 36.2623L21.2691 36.9452L23.3731 34.2001C23.4717 34.0716 23.6172 33.9875 23.7777 33.9663C23.9383 33.9451 24.1007 33.9885 24.2292 34.087L24.2162 34.1052L24.2296 34.087C24.3579 34.1857 24.4419 34.3312 24.4631 34.4918C24.4842 34.6523 24.4409 34.8146 24.3425 34.9432L21.8675 38.1707C21.8102 38.2449 21.7366 38.3049 21.6523 38.3461C21.568 38.3873 21.4754 38.4085 21.3816 38.4082L21.382 38.4098Z" fill="white"/>
<path d="M94.2946 40.5694C94.3275 40.6838 94.3512 40.8006 94.3657 40.9187L103.886 45.7239L106.055 44.3081L108.62 47.3032L105.023 50.1829C104.732 50.4155 104.374 50.5476 104.002 50.5593C103.63 50.571 103.264 50.4617 102.959 50.2478L93.0297 43.2765C92.6094 43.4593 92.1434 43.5099 91.6936 43.4214C91.2439 43.333 90.8317 43.1097 90.512 42.7812C90.1922 42.4528 89.98 42.0348 89.9036 41.5829C89.8272 41.1309 89.8902 40.6664 90.0843 40.2511C90.2783 39.8358 90.5942 39.4895 90.9899 39.2581C91.3856 39.0267 91.8424 38.9213 92.2994 38.9559C92.7565 38.9904 93.1922 39.1633 93.5486 39.4516C93.905 39.7398 94.1653 40.1297 94.2947 40.5694L94.2946 40.5694Z" fill="#FFB6B6"/>
<path d="M104.198 45.9054L107.354 49.6369C107.444 49.7431 107.555 49.8287 107.681 49.8878C107.807 49.947 107.944 49.9783 108.083 49.9797C108.222 49.981 108.36 49.9524 108.487 49.8958C108.614 49.8391 108.727 49.7558 108.819 49.6514L112.038 45.9938C112.579 45.5314 112.914 44.8733 112.971 44.1639C113.027 43.4546 112.8 42.7518 112.338 42.2099C111.877 41.6679 111.22 41.3309 110.511 41.2729C109.802 41.2148 109.098 41.4404 108.555 41.9002L104.427 44.4582C104.309 44.5314 104.208 44.6293 104.131 44.7452C104.054 44.861 104.003 44.992 103.981 45.1294C103.959 45.2667 103.967 45.4071 104.005 45.5411C104.042 45.675 104.108 45.7993 104.198 45.9054L104.198 45.9054Z" fill="#6C63FF"/>
<path d="M116.081 100.604H113.841L112.776 91.9651H116.082L116.081 100.604Z" fill="#FFB6B6"/>
<path d="M116.652 99.8729L112.241 99.8727H112.241C111.496 99.8728 110.781 100.169 110.254 100.696C109.726 101.223 109.43 101.938 109.43 102.684V102.775L116.652 102.775L116.652 99.8729Z" fill="#2F2E41"/>
<path d="M116.586 76.5463L115.949 78.6935L107.363 77.2588L108.304 74.0897L116.586 76.5463Z" fill="#FFB6B6"/>
<path d="M116.047 75.7906L114.793 80.0194L114.793 80.0196C114.581 80.7343 114.661 81.504 115.017 82.1592C115.372 82.8145 115.974 83.3017 116.688 83.5137L116.776 83.5397L118.83 76.6159L116.047 75.7906Z" fill="#2F2E41"/>
<path d="M93.4471 72.1283C93.7704 72.667 94.2267 73.1137 94.7723 73.4253C95.3179 73.737 95.9344 73.9031 96.5627 73.9079L110.024 78.2174L110.64 74.6474L102.489 70.2246L110.386 64.5369L104.6 57.7664L94.0911 67.561C93.477 68.1334 93.078 68.8993 92.9608 69.7307C92.8436 70.562 93.0152 71.4083 93.4471 72.1283Z" fill="#5282ED"/>
<path d="M112.971 96.543H116.295C119.279 76.0872 122.317 55.5744 113.34 47.9178L102.753 49.6414L104.108 58.6278L110.016 65.3983L112.971 96.543Z" fill="#8AB9FF"/>
<path d="M103.401 53.3476C107.881 56.4009 113.67 55.683 116.085 51.1334C112.614 45.2873 111.884 41.0854 114.678 39.1671C115.126 37.5704 114.958 35.8639 114.209 34.3844C113.46 32.9049 112.184 31.7601 110.632 31.1758L105.339 33.3916C100.845 37.0553 99.9594 41.0238 101.646 45.2094L103.401 53.3476Z" fill="#E4F2F2"/>
<path d="M119.941 56.9551C119.662 56.8902 119.4 56.7648 119.174 56.5878C118.948 56.4107 118.764 56.1863 118.634 55.9304C118.505 55.6744 118.433 55.3932 118.423 55.1064C118.414 54.8196 118.468 54.5343 118.581 54.2706L111.346 37.9248L115.485 36.8824L121.295 53.2775C121.726 53.4967 122.061 53.8662 122.237 54.3159C122.413 54.7657 122.418 55.2645 122.252 55.7178C122.085 56.1711 121.757 56.5474 121.331 56.7755C120.906 57.0035 120.411 57.0675 119.941 56.9551V56.9551Z" fill="#FFB6B6"/>
<path d="M112.325 40.8482L116.351 38.964C116.465 38.9104 116.567 38.8327 116.648 38.7363C116.73 38.6399 116.79 38.5269 116.825 38.4052C116.859 38.2835 116.866 38.1558 116.847 38.0308C116.827 37.9059 116.781 37.7866 116.711 37.6812L114.265 33.9867C113.987 33.4027 113.489 32.9526 112.88 32.7351C112.271 32.5176 111.6 32.5504 111.015 32.8263C110.43 33.1022 109.979 33.5987 109.759 34.2071C109.54 34.8154 109.57 35.4859 109.844 36.0718L111.109 40.3035C111.145 40.4246 111.207 40.5366 111.291 40.6316C111.374 40.7267 111.477 40.8026 111.592 40.8543C111.708 40.906 111.833 40.9322 111.959 40.9312C112.086 40.9301 112.211 40.9018 112.325 40.8482H112.325Z" fill="#E4F2F2"/>
<path d="M103.397 29.9723H113.993C114.211 29.9721 114.42 29.8854 114.574 29.7313C114.728 29.5771 114.815 29.3682 114.815 29.1502V24.5829C114.815 22.9598 114.17 21.4031 113.022 20.2553C111.875 19.1076 110.318 18.4628 108.695 18.4628C107.072 18.4628 105.515 19.1076 104.367 20.2553C103.219 21.4031 102.575 22.9598 102.575 24.5829V29.1502C102.575 29.3682 102.662 29.5771 102.816 29.7313C102.97 29.8854 103.179 29.9721 103.397 29.9723Z" fill="#2F2E41"/>
<path d="M107.184 29.9029C104.706 29.9029 102.697 27.894 102.697 25.4158C102.697 22.9376 104.706 20.9287 107.184 20.9287C109.662 20.9287 111.671 22.9376 111.671 25.4158C111.671 27.894 109.662 29.9029 107.184 29.9029Z" fill="#FFB6B6"/>
<path d="M101.127 25.0397H107.606L107.672 24.1094L108.004 25.0397H109.002L109.134 23.196L109.792 25.0397H111.723V24.9483C111.721 23.6648 111.211 22.4342 110.303 21.5266C109.395 20.619 108.165 20.1084 106.881 20.107H105.968C104.684 20.1084 103.454 20.619 102.546 21.5266C101.639 22.4342 101.128 23.6648 101.127 24.9483V25.0397Z" fill="#2F2E41"/>
<defs>
<filter id="filter0_dddddd_6_2486" x="0.82959" y="23.7735" width="99.5034" height="35.4693" filterUnits="userSpaceOnUse" color-interpolation-filters="sRGB">
<feFlood flood-opacity="0" result="BackgroundImageFix"/>
<feColorMatrix in="SourceAlpha" type="matrix" values="0 0 0 0 0 0 0 0 0 0 0 0 0 0 0 0 0 0 127 0" result="hardAlpha"/>
<feOffset dy="0.0925926"/>
<feGaussianBlur stdDeviation="0.196759"/>
<feColorMatrix type="matrix" values="0 0 0 0 0.4 0 0 0 0 0.564706 0 0 0 0 0.796078 0 0 0 0.0216667 0"/>
<feBlend mode="normal" in2="BackgroundImageFix" result="effect1_dropShadow_6_2486"/>
<feColorMatrix in="SourceAlpha" type="matrix" values="0 0 0 0 0 0 0 0 0 0 0 0 0 0 0 0 0 0 127 0" result="hardAlpha"/>
<feOffset dy="0.407407"/>
<feGaussianBlur stdDeviation="0.407407"/>
<feColorMatrix type="matrix" values="0 0 0 0 0.4 0 0 0 0 0.564706 0 0 0 0 0.796078 0 0 0 0.0353333 0"/>
<feBlend mode="normal" in2="effect1_dropShadow_6_2486" result="effect2_dropShadow_6_2486"/>
<feColorMatrix in="SourceAlpha" type="matrix" values="0 0 0 0 0 0 0 0 0 0 0 0 0 0 0 0 0 0 127 0" result="hardAlpha"/>
<feOffset dy="1"/>
<feGaussianBlur stdDeviation="0.8125"/>
<feColorMatrix type="matrix" values="0 0 0 0 0.4 0 0 0 0 0.564706 0 0 0 0 0.796078 0 0 0 0.045 0"/>
<feBlend mode="normal" in2="effect2_dropShadow_6_2486" result="effect3_dropShadow_6_2486"/>
<feColorMatrix in="SourceAlpha" type="matrix" values="0 0 0 0 0 0 0 0 0 0 0 0 0 0 0 0 0 0 127 0" result="hardAlpha"/>
<feOffset dy="1.92593"/>
<feGaussianBlur stdDeviation="1.59259"/>
<feColorMatrix type="matrix" values="0 0 0 0 0.4 0 0 0 0 0.564706 0 0 0 0 0.796078 0 0 0 0.0546667 0"/>
<feBlend mode="normal" in2="effect3_dropShadow_6_2486" result="effect4_dropShadow_6_2486"/>
<feColorMatrix in="SourceAlpha" type="matrix" values="0 0 0 0 0 0 0 0 0 0 0 0 0 0 0 0 0 0 127 0" result="hardAlpha"/>
<feOffset dy="3.24074"/>
<feGaussianBlur stdDeviation="2.92824"/>
<feColorMatrix type="matrix" values="0 0 0 0 0.4 0 0 0 0 0.564706 0 0 0 0 0.796078 0 0 0 0.0683333 0"/>
<feBlend mode="normal" in2="effect4_dropShadow_6_2486" result="effect5_dropShadow_6_2486"/>
<feColorMatrix in="SourceAlpha" type="matrix" values="0 0 0 0 0 0 0 0 0 0 0 0 0 0 0 0 0 0 127 0" result="hardAlpha"/>
<feOffset dy="5"/>
<feGaussianBlur stdDeviation="5"/>
<feColorMatrix type="matrix" values="0 0 0 0 0.4 0 0 0 0 0.564706 0 0 0 0 0.796078 0 0 0 0.09 0"/>
<feBlend mode="normal" in2="effect5_dropShadow_6_2486" result="effect6_dropShadow_6_2486"/>
<feBlend mode="normal" in="SourceGraphic" in2="effect6_dropShadow_6_2486" result="shape"/>
</filter>
<filter id="filter1_dddddd_6_2486" x="0.82959" y="45.6159" width="99.5034" height="35.4693" filterUnits="userSpaceOnUse" color-interpolation-filters="sRGB">
<feFlood flood-opacity="0" result="BackgroundImageFix"/>
<feColorMatrix in="SourceAlpha" type="matrix" values="0 0 0 0 0 0 0 0 0 0 0 0 0 0 0 0 0 0 127 0" result="hardAlpha"/>
<feOffset dy="0.0925926"/>
<feGaussianBlur stdDeviation="0.196759"/>
<feColorMatrix type="matrix" values="0 0 0 0 0.4 0 0 0 0 0.564706 0 0 0 0 0.796078 0 0 0 0.0216667 0"/>
<feBlend mode="normal" in2="BackgroundImageFix" result="effect1_dropShadow_6_2486"/>
<feColorMatrix in="SourceAlpha" type="matrix" values="0 0 0 0 0 0 0 0 0 0 0 0 0 0 0 0 0 0 127 0" result="hardAlpha"/>
<feOffset dy="0.407407"/>
<feGaussianBlur stdDeviation="0.407407"/>
<feColorMatrix type="matrix" values="0 0 0 0 0.4 0 0 0 0 0.564706 0 0 0 0 0.796078 0 0 0 0.0353333 0"/>
<feBlend mode="normal" in2="effect1_dropShadow_6_2486" result="effect2_dropShadow_6_2486"/>
<feColorMatrix in="SourceAlpha" type="matrix" values="0 0 0 0 0 0 0 0 0 0 0 0 0 0 0 0 0 0 127 0" result="hardAlpha"/>
<feOffset dy="1"/>
<feGaussianBlur stdDeviation="0.8125"/>
<feColorMatrix type="matrix" values="0 0 0 0 0.4 0 0 0 0 0.564706 0 0 0 0 0.796078 0 0 0 0.045 0"/>
<feBlend mode="normal" in2="effect2_dropShadow_6_2486" result="effect3_dropShadow_6_2486"/>
<feColorMatrix in="SourceAlpha" type="matrix" values="0 0 0 0 0 0 0 0 0 0 0 0 0 0 0 0 0 0 127 0" result="hardAlpha"/>
<feOffset dy="1.92593"/>
<feGaussianBlur stdDeviation="1.59259"/>
<feColorMatrix type="matrix" values="0 0 0 0 0.4 0 0 0 0 0.564706 0 0 0 0 0.796078 0 0 0 0.0546667 0"/>
<feBlend mode="normal" in2="effect3_dropShadow_6_2486" result="effect4_dropShadow_6_2486"/>
<feColorMatrix in="SourceAlpha" type="matrix" values="0 0 0 0 0 0 0 0 0 0 0 0 0 0 0 0 0 0 127 0" result="hardAlpha"/>
<feOffset dy="3.24074"/>
<feGaussianBlur stdDeviation="2.92824"/>
<feColorMatrix type="matrix" values="0 0 0 0 0.4 0 0 0 0 0.564706 0 0 0 0 0.796078 0 0 0 0.0683333 0"/>
<feBlend mode="normal" in2="effect4_dropShadow_6_2486" result="effect5_dropShadow_6_2486"/>
<feColorMatrix in="SourceAlpha" type="matrix" values="0 0 0 0 0 0 0 0 0 0 0 0 0 0 0 0 0 0 127 0" result="hardAlpha"/>
<feOffset dy="5"/>
<feGaussianBlur stdDeviation="5"/>
<feColorMatrix type="matrix" values="0 0 0 0 0.4 0 0 0 0 0.564706 0 0 0 0 0.796078 0 0 0 0.09 0"/>
<feBlend mode="normal" in2="effect5_dropShadow_6_2486" result="effect6_dropShadow_6_2486"/>
<feBlend mode="normal" in="SourceGraphic" in2="effect6_dropShadow_6_2486" result="shape"/>
</filter>
<filter id="filter2_dddddd_6_2486" x="0.82959" y="67.7916" width="99.5034" height="35.4693" filterUnits="userSpaceOnUse" color-interpolation-filters="sRGB">
<feFlood flood-opacity="0" result="BackgroundImageFix"/>
<feColorMatrix in="SourceAlpha" type="matrix" values="0 0 0 0 0 0 0 0 0 0 0 0 0 0 0 0 0 0 127 0" result="hardAlpha"/>
<feOffset dy="0.0925926"/>
<feGaussianBlur stdDeviation="0.196759"/>
<feColorMatrix type="matrix" values="0 0 0 0 0.4 0 0 0 0 0.564706 0 0 0 0 0.796078 0 0 0 0.0216667 0"/>
<feBlend mode="normal" in2="BackgroundImageFix" result="effect1_dropShadow_6_2486"/>
<feColorMatrix in="SourceAlpha" type="matrix" values="0 0 0 0 0 0 0 0 0 0 0 0 0 0 0 0 0 0 127 0" result="hardAlpha"/>
<feOffset dy="0.407407"/>
<feGaussianBlur stdDeviation="0.407407"/>
<feColorMatrix type="matrix" values="0 0 0 0 0.4 0 0 0 0 0.564706 0 0 0 0 0.796078 0 0 0 0.0353333 0"/>
<feBlend mode="normal" in2="effect1_dropShadow_6_2486" result="effect2_dropShadow_6_2486"/>
<feColorMatrix in="SourceAlpha" type="matrix" values="0 0 0 0 0 0 0 0 0 0 0 0 0 0 0 0 0 0 127 0" result="hardAlpha"/>
<feOffset dy="1"/>
<feGaussianBlur stdDeviation="0.8125"/>
<feColorMatrix type="matrix" values="0 0 0 0 0.4 0 0 0 0 0.564706 0 0 0 0 0.796078 0 0 0 0.045 0"/>
<feBlend mode="normal" in2="effect2_dropShadow_6_2486" result="effect3_dropShadow_6_2486"/>
<feColorMatrix in="SourceAlpha" type="matrix" values="0 0 0 0 0 0 0 0 0 0 0 0 0 0 0 0 0 0 127 0" result="hardAlpha"/>
<feOffset dy="1.92593"/>
<feGaussianBlur stdDeviation="1.59259"/>
<feColorMatrix type="matrix" values="0 0 0 0 0.4 0 0 0 0 0.564706 0 0 0 0 0.796078 0 0 0 0.0546667 0"/>
<feBlend mode="normal" in2="effect3_dropShadow_6_2486" result="effect4_dropShadow_6_2486"/>
<feColorMatrix in="SourceAlpha" type="matrix" values="0 0 0 0 0 0 0 0 0 0 0 0 0 0 0 0 0 0 127 0" result="hardAlpha"/>
<feOffset dy="3.24074"/>
<feGaussianBlur stdDeviation="2.92824"/>
<feColorMatrix type="matrix" values="0 0 0 0 0.4 0 0 0 0 0.564706 0 0 0 0 0.796078 0 0 0 0.0683333 0"/>
<feBlend mode="normal" in2="effect4_dropShadow_6_2486" result="effect5_dropShadow_6_2486"/>
<feColorMatrix in="SourceAlpha" type="matrix" values="0 0 0 0 0 0 0 0 0 0 0 0 0 0 0 0 0 0 127 0" result="hardAlpha"/>
<feOffset dy="5"/>
<feGaussianBlur stdDeviation="5"/>
<feColorMatrix type="matrix" values="0 0 0 0 0.4 0 0 0 0 0.564706 0 0 0 0 0.796078 0 0 0 0.09 0"/>
<feBlend mode="normal" in2="effect5_dropShadow_6_2486" result="effect6_dropShadow_6_2486"/>
<feBlend mode="normal" in="SourceGraphic" in2="effect6_dropShadow_6_2486" result="shape"/>
</filter>
</defs>
</svg>
