<svg width="78" height="77" viewBox="0 0 78 77" fill="none" xmlns="http://www.w3.org/2000/svg">
<circle opacity="0.2" cx="38.9999" cy="38.599" r="38.0287" fill="#E8E8E8"/>
<path d="M38.9998 58.6558C50.0767 58.6558 59.0564 49.6761 59.0564 38.5991C59.0564 27.5221 50.0767 18.5425 38.9998 18.5425C27.9228 18.5425 18.9431 27.5221 18.9431 38.5991C18.9431 49.6761 27.9228 58.6558 38.9998 58.6558Z" fill="#1C74D0"/>
<path d="M38.9995 31.8401C40.3841 31.8401 41.5066 30.7176 41.5066 29.333C41.5066 27.9484 40.3841 26.8259 38.9995 26.8259C37.6149 26.8259 36.4924 27.9484 36.4924 29.333C36.4924 30.7176 37.6149 31.8401 38.9995 31.8401Z" fill="white"/>
<path d="M38.9996 50.3925C38.4677 50.3925 37.9575 50.1812 37.5814 49.805C37.2053 49.4289 36.9939 48.9188 36.9939 48.3868V38.3585C36.462 38.3585 35.9519 38.1472 35.5757 37.7711C35.1996 37.3949 34.9883 36.8848 34.9883 36.3528C34.9883 35.8209 35.1996 35.3107 35.5757 34.9346C35.9519 34.5585 36.462 34.3472 36.9939 34.3472H38.9996C39.5315 34.3472 40.0417 34.5585 40.4178 34.9346C40.794 35.3107 41.0053 35.8209 41.0053 36.3528V48.3868C41.0053 48.9188 40.794 49.4289 40.4178 49.805C40.0417 50.1812 39.5315 50.3925 38.9996 50.3925Z" fill="white"/>
<path d="M41.0053 50.3924H36.9939C36.462 50.3924 35.9519 50.1811 35.5757 49.805C35.1996 49.4289 34.9883 48.9187 34.9883 48.3868C34.9883 47.8548 35.1996 47.3447 35.5757 46.9685C35.9519 46.5924 36.462 46.3811 36.9939 46.3811H41.0053C41.5372 46.3811 42.0474 46.5924 42.4235 46.9685C42.7996 47.3447 43.0109 47.8548 43.0109 48.3868C43.0109 48.9187 42.7996 49.4289 42.4235 49.805C42.0474 50.1811 41.5372 50.3924 41.0053 50.3924Z" fill="white"/>
</svg>
