<svg width="128" height="87" viewBox="0 0 128 87" fill="none" xmlns="http://www.w3.org/2000/svg">
<g filter="url(#filter0_dddddd_6_2416)">
<path d="M10.6145 55.2241H94.6843C95.4334 55.2233 96.1516 54.9689 96.6813 54.5167C97.2109 54.0644 97.5089 53.4512 97.5098 52.8115V24.6741C97.5089 24.0345 97.2109 23.4212 96.6813 22.969C96.1516 22.5167 95.4334 22.2623 94.6843 22.2615H10.6145C9.86546 22.2623 9.14732 22.5167 8.61764 22.969C8.08795 23.4212 7.79001 24.0345 7.78915 24.6741V52.8116C7.79002 53.4512 8.08795 54.0644 8.61764 54.5167C9.14732 54.9689 9.86547 55.2233 10.6145 55.2241Z" fill="white"/>
<path d="M10.6149 54.8831H94.684C95.3586 54.8825 95.9967 54.6529 96.4599 54.2574C96.9214 53.8633 97.168 53.3416 97.1688 52.8113V24.6743C97.168 24.144 96.9214 23.6223 96.4599 23.2283C95.9967 22.8328 95.3588 22.6032 94.6842 22.6025H10.6147C9.94014 22.6032 9.3022 22.8328 8.83904 23.2283C8.37749 23.6224 8.13082 24.1441 8.13011 24.6745V52.8111C8.13083 53.3415 8.37749 53.8633 8.83904 54.2574C9.30224 54.6529 9.94025 54.8825 10.6149 54.8831Z" stroke="#C4DBFF" stroke-width="0.681927"/>
</g>
<path d="M98.7876 23.2192C98.821 23.3356 98.8452 23.4545 98.8599 23.5747L108.552 28.4669L110.761 27.0255L113.372 30.0747L109.71 33.0064C109.414 33.2433 109.049 33.3777 108.67 33.3897C108.292 33.4016 107.919 33.2903 107.609 33.0725L97.4998 25.9752C97.0719 26.1613 96.5974 26.2128 96.1396 26.1228C95.6817 26.0327 95.262 25.8053 94.9365 25.471C94.611 25.1366 94.395 24.7111 94.3172 24.2509C94.2394 23.7908 94.3036 23.3179 94.5011 22.8951C94.6987 22.4723 95.0203 22.1197 95.4231 21.8842C95.826 21.6486 96.291 21.5413 96.7563 21.5765C97.2216 21.6116 97.6652 21.7876 98.0281 22.0811C98.3909 22.3745 98.6559 22.7715 98.7876 23.2192L98.7876 23.2192Z" fill="#FFB6B6"/>
<path d="M108.87 28.6518L112.083 32.4507C112.175 32.5588 112.288 32.6459 112.416 32.7062C112.545 32.7664 112.684 32.7983 112.826 32.7997C112.967 32.8011 113.107 32.7719 113.237 32.7142C113.366 32.6566 113.481 32.5717 113.575 32.4655L116.852 28.7417C117.403 28.2709 117.744 27.601 117.801 26.8788C117.859 26.1566 117.627 25.4412 117.158 24.8894C116.688 24.3376 116.019 23.9946 115.297 23.9355C114.575 23.8764 113.859 24.1061 113.306 24.5742L109.103 27.1783C108.983 27.2529 108.88 27.3526 108.802 27.4705C108.724 27.5884 108.672 27.7219 108.649 27.8617C108.627 28.0015 108.636 28.1445 108.674 28.2808C108.712 28.4171 108.779 28.5437 108.87 28.6518L108.87 28.6518Z" fill="#6C63FF"/>
<path d="M120.968 84.3395H118.688L117.603 75.5442H120.968L120.968 84.3395Z" fill="#FFB6B6"/>
<path d="M121.55 83.5949L117.059 83.5948H117.059C116.3 83.5948 115.572 83.8963 115.035 84.433C114.499 84.9697 114.197 85.6975 114.197 86.4565V86.5495L121.55 86.5498L121.55 83.5949Z" fill="#2F2E41"/>
<path d="M121.482 59.8467L120.834 62.0326L112.093 60.572L113.05 57.3456L121.482 59.8467Z" fill="#FFB6B6"/>
<path d="M120.933 59.0772L119.656 63.3825L119.656 63.3827C119.44 64.1104 119.523 64.8939 119.885 65.561C120.246 66.2282 120.859 66.7242 121.586 66.94L121.675 66.9665L123.766 59.9175L120.933 59.0772Z" fill="#2F2E41"/>
<path d="M97.9248 55.3487C98.254 55.8972 98.7185 56.352 99.274 56.6692C99.8295 56.9865 100.457 57.1557 101.097 57.1605L114.802 61.5479L115.428 57.9134L107.13 53.4107L115.17 47.6201L109.279 40.7271L98.5805 50.6989C97.9553 51.2817 97.5491 52.0614 97.4297 52.9078C97.3104 53.7541 97.4852 54.6158 97.9248 55.3487Z" fill="#5282ED"/>
<path d="M117.801 80.2048H121.185C124.223 59.3792 127.316 38.4955 118.177 30.7005L107.399 32.4552L108.778 41.6041L114.793 48.497L117.801 80.2048Z" fill="#8AB9FF"/>
<path d="M108.058 36.2285C112.62 39.337 118.513 38.6061 120.972 33.9742C117.438 28.0224 116.694 23.7445 119.539 21.7916C119.995 20.166 119.825 18.4287 119.062 16.9224C118.3 15.4162 117 14.2506 115.42 13.6558L110.031 15.9117C105.456 19.6417 104.555 23.6818 106.271 27.9431L108.058 36.2285Z" fill="#E4F2F2"/>
<path d="M124.898 39.9012C124.613 39.8351 124.346 39.7074 124.117 39.5272C123.887 39.3469 123.699 39.1185 123.567 38.8579C123.435 38.5973 123.362 38.311 123.352 38.019C123.343 37.7271 123.398 37.4366 123.513 37.1681L116.147 20.5268L120.361 19.4655L126.276 36.1571C126.714 36.3802 127.056 36.7564 127.235 37.2143C127.414 37.6721 127.42 38.1799 127.25 38.6414C127.08 39.103 126.747 39.4861 126.313 39.7183C125.879 39.9505 125.376 40.0155 124.898 39.9012V39.9012Z" fill="#FFB6B6"/>
<path d="M117.145 23.5031L121.243 21.5848C121.359 21.5303 121.463 21.4512 121.546 21.353C121.629 21.2548 121.69 21.1399 121.725 21.0159C121.76 20.892 121.768 20.762 121.748 20.6348C121.728 20.5076 121.681 20.3862 121.61 20.2789L119.119 16.5175C118.836 15.923 118.329 15.4648 117.709 15.2433C117.089 15.0219 116.407 15.0553 115.811 15.3362C115.216 15.6171 114.756 16.1225 114.532 16.7419C114.309 17.3612 114.34 18.0439 114.619 18.6404L115.907 22.9485C115.943 23.0719 116.006 23.1858 116.091 23.2826C116.176 23.3794 116.281 23.4567 116.399 23.5093C116.516 23.5619 116.644 23.5886 116.772 23.5876C116.901 23.5865 117.028 23.5577 117.145 23.5031H117.145Z" fill="#E4F2F2"/>
<path d="M108.054 12.4305H118.842C119.064 12.4303 119.276 12.342 119.433 12.1851C119.59 12.0282 119.678 11.8155 119.679 11.5936V6.9437C119.679 5.29119 119.022 3.70636 117.854 2.53785C116.685 1.36935 115.1 0.712891 113.448 0.712891C111.795 0.712891 110.211 1.36935 109.042 2.53785C107.874 3.70636 107.217 5.29119 107.217 6.9437V11.5936C107.217 11.8155 107.306 12.0282 107.463 12.1851C107.619 12.342 107.832 12.4303 108.054 12.4305Z" fill="#2F2E41"/>
<path d="M111.91 12.3599C109.387 12.3599 107.342 10.3147 107.342 7.7917C107.342 5.26874 109.387 3.22348 111.91 3.22348C114.433 3.22348 116.479 5.26874 116.479 7.7917C116.479 10.3147 114.433 12.3599 111.91 12.3599Z" fill="#FFB6B6"/>
<path d="M105.743 7.40869H112.339L112.407 6.46165L112.745 7.40869H113.761L113.895 5.53167L114.565 7.40869H116.531V7.31569C116.529 6.00894 116.01 4.75612 115.086 3.8321C114.162 2.90808 112.909 2.38832 111.602 2.38684H110.672C109.365 2.38832 108.112 2.90808 107.188 3.8321C106.264 4.75612 105.745 6.00893 105.743 7.31569V7.40869Z" fill="#2F2E41"/>
<path d="M17.0045 35.2125C16.9591 35.2125 16.9204 35.1989 16.8886 35.1716C16.8613 35.1398 16.8477 35.1011 16.8477 35.0557V30.6027C16.8477 30.5527 16.8613 30.514 16.8886 30.4868C16.9204 30.4549 16.9591 30.439 17.0045 30.439H17.3455C17.4 30.439 17.4409 30.4527 17.4682 30.48C17.4955 30.5072 17.5114 30.53 17.516 30.5481L18.9616 33.3031L20.4141 30.5481C20.4232 30.53 20.4392 30.5072 20.4619 30.48C20.4892 30.4527 20.5301 30.439 20.5846 30.439H20.9188C20.9688 30.439 21.0074 30.4549 21.0347 30.4868C21.0665 30.514 21.0824 30.5527 21.0824 30.6027V35.0557C21.0824 35.1011 21.0665 35.1398 21.0347 35.1716C21.0074 35.1989 20.9688 35.2125 20.9188 35.2125H20.5846C20.5392 35.2125 20.5005 35.1989 20.4687 35.1716C20.4414 35.1398 20.4278 35.1011 20.4278 35.0557V31.7006L19.289 33.9237C19.2708 33.9691 19.2435 34.0055 19.2071 34.0328C19.1708 34.0555 19.1253 34.0669 19.0708 34.0669H18.8594C18.8003 34.0669 18.7525 34.0555 18.7162 34.0328C18.6843 34.0055 18.6571 33.9691 18.6343 33.9237L17.4955 31.7006V35.0557C17.4955 35.1011 17.4796 35.1398 17.4478 35.1716C17.4205 35.1989 17.3841 35.2125 17.3387 35.2125H17.0045ZM22.9983 35.2807C22.771 35.2807 22.5641 35.2353 22.3777 35.1443C22.1913 35.0534 22.0413 34.9307 21.9277 34.7761C21.814 34.6215 21.7572 34.4465 21.7572 34.251C21.7572 33.9373 21.8845 33.6873 22.1391 33.5009C22.3936 33.3145 22.7255 33.1917 23.1347 33.1326L24.1507 32.9894V32.7917C24.1507 32.5735 24.0871 32.403 23.9598 32.2802C23.8371 32.1575 23.6347 32.0961 23.3529 32.0961C23.1483 32.0961 22.9824 32.137 22.8551 32.2189C22.7323 32.3007 22.646 32.4053 22.5959 32.5326C22.5687 32.6007 22.5209 32.6348 22.4527 32.6348H22.1459C22.0959 32.6348 22.0572 32.6212 22.0299 32.5939C22.0072 32.5621 21.9958 32.5257 21.9958 32.4848C21.9958 32.4166 22.0209 32.3325 22.0709 32.2325C22.1254 32.1325 22.2072 32.0347 22.3164 31.9393C22.4255 31.8438 22.5641 31.7642 22.7323 31.7006C22.9051 31.6324 23.1142 31.5983 23.3597 31.5983C23.6325 31.5983 23.8621 31.6347 24.0484 31.7074C24.2348 31.7756 24.3803 31.8688 24.4849 31.987C24.594 32.1052 24.6713 32.2393 24.7167 32.3893C24.7667 32.5394 24.7917 32.6917 24.7917 32.8462V35.0557C24.7917 35.1011 24.7758 35.1398 24.744 35.1716C24.7167 35.1989 24.6804 35.2125 24.6349 35.2125H24.3212C24.2712 35.2125 24.2326 35.1989 24.2053 35.1716C24.178 35.1398 24.1644 35.1011 24.1644 35.0557V34.7625C24.1053 34.8443 24.0257 34.9261 23.9257 35.0079C23.8257 35.0852 23.7007 35.1512 23.5506 35.2057C23.4006 35.2557 23.2165 35.2807 22.9983 35.2807ZM23.1415 34.7693C23.3279 34.7693 23.4984 34.7306 23.6529 34.6533C23.8075 34.5715 23.928 34.4465 24.0144 34.2783C24.1053 34.1101 24.1507 33.8987 24.1507 33.6441V33.4532L23.3597 33.5691C23.0369 33.6145 22.7937 33.6918 22.63 33.8009C22.4664 33.9055 22.3845 34.0396 22.3845 34.2033C22.3845 34.3306 22.4209 34.4374 22.4937 34.5238C22.5709 34.6056 22.6664 34.667 22.7801 34.7079C22.8983 34.7488 23.0187 34.7693 23.1415 34.7693ZM25.7653 35.2125C25.7198 35.2125 25.6811 35.1989 25.6493 35.1716C25.622 35.1398 25.6084 35.1011 25.6084 35.0557V31.8302C25.6084 31.7847 25.622 31.7461 25.6493 31.7142C25.6811 31.6824 25.7198 31.6665 25.7653 31.6665H26.0789C26.1244 31.6665 26.163 31.6824 26.1949 31.7142C26.2267 31.7461 26.2426 31.7847 26.2426 31.8302V32.1302C26.3335 31.9756 26.4585 31.8597 26.6177 31.7824C26.7768 31.7051 26.9677 31.6665 27.1905 31.6665H27.4633C27.5087 31.6665 27.5451 31.6824 27.5724 31.7142C27.5996 31.7415 27.6133 31.7779 27.6133 31.8233V32.1029C27.6133 32.1484 27.5996 32.1848 27.5724 32.212C27.5451 32.2393 27.5087 32.253 27.4633 32.253H27.0541C26.8086 32.253 26.6154 32.3257 26.4745 32.4712C26.3335 32.6121 26.2631 32.8053 26.2631 33.0508V35.0557C26.2631 35.1011 26.2471 35.1398 26.2153 35.1716C26.1835 35.1989 26.1449 35.2125 26.0994 35.2125H25.7653ZM29.4145 36.7128C29.1054 36.7128 28.8508 36.6718 28.6508 36.59C28.4553 36.5082 28.3007 36.4082 28.1871 36.29C28.0779 36.1763 27.9984 36.0604 27.9484 35.9422C27.9029 35.8285 27.8779 35.7376 27.8734 35.6694C27.8688 35.624 27.8825 35.5853 27.9143 35.5535C27.9507 35.5217 27.9893 35.5058 28.0302 35.5058H28.3575C28.3985 35.5058 28.4325 35.5148 28.4598 35.533C28.4871 35.5512 28.5098 35.5899 28.528 35.649C28.5553 35.7172 28.5962 35.7922 28.6508 35.874C28.7053 35.9604 28.7894 36.0331 28.9031 36.0922C29.0167 36.1559 29.1758 36.1877 29.3804 36.1877C29.5941 36.1877 29.7737 36.1581 29.9191 36.099C30.0646 36.0445 30.1737 35.9445 30.2465 35.799C30.3238 35.6581 30.3624 35.4626 30.3624 35.2125V34.7488C30.2533 34.8897 30.1101 35.0079 29.9328 35.1034C29.7555 35.1943 29.5327 35.2398 29.2645 35.2398C29.0099 35.2398 28.7917 35.1966 28.6098 35.1102C28.428 35.0193 28.278 34.8988 28.1598 34.7488C28.0461 34.5942 27.9597 34.4192 27.9006 34.2237C27.8461 34.0282 27.8143 33.8237 27.8052 33.61C27.8006 33.4827 27.8006 33.3577 27.8052 33.2349C27.8143 33.0213 27.8461 32.8167 27.9006 32.6212C27.9597 32.4257 28.0461 32.2507 28.1598 32.0961C28.278 31.9415 28.428 31.8211 28.6098 31.7347C28.7917 31.6438 29.0099 31.5983 29.2645 31.5983C29.5373 31.5983 29.7623 31.6506 29.9396 31.7552C30.1215 31.8552 30.2692 31.9779 30.3829 32.1234V31.8302C30.3829 31.7847 30.3965 31.7461 30.4238 31.7142C30.4556 31.6824 30.4942 31.6665 30.5397 31.6665H30.8534C30.8988 31.6665 30.9375 31.6824 30.9693 31.7142C31.0011 31.7461 31.0171 31.7847 31.0171 31.8302V35.1375C31.0171 35.4421 30.9648 35.7126 30.8602 35.949C30.7602 36.1854 30.592 36.3718 30.3556 36.5082C30.1237 36.6446 29.81 36.7128 29.4145 36.7128ZM29.4009 34.6943C29.6282 34.6943 29.81 34.642 29.9464 34.5374C30.0874 34.4329 30.1896 34.301 30.2533 34.1419C30.3215 33.9828 30.3579 33.8214 30.3624 33.6577C30.3669 33.5941 30.3692 33.5168 30.3692 33.4259C30.3692 33.3304 30.3669 33.2508 30.3624 33.1872C30.3579 33.0235 30.3215 32.8621 30.2533 32.703C30.1896 32.5439 30.0874 32.4121 29.9464 32.3075C29.81 32.203 29.6282 32.1507 29.4009 32.1507C29.1736 32.1507 28.9917 32.203 28.8553 32.3075C28.719 32.4075 28.6212 32.5416 28.5621 32.7099C28.503 32.8735 28.4689 33.0508 28.4598 33.2418C28.4553 33.36 28.4553 33.4804 28.4598 33.6032C28.4689 33.7941 28.503 33.9737 28.5621 34.1419C28.6212 34.3056 28.719 34.4397 28.8553 34.5442C28.9917 34.6443 29.1736 34.6943 29.4009 34.6943ZM32.0241 35.2125C31.9787 35.2125 31.94 35.1989 31.9082 35.1716C31.8809 35.1398 31.8673 35.1011 31.8673 35.0557V31.8233C31.8673 31.7779 31.8809 31.7415 31.9082 31.7142C31.94 31.6824 31.9787 31.6665 32.0241 31.6665H32.3514C32.3969 31.6665 32.4333 31.6824 32.4606 31.7142C32.4878 31.7415 32.5015 31.7779 32.5015 31.8233V35.0557C32.5015 35.1011 32.4878 35.1398 32.4606 35.1716C32.4333 35.1989 32.3969 35.2125 32.3514 35.2125H32.0241ZM31.9696 31.005C31.9241 31.005 31.8855 30.9914 31.8536 30.9641C31.8264 30.9323 31.8127 30.8937 31.8127 30.8482V30.48C31.8127 30.4345 31.8264 30.3981 31.8536 30.3708C31.8855 30.339 31.9241 30.3231 31.9696 30.3231H32.3992C32.4446 30.3231 32.481 30.339 32.5083 30.3708C32.5401 30.3981 32.556 30.4345 32.556 30.48V30.8482C32.556 30.8937 32.5401 30.9323 32.5083 30.9641C32.481 30.9914 32.4446 31.005 32.3992 31.005H31.9696ZM33.5786 35.2125C33.5331 35.2125 33.4945 35.1989 33.4627 35.1716C33.4354 35.1398 33.4217 35.1011 33.4217 35.0557V31.8233C33.4217 31.7779 33.4354 31.7415 33.4627 31.7142C33.4945 31.6824 33.5331 31.6665 33.5786 31.6665H33.8991C33.9446 31.6665 33.9809 31.6824 34.0082 31.7142C34.04 31.7415 34.0559 31.7779 34.0559 31.8233V32.1234C34.1741 31.9688 34.3219 31.8438 34.4992 31.7483C34.681 31.6483 34.9129 31.5983 35.1948 31.5983C35.4903 31.5983 35.7403 31.6642 35.9449 31.7961C36.154 31.9234 36.3108 32.1029 36.4154 32.3348C36.52 32.5621 36.5723 32.8281 36.5723 33.1326V35.0557C36.5723 35.1011 36.5586 35.1398 36.5313 35.1716C36.5041 35.1989 36.4677 35.2125 36.4222 35.2125H36.0813C36.0358 35.2125 35.9972 35.1989 35.9653 35.1716C35.9381 35.1398 35.9244 35.1011 35.9244 35.0557V33.1667C35.9244 32.8485 35.8471 32.6007 35.6926 32.4234C35.538 32.2416 35.3107 32.1507 35.0106 32.1507C34.7288 32.1507 34.5015 32.2416 34.3287 32.4234C34.1605 32.6007 34.0764 32.8485 34.0764 33.1667V35.0557C34.0764 35.1011 34.0605 35.1398 34.0287 35.1716C34.0014 35.1989 33.965 35.2125 33.9196 35.2125H33.5786ZM39.147 35.2125C39.0969 35.2125 39.0583 35.1989 39.031 35.1716C39.0037 35.1398 38.9901 35.1011 38.9901 35.0557V30.5959C38.9901 30.5504 39.0037 30.514 39.031 30.4868C39.0583 30.4549 39.0969 30.439 39.147 30.439H39.5084C39.5538 30.439 39.5902 30.4549 39.6175 30.4868C39.6493 30.514 39.6652 30.5504 39.6652 30.5959V35.0557C39.6652 35.1011 39.6493 35.1398 39.6175 35.1716C39.5902 35.1989 39.5538 35.2125 39.5084 35.2125H39.147ZM40.7593 35.2125C40.7138 35.2125 40.6752 35.1989 40.6434 35.1716C40.6161 35.1398 40.6024 35.1011 40.6024 35.0557V31.8233C40.6024 31.7779 40.6161 31.7415 40.6434 31.7142C40.6752 31.6824 40.7138 31.6665 40.7593 31.6665H41.0798C41.1253 31.6665 41.1616 31.6824 41.1889 31.7142C41.2207 31.7415 41.2366 31.7779 41.2366 31.8233V32.1234C41.3548 31.9688 41.5026 31.8438 41.6799 31.7483C41.8617 31.6483 42.0936 31.5983 42.3755 31.5983C42.671 31.5983 42.921 31.6642 43.1256 31.7961C43.3347 31.9234 43.4915 32.1029 43.5961 32.3348C43.7007 32.5621 43.7529 32.8281 43.7529 33.1326V35.0557C43.7529 35.1011 43.7393 35.1398 43.712 35.1716C43.6848 35.1989 43.6484 35.2125 43.6029 35.2125H43.262C43.2165 35.2125 43.1779 35.1989 43.146 35.1716C43.1188 35.1398 43.1051 35.1011 43.1051 35.0557V33.1667C43.1051 32.8485 43.0278 32.6007 42.8733 32.4234C42.7187 32.2416 42.4914 32.1507 42.1913 32.1507C41.9095 32.1507 41.6822 32.2416 41.5094 32.4234C41.3412 32.6007 41.2571 32.8485 41.2571 33.1667V35.0557C41.2571 35.1011 41.2412 35.1398 41.2094 35.1716C41.1821 35.1989 41.1457 35.2125 41.1002 35.2125H40.7593ZM46.0063 35.2807C45.6836 35.2807 45.404 35.2193 45.1676 35.0966C44.9357 34.9693 44.7561 34.7897 44.6288 34.5579C44.5016 34.3215 44.4334 34.0396 44.4243 33.7123C44.4197 33.6441 44.4174 33.5532 44.4174 33.4395C44.4174 33.3259 44.4197 33.2349 44.4243 33.1667C44.4334 32.8394 44.5016 32.5598 44.6288 32.328C44.7561 32.0916 44.9357 31.912 45.1676 31.7893C45.404 31.662 45.6836 31.5983 46.0063 31.5983C46.27 31.5983 46.4951 31.6347 46.6814 31.7074C46.8724 31.7802 47.0292 31.8734 47.152 31.987C47.2747 32.1007 47.3656 32.2234 47.4247 32.3552C47.4884 32.4871 47.5225 32.6121 47.527 32.7303C47.5316 32.7758 47.5179 32.8121 47.4861 32.8394C47.4543 32.8667 47.4157 32.8803 47.3702 32.8803H47.0429C46.9974 32.8803 46.9633 32.8712 46.9406 32.8531C46.9178 32.8303 46.8951 32.794 46.8724 32.7439C46.7906 32.5212 46.6792 32.3643 46.5382 32.2734C46.3973 32.1825 46.2223 32.137 46.0132 32.137C45.7404 32.137 45.5176 32.2211 45.3449 32.3893C45.1767 32.5576 45.0857 32.8281 45.0721 33.2008C45.0676 33.3645 45.0676 33.5236 45.0721 33.6782C45.0857 34.0555 45.1767 34.3283 45.3449 34.4965C45.5176 34.6602 45.7404 34.742 46.0132 34.742C46.2223 34.742 46.3973 34.6965 46.5382 34.6056C46.6792 34.5147 46.7906 34.3578 46.8724 34.1351C46.8951 34.0851 46.9178 34.051 46.9406 34.0328C46.9633 34.0101 46.9974 33.9987 47.0429 33.9987H47.3702C47.4157 33.9987 47.4543 34.0123 47.4861 34.0396C47.5179 34.0669 47.5316 34.1033 47.527 34.1487C47.5225 34.2442 47.502 34.3419 47.4657 34.4419C47.4293 34.542 47.3702 34.6443 47.2884 34.7488C47.2111 34.8488 47.1133 34.9398 46.9951 35.0216C46.8769 35.0989 46.7337 35.1625 46.5655 35.2125C46.4019 35.258 46.2155 35.2807 46.0063 35.2807ZM48.3301 35.2125C48.2846 35.2125 48.246 35.1989 48.2141 35.1716C48.1869 35.1398 48.1732 35.1011 48.1732 35.0557V31.8302C48.1732 31.7847 48.1869 31.7461 48.2141 31.7142C48.246 31.6824 48.2846 31.6665 48.3301 31.6665H48.6437C48.6892 31.6665 48.7279 31.6824 48.7597 31.7142C48.7915 31.7461 48.8074 31.7847 48.8074 31.8302V32.1302C48.8983 31.9756 49.0234 31.8597 49.1825 31.7824C49.3416 31.7051 49.5325 31.6665 49.7553 31.6665H50.0281C50.0735 31.6665 50.1099 31.6824 50.1372 31.7142C50.1644 31.7415 50.1781 31.7779 50.1781 31.8233V32.1029C50.1781 32.1484 50.1644 32.1848 50.1372 32.212C50.1099 32.2393 50.0735 32.253 50.0281 32.253H49.6189C49.3734 32.253 49.1802 32.3257 49.0393 32.4712C48.8983 32.6121 48.8279 32.8053 48.8279 33.0508V35.0557C48.8279 35.1011 48.812 35.1398 48.7801 35.1716C48.7483 35.1989 48.7097 35.2125 48.6642 35.2125H48.3301ZM51.9451 35.2807C51.4768 35.2807 51.104 35.1375 50.8267 34.8511C50.5494 34.5601 50.3971 34.1646 50.3698 33.6645C50.3653 33.6054 50.363 33.5304 50.363 33.4395C50.363 33.344 50.3653 33.2668 50.3698 33.2077C50.388 32.8849 50.463 32.603 50.5949 32.3621C50.7267 32.1166 50.9063 31.9279 51.1336 31.7961C51.3654 31.6642 51.6359 31.5983 51.9451 31.5983C52.2906 31.5983 52.5793 31.671 52.8111 31.8165C53.0475 31.962 53.2271 32.1689 53.3498 32.4371C53.4726 32.7053 53.534 33.019 53.534 33.3781V33.4941C53.534 33.5441 53.5181 33.5827 53.4862 33.61C53.459 33.6373 53.4226 33.6509 53.3771 33.6509H51.0177C51.0177 33.6555 51.0177 33.6645 51.0177 33.6782C51.0177 33.6918 51.0177 33.7032 51.0177 33.7123C51.0267 33.8987 51.0677 34.0737 51.1404 34.2374C51.2131 34.3965 51.3177 34.5261 51.4541 34.6261C51.5905 34.7261 51.7541 34.7761 51.9451 34.7761C52.1087 34.7761 52.2451 34.7511 52.3542 34.7011C52.4633 34.6511 52.552 34.5965 52.6202 34.5374C52.6884 34.4738 52.7338 34.426 52.7566 34.3942C52.7975 34.3351 52.8293 34.301 52.852 34.2919C52.8748 34.2783 52.9111 34.2715 52.9611 34.2715H53.2885C53.3339 34.2715 53.3703 34.2851 53.3976 34.3124C53.4294 34.3351 53.443 34.3692 53.4385 34.4147C53.4339 34.4829 53.3976 34.567 53.3294 34.667C53.2612 34.7625 53.1634 34.8579 53.0362 34.9534C52.9089 35.0489 52.7543 35.1284 52.5724 35.1921C52.3906 35.2512 52.1815 35.2807 51.9451 35.2807ZM51.0177 33.1804H52.8861V33.1599C52.8861 32.9553 52.8475 32.7735 52.7702 32.6144C52.6975 32.4553 52.5906 32.3302 52.4497 32.2393C52.3088 32.1439 52.1406 32.0961 51.9451 32.0961C51.7496 32.0961 51.5814 32.1439 51.4404 32.2393C51.3041 32.3302 51.1995 32.4553 51.1268 32.6144C51.054 32.7735 51.0177 32.9553 51.0177 33.1599V33.1804ZM55.1745 35.2807C54.9472 35.2807 54.7403 35.2353 54.5539 35.1443C54.3675 35.0534 54.2175 34.9307 54.1039 34.7761C53.9902 34.6215 53.9334 34.4465 53.9334 34.251C53.9334 33.9373 54.0607 33.6873 54.3152 33.5009C54.5698 33.3145 54.9017 33.1917 55.3109 33.1326L56.3269 32.9894V32.7917C56.3269 32.5735 56.2633 32.403 56.136 32.2802C56.0132 32.1575 55.8109 32.0961 55.5291 32.0961C55.3245 32.0961 55.1586 32.137 55.0313 32.2189C54.9085 32.3007 54.8221 32.4053 54.7721 32.5326C54.7449 32.6007 54.6971 32.6348 54.6289 32.6348H54.3221C54.2721 32.6348 54.2334 32.6212 54.2061 32.5939C54.1834 32.5621 54.172 32.5257 54.172 32.4848C54.172 32.4166 54.197 32.3325 54.2471 32.2325C54.3016 32.1325 54.3834 32.0347 54.4926 31.9393C54.6017 31.8438 54.7403 31.7642 54.9085 31.7006C55.0813 31.6324 55.2904 31.5983 55.5359 31.5983C55.8087 31.5983 56.0383 31.6347 56.2246 31.7074C56.411 31.7756 56.5565 31.8688 56.6611 31.987C56.7702 32.1052 56.8475 32.2393 56.8929 32.3893C56.9429 32.5394 56.9679 32.6917 56.9679 32.8462V35.0557C56.9679 35.1011 56.952 35.1398 56.9202 35.1716C56.8929 35.1989 56.8566 35.2125 56.8111 35.2125H56.4974C56.4474 35.2125 56.4088 35.1989 56.3815 35.1716C56.3542 35.1398 56.3406 35.1011 56.3406 35.0557V34.7625C56.2815 34.8443 56.2019 34.9261 56.1019 35.0079C56.0019 35.0852 55.8769 35.1512 55.7268 35.2057C55.5768 35.2557 55.3927 35.2807 55.1745 35.2807ZM55.3177 34.7693C55.5041 34.7693 55.6746 34.7306 55.8291 34.6533C55.9837 34.5715 56.1042 34.4465 56.1905 34.2783C56.2815 34.1101 56.3269 33.8987 56.3269 33.6441V33.4532L55.5359 33.5691C55.2131 33.6145 54.9699 33.6918 54.8062 33.8009C54.6426 33.9055 54.5607 34.0396 54.5607 34.2033C54.5607 34.3306 54.5971 34.4374 54.6699 34.5238C54.7471 34.6056 54.8426 34.667 54.9563 34.7079C55.0745 34.7488 55.1949 34.7693 55.3177 34.7693ZM59.0121 35.2807C58.7575 35.2807 58.5393 35.2489 58.3574 35.1852C58.1756 35.1216 58.0278 35.0443 57.9142 34.9534C57.8005 34.8625 57.7141 34.7715 57.655 34.6806C57.6005 34.5897 57.5709 34.517 57.5664 34.4624C57.5618 34.4124 57.5778 34.3738 57.6141 34.3465C57.6505 34.3192 57.6869 34.3056 57.7232 34.3056H58.0233C58.0506 34.3056 58.071 34.3101 58.0847 34.3192C58.1028 34.3237 58.1256 34.3419 58.1528 34.3738C58.2119 34.4374 58.2779 34.501 58.3506 34.5647C58.4233 34.6283 58.512 34.6806 58.6166 34.7215C58.7257 34.7625 58.8598 34.7829 59.0189 34.7829C59.2507 34.7829 59.4417 34.7397 59.5917 34.6533C59.7417 34.5624 59.8167 34.4306 59.8167 34.2578C59.8167 34.1442 59.7849 34.0532 59.7213 33.9851C59.6622 33.9169 59.5531 33.8555 59.394 33.8009C59.2394 33.7464 59.0257 33.6896 58.7529 33.6305C58.4802 33.5668 58.2642 33.4895 58.1051 33.3986C57.946 33.3031 57.8323 33.1917 57.7641 33.0645C57.696 32.9326 57.6619 32.7849 57.6619 32.6212C57.6619 32.453 57.7119 32.2916 57.8119 32.137C57.9119 31.9779 58.0574 31.8484 58.2483 31.7483C58.4438 31.6483 58.687 31.5983 58.978 31.5983C59.2144 31.5983 59.4167 31.6279 59.5849 31.687C59.7531 31.7461 59.8918 31.8211 60.0009 31.912C60.11 31.9984 60.1918 32.0848 60.2464 32.1711C60.3009 32.2575 60.3305 32.3302 60.335 32.3893C60.3396 32.4348 60.3259 32.4735 60.2941 32.5053C60.2623 32.5326 60.2259 32.5462 60.185 32.5462H59.8986C59.8668 32.5462 59.8395 32.5394 59.8167 32.5257C59.7986 32.5121 59.7804 32.4962 59.7622 32.478C59.7167 32.4189 59.6622 32.3598 59.5985 32.3007C59.5394 32.2416 59.4599 32.1939 59.3599 32.1575C59.2644 32.1166 59.1371 32.0961 58.978 32.0961C58.7507 32.0961 58.5802 32.1439 58.4665 32.2393C58.3529 32.3348 58.2961 32.4553 58.2961 32.6007C58.2961 32.6871 58.3211 32.7644 58.3711 32.8326C58.4211 32.9008 58.5165 32.9622 58.6575 33.0167C58.7984 33.0713 59.0075 33.1304 59.2848 33.194C59.5849 33.2531 59.8213 33.3327 59.994 33.4327C60.1668 33.5327 60.2896 33.6486 60.3623 33.7805C60.435 33.9123 60.4714 34.0646 60.4714 34.2374C60.4714 34.4283 60.4146 34.6033 60.3009 34.7625C60.1918 34.9216 60.0281 35.0489 59.8099 35.1443C59.5963 35.2353 59.3303 35.2807 59.0121 35.2807ZM62.5088 35.2807C62.0405 35.2807 61.6677 35.1375 61.3904 34.8511C61.1131 34.5601 60.9608 34.1646 60.9335 33.6645C60.929 33.6054 60.9267 33.5304 60.9267 33.4395C60.9267 33.344 60.929 33.2668 60.9335 33.2077C60.9517 32.8849 61.0267 32.603 61.1585 32.3621C61.2904 32.1166 61.47 31.9279 61.6973 31.7961C61.9291 31.6642 62.1996 31.5983 62.5088 31.5983C62.8543 31.5983 63.143 31.671 63.3748 31.8165C63.6112 31.962 63.7908 32.1689 63.9135 32.4371C64.0363 32.7053 64.0976 33.019 64.0976 33.3781V33.4941C64.0976 33.5441 64.0817 33.5827 64.0499 33.61C64.0226 33.6373 63.9863 33.6509 63.9408 33.6509H61.5813C61.5813 33.6555 61.5813 33.6645 61.5813 33.6782C61.5813 33.6918 61.5813 33.7032 61.5813 33.7123C61.5904 33.8987 61.6313 34.0737 61.7041 34.2374C61.7768 34.3965 61.8814 34.5261 62.0178 34.6261C62.1542 34.7261 62.3178 34.7761 62.5088 34.7761C62.6724 34.7761 62.8088 34.7511 62.9179 34.7011C63.027 34.6511 63.1157 34.5965 63.1839 34.5374C63.2521 34.4738 63.2975 34.426 63.3203 34.3942C63.3612 34.3351 63.393 34.301 63.4157 34.2919C63.4385 34.2783 63.4748 34.2715 63.5248 34.2715H63.8522C63.8976 34.2715 63.934 34.2851 63.9613 34.3124C63.9931 34.3351 64.0067 34.3692 64.0022 34.4147C63.9976 34.4829 63.9613 34.567 63.8931 34.667C63.8249 34.7625 63.7271 34.8579 63.5998 34.9534C63.4725 35.0489 63.318 35.1284 63.1361 35.1921C62.9543 35.2512 62.7452 35.2807 62.5088 35.2807ZM61.5813 33.1804H63.4498V33.1599C63.4498 32.9553 63.4112 32.7735 63.3339 32.6144C63.2612 32.4553 63.1543 32.3302 63.0134 32.2393C62.8725 32.1439 62.7042 32.0961 62.5088 32.0961C62.3133 32.0961 62.1451 32.1439 62.0041 32.2393C61.8677 32.3302 61.7632 32.4553 61.6904 32.6144C61.6177 32.7735 61.5813 32.9553 61.5813 33.1599V33.1804ZM66.045 35.2807C65.795 35.2807 65.579 35.2375 65.3972 35.1512C65.2154 35.0602 65.0653 34.9398 64.9471 34.7897C64.8335 34.6352 64.7471 34.4601 64.688 34.2646C64.6334 34.0692 64.6016 33.8623 64.5925 33.6441C64.588 33.5714 64.5857 33.5032 64.5857 33.4395C64.5857 33.3759 64.588 33.3077 64.5925 33.2349C64.6016 33.0213 64.6334 32.8167 64.688 32.6212C64.7471 32.4257 64.8335 32.2507 64.9471 32.0961C65.0653 31.9415 65.2154 31.8211 65.3972 31.7347C65.579 31.6438 65.795 31.5983 66.045 31.5983C66.3133 31.5983 66.536 31.646 66.7133 31.7415C66.8906 31.837 67.0361 31.9552 67.1498 32.0961V30.5277C67.1498 30.4822 67.1634 30.4459 67.1907 30.4186C67.2225 30.3868 67.2611 30.3708 67.3066 30.3708H67.6339C67.6794 30.3708 67.7158 30.3868 67.743 30.4186C67.7749 30.4459 67.7908 30.4822 67.7908 30.5277V35.0557C67.7908 35.1011 67.7749 35.1398 67.743 35.1716C67.7158 35.1989 67.6794 35.2125 67.6339 35.2125H67.3271C67.277 35.2125 67.2384 35.1989 67.2111 35.1716C67.1838 35.1398 67.1702 35.1011 67.1702 35.0557V34.7693C67.0566 34.9147 66.9088 35.0375 66.727 35.1375C66.5451 35.233 66.3178 35.2807 66.045 35.2807ZM66.1882 34.7284C66.4155 34.7284 66.5974 34.6761 66.7338 34.5715C66.8702 34.467 66.9725 34.3351 67.0406 34.176C67.1088 34.0123 67.1452 33.8464 67.1498 33.6782C67.1543 33.6054 67.1566 33.5191 67.1566 33.4191C67.1566 33.3145 67.1543 33.2258 67.1498 33.1531C67.1452 32.994 67.1066 32.8371 67.0338 32.6826C66.9656 32.528 66.8611 32.4007 66.7201 32.3007C66.5838 32.2007 66.4065 32.1507 66.1882 32.1507C65.9564 32.1507 65.7723 32.203 65.6359 32.3075C65.4995 32.4075 65.4017 32.5416 65.3426 32.7099C65.2835 32.8735 65.2494 33.0508 65.2404 33.2418C65.2358 33.3736 65.2358 33.5054 65.2404 33.6373C65.2494 33.8282 65.2835 34.0078 65.3426 34.176C65.4017 34.3397 65.4995 34.4738 65.6359 34.5783C65.7723 34.6783 65.9564 34.7284 66.1882 34.7284Z" fill="#B6B9BA"/>
<path d="M18.1502 45.8491C18.1047 45.8491 18.066 45.8332 18.0342 45.8014C18.0024 45.7695 17.9865 45.7309 17.9865 45.6854V44.3557H16.6772C16.6317 44.3557 16.5931 44.3398 16.5613 44.3079C16.5294 44.2761 16.5135 44.2375 16.5135 44.192V43.8306C16.5135 43.7806 16.5294 43.7419 16.5613 43.7147C16.5931 43.6828 16.6317 43.6669 16.6772 43.6669H17.9865V42.3713C17.9865 42.3258 18.0024 42.2872 18.0342 42.2553C18.066 42.2235 18.1047 42.2076 18.1502 42.2076H18.5457C18.5957 42.2076 18.6343 42.2235 18.6616 42.2553C18.6934 42.2872 18.7093 42.3258 18.7093 42.3713V43.6669H20.0186C20.0641 43.6669 20.1027 43.6828 20.1346 43.7147C20.1664 43.7419 20.1823 43.7806 20.1823 43.8306V44.192C20.1823 44.2375 20.1664 44.2761 20.1346 44.3079C20.1027 44.3398 20.0641 44.3557 20.0186 44.3557H18.7093V45.6854C18.7093 45.7309 18.6934 45.7695 18.6616 45.8014C18.6343 45.8332 18.5957 45.8491 18.5457 45.8491H18.1502ZM23.5631 46.0741C23.5131 46.0741 23.4722 46.0582 23.4404 46.0264C23.4131 45.9946 23.3994 45.9559 23.3994 45.9105V42.3781L22.3629 43.1759C22.322 43.2032 22.2811 43.2146 22.2402 43.21C22.1993 43.2009 22.1629 43.1759 22.1311 43.135L21.8447 42.7668C21.8174 42.7259 21.806 42.6827 21.8106 42.6372C21.8196 42.5918 21.8447 42.5554 21.8856 42.5281L23.4131 41.3484C23.4404 41.3256 23.4676 41.312 23.4949 41.3075C23.5222 41.3029 23.5517 41.3006 23.5836 41.3006H24.1837C24.2291 41.3006 24.2678 41.3165 24.2996 41.3484C24.3314 41.3802 24.3473 41.4188 24.3473 41.4643V45.9105C24.3473 45.9559 24.3314 45.9946 24.2996 46.0264C24.2678 46.0582 24.2291 46.0741 24.1837 46.0741H23.5631ZM26.9038 46.1423C26.581 46.1423 26.306 46.0946 26.0787 45.9991C25.8514 45.9036 25.665 45.7718 25.5195 45.6036C25.374 45.4354 25.2649 45.2422 25.1922 45.024C25.1194 44.8012 25.0762 44.5648 25.0626 44.3148C25.0581 44.192 25.0535 44.0579 25.049 43.9124C25.049 43.7624 25.049 43.6124 25.049 43.4623C25.0535 43.3123 25.0581 43.1737 25.0626 43.0464C25.0717 42.7963 25.1149 42.5622 25.1922 42.344C25.2695 42.1212 25.3808 41.928 25.5263 41.7643C25.6763 41.6007 25.865 41.4711 26.0923 41.3756C26.3196 41.2802 26.5901 41.2324 26.9038 41.2324C27.222 41.2324 27.4948 41.2802 27.7221 41.3756C27.9494 41.4711 28.1358 41.6007 28.2813 41.7643C28.4313 41.928 28.5427 42.1212 28.6154 42.344C28.6927 42.5622 28.7359 42.7963 28.745 43.0464C28.7541 43.1737 28.7586 43.3123 28.7586 43.4623C28.7586 43.6124 28.7586 43.7624 28.7586 43.9124C28.7586 44.0579 28.7541 44.192 28.745 44.3148C28.7359 44.5648 28.695 44.8012 28.6223 45.024C28.5495 45.2422 28.4404 45.4354 28.2949 45.6036C28.1495 45.7718 27.9608 45.9036 27.7289 45.9991C27.5016 46.0946 27.2266 46.1423 26.9038 46.1423ZM26.9038 45.3581C27.1993 45.3581 27.4152 45.2626 27.5516 45.0717C27.6926 44.8762 27.7653 44.6125 27.7699 44.2807C27.7789 44.1488 27.7835 44.017 27.7835 43.8851C27.7835 43.7488 27.7835 43.6124 27.7835 43.476C27.7835 43.3396 27.7789 43.21 27.7699 43.0873C27.7653 42.7645 27.6926 42.5054 27.5516 42.3099C27.4152 42.1099 27.1993 42.0098 26.9038 42.0098C26.6128 42.0098 26.3969 42.1099 26.256 42.3099C26.1196 42.5054 26.0468 42.7645 26.0378 43.0873C26.0378 43.21 26.0355 43.3396 26.0309 43.476C26.0309 43.6124 26.0309 43.7488 26.0309 43.8851C26.0355 44.017 26.0378 44.1488 26.0378 44.2807C26.0468 44.6125 26.1219 44.8762 26.2628 45.0717C26.4037 45.2626 26.6174 45.3581 26.9038 45.3581ZM29.3211 46.5856C29.2802 46.5856 29.2484 46.5719 29.2257 46.5447C29.2029 46.5174 29.1938 46.4833 29.1984 46.4424L29.3825 45.2831C29.3916 45.224 29.4121 45.174 29.4439 45.1331C29.4802 45.0876 29.5325 45.0649 29.6007 45.0649H30.2281C30.2645 45.0649 30.294 45.0785 30.3167 45.1058C30.3395 45.1285 30.3508 45.1581 30.3508 45.1944C30.3508 45.2263 30.344 45.2558 30.3304 45.2831L29.8939 46.4151C29.8758 46.4606 29.8485 46.4992 29.8121 46.531C29.7803 46.5674 29.7326 46.5856 29.6689 46.5856H29.3211ZM32.7098 46.1423C32.387 46.1423 32.112 46.0946 31.8847 45.9991C31.6574 45.9036 31.471 45.7718 31.3255 45.6036C31.18 45.4354 31.0709 45.2422 30.9982 45.024C30.9255 44.8012 30.8823 44.5648 30.8686 44.3148C30.8641 44.192 30.8595 44.0579 30.855 43.9124C30.855 43.7624 30.855 43.6124 30.855 43.4623C30.8595 43.3123 30.8641 43.1737 30.8686 43.0464C30.8777 42.7963 30.9209 42.5622 30.9982 42.344C31.0755 42.1212 31.1869 41.928 31.3323 41.7643C31.4824 41.6007 31.671 41.4711 31.8983 41.3756C32.1256 41.2802 32.3961 41.2324 32.7098 41.2324C33.0281 41.2324 33.3008 41.2802 33.5281 41.3756C33.7554 41.4711 33.9418 41.6007 34.0873 41.7643C34.2373 41.928 34.3487 42.1212 34.4215 42.344C34.4987 42.5622 34.5419 42.7963 34.551 43.0464C34.5601 43.1737 34.5647 43.3123 34.5647 43.4623C34.5647 43.6124 34.5647 43.7624 34.5647 43.9124C34.5647 44.0579 34.5601 44.192 34.551 44.3148C34.5419 44.5648 34.501 44.8012 34.4283 45.024C34.3555 45.2422 34.2464 45.4354 34.101 45.6036C33.9555 45.7718 33.7668 45.9036 33.535 45.9991C33.3077 46.0946 33.0326 46.1423 32.7098 46.1423ZM32.7098 45.3581C33.0053 45.3581 33.2213 45.2626 33.3577 45.0717C33.4986 44.8762 33.5713 44.6125 33.5759 44.2807C33.585 44.1488 33.5895 44.017 33.5895 43.8851C33.5895 43.7488 33.5895 43.6124 33.5895 43.476C33.5895 43.3396 33.585 43.21 33.5759 43.0873C33.5713 42.7645 33.4986 42.5054 33.3577 42.3099C33.2213 42.1099 33.0053 42.0098 32.7098 42.0098C32.4189 42.0098 32.2029 42.1099 32.062 42.3099C31.9256 42.5054 31.8529 42.7645 31.8438 43.0873C31.8438 43.21 31.8415 43.3396 31.837 43.476C31.837 43.6124 31.837 43.7488 31.837 43.8851C31.8415 44.017 31.8438 44.1488 31.8438 44.2807C31.8529 44.6125 31.9279 44.8762 32.0688 45.0717C32.2097 45.2626 32.4234 45.3581 32.7098 45.3581ZM37.028 46.1423C36.7052 46.1423 36.4301 46.0946 36.2028 45.9991C35.9755 45.9036 35.7891 45.7718 35.6437 45.6036C35.4982 45.4354 35.3891 45.2422 35.3163 45.024C35.2436 44.8012 35.2004 44.5648 35.1868 44.3148C35.1822 44.192 35.1777 44.0579 35.1731 43.9124C35.1731 43.7624 35.1731 43.6124 35.1731 43.4623C35.1777 43.3123 35.1822 43.1737 35.1868 43.0464C35.1959 42.7963 35.239 42.5622 35.3163 42.344C35.3936 42.1212 35.505 41.928 35.6505 41.7643C35.8005 41.6007 35.9892 41.4711 36.2165 41.3756C36.4438 41.2802 36.7143 41.2324 37.028 41.2324C37.3462 41.2324 37.619 41.2802 37.8463 41.3756C38.0736 41.4711 38.26 41.6007 38.4055 41.7643C38.5555 41.928 38.6669 42.1212 38.7396 42.344C38.8169 42.5622 38.8601 42.7963 38.8692 43.0464C38.8783 43.1737 38.8828 43.3123 38.8828 43.4623C38.8828 43.6124 38.8828 43.7624 38.8828 43.9124C38.8828 44.0579 38.8783 44.192 38.8692 44.3148C38.8601 44.5648 38.8192 44.8012 38.7464 45.024C38.6737 45.2422 38.5646 45.4354 38.4191 45.6036C38.2736 45.7718 38.085 45.9036 37.8531 45.9991C37.6258 46.0946 37.3507 46.1423 37.028 46.1423ZM37.028 45.3581C37.3235 45.3581 37.5394 45.2626 37.6758 45.0717C37.8167 44.8762 37.8895 44.6125 37.894 44.2807C37.9031 44.1488 37.9077 44.017 37.9077 43.8851C37.9077 43.7488 37.9077 43.6124 37.9077 43.476C37.9077 43.3396 37.9031 43.21 37.894 43.0873C37.8895 42.7645 37.8167 42.5054 37.6758 42.3099C37.5394 42.1099 37.3235 42.0098 37.028 42.0098C36.737 42.0098 36.5211 42.1099 36.3801 42.3099C36.2438 42.5054 36.171 42.7645 36.1619 43.0873C36.1619 43.21 36.1597 43.3396 36.1551 43.476C36.1551 43.6124 36.1551 43.7488 36.1551 43.8851C36.1597 44.017 36.1619 44.1488 36.1619 44.2807C36.171 44.6125 36.246 44.8762 36.387 45.0717C36.5279 45.2626 36.7416 45.3581 37.028 45.3581ZM41.3461 46.1423C41.0233 46.1423 40.7483 46.0946 40.521 45.9991C40.2937 45.9036 40.1073 45.7718 39.9618 45.6036C39.8163 45.4354 39.7072 45.2422 39.6345 45.024C39.5617 44.8012 39.5185 44.5648 39.5049 44.3148C39.5004 44.192 39.4958 44.0579 39.4913 43.9124C39.4913 43.7624 39.4913 43.6124 39.4913 43.4623C39.4958 43.3123 39.5004 43.1737 39.5049 43.0464C39.514 42.7963 39.5572 42.5622 39.6345 42.344C39.7118 42.1212 39.8231 41.928 39.9686 41.7643C40.1186 41.6007 40.3073 41.4711 40.5346 41.3756C40.7619 41.2802 41.0324 41.2324 41.3461 41.2324C41.6643 41.2324 41.9371 41.2802 42.1644 41.3756C42.3917 41.4711 42.5781 41.6007 42.7236 41.7643C42.8736 41.928 42.985 42.1212 43.0578 42.344C43.135 42.5622 43.1782 42.7963 43.1873 43.0464C43.1964 43.1737 43.201 43.3123 43.201 43.4623C43.201 43.6124 43.201 43.7624 43.201 43.9124C43.201 44.0579 43.1964 44.192 43.1873 44.3148C43.1782 44.5648 43.1373 44.8012 43.0646 45.024C42.9918 45.2422 42.8827 45.4354 42.7372 45.6036C42.5918 45.7718 42.4031 45.9036 42.1712 45.9991C41.9439 46.0946 41.6689 46.1423 41.3461 46.1423ZM41.3461 45.3581C41.6416 45.3581 41.8576 45.2626 41.9939 45.0717C42.1349 44.8762 42.2076 44.6125 42.2122 44.2807C42.2213 44.1488 42.2258 44.017 42.2258 43.8851C42.2258 43.7488 42.2258 43.6124 42.2258 43.476C42.2258 43.3396 42.2213 43.21 42.2122 43.0873C42.2076 42.7645 42.1349 42.5054 41.9939 42.3099C41.8576 42.1099 41.6416 42.0098 41.3461 42.0098C41.0552 42.0098 40.8392 42.1099 40.6983 42.3099C40.5619 42.5054 40.4892 42.7645 40.4801 43.0873C40.4801 43.21 40.4778 43.3396 40.4732 43.476C40.4732 43.6124 40.4732 43.7488 40.4732 43.8851C40.4778 44.017 40.4801 44.1488 40.4801 44.2807C40.4892 44.6125 40.5642 44.8762 40.7051 45.0717C40.846 45.2626 41.0597 45.3581 41.3461 45.3581ZM43.9271 46.0741C43.8816 46.0741 43.843 46.0582 43.8112 46.0264C43.7794 45.9946 43.7634 45.9559 43.7634 45.9105V45.2354C43.7634 45.1853 43.7794 45.1444 43.8112 45.1126C43.843 45.0808 43.8816 45.0649 43.9271 45.0649H44.609C44.6545 45.0649 44.6931 45.0808 44.725 45.1126C44.7568 45.1444 44.7727 45.1853 44.7727 45.2354V45.9105C44.7727 45.9559 44.7568 45.9946 44.725 46.0264C44.6931 46.0582 44.6545 46.0741 44.609 46.0741H43.9271ZM47.1788 46.1423C46.856 46.1423 46.581 46.0946 46.3536 45.9991C46.1263 45.9036 45.9399 45.7718 45.7945 45.6036C45.649 45.4354 45.5399 45.2422 45.4671 45.024C45.3944 44.8012 45.3512 44.5648 45.3376 44.3148C45.333 44.192 45.3285 44.0579 45.3239 43.9124C45.3239 43.7624 45.3239 43.6124 45.3239 43.4623C45.3285 43.3123 45.333 43.1737 45.3376 43.0464C45.3467 42.7963 45.3899 42.5622 45.4671 42.344C45.5444 42.1212 45.6558 41.928 45.8013 41.7643C45.9513 41.6007 46.14 41.4711 46.3673 41.3756C46.5946 41.2802 46.8651 41.2324 47.1788 41.2324C47.497 41.2324 47.7698 41.2802 47.9971 41.3756C48.2244 41.4711 48.4108 41.6007 48.5563 41.7643C48.7063 41.928 48.8177 42.1212 48.8904 42.344C48.9677 42.5622 49.0109 42.7963 49.02 43.0464C49.0291 43.1737 49.0336 43.3123 49.0336 43.4623C49.0336 43.6124 49.0336 43.7624 49.0336 43.9124C49.0336 44.0579 49.0291 44.192 49.02 44.3148C49.0109 44.5648 48.97 44.8012 48.8972 45.024C48.8245 45.2422 48.7154 45.4354 48.5699 45.6036C48.4244 45.7718 48.2358 45.9036 48.0039 45.9991C47.7766 46.0946 47.5016 46.1423 47.1788 46.1423ZM47.1788 45.3581C47.4743 45.3581 47.6902 45.2626 47.8266 45.0717C47.9675 44.8762 48.0403 44.6125 48.0448 44.2807C48.0539 44.1488 48.0585 44.017 48.0585 43.8851C48.0585 43.7488 48.0585 43.6124 48.0585 43.476C48.0585 43.3396 48.0539 43.21 48.0448 43.0873C48.0403 42.7645 47.9675 42.5054 47.8266 42.3099C47.6902 42.1099 47.4743 42.0098 47.1788 42.0098C46.8878 42.0098 46.6719 42.1099 46.5309 42.3099C46.3946 42.5054 46.3218 42.7645 46.3127 43.0873C46.3127 43.21 46.3105 43.3396 46.3059 43.476C46.3059 43.6124 46.3059 43.7488 46.3059 43.8851C46.3105 44.017 46.3127 44.1488 46.3127 44.2807C46.3218 44.6125 46.3968 44.8762 46.5378 45.0717C46.6787 45.2626 46.8924 45.3581 47.1788 45.3581ZM51.4969 46.1423C51.1741 46.1423 50.8991 46.0946 50.6718 45.9991C50.4445 45.9036 50.2581 45.7718 50.1126 45.6036C49.9671 45.4354 49.858 45.2422 49.7853 45.024C49.7125 44.8012 49.6694 44.5648 49.6557 44.3148C49.6512 44.192 49.6466 44.0579 49.6421 43.9124C49.6421 43.7624 49.6421 43.6124 49.6421 43.4623C49.6466 43.3123 49.6512 43.1737 49.6557 43.0464C49.6648 42.7963 49.708 42.5622 49.7853 42.344C49.8626 42.1212 49.9739 41.928 50.1194 41.7643C50.2694 41.6007 50.4581 41.4711 50.6854 41.3756C50.9127 41.2802 51.1832 41.2324 51.4969 41.2324C51.8152 41.2324 52.0879 41.2802 52.3152 41.3756C52.5425 41.4711 52.7289 41.6007 52.8744 41.7643C53.0244 41.928 53.1358 42.1212 53.2086 42.344C53.2858 42.5622 53.329 42.7963 53.3381 43.0464C53.3472 43.1737 53.3518 43.3123 53.3518 43.4623C53.3518 43.6124 53.3518 43.7624 53.3518 43.9124C53.3518 44.0579 53.3472 44.192 53.3381 44.3148C53.329 44.5648 53.2881 44.8012 53.2154 45.024C53.1426 45.2422 53.0335 45.4354 52.888 45.6036C52.7426 45.7718 52.5539 45.9036 52.322 45.9991C52.0947 46.0946 51.8197 46.1423 51.4969 46.1423ZM51.4969 45.3581C51.7924 45.3581 52.0084 45.2626 52.1447 45.0717C52.2857 44.8762 52.3584 44.6125 52.363 44.2807C52.3721 44.1488 52.3766 44.017 52.3766 43.8851C52.3766 43.7488 52.3766 43.6124 52.3766 43.476C52.3766 43.3396 52.3721 43.21 52.363 43.0873C52.3584 42.7645 52.2857 42.5054 52.1447 42.3099C52.0084 42.1099 51.7924 42.0098 51.4969 42.0098C51.206 42.0098 50.99 42.1099 50.8491 42.3099C50.7127 42.5054 50.64 42.7645 50.6309 43.0873C50.6309 43.21 50.6286 43.3396 50.6241 43.476C50.6241 43.6124 50.6241 43.7488 50.6241 43.8851C50.6286 44.017 50.6309 44.1488 50.6309 44.2807C50.64 44.6125 50.715 44.8762 50.8559 45.0717C50.9968 45.2626 51.2105 45.3581 51.4969 45.3581Z" fill="#06A578" fill-opacity="0.64"/>
<g opacity="0.48">
<path d="M89.7088 40.013H89.2843V38.7394C89.2843 38.5042 89.0941 38.3149 88.8597 38.3149H78.671C77.9689 38.3149 77.3975 38.8863 77.3975 39.5885V47.23C77.3975 47.9322 77.9689 48.5036 78.671 48.5036H89.7088C89.9431 48.5036 90.1333 48.3134 90.1333 48.0791V40.4375C90.1333 40.2023 89.9431 40.013 89.7088 40.013Z" fill="#8AB9FF"/>
<path d="M78.6711 39.164H88.4353V40.013H78.6711C78.4368 40.013 78.2466 39.8228 78.2466 39.5885C78.2466 39.3542 78.4368 39.164 78.6711 39.164Z" fill="#FAFAFA"/>
<path d="M90.5576 45.1074H88.0104C87.3074 45.1074 86.7368 44.5368 86.7368 43.8338C86.7368 43.1299 87.3074 42.5602 88.0104 42.5602H90.5576C90.7919 42.5602 90.9821 42.7504 90.9821 42.9847V44.6829C90.9821 44.9172 90.7919 45.1074 90.5576 45.1074Z" fill="#5282ED"/>
<path d="M88.2726 40.013L86.6916 36.8511C86.5863 36.6414 86.3316 36.5573 86.1219 36.6609L79.4194 40.013H88.2726Z" fill="#5282ED"/>
<path d="M78.2466 40.013H86.575L84.994 36.8511C84.8888 36.6414 84.634 36.5574 84.4243 36.6618L78.2466 39.7507V40.013Z" fill="#C7DEFF"/>
</g>
<defs>
<filter id="filter0_dddddd_6_2416" x="0.969792" y="18.8519" width="103.359" height="46.6011" filterUnits="userSpaceOnUse" color-interpolation-filters="sRGB">
<feFlood flood-opacity="0" result="BackgroundImageFix"/>
<feColorMatrix in="SourceAlpha" type="matrix" values="0 0 0 0 0 0 0 0 0 0 0 0 0 0 0 0 0 0 127 0" result="hardAlpha"/>
<feOffset dy="0.0631414"/>
<feGaussianBlur stdDeviation="0.134175"/>
<feColorMatrix type="matrix" values="0 0 0 0 0.4 0 0 0 0 0.564706 0 0 0 0 0.796078 0 0 0 0.0216667 0"/>
<feBlend mode="normal" in2="BackgroundImageFix" result="effect1_dropShadow_6_2416"/>
<feColorMatrix in="SourceAlpha" type="matrix" values="0 0 0 0 0 0 0 0 0 0 0 0 0 0 0 0 0 0 127 0" result="hardAlpha"/>
<feOffset dy="0.277822"/>
<feGaussianBlur stdDeviation="0.277822"/>
<feColorMatrix type="matrix" values="0 0 0 0 0.4 0 0 0 0 0.564706 0 0 0 0 0.796078 0 0 0 0.0353333 0"/>
<feBlend mode="normal" in2="effect1_dropShadow_6_2416" result="effect2_dropShadow_6_2416"/>
<feColorMatrix in="SourceAlpha" type="matrix" values="0 0 0 0 0 0 0 0 0 0 0 0 0 0 0 0 0 0 127 0" result="hardAlpha"/>
<feOffset dy="0.681927"/>
<feGaussianBlur stdDeviation="0.554066"/>
<feColorMatrix type="matrix" values="0 0 0 0 0.4 0 0 0 0 0.564706 0 0 0 0 0.796078 0 0 0 0.045 0"/>
<feBlend mode="normal" in2="effect2_dropShadow_6_2416" result="effect3_dropShadow_6_2416"/>
<feColorMatrix in="SourceAlpha" type="matrix" values="0 0 0 0 0 0 0 0 0 0 0 0 0 0 0 0 0 0 127 0" result="hardAlpha"/>
<feOffset dy="1.31334"/>
<feGaussianBlur stdDeviation="1.08603"/>
<feColorMatrix type="matrix" values="0 0 0 0 0.4 0 0 0 0 0.564706 0 0 0 0 0.796078 0 0 0 0.0546667 0"/>
<feBlend mode="normal" in2="effect3_dropShadow_6_2416" result="effect4_dropShadow_6_2416"/>
<feColorMatrix in="SourceAlpha" type="matrix" values="0 0 0 0 0 0 0 0 0 0 0 0 0 0 0 0 0 0 127 0" result="hardAlpha"/>
<feOffset dy="2.20995"/>
<feGaussianBlur stdDeviation="1.99685"/>
<feColorMatrix type="matrix" values="0 0 0 0 0.4 0 0 0 0 0.564706 0 0 0 0 0.796078 0 0 0 0.0683333 0"/>
<feBlend mode="normal" in2="effect4_dropShadow_6_2416" result="effect5_dropShadow_6_2416"/>
<feColorMatrix in="SourceAlpha" type="matrix" values="0 0 0 0 0 0 0 0 0 0 0 0 0 0 0 0 0 0 127 0" result="hardAlpha"/>
<feOffset dy="3.40964"/>
<feGaussianBlur stdDeviation="3.40964"/>
<feColorMatrix type="matrix" values="0 0 0 0 0.4 0 0 0 0 0.564706 0 0 0 0 0.796078 0 0 0 0.09 0"/>
<feBlend mode="normal" in2="effect5_dropShadow_6_2416" result="effect6_dropShadow_6_2416"/>
<feBlend mode="normal" in="SourceGraphic" in2="effect6_dropShadow_6_2416" result="shape"/>
</filter>
</defs>
</svg>
