<svg width="21" height="22" viewBox="0 0 21 22" fill="none" xmlns="http://www.w3.org/2000/svg">
<path d="M19.0048 8.91019H12.0989V2.00432C12.0989 0.897382 11.2016 0 10.0946 0H1.98615C0.884207 0.00503932 -0.005018 0.902379 2.13132e-05 2.00428V2.00432V10.1037C2.13132e-05 11.2006 0.889247 12.0898 1.98615 12.0898H8.91021V19.0138C8.91021 20.1108 9.79944 21 10.8963 21H18.9957C20.0976 21.005 20.995 20.1158 21 19.0139V19.0138V10.9145C21 9.81112 20.1082 8.91519 19.0048 8.91019ZM8.91021 10.9236V11.1879L1.98615 11.1787C1.39241 11.1787 0.911112 10.6974 0.911112 10.1037V2.00432C0.906073 1.40558 1.38733 0.916088 1.98611 0.911048C1.98615 0.911048 1.98615 0.911048 1.98619 0.911048H10.0855C10.6893 0.911048 11.1788 1.40055 11.1788 2.00432V8.91929H10.8964C9.7944 8.92433 8.90517 9.82167 8.91021 10.9236ZM20.098 19.0139C20.0931 19.6126 19.6036 20.094 19.0049 20.0889C19.0048 20.0889 19.0048 20.0889 19.0048 20.0889H10.9054C10.3117 20.0889 9.8304 19.6076 9.8304 19.0139V10.9145C9.82536 10.3158 10.3066 9.82628 10.9054 9.82124C10.9054 9.82124 10.9054 9.82124 10.9055 9.82124H19.0048C19.6086 9.82124 20.098 10.3107 20.098 10.9145V19.0139Z" fill="#002953"/>
<path d="M17.6415 17.8008L15.382 11.7969C15.2701 11.5604 14.9876 11.4595 14.7511 11.5714C14.6522 11.6183 14.5725 11.698 14.5256 11.7969L12.3208 17.7917C12.2328 18.0283 12.3531 18.2913 12.5896 18.3794C12.8261 18.4674 13.0892 18.3471 13.1772 18.1106L13.7148 16.6711H16.2475L16.7851 18.1106C16.8503 18.291 17.0215 18.4112 17.2133 18.4113C17.4649 18.4112 17.6687 18.2071 17.6686 17.9556C17.6686 17.9028 17.6594 17.8505 17.6415 17.8008ZM14.0245 15.7692L14.9356 13.2638L15.8466 15.7692H14.0245Z" fill="#002953"/>
<path d="M20.976 6.86928C20.9711 3.09167 17.9206 0.0249037 14.143 -0.00012207C13.8915 -0.00012207 13.6875 0.203842 13.6875 0.455423C13.6875 0.707005 13.8915 0.910969 14.143 0.910969C17.3161 0.916862 19.9279 3.4085 20.0832 6.57776H18.5799C18.3283 6.57776 18.1244 6.78173 18.1244 7.03331C18.1244 7.28489 18.3283 7.48886 18.5799 7.48886H20.5205C20.7721 7.48886 20.976 7.28489 20.976 7.03331C20.9786 7.00602 20.9786 6.9786 20.976 6.95131C20.9786 6.92403 20.9786 6.89657 20.976 6.86928Z" fill="#002953"/>
<path d="M6.85993 20.095C3.6902 20.0894 1.07975 17.603 0.919816 14.4373H2.41393C2.66551 14.4373 2.86948 14.2333 2.86948 13.9817C2.86948 13.7302 2.66551 13.5262 2.41393 13.5262H0.482506C0.230924 13.5262 0.0269601 13.7302 0.0269601 13.9818C0.0248675 14.006 0.0248675 14.0304 0.0269601 14.0547C0.0248675 14.0789 0.0248675 14.1033 0.0269601 14.1276C0.0268747 17.9088 3.07882 20.9811 6.85993 21.0061C7.11151 21.0061 7.31548 20.8022 7.31548 20.5506C7.31548 20.299 7.11151 20.095 6.85993 20.095Z" fill="#002953"/>
<path d="M9.26281 3.18148H7.46708C7.22548 3.18148 7.02971 3.37724 7.02971 3.61885V5.40012H5.30588C5.42491 5.17379 5.49226 4.91627 5.49226 4.64329C5.49226 3.74365 4.76034 3.01172 3.86069 3.01172H2.81432C2.57272 3.01172 2.37695 3.20749 2.37695 3.44909C2.37695 3.69069 2.57272 3.88646 2.81432 3.88646H3.86069C4.278 3.88646 4.61752 4.22592 4.61752 4.64329C4.61752 5.06066 4.27806 5.40012 3.86069 5.40012H2.81432C2.57272 5.40012 2.37695 5.59588 2.37695 5.83749C2.37695 6.07909 2.57272 6.27486 2.81432 6.27486H3.49633C4.11454 6.27486 4.61752 6.77784 4.61752 7.39605C4.61752 8.01426 4.11454 8.51718 3.49633 8.51718H2.81432C2.57272 8.51718 2.37695 8.71294 2.37695 8.95455C2.37695 9.19615 2.57272 9.39192 2.81432 9.39192H3.49633C4.59688 9.39192 5.49226 8.49653 5.49226 7.39599C5.49226 6.98072 5.36473 6.59467 5.1468 6.27486H7.02965V8.75482C7.02965 8.99642 7.22542 9.19219 7.46702 9.19219C7.70863 9.19219 7.9044 8.99642 7.9044 8.75482V4.05622H9.26276C9.50436 4.05622 9.70013 3.86045 9.70013 3.61885C9.70013 3.37724 9.50442 3.18148 9.26281 3.18148V3.18148Z" fill="#002953"/>
</svg>
