<svg width="22" height="21" viewBox="0 0 22 21" fill="none" xmlns="http://www.w3.org/2000/svg">
<path d="M14.075 17.45L13.225 19.875C13.1583 20.0583 13.0417 20.2083 12.875 20.325C12.7083 20.4417 12.525 20.5 12.325 20.5C11.9917 20.5 11.7208 20.3625 11.5125 20.0875C11.3042 19.8125 11.2667 19.5083 11.4 19.175L15.2 9.125C15.2833 8.94167 15.4083 8.79167 15.575 8.675C15.7417 8.55833 15.925 8.5 16.125 8.5H16.875C17.075 8.5 17.2583 8.55833 17.425 8.675C17.5917 8.79167 17.7167 8.94167 17.8 9.125L21.6 19.2C21.7333 19.5167 21.7 19.8125 21.5 20.0875C21.3 20.3625 21.0333 20.5 20.7 20.5C20.4833 20.5 20.2958 20.4417 20.1375 20.325C19.9792 20.2083 19.8583 20.05 19.775 19.85L18.925 17.45H14.075ZM8.05 12.475L3.7 16.8C3.51667 16.9833 3.2875 17.0792 3.0125 17.0875C2.7375 17.0958 2.5 17 2.3 16.8C2.11667 16.6167 2.025 16.3833 2.025 16.1C2.025 15.8167 2.11667 15.5833 2.3 15.4L6.65 11.05C6.06667 10.4667 5.5375 9.8 5.0625 9.05C4.5875 8.3 4.15 7.45 3.75 6.5H5.85C6.18333 7.15 6.51667 7.71667 6.85 8.2C7.18333 8.68333 7.58333 9.16667 8.05 9.65C8.6 9.1 9.17083 8.32917 9.7625 7.3375C10.3542 6.34583 10.8 5.4 11.1 4.5H1C0.716667 4.5 0.479167 4.40417 0.2875 4.2125C0.0958333 4.02083 0 3.78333 0 3.5C0 3.21667 0.0958333 2.97917 0.2875 2.7875C0.479167 2.59583 0.716667 2.5 1 2.5H7V1.5C7 1.21667 7.09583 0.979167 7.2875 0.7875C7.47917 0.595833 7.71667 0.5 8 0.5C8.28333 0.5 8.52083 0.595833 8.7125 0.7875C8.90417 0.979167 9 1.21667 9 1.5V2.5H15C15.2833 2.5 15.5208 2.59583 15.7125 2.7875C15.9042 2.97917 16 3.21667 16 3.5C16 3.78333 15.9042 4.02083 15.7125 4.2125C15.5208 4.40417 15.2833 4.5 15 4.5H13.1C12.75 5.7 12.225 6.93333 11.525 8.2C10.825 9.46667 10.1333 10.4333 9.45 11.1L11.85 13.55L11.1 15.6L8.05 12.475ZM14.7 15.7H18.3L16.5 10.6L14.7 15.7Z" fill="#666666"/>
</svg>
