<svg id="Group_16603" data-name="Group 16603" xmlns="http://www.w3.org/2000/svg" width="13" height="16" viewBox="0 0 13 16">
  <g id="equal" transform="translate(0.521 14.613)">
    <g id="Group_9009" data-name="Group 9009" transform="translate(0 0)">
      <g id="Group_9008" data-name="Group 9008">
        <path id="Path_29124" data-name="Path 29124" d="M106.4,183.636h11.092a.693.693,0,0,1,0,1.387H106.4a.693.693,0,0,1,0-1.387Z" transform="translate(-105.707 -183.636)" fill="#999"/>
      </g>
    </g>
  </g>
  <path id="Path_34151" data-name="Path 34151" d="M187.706,121.446l8.982-5.11a.894.894,0,0,1,1.121.195.636.636,0,0,1-.227.961l-7.966,4.532,7.966,4.532a.636.636,0,0,1,.227.961.894.894,0,0,1-1.121.195l-8.982-5.11a.642.642,0,0,1,0-1.155Z" transform="translate(-187.344 -116.221)" fill="#999"/>
</svg>
