<svg width="15" height="18" viewBox="0 0 15 18" fill="none" xmlns="http://www.w3.org/2000/svg">
<path d="M15 2.5V15.5C14.9993 16.1628 14.7343 16.7983 14.2634 17.2669C13.7924 17.7356 13.1539 17.9993 12.4879 18H5.38313C5.18325 18 4.99156 17.921 4.85022 17.7803C4.70889 17.6397 4.62949 17.4489 4.62949 17.25C4.62949 17.0511 4.70889 16.8603 4.85022 16.7197C4.99156 16.579 5.18325 16.5 5.38313 16.5H12.4879C12.7543 16.4997 13.0097 16.3943 13.1981 16.2068C13.3865 16.0193 13.4925 15.7651 13.4927 15.5V2.5C13.4925 2.23487 13.3865 1.98069 13.1981 1.79321C13.0097 1.60574 12.7543 1.50029 12.4879 1.5H5.38313C5.18325 1.5 4.99156 1.42098 4.85022 1.28033C4.70889 1.13968 4.62949 0.948912 4.62949 0.75C4.62949 0.551088 4.70889 0.360322 4.85022 0.21967C4.99156 0.0790177 5.18325 0 5.38313 0H12.4879C13.1539 0.000752679 13.7924 0.264388 14.2634 0.733066C14.7343 1.20175 14.9993 1.83719 15 2.5ZM5.3917 12.0338C5.32102 12.1033 5.26484 12.186 5.2264 12.2772C5.18796 12.3683 5.16802 12.4662 5.16772 12.565C5.16741 12.6639 5.18676 12.7619 5.22464 12.8533C5.26252 12.9447 5.31819 13.0277 5.38844 13.0977C5.45869 13.1676 5.54215 13.223 5.634 13.2607C5.72584 13.2984 5.82428 13.3176 5.92363 13.3173C6.02299 13.317 6.1213 13.2972 6.21292 13.2589C6.30454 13.2207 6.38765 13.1648 6.45748 13.0944L10.0389 9.53034C10.1803 9.38969 10.2597 9.19893 10.2597 9.00002C10.2597 8.8011 10.1803 8.61034 10.0389 8.46969L6.45748 4.90556C6.38765 4.83523 6.30454 4.77932 6.21292 4.74107C6.1213 4.70282 6.02299 4.68297 5.92363 4.68267C5.82428 4.68238 5.72584 4.70163 5.634 4.73933C5.54215 4.77703 5.45869 4.83243 5.38844 4.90235C5.31819 4.97226 5.26252 5.05532 5.22464 5.14672C5.18676 5.23813 5.16741 5.33608 5.16772 5.43496C5.16802 5.53383 5.18796 5.63167 5.2264 5.72285C5.26484 5.81402 5.32102 5.89673 5.3917 5.96622L7.68655 8.25H0.753644C0.553765 8.25 0.362073 8.32902 0.220737 8.46967C0.0794016 8.61032 0 8.80109 0 9C0 9.19891 0.0794016 9.38968 0.220737 9.53033C0.362073 9.67098 0.553765 9.75 0.753644 9.75H7.68655L5.3917 12.0338Z" fill="white"/>
</svg>
