<svg xmlns="http://www.w3.org/2000/svg" width="18" height="14" viewBox="0 0 18 14">
  <g id="ltp_up" transform="translate(857.725 15130)">
    <path id="Path_28530" data-name="Path 28530" d="M7.392,2.856A.249.249,0,0,0,7.2,2.775H5.779a3.221,3.221,0,0,0-.532-1.289H7.184a.251.251,0,0,0,.191-.08A.292.292,0,0,0,7.45,1.2V.287A.292.292,0,0,0,7.375.081.25.25,0,0,0,7.184,0H.266A.25.25,0,0,0,.075.081.291.291,0,0,0,0,.287v1.19a.286.286,0,0,0,.079.2.247.247,0,0,0,.187.085H1.472q1.754,0,2.228,1.011H.266a.25.25,0,0,0-.191.081A.291.291,0,0,0,0,3.061v.913a.291.291,0,0,0,.075.206.25.25,0,0,0,.191.081H3.817a1.727,1.727,0,0,1-.852,1.119A3.526,3.526,0,0,1,1.2,5.764H.266a.247.247,0,0,0-.187.085.286.286,0,0,0-.079.2V7.188a.279.279,0,0,0,.075.2q1.6,1.826,4.141,5.111a.239.239,0,0,0,.208.108H6.045a.241.241,0,0,0,.241-.161.259.259,0,0,0-.033-.3q-2.427-3.2-3.816-4.8a4.06,4.06,0,0,0,2.295-.984A3.421,3.421,0,0,0,5.8,4.261H7.2a.248.248,0,0,0,.191-.081.291.291,0,0,0,.075-.206V3.062A.287.287,0,0,0,7.392,2.856Z" transform="translate(-857.725 -15129.148)" fill="#ccc"/>
    <path id="Path_28531" data-name="Path 28531" d="M178.329,125.427l-.6.5a.541.541,0,0,1-.418.125.56.56,0,0,1-.378-.228l-1.38-1.883v9.2a.588.588,0,0,1-.568.607h-.757a.588.588,0,0,1-.568-.607v-9.2l-1.38,1.883a.56.56,0,0,1-.378.228.541.541,0,0,1-.419-.125l-.6-.5a.635.635,0,0,1-.1-.851l3.368-4.6a.546.546,0,0,1,.894,0l3.368,4.6A.635.635,0,0,1,178.329,125.427Z" transform="translate(-1018.272 -15249.746)" fill="#ccc"/>
  </g>
</svg>
