<svg width="18" height="16" viewBox="0 0 18 16" fill="none" xmlns="http://www.w3.org/2000/svg">
<path d="M9.0013 8.83268C8.88436 8.83268 8.77033 8.81879 8.65922 8.79102C8.54811 8.76324 8.43991 8.72157 8.33464 8.66602L1.33464 5.16602C1.19575 5.09657 1.09158 5.004 1.02214 4.88831C0.952691 4.77275 0.917969 4.64428 0.917969 4.50289C0.917969 4.36164 0.952691 4.23199 1.02214 4.11393C1.09158 3.99588 1.19575 3.90213 1.33464 3.83268L8.33464 0.332682C8.43991 0.277127 8.54811 0.23546 8.65922 0.207682C8.77033 0.179905 8.88436 0.166016 9.0013 0.166016C9.11825 0.166016 9.23228 0.179905 9.34339 0.207682C9.4545 0.23546 9.56269 0.277127 9.66797 0.332682L16.668 3.83268C16.8069 3.90213 16.911 3.9947 16.9805 4.11039C17.0499 4.22595 17.0846 4.35442 17.0846 4.49581C17.0846 4.63706 17.0499 4.76671 16.9805 4.88477C16.911 5.00282 16.8069 5.09657 16.668 5.16602L9.66797 8.66602C9.56269 8.72157 9.4545 8.76324 9.34339 8.79102C9.23228 8.81879 9.11825 8.83268 9.0013 8.83268ZM9.0013 7.31185L14.6471 4.49935L9.0013 1.68685L3.35547 4.49935L9.0013 7.31185ZM9.0013 10.8118L15.5013 7.58268L15.8244 7.49935C16.0398 7.49935 16.2204 7.5722 16.3661 7.71789C16.5118 7.86358 16.5846 8.04192 16.5846 8.25289C16.5846 8.38942 16.5499 8.51671 16.4805 8.63477C16.411 8.75282 16.3069 8.84657 16.168 8.91602L9.66797 12.166C9.56269 12.2216 9.4545 12.2632 9.34339 12.291C9.23228 12.3188 9.11825 12.3327 9.0013 12.3327C8.88436 12.3327 8.77033 12.3188 8.65922 12.291C8.54811 12.2632 8.43991 12.2216 8.33464 12.166L1.83464 8.91602C1.69575 8.84657 1.59158 8.75366 1.52214 8.63727C1.45269 8.52088 1.41797 8.39157 1.41797 8.24935C1.41797 8.03685 1.48984 7.85872 1.63359 7.71497C1.77734 7.57122 1.95547 7.49935 2.16797 7.49935C2.22644 7.49935 2.282 7.50768 2.33464 7.52435C2.38727 7.54102 2.44283 7.56046 2.5013 7.58268L9.0013 10.8118ZM9.0013 14.3118L15.5013 11.0827L15.8244 10.9993C16.0398 10.9993 16.2204 11.0722 16.3661 11.2179C16.5118 11.3636 16.5846 11.5419 16.5846 11.7529C16.5846 11.8894 16.5499 12.0167 16.4805 12.1348C16.411 12.2528 16.3069 12.3466 16.168 12.416L9.66797 15.666C9.56269 15.7216 9.4545 15.7632 9.34339 15.791C9.23228 15.8188 9.11825 15.8327 9.0013 15.8327C8.88436 15.8327 8.77033 15.8188 8.65922 15.791C8.54811 15.7632 8.43991 15.7216 8.33464 15.666L1.83464 12.416C1.69575 12.3466 1.59158 12.2537 1.52214 12.1373C1.45269 12.0209 1.41797 11.8916 1.41797 11.7493C1.41797 11.5368 1.48984 11.3587 1.63359 11.215C1.77734 11.0712 1.95547 10.9993 2.16797 10.9993C2.22644 10.9993 2.282 11.0077 2.33464 11.0243C2.38727 11.041 2.44283 11.0605 2.5013 11.0827L9.0013 14.3118Z" fill="#002953"/>
</svg>
