<svg width="12" height="13" viewBox="0 0 12 13" fill="none" xmlns="http://www.w3.org/2000/svg">
<path d="M0.333333 8.36331C0.244444 8.36331 0.166667 8.33165 0.1 8.26831C0.0333333 8.20498 0 8.13109 0 8.04665C0 7.95776 0.0333333 7.87998 0.1 7.81331C0.166667 7.74665 0.244444 7.71331 0.333333 7.71331C0.422222 7.71331 0.497222 7.74665 0.558333 7.81331C0.619444 7.87998 0.65 7.95776 0.65 8.04665C0.65 8.13554 0.618333 8.21054 0.555 8.27165C0.491667 8.33276 0.417778 8.36331 0.333333 8.36331ZM0.333333 5.74665C0.244444 5.74665 0.166667 5.71331 0.1 5.64665C0.0333333 5.57998 0 5.5022 0 5.41331C0 5.32443 0.0333333 5.24943 0.1 5.18831C0.166667 5.1272 0.244444 5.09665 0.333333 5.09665C0.422222 5.09665 0.497222 5.12831 0.558333 5.19165C0.619444 5.25498 0.65 5.32887 0.65 5.41331C0.65 5.5022 0.618333 5.57998 0.555 5.64665C0.491667 5.71331 0.417778 5.74665 0.333333 5.74665ZM2.06667 11.3133C1.87778 11.3133 1.72222 11.251 1.6 11.1265C1.47778 11.0018 1.41667 10.8474 1.41667 10.6633C1.41667 10.4744 1.47894 10.3161 1.6035 10.1883C1.72817 10.0605 1.88256 9.99665 2.06667 9.99665C2.25556 9.99665 2.41389 10.0605 2.54167 10.1883C2.66944 10.3161 2.73333 10.4744 2.73333 10.6633C2.73333 10.8522 2.66944 11.0078 2.54167 11.13C2.41389 11.2522 2.25556 11.3133 2.06667 11.3133ZM2.06667 8.69665C1.87778 8.69665 1.72222 8.63437 1.6 8.50981C1.47778 8.38526 1.41667 8.23087 1.41667 8.04665C1.41667 7.85776 1.47894 7.69943 1.6035 7.57165C1.72817 7.44387 1.88256 7.37998 2.06667 7.37998C2.25556 7.37998 2.41389 7.44387 2.54167 7.57165C2.66944 7.69943 2.73333 7.85776 2.73333 8.04665C2.73333 8.23554 2.66944 8.39109 2.54167 8.51331C2.41389 8.63554 2.25556 8.69665 2.06667 8.69665ZM2.06667 6.07998C1.87778 6.07998 1.72222 6.01609 1.6 5.88831C1.47778 5.76054 1.41667 5.6022 1.41667 5.41331C1.41667 5.22443 1.47894 5.06887 1.6035 4.94665C1.72817 4.82443 1.88256 4.76331 2.06667 4.76331C2.25556 4.76331 2.41389 4.82559 2.54167 4.95015C2.66944 5.0747 2.73333 5.22909 2.73333 5.41331C2.73333 5.6022 2.66944 5.76054 2.54167 5.88831C2.41389 6.01609 2.25556 6.07998 2.06667 6.07998ZM2.06667 3.46331C1.87778 3.46331 1.72222 3.39943 1.6 3.27165C1.47778 3.14387 1.41667 2.98554 1.41667 2.79665C1.41667 2.60776 1.47894 2.4522 1.6035 2.32998C1.72817 2.20776 1.88256 2.14665 2.06667 2.14665C2.25556 2.14665 2.41389 2.20893 2.54167 2.33348C2.66944 2.45804 2.73333 2.61243 2.73333 2.79665C2.73333 2.98554 2.66944 3.14387 2.54167 3.27165C2.41389 3.39943 2.25556 3.46331 2.06667 3.46331ZM4.68433 8.91331C4.43922 8.91331 4.23333 8.82865 4.06667 8.65931C3.9 8.49009 3.81667 8.28454 3.81667 8.04265C3.81667 7.80087 3.90133 7.59387 4.07067 7.42165C4.23989 7.24943 4.44544 7.16331 4.68733 7.16331C4.92911 7.16331 5.13611 7.24909 5.30833 7.42065C5.48056 7.5922 5.56667 7.80054 5.56667 8.04565C5.56667 8.29076 5.48089 8.49665 5.30933 8.66331C5.13778 8.82998 4.92944 8.91331 4.68433 8.91331ZM4.68433 6.29665C4.43922 6.29665 4.23333 6.21087 4.06667 6.03931C3.9 5.86776 3.81667 5.65943 3.81667 5.41431C3.81667 5.1692 3.90133 4.96331 4.07067 4.79665C4.23989 4.62998 4.44544 4.54665 4.68733 4.54665C4.92911 4.54665 5.13611 4.63131 5.30833 4.80065C5.48056 4.96987 5.56667 5.17543 5.56667 5.41731C5.56667 5.65909 5.48089 5.86609 5.30933 6.03831C5.13778 6.21054 4.92944 6.29665 4.68433 6.29665ZM4.68333 11.3133C4.49444 11.3133 4.33889 11.251 4.21667 11.1265C4.09444 11.0018 4.03333 10.8474 4.03333 10.6633C4.03333 10.4744 4.09561 10.3161 4.22017 10.1883C4.34472 10.0605 4.49911 9.99665 4.68333 9.99665C4.87222 9.99665 5.03056 10.0605 5.15833 10.1883C5.28611 10.3161 5.35 10.4744 5.35 10.6633C5.35 10.8522 5.28611 11.0078 5.15833 11.13C5.03056 11.2522 4.87222 11.3133 4.68333 11.3133ZM4.68333 3.46331C4.49444 3.46331 4.33889 3.39943 4.21667 3.27165C4.09444 3.14387 4.03333 2.98554 4.03333 2.79665C4.03333 2.60776 4.09561 2.4522 4.22017 2.32998C4.34472 2.20776 4.49911 2.14665 4.68333 2.14665C4.87222 2.14665 5.03056 2.20893 5.15833 2.33348C5.28611 2.45804 5.35 2.61243 5.35 2.79665C5.35 2.98554 5.28611 3.14387 5.15833 3.27165C5.03056 3.39943 4.87222 3.46331 4.68333 3.46331ZM4.68333 12.73C4.59444 12.73 4.51944 12.6966 4.45833 12.63C4.39722 12.5633 4.36667 12.4855 4.36667 12.3966C4.36667 12.3078 4.39833 12.2328 4.46167 12.1716C4.525 12.1105 4.59889 12.08 4.68333 12.08C4.77222 12.08 4.85 12.1116 4.91667 12.175C4.98333 12.2383 5.01667 12.3122 5.01667 12.3966C5.01667 12.4855 4.98333 12.5633 4.91667 12.63C4.85 12.6966 4.77222 12.73 4.68333 12.73ZM4.68333 1.37998C4.59444 1.37998 4.51944 1.34831 4.45833 1.28498C4.39722 1.22165 4.36667 1.14776 4.36667 1.06331C4.36667 0.974425 4.39833 0.896647 4.46167 0.82998C4.525 0.763314 4.59889 0.72998 4.68333 0.72998C4.77222 0.72998 4.85 0.763314 4.91667 0.82998C4.98333 0.896647 5.01667 0.974425 5.01667 1.06331C5.01667 1.1522 4.98333 1.2272 4.91667 1.28831C4.85 1.34942 4.77222 1.37998 4.68333 1.37998ZM7.31267 8.91331C7.07089 8.91331 6.86389 8.82865 6.69167 8.65931C6.51944 8.49009 6.43333 8.28454 6.43333 8.04265C6.43333 7.80087 6.51911 7.59387 6.69067 7.42165C6.86222 7.24943 7.07056 7.16331 7.31567 7.16331C7.56078 7.16331 7.76667 7.24909 7.93333 7.42065C8.1 7.5922 8.18333 7.80054 8.18333 8.04565C8.18333 8.29076 8.09867 8.49665 7.92933 8.66331C7.76011 8.82998 7.55456 8.91331 7.31267 8.91331ZM7.31267 6.29665C7.07089 6.29665 6.86389 6.21087 6.69167 6.03931C6.51944 5.86776 6.43333 5.65943 6.43333 5.41431C6.43333 5.1692 6.51911 4.96331 6.69067 4.79665C6.86222 4.62998 7.07056 4.54665 7.31567 4.54665C7.56078 4.54665 7.76667 4.63131 7.93333 4.80065C8.1 4.96987 8.18333 5.17543 8.18333 5.41731C8.18333 5.65909 8.09867 5.86609 7.92933 6.03831C7.76011 6.21054 7.55456 6.29665 7.31267 6.29665ZM7.31667 11.3133C7.12778 11.3133 6.96945 11.251 6.84167 11.1265C6.71389 11.0018 6.65 10.8474 6.65 10.6633C6.65 10.4744 6.71389 10.3161 6.84167 10.1883C6.96945 10.0605 7.12778 9.99665 7.31667 9.99665C7.50556 9.99665 7.66111 10.0605 7.78333 10.1883C7.90556 10.3161 7.96667 10.4744 7.96667 10.6633C7.96667 10.8522 7.90439 11.0078 7.77983 11.13C7.65528 11.2522 7.50089 11.3133 7.31667 11.3133ZM7.31667 3.46331C7.12778 3.46331 6.96945 3.39943 6.84167 3.27165C6.71389 3.14387 6.65 2.98554 6.65 2.79665C6.65 2.60776 6.71389 2.4522 6.84167 2.32998C6.96945 2.20776 7.12778 2.14665 7.31667 2.14665C7.50556 2.14665 7.66111 2.20893 7.78333 2.33348C7.90556 2.45804 7.96667 2.61243 7.96667 2.79665C7.96667 2.98554 7.90439 3.14387 7.77983 3.27165C7.65528 3.39943 7.50089 3.46331 7.31667 3.46331ZM7.31667 12.73C7.22778 12.73 7.15 12.6966 7.08333 12.63C7.01667 12.5633 6.98333 12.4855 6.98333 12.3966C6.98333 12.3078 7.01667 12.2328 7.08333 12.1716C7.15 12.1105 7.22778 12.08 7.31667 12.08C7.40556 12.08 7.48056 12.1116 7.54167 12.175C7.60278 12.2383 7.63333 12.3122 7.63333 12.3966C7.63333 12.4855 7.60167 12.5633 7.53833 12.63C7.475 12.6966 7.40111 12.73 7.31667 12.73ZM7.31667 1.37998C7.22778 1.37998 7.15 1.34831 7.08333 1.28498C7.01667 1.22165 6.98333 1.14776 6.98333 1.06331C6.98333 0.974425 7.01667 0.896647 7.08333 0.82998C7.15 0.763314 7.22778 0.72998 7.31667 0.72998C7.40556 0.72998 7.48056 0.763314 7.54167 0.82998C7.60278 0.896647 7.63333 0.974425 7.63333 1.06331C7.63333 1.1522 7.60167 1.2272 7.53833 1.28831C7.475 1.34942 7.40111 1.37998 7.31667 1.37998ZM9.93333 11.3133C9.74444 11.3133 9.58611 11.251 9.45833 11.1265C9.33056 11.0018 9.26667 10.8474 9.26667 10.6633C9.26667 10.4744 9.33056 10.3161 9.45833 10.1883C9.58611 10.0605 9.74444 9.99665 9.93333 9.99665C10.1222 9.99665 10.2778 10.0605 10.4 10.1883C10.5222 10.3161 10.5833 10.4744 10.5833 10.6633C10.5833 10.8522 10.5211 11.0078 10.3965 11.13C10.2719 11.2522 10.1176 11.3133 9.93333 11.3133ZM9.93333 8.69665C9.74444 8.69665 9.58611 8.63437 9.45833 8.50981C9.33056 8.38526 9.26667 8.23087 9.26667 8.04665C9.26667 7.85776 9.33056 7.69943 9.45833 7.57165C9.58611 7.44387 9.74444 7.37998 9.93333 7.37998C10.1222 7.37998 10.2778 7.44387 10.4 7.57165C10.5222 7.69943 10.5833 7.85776 10.5833 8.04665C10.5833 8.23554 10.5211 8.39109 10.3965 8.51331C10.2719 8.63554 10.1176 8.69665 9.93333 8.69665ZM9.93333 6.07998C9.74444 6.07998 9.58611 6.01609 9.45833 5.88831C9.33056 5.76054 9.26667 5.6022 9.26667 5.41331C9.26667 5.22443 9.33056 5.06887 9.45833 4.94665C9.58611 4.82443 9.74444 4.76331 9.93333 4.76331C10.1222 4.76331 10.2778 4.82559 10.4 4.95015C10.5222 5.0747 10.5833 5.22909 10.5833 5.41331C10.5833 5.6022 10.5211 5.76054 10.3965 5.88831C10.2719 6.01609 10.1176 6.07998 9.93333 6.07998ZM9.93333 3.46331C9.74444 3.46331 9.58611 3.39943 9.45833 3.27165C9.33056 3.14387 9.26667 2.98554 9.26667 2.79665C9.26667 2.60776 9.33056 2.4522 9.45833 2.32998C9.58611 2.20776 9.74444 2.14665 9.93333 2.14665C10.1222 2.14665 10.2778 2.20893 10.4 2.33348C10.5222 2.45804 10.5833 2.61243 10.5833 2.79665C10.5833 2.98554 10.5211 3.14387 10.3965 3.27165C10.2719 3.39943 10.1176 3.46331 9.93333 3.46331ZM11.6667 8.36331C11.5778 8.36331 11.5028 8.33165 11.4417 8.26831C11.3806 8.20498 11.35 8.13109 11.35 8.04665C11.35 7.95776 11.3817 7.87998 11.445 7.81331C11.5083 7.74665 11.5822 7.71331 11.6667 7.71331C11.7556 7.71331 11.8333 7.74665 11.9 7.81331C11.9667 7.87998 12 7.95776 12 8.04665C12 8.13554 11.9667 8.21054 11.9 8.27165C11.8333 8.33276 11.7556 8.36331 11.6667 8.36331ZM11.6667 5.74665C11.5778 5.74665 11.5028 5.71331 11.4417 5.64665C11.3806 5.57998 11.35 5.5022 11.35 5.41331C11.35 5.32443 11.3817 5.24943 11.445 5.18831C11.5083 5.1272 11.5822 5.09665 11.6667 5.09665C11.7556 5.09665 11.8333 5.12831 11.9 5.19165C11.9667 5.25498 12 5.32887 12 5.41331C12 5.5022 11.9667 5.57998 11.9 5.64665C11.8333 5.71331 11.7556 5.74665 11.6667 5.74665Z" fill="#FF6700"/>
</svg>
