<svg width="25" height="24" viewBox="0 0 25 24" fill="none" xmlns="http://www.w3.org/2000/svg">
<mask id="mask0_5652_2733" style="mask-type:alpha" maskUnits="userSpaceOnUse" x="0" y="0" width="25" height="24">
<rect x="0.25" width="24" height="24" fill="#D9D9D9"/>
</mask>
<g mask="url(#mask0_5652_2733)">
<path d="M12.25 18L8.05 19.8C7.38333 20.0833 6.75 20.0292 6.15 19.6375C5.55 19.2458 5.25 18.6917 5.25 17.975V5C5.25 4.45 5.44583 3.97917 5.8375 3.5875C6.22917 3.19583 6.7 3 7.25 3H17.25C17.8 3 18.2708 3.19583 18.6625 3.5875C19.0542 3.97917 19.25 4.45 19.25 5V17.975C19.25 18.6917 18.95 19.2458 18.35 19.6375C17.75 20.0292 17.1167 20.0833 16.45 19.8L12.25 18Z" fill="#FF6700"/>
</g>
</svg>
