<svg width="25" height="25" viewBox="0 0 25 25" fill="none" xmlns="http://www.w3.org/2000/svg">
<mask id="mask0_2433_518" style="mask-type:alpha" maskUnits="userSpaceOnUse" x="0" y="0" width="25" height="25">
<rect x="0.5" y="0.5" width="24" height="24" fill="#D9D9D9"/>
</mask>
<g mask="url(#mask0_2433_518)">
<path d="M12.5 13.5C12.2167 13.5 11.9792 13.4042 11.7875 13.2125C11.5958 13.0208 11.5 12.7833 11.5 12.5C11.5 12.2167 11.5958 11.9792 11.7875 11.7875C11.9792 11.5958 12.2167 11.5 12.5 11.5C12.7833 11.5 13.0208 11.5958 13.2125 11.7875C13.4042 11.9792 13.5 12.2167 13.5 12.5C13.5 12.7833 13.4042 13.0208 13.2125 13.2125C13.0208 13.4042 12.7833 13.5 12.5 13.5ZM12.5 22.5C11.1167 22.5 9.81667 22.2375 8.6 21.7125C7.38333 21.1875 6.325 20.475 5.425 19.575C4.525 18.675 3.8125 17.6167 3.2875 16.4C2.7625 15.1833 2.5 13.8833 2.5 12.5C2.5 11.1167 2.7625 9.81667 3.2875 8.6C3.8125 7.38333 4.525 6.325 5.425 5.425C6.325 4.525 7.38333 3.8125 8.6 3.2875C9.81667 2.7625 11.1167 2.5 12.5 2.5C13.8833 2.5 15.1833 2.7625 16.4 3.2875C17.6167 3.8125 18.675 4.525 19.575 5.425C20.475 6.325 21.1875 7.38333 21.7125 8.6C22.2375 9.81667 22.5 11.1167 22.5 12.5C22.5 13.8833 22.2375 15.1833 21.7125 16.4C21.1875 17.6167 20.475 18.675 19.575 19.575C18.675 20.475 17.6167 21.1875 16.4 21.7125C15.1833 22.2375 13.8833 22.5 12.5 22.5ZM12.5 20.5C14.7333 20.5 16.625 19.725 18.175 18.175C19.725 16.625 20.5 14.7333 20.5 12.5C20.5 10.2667 19.725 8.375 18.175 6.825C16.625 5.275 14.7333 4.5 12.5 4.5C10.2667 4.5 8.375 5.275 6.825 6.825C5.275 8.375 4.5 10.2667 4.5 12.5C4.5 14.7333 5.275 16.625 6.825 18.175C8.375 19.725 10.2667 20.5 12.5 20.5ZM7.925 17.575L14.175 14.65C14.275 14.6 14.3667 14.5333 14.45 14.45C14.5333 14.3667 14.6 14.275 14.65 14.175L17.575 7.925C17.6583 7.75833 17.6375 7.6125 17.5125 7.4875C17.3875 7.3625 17.2417 7.34167 17.075 7.425L10.825 10.35C10.725 10.4 10.6333 10.4667 10.55 10.55C10.4667 10.6333 10.4 10.725 10.35 10.825L7.425 17.075C7.34167 17.2417 7.3625 17.3875 7.4875 17.5125C7.6125 17.6375 7.75833 17.6583 7.925 17.575Z" fill="#1C1B1F"/>
</g>
</svg>
