<svg width="25" height="25" viewBox="0 0 25 25" fill="none" xmlns="http://www.w3.org/2000/svg">
<mask id="mask0_4_4603" style="mask-type:alpha" maskUnits="userSpaceOnUse" x="0" y="0" width="25" height="25">
<rect x="0.5" y="0.5" width="24" height="24" fill="#D9D9D9"/>
</mask>
<g mask="url(#mask0_4_4603)">
<path d="M13.5 17.55C14.2333 17.2 14.9708 16.9375 15.7125 16.7625C16.4542 16.5875 17.2167 16.5 18 16.5C18.6 16.5 19.1875 16.55 19.7625 16.65C20.3375 16.75 20.9167 16.9 21.5 17.1V7.2C20.95 6.96667 20.3792 6.79167 19.7875 6.675C19.1958 6.55833 18.6 6.5 18 6.5C17.2167 6.5 16.4417 6.6 15.675 6.8C14.9083 7 14.1833 7.3 13.5 7.7V17.55ZM12.5 19.975C12.2667 19.975 12.0458 19.9458 11.8375 19.8875C11.6292 19.8292 11.4333 19.75 11.25 19.65C10.6 19.2667 9.91667 18.9792 9.2 18.7875C8.48333 18.5958 7.75 18.5 7 18.5C6.3 18.5 5.6125 18.5917 4.9375 18.775C4.2625 18.9583 3.61667 19.2167 3 19.55C2.65 19.7333 2.3125 19.725 1.9875 19.525C1.6625 19.325 1.5 19.0333 1.5 18.65V6.6C1.5 6.41667 1.54583 6.24167 1.6375 6.075C1.72917 5.90833 1.86667 5.78333 2.05 5.7C2.83333 5.31667 3.6375 5.02083 4.4625 4.8125C5.2875 4.60417 6.13333 4.5 7 4.5C7.96667 4.5 8.9125 4.625 9.8375 4.875C10.7625 5.125 11.65 5.5 12.5 6C13.35 5.5 14.2375 5.125 15.1625 4.875C16.0875 4.625 17.0333 4.5 18 4.5C18.8667 4.5 19.7125 4.60417 20.5375 4.8125C21.3625 5.02083 22.1667 5.31667 22.95 5.7C23.1333 5.78333 23.2708 5.90833 23.3625 6.075C23.4542 6.24167 23.5 6.41667 23.5 6.6V18.65C23.5 19.0333 23.3375 19.325 23.0125 19.525C22.6875 19.725 22.35 19.7333 22 19.55C21.3833 19.2167 20.7375 18.9583 20.0625 18.775C19.3875 18.5917 18.7 18.5 18 18.5C17.25 18.5 16.5167 18.5958 15.8 18.7875C15.0833 18.9792 14.4 19.2667 13.75 19.65C13.5667 19.75 13.3708 19.8292 13.1625 19.8875C12.9542 19.9458 12.7333 19.975 12.5 19.975ZM14.5 9.275C14.5 9.125 14.5542 8.97083 14.6625 8.8125C14.7708 8.65417 14.8917 8.55 15.025 8.5C15.5083 8.33333 15.9917 8.20833 16.475 8.125C16.9583 8.04167 17.4667 8 18 8C18.3333 8 18.6625 8.02083 18.9875 8.0625C19.3125 8.10417 19.6333 8.15833 19.95 8.225C20.1 8.25833 20.2292 8.34167 20.3375 8.475C20.4458 8.60833 20.5 8.75833 20.5 8.925C20.5 9.20833 20.4083 9.41667 20.225 9.55C20.0417 9.68333 19.8083 9.71667 19.525 9.65C19.2917 9.6 19.0458 9.5625 18.7875 9.5375C18.5292 9.5125 18.2667 9.5 18 9.5C17.5667 9.5 17.1417 9.54167 16.725 9.625C16.3083 9.70833 15.9083 9.81667 15.525 9.95C15.225 10.0667 14.9792 10.0583 14.7875 9.925C14.5958 9.79167 14.5 9.575 14.5 9.275ZM14.5 14.775C14.5 14.625 14.5542 14.4708 14.6625 14.3125C14.7708 14.1542 14.8917 14.05 15.025 14C15.5083 13.8333 15.9917 13.7083 16.475 13.625C16.9583 13.5417 17.4667 13.5 18 13.5C18.3333 13.5 18.6625 13.5208 18.9875 13.5625C19.3125 13.6042 19.6333 13.6583 19.95 13.725C20.1 13.7583 20.2292 13.8417 20.3375 13.975C20.4458 14.1083 20.5 14.2583 20.5 14.425C20.5 14.7083 20.4083 14.9167 20.225 15.05C20.0417 15.1833 19.8083 15.2167 19.525 15.15C19.2917 15.1 19.0458 15.0625 18.7875 15.0375C18.5292 15.0125 18.2667 15 18 15C17.5667 15 17.1417 15.0375 16.725 15.1125C16.3083 15.1875 15.9083 15.2917 15.525 15.425C15.225 15.5417 14.9792 15.5375 14.7875 15.4125C14.5958 15.2875 14.5 15.075 14.5 14.775ZM14.5 12.025C14.5 11.875 14.5542 11.7208 14.6625 11.5625C14.7708 11.4042 14.8917 11.3 15.025 11.25C15.5083 11.0833 15.9917 10.9583 16.475 10.875C16.9583 10.7917 17.4667 10.75 18 10.75C18.3333 10.75 18.6625 10.7708 18.9875 10.8125C19.3125 10.8542 19.6333 10.9083 19.95 10.975C20.1 11.0083 20.2292 11.0917 20.3375 11.225C20.4458 11.3583 20.5 11.5083 20.5 11.675C20.5 11.9583 20.4083 12.1667 20.225 12.3C20.0417 12.4333 19.8083 12.4667 19.525 12.4C19.2917 12.35 19.0458 12.3125 18.7875 12.2875C18.5292 12.2625 18.2667 12.25 18 12.25C17.5667 12.25 17.1417 12.2917 16.725 12.375C16.3083 12.4583 15.9083 12.5667 15.525 12.7C15.225 12.8167 14.9792 12.8083 14.7875 12.675C14.5958 12.5417 14.5 12.325 14.5 12.025Z" fill="#FF6700"/>
</g>
</svg>
