<svg width="25" height="25" viewBox="0 0 25 25" fill="none" xmlns="http://www.w3.org/2000/svg">
<mask id="mask0_2433_401" style="mask-type:alpha" maskUnits="userSpaceOnUse" x="0" y="0" width="25" height="25">
<rect x="0.5" y="0.5" width="24" height="24" fill="#D9D9D9"/>
</mask>
<g mask="url(#mask0_2433_401)">
<path d="M6.425 21.5C6.04167 21.5 5.67083 21.3667 5.3125 21.1C4.95417 20.8333 4.71667 20.5083 4.6 20.125C4.18333 18.725 3.84167 17.5125 3.575 16.4875C3.30833 15.4625 3.09583 14.5625 2.9375 13.7875C2.77917 13.0125 2.66667 12.325 2.6 11.725C2.53333 11.125 2.5 10.55 2.5 10C2.5 8.46667 3.03333 7.16667 4.1 6.1C5.16667 5.03333 6.46667 4.5 8 4.5H13C13.45 3.9 14.0208 3.41667 14.7125 3.05C15.4042 2.68333 16.1667 2.5 17 2.5C17.4167 2.5 17.7708 2.64583 18.0625 2.9375C18.3542 3.22917 18.5 3.58333 18.5 4C18.5 4.1 18.4875 4.2 18.4625 4.3C18.4375 4.4 18.4083 4.49167 18.375 4.575C18.3083 4.75833 18.2458 4.94167 18.1875 5.125C18.1292 5.30833 18.0833 5.50833 18.05 5.725L20.325 8H21.5C21.7833 8 22.0208 8.09583 22.2125 8.2875C22.4042 8.47917 22.5 8.71667 22.5 9V14.25C22.5 14.4667 22.4375 14.6583 22.3125 14.825C22.1875 14.9917 22.0167 15.1167 21.8 15.2L19.675 15.9L18.425 20.075C18.2917 20.5083 18.05 20.8542 17.7 21.1125C17.35 21.3708 16.95 21.5 16.5 21.5H14.5C13.95 21.5 13.4792 21.3042 13.0875 20.9125C12.6958 20.5208 12.5 20.05 12.5 19.5H10.5C10.5 20.05 10.3042 20.5208 9.9125 20.9125C9.52083 21.3042 9.05 21.5 8.5 21.5H6.425ZM16.5 11.5C16.7833 11.5 17.0208 11.4042 17.2125 11.2125C17.4042 11.0208 17.5 10.7833 17.5 10.5C17.5 10.2167 17.4042 9.97917 17.2125 9.7875C17.0208 9.59583 16.7833 9.5 16.5 9.5C16.2167 9.5 15.9792 9.59583 15.7875 9.7875C15.5958 9.97917 15.5 10.2167 15.5 10.5C15.5 10.7833 15.5958 11.0208 15.7875 11.2125C15.9792 11.4042 16.2167 11.5 16.5 11.5ZM12.5 9.5C12.7833 9.5 13.0208 9.40417 13.2125 9.2125C13.4042 9.02083 13.5 8.78333 13.5 8.5C13.5 8.21667 13.4042 7.97917 13.2125 7.7875C13.0208 7.59583 12.7833 7.5 12.5 7.5H9.5C9.21667 7.5 8.97917 7.59583 8.7875 7.7875C8.59583 7.97917 8.5 8.21667 8.5 8.5C8.5 8.78333 8.59583 9.02083 8.7875 9.2125C8.97917 9.40417 9.21667 9.5 9.5 9.5H12.5Z" fill="#FF6700"/>
</g>
</svg>
