<svg id="Layer_3" data-name="Layer 3" xmlns="http://www.w3.org/2000/svg" xmlns:xlink="http://www.w3.org/1999/xlink" viewBox="0 0 36 36"><defs><style>.cls-1{fill:none;}.cls-2{clip-path:url(#clip-path);}.cls-3{fill:#092f5e;}</style><clipPath id="clip-path"><rect class="cls-1" x="7.85" y="8.77" width="20.3" height="18.47"/></clipPath></defs><g class="cls-2"><g id="Group_18241" data-name="Group 18241"><path id="Path_32694" data-name="Path 32694" class="cls-3" d="M7.85,22,8,21.84c.83-.83,1.66-1.65,2.48-2.48A4.17,4.17,0,0,1,13.33,18l.07,0a5.72,5.72,0,0,1-.81-5.47,5.56,5.56,0,0,1,2.83-3.17,5.76,5.76,0,0,1,5.46,10.13l.61.82a1,1,0,0,1,.1-.17L24.75,17a2,2,0,0,1,2.64-.21,1.93,1.93,0,0,1,.36,2.7.76.76,0,0,1-.11.14c-.91,1-1.86,1.89-2.8,2.83l-2,2a4.74,4.74,0,0,1-3.48,1.44c-1.08,0-2.16,0-3.23,0a4.3,4.3,0,0,0-2.94,1.23l-.06.07h0l-.87-.81a5.52,5.52,0,0,1,3.64-1.67c1.15-.05,2.31,0,3.47,0A3.66,3.66,0,0,0,22,23.59q2.29-2.32,4.61-4.63l.17-.19a.77.77,0,0,0-.19-1.06.94.94,0,0,0-.23-.1.78.78,0,0,0-.82.26c-1.5,1.5-3,3-4.51,4.51a2,2,0,0,1-1.4.63H16.51l-.06,0V21.81h3c.54,0,.89-.3.89-.76a.78.78,0,0,0-.88-.75c-.5,0-1,0-1.5,0a6.21,6.21,0,0,1-3-.7,3,3,0,0,0-3.65.58L8.85,22.69a1.54,1.54,0,0,1-.18.16L7.85,22v0M18,19.07a4.55,4.55,0,1,0-4.56-4.55h0A4.58,4.58,0,0,0,18,19.08"/><path id="Path_32695" data-name="Path 32695" class="cls-3" d="M17.39,11h1.19v.66l.88.13-.17,1.19-1-.14-.21,0a.58.58,0,0,0-.68.44.28.28,0,0,0,0,.09.6.6,0,0,0,.57.63H18a1.78,1.78,0,0,1,.7,3.4.23.23,0,0,0-.16.25,4.17,4.17,0,0,1,0,.5H17.39v-.62l-.85-.09.1-1.18.54,0,.65.07a.6.6,0,0,0,.74-.41.61.61,0,0,0-.41-.75.82.82,0,0,0-.22,0,1.71,1.71,0,0,1-1.49-.87A1.77,1.77,0,0,1,17,11.82l.2-.1a.22.22,0,0,0,.15-.25c0-.16,0-.33,0-.51"/></g></g></svg>