<svg width="14" height="22" viewBox="0 0 14 22" fill="none" xmlns="http://www.w3.org/2000/svg">
<path d="M3.34922 21.8504C2.46589 21.8504 1.72005 21.5462 1.11172 20.9379C0.503385 20.3296 0.199219 19.5837 0.199219 18.7004V11.6004C0.199219 10.7171 0.503385 9.97122 1.11172 9.36289C1.72005 8.75456 2.46589 8.45039 3.34922 8.45039H10.4492C11.3326 8.45039 12.0784 8.75456 12.6867 9.36289C13.2951 9.97122 13.5992 10.7171 13.5992 11.6004V18.7004C13.5992 19.5837 13.2951 20.3296 12.6867 20.9379C12.0784 21.5462 11.3326 21.8504 10.4492 21.8504H3.34922ZM12.0242 7.45039C11.5909 7.45039 11.2201 7.29622 10.9117 6.98789C10.6034 6.67956 10.4492 6.30872 10.4492 5.87539C10.4492 5.44206 10.6034 5.07122 10.9117 4.76289C11.2201 4.45456 11.5909 4.30039 12.0242 4.30039C12.4576 4.30039 12.8284 4.45456 13.1367 4.76289C13.4451 5.07122 13.5992 5.44206 13.5992 5.87539C13.5992 6.30872 13.4451 6.67956 13.1367 6.98789C12.8284 7.29622 12.4576 7.45039 12.0242 7.45039ZM12.0242 3.30039C11.5909 3.30039 11.2201 3.14622 10.9117 2.83789C10.6034 2.52956 10.4492 2.15872 10.4492 1.72539C10.4492 1.29206 10.6034 0.921224 10.9117 0.612891C11.2201 0.304557 11.5909 0.150391 12.0242 0.150391C12.4576 0.150391 12.8284 0.304557 13.1367 0.612891C13.4451 0.921224 13.5992 1.29206 13.5992 1.72539C13.5992 2.15872 13.4451 2.52956 13.1367 2.83789C12.8284 3.14622 12.4576 3.30039 12.0242 3.30039ZM6.89922 3.30039C6.46589 3.30039 6.09505 3.14622 5.78672 2.83789C5.47839 2.52956 5.32422 2.15872 5.32422 1.72539C5.32422 1.29206 5.47839 0.921224 5.78672 0.612891C6.09505 0.304557 6.46589 0.150391 6.89922 0.150391C7.33255 0.150391 7.70339 0.304557 8.01172 0.612891C8.32005 0.921224 8.47422 1.29206 8.47422 1.72539C8.47422 2.15872 8.32005 2.52956 8.01172 2.83789C7.70339 3.14622 7.33255 3.30039 6.89922 3.30039ZM1.77422 3.30039C1.34089 3.30039 0.970052 3.14622 0.661719 2.83789C0.353385 2.52956 0.199219 2.15872 0.199219 1.72539C0.199219 1.29206 0.353385 0.921224 0.661719 0.612891C0.970052 0.304557 1.34089 0.150391 1.77422 0.150391C2.20755 0.150391 2.57839 0.304557 2.88672 0.612891C3.19505 0.921224 3.34922 1.29206 3.34922 1.72539C3.34922 2.15872 3.19505 2.52956 2.88672 2.83789C2.57839 3.14622 2.20755 3.30039 1.77422 3.30039ZM1.77422 7.45039C1.34089 7.45039 0.970052 7.29622 0.661719 6.98789C0.353385 6.67956 0.199219 6.30872 0.199219 5.87539C0.199219 5.44206 0.353385 5.07122 0.661719 4.76289C0.970052 4.45456 1.34089 4.30039 1.77422 4.30039C2.20755 4.30039 2.57839 4.45456 2.88672 4.76289C3.19505 5.07122 3.34922 5.44206 3.34922 5.87539C3.34922 6.30872 3.19505 6.67956 2.88672 6.98789C2.57839 7.29622 2.20755 7.45039 1.77422 7.45039Z" fill="#002953"/>
</svg>
