<svg width="128" height="128" viewBox="0 0 128 128" fill="none" xmlns="http://www.w3.org/2000/svg">
<g id="Group 238394">
<g id="Group 238392">
<circle id="Ellipse 1" cx="64" cy="64" r="53.5652" fill="#E7F5FF"/>
<path id="Ellipse 2" d="M128 64C128 99.3462 99.3462 128 64 128C28.6538 128 0 99.3462 0 64C0 28.6538 28.6538 0 64 0C99.3462 0 128 28.6538 128 64ZM2.4512 64C2.4512 97.9925 30.0075 125.549 64 125.549C97.9925 125.549 125.549 97.9925 125.549 64C125.549 30.0075 97.9925 2.4512 64 2.4512C30.0075 2.4512 2.4512 30.0075 2.4512 64Z" fill="#E7F5FF"/>
</g>
<g id="12-Lock">
<path id="Vector" d="M74.2188 44.375V40.3372C74.2147 37.6134 73.1309 35.0024 71.2049 33.0764C69.2789 31.1504 66.6678 30.0666 63.9441 30.0625H63.0559C60.3322 30.0666 57.7211 31.1504 55.7951 33.0764C53.8691 35.0024 52.7853 37.6134 52.7812 40.3372V44.375C51.5629 44.375 50.3945 44.859 49.533 45.7205C48.6715 46.582 48.1875 47.7504 48.1875 48.9688V61.2094C48.1915 63.523 49.1124 65.7407 50.7484 67.3766C52.3843 69.0126 54.602 69.9335 56.9156 69.9375H70.0844C72.398 69.9335 74.6157 69.0126 76.2516 67.3766C77.8876 65.7407 78.8085 63.523 78.8125 61.2094V48.9688C78.8125 47.7504 78.3285 46.582 77.467 45.7205C76.6055 44.859 75.4371 44.375 74.2188 44.375ZM55.8438 40.3372C55.8438 38.4244 56.6036 36.5899 57.9562 35.2374C59.3087 33.8849 61.1431 33.125 63.0559 33.125H63.9441C65.8569 33.125 67.6913 33.8849 69.0438 35.2374C70.3964 36.5899 71.1562 38.4244 71.1562 40.3372V44.375H55.8438V40.3372ZM75.75 61.2094C75.75 62.712 75.1531 64.1531 74.0906 65.2156C73.0281 66.2781 71.587 66.875 70.0844 66.875H56.9156C55.413 66.875 53.9719 66.2781 52.9094 65.2156C51.8469 64.1531 51.25 62.712 51.25 61.2094V48.9688C51.25 48.5626 51.4113 48.1732 51.6985 47.886C51.9857 47.5988 52.3751 47.4375 52.7812 47.4375H74.2188C74.6249 47.4375 75.0143 47.5988 75.3015 47.886C75.5887 48.1732 75.75 48.5626 75.75 48.9688V61.2094Z" fill="#4C87EE"/>
<path id="Vector_2" d="M65.0313 55.7275V60.75C65.0313 61.1561 64.8699 61.5456 64.5828 61.8328C64.2956 62.1199 63.9061 62.2813 63.5 62.2813C63.0939 62.2813 62.7044 62.1199 62.4172 61.8328C62.1301 61.5456 61.9688 61.1561 61.9688 60.75V55.7275C61.3849 55.3904 60.9286 54.8701 60.6706 54.2473C60.4126 53.6244 60.3674 52.9339 60.5419 52.2827C60.7163 51.6315 61.1008 51.0561 61.6357 50.6457C62.1705 50.2353 62.8258 50.0128 63.5 50.0128C64.1742 50.0128 64.8295 50.2353 65.3643 50.6457C65.8992 51.0561 66.2837 51.6315 66.4581 52.2827C66.6326 52.9339 66.5874 53.6244 66.3294 54.2473C66.0714 54.8701 65.6151 55.3904 65.0313 55.7275Z" fill="#4C87EE"/>
</g>
<rect id="Rectangle 1" x="40.5" y="76.5" width="48" height="13" rx="6.5" stroke="#4C87EE" stroke-width="3"/>
<g id="Group 238391">
<circle id="Ellipse 3" cx="50.5" cy="83" r="2.5" fill="#4C87EE"/>
<circle id="Ellipse 4" cx="59.5" cy="83" r="2.5" fill="#4C87EE"/>
<circle id="Ellipse 5" cx="68.5" cy="83" r="2.5" fill="#4C87EE"/>
<circle id="Ellipse 6" cx="77.5" cy="83" r="2.5" fill="#4C87EE"/>
</g>
</g>
</svg>
