<svg xmlns="http://www.w3.org/2000/svg" width="52" height="48" viewBox="0 0 52 48">
  <g id="Group_8678" data-name="Group 8678" transform="translate(-7.35 -8.71)">
    <path id="Path_30976" data-name="Path 30976" d="M44.077,18.871H42.358V17.51a9.01,9.01,0,0,0-18.015,0v1.36H22.623a1.564,1.564,0,0,0-1.582,1.546V35.554A1.564,1.564,0,0,0,22.623,37.1H44.077a1.564,1.564,0,0,0,1.582-1.546V20.416A1.564,1.564,0,0,0,44.077,18.871Zm-16.57-1.36a5.845,5.845,0,0,1,11.687,0v1.36H27.507ZM42.495,34H24.205V21.962h18.29ZM8.827,48.538l1.2-1.164L8.827,46.2a1.531,1.531,0,0,1,0-2.185,1.6,1.6,0,0,1,2.236,0l1.192,1.175,1.2-1.144A1.611,1.611,0,0,1,15.7,44.04a1.523,1.523,0,0,1,.005,2.19L14.5,47.4l1.2,1.164a1.531,1.531,0,0,1,0,2.185,1.619,1.619,0,0,1-2.247,0l-1.2-1.2-1.2,1.164a1.548,1.548,0,0,1-1.118.453,1.58,1.58,0,0,1-1.118-.453,1.531,1.531,0,0,1,.011-2.185Zm8.354,6.626A1.564,1.564,0,0,1,15.6,56.71H8.932a1.546,1.546,0,1,1,0-3.091H15.6A1.564,1.564,0,0,1,17.18,55.164Zm5.706-6.626,1.2-1.164-1.2-1.175a1.52,1.52,0,0,1,.145-2.042,1.61,1.61,0,0,1,2.092-.112l1.2,1.175,1.192-1.175a1.606,1.606,0,0,1,1.549-.444,1.564,1.564,0,0,1,1.141,1.115,1.523,1.523,0,0,1-.454,1.513L28.561,47.4l1.192,1.164a1.511,1.511,0,0,1,0,2.185,1.548,1.548,0,0,1-1.118.453,1.58,1.58,0,0,1-1.118-.453l-1.192-1.164-1.2,1.134a1.609,1.609,0,0,1-2.236,0,1.511,1.511,0,0,1,0-2.185Zm8.354,6.626a1.564,1.564,0,0,1-1.582,1.546H22.992a1.546,1.546,0,1,1,0-3.091h6.666A1.564,1.564,0,0,1,31.24,55.164Zm5.706-6.626,1.192-1.164L36.947,46.2a1.52,1.52,0,0,1,.145-2.042,1.61,1.61,0,0,1,2.092-.112l1.192,1.175,1.2-1.175a1.609,1.609,0,0,1,2.2.038,1.52,1.52,0,0,1,.039,2.147l-1.2,1.175,1.2,1.164a1.511,1.511,0,0,1,0,2.185,1.609,1.609,0,0,1-2.236,0l-1.2-1.164-1.192,1.164a1.58,1.58,0,0,1-1.118.453,1.548,1.548,0,0,1-1.118-.453,1.511,1.511,0,0,1,0-2.216Zm8.343,6.626a1.564,1.564,0,0,1-1.582,1.546H37.042a1.546,1.546,0,1,1,0-3.091h6.666A1.564,1.564,0,0,1,45.29,55.164ZM51,48.538l1.2-1.164L51,46.2a1.52,1.52,0,0,1,.129-2.067,1.61,1.61,0,0,1,2.118-.087l1.2,1.144,1.192-1.144a1.6,1.6,0,0,1,2.236,0,1.531,1.531,0,0,1,0,2.185l-1.2,1.175,1.2,1.164a1.531,1.531,0,0,1,0,2.185,1.58,1.58,0,0,1-1.118.453,1.548,1.548,0,0,1-1.118-.453l-1.192-1.2-1.192,1.164a1.619,1.619,0,0,1-2.247,0A1.531,1.531,0,0,1,51,48.538Zm8.354,6.626a1.564,1.564,0,0,1-1.582,1.546H51.1a1.546,1.546,0,1,1,0-3.091h6.666a1.564,1.564,0,0,1,1.582,1.546Z" transform="translate(0 0)" fill="#ff6700"/>
  </g>
</svg>
