<svg width="23" height="21" viewBox="0 0 23 21" fill="none" xmlns="http://www.w3.org/2000/svg">
<path fill-rule="evenodd" clip-rule="evenodd" d="M11.9509 16.8338C12.095 16.738 12.2642 16.6868 12.4373 16.6868H16.8285C18.2757 16.6868 19.4134 16.2083 20.1871 15.4346C20.9608 14.6609 21.4394 13.5232 21.4394 12.076V5.48907C21.4394 4.04193 20.9608 2.90423 20.1871 2.13051C19.4134 1.3568 18.2757 0.878252 16.8285 0.878252H5.8504C4.40326 0.878252 3.26555 1.3568 2.49184 2.13051C1.71813 2.90423 1.23958 4.04193 1.23958 5.48907V12.076C1.23958 13.5232 1.71813 14.6609 2.49184 15.4346C3.26555 16.2083 4.40326 16.6868 5.8504 16.6868C6.33545 16.6868 6.72865 17.0801 6.72865 17.5651V19.9035C6.72865 20.0756 6.92002 20.1804 7.06483 20.0838L11.9509 16.8338ZM12.4373 17.5651L7.552 20.8146C6.82744 21.2976 5.8504 20.7817 5.8504 19.9035V17.5651C2.55696 17.5651 0.361328 15.3695 0.361328 12.076V5.48907C0.361328 2.19563 2.55696 0 5.8504 0H16.8285C20.122 0 22.3176 2.19563 22.3176 5.48907V12.076C22.3176 15.3695 20.122 17.5651 16.8285 17.5651H12.4373Z" fill="#002953"/>
<path fill-rule="evenodd" clip-rule="evenodd" d="M8.75195 6.89934C8.75195 5.47155 9.90209 4.32129 11.3299 4.32129C12.7578 4.32129 13.9079 5.47155 13.9079 6.89934C13.9079 7.98768 13.2063 8.56879 12.6646 8.93885C12.163 9.28528 11.8305 9.60497 11.8305 10.1907V10.4534C11.8305 10.7299 11.6064 10.954 11.3299 10.954C11.0535 10.954 10.8293 10.7299 10.8293 10.4534V10.1907C10.8293 9.0748 11.5476 8.49344 12.0968 8.11429L12.0989 8.11283L12.0989 8.11283C12.5833 7.78204 12.9067 7.46218 12.9067 6.89934C12.9067 6.02444 12.2048 5.32246 11.3299 5.32246C10.4551 5.32246 9.75312 6.02444 9.75312 6.89934C9.75312 7.1758 9.529 7.39992 9.25254 7.39992C8.97607 7.39992 8.75195 7.1758 8.75195 6.89934Z" fill="#002953"/>
<path fill-rule="evenodd" clip-rule="evenodd" d="M10.8223 13.4435C10.8223 13.167 11.0464 12.9429 11.3228 12.9429H11.3341C11.6106 12.9429 11.8347 13.167 11.8347 13.4435C11.8347 13.7199 11.6106 13.944 11.3341 13.944H11.3228C11.0464 13.944 10.8223 13.7199 10.8223 13.4435Z" fill="#002953"/>
</svg>
