<svg id="Group_18012" data-name="Group 18012" xmlns="http://www.w3.org/2000/svg" xmlns:xlink="http://www.w3.org/1999/xlink" width="18.036" height="16" viewBox="0 0 18.036 16">
  <defs>
    <clipPath id="clip-path">
      <rect id="Rectangle_3432" data-name="Rectangle 3432" width="18.036" height="16" fill="#fff"/>
    </clipPath>
  </defs>
  <g id="Group_18011" data-name="Group 18011" clip-path="url(#clip-path)">
    <path id="Path_32558" data-name="Path 32558" d="M6.049,0H16.368a.3.3,0,0,0,.067.032,1.79,1.79,0,0,1,1.6,1.949q0,5.609,0,11.218A2.7,2.7,0,0,1,15.244,16q-6.228.009-12.455,0A2.7,2.7,0,0,1,0,13.2Q0,9.94,0,6.682A1.656,1.656,0,0,1,1.767,4.921c.78,0,1.56,0,2.34,0,.088,0,.176-.008.276-.013,0-.123,0-.215,0-.307,0-.931-.006-1.861,0-2.792A1.776,1.776,0,0,1,5.735.079c.1-.028.209-.052.313-.078M4.917,14.947c.038,0,.1.011.167.011q5.1,0,10.192,0a1.912,1.912,0,0,0,.448-.046,1.681,1.681,0,0,0,1.288-1.753q0-5.207,0-10.414c0-.3.008-.6,0-.906a.766.766,0,0,0-.806-.783q-5,0-9.99.006a.988.988,0,0,0-.508.17.819.819,0,0,0-.3.758q0,5.547,0,11.094a2.967,2.967,0,0,1-.071.8,11.123,11.123,0,0,1-.416,1.067m-.547-9c-.919,0-1.808-.008-2.7,0a.635.635,0,0,0-.647.687c-.008.377,0,.754,0,1.131,0,1.819,0,3.638,0,5.456a1.678,1.678,0,1,0,3.354.009q.008-3.533,0-7.066c0-.065-.007-.13-.012-.222" transform="translate(0 -0.001)" fill="#fff"/>
    <path id="Path_32559" data-name="Path 32559" d="M151.663,61.726h3.1c.461,0,.648.18.649.633q0,1.421,0,2.842c0,.45-.195.645-.643.645q-3.095,0-6.19,0c-.451,0-.647-.193-.648-.639q0-1.421,0-2.842c0-.458.184-.638.643-.639h3.095m2.695,1.041h-5.379v2.021h5.379Z" transform="translate(-140.457 -58.61)" fill="#fff"/>
    <path id="Path_32560" data-name="Path 32560" d="M151.819,169.761c-1.014,0-2.027,0-3.041,0a1.117,1.117,0,0,1-.345-.044.467.467,0,0,1-.333-.481.475.475,0,0,1,.37-.48,1.04,1.04,0,0,1,.273-.032q3.091,0,6.183,0c.042,0,.084,0,.126,0a.53.53,0,0,1,.52.512.525.525,0,0,1-.535.521c-.31.011-.62,0-.93,0h-2.287" transform="translate(-140.625 -160.204)" fill="#fff"/>
    <path id="Path_32561" data-name="Path 32561" d="M151.743,215.837c-1.049,0-2.1,0-3.146,0a.515.515,0,0,1-.54-.7.477.477,0,0,1,.464-.327q3.234-.006,6.468,0a.5.5,0,0,1,.5.521.524.524,0,0,1-.553.5c-1.065,0-2.131,0-3.2,0" transform="translate(-140.547 -203.964)" fill="#fff"/>
  </g>
</svg>
