<svg width="63" height="65" viewBox="0 0 63 65" fill="none" xmlns="http://www.w3.org/2000/svg">
<path d="M47.6085 25.8965H60.8276C61.4032 25.8983 61.9548 26.1277 62.3618 26.5347C62.7689 26.9418 62.9983 27.4933 63 28.069V32.4138C62.9983 32.9894 62.7689 33.541 62.3618 33.948C61.9548 34.3551 61.4032 34.5845 60.8276 34.5862H2.17241C1.59678 34.5845 1.04522 34.3551 0.638184 33.948C0.23115 33.541 0.00171917 32.9894 0 32.4138L0 28.069C0.00171917 27.4933 0.23115 26.9418 0.638184 26.5347C1.04522 26.1277 1.59678 25.8983 2.17241 25.8965H47.6085Z" fill="url(#paint0_linear_1_6012)"/>
<path d="M39.9181 34.5862H59.7414L55.1141 60.5248C54.8877 61.7802 54.2275 62.9161 53.2486 63.7341C52.2698 64.552 51.0347 65.0001 49.7591 65H13.2408C11.9652 65.0001 10.7301 64.552 9.75133 63.7341C8.77252 62.9161 8.11224 61.7802 7.88585 60.5248L3.25861 34.5862H39.9181Z" fill="url(#paint1_linear_1_6012)"/>
<path d="M31.5 31.3276C32.0999 31.3276 32.5862 30.8413 32.5862 30.2414C32.5862 29.6415 32.0999 29.1552 31.5 29.1552C30.9001 29.1552 30.4138 29.6415 30.4138 30.2414C30.4138 30.8413 30.9001 31.3276 31.5 31.3276Z" fill="url(#paint2_linear_1_6012)"/>
<path d="M31.4999 31.3276C32.0998 31.3276 32.5861 30.8413 32.5861 30.2414C32.5861 29.6415 32.0998 29.1552 31.4999 29.1552C30.9 29.1552 30.4137 29.6415 30.4137 30.2414C30.4137 30.8413 30.9 31.3276 31.4999 31.3276Z" fill="url(#paint3_linear_1_6012)"/>
<path d="M31.5 31.3276C32.0999 31.3276 32.5862 30.8413 32.5862 30.2414C32.5862 29.6415 32.0999 29.1552 31.5 29.1552C30.9001 29.1552 30.4138 29.6415 30.4138 30.2414C30.4138 30.8413 30.9001 31.3276 31.5 31.3276Z" fill="url(#paint4_linear_1_6012)"/>
<path d="M31.5 31.3276C32.0999 31.3276 32.5862 30.8413 32.5862 30.2414C32.5862 29.6415 32.0999 29.1552 31.5 29.1552C30.9001 29.1552 30.4138 29.6415 30.4138 30.2414C30.4138 30.8413 30.9001 31.3276 31.5 31.3276Z" fill="url(#paint5_linear_1_6012)"/>
<path d="M43.8792 43.6328C43.8792 42.6607 43.2496 41.8727 42.473 41.8727C41.6963 41.8727 41.0668 42.6607 41.0668 43.6328V55.9534C41.0668 56.9255 41.6963 57.7135 42.473 57.7135C43.2496 57.7135 43.8792 56.9255 43.8792 55.9534V43.6328Z" fill="url(#paint6_linear_1_6012)"/>
<path d="M32.906 43.6328C32.906 42.6607 32.2764 41.8727 31.4998 41.8727C30.7232 41.8727 30.0936 42.6607 30.0936 43.6328V55.9534C30.0936 56.9255 30.7232 57.7135 31.4998 57.7135C32.2764 57.7135 32.906 56.9255 32.906 55.9534V43.6328Z" fill="url(#paint7_linear_1_6012)"/>
<path d="M21.9329 43.6328C21.9329 42.6607 21.3033 41.8727 20.5267 41.8727C19.7501 41.8727 19.1205 42.6607 19.1205 43.6328V55.9534C19.1205 56.9255 19.7501 57.7135 20.5267 57.7135C21.3033 57.7135 21.9329 56.9255 21.9329 55.9534V43.6328Z" fill="url(#paint8_linear_1_6012)"/>
<g filter="url(#filter0_dddd_1_6012)">
<path d="M31.5 36.7586C41.0983 36.7586 48.8793 28.9776 48.8793 19.3793C48.8793 9.78098 41.0983 2 31.5 2C21.9016 2 14.1207 9.78098 14.1207 19.3793C14.1207 28.9776 21.9016 36.7586 31.5 36.7586Z" fill="#ABC1DF"/>
</g>
<g filter="url(#filter1_dddd_1_6012)">
<path fill-rule="evenodd" clip-rule="evenodd" d="M31.5 36.2586C40.8222 36.2586 48.3793 28.7015 48.3793 19.3793C48.3793 10.0571 40.8222 2.5 31.5 2.5C22.1778 2.5 14.6207 10.0571 14.6207 19.3793C14.6207 28.7015 22.1778 36.2586 31.5 36.2586ZM48.8793 19.3793C48.8793 28.9776 41.0983 36.7586 31.5 36.7586C21.9016 36.7586 14.1207 28.9776 14.1207 19.3793C14.1207 9.78098 21.9016 2 31.5 2C41.0983 2 48.8793 9.78098 48.8793 19.3793Z" fill="#8DA3BE"/>
</g>
<g filter="url(#filter2_dddd_1_6012)">
<path d="M40.1897 17.2069H33.6724V10.6896C33.6724 10.1135 33.4435 9.5609 33.0361 9.1535C32.6287 8.74609 32.0762 8.51721 31.5 8.51721C30.9238 8.51721 30.3713 8.74609 29.9639 9.1535C29.5565 9.5609 29.3276 10.1135 29.3276 10.6896V17.2069H22.8104C22.2342 17.2069 21.6816 17.4357 21.2742 17.8432C20.8668 18.2506 20.6379 18.8031 20.6379 19.3793C20.6379 19.9554 20.8668 20.508 21.2742 20.9154C21.6816 21.3228 22.2342 21.5517 22.8104 21.5517H29.3276V28.0689C29.3276 28.6451 29.5565 29.1977 29.9639 29.6051C30.3713 30.0125 30.9238 30.2414 31.5 30.2414C32.0762 30.2414 32.6287 30.0125 33.0361 29.6051C33.4435 29.1977 33.6724 28.6451 33.6724 28.0689V21.5517H40.1897C40.7658 21.5517 41.3184 21.3228 41.7258 20.9154C42.1332 20.508 42.3621 19.9554 42.3621 19.3793C42.3621 18.8031 42.1332 18.2506 41.7258 17.8432C41.3184 17.4357 40.7658 17.2069 40.1897 17.2069Z" fill="white"/>
</g>
<g filter="url(#filter3_dddd_1_6012)">
<path fill-rule="evenodd" clip-rule="evenodd" d="M33.1724 17.7069V10.6896C33.1724 10.2461 32.9962 9.82069 32.6826 9.50705C32.3689 9.19341 31.9436 9.01721 31.5 9.01721C31.0565 9.01721 30.6311 9.19341 30.3174 9.50705C30.0038 9.82069 29.8276 10.2461 29.8276 10.6896V17.7069H22.8104C22.3668 17.7069 21.9414 17.8831 21.6278 18.1967C21.3141 18.5103 21.1379 18.9357 21.1379 19.3793C21.1379 19.8228 21.3141 20.2482 21.6278 20.5619C21.9414 20.8755 22.3668 21.0517 22.8104 21.0517H29.8276V28.0689C29.8276 28.5125 30.0038 28.9379 30.3174 29.2515C30.6311 29.5651 31.0565 29.7414 31.5 29.7414C31.9436 29.7414 32.3689 29.5651 32.6826 29.2515C32.9962 28.9379 33.1724 28.5125 33.1724 28.0689V21.0517H40.1897C40.6332 21.0517 41.0586 20.8755 41.3722 20.5619C41.6859 20.2482 41.8621 19.8228 41.8621 19.3793C41.8621 18.9357 41.6859 18.5103 41.3722 18.1967C41.0586 17.8831 40.6332 17.7069 40.1897 17.7069H33.1724ZM40.1897 17.2069C40.7658 17.2069 41.3184 17.4357 41.7258 17.8432C42.1332 18.2506 42.3621 18.8031 42.3621 19.3793C42.3621 19.9554 42.1332 20.508 41.7258 20.9154C41.3184 21.3228 40.7658 21.5517 40.1897 21.5517H33.6724V28.0689C33.6724 28.6451 33.4435 29.1977 33.0361 29.6051C32.6287 30.0125 32.0762 30.2414 31.5 30.2414C30.9238 30.2414 30.3713 30.0125 29.9639 29.6051C29.5565 29.1977 29.3276 28.6451 29.3276 28.0689V21.5517H22.8104C22.2342 21.5517 21.6816 21.3228 21.2742 20.9154C20.8668 20.508 20.6379 19.9554 20.6379 19.3793C20.6379 18.8031 20.8668 18.2506 21.2742 17.8432C21.6816 17.4357 22.2342 17.2069 22.8104 17.2069H29.3276V10.6896C29.3276 10.1135 29.5565 9.5609 29.9639 9.1535C30.3713 8.74609 30.9238 8.51721 31.5 8.51721C32.0762 8.51721 32.6287 8.74609 33.0361 9.1535C33.4435 9.5609 33.6724 10.1135 33.6724 10.6896V17.2069H40.1897Z" fill="#8DA3BE"/>
</g>
<defs>
<filter id="filter0_dddd_1_6012" x="12.1707" y="0.45" width="38.6586" height="38.6586" filterUnits="userSpaceOnUse" color-interpolation-filters="sRGB">
<feFlood flood-opacity="0" result="BackgroundImageFix"/>
<feColorMatrix in="SourceAlpha" type="matrix" values="0 0 0 0 0 0 0 0 0 0 0 0 0 0 0 0 0 0 127 0" result="hardAlpha"/>
<feOffset dy="0.0203125"/>
<feGaussianBlur stdDeviation="0.183984"/>
<feColorMatrix type="matrix" values="0 0 0 0 0.501961 0 0 0 0 0.568627 0 0 0 0 0.65098 0 0 0 0.04575 0"/>
<feBlend mode="normal" in2="BackgroundImageFix" result="effect1_dropShadow_1_6012"/>
<feColorMatrix in="SourceAlpha" type="matrix" values="0 0 0 0 0 0 0 0 0 0 0 0 0 0 0 0 0 0 127 0" result="hardAlpha"/>
<feOffset dy="0.0875"/>
<feGaussianBlur stdDeviation="0.346875"/>
<feColorMatrix type="matrix" values="0 0 0 0 0.501961 0 0 0 0 0.568627 0 0 0 0 0.65098 0 0 0 0.078 0"/>
<feBlend mode="normal" in2="effect1_dropShadow_1_6012" result="effect2_dropShadow_1_6012"/>
<feColorMatrix in="SourceAlpha" type="matrix" values="0 0 0 0 0 0 0 0 0 0 0 0 0 0 0 0 0 0 127 0" result="hardAlpha"/>
<feOffset dy="0.210938"/>
<feGaussianBlur stdDeviation="0.580078"/>
<feColorMatrix type="matrix" values="0 0 0 0 0.501961 0 0 0 0 0.568627 0 0 0 0 0.65098 0 0 0 0.10125 0"/>
<feBlend mode="normal" in2="effect2_dropShadow_1_6012" result="effect3_dropShadow_1_6012"/>
<feColorMatrix in="SourceAlpha" type="matrix" values="0 0 0 0 0 0 0 0 0 0 0 0 0 0 0 0 0 0 127 0" result="hardAlpha"/>
<feOffset dy="0.4"/>
<feGaussianBlur stdDeviation="0.975"/>
<feColorMatrix type="matrix" values="0 0 0 0 0.501961 0 0 0 0 0.568627 0 0 0 0 0.65098 0 0 0 0.12 0"/>
<feBlend mode="normal" in2="effect3_dropShadow_1_6012" result="effect4_dropShadow_1_6012"/>
<feBlend mode="normal" in="SourceGraphic" in2="effect4_dropShadow_1_6012" result="shape"/>
</filter>
<filter id="filter1_dddd_1_6012" x="12.1707" y="0.45" width="38.6586" height="38.6586" filterUnits="userSpaceOnUse" color-interpolation-filters="sRGB">
<feFlood flood-opacity="0" result="BackgroundImageFix"/>
<feColorMatrix in="SourceAlpha" type="matrix" values="0 0 0 0 0 0 0 0 0 0 0 0 0 0 0 0 0 0 127 0" result="hardAlpha"/>
<feOffset dy="0.0203125"/>
<feGaussianBlur stdDeviation="0.183984"/>
<feColorMatrix type="matrix" values="0 0 0 0 0.501961 0 0 0 0 0.568627 0 0 0 0 0.65098 0 0 0 0.04575 0"/>
<feBlend mode="normal" in2="BackgroundImageFix" result="effect1_dropShadow_1_6012"/>
<feColorMatrix in="SourceAlpha" type="matrix" values="0 0 0 0 0 0 0 0 0 0 0 0 0 0 0 0 0 0 127 0" result="hardAlpha"/>
<feOffset dy="0.0875"/>
<feGaussianBlur stdDeviation="0.346875"/>
<feColorMatrix type="matrix" values="0 0 0 0 0.501961 0 0 0 0 0.568627 0 0 0 0 0.65098 0 0 0 0.078 0"/>
<feBlend mode="normal" in2="effect1_dropShadow_1_6012" result="effect2_dropShadow_1_6012"/>
<feColorMatrix in="SourceAlpha" type="matrix" values="0 0 0 0 0 0 0 0 0 0 0 0 0 0 0 0 0 0 127 0" result="hardAlpha"/>
<feOffset dy="0.210938"/>
<feGaussianBlur stdDeviation="0.580078"/>
<feColorMatrix type="matrix" values="0 0 0 0 0.501961 0 0 0 0 0.568627 0 0 0 0 0.65098 0 0 0 0.10125 0"/>
<feBlend mode="normal" in2="effect2_dropShadow_1_6012" result="effect3_dropShadow_1_6012"/>
<feColorMatrix in="SourceAlpha" type="matrix" values="0 0 0 0 0 0 0 0 0 0 0 0 0 0 0 0 0 0 127 0" result="hardAlpha"/>
<feOffset dy="0.4"/>
<feGaussianBlur stdDeviation="0.975"/>
<feColorMatrix type="matrix" values="0 0 0 0 0.501961 0 0 0 0 0.568627 0 0 0 0 0.65098 0 0 0 0.12 0"/>
<feBlend mode="normal" in2="effect3_dropShadow_1_6012" result="effect4_dropShadow_1_6012"/>
<feBlend mode="normal" in="SourceGraphic" in2="effect4_dropShadow_1_6012" result="shape"/>
</filter>
<filter id="filter2_dddd_1_6012" x="18.6879" y="6.96721" width="25.6241" height="25.6241" filterUnits="userSpaceOnUse" color-interpolation-filters="sRGB">
<feFlood flood-opacity="0" result="BackgroundImageFix"/>
<feColorMatrix in="SourceAlpha" type="matrix" values="0 0 0 0 0 0 0 0 0 0 0 0 0 0 0 0 0 0 127 0" result="hardAlpha"/>
<feOffset dy="0.0203125"/>
<feGaussianBlur stdDeviation="0.183984"/>
<feColorMatrix type="matrix" values="0 0 0 0 0.501961 0 0 0 0 0.568627 0 0 0 0 0.65098 0 0 0 0.04575 0"/>
<feBlend mode="normal" in2="BackgroundImageFix" result="effect1_dropShadow_1_6012"/>
<feColorMatrix in="SourceAlpha" type="matrix" values="0 0 0 0 0 0 0 0 0 0 0 0 0 0 0 0 0 0 127 0" result="hardAlpha"/>
<feOffset dy="0.0875"/>
<feGaussianBlur stdDeviation="0.346875"/>
<feColorMatrix type="matrix" values="0 0 0 0 0.501961 0 0 0 0 0.568627 0 0 0 0 0.65098 0 0 0 0.078 0"/>
<feBlend mode="normal" in2="effect1_dropShadow_1_6012" result="effect2_dropShadow_1_6012"/>
<feColorMatrix in="SourceAlpha" type="matrix" values="0 0 0 0 0 0 0 0 0 0 0 0 0 0 0 0 0 0 127 0" result="hardAlpha"/>
<feOffset dy="0.210938"/>
<feGaussianBlur stdDeviation="0.580078"/>
<feColorMatrix type="matrix" values="0 0 0 0 0.501961 0 0 0 0 0.568627 0 0 0 0 0.65098 0 0 0 0.10125 0"/>
<feBlend mode="normal" in2="effect2_dropShadow_1_6012" result="effect3_dropShadow_1_6012"/>
<feColorMatrix in="SourceAlpha" type="matrix" values="0 0 0 0 0 0 0 0 0 0 0 0 0 0 0 0 0 0 127 0" result="hardAlpha"/>
<feOffset dy="0.4"/>
<feGaussianBlur stdDeviation="0.975"/>
<feColorMatrix type="matrix" values="0 0 0 0 0.501961 0 0 0 0 0.568627 0 0 0 0 0.65098 0 0 0 0.12 0"/>
<feBlend mode="normal" in2="effect3_dropShadow_1_6012" result="effect4_dropShadow_1_6012"/>
<feBlend mode="normal" in="SourceGraphic" in2="effect4_dropShadow_1_6012" result="shape"/>
</filter>
<filter id="filter3_dddd_1_6012" x="18.6879" y="6.96721" width="25.6241" height="25.6241" filterUnits="userSpaceOnUse" color-interpolation-filters="sRGB">
<feFlood flood-opacity="0" result="BackgroundImageFix"/>
<feColorMatrix in="SourceAlpha" type="matrix" values="0 0 0 0 0 0 0 0 0 0 0 0 0 0 0 0 0 0 127 0" result="hardAlpha"/>
<feOffset dy="0.0203125"/>
<feGaussianBlur stdDeviation="0.183984"/>
<feColorMatrix type="matrix" values="0 0 0 0 0.501961 0 0 0 0 0.568627 0 0 0 0 0.65098 0 0 0 0.04575 0"/>
<feBlend mode="normal" in2="BackgroundImageFix" result="effect1_dropShadow_1_6012"/>
<feColorMatrix in="SourceAlpha" type="matrix" values="0 0 0 0 0 0 0 0 0 0 0 0 0 0 0 0 0 0 127 0" result="hardAlpha"/>
<feOffset dy="0.0875"/>
<feGaussianBlur stdDeviation="0.346875"/>
<feColorMatrix type="matrix" values="0 0 0 0 0.501961 0 0 0 0 0.568627 0 0 0 0 0.65098 0 0 0 0.078 0"/>
<feBlend mode="normal" in2="effect1_dropShadow_1_6012" result="effect2_dropShadow_1_6012"/>
<feColorMatrix in="SourceAlpha" type="matrix" values="0 0 0 0 0 0 0 0 0 0 0 0 0 0 0 0 0 0 127 0" result="hardAlpha"/>
<feOffset dy="0.210938"/>
<feGaussianBlur stdDeviation="0.580078"/>
<feColorMatrix type="matrix" values="0 0 0 0 0.501961 0 0 0 0 0.568627 0 0 0 0 0.65098 0 0 0 0.10125 0"/>
<feBlend mode="normal" in2="effect2_dropShadow_1_6012" result="effect3_dropShadow_1_6012"/>
<feColorMatrix in="SourceAlpha" type="matrix" values="0 0 0 0 0 0 0 0 0 0 0 0 0 0 0 0 0 0 127 0" result="hardAlpha"/>
<feOffset dy="0.4"/>
<feGaussianBlur stdDeviation="0.975"/>
<feColorMatrix type="matrix" values="0 0 0 0 0.501961 0 0 0 0 0.568627 0 0 0 0 0.65098 0 0 0 0.12 0"/>
<feBlend mode="normal" in2="effect3_dropShadow_1_6012" result="effect4_dropShadow_1_6012"/>
<feBlend mode="normal" in="SourceGraphic" in2="effect4_dropShadow_1_6012" result="shape"/>
</filter>
<linearGradient id="paint0_linear_1_6012" x1="-63.6653" y1="35.3787" x2="63.6653" y2="35.3787" gradientUnits="userSpaceOnUse">
<stop stop-color="#CADCF0"/>
<stop offset="1" stop-color="#A4BBDB"/>
</linearGradient>
<linearGradient id="paint1_linear_1_6012" x1="3.25957" y1="49.7931" x2="59.7417" y2="49.7931" gradientUnits="userSpaceOnUse">
<stop stop-color="#E9F3FC"/>
<stop offset="1" stop-color="#CADCF0"/>
</linearGradient>
<linearGradient id="paint2_linear_1_6012" x1="30.4139" y1="30.2414" x2="32.5862" y2="30.2414" gradientUnits="userSpaceOnUse">
<stop stop-color="#E9F3FC"/>
<stop offset="1" stop-color="#CADCF0"/>
</linearGradient>
<linearGradient id="paint3_linear_1_6012" x1="30.4137" y1="30.2414" x2="32.5861" y2="30.2414" gradientUnits="userSpaceOnUse">
<stop stop-color="#E9F3FC"/>
<stop offset="1" stop-color="#CADCF0"/>
</linearGradient>
<linearGradient id="paint4_linear_1_6012" x1="30.4139" y1="30.2414" x2="32.5862" y2="30.2414" gradientUnits="userSpaceOnUse">
<stop stop-color="#E9F3FC"/>
<stop offset="1" stop-color="#CADCF0"/>
</linearGradient>
<linearGradient id="paint5_linear_1_6012" x1="30.4138" y1="30.2414" x2="32.5862" y2="30.2414" gradientUnits="userSpaceOnUse">
<stop stop-color="#E9F3FC"/>
<stop offset="1" stop-color="#CADCF0"/>
</linearGradient>
<linearGradient id="paint6_linear_1_6012" x1="41.067" y1="49.7931" x2="43.8794" y2="49.7931" gradientUnits="userSpaceOnUse">
<stop stop-color="#559AFF"/>
<stop offset="1" stop-color="#2E69EF"/>
</linearGradient>
<linearGradient id="paint7_linear_1_6012" x1="30.0939" y1="49.7931" x2="32.9063" y2="49.7931" gradientUnits="userSpaceOnUse">
<stop stop-color="#559AFF"/>
<stop offset="1" stop-color="#2E69EF"/>
</linearGradient>
<linearGradient id="paint8_linear_1_6012" x1="19.1207" y1="49.7931" x2="21.9331" y2="49.7931" gradientUnits="userSpaceOnUse">
<stop stop-color="#559AFF"/>
<stop offset="1" stop-color="#2E69EF"/>
</linearGradient>
</defs>
</svg>
