<svg width="95" height="105" viewBox="0 0 95 105" fill="none" xmlns="http://www.w3.org/2000/svg">
<circle cx="47.5" cy="47" r="47" fill="#E5EAF7"/>
<path d="M11.25 99.0044L11.25 14.2827C11.25 13.334 12.0772 12.5371 13.1332 12.5371H82.9522C84.0083 12.5371 84.8354 13.334 84.8354 14.2827V99.0044C84.8354 99.953 84.0083 100.75 82.9522 100.75H13.1332C12.0772 100.75 11.25 99.953 11.25 99.0044Z" fill="white" stroke="#D3DAE1" stroke-width="0.5"/>
<mask id="mask0_6395_85022" style="mask-type:alpha" maskUnits="userSpaceOnUse" x="36" y="45" width="24" height="24">
<rect x="36" y="45" width="24" height="24" fill="#D9D9D9"/>
</mask>
<g mask="url(#mask0_6395_85022)">
<path d="M40.3077 64.5C39.8026 64.5 39.375 64.325 39.025 63.975C38.675 63.625 38.5 63.1974 38.5 62.6923V51.3077C38.5 50.8026 38.675 50.375 39.025 50.025C39.375 49.675 39.8026 49.5 40.3077 49.5H44.8652V51H40.3077C40.2307 51 40.1603 51.0321 40.0963 51.0962C40.0321 51.1602 40 51.2307 40 51.3077V62.6923C40 62.7692 40.0321 62.8398 40.0963 62.9038C40.1603 62.9679 40.2307 63 40.3077 63H55.6923C55.7693 63 55.8398 62.9679 55.9038 62.9038C55.9679 62.8398 56 62.7692 56 62.6923V51.3077C56 51.2307 55.9679 51.1602 55.9038 51.0962C55.8398 51.0321 55.7693 51 55.6923 51H51.1348V49.5H55.6923C56.1974 49.5 56.625 49.675 56.975 50.025C57.325 50.375 57.5 50.8026 57.5 51.3077V62.6923C57.5 63.1974 57.325 63.625 56.975 63.975C56.625 64.325 56.1974 64.5 55.6923 64.5H40.3077ZM48 60.15L43.3463 55.4962L44.4 54.4423L47.25 57.2923V49.5H48.75V57.2923L51.6 54.4423L52.6538 55.4962L48 60.15Z" fill="#999999"/>
</g>
<path d="M12.4506 11.5352H82.4964C83.5714 11.5352 84.4448 12.4168 84.4448 13.5018V20.0151H10.3594V13.646C10.3594 12.4789 11.2972 11.5352 12.4506 11.5352Z" fill="#FF6700"/>
<path d="M15.7504 15.472C15.7504 16.2012 15.1543 16.7917 14.4182 16.7917C13.6821 16.7917 13.0859 16.2012 13.0859 15.472C13.0859 14.7429 13.6821 14.1523 14.4182 14.1523C15.1543 14.1523 15.7504 14.7429 15.7504 15.472Z" fill="white"/>
<path d="M19.3481 15.472C19.3481 16.2012 18.7519 16.7917 18.0158 16.7917C17.2797 16.7917 16.6836 16.2012 16.6836 15.472C16.6836 14.7429 17.2797 14.1523 18.0158 14.1523C18.7519 14.1523 19.3481 14.7429 19.3481 15.472Z" fill="white"/>
<path d="M22.9457 15.472C22.9457 16.2012 22.3496 16.7917 21.6135 16.7917C20.8774 16.7917 20.2812 16.2012 20.2812 15.472C20.2812 14.7429 20.8774 14.1523 21.6135 14.1523C22.3496 14.1523 22.9457 14.7429 22.9457 15.472Z" fill="white"/>
</svg>
