<svg width="84" height="86" viewBox="0 0 84 86" fill="none" xmlns="http://www.w3.org/2000/svg">
<g clip-path="url(#clip0_129_1840)">
<path d="M68.7384 14.0228C68.7384 11.1932 66.4443 8.89941 63.6147 8.89941H5.12355C2.29422 8.89941 0 11.1933 0 14.0228V72.5136C0 73.9781 0.61548 75.2979 1.60064 76.2317H63.6147V77.6372H72.5892C74.7943 77.6372 76.6739 76.244 77.3963 74.2897C77.995 72.7074 78.2067 75.7327 68.7384 14.0228Z" fill="#98AFC9"/>
<path d="M63.6147 8.89941H5.12354C2.29421 8.89941 0 11.1933 0 14.0228V72.5136C0 75.3434 2.29421 77.6372 5.12354 77.6372H63.6145C66.4441 77.6372 68.7382 75.3434 68.7382 72.5136V14.0228C68.7383 11.1933 66.4441 8.89941 63.6147 8.89941Z" fill="#D2E2F3"/>
<path d="M3.12865 72.5138V14.0228C3.12865 11.1932 5.42287 8.89941 8.2522 8.89941H5.12355C2.29422 8.89941 0 11.1933 0 14.0228V72.5136C0 75.3434 2.29422 77.6372 5.12355 77.6372H8.2522C5.42302 77.6373 3.12865 75.3436 3.12865 72.5138Z" fill="#98AFC9"/>
<path d="M63.6147 8.89941H5.12355C2.29422 8.89941 0 11.1933 0 14.0228V27.184H68.7384V14.0228C68.7384 11.1933 66.4441 8.89941 63.6147 8.89941Z" fill="#98AFC9"/>
<path d="M54.8665 13.4795V14.5461C54.8665 15.583 54.0262 15.6412 52.9893 15.6412H52.3635C51.3268 15.6412 50.4863 15.583 50.4863 14.5461V13.4796C49.4937 14.1723 48.8436 15.322 48.8436 16.6242C48.8436 18.741 50.5597 20.4569 52.6763 20.4569C56.4303 20.4568 57.9215 15.6115 54.8665 13.4795ZM35.4685 13.4795V14.5461C35.4685 15.583 34.6281 15.4847 33.5913 15.4847H32.9655C31.9288 15.4847 31.0883 15.583 31.0883 14.5461V13.4796C30.0957 14.1723 29.4456 15.322 29.4456 16.6242C29.4456 18.741 31.1616 20.4569 33.2783 20.4569C35.3951 20.4569 37.111 18.741 37.111 16.6242C37.111 15.322 36.4609 14.1722 35.4685 13.4795ZM16.0705 13.4795V14.5461C16.0705 15.7549 14.9328 15.6412 13.5675 15.6412C12.5307 15.6412 11.6902 15.583 11.6902 14.5461V13.4796C8.63224 15.6137 10.1311 20.4569 13.8803 20.4569C15.9971 20.4569 17.713 18.741 17.713 16.6242C17.713 15.322 17.0629 14.1722 16.0705 13.4795Z" fill="white"/>
<path d="M14.1934 2.24023C15.2303 2.24023 16.0707 3.08074 16.0707 4.11746V14.5465C16.0707 15.5834 15.2303 16.4237 14.1934 16.4237H13.5677C12.5309 16.4237 11.6904 15.5834 11.6904 14.5465V4.11746C11.6904 3.08074 12.5309 2.24023 13.5677 2.24023H14.1934ZM33.5915 2.24023C34.6283 2.24023 35.4687 3.08074 35.4687 4.11746V14.5465C35.4687 15.5834 34.6283 16.4237 33.5915 16.4237H32.9657C31.929 16.4237 31.0885 15.5834 31.0885 14.5465V4.11746C31.0885 3.08074 31.929 2.24023 32.9657 2.24023H33.5915ZM52.9895 2.24023C54.0264 2.24023 54.8667 3.08074 54.8667 4.11746V14.5465C54.8667 15.5834 54.0264 16.4237 52.9895 16.4237H52.3637C51.327 16.4237 50.4865 15.5834 50.4865 14.5465V4.11746C50.4865 3.08074 51.327 2.24023 52.3637 2.24023H52.9895Z" fill="#585A60"/>
<path d="M14.1934 2.24023C15.2303 2.24023 16.0707 3.08074 16.0707 4.11746V14.5465C16.0707 15.5834 15.2303 16.4237 14.1934 16.4237H13.5677C12.5309 16.4237 11.6904 15.5834 11.6904 14.5465V4.11746C11.6904 3.08074 12.5309 2.24023 13.5677 2.24023H14.1934ZM33.5915 2.24023C34.6283 2.24023 35.4687 3.08074 35.4687 4.11746V14.5465C35.4687 15.5834 34.6283 16.4237 33.5915 16.4237H32.9657C31.929 16.4237 31.0885 15.5834 31.0885 14.5465V4.11746C31.0885 3.08074 31.929 2.24023 32.9657 2.24023H33.5915ZM52.9895 2.24023C54.0264 2.24023 54.8667 3.08074 54.8667 4.11746V14.5465C54.8667 15.5834 54.0264 16.4237 52.9895 16.4237H52.3637C51.327 16.4237 50.4865 15.5834 50.4865 14.5465V4.11746C50.4865 3.08074 51.327 2.24023 52.3637 2.24023H52.9895Z" fill="#007AE0"/>
<path d="M25.5662 38.7529H21.7035C21.3923 38.7529 21.0939 38.8765 20.8739 39.0966C20.6538 39.3166 20.5302 39.6151 20.5302 39.9263C20.5302 40.2375 20.6538 40.5359 20.8739 40.7559C21.0939 40.976 21.3923 41.0996 21.7035 41.0996H25.5662C25.8774 41.0996 26.1759 40.976 26.3959 40.7559C26.616 40.5359 26.7396 40.2375 26.7396 39.9263C26.7396 39.6151 26.616 39.3166 26.3959 39.0966C26.1759 38.8765 25.8774 38.7529 25.5662 38.7529ZM36.3051 38.7529H32.4419C32.1307 38.7529 31.8323 38.8765 31.6122 39.0966C31.3922 39.3166 31.2686 39.6151 31.2686 39.9263C31.2686 40.2375 31.3922 40.5359 31.6122 40.7559C31.8323 40.976 32.1307 41.0996 32.4419 41.0996H36.3051C36.613 41.0947 36.9066 40.9689 37.1226 40.7494C37.3386 40.5298 37.4597 40.2342 37.4597 39.9263C37.4597 39.6183 37.3386 39.3227 37.1226 39.1032C36.9066 38.8837 36.613 38.7579 36.3051 38.7529ZM47.0438 38.7529H43.1804C42.8693 38.7529 42.5708 38.8765 42.3508 39.0966C42.1307 39.3166 42.0071 39.6151 42.0071 39.9263C42.0071 40.2375 42.1307 40.5359 42.3508 40.7559C42.5708 40.976 42.8693 41.0996 43.1804 41.0996H47.0438C47.355 41.0996 47.6534 40.976 47.8734 40.7559C48.0935 40.5359 48.2171 40.2375 48.2171 39.9263C48.2171 39.6151 48.0935 39.3166 47.8734 39.0966C47.6534 38.8765 47.355 38.7529 47.0438 38.7529ZM57.7821 38.7529H53.919C53.6078 38.7529 53.3093 38.8765 53.0893 39.0966C52.8693 39.3166 52.7456 39.6151 52.7456 39.9263C52.7456 40.2375 52.8693 40.5359 53.0893 40.7559C53.3093 40.976 53.6078 41.0996 53.919 41.0996H57.7821C58.0901 41.0947 58.3837 40.9689 58.5997 40.7494C58.8157 40.5298 58.9368 40.2342 58.9368 39.9263C58.9368 39.6183 58.8157 39.3227 58.5997 39.1032C58.3837 38.8837 58.0901 38.7579 57.7821 38.7529ZM14.828 48.2058H10.9648C10.6537 48.2058 10.3552 48.3294 10.1352 48.5494C9.91512 48.7695 9.7915 49.0679 9.7915 49.3791C9.7915 49.6903 9.91512 49.9887 10.1352 50.2088C10.3552 50.4288 10.6537 50.5524 10.9648 50.5524H14.828C15.1392 50.5524 15.4376 50.4288 15.6577 50.2088C15.8777 49.9887 16.0014 49.6903 16.0014 49.3791C16.0014 49.0679 15.8777 48.7695 15.6577 48.5494C15.4376 48.3294 15.1392 48.2058 14.828 48.2058ZM25.5662 48.2058H21.7035C21.3923 48.2058 21.0939 48.3294 20.8739 48.5494C20.6538 48.7695 20.5302 49.0679 20.5302 49.3791C20.5302 49.6903 20.6538 49.9887 20.8739 50.2088C21.0939 50.4288 21.3923 50.5524 21.7035 50.5524H25.5662C25.7203 50.5525 25.8729 50.5221 26.0153 50.4632C26.1576 50.4042 26.287 50.3178 26.396 50.2088C26.5049 50.0999 26.5913 49.9705 26.6503 49.8281C26.7093 49.6858 26.7396 49.5332 26.7396 49.3791C26.7396 49.225 26.7093 49.0724 26.6503 48.9301C26.5913 48.7877 26.5049 48.6583 26.396 48.5494C26.287 48.4404 26.1576 48.354 26.0153 48.295C25.8729 48.2361 25.7203 48.2057 25.5662 48.2058ZM36.3051 48.2058H32.4419C32.1307 48.2058 31.8323 48.3294 31.6122 48.5494C31.3922 48.7695 31.2686 49.0679 31.2686 49.3791C31.2686 49.6903 31.3922 49.9887 31.6122 50.2088C31.8323 50.4288 32.1307 50.5524 32.4419 50.5524H36.3051C36.6163 50.5524 36.9147 50.4288 37.1348 50.2088C37.3548 49.9887 37.4784 49.6903 37.4784 49.3791C37.4784 49.0679 37.3548 48.7695 37.1348 48.5494C36.9147 48.3294 36.6163 48.2058 36.3051 48.2058ZM47.0438 48.2058H43.1804C42.8693 48.2058 42.5708 48.3294 42.3508 48.5494C42.1307 48.7695 42.0071 49.0679 42.0071 49.3791C42.0071 49.6903 42.1307 49.9887 42.3508 50.2088C42.5708 50.4288 42.8693 50.5524 43.1804 50.5524H47.0438C47.355 50.5524 47.6534 50.4288 47.8734 50.2088C48.0935 49.9887 48.2171 49.6903 48.2171 49.3791C48.2171 49.0679 48.0935 48.7695 47.8734 48.5494C47.6534 48.3294 47.355 48.2058 47.0438 48.2058ZM57.7821 48.2058H53.919C53.6078 48.2058 53.3093 48.3294 53.0893 48.5494C52.8693 48.7695 52.7456 49.0679 52.7456 49.3791C52.7456 49.6903 52.8693 49.9887 53.0893 50.2088C53.3093 50.4288 53.6078 50.5524 53.919 50.5524H57.7821C58.0933 50.5524 58.3918 50.4288 58.6118 50.2088C58.8319 49.9887 58.9555 49.6903 58.9555 49.3791C58.9555 49.0679 58.8319 48.7695 58.6118 48.5494C58.3918 48.3294 58.0933 48.2058 57.7821 48.2058ZM14.828 57.6586H10.9648C10.6537 57.6586 10.3552 57.7822 10.1352 58.0023C9.91512 58.2223 9.7915 58.5207 9.7915 58.8319C9.7915 59.1431 9.91512 59.4416 10.1352 59.6616C10.3552 59.8817 10.6537 60.0053 10.9648 60.0053H14.828C15.4761 60.0053 16.0014 59.48 16.0014 58.8319C16.0014 58.1839 15.4761 57.6586 14.828 57.6586ZM25.5662 57.6586H21.7035C21.3923 57.6586 21.0939 57.7822 20.8739 58.0023C20.6538 58.2223 20.5302 58.5207 20.5302 58.8319C20.5302 59.1431 20.6538 59.4416 20.8739 59.6616C21.0939 59.8817 21.3923 60.0053 21.7035 60.0053H25.5662C26.2143 60.0053 26.7396 59.48 26.7396 58.8319C26.7396 58.1839 26.2143 57.6586 25.5662 57.6586ZM36.3051 57.6586H32.4419C32.1307 57.6586 31.8323 57.7822 31.6122 58.0023C31.3922 58.2223 31.2686 58.5207 31.2686 58.8319C31.2686 59.1431 31.3922 59.4416 31.6122 59.6616C31.8323 59.8817 32.1307 60.0053 32.4419 60.0053H36.3051C36.9532 60.0053 37.4784 59.48 37.4784 58.8319C37.4784 58.1839 36.9532 57.6586 36.3051 57.6586ZM47.0438 57.6586H43.1804C42.8693 57.6586 42.5708 57.7822 42.3508 58.0023C42.1307 58.2223 42.0071 58.5207 42.0071 58.8319C42.0071 59.1431 42.1307 59.4416 42.3508 59.6616C42.5708 59.8817 42.8693 60.0053 43.1804 60.0053H47.0438C47.355 60.0053 47.6534 59.8817 47.8734 59.6616C48.0935 59.4416 48.2171 59.1431 48.2171 58.8319C48.2171 58.5207 48.0935 58.2223 47.8734 58.0023C47.6534 57.7822 47.355 57.6586 47.0438 57.6586ZM57.7821 57.6586H53.919C53.6078 57.6586 53.3093 57.7822 53.0893 58.0023C52.8693 58.2223 52.7456 58.5207 52.7456 58.8319C52.7456 59.1431 52.8693 59.4416 53.0893 59.6616C53.3093 59.8817 53.6078 60.0053 53.919 60.0053H57.7821C58.4302 60.0053 58.9555 59.48 58.9555 58.8319C58.9555 58.1839 58.4302 57.6586 57.7821 57.6586ZM14.828 67.1116H10.9648C10.6537 67.1116 10.3552 67.2352 10.1352 67.4552C9.91512 67.6753 9.7915 67.9737 9.7915 68.2849C9.7915 68.5961 9.91512 68.8946 10.1352 69.1146C10.3552 69.3346 10.6537 69.4583 10.9648 69.4583H14.828C15.1392 69.4583 15.4376 69.3346 15.6577 69.1146C15.8777 68.8946 16.0014 68.5961 16.0014 68.2849C16.0014 67.9737 15.8777 67.6753 15.6577 67.4552C15.4376 67.2352 15.1392 67.1116 14.828 67.1116ZM25.5662 67.1116H21.7035C21.3923 67.1116 21.0939 67.2352 20.8739 67.4552C20.6538 67.6753 20.5302 67.9737 20.5302 68.2849C20.5302 68.5961 20.6538 68.8946 20.8739 69.1146C21.0939 69.3346 21.3923 69.4583 21.7035 69.4583H25.5662C25.7203 69.4583 25.8729 69.4279 26.0153 69.369C26.1576 69.31 26.287 69.2236 26.396 69.1146C26.5049 69.0057 26.5913 68.8763 26.6503 68.734C26.7093 68.5916 26.7396 68.439 26.7396 68.2849C26.7396 68.1308 26.7093 67.9782 26.6503 67.8359C26.5913 67.6935 26.5049 67.5642 26.396 67.4552C26.287 67.3462 26.1576 67.2598 26.0153 67.2009C25.8729 67.1419 25.7203 67.1116 25.5662 67.1116ZM36.3051 67.1116H32.4419C32.1307 67.1116 31.8323 67.2352 31.6122 67.4552C31.3922 67.6753 31.2686 67.9737 31.2686 68.2849C31.2686 68.5961 31.3922 68.8946 31.6122 69.1146C31.8323 69.3346 32.1307 69.4583 32.4419 69.4583H36.3051C36.6163 69.4583 36.9147 69.3346 37.1348 69.1146C37.3548 68.8946 37.4784 68.5961 37.4784 68.2849C37.4784 67.9737 37.3548 67.6753 37.1348 67.4552C36.9147 67.2352 36.6163 67.1116 36.3051 67.1116ZM47.0438 67.1116H43.1804C42.8693 67.1116 42.5708 67.2352 42.3508 67.4552C42.1307 67.6753 42.0071 67.9737 42.0071 68.2849C42.0071 68.5961 42.1307 68.8946 42.3508 69.1146C42.5708 69.3346 42.8693 69.4583 43.1804 69.4583H47.0438C47.355 69.4583 47.6534 69.3346 47.8734 69.1146C48.0935 68.8946 48.2171 68.5961 48.2171 68.2849C48.2171 67.9737 48.0935 67.6753 47.8734 67.4552C47.6534 67.2352 47.355 67.1116 47.0438 67.1116Z" fill="#007AE0"/>
</g>
<path d="M68.7273 54.5742C60.3056 54.5742 53.4546 61.4252 53.4546 69.8469C53.4546 78.2687 60.3056 85.1197 68.7273 85.1197C77.149 85.1197 84 78.2687 84 69.8469C84 61.4252 77.149 54.5742 68.7273 54.5742Z" fill="#007AE0"/>
<path d="M64.4318 64.1727L74.1784 73.9194C74.3612 74.1022 74.4639 74.3502 74.4639 74.6087C74.4639 74.8673 74.3612 75.1152 74.1784 75.298C73.9956 75.4809 73.7476 75.5836 73.4891 75.5836C73.2305 75.5836 72.9826 75.4809 72.7997 75.298L63.0531 65.5514C62.8703 65.3686 62.7676 65.1206 62.7676 64.8621C62.7676 64.6035 62.8703 64.3556 63.0531 64.1727C63.2359 63.9899 63.4839 63.8872 63.7424 63.8872C64.001 63.8872 64.2489 63.9899 64.4318 64.1727Z" fill="url(#paint0_linear_129_1840)"/>
<path d="M74.1781 65.5516L64.4315 75.2983C64.2486 75.4811 64.0007 75.5838 63.7421 75.5838C63.4836 75.5838 63.2356 75.4811 63.0528 75.2983C62.87 75.1155 62.7673 74.8675 62.7673 74.6089C62.7673 74.3504 62.87 74.1024 63.0528 73.9196L72.7994 64.173C72.9822 63.9901 73.2302 63.8874 73.4888 63.8874C73.7473 63.8874 73.9953 63.9901 74.1781 64.173C74.3609 64.3558 74.4636 64.6038 74.4636 64.8623C74.4636 65.1209 74.3609 65.3688 74.1781 65.5516Z" fill="url(#paint1_linear_129_1840)"/>
<path d="M54.8668 2.84402C54.8668 1.8073 54.0265 0.966797 52.9896 0.966797H52.3638C51.3271 0.966797 50.4866 1.8073 50.4866 2.84402V13.2731C50.4866 14.3099 51.3271 15.1503 52.3638 15.1503H52.9896C54.0265 15.1503 54.8668 14.3099 54.8668 13.2731V2.84402Z" fill="#007AE0"/>
<defs>
<linearGradient id="paint0_linear_129_1840" x1="63.0533" y1="64.1729" x2="74.1785" y2="75.2981" gradientUnits="userSpaceOnUse">
<stop stop-color="#E9F3FC"/>
<stop offset="1" stop-color="#CADCF0"/>
</linearGradient>
<linearGradient id="paint1_linear_129_1840" x1="74.1779" y1="64.1732" x2="63.0527" y2="75.2983" gradientUnits="userSpaceOnUse">
<stop stop-color="#E9F3FC"/>
<stop offset="1" stop-color="#CADCF0"/>
</linearGradient>
<clipPath id="clip0_129_1840">
<rect width="77.6364" height="77.6364" fill="white" transform="translate(0 1.12012)"/>
</clipPath>
</defs>
</svg>
