<svg fill="none" height="79" viewBox="0 0 79 79" width="79" xmlns="http://www.w3.org/2000/svg"
    xmlns:xlink="http://www.w3.org/1999/xlink">
    <linearGradient id="a" gradientUnits="userSpaceOnUse" x1="-79.8343" x2="31.1328" y1="49.5004"
        y2="48.404">
        <stop offset="0" stop-color="#cadcf0" />
        <stop offset="1" stop-color="#95aed1" />
    </linearGradient>
    <clipPath id="b">
        <path d="m0 0h79v79h-79z" />
    </clipPath>
    <mask id="c" height="38" maskUnits="userSpaceOnUse" width="79" x="0" y="9">
        <path
            d="m32.5566 46.1326v-2.0037c0-1.2793 1.0352-2.3145 2.3145-2.3145h9.2578c1.2793 0 2.3145 1.0352 2.3145 2.3145v2.021c13.7443-1.0747 32.5566-5.3776 32.5566-15.9077v-4.6289c0-3.8287-3.1146-6.9434-6.9434-6.9434h-18.6699v-6.9433c0-1.2793-1.0352-2.31449-2.3144-2.31449h-23.1446c-1.2792 0-2.3144 1.03519-2.3144 2.31449v6.9433h-18.66994c-3.82872 0-6.94336 3.1147-6.94336 6.9434v4.6289c0 10.4184 18.7552 14.7787 32.5566 15.8904zm-2.3144-32.0916h18.5156v4.6289h-18.5156z"
            fill="#98afc9" />
    </mask>
    <g clip-path="url(#b)">
        <path
            d="m4.62891 43.667v18.9773c0 3.8287 3.11463 6.9433 6.94339 6.9433h55.8554c3.8288 0 6.9434-3.1146 6.9434-6.9433v-18.7951c-8.3066 4.7092-20.4411 6.3436-27.9277 6.9145v2.6228c0 1.2792-1.0352 2.3144-2.3145 2.3144h-9.2578c-1.2793 0-2.3145-1.0352-2.3145-2.3144v-2.6063c-9.114-.6855-20.2778-2.723-27.92769-7.1132z"
            fill="#d2e2f3" />
        <path
            d="m32.5566 46.1326v-2.0037c0-1.2793 1.0352-2.3145 2.3145-2.3145h9.2578c1.2793 0 2.3145 1.0352 2.3145 2.3145v2.021c13.7443-1.0747 32.5566-5.3776 32.5566-15.9077v-4.6289c0-3.8287-3.1146-6.9434-6.9434-6.9434h-18.6699v-6.9433c0-1.2793-1.0352-2.31449-2.3144-2.31449h-23.1446c-1.2792 0-2.3144 1.03519-2.3144 2.31449v6.9433h-18.66994c-3.82872 0-6.94336 3.1147-6.94336 6.9434v4.6289c0 10.4184 18.7552 14.7787 32.5566 15.8904zm-2.3144-32.0916h18.5156v4.6289h-18.5156z"
            fill="url(#a)" />
        <g mask="url(#c)">
            <path d="m16.3093 6.38086 44.2053 1.92187 1.7367 10.49257-36.9644-.0413z"
                fill="#007ae0" />
        </g>
        <path d="m37.1855 46.4434h4.629v4.6289h-4.629z" fill="#007ae0" />
    </g>
</svg>