<svg width="95" height="105" viewBox="0 0 95 105" fill="none" xmlns="http://www.w3.org/2000/svg">
<circle opacity="0.1" cx="47.5" cy="47" r="47" fill="#E5EAF7"/>
<path d="M11 14.2827L11 99.0044C11 100.107 11.9551 101 13.1332 101H82.9522C84.1304 101 85.0854 100.107 85.0854 99.0044V14.2827C85.0854 13.1805 84.1304 12.2871 82.9522 12.2871H13.1332C11.9551 12.2871 11 13.1805 11 14.2827Z" fill="#4D4D4D"/>
<mask id="mask0_6395_85179" style="mask-type:alpha" maskUnits="userSpaceOnUse" x="36" y="45" width="24" height="24">
<rect width="24" height="24" transform="matrix(1 0 0 -1 36 69)" fill="#D9D9D9"/>
</mask>
<g mask="url(#mask0_6395_85179)">
<path d="M40.3077 49.5C39.8026 49.5 39.375 49.675 39.025 50.025C38.675 50.375 38.5 50.8026 38.5 51.3077V62.6923C38.5 63.1974 38.675 63.625 39.025 63.975C39.375 64.325 39.8026 64.5 40.3077 64.5H44.8652V63H40.3077C40.2307 63 40.1603 62.9679 40.0963 62.9038C40.0321 62.8398 40 62.7693 40 62.6923V51.3077C40 51.2308 40.0321 51.1602 40.0963 51.0962C40.1603 51.0321 40.2307 51 40.3077 51H55.6923C55.7693 51 55.8398 51.0321 55.9038 51.0962C55.9679 51.1602 56 51.2308 56 51.3077V62.6923C56 62.7693 55.9679 62.8398 55.9038 62.9038C55.8398 62.9679 55.7693 63 55.6923 63H51.1348V64.5H55.6923C56.1974 64.5 56.625 64.325 56.975 63.975C57.325 63.625 57.5 63.1974 57.5 62.6923V51.3077C57.5 50.8026 57.325 50.375 56.975 50.025C56.625 49.675 56.1974 49.5 55.6923 49.5H40.3077ZM48 53.85L43.3463 58.5038L44.4 59.5577L47.25 56.7077V64.5H48.75V56.7077L51.6 59.5577L52.6538 58.5038L48 53.85Z" fill="#999999"/>
</g>
<path d="M12.4506 11.5352H82.4964C83.5714 11.5352 84.4448 12.4168 84.4448 13.5018V20.0151H10.3594V13.646C10.3594 12.4789 11.2972 11.5352 12.4506 11.5352Z" fill="#FF6700"/>
<path d="M15.7504 15.472C15.7504 16.2012 15.1543 16.7917 14.4182 16.7917C13.6821 16.7917 13.0859 16.2012 13.0859 15.472C13.0859 14.7429 13.6821 14.1523 14.4182 14.1523C15.1543 14.1523 15.7504 14.7429 15.7504 15.472Z" fill="white"/>
<path d="M19.3481 15.472C19.3481 16.2012 18.7519 16.7917 18.0158 16.7917C17.2797 16.7917 16.6836 16.2012 16.6836 15.472C16.6836 14.7429 17.2797 14.1523 18.0158 14.1523C18.7519 14.1523 19.3481 14.7429 19.3481 15.472Z" fill="white"/>
<path d="M22.9457 15.472C22.9457 16.2012 22.3496 16.7917 21.6135 16.7917C20.8774 16.7917 20.2812 16.2012 20.2812 15.472C20.2812 14.7429 20.8774 14.1523 21.6135 14.1523C22.3496 14.1523 22.9457 14.7429 22.9457 15.472Z" fill="white"/>
</svg>
