<svg xmlns="http://www.w3.org/2000/svg" width="51" height="51" viewBox="0 0 51 51">
  <g id="not-found" transform="translate(-0.001 0)">
    <path id="Path_28497" data-name="Path 28497" d="M76.436,61.041a1,1,0,1,0-.448,1.94,13.6,13.6,0,1,1-7.349.331,1,1,0,1,0-.622-1.892,15.439,15.439,0,0,0-6.148,3.789,15.607,15.607,0,1,0,14.568-4.168Zm0,0" transform="translate(-51.582 -54.924)" fill="#9bbaee" fill-rule="evenodd"/>
    <path id="Path_28498" data-name="Path 28498" d="M49.648,43.1,39.235,32.691a21.263,21.263,0,1,0-6.545,6.545L43.1,49.649A4.628,4.628,0,1,0,49.648,43.1Zm-1.405,5.14a2.652,2.652,0,0,1-3.735,0L33.52,37.256a.994.994,0,0,0-1.269-.114A19.29,19.29,0,0,1,7.637,7.637a19.29,19.29,0,0,1,29.5,24.615.993.993,0,0,0,.114,1.269L48.242,44.509a2.645,2.645,0,0,1,0,3.735Zm0,0" fill="#9bbaee" fill-rule="evenodd"/>
    <path id="Path_28499" data-name="Path 28499" d="M162.765,150.742a1,1,0,0,0-1.408,0l-4.6,4.6-4.6-4.6a1,1,0,0,0-1.408,1.408l4.6,4.6-4.6,4.6a1,1,0,1,0,1.408,1.408l4.6-4.6,4.6,4.6a1,1,0,1,0,1.409-1.408l-4.6-4.6,4.6-4.6a1,1,0,0,0,0-1.408Zm0,0" transform="translate(-135.474 -135.473)" fill="#9bbaee" fill-rule="evenodd"/>
    <path id="Path_28500" data-name="Path 28500" d="M198,59.37a1,1,0,1,0-1-1A1,1,0,0,0,198,59.37Zm0,0" transform="translate(-177.378 -51.651)" fill="#9bbaee" fill-rule="evenodd"/>
  </g>
</svg>
