<svg width="24" height="24" viewBox="0 0 24 24" fill="none" xmlns="http://www.w3.org/2000/svg">
<path d="M22.3994 15.8556L20.0125 7.25257C19.5028 5.41227 18.3922 3.79534 16.8574 2.65912C15.3227 1.52289 13.452 0.932674 11.5431 0.982395C9.63417 1.03212 7.79674 1.71892 6.32322 2.9335C4.84971 4.14808 3.82479 5.82063 3.41159 7.68497L1.56542 15.9933C1.47609 16.3958 1.47827 16.8132 1.5718 17.2148C1.66533 17.6163 1.84782 17.9918 2.10581 18.3134C2.3638 18.635 2.69071 18.8946 3.06241 19.073C3.43412 19.2514 3.84113 19.344 4.25343 19.3441H7.56479C7.7755 20.3818 8.33845 21.3147 9.15827 21.9848C9.97809 22.6549 11.0044 23.0209 12.0632 23.0209C13.122 23.0209 14.1483 22.6549 14.9681 21.9848C15.7879 21.3147 16.3509 20.3818 16.5616 19.3441H19.7471C20.1714 19.344 20.5898 19.2458 20.9699 19.0572C21.3499 18.8687 21.6812 18.5949 21.9381 18.2572C22.1949 17.9195 22.3702 17.5271 22.4504 17.1105C22.5305 16.6939 22.5125 16.2644 22.3994 15.8556ZM12.0632 21.1802C11.4956 21.1779 10.9426 21.0002 10.4798 20.6716C10.0171 20.3429 9.66717 19.8793 9.47798 19.3441H14.6484C14.4592 19.8793 14.1093 20.3429 13.6465 20.6716C13.1838 21.0002 12.6308 21.1779 12.0632 21.1802ZM20.477 17.1454C20.3913 17.259 20.2803 17.3509 20.1528 17.4139C20.0253 17.4768 19.8848 17.5091 19.7426 17.5081H4.25343C4.11597 17.508 3.98026 17.4771 3.85633 17.4177C3.73241 17.3582 3.62342 17.2716 3.53741 17.1644C3.45141 17.0571 3.39059 16.9319 3.35944 16.7981C3.32829 16.6642 3.3276 16.525 3.35743 16.3908L5.2036 8.08248C5.52891 6.61931 6.33399 5.30687 7.49085 4.35379C8.64771 3.40072 10.09 2.86171 11.5883 2.82246C13.0867 2.78321 14.5552 3.24596 15.7604 4.13715C16.9656 5.02835 17.8383 6.29683 18.2397 7.74097L20.6266 16.344C20.6656 16.48 20.6724 16.6233 20.6464 16.7624C20.6204 16.9015 20.5624 17.0326 20.477 17.1454Z" fill="white"/>
</svg>
