<svg id="notification" xmlns="http://www.w3.org/2000/svg" width="16" height="18" viewBox="0 0 16 18">
  <g id="Group_14712" data-name="Group 14712">
    <path id="Path_32404" data-name="Path 32404" d="M34.765,36.885a2.769,2.769,0,0,1-5.53,0H24.924A.922.922,0,0,1,24,35.962v-.924a1.847,1.847,0,0,1,1.847-1.846s0-3.693,0-3.693a6.155,6.155,0,0,1,4-5.766v-.081a2.154,2.154,0,0,1,4.308,0v.081a6.156,6.156,0,0,1,4,5.766v3.692A1.849,1.849,0,0,1,40,35.038v.924a.924.924,0,0,1-.924.922Zm-1.234,0H30.469a1.539,1.539,0,0,0,3.062,0Zm5.238-1.231v-.615a.617.617,0,0,0-.616-.615,1.229,1.229,0,0,1-1.23-1.231V29.5a4.925,4.925,0,0,0-3.555-4.731l-.445-.128v-.988a.923.923,0,0,0-1.846,0v.988l-.445.128A4.924,4.924,0,0,0,27.077,29.5v3.692a1.231,1.231,0,0,1-1.23,1.231.617.617,0,0,0-.616.615v.615Z" transform="translate(-24 -21.5)" fill="#fff"/>
  </g>
</svg>
