<svg width="70" height="22" viewBox="0 0 70 22" fill="none" xmlns="http://www.w3.org/2000/svg">
<path opacity="0.5" d="M37.618 6.5C37.574 6.5 37.538 6.486 37.51 6.458C37.482 6.43 37.468 6.396 37.468 6.356V2.45C37.468 2.406 37.482 2.37 37.51 2.342C37.538 2.314 37.574 2.3 37.618 2.3H38.092C38.148 2.3 38.19 2.316 38.218 2.348C38.246 2.376 38.264 2.398 38.272 2.414L39.43 4.574L40.6 2.414C40.608 2.398 40.626 2.376 40.654 2.348C40.682 2.316 40.724 2.3 40.78 2.3H41.248C41.292 2.3 41.328 2.314 41.356 2.342C41.384 2.37 41.398 2.406 41.398 2.45V6.356C41.398 6.396 41.384 6.43 41.356 6.458C41.328 6.486 41.292 6.5 41.248 6.5H40.744C40.7 6.5 40.664 6.486 40.636 6.458C40.612 6.43 40.6 6.396 40.6 6.356V3.758L39.76 5.36C39.74 5.396 39.714 5.428 39.682 5.456C39.65 5.48 39.608 5.492 39.556 5.492H39.31C39.254 5.492 39.21 5.48 39.178 5.456C39.15 5.428 39.126 5.396 39.106 5.36L38.266 3.758V6.356C38.266 6.396 38.252 6.43 38.224 6.458C38.196 6.486 38.162 6.5 38.122 6.5H37.618ZM42.4033 6.5C42.3633 6.5 42.3293 6.486 42.3013 6.458C42.2733 6.43 42.2593 6.396 42.2593 6.356V3.524C42.2593 3.484 42.2733 3.45 42.3013 3.422C42.3293 3.394 42.3633 3.38 42.4033 3.38H42.9013C42.9453 3.38 42.9793 3.394 43.0033 3.422C43.0313 3.45 43.0453 3.484 43.0453 3.524V6.356C43.0453 6.396 43.0313 6.43 43.0033 6.458C42.9793 6.486 42.9453 6.5 42.9013 6.5H42.4033ZM42.3793 2.864C42.3353 2.864 42.2993 2.852 42.2713 2.828C42.2473 2.8 42.2353 2.764 42.2353 2.72V2.288C42.2353 2.248 42.2473 2.214 42.2713 2.186C42.2993 2.158 42.3353 2.144 42.3793 2.144H42.9253C42.9693 2.144 43.0053 2.158 43.0333 2.186C43.0613 2.214 43.0753 2.248 43.0753 2.288V2.72C43.0753 2.764 43.0613 2.8 43.0333 2.828C43.0053 2.852 42.9693 2.864 42.9253 2.864H42.3793ZM43.9913 6.5C43.9513 6.5 43.9173 6.486 43.8893 6.458C43.8613 6.43 43.8473 6.396 43.8473 6.356V2.384C43.8473 2.344 43.8613 2.31 43.8893 2.282C43.9173 2.254 43.9513 2.24 43.9913 2.24H44.4893C44.5293 2.24 44.5633 2.254 44.5913 2.282C44.6193 2.31 44.6333 2.344 44.6333 2.384V6.356C44.6333 6.396 44.6193 6.43 44.5913 6.458C44.5633 6.486 44.5293 6.5 44.4893 6.5H43.9913ZM45.5792 6.5C45.5392 6.5 45.5052 6.486 45.4772 6.458C45.4492 6.43 45.4352 6.396 45.4352 6.356V2.384C45.4352 2.344 45.4492 2.31 45.4772 2.282C45.5052 2.254 45.5392 2.24 45.5792 2.24H46.0772C46.1172 2.24 46.1512 2.254 46.1792 2.282C46.2072 2.31 46.2212 2.344 46.2212 2.384V6.356C46.2212 6.396 46.2072 6.43 46.1792 6.458C46.1512 6.486 46.1172 6.5 46.0772 6.5H45.5792ZM47.29 6.5C47.25 6.5 47.216 6.486 47.188 6.458C47.16 6.43 47.146 6.396 47.146 6.356V3.524C47.146 3.484 47.16 3.45 47.188 3.422C47.216 3.394 47.25 3.38 47.29 3.38H47.788C47.832 3.38 47.866 3.394 47.89 3.422C47.918 3.45 47.932 3.484 47.932 3.524V6.356C47.932 6.396 47.918 6.43 47.89 6.458C47.866 6.486 47.832 6.5 47.788 6.5H47.29ZM47.266 2.864C47.222 2.864 47.186 2.852 47.158 2.828C47.134 2.8 47.122 2.764 47.122 2.72V2.288C47.122 2.248 47.134 2.214 47.158 2.186C47.186 2.158 47.222 2.144 47.266 2.144H47.812C47.856 2.144 47.892 2.158 47.92 2.186C47.948 2.214 47.962 2.248 47.962 2.288V2.72C47.962 2.764 47.948 2.8 47.92 2.828C47.892 2.852 47.856 2.864 47.812 2.864H47.266ZM50.1256 6.56C49.8056 6.56 49.5356 6.504 49.3156 6.392C49.0996 6.28 48.9336 6.122 48.8176 5.918C48.7056 5.714 48.6416 5.476 48.6256 5.204C48.6216 5.132 48.6196 5.044 48.6196 4.94C48.6196 4.836 48.6216 4.748 48.6256 4.676C48.6416 4.4 48.7076 4.162 48.8236 3.962C48.9436 3.758 49.1116 3.6 49.3276 3.488C49.5476 3.376 49.8136 3.32 50.1256 3.32C50.4376 3.32 50.7016 3.376 50.9176 3.488C51.1376 3.6 51.3056 3.758 51.4216 3.962C51.5416 4.162 51.6096 4.4 51.6256 4.676C51.6296 4.748 51.6316 4.836 51.6316 4.94C51.6316 5.044 51.6296 5.132 51.6256 5.204C51.6096 5.476 51.5436 5.714 51.4276 5.918C51.3156 6.122 51.1496 6.28 50.9296 6.392C50.7136 6.504 50.4456 6.56 50.1256 6.56ZM50.1256 5.966C50.3376 5.966 50.5016 5.9 50.6176 5.768C50.7336 5.632 50.7976 5.434 50.8096 5.174C50.8136 5.114 50.8156 5.036 50.8156 4.94C50.8156 4.844 50.8136 4.766 50.8096 4.706C50.7976 4.45 50.7336 4.254 50.6176 4.118C50.5016 3.982 50.3376 3.914 50.1256 3.914C49.9136 3.914 49.7496 3.982 49.6336 4.118C49.5176 4.254 49.4536 4.45 49.4416 4.706C49.4376 4.766 49.4356 4.844 49.4356 4.94C49.4356 5.036 49.4376 5.114 49.4416 5.174C49.4536 5.434 49.5176 5.632 49.6336 5.768C49.7496 5.9 49.9136 5.966 50.1256 5.966ZM52.4404 6.5C52.4004 6.5 52.3664 6.486 52.3384 6.458C52.3104 6.43 52.2964 6.396 52.2964 6.356V3.524C52.2964 3.484 52.3104 3.45 52.3384 3.422C52.3664 3.394 52.4004 3.38 52.4404 3.38H52.9324C52.9724 3.38 53.0064 3.394 53.0344 3.422C53.0624 3.45 53.0764 3.484 53.0764 3.524V3.77C53.1804 3.642 53.3124 3.536 53.4724 3.452C53.6364 3.364 53.8384 3.32 54.0784 3.32C54.3224 3.32 54.5344 3.376 54.7144 3.488C54.8944 3.596 55.0324 3.75 55.1284 3.95C55.2284 4.15 55.2784 4.39 55.2784 4.67V6.356C55.2784 6.396 55.2644 6.43 55.2364 6.458C55.2084 6.486 55.1744 6.5 55.1344 6.5H54.6064C54.5664 6.5 54.5324 6.486 54.5044 6.458C54.4764 6.43 54.4624 6.396 54.4624 6.356V4.706C54.4624 4.474 54.4044 4.292 54.2884 4.16C54.1764 4.028 54.0124 3.962 53.7964 3.962C53.5884 3.962 53.4224 4.028 53.2984 4.16C53.1744 4.292 53.1124 4.474 53.1124 4.706V6.356C53.1124 6.396 53.0984 6.43 53.0704 6.458C53.0424 6.486 53.0084 6.5 52.9684 6.5H52.4404ZM37.612 13.5C37.572 13.5 37.538 13.488 37.51 13.464C37.482 13.436 37.468 13.4 37.468 13.356V9.45C37.468 9.406 37.482 9.37 37.51 9.342C37.538 9.314 37.572 9.3 37.612 9.3H38.158C38.202 9.3 38.236 9.314 38.26 9.342C38.288 9.37 38.302 9.406 38.302 9.45V10.998H40.072V9.45C40.072 9.406 40.086 9.37 40.114 9.342C40.142 9.314 40.176 9.3 40.216 9.3H40.756C40.8 9.3 40.836 9.314 40.864 9.342C40.892 9.37 40.906 9.406 40.906 9.45V13.356C40.906 13.396 40.892 13.43 40.864 13.458C40.836 13.486 40.8 13.5 40.756 13.5H40.216C40.176 13.5 40.142 13.486 40.114 13.458C40.086 13.43 40.072 13.396 40.072 13.356V11.748H38.302V13.356C38.302 13.396 38.288 13.43 38.26 13.458C38.236 13.486 38.202 13.5 38.158 13.5H37.612ZM42.6731 13.56C42.4651 13.56 42.2771 13.52 42.1091 13.44C41.9411 13.356 41.8071 13.246 41.7071 13.11C41.6111 12.97 41.5631 12.814 41.5631 12.642C41.5631 12.362 41.6751 12.14 41.8991 11.976C42.1271 11.808 42.4271 11.696 42.7991 11.64L43.6211 11.52V11.394C43.6211 11.226 43.5791 11.096 43.4951 11.004C43.4111 10.912 43.2671 10.866 43.0631 10.866C42.9191 10.866 42.8011 10.896 42.7091 10.956C42.6211 11.012 42.5551 11.088 42.5111 11.184C42.4791 11.236 42.4331 11.262 42.3731 11.262H41.8991C41.8551 11.262 41.8211 11.25 41.7971 11.226C41.7771 11.202 41.7671 11.17 41.7671 11.13C41.7711 11.066 41.7971 10.988 41.8451 10.896C41.8931 10.804 41.9691 10.716 42.0731 10.632C42.1771 10.544 42.3111 10.47 42.4751 10.41C42.6391 10.35 42.8371 10.32 43.0691 10.32C43.3211 10.32 43.5331 10.352 43.7051 10.416C43.8811 10.476 44.0211 10.558 44.1251 10.662C44.2291 10.766 44.3051 10.888 44.3531 11.028C44.4011 11.168 44.4251 11.316 44.4251 11.472V13.356C44.4251 13.396 44.4111 13.43 44.3831 13.458C44.3551 13.486 44.3211 13.5 44.2811 13.5H43.7951C43.7511 13.5 43.7151 13.486 43.6871 13.458C43.6631 13.43 43.6511 13.396 43.6511 13.356V13.122C43.5991 13.198 43.5291 13.27 43.4411 13.338C43.3531 13.402 43.2451 13.456 43.1171 13.5C42.9931 13.54 42.8451 13.56 42.6731 13.56ZM42.8771 12.99C43.0171 12.99 43.1431 12.96 43.2551 12.9C43.3711 12.84 43.4611 12.748 43.5251 12.624C43.5931 12.496 43.6271 12.336 43.6271 12.144V12.018L43.0271 12.114C42.7911 12.15 42.6151 12.208 42.4991 12.288C42.3831 12.368 42.3251 12.466 42.3251 12.582C42.3251 12.67 42.3511 12.746 42.4031 12.81C42.4591 12.87 42.5291 12.916 42.6131 12.948C42.6971 12.976 42.7851 12.99 42.8771 12.99ZM45.3448 14.64C45.3048 14.64 45.2708 14.626 45.2428 14.598C45.2148 14.57 45.2008 14.536 45.2008 14.496V10.524C45.2008 10.484 45.2148 10.45 45.2428 10.422C45.2708 10.394 45.3048 10.38 45.3448 10.38H45.8188C45.8628 10.38 45.8968 10.394 45.9208 10.422C45.9488 10.45 45.9628 10.484 45.9628 10.524V10.764C46.0588 10.636 46.1848 10.53 46.3408 10.446C46.4968 10.362 46.6908 10.32 46.9228 10.32C47.1348 10.32 47.3188 10.354 47.4748 10.422C47.6308 10.49 47.7608 10.588 47.8648 10.716C47.9688 10.84 48.0488 10.988 48.1048 11.16C48.1608 11.332 48.1928 11.522 48.2008 11.73C48.2048 11.798 48.2068 11.868 48.2068 11.94C48.2068 12.012 48.2048 12.084 48.2008 12.156C48.1968 12.356 48.1668 12.542 48.1108 12.714C48.0548 12.882 47.9728 13.03 47.8648 13.158C47.7608 13.282 47.6308 13.38 47.4748 13.452C47.3188 13.524 47.1348 13.56 46.9228 13.56C46.7068 13.56 46.5228 13.522 46.3708 13.446C46.2188 13.366 46.0948 13.262 45.9988 13.134V14.496C45.9988 14.536 45.9848 14.57 45.9568 14.598C45.9328 14.626 45.8988 14.64 45.8548 14.64H45.3448ZM46.7008 12.918C46.8728 12.918 47.0068 12.882 47.1028 12.81C47.1988 12.734 47.2668 12.636 47.3068 12.516C47.3508 12.396 47.3768 12.264 47.3848 12.12C47.3928 12 47.3928 11.88 47.3848 11.76C47.3768 11.616 47.3508 11.484 47.3068 11.364C47.2668 11.244 47.1988 11.148 47.1028 11.076C47.0068 11 46.8728 10.962 46.7008 10.962C46.5368 10.962 46.4028 11 46.2988 11.076C46.1988 11.152 46.1248 11.25 46.0768 11.37C46.0328 11.486 46.0068 11.606 45.9988 11.73C45.9948 11.802 45.9928 11.878 45.9928 11.958C45.9928 12.038 45.9948 12.116 45.9988 12.192C46.0028 12.312 46.0308 12.428 46.0828 12.54C46.1348 12.648 46.2108 12.738 46.3108 12.81C46.4108 12.882 46.5408 12.918 46.7008 12.918ZM49.0304 14.64C48.9904 14.64 48.9564 14.626 48.9284 14.598C48.9004 14.57 48.8864 14.536 48.8864 14.496V10.524C48.8864 10.484 48.9004 10.45 48.9284 10.422C48.9564 10.394 48.9904 10.38 49.0304 10.38H49.5044C49.5484 10.38 49.5824 10.394 49.6064 10.422C49.6344 10.45 49.6484 10.484 49.6484 10.524V10.764C49.7444 10.636 49.8704 10.53 50.0264 10.446C50.1824 10.362 50.3764 10.32 50.6084 10.32C50.8204 10.32 51.0044 10.354 51.1604 10.422C51.3164 10.49 51.4464 10.588 51.5504 10.716C51.6544 10.84 51.7344 10.988 51.7904 11.16C51.8464 11.332 51.8784 11.522 51.8864 11.73C51.8904 11.798 51.8924 11.868 51.8924 11.94C51.8924 12.012 51.8904 12.084 51.8864 12.156C51.8824 12.356 51.8524 12.542 51.7964 12.714C51.7404 12.882 51.6584 13.03 51.5504 13.158C51.4464 13.282 51.3164 13.38 51.1604 13.452C51.0044 13.524 50.8204 13.56 50.6084 13.56C50.3924 13.56 50.2084 13.522 50.0564 13.446C49.9044 13.366 49.7804 13.262 49.6844 13.134V14.496C49.6844 14.536 49.6704 14.57 49.6424 14.598C49.6184 14.626 49.5844 14.64 49.5404 14.64H49.0304ZM50.3864 12.918C50.5584 12.918 50.6924 12.882 50.7884 12.81C50.8844 12.734 50.9524 12.636 50.9924 12.516C51.0364 12.396 51.0624 12.264 51.0704 12.12C51.0784 12 51.0784 11.88 51.0704 11.76C51.0624 11.616 51.0364 11.484 50.9924 11.364C50.9524 11.244 50.8844 11.148 50.7884 11.076C50.6924 11 50.5584 10.962 50.3864 10.962C50.2224 10.962 50.0884 11 49.9844 11.076C49.8844 11.152 49.8104 11.25 49.7624 11.37C49.7184 11.486 49.6924 11.606 49.6844 11.73C49.6804 11.802 49.6784 11.878 49.6784 11.958C49.6784 12.038 49.6804 12.116 49.6844 12.192C49.6884 12.312 49.7164 12.428 49.7684 12.54C49.8204 12.648 49.8964 12.738 49.9964 12.81C50.0964 12.882 50.2264 12.918 50.3864 12.918ZM53.0069 14.64C52.9749 14.64 52.9469 14.628 52.9229 14.604C52.8989 14.58 52.8869 14.552 52.8869 14.52C52.8869 14.504 52.8869 14.488 52.8869 14.472C52.8909 14.46 52.8989 14.444 52.9109 14.424L53.3789 13.314L52.2269 10.596C52.2109 10.556 52.2029 10.528 52.2029 10.512C52.2069 10.476 52.2209 10.446 52.2449 10.422C52.2689 10.394 52.2989 10.38 52.3349 10.38H52.8209C52.8689 10.38 52.9049 10.392 52.9289 10.416C52.9529 10.44 52.9709 10.466 52.9829 10.494L53.7809 12.456L54.6029 10.494C54.6149 10.462 54.6329 10.436 54.6569 10.416C54.6809 10.392 54.7169 10.38 54.7649 10.38H55.2449C55.2769 10.38 55.3049 10.392 55.3289 10.416C55.3569 10.44 55.3709 10.468 55.3709 10.5C55.3709 10.524 55.3629 10.556 55.3469 10.596L53.6489 14.526C53.6329 14.558 53.6129 14.584 53.5889 14.604C53.5649 14.628 53.5289 14.64 53.4809 14.64H53.0069ZM39.088 20.56C38.716 20.56 38.4 20.496 38.14 20.368C37.884 20.236 37.688 20.05 37.552 19.81C37.416 19.566 37.34 19.274 37.324 18.934C37.32 18.77 37.318 18.594 37.318 18.406C37.318 18.218 37.32 18.038 37.324 17.866C37.34 17.53 37.416 17.24 37.552 16.996C37.692 16.752 37.89 16.566 38.146 16.438C38.406 16.306 38.72 16.24 39.088 16.24C39.36 16.24 39.604 16.276 39.82 16.348C40.036 16.42 40.22 16.52 40.372 16.648C40.524 16.772 40.642 16.918 40.726 17.086C40.81 17.254 40.854 17.436 40.858 17.632C40.862 17.668 40.85 17.698 40.822 17.722C40.798 17.746 40.768 17.758 40.732 17.758H40.162C40.118 17.758 40.082 17.748 40.054 17.728C40.026 17.704 40.006 17.666 39.994 17.614C39.93 17.35 39.82 17.17 39.664 17.074C39.508 16.978 39.314 16.93 39.082 16.93C38.814 16.93 38.6 17.006 38.44 17.158C38.28 17.306 38.194 17.552 38.182 17.896C38.17 18.224 38.17 18.56 38.182 18.904C38.194 19.248 38.28 19.496 38.44 19.648C38.6 19.796 38.814 19.87 39.082 19.87C39.314 19.87 39.508 19.822 39.664 19.726C39.82 19.626 39.93 19.446 39.994 19.186C40.006 19.13 40.026 19.092 40.054 19.072C40.082 19.052 40.118 19.042 40.162 19.042H40.732C40.768 19.042 40.798 19.054 40.822 19.078C40.85 19.102 40.862 19.132 40.858 19.168C40.854 19.364 40.81 19.546 40.726 19.714C40.642 19.882 40.524 20.03 40.372 20.158C40.22 20.282 40.036 20.38 39.82 20.452C39.604 20.524 39.36 20.56 39.088 20.56ZM42.6556 20.56C42.4116 20.56 42.1996 20.506 42.0196 20.398C41.8436 20.286 41.7076 20.13 41.6116 19.93C41.5156 19.726 41.4676 19.486 41.4676 19.21V17.524C41.4676 17.484 41.4816 17.45 41.5096 17.422C41.5376 17.394 41.5716 17.38 41.6116 17.38H42.1396C42.1836 17.38 42.2176 17.394 42.2416 17.422C42.2696 17.45 42.2836 17.484 42.2836 17.524V19.174C42.2836 19.67 42.5016 19.918 42.9376 19.918C43.1456 19.918 43.3096 19.852 43.4296 19.72C43.5536 19.588 43.6156 19.406 43.6156 19.174V17.524C43.6156 17.484 43.6296 17.45 43.6576 17.422C43.6856 17.394 43.7196 17.38 43.7596 17.38H44.2876C44.3276 17.38 44.3616 17.394 44.3896 17.422C44.4176 17.45 44.4316 17.484 44.4316 17.524V20.356C44.4316 20.396 44.4176 20.43 44.3896 20.458C44.3616 20.486 44.3276 20.5 44.2876 20.5H43.8016C43.7576 20.5 43.7216 20.486 43.6936 20.458C43.6696 20.43 43.6576 20.396 43.6576 20.356V20.11C43.5496 20.25 43.4156 20.36 43.2556 20.44C43.0956 20.52 42.8956 20.56 42.6556 20.56ZM46.4061 20.56C46.1661 20.56 45.9601 20.532 45.7881 20.476C45.6201 20.42 45.4821 20.35 45.3741 20.266C45.2661 20.182 45.1861 20.098 45.1341 20.014C45.0821 19.93 45.0541 19.86 45.0501 19.804C45.0461 19.76 45.0581 19.726 45.0861 19.702C45.1181 19.674 45.1521 19.66 45.1881 19.66H45.6621C45.6781 19.66 45.6921 19.662 45.7041 19.666C45.7161 19.67 45.7321 19.682 45.7521 19.702C45.8041 19.746 45.8581 19.792 45.9141 19.84C45.9741 19.888 46.0441 19.93 46.1241 19.966C46.2041 19.998 46.3041 20.014 46.4241 20.014C46.5801 20.014 46.7101 19.984 46.8141 19.924C46.9221 19.86 46.9761 19.77 46.9761 19.654C46.9761 19.57 46.9521 19.502 46.9041 19.45C46.8601 19.398 46.7761 19.352 46.6521 19.312C46.5281 19.268 46.3521 19.222 46.1241 19.174C45.9001 19.122 45.7141 19.056 45.5661 18.976C45.4181 18.896 45.3081 18.796 45.2361 18.676C45.1641 18.556 45.1281 18.416 45.1281 18.256C45.1281 18.1 45.1741 17.952 45.2661 17.812C45.3621 17.668 45.5021 17.55 45.6861 17.458C45.8741 17.366 46.1061 17.32 46.3821 17.32C46.5981 17.32 46.7861 17.348 46.9461 17.404C47.1061 17.456 47.2381 17.522 47.3421 17.602C47.4501 17.682 47.5321 17.764 47.5881 17.848C47.6441 17.928 47.6741 17.998 47.6781 18.058C47.6821 18.102 47.6701 18.138 47.6421 18.166C47.6141 18.19 47.5821 18.202 47.5461 18.202H47.1021C47.0821 18.202 47.0641 18.198 47.0481 18.19C47.0321 18.182 47.0161 18.172 47.0001 18.16C46.9561 18.12 46.9081 18.078 46.8561 18.034C46.8041 17.99 46.7401 17.952 46.6641 17.92C46.5921 17.884 46.4961 17.866 46.3761 17.866C46.2241 17.866 46.1081 17.9 46.0281 17.968C45.9481 18.032 45.9081 18.114 45.9081 18.214C45.9081 18.282 45.9261 18.342 45.9621 18.394C46.0021 18.442 46.0801 18.488 46.1961 18.532C46.3121 18.576 46.4881 18.622 46.7241 18.67C46.9921 18.718 47.2041 18.79 47.3601 18.886C47.5201 18.978 47.6321 19.086 47.6961 19.21C47.7641 19.33 47.7981 19.464 47.7981 19.612C47.7981 19.792 47.7441 19.954 47.6361 20.098C47.5321 20.242 47.3761 20.356 47.1681 20.44C46.9641 20.52 46.7101 20.56 46.4061 20.56ZM49.8158 20.5C49.5758 20.5 49.3738 20.458 49.2098 20.374C49.0458 20.29 48.9238 20.166 48.8438 20.002C48.7638 19.834 48.7238 19.626 48.7238 19.378V18.016H48.2498C48.2098 18.016 48.1758 18.002 48.1478 17.974C48.1198 17.946 48.1058 17.912 48.1058 17.872V17.524C48.1058 17.484 48.1198 17.45 48.1478 17.422C48.1758 17.394 48.2098 17.38 48.2498 17.38H48.7238V16.384C48.7238 16.344 48.7358 16.31 48.7598 16.282C48.7878 16.254 48.8238 16.24 48.8678 16.24H49.3538C49.3938 16.24 49.4278 16.254 49.4558 16.282C49.4838 16.31 49.4978 16.344 49.4978 16.384V17.38H50.2478C50.2878 17.38 50.3218 17.394 50.3498 17.422C50.3778 17.45 50.3918 17.484 50.3918 17.524V17.872C50.3918 17.912 50.3778 17.946 50.3498 17.974C50.3218 18.002 50.2878 18.016 50.2478 18.016H49.4978V19.318C49.4978 19.482 49.5258 19.61 49.5818 19.702C49.6418 19.794 49.7438 19.84 49.8878 19.84H50.3018C50.3418 19.84 50.3758 19.854 50.4038 19.882C50.4318 19.91 50.4458 19.944 50.4458 19.984V20.356C50.4458 20.396 50.4318 20.43 50.4038 20.458C50.3758 20.486 50.3418 20.5 50.3018 20.5H49.8158ZM52.358 20.56C52.038 20.56 51.768 20.504 51.548 20.392C51.332 20.28 51.166 20.122 51.05 19.918C50.938 19.714 50.874 19.476 50.858 19.204C50.854 19.132 50.852 19.044 50.852 18.94C50.852 18.836 50.854 18.748 50.858 18.676C50.874 18.4 50.94 18.162 51.056 17.962C51.176 17.758 51.344 17.6 51.56 17.488C51.78 17.376 52.046 17.32 52.358 17.32C52.67 17.32 52.934 17.376 53.15 17.488C53.37 17.6 53.538 17.758 53.654 17.962C53.774 18.162 53.842 18.4 53.858 18.676C53.862 18.748 53.864 18.836 53.864 18.94C53.864 19.044 53.862 19.132 53.858 19.204C53.842 19.476 53.776 19.714 53.66 19.918C53.548 20.122 53.382 20.28 53.162 20.392C52.946 20.504 52.678 20.56 52.358 20.56ZM52.358 19.966C52.57 19.966 52.734 19.9 52.85 19.768C52.966 19.632 53.03 19.434 53.042 19.174C53.046 19.114 53.048 19.036 53.048 18.94C53.048 18.844 53.046 18.766 53.042 18.706C53.03 18.45 52.966 18.254 52.85 18.118C52.734 17.982 52.57 17.914 52.358 17.914C52.146 17.914 51.982 17.982 51.866 18.118C51.75 18.254 51.686 18.45 51.674 18.706C51.67 18.766 51.668 18.844 51.668 18.94C51.668 19.036 51.67 19.114 51.674 19.174C51.686 19.434 51.75 19.632 51.866 19.768C51.982 19.9 52.146 19.966 52.358 19.966ZM54.6728 20.5C54.6328 20.5 54.5988 20.486 54.5708 20.458C54.5428 20.43 54.5288 20.396 54.5288 20.356V17.524C54.5288 17.484 54.5428 17.45 54.5708 17.422C54.5988 17.394 54.6328 17.38 54.6728 17.38H55.1408C55.1808 17.38 55.2148 17.394 55.2428 17.422C55.2708 17.45 55.2848 17.484 55.2848 17.524V17.728C55.3688 17.616 55.4808 17.522 55.6208 17.446C55.7648 17.366 55.9348 17.324 56.1308 17.32C56.5868 17.312 56.9048 17.49 57.0848 17.854C57.1768 17.694 57.3088 17.566 57.4808 17.47C57.6568 17.37 57.8508 17.32 58.0628 17.32C58.2708 17.32 58.4588 17.368 58.6268 17.464C58.7988 17.56 58.9328 17.706 59.0288 17.902C59.1288 18.094 59.1788 18.338 59.1788 18.634V20.356C59.1788 20.396 59.1648 20.43 59.1368 20.458C59.1088 20.486 59.0748 20.5 59.0348 20.5H58.5428C58.5028 20.5 58.4688 20.486 58.4408 20.458C58.4128 20.43 58.3988 20.396 58.3988 20.356V18.682C58.3988 18.502 58.3728 18.36 58.3208 18.256C58.2688 18.148 58.1988 18.072 58.1108 18.028C58.0228 17.984 57.9248 17.962 57.8168 17.962C57.7288 17.962 57.6408 17.984 57.5528 18.028C57.4648 18.072 57.3928 18.148 57.3368 18.256C57.2808 18.36 57.2528 18.502 57.2528 18.682V20.356C57.2528 20.396 57.2388 20.43 57.2108 20.458C57.1828 20.486 57.1488 20.5 57.1088 20.5H56.6168C56.5728 20.5 56.5368 20.486 56.5088 20.458C56.4848 20.43 56.4728 20.396 56.4728 20.356V18.682C56.4728 18.502 56.4448 18.36 56.3888 18.256C56.3328 18.148 56.2608 18.072 56.1728 18.028C56.0848 17.984 55.9908 17.962 55.8908 17.962C55.7988 17.962 55.7088 17.986 55.6208 18.034C55.5328 18.078 55.4608 18.152 55.4048 18.256C55.3488 18.36 55.3208 18.502 55.3208 18.682V20.356C55.3208 20.396 55.3068 20.43 55.2788 20.458C55.2508 20.486 55.2168 20.5 55.1768 20.5H54.6728ZM61.2869 20.56C60.8429 20.56 60.4909 20.432 60.2309 20.176C59.9709 19.92 59.8309 19.556 59.8109 19.084C59.8069 19.044 59.8049 18.994 59.8049 18.934C59.8049 18.87 59.8069 18.82 59.8109 18.784C59.8269 18.484 59.8949 18.224 60.0149 18.004C60.1389 17.784 60.3089 17.616 60.5249 17.5C60.7409 17.38 60.9949 17.32 61.2869 17.32C61.6109 17.32 61.8829 17.388 62.1029 17.524C62.3229 17.656 62.4889 17.842 62.6009 18.082C62.7129 18.318 62.7689 18.592 62.7689 18.904V19.03C62.7689 19.07 62.7549 19.104 62.7269 19.132C62.6989 19.16 62.6629 19.174 62.6189 19.174H60.6269C60.6269 19.174 60.6269 19.18 60.6269 19.192C60.6269 19.204 60.6269 19.214 60.6269 19.222C60.6309 19.362 60.6569 19.492 60.7049 19.612C60.7569 19.728 60.8309 19.822 60.9269 19.894C61.0269 19.966 61.1449 20.002 61.2809 20.002C61.3929 20.002 61.4869 19.986 61.5629 19.954C61.6389 19.918 61.7009 19.878 61.7489 19.834C61.7969 19.79 61.8309 19.754 61.8509 19.726C61.8869 19.678 61.9149 19.65 61.9349 19.642C61.9589 19.63 61.9929 19.624 62.0369 19.624H62.5529C62.5929 19.624 62.6249 19.636 62.6489 19.66C62.6769 19.684 62.6889 19.714 62.6849 19.75C62.6809 19.814 62.6469 19.892 62.5829 19.984C62.5229 20.076 62.4349 20.166 62.3189 20.254C62.2029 20.342 62.0569 20.416 61.8809 20.476C61.7089 20.532 61.5109 20.56 61.2869 20.56ZM60.6269 18.67H61.9529V18.652C61.9529 18.496 61.9269 18.36 61.8749 18.244C61.8229 18.128 61.7469 18.036 61.6469 17.968C61.5469 17.9 61.4269 17.866 61.2869 17.866C61.1469 17.866 61.0269 17.9 60.9269 17.968C60.8269 18.036 60.7509 18.128 60.6989 18.244C60.6509 18.36 60.6269 18.496 60.6269 18.652V18.67ZM63.5498 20.5C63.5098 20.5 63.4758 20.486 63.4478 20.458C63.4198 20.43 63.4058 20.396 63.4058 20.356V17.53C63.4058 17.486 63.4198 17.45 63.4478 17.422C63.4758 17.394 63.5098 17.38 63.5498 17.38H64.0358C64.0758 17.38 64.1098 17.394 64.1378 17.422C64.1698 17.45 64.1858 17.486 64.1858 17.53V17.776C64.2778 17.648 64.3958 17.55 64.5398 17.482C64.6878 17.414 64.8578 17.38 65.0498 17.38H65.2958C65.3398 17.38 65.3738 17.394 65.3978 17.422C65.4258 17.45 65.4398 17.484 65.4398 17.524V17.956C65.4398 17.996 65.4258 18.03 65.3978 18.058C65.3738 18.086 65.3398 18.1 65.2958 18.1H64.8278C64.6358 18.1 64.4858 18.154 64.3778 18.262C64.2738 18.37 64.2218 18.518 64.2218 18.706V20.356C64.2218 20.396 64.2078 20.43 64.1798 20.458C64.1518 20.486 64.1158 20.5 64.0718 20.5H63.5498ZM67.0897 20.56C66.8497 20.56 66.6437 20.532 66.4717 20.476C66.3037 20.42 66.1657 20.35 66.0577 20.266C65.9497 20.182 65.8697 20.098 65.8177 20.014C65.7657 19.93 65.7377 19.86 65.7337 19.804C65.7297 19.76 65.7417 19.726 65.7697 19.702C65.8017 19.674 65.8357 19.66 65.8717 19.66H66.3457C66.3617 19.66 66.3757 19.662 66.3877 19.666C66.3997 19.67 66.4157 19.682 66.4357 19.702C66.4877 19.746 66.5417 19.792 66.5977 19.84C66.6577 19.888 66.7277 19.93 66.8077 19.966C66.8877 19.998 66.9877 20.014 67.1077 20.014C67.2637 20.014 67.3937 19.984 67.4977 19.924C67.6057 19.86 67.6597 19.77 67.6597 19.654C67.6597 19.57 67.6357 19.502 67.5877 19.45C67.5437 19.398 67.4597 19.352 67.3357 19.312C67.2117 19.268 67.0357 19.222 66.8077 19.174C66.5837 19.122 66.3977 19.056 66.2497 18.976C66.1017 18.896 65.9917 18.796 65.9197 18.676C65.8477 18.556 65.8117 18.416 65.8117 18.256C65.8117 18.1 65.8577 17.952 65.9497 17.812C66.0457 17.668 66.1857 17.55 66.3697 17.458C66.5577 17.366 66.7897 17.32 67.0657 17.32C67.2817 17.32 67.4697 17.348 67.6297 17.404C67.7897 17.456 67.9217 17.522 68.0257 17.602C68.1337 17.682 68.2157 17.764 68.2717 17.848C68.3277 17.928 68.3577 17.998 68.3617 18.058C68.3657 18.102 68.3537 18.138 68.3257 18.166C68.2977 18.19 68.2657 18.202 68.2297 18.202H67.7857C67.7657 18.202 67.7477 18.198 67.7317 18.19C67.7157 18.182 67.6997 18.172 67.6837 18.16C67.6397 18.12 67.5917 18.078 67.5397 18.034C67.4877 17.99 67.4237 17.952 67.3477 17.92C67.2757 17.884 67.1797 17.866 67.0597 17.866C66.9077 17.866 66.7917 17.9 66.7117 17.968C66.6317 18.032 66.5917 18.114 66.5917 18.214C66.5917 18.282 66.6097 18.342 66.6457 18.394C66.6857 18.442 66.7637 18.488 66.8797 18.532C66.9957 18.576 67.1717 18.622 67.4077 18.67C67.6757 18.718 67.8877 18.79 68.0437 18.886C68.2037 18.978 68.3157 19.086 68.3797 19.21C68.4477 19.33 68.4817 19.464 68.4817 19.612C68.4817 19.792 68.4277 19.954 68.3197 20.098C68.2157 20.242 68.0597 20.356 67.8517 20.44C67.6477 20.52 67.3937 20.56 67.0897 20.56Z" fill="black"/>
<path d="M10.17 21.8C8.73 21.8 7.48 21.6 6.42 21.2C5.36 20.78 4.48 20.21 3.78 19.49C3.1 18.77 2.58 17.93 2.22 16.97C1.86 16.01 1.65 14.98 1.59 13.88C1.57 13.34 1.55 12.73 1.53 12.05C1.53 11.35 1.53 10.65 1.53 9.95C1.55 9.23 1.57 8.59 1.59 8.03C1.65 6.93 1.86 5.91 2.22 4.97C2.6 4.01 3.14 3.18 3.84 2.48C4.56 1.76 5.44 1.2 6.48 0.799998C7.54 0.399999 8.77 0.199999 10.17 0.199999C11.59 0.199999 12.82 0.399999 13.86 0.799998C14.9 1.2 15.77 1.76 16.47 2.48C17.19 3.18 17.74 4.01 18.12 4.97C18.5 5.91 18.71 6.93 18.75 8.03C18.79 8.59 18.81 9.23 18.81 9.95C18.83 10.65 18.83 11.35 18.81 12.05C18.81 12.73 18.79 13.34 18.75 13.88C18.71 14.98 18.5 16.01 18.12 16.97C17.76 17.93 17.23 18.77 16.53 19.49C15.85 20.21 14.98 20.78 13.92 21.2C12.88 21.6 11.63 21.8 10.17 21.8ZM10.17 17.45C11.21 17.45 11.96 17.12 12.42 16.46C12.9 15.78 13.15 14.87 13.17 13.73C13.21 13.15 13.23 12.54 13.23 11.9C13.25 11.26 13.25 10.62 13.23 9.98C13.23 9.34 13.21 8.75 13.17 8.21C13.15 7.11 12.9 6.22 12.42 5.54C11.96 4.86 11.21 4.51 10.17 4.49C9.13 4.51 8.38 4.86 7.92 5.54C7.46 6.22 7.21 7.11 7.17 8.21C7.15 8.75 7.13 9.34 7.11 9.98C7.11 10.62 7.11 11.26 7.11 11.9C7.13 12.54 7.15 13.15 7.17 13.73C7.21 14.87 7.47 15.78 7.95 16.46C8.43 17.12 9.17 17.45 10.17 17.45ZM28.7006 21.5C28.5006 21.5 28.3206 21.43 28.1606 21.29C28.0206 21.15 27.9506 20.97 27.9506 20.75V6.47L23.8406 9.62C23.6606 9.76 23.4706 9.81 23.2706 9.77C23.0906 9.73 22.9306 9.62 22.7906 9.44L21.0206 7.13C20.9006 6.95 20.8506 6.76 20.8706 6.56C20.9106 6.34 21.0306 6.17 21.2306 6.05L28.1306 0.709999C28.2506 0.629999 28.3606 0.579999 28.4606 0.56C28.5806 0.519999 28.7106 0.499999 28.8506 0.499999H32.6006C32.8006 0.499999 32.9706 0.569999 33.1106 0.709999C33.2706 0.849999 33.3506 1.03 33.3506 1.25V20.75C33.3506 20.97 33.2706 21.15 33.1106 21.29C32.9706 21.43 32.8006 21.5 32.6006 21.5H28.7006Z" fill="#1C74D0"/>
</svg>
