<svg xmlns="http://www.w3.org/2000/svg" xmlns:xlink="http://www.w3.org/1999/xlink" width="24" height="24" viewBox="0 0 24 24">
  <defs>
    <clipPath id="clip-filter">
      <rect width="24" height="24"/>
    </clipPath>
  </defs>
  <g id="filter" clip-path="url(#clip-filter)">
    <g id="Group_8892" data-name="Group 8892" transform="translate(4 2)">
      <path id="Path_28505" data-name="Path 28505" d="M256.916,0a.175.175,0,0,0,.042.034.755.755,0,0,1,.523.78q0,5.605,0,11.211v.243c.251,0,.488,0,.724,0a.753.753,0,1,1-.009,1.5c-1,0-1.994,0-2.991,0a.752.752,0,0,1,.01-1.5c.182,0,.364,0,.546,0h.216v-.242c0-3.687,0-7.374-.008-11.06A.9.9,0,0,1,256.54,0Z" transform="translate(-242.364)" fill="#ff6700"/>
      <path id="Path_28506" data-name="Path 28506" d="M132,0c.026.015.051.032.078.044a.746.746,0,0,1,.486.733q0,3.969,0,7.938v.244c.27,0,.524-.007.779,0a.754.754,0,0,1,.215,1.469.659.659,0,0,1-.2.036c-1.028,0-2.056.006-3.085,0a.69.69,0,0,1-.656-.453.715.715,0,0,1,.112-.776.734.734,0,0,1,.592-.279c.238,0,.476,0,.742,0V8.734c0-2.59.007-5.179-.007-7.769a.9.9,0,0,1,.57-.965Z" transform="translate(-123.404)" fill="#ff6700"/>
      <path id="Path_28507" data-name="Path 28507" d="M2.444,0a2.169,2.169,0,0,1,.272.156.724.724,0,0,1,.292.6q0,1.222,0,2.444v.225c.253,0,.489,0,.725,0a.747.747,0,0,1,.779.762.736.736,0,0,1-.773.743q-1.485.006-2.97,0A.739.739,0,0,1,0,4.166a.747.747,0,0,1,.782-.739c.231,0,.463,0,.723,0V3.22c0-.752.018-1.5-.007-2.255A.886.886,0,0,1,2.067,0Z" transform="translate(0.001)" fill="#ff6700"/>
      <path id="Path_28508" data-name="Path 28508" d="M41.4,177.172q0,2.812,0,5.625a.752.752,0,1,1-1.5.006q0-5.644,0-11.288a.752.752,0,1,1,1.5.012Q41.4,174.35,41.4,177.172Z" transform="translate(-38.388 -164.298)" fill="#ff6700"/>
      <path id="Path_28509" data-name="Path 28509" d="M169.649,321.07c0-.952,0-1.9,0-2.857a.752.752,0,1,1,1.5-.007q0,2.875,0,5.751a.751.751,0,1,1-1.5.026C169.647,323.012,169.649,322.041,169.649,321.07Z" transform="translate(-161.993 -305.456)" fill="#ff6700"/>
      <path id="Path_28510" data-name="Path 28510" d="M294.377,407.214c0-.407,0-.814,0-1.221a.752.752,0,1,1,1.5-.008q0,1.231,0,2.461a.751.751,0,1,1-1.5.008c0-.207,0-.413,0-.62s0-.413,0-.62Z" transform="translate(-280.766 -389.932)" fill="#ff6700"/>
    </g>
  </g>
</svg>
