<svg width="95" height="105" viewBox="0 0 95 105" fill="none" xmlns="http://www.w3.org/2000/svg">
<circle opacity="0.1" cx="47.5" cy="47" r="47" fill="#E5EAF7"/>
<path d="M10.5 13.8627L10.5 98.5845C10.5 99.6866 11.4551 100.58 12.6332 100.58H82.4522C83.6304 100.58 84.5854 99.6866 84.5854 98.5845V13.8627C84.5854 12.7606 83.6304 11.8671 82.4522 11.8671H12.6332C11.4551 11.8671 10.5 12.7606 10.5 13.8627Z" fill="#4D4D4D"/>
<path d="M34.5 63.9199C35.0527 63.9199 35.5 63.4722 35.5 62.9199V61.92V44.96C35.5 44.1992 36.1191 43.5801 36.8799 43.5801H53.84H54.8398C55.3926 43.5801 55.8398 43.1323 55.8398 42.5801C55.8398 42.0278 55.3926 41.5801 54.8398 41.5801H36.8799C35.0166 41.5801 33.5 43.0962 33.5 44.96V62.9199C33.5 63.4722 33.9473 63.9199 34.5 63.9199Z" fill="#999999"/>
<path d="M41 48.0801C40.4473 48.0801 40 48.5278 40 49.0801C40 49.6323 40.4473 50.0801 41 50.0801H47.34H48.3398C48.8926 50.0801 49.3398 49.6323 49.3398 49.0801C49.3398 48.804 49.228 48.554 49.0471 48.373C48.8662 48.192 48.6162 48.0801 48.3398 48.0801H41Z" fill="#999999"/>
<path d="M41 54.5801C40.4473 54.5801 40 55.0278 40 55.5801C40 56.0851 40.3801 56.4855 40.8669 56.5532C40.9124 56.5596 40.9528 56.5801 41 56.5801H41.8398C42.3926 56.5801 42.8398 56.1323 42.8398 55.5801C42.8398 55.304 42.728 55.054 42.5471 54.873C42.3662 54.692 42.1162 54.5801 41.8398 54.5801H41Z" fill="#999999"/>
<path d="M61.207 41.873C60.8164 41.4824 60.1836 41.4824 59.793 41.873L33.793 67.873C33.4023 68.2637 33.4023 68.8965 33.793 69.2871C33.9883 69.4824 34.2441 69.5801 34.5 69.5801C34.7559 69.5801 35.0117 69.4824 35.207 69.2871L35.317 69.1772C35.796 69.4309 36.3246 69.5801 36.8799 69.5801H58.1201C59.9834 69.5801 61.5 68.064 61.5 66.2002V44.96C61.5 44.4043 61.3511 43.8757 61.0975 43.3967L61.207 43.2871C61.5977 42.8965 61.5977 42.2637 61.207 41.873ZM58.1201 67.5801H36.9141L41.4141 63.0801H54C54.5527 63.0801 55 62.6323 55 62.0801C55 61.5278 54.5527 61.0801 54 61.0801H43.4141L47.9141 56.5801H54C54.5527 56.5801 55 56.1323 55 55.5801C55 55.0278 54.5527 54.5801 54 54.5801H49.9141L59.5 44.9941V66.2002C59.5 66.9609 58.8809 67.5801 58.1201 67.5801Z" fill="#999999"/>
<path d="M12.4506 11.5352H82.4964C83.5714 11.5352 84.4448 12.4168 84.4448 13.5018V20.0151H10.3594V13.646C10.3594 12.4789 11.2972 11.5352 12.4506 11.5352Z" fill="#FF6700"/>
<path d="M15.7504 15.472C15.7504 16.2012 15.1543 16.7917 14.4182 16.7917C13.6821 16.7917 13.0859 16.2012 13.0859 15.472C13.0859 14.7429 13.6821 14.1523 14.4182 14.1523C15.1543 14.1523 15.7504 14.7429 15.7504 15.472Z" fill="white"/>
<path d="M19.3481 15.472C19.3481 16.2012 18.7519 16.7917 18.0158 16.7917C17.2797 16.7917 16.6836 16.2012 16.6836 15.472C16.6836 14.7429 17.2797 14.1523 18.0158 14.1523C18.7519 14.1523 19.3481 14.7429 19.3481 15.472Z" fill="white"/>
<path d="M22.9457 15.472C22.9457 16.2012 22.3496 16.7917 21.6135 16.7917C20.8774 16.7917 20.2812 16.2012 20.2812 15.472C20.2812 14.7429 20.8774 14.1523 21.6135 14.1523C22.3496 14.1523 22.9457 14.7429 22.9457 15.472Z" fill="white"/>
</svg>
