<svg xmlns="http://www.w3.org/2000/svg" width="22" height="16" viewBox="0 0 22 16">
  <g id="order_unselected" transform="translate(-227.312 96.472)">
    <g id="Group_7712" data-name="Group 7712" transform="translate(227.312 -96.472)">
      <path id="Path_28248" data-name="Path 28248" d="M763.092,376.432h5.52a1.655,1.655,0,0,1,1.656,1.652V380.3a1.655,1.655,0,0,1-1.652,1.656h-5.524a1.655,1.655,0,0,1-1.656-1.652v-2.212a1.655,1.655,0,0,1,1.652-1.656Z" transform="translate(-754.852 -376.432)" fill="none"/>
      <path id="Path_28249" data-name="Path 28249" d="M768.612,381.952h-5.52a1.655,1.655,0,0,1-1.656-1.652v-2.212a1.655,1.655,0,0,1,1.652-1.656h5.524a1.655,1.655,0,0,1,1.656,1.652V380.3a1.655,1.655,0,0,1-1.652,1.656Zm-5.52-4.42a.547.547,0,0,0-.552.542V380.3a.547.547,0,0,0,.542.552h5.53a.547.547,0,0,0,.552-.542v-2.218a.547.547,0,0,0-.538-.556h-5.534Z" transform="translate(-754.852 -376.432)" fill="#606060"/>
      <path id="Subtraction_4" data-name="Subtraction 4" d="M772.412,392.432h-13.2v-12.71h13.2v12.709Zm-14.3,0h-1.649a1.622,1.622,0,0,1-1.65-1.589v-9.533a1.622,1.622,0,0,1,1.65-1.589h1.65v12.709Zm17.051,0h-1.65v-12.71h1.65a1.622,1.622,0,0,1,1.65,1.589v9.533A1.622,1.622,0,0,1,775.162,392.432Z" transform="translate(-754.812 -376.432)" fill="#606060"/>
      <path id="Subtraction_5" data-name="Subtraction 5" d="M775.162,392.432h-1.65v-1.055h1.65a.534.534,0,0,0,.549-.519v-9.547a.533.533,0,0,0-.538-.53h-1.661v-1.059h1.65a1.622,1.622,0,0,1,1.65,1.589v9.533A1.622,1.622,0,0,1,775.162,392.432Zm-2.75,0h-13.2v-1.055h13.2Zm-14.3,0h-1.649a1.622,1.622,0,0,1-1.65-1.589v-9.533a1.622,1.622,0,0,1,1.65-1.589h1.65v1.055h-1.65a.536.536,0,0,0-.55.52v9.542a.533.533,0,0,0,.539.529h1.661v1.064Zm14.3-11.655h-13.2v-1.055h13.2Z" transform="translate(-754.812 -376.432)" fill="#606060"/>
    </g>
  </g>
</svg>
