<svg width="24" height="24" viewBox="0 0 24 24" fill="none" xmlns="http://www.w3.org/2000/svg">
<mask id="mask0_180_1605" style="mask-type:alpha" maskUnits="userSpaceOnUse" x="0" y="0" width="24" height="24">
<rect width="24" height="24" fill="#D9D9D9"/>
</mask>
<g mask="url(#mask0_180_1605)">
<path d="M3 15.05C3 14.8833 3.0375 14.7292 3.1125 14.5875C3.1875 14.4458 3.29167 14.3333 3.425 14.25L4.65 13.375C5.03333 13.0917 5.46667 12.9708 5.95 13.0125C6.43333 13.0542 6.85 13.2417 7.2 13.575L12.125 18.35L15.75 15.45C15.9333 15.3167 16.1292 15.2083 16.3375 15.125C16.5458 15.0417 16.7667 15 17 15H20C20.2833 15 20.5208 15.0958 20.7125 15.2875C20.9042 15.4792 21 15.7167 21 16C21 16.2833 20.9042 16.5208 20.7125 16.7125C20.5208 16.9042 20.2833 17 20 17H17L13.375 19.9C12.9917 20.2167 12.5458 20.3625 12.0375 20.3375C11.5292 20.3125 11.0917 20.125 10.725 19.775L5.8 15L4.575 15.875C4.24167 16.1083 3.89583 16.1333 3.5375 15.95C3.17917 15.7667 3 15.4667 3 15.05ZM3 9.02501C3 8.85834 3.03333 8.70834 3.1 8.57501C3.16667 8.44168 3.26667 8.32501 3.4 8.22501L6.45 6.00001C6.85 5.71668 7.29167 5.59168 7.775 5.62501C8.25833 5.65834 8.675 5.85001 9.025 6.20001L12.2 9.37501L19.425 4.15001C19.7583 3.91668 20.1042 3.89168 20.4625 4.07501C20.8208 4.25834 21 4.55834 21 4.97501C21 5.14168 20.9625 5.29168 20.8875 5.42501C20.8125 5.55834 20.7083 5.67501 20.575 5.77501L13.375 11C12.975 11.2833 12.5333 11.4083 12.05 11.375C11.5667 11.3417 11.15 11.15 10.8 10.8L7.625 7.62501L4.575 9.85001C4.24167 10.0833 3.89583 10.1083 3.5375 9.92501C3.17917 9.74168 3 9.44168 3 9.02501Z" fill="white"/>
</g>
</svg>
