<svg xmlns="http://www.w3.org/2000/svg" xmlns:xlink="http://www.w3.org/1999/xlink" width="24" height="24" viewBox="0 0 24 24">
  <defs>
    <clipPath id="clip-path">
      <rect id="Rectangle_3404" data-name="Rectangle 3404" width="20" height="24" fill="none"/>
    </clipPath>
  </defs>
  <g id="pdf" transform="translate(-6 -6)">
    <rect id="Rectangle_1" data-name="Rectangle 1" width="24" height="24" transform="translate(6 6)" fill="none"/>
    <g id="Group_16678" data-name="Group 16678" transform="translate(8 6)">
      <g id="Group_16677" data-name="Group 16677" clip-path="url(#clip-path)">
        <path id="Path_32503" data-name="Path 32503" d="M3.576,0H13.84a2.257,2.257,0,0,0,.172.212q2.877,2.805,5.759,5.6a.667.667,0,0,1,.23.527q-.01,7.427-.006,14.855c0,.141,0,.281-.01.422a2.558,2.558,0,0,1-2.107,2.328,3.8,3.8,0,0,1-.619.048q-6.6,0-13.209,0a2.714,2.714,0,0,1-1.643-.486,2.472,2.472,0,0,1-1.085-2.04c-.008-.387,0-.775,0-1.162C.327,20.328-.018,19.771,0,18.927c.035-1.608.01-3.217.011-4.826,0-.383-.009-.766.012-1.148A1.014,1.014,0,0,1,1,12c.1-.007.2-.01.319-.016v-.3q0-4.534,0-9.067A2.555,2.555,0,0,1,3.146.121c.142-.044.287-.08.431-.12m9.616,1.564c-.1,0-.164-.01-.226-.01q-4.448,0-8.9.01A1.033,1.033,0,0,0,2.913,2.72q0,4.511,0,9.022V12H15.3a1.075,1.075,0,0,1,1.221,1.2c0,1.961-.013,3.921.007,5.882a1.146,1.146,0,0,1-1.259,1.225C11.255,20.289,7.242,20.3,3.23,20.3H2.913c0,.339,0,.643,0,.946,0,.812.388,1.193,1.216,1.193H17.2c.815,0,1.2-.38,1.2-1.18Q18.377,14.1,18.356,6.94c0-.084,0-.168,0-.277H18.05c-1.079,0-2.158.018-3.236-.014A1.7,1.7,0,0,1,13.222,5.1c-.037-1.069-.022-2.139-.03-3.209,0-.1,0-.2,0-.327M6.6,18.411c.65,0,1.282.046,1.9-.017a2.572,2.572,0,0,0,1.11-.387,2.134,2.134,0,0,0,.843-2.328,1.836,1.836,0,0,0-1.6-1.527,7.308,7.308,0,0,0-2.255.011Zm-2.836-1.52h.265a2.516,2.516,0,0,0,1.141-.208,1.288,1.288,0,0,0,.771-1.269,1.169,1.169,0,0,0-.765-1.164,5.025,5.025,0,0,0-2.4-.093v4.248h.986Zm8.416-1V14.9h1.68v-.786H11.177v4.292h1V16.68h1.562v-.789Z" transform="translate(0 -0.001)"/>
        <path id="Path_32504" data-name="Path 32504" d="M119.3,237.7a1.53,1.53,0,0,1,1.594.46,1.835,1.835,0,0,1-.022,1.828,1.512,1.512,0,0,1-1.572.506Z" transform="translate(-111.689 -222.827)"/>
        <path id="Path_32505" data-name="Path 32505" d="M58.987,238.934c0-.434,0-.8,0-1.164,0-.118.041-.176.161-.176a3.388,3.388,0,0,1,.476.01.6.6,0,0,1,.556.549.623.623,0,0,1-.442.692,4.858,4.858,0,0,1-.748.089" transform="translate(-55.222 -222.778)"/>
      </g>
    </g>
  </g>
</svg>
