<svg xmlns="http://www.w3.org/2000/svg" width="23" height="17" viewBox="0 0 23 17">
  <g id="percentage_up" transform="translate(862.726 15131)">
    <path id="Path_28531" data-name="Path 28531" d="M178.329,125.427l-.6.5a.541.541,0,0,1-.418.125.56.56,0,0,1-.378-.228l-1.38-1.883v9.2a.588.588,0,0,1-.568.607h-.757a.588.588,0,0,1-.568-.607v-9.2l-1.38,1.883a.56.56,0,0,1-.378.228.541.541,0,0,1-.419-.125l-.6-.5a.635.635,0,0,1-.1-.851l3.368-4.6a.546.546,0,0,1,.894,0l3.368,4.6A.635.635,0,0,1,178.329,125.427Z" transform="translate(-1018.272 -15249.746)" fill="#ccc"/>
    <text id="_" data-name="%" transform="translate(-862.726 -15117)" fill="#ccc" font-size="16" font-family="Arial-BoldMT, Arial" font-weight="700"><tspan x="0" y="0">%</tspan></text>
  </g>
</svg>
