<svg width="23" height="24" viewBox="0 0 23 24" fill="none" xmlns="http://www.w3.org/2000/svg">
<g clip-path="url(#clip0_210_12493)">
<path d="M2.02145 11.8099H8.80452C9.91919 11.8099 10.826 10.9031 10.826 9.78841V3.00533C10.826 1.89066 9.91919 0.983887 8.80452 0.983887H2.02145C0.906776 0.983887 0 1.89066 0 3.00533V9.78841C0 10.9031 0.906776 11.8099 2.02145 11.8099ZM3.414 5.74551H4.76163V4.39788C4.76163 4.02544 5.063 3.72407 5.43544 3.72407C5.80788 3.72407 6.10926 4.02544 6.10926 4.39788V5.74551H7.45689C7.82933 5.74551 8.1307 6.04689 8.1307 6.41933C8.1307 6.79177 7.82933 7.09315 7.45689 7.09315H6.10926V8.44078C6.10926 8.81322 5.80788 9.11459 5.43544 9.11459C5.063 9.11459 4.76163 8.81322 4.76163 8.44078V7.09315H3.414C3.04156 7.09315 2.74018 6.79177 2.74018 6.41933C2.74018 6.04689 3.04156 5.74551 3.414 5.74551Z" fill="#002953"/>
<path d="M20.9783 0.983887H14.1953C13.0806 0.983887 12.1738 1.89066 12.1738 3.00533V9.78841C12.1738 10.9031 13.0806 11.8099 14.1953 11.8099H20.9783C22.093 11.8099 22.9998 10.9031 22.9998 9.78841V3.00533C22.9998 1.89066 22.093 0.983887 20.9783 0.983887ZM19.6307 7.09315H15.5429C15.1705 7.09315 14.8691 6.79177 14.8691 6.41933C14.8691 6.04689 15.1705 5.74551 15.5429 5.74551H19.6307C20.0032 5.74551 20.3045 6.04689 20.3045 6.41933C20.3045 6.79177 20.0032 7.09315 19.6307 7.09315Z" fill="#002953"/>
<path d="M20.9783 13.1575H14.1953C13.0806 13.1575 12.1738 14.0642 12.1738 15.1789V21.962C12.1738 23.0767 13.0806 23.9834 14.1953 23.9834H20.9783C22.093 23.9834 22.9998 23.0767 22.9998 21.962V15.1789C22.9998 14.0642 22.093 13.1575 20.9783 13.1575ZM19.6307 20.5694H15.5429C15.1705 20.5694 14.8691 20.2681 14.8691 19.8956C14.8691 19.5232 15.1705 19.2218 15.5429 19.2218H19.6307C20.0032 19.2218 20.3045 19.5232 20.3045 19.8956C20.3045 20.2681 20.0032 20.5694 19.6307 20.5694ZM19.6307 17.8742H15.5429C15.1705 17.8742 14.8691 17.5728 14.8691 17.2004C14.8691 16.8279 15.1705 16.5265 15.5429 16.5265H19.6307C20.0032 16.5265 20.3045 16.8279 20.3045 17.2004C20.3045 17.5728 20.0032 17.8742 19.6307 17.8742Z" fill="#002953"/>
<path d="M10.826 21.962V15.1789C10.826 14.0642 9.91919 13.1575 8.80452 13.1575H2.02145C0.906776 13.1575 0 14.0642 0 15.1789V21.962C0 23.0767 0.906776 23.9834 2.02145 23.9834H8.80452C9.91919 23.9834 10.826 23.0767 10.826 21.962ZM7.34108 19.5008C7.60428 19.764 7.60428 20.1904 7.34108 20.4536C7.07789 20.7168 6.65146 20.7168 6.38826 20.4536L5.43544 19.5008L4.48262 20.4536C4.21943 20.7168 3.793 20.7168 3.5298 20.4536C3.26661 20.1904 3.26661 19.764 3.5298 19.5008L4.48262 18.548L3.5298 17.5952C3.26661 17.332 3.26661 16.9055 3.5298 16.6424C3.793 16.3792 4.21943 16.3792 4.48262 16.6424L5.43544 17.5952L6.38826 16.6424C6.65146 16.3792 7.07789 16.3792 7.34108 16.6424C7.60428 16.9055 7.60428 17.332 7.34108 17.5952L6.38826 18.548L7.34108 19.5008Z" fill="#002953"/>
</g>
<defs>
<clipPath id="clip0_210_12493">
<rect width="22.9996" height="22.9996" fill="white" transform="translate(0 0.983887)"/>
</clipPath>
</defs>
</svg>
