<svg xmlns="http://www.w3.org/2000/svg" xmlns:xlink="http://www.w3.org/1999/xlink" width="24" height="24" viewBox="0 0 24 24">
  <defs>
    <clipPath id="clip-pledge">
      <rect width="24" height="24"/>
    </clipPath>
  </defs>
  <g id="pledge" clip-path="url(#clip-pledge)">
    <g id="Group_17988" data-name="Group 17988" transform="translate(-43 -483)">
      <path id="scale" d="M17.772,10.039h-.045L15.272,3.458a1.494,1.494,0,0,0,.841-1.421A1.5,1.5,0,0,0,15.282.608a1.078,1.078,0,0,0-1.34.563l-3.51-.028A1.514,1.514,0,0,0,9,.1,1.566,1.566,0,0,0,7.565,1.242H4.1A1.1,1.1,0,0,0,2.77.593a1.47,1.47,0,0,0-.88,1.4,1.511,1.511,0,0,0,.82,1.457L.253,10.039H.228a.2.2,0,0,0-.161.079.315.315,0,0,0-.068.2,3.886,3.886,0,0,0,1.873,3.5,2.6,2.6,0,0,0,3.3-.832,4.228,4.228,0,0,0,.9-2.663.318.318,0,0,0-.067-.2.2.2,0,0,0-.161-.079H5.8L3.359,3.485a1.132,1.132,0,0,0,.466-.293h3.8A1.663,1.663,0,0,0,9,4.173a1.663,1.663,0,0,0,1.373-.981h3.8a1.14,1.14,0,0,0,.448.288l-2.447,6.559h-.025a.2.2,0,0,0-.161.079.315.315,0,0,0-.068.2,3.886,3.886,0,0,0,1.873,3.5,2.6,2.6,0,0,0,3.3-.832,4.228,4.228,0,0,0,.9-2.663.317.317,0,0,0-.067-.2A.2.2,0,0,0,17.772,10.039Zm-14.743,3.5a2.9,2.9,0,0,1-2.562-2.93H5.61A2.932,2.932,0,0,1,3.028,13.539Zm-2.271-3.5L3.028,3.957,5.3,10.039ZM3.083,2.947a.844.844,0,0,1-.736-.92.844.844,0,0,1,.736-.921.844.844,0,0,1,.736.921.845.845,0,0,1-.737.92Zm7.159-.325a.227.227,0,0,0-.2.152A1.252,1.252,0,0,1,9,3.6a1.252,1.252,0,0,1-1.041-.829.228.228,0,0,0-.2-.152H4.176a1.82,1.82,0,0,0,.087-.808H7.718a.238.238,0,0,0,.215-.191A1.158,1.158,0,0,1,9,.668a1.083,1.083,0,0,1,1.067.857.237.237,0,0,0,.213.187l3.468.027a1.832,1.832,0,0,0,.077.882Zm3.938-.6a.844.844,0,0,1,.736-.921.844.844,0,0,1,.736.921.844.844,0,0,1-.736.92A.845.845,0,0,1,14.181,2.026Zm.771,1.93,2.272,6.082H12.68Zm0,9.582a2.9,2.9,0,0,1-2.562-2.93h5.144a2.932,2.932,0,0,1-2.582,2.93Zm0,0" transform="translate(46.5 488.403)" fill="#fff" stroke="#fff" stroke-width="0.3"/>
      <rect id="Rectangle_3428" data-name="Rectangle 3428" width="24" height="24" transform="translate(43 483)" fill="none"/>
    </g>
  </g>
</svg>
