<svg id="Group_16775" data-name="Group 16775" xmlns="http://www.w3.org/2000/svg" xmlns:xlink="http://www.w3.org/1999/xlink" width="17.608" height="20" viewBox="0 0 17.608 20">
  <defs>
    <clipPath id="clip-path">
      <rect id="Rectangle_3420" data-name="Rectangle 3420" width="17.608" height="20" fill="#fff"/>
    </clipPath>
  </defs>
  <g id="Group_16775-2" data-name="Group 16775" clip-path="url(#clip-path)">
    <path id="Path_32509" data-name="Path 32509" d="M0,306.415c.064-.363.107-.73.195-1.087a7.616,7.616,0,0,1,4.648-5.447,6.992,6.992,0,0,1,2.8-.535c.8,0,1.6-.009,2.405,0a7.433,7.433,0,0,1,5.688,2.659,7.563,7.563,0,0,1,1.825,4.1c.013.1.032.2.048.3v.781a.714.714,0,0,1-.746.435q-8.058-.011-16.115,0A.712.712,0,0,1,0,307.2v-.781m1.208.028h15.2c-.034-.231-.055-.451-.1-.666a6.486,6.486,0,0,0-6.467-5.259c-.711,0-1.422-.015-2.132.006a7.152,7.152,0,0,0-1.338.131,6.383,6.383,0,0,0-4.735,3.986,6.023,6.023,0,0,0-.428,1.8" transform="translate(0 -287.631)" fill="#fff"/>
    <path id="Path_32510" data-name="Path 32510" d="M95.782,0a9.709,9.709,0,0,1,1.17.278,5.124,5.124,0,0,1,3.56,4.38,5.266,5.266,0,0,1-4.21,5.795A5.28,5.28,0,1,1,94.249.093c.171-.036.343-.062.515-.093Zm3.6,5.272a4.108,4.108,0,1,0-4.1,4.1,4.125,4.125,0,0,0,4.1-4.1" transform="translate(-86.469)" fill="#fff"/>
  </g>
</svg>
