<svg width="29" height="29" viewBox="0 0 29 29" fill="none" xmlns="http://www.w3.org/2000/svg">
<g clip-path="url(#clip0_61_1440)">
<path fill-rule="evenodd" clip-rule="evenodd" d="M17.4261 26.3509C17.4261 25.3485 16.6135 24.536 15.6112 24.536H13.3888C12.9075 24.536 12.4459 24.7272 12.1055 25.0676C11.7652 25.4079 11.5739 25.8695 11.5739 26.3509C11.5739 27.3532 12.3865 28.1657 13.3888 28.1657H15.6112C16.6135 28.1657 17.4261 27.3532 17.4261 26.3509ZM3.81537 21.671C4.11851 21.6942 4.48526 21.7075 4.85365 21.6859C5.04991 22.6812 5.53747 23.6044 6.26525 24.3322C7.23142 25.2983 8.5418 25.8411 9.90814 25.8411H10.6006C10.5701 26.0082 10.5544 26.1787 10.5544 26.3509C10.5544 26.5249 10.5701 26.6953 10.6002 26.8606H9.90814C8.2714 26.8606 6.70166 26.2104 5.54432 25.0531C4.62103 24.1298 4.02046 22.944 3.81537 21.671ZM3.29677 20.5862C2.49185 20.4505 1.74283 20.0678 1.15813 19.4831C0.416592 18.7415 0 17.7358 0 16.6871V14.2774C0 13.2287 0.416592 12.2229 1.15813 11.4814C1.89967 10.7399 2.90544 10.3232 3.95414 10.3232H4.21735C4.63807 5.01281 9.08108 0.834259 14.5 0.834259C19.9189 0.834259 24.3619 5.01281 24.7827 10.3232H25.0459C26.0946 10.3232 27.1003 10.7399 27.8419 11.4814C28.5834 12.2229 29 13.2287 29 14.2774V16.6871C29 17.7358 28.5834 18.7415 27.8419 19.4831C27.1003 20.2247 26.0946 20.6413 25.0459 20.6413H23.879C23.3951 20.6413 23.0028 20.2489 23.0028 19.765V11.1495C23.0028 6.45358 19.196 2.64676 14.5 2.64676C9.80404 2.64676 5.99722 6.45358 5.99722 11.1495V19.765C5.99722 20.1067 5.80164 20.4027 5.51629 20.5472C4.73079 20.8198 3.51263 20.6226 3.29677 20.5862Z" fill="#1C74D0"/>
</g>
<defs>
<clipPath id="clip0_61_1440">
<rect width="29" height="29" fill="white"/>
</clipPath>
</defs>
</svg>
