<svg width="15" height="14" viewBox="0 0 15 14" fill="none" xmlns="http://www.w3.org/2000/svg">
<path d="M6.28204 7.65833C6.54357 8.00796 6.87724 8.29726 7.2604 8.5066C7.64357 8.71594 8.06728 8.84043 8.50278 8.87162C8.93829 8.90281 9.37541 8.83997 9.7845 8.68737C10.1936 8.53477 10.5651 8.29597 10.8738 7.98718L12.7007 6.16023C13.2554 5.58596 13.5623 4.81681 13.5553 4.01845C13.5484 3.22008 13.2282 2.45638 12.6636 1.89183C12.0991 1.32728 11.3354 1.00705 10.537 1.00012C9.73863 0.993178 8.96948 1.30009 8.39521 1.85474L7.34776 2.8961" stroke="#156CC7" stroke-width="1.2" stroke-linecap="round" stroke-linejoin="round"/>
<path d="M8.71796 6.44037C8.45643 6.09074 8.12277 5.80144 7.7396 5.5921C7.35644 5.38276 6.93273 5.25827 6.49722 5.22708C6.06171 5.19589 5.62459 5.25873 5.2155 5.41133C4.80642 5.56393 4.43493 5.80273 4.12625 6.11152L2.29931 7.93846C1.74465 8.51274 1.43774 9.28189 1.44468 10.0803C1.45162 10.8786 1.77185 11.6423 2.3364 12.2069C2.90095 12.7714 3.66465 13.0916 4.46301 13.0986C5.26137 13.1055 6.03052 12.7986 6.6048 12.244L7.64616 11.2026" stroke="#156CC7" stroke-width="1.2" stroke-linecap="round" stroke-linejoin="round"/>
</svg>
