<svg width="16" height="17" viewBox="0 0 16 17" fill="none" xmlns="http://www.w3.org/2000/svg">
<path d="M10.3848 13.1154V13.6923C10.3848 14.3043 10.1336 14.8913 9.68643 15.3241C9.23928 15.7569 8.63281 16 8.00045 16C7.36808 16 6.76161 15.7569 6.31446 15.3241C5.86731 14.8913 5.6161 14.3043 5.6161 13.6923V13.1154M14.3964 11.941C13.4397 10.8077 12.7643 10.2308 12.7643 7.10637C12.7643 4.24519 11.2547 3.22584 10.0122 2.73077C9.84719 2.66514 9.69184 2.51442 9.64154 2.35036C9.4236 1.63245 8.81261 1 8.00045 1C7.18828 1 6.57692 1.63281 6.36121 2.35108C6.31092 2.51695 6.15556 2.66514 5.99052 2.73077C4.74656 3.22656 3.23847 4.24231 3.23847 7.10637C3.2366 10.2308 2.56117 10.8077 1.60445 11.941C1.20805 12.4105 1.55527 13.1154 2.24859 13.1154H13.756C14.4456 13.1154 14.7906 12.4083 14.3964 11.941Z" stroke="#156CC7" stroke-width="1.2" stroke-linecap="round" stroke-linejoin="round"/>
<path d="M8 5.74921V9.71953" stroke="#156CC7" stroke-linecap="round" stroke-linejoin="round"/>
<path d="M9.98514 7.73438L6.01482 7.73437" stroke="#156CC7" stroke-linecap="round" stroke-linejoin="round"/>
</svg>
