<svg width="21" height="19" viewBox="0 0 21 19" fill="none" xmlns="http://www.w3.org/2000/svg">
<path d="M11.1 19C10.8167 19 10.5792 18.9042 10.3875 18.7125C10.1958 18.5208 10.1 18.2833 10.1 18C10.1 17.8833 10.125 17.7625 10.175 17.6375C10.225 17.5125 10.3 17.4 10.4 17.3L14.675 13.025C14.775 12.925 14.825 12.8042 14.825 12.6625C14.825 12.5208 14.775 12.4 14.675 12.3C14.575 12.2 14.4542 12.1542 14.3125 12.1625C14.1708 12.1708 14.05 12.225 13.95 12.325L9.70001 16.575C9.60001 16.675 9.49168 16.75 9.37501 16.8C9.25835 16.85 9.13335 16.875 9.00001 16.875C8.71668 16.875 8.47918 16.7792 8.28751 16.5875C8.09585 16.3958 8.00001 16.1583 8.00001 15.875C8.00001 15.7083 8.02501 15.5708 8.07501 15.4625C8.12501 15.3542 8.19168 15.2583 8.27501 15.175L12.55 10.9C12.65 10.8 12.7 10.6833 12.7 10.55C12.7 10.4167 12.65 10.3 12.55 10.2C12.45 10.1 12.3333 10.05 12.2 10.05C12.0667 10.05 11.95 10.1 11.85 10.2L7.57501 14.45C7.47501 14.55 7.36668 14.625 7.25001 14.675C7.13335 14.725 7.00001 14.75 6.85001 14.75C6.58335 14.75 6.35001 14.65 6.15001 14.45C5.95001 14.25 5.85001 14.0167 5.85001 13.75C5.85001 13.6167 5.87501 13.4917 5.92501 13.375C5.97501 13.2583 6.05001 13.15 6.15001 13.05L10.4 8.79999C10.5 8.69999 10.55 8.57915 10.55 8.43749C10.55 8.29582 10.5 8.17499 10.4 8.07499C10.3 7.97499 10.1833 7.92499 10.05 7.92499C9.91668 7.92499 9.80001 7.97499 9.70001 8.07499L5.45001 12.35C5.36668 12.4333 5.26668 12.5 5.15001 12.55C5.03335 12.6 4.89168 12.625 4.72501 12.625C4.44168 12.625 4.20418 12.5292 4.01251 12.3375C3.82085 12.1458 3.72501 11.9083 3.72501 11.625C3.72501 11.4917 3.75001 11.3667 3.80001 11.25C3.85001 11.1333 3.92501 11.025 4.02501 10.925L8.92501 6.02499C9.10835 5.84165 9.33751 5.75832 9.61251 5.77499C9.88751 5.79165 10.1167 5.89165 10.3 6.07499L13.35 9.12499C13.5333 9.30832 13.75 9.45415 14 9.56249C14.25 9.67082 14.5 9.72499 14.75 9.72499C15.2833 9.72499 15.75 9.53749 16.15 9.16249C16.55 8.78749 16.75 8.30832 16.75 7.72499C16.75 7.49165 16.7083 7.24999 16.625 6.99999C16.5417 6.74999 16.3917 6.51665 16.175 6.29999L12.75 2.87499C12.5667 2.69165 12.4458 2.49165 12.3875 2.27499C12.3292 2.05832 12.3583 1.84999 12.475 1.64999C12.625 1.39999 12.8167 1.21665 13.05 1.09999C13.2833 0.983321 13.5417 0.924988 13.825 0.924988C14.175 0.924988 14.5333 1.00832 14.9 1.17499C15.2667 1.34165 15.6 1.57499 15.9 1.87499L20.125 6.12499C20.425 6.42499 20.6458 6.75832 20.7875 7.12499C20.9292 7.49165 21 7.91665 21 8.39999C21 8.73332 20.925 9.07082 20.775 9.41249C20.625 9.75415 20.4083 10.0667 20.125 10.35L11.8 18.7C11.6667 18.8333 11.55 18.9167 11.45 18.95C11.35 18.9833 11.2333 19 11.1 19ZM1.90001 10.125C1.58335 9.89165 1.34585 9.61249 1.18751 9.28749C1.02918 8.96249 0.950012 8.61665 0.950012 8.24999C0.950012 7.86665 1.02918 7.49165 1.18751 7.12499C1.34585 6.75832 1.57501 6.42499 1.87501 6.12499L6.10001 1.87499C6.38335 1.59165 6.69585 1.37499 7.03751 1.22499C7.37918 1.07499 7.74168 0.999988 8.12501 0.999988C8.54168 0.999988 8.94585 1.07499 9.33751 1.22499C9.72918 1.37499 10.0667 1.59165 10.35 1.87499L15.475 6.99999C15.5583 7.08332 15.6292 7.18749 15.6875 7.31249C15.7458 7.43749 15.775 7.56665 15.775 7.69999C15.775 7.98332 15.6792 8.22082 15.4875 8.41249C15.2958 8.60415 15.0583 8.69999 14.775 8.69999C14.6417 8.69999 14.5125 8.67082 14.3875 8.61249C14.2625 8.55415 14.1583 8.48332 14.075 8.39999L11 5.34999C10.6167 4.96665 10.1458 4.77499 9.58751 4.77499C9.02918 4.77499 8.55835 4.96665 8.17501 5.34999L3.47501 10.05C3.25835 10.2667 3.00418 10.3792 2.71251 10.3875C2.42085 10.3958 2.15001 10.3083 1.90001 10.125Z" fill="white"/>
</svg>
