<svg xmlns="http://www.w3.org/2000/svg" xmlns:xlink="http://www.w3.org/1999/xlink" width="28" height="23.64" viewBox="0 0 28 23.64">
  <defs>
    <clipPath id="clip-path">
      <rect id="Rectangle_3429" data-name="Rectangle 3429" width="28" height="23.64" transform="translate(-2 -2)" fill="#fff" stroke="#fff" stroke-width="0.5"/>
    </clipPath>
  </defs>
  <g id="Group_18110" data-name="Group 18110" transform="translate(2 2)">
    <g id="Group_18109" data-name="Group 18109" clip-path="url(#clip-path)">
      <path id="Path_34171" data-name="Path 34171" d="M96.741,8.339a4.071,4.071,0,0,1-.288.364q-.972.983-1.953,1.956a.578.578,0,0,1-.964.01Q92.515,9.652,91.5,8.631a.554.554,0,1,1,.769-.79c.317.313.63.629.946.943.054.053.11.1.165.156l.074-.026a16.917,16.917,0,0,0-.393-1.683A8.728,8.728,0,0,0,77.48,5c-.045.063-.083.132-.128.2a.549.549,0,1,1-.921-.595,13.407,13.407,0,0,1,.936-1.256A9.58,9.58,0,0,1,83.3.108a9.785,9.785,0,0,1,10.96,7.345c.129.511.2,1.037.348,1.623.132-.158.256-.323.4-.472.22-.233.451-.454.678-.681.42-.419.731-.393,1.061.088Z" transform="translate(-72.741 0)" fill="#fff" stroke="#fff" stroke-width="0.5"/>
      <path id="Path_34172" data-name="Path 34172" d="M2.173,187.541c-.41.413-.807.809-1.2,1.209a.549.549,0,0,1-.618.156.542.542,0,0,1-.173-.918c.708-.716,1.423-1.425,2.136-2.137l.017-.016a.525.525,0,0,1,.775,0Q4.2,186.912,5.28,188a.547.547,0,1,1-.77.777c-.332-.319-.653-.649-.98-.975a.481.481,0,0,0-.221-.138c.072.392.126.787.218,1.174a8.616,8.616,0,0,0,7.045,6.51,8.533,8.533,0,0,0,8.749-3.854.972.972,0,0,1,.414-.344.469.469,0,0,1,.571.21.547.547,0,0,1,0,.636,9.819,9.819,0,0,1-7.1,4.512,9.8,9.8,0,0,1-10.7-7.291c-.14-.541-.213-1.1-.324-1.68" transform="translate(0 -176.946)" fill="#fff" stroke="#fff" stroke-width="0.5"/>
    </g>
  </g>
</svg>
