<svg xmlns="http://www.w3.org/2000/svg" width="22" height="22" viewBox="0 0 22 22">
  <g id="Scrip_not_added" transform="translate(-44.183 -191.183)">
    <g id="Path_28644" data-name="Path 28644" transform="translate(44.183 191.183)" fill="none">
      <path d="M11,0A11,11,0,1,1,0,11,11,11,0,0,1,11,0Z" stroke="none"/>
      <path d="M 11 0.5 C 5.21027946472168 0.5 0.5 5.21027946472168 0.5 11 C 0.5 16.78972053527832 5.21027946472168 21.5 11 21.5 C 16.78972053527832 21.5 21.5 16.78972053527832 21.5 11 C 21.5 5.21027946472168 16.78972053527832 0.5 11 0.5 M 11 0 C 17.07513046264648 0 22 4.924869537353516 22 11 C 22 17.07513046264648 17.07513046264648 22 11 22 C 4.924869537353516 22 0 17.07513046264648 0 11 C 0 4.924869537353516 4.924869537353516 0 11 0 Z" stroke="none" fill="#3977de"/>
    </g>
    <g id="plus-sign" transform="translate(49.921 197.058)">
      <path id="Path_28643" data-name="Path 28643" d="M9.639,4.411H6.045V.817a.817.817,0,1,0-1.634,0V4.411H.817a.817.817,0,0,0,0,1.634H4.411V9.64a.817.817,0,0,0,1.634,0V6.045H9.64a.817.817,0,1,0,0-1.634Z" fill="#3977de"/>
    </g>
  </g>
</svg>
