<svg width="28" height="28" viewBox="0 0 28 28" fill="none" xmlns="http://www.w3.org/2000/svg">
<circle opacity="0.11" cx="14" cy="14" r="14" fill="#F1C654"/>
<path d="M21.4544 15.1205C20.8347 14.9665 20.2341 14.7478 19.6632 14.4682C19.4869 14.3828 19.3247 14.3008 19.1766 14.2223C18.8839 14.0652 18.6512 13.9251 18.4996 13.8295C18.491 13.8236 18.4815 13.819 18.4714 13.8158C18.3596 13.7527 18.2321 13.7206 18.1027 13.723C17.9734 13.7254 17.8472 13.7623 17.738 13.8295C16.8282 14.4058 15.8314 14.8413 14.7832 15.1205C14.6289 15.1568 14.4916 15.2421 14.3932 15.3628C14.2948 15.4835 14.2409 15.6327 14.2402 15.7865V16.3705C14.2399 17.214 14.4547 18.0445 14.8656 18.7881C15.2765 19.5317 15.8708 20.1654 16.5956 20.6329L16.9235 20.8447L17.7274 21.3638C17.7912 21.4045 17.8615 21.4345 17.9355 21.4526H17.939C17.9968 21.4719 18.0577 21.4812 18.1188 21.4799C18.2581 21.4788 18.3941 21.4384 18.5102 21.3638L19.642 20.6329C20.3668 20.1654 20.9611 19.5317 21.372 18.7881C21.7829 18.0445 21.9977 17.214 21.9974 16.3705V15.7865C21.9967 15.6327 21.9428 15.4835 21.8444 15.3628C21.746 15.2421 21.6087 15.1568 21.4544 15.1205ZM19.4269 16.9887L18.0166 18.3549C17.9497 18.4184 17.8598 18.4539 17.7662 18.4539C17.6726 18.4539 17.5827 18.4184 17.5159 18.3549L16.8107 17.6718C16.7443 17.6075 16.707 17.5203 16.707 17.4293C16.707 17.3383 16.7443 17.2511 16.8107 17.1868C16.8771 17.1225 16.9671 17.0864 17.061 17.0864C17.1549 17.0864 17.245 17.1225 17.3114 17.1868L17.7662 17.6308L18.9263 16.5037C18.9591 16.4719 18.9982 16.4466 19.0411 16.4294C19.0841 16.4122 19.1301 16.4033 19.1766 16.4033C19.2231 16.4033 19.2691 16.4122 19.3121 16.4294C19.355 16.4466 19.3941 16.4719 19.4269 16.5037C19.4598 16.5356 19.4859 16.5734 19.5037 16.615C19.5215 16.6566 19.5306 16.7012 19.5306 16.7462C19.5306 16.7913 19.5215 16.8359 19.5037 16.8775C19.4859 16.9191 19.4598 16.9569 19.4269 16.9887Z" fill="#F1C654"/>
<path d="M18.3975 10.5304L15.4065 7.51719C15.2991 7.41012 15.178 7.3174 15.0461 7.24138V9.75813C15.047 10.0322 15.1578 10.2948 15.3544 10.4886C15.5511 10.6824 15.8175 10.7916 16.0956 10.7924H18.6109C18.5478 10.699 18.4764 10.6113 18.3975 10.5304ZM18.8733 11.4819H16.0956C15.6317 11.4819 15.1868 11.3003 14.8588 10.977C14.5308 10.6538 14.3465 10.2153 14.3465 9.75813V7.01384C14.284 7.0041 14.2208 6.99949 14.1576 7.00004H8.74916C8.28525 7.00004 7.84035 7.18166 7.51232 7.50494C7.18429 7.82821 7 8.26667 7 8.72385V19.7562C7 20.2134 7.18429 20.6518 7.51232 20.9751C7.84035 21.2984 8.28525 21.48 8.74916 21.48H16.449L15.9452 21.149C15.1301 20.6147 14.4617 19.89 13.9997 19.0394C13.5376 18.1889 13.2962 17.2389 13.297 16.2741V15.6846C13.2971 15.4714 13.3474 15.2611 13.4439 15.0702C13.5404 14.8794 13.6805 14.7132 13.8532 14.5848H9.44882C9.35604 14.5848 9.26706 14.5485 9.20145 14.4838C9.13585 14.4191 9.09899 14.3315 9.09899 14.24C9.09899 14.1486 9.13585 14.0609 9.20145 13.9962C9.26706 13.9316 9.35604 13.8953 9.44882 13.8953H15.6548C16.1502 13.6751 16.6284 13.4193 17.0857 13.1299C17.2908 13.0015 17.526 12.9273 17.7687 12.9147C18.0114 12.902 18.2532 12.9512 18.471 13.0575L18.4955 13.0678L18.6004 13.1299C18.6739 13.1782 18.7718 13.2368 18.8943 13.3092V11.7371C18.8944 11.6516 18.8874 11.5663 18.8733 11.4819ZM13.297 18.3772C13.297 18.4686 13.2601 18.5563 13.1945 18.6209C13.1289 18.6856 13.0399 18.7219 12.9471 18.7219H9.44882C9.35604 18.7219 9.26706 18.6856 9.20145 18.6209C9.13585 18.5563 9.09899 18.4686 9.09899 18.3772C9.09899 18.2857 9.13585 18.198 9.20145 18.1334C9.26706 18.0687 9.35604 18.0324 9.44882 18.0324H12.9471C13.0399 18.0324 13.1289 18.0687 13.1945 18.1334C13.2601 18.198 13.297 18.2857 13.297 18.3772ZM9.44882 15.9638H12.2475C12.3403 15.9638 12.4292 16.0001 12.4948 16.0648C12.5605 16.1295 12.5973 16.2172 12.5973 16.3086C12.5973 16.4 12.5605 16.4877 12.4948 16.5524C12.4292 16.617 12.3403 16.6533 12.2475 16.6533H9.44882C9.35604 16.6533 9.26706 16.617 9.20145 16.5524C9.13585 16.4877 9.09899 16.4 9.09899 16.3086C9.09899 16.2172 9.13585 16.1295 9.20145 16.0648C9.26706 16.0001 9.35604 15.9638 9.44882 15.9638ZM9.44882 9.75813H12.2475C12.3403 9.75813 12.4292 9.79445 12.4948 9.85911C12.5605 9.92376 12.5973 10.0115 12.5973 10.1029C12.5973 10.1943 12.5605 10.282 12.4948 10.3467C12.4292 10.4113 12.3403 10.4477 12.2475 10.4477H9.44882C9.35604 10.4477 9.26706 10.4113 9.20145 10.3467C9.13585 10.282 9.09899 10.1943 9.09899 10.1029C9.09899 10.0115 9.13585 9.92376 9.20145 9.85911C9.26706 9.79445 9.35604 9.75813 9.44882 9.75813ZM14.3465 12.5162H9.44882C9.35604 12.5162 9.26706 12.4799 9.20145 12.4152C9.13585 12.3506 9.09899 12.2629 9.09899 12.1715C9.09899 12.08 9.13585 11.9923 9.20145 11.9277C9.26706 11.863 9.35604 11.8267 9.44882 11.8267H14.3465C14.4393 11.8267 14.5282 11.863 14.5938 11.9277C14.6594 11.9923 14.6963 12.08 14.6963 12.1715C14.6963 12.2629 14.6594 12.3506 14.5938 12.4152C14.5282 12.4799 14.4393 12.5162 14.3465 12.5162Z" fill="#F1C654"/>
</svg>
