<svg xmlns="http://www.w3.org/2000/svg" width="24" height="30" viewBox="0 0 24 30">
  <g id="Group_8545" data-name="Group 8545" transform="translate(-1629.672 1524.9)">
    <path id="Path_30962" data-name="Path 30962" d="M75.709,43.14a1.306,1.306,0,0,0-1.27-1.34,12.633,12.633,0,0,1-9.785-3.89,1.224,1.224,0,0,0-1.773,0A12.67,12.67,0,0,1,53.1,41.8a1.306,1.306,0,0,0-1.27,1.34c0,.729,0,1.484-.025,2.261-.137,7.5-.32,17.714,11.553,22.055a1.208,1.208,0,0,0,.833,0C76.06,63.116,75.872,52.876,75.74,45.4,75.72,44.63,75.709,43.874,75.709,43.14ZM63.765,64.777C54.056,61,54.2,52.753,54.335,45.487V44.48a14.79,14.79,0,0,0,9.409-3.751,14.79,14.79,0,0,0,9.409,3.751v1.007C73.327,52.748,73.479,61,63.765,64.777Z" transform="translate(1577.902 -1562.43)" fill="#ff6700"/>
    <path id="Path_30963" data-name="Path 30963" d="M73.36,58.685l-3.971,3.961L68,61.254a1.271,1.271,0,1,0-1.8,1.8l2.29,2.29a1.27,1.27,0,0,0,1.8,0l4.87-4.87a1.27,1.27,0,0,0-1.8-1.788Z" transform="translate(1570.845 -1572.259)" fill="#ff6700"/>
  </g>
</svg>
