<svg xmlns="http://www.w3.org/2000/svg" xmlns:xlink="http://www.w3.org/1999/xlink" width="24" height="24" viewBox="0 0 24 24">
  <defs>
    <clipPath id="clip-settings">
      <rect width="24" height="24"/>
    </clipPath>
  </defs>
  <g id="settings" clip-path="url(#clip-settings)">
    <g id="Group_17979" data-name="Group 17979" transform="translate(-110 -292)">
      <g id="Group_17934" data-name="Group 17934" transform="translate(-1074.565 548.239)">
        <path id="Path_32519" data-name="Path 32519" d="M1196.571-251.234c.922,0,1.844-.011,2.765,0a2.38,2.38,0,0,1,2.11,1.173q1.4,2.3,2.771,4.629a2.208,2.208,0,0,1,0,2.376q-1.373,2.33-2.78,4.642a2.357,2.357,0,0,1-2.1,1.163q-2.773.021-5.546,0a2.364,2.364,0,0,1-2.11-1.173q-1.408-2.31-2.777-4.642a2.2,2.2,0,0,1,0-2.361q1.367-2.315,2.763-4.614a2.4,2.4,0,0,1,2.148-1.192C1194.739-251.243,1195.655-251.234,1196.571-251.234Zm-.008,1h0c-.938,0-1.876-.01-2.813,0a1.284,1.284,0,0,0-1.123.607q-1.445,2.371-2.849,4.765a1.193,1.193,0,0,0,.016,1.255q1.381,2.335,2.783,4.658a1.354,1.354,0,0,0,1.21.684q2.789.016,5.578,0a1.314,1.314,0,0,0,1.166-.647q1.417-2.342,2.807-4.7a1.223,1.223,0,0,0-.009-1.3q-1.371-2.313-2.757-4.618a1.418,1.418,0,0,0-1.292-.713C1198.375-250.233,1197.469-250.23,1196.564-250.23Z" transform="translate(0 0)" fill="#fff"/>
        <path id="Path_32520" data-name="Path 32520" d="M1347.135-119.073a3.04,3.04,0,0,1-3.078,2.966,3.041,3.041,0,0,1-3.063-2.965,3.039,3.039,0,0,1,3.079-2.966A3.039,3.039,0,0,1,1347.135-119.073Zm-5.092,0a1.988,1.988,0,0,0,2.019,1.956,1.992,1.992,0,0,0,2.023-1.938,1.987,1.987,0,0,0-2.011-1.964A1.992,1.992,0,0,0,1342.043-119.077Z" transform="translate(-147.498 -125.168)" fill="#fff"/>
      </g>
      <rect id="Rectangle_3424" data-name="Rectangle 3424" width="24" height="24" transform="translate(110 292)" fill="none"/>
    </g>
  </g>
</svg>
