<svg width="19" height="20" viewBox="0 0 19 20" fill="none" xmlns="http://www.w3.org/2000/svg">
<path d="M16.2776 3.33763L12.2054 2.03203C12.0721 1.98932 11.9279 1.98932 11.7946 2.03203L7.72235 3.33763C7.07489 3.54443 6.51167 3.94216 6.11272 4.47431C5.71377 5.00646 5.49937 5.64596 5.5 6.30196V9.50004C5.5 14.2268 11.48 16.8374 11.7361 16.9462C11.8192 16.9817 11.9091 17 12 17C12.0909 17 12.1808 16.9817 12.2639 16.9462C12.52 16.8374 18.5 14.2268 18.5 9.50004V6.30196C18.5006 5.64596 18.2862 5.00646 17.8873 4.47431C17.4883 3.94216 16.9251 3.54443 16.2776 3.33763ZM15.0667 8.07318L12.2899 10.7431C12.1763 10.8531 12.041 10.9403 11.8921 10.9997C11.7431 11.059 11.5834 11.0893 11.4222 11.0888H11.4007C11.2362 11.0863 11.0739 11.0519 10.9236 10.9874C10.7733 10.9229 10.6382 10.8299 10.5265 10.7138L9.02755 9.21379C8.96264 9.15588 8.91071 9.08583 8.87496 9.00793C8.83922 8.93003 8.8204 8.84593 8.81967 8.76079C8.81894 8.67565 8.8363 8.59127 8.87071 8.51281C8.90511 8.43435 8.95582 8.36349 9.01973 8.30455C9.08364 8.24562 9.1594 8.19986 9.24236 8.17009C9.32532 8.14032 9.41373 8.12716 9.50217 8.13142C9.59061 8.13568 9.67721 8.15727 9.75666 8.19487C9.83611 8.23246 9.90674 8.28527 9.9642 8.35005L11.4228 9.81253L14.145 7.18757C14.2676 7.07372 14.4318 7.01073 14.6022 7.01215C14.7726 7.01358 14.9357 7.07931 15.0562 7.19518C15.1767 7.31106 15.2451 7.46782 15.2465 7.63169C15.248 7.79556 15.1825 7.95343 15.0641 8.07131L15.0667 8.07318Z" fill="white" fill-opacity="0.8"/>
</svg>
