<svg id="sort_1_" data-name="sort (1)" xmlns="http://www.w3.org/2000/svg" width="16.027" height="24.04" viewBox="0 0 16.027 24.04">
  <g id="Group_8647" data-name="Group 8647" transform="translate(0 0)">
    <g id="Group_8646" data-name="Group 8646">
      <path id="Path_28827" data-name="Path 28827" d="M223.058,11.728l-4.007,4.007h0q-.035.035-.073.066l-.036.027-.043.032-.044.027-.04.024-.046.022-.043.02-.045.016-.048.017-.045.012-.05.012-.053.008-.044.006a1.008,1.008,0,0,1-.2,0l-.044-.006-.053-.008L218.1,16l-.045-.012L218,15.969l-.045-.016-.043-.02-.046-.022-.04-.024-.044-.027-.043-.032-.036-.027q-.038-.031-.073-.066h0l-4.007-4.007a1,1,0,0,1,1.417-1.417l2.3,2.3V1a1,1,0,0,1,2,0V12.608l2.3-2.3a1,1,0,1,1,1.417,1.417Z" transform="translate(-207.325 8.012)" fill="#9bbaee"/>
      <path id="Path_28828" data-name="Path 28828" d="M93.64,176.384l-2.3-2.3v11.605a1,1,0,1,1-2,0V174.087l-2.3,2.3a1,1,0,0,1-1.417-1.417l4.007-4.007h0c.023-.023.048-.045.073-.066l.036-.027.043-.032.044-.027.04-.024.046-.022.043-.02.045-.016.048-.017.046-.012.05-.012.053-.008.044-.006a1.01,1.01,0,0,1,.2,0l.044.006.053.008.05.012.045.012.048.017.045.016.043.02.046.022.04.024.044.027.043.032.036.027q.038.031.072.065h0l4.007,4.007a1,1,0,1,1-1.417,1.417Z" transform="translate(-85.334 -170.667)" fill="#3977de"/>
    </g>
  </g>
</svg>
