<svg xmlns="http://www.w3.org/2000/svg" width="23" height="10" viewBox="0 0 23 10">
  <g id="sort-alphabet-ascending" transform="translate(-0.001 -119.745)">
    <path id="Path_28521" data-name="Path 28521" d="M5.535,123.849a.427.427,0,0,0-.385-.244H4.635a.427.427,0,0,0-.385.246L.042,132.767a.436.436,0,0,0,.024.416.426.426,0,0,0,.361.2h.631a.427.427,0,0,0,.386-.246l1.1-2.333H7.272l1.114,2.335a.427.427,0,0,0,.385.244H9.4a.433.433,0,0,0,.371-.647Zm-2.309,5.517,1.67-3.539,1.688,3.539Z" transform="translate(0 -3.64)" fill="#092f5e"/>
    <path id="Path_28522" data-name="Path 28522" d="M287.072,120.446l-.227-.461a.427.427,0,0,0-.383-.239h-6.379a.43.43,0,0,0-.427.432v.576a.43.43,0,0,0,.427.432h4.956l-5.453,7.4a.435.435,0,0,0-.04.45l.227.462a.427.427,0,0,0,.383.239H286.5a.43.43,0,0,0,.427-.432v-.576a.43.43,0,0,0-.427-.432h-4.92l5.453-7.4A.436.436,0,0,0,287.072,120.446Z" transform="translate(-264.116 0)" fill="#092f5e"/>
    <path id="Path_28523" data-name="Path 28523" d="M176.438,125.669l-.449-.355a.424.424,0,0,0-.6.074l-1.039,1.341v-6.551a.43.43,0,0,0-.427-.432h-.57a.43.43,0,0,0-.427.432v6.551l-1.039-1.341a.424.424,0,0,0-.6-.074l-.449.355a.435.435,0,0,0-.073.606l2.536,3.273a.425.425,0,0,0,.673,0l2.536-3.273A.435.435,0,0,0,176.438,125.669Z" transform="translate(-161.248 -0.001)" fill="#092f5e"/>
  </g>
</svg>
