<svg xmlns="http://www.w3.org/2000/svg" width="11.611" height="12.6" viewBox="0 0 11.611 12.6">
  <g id="Group_15366" data-name="Group 15366" transform="translate(160.686 -934.7)">
    <path id="Path_32495" data-name="Path 32495" d="M-154.934,935a.381.381,0,0,1,.234.365.33.33,0,0,1-.275.314,1.192,1.192,0,0,1-.184.011q-1.476,0-2.953,0a1.51,1.51,0,0,0-1.386.774,1.516,1.516,0,0,0-.205.794q0,3.743,0,7.486a1.524,1.524,0,0,0,1.273,1.539,1.887,1.887,0,0,0,.346.022q1.424,0,2.848,0h.093a.362.362,0,0,1,.387.266.356.356,0,0,1-.214.407c-.005,0-.007.012-.011.019h-3.451a.465.465,0,0,0-.074-.024,2,2,0,0,1-.769-.271,2.224,2.224,0,0,1-1.112-2.022q0-3.683,0-7.366a3.034,3.034,0,0,1,.013-.339,2.223,2.223,0,0,1,1.652-1.909c.1-.025.193-.046.289-.069Z" transform="translate(0 0)" fill="#ff6700" stroke="#ff6700" stroke-width="0.6"/>
    <path id="Path_32496" data-name="Path 32496" d="M-40.8,1085.891h-6.769a.667.667,0,0,1-.2-.026.329.329,0,0,1-.218-.348.324.324,0,0,1,.247-.3.824.824,0,0,1,.195-.02h6.771c-.042-.047-.068-.078-.1-.106q-.72-.73-1.44-1.459a.348.348,0,0,1,.127-.6.331.331,0,0,1,.347.1q.247.248.492.5l1.6,1.624a.36.36,0,0,1,0,.586q-1.039,1.053-2.078,2.106a.353.353,0,0,1-.375.118.345.345,0,0,1-.175-.531.961.961,0,0,1,.1-.113q.7-.7,1.392-1.408a1.188,1.188,0,0,1,.1-.081Z" transform="translate(-109.795 -144.541)" fill="#ff6700" stroke="#ff6700" stroke-width="0.6"/>
  </g>
</svg>
