<svg width="95" height="105" viewBox="0 0 95 105" fill="none" xmlns="http://www.w3.org/2000/svg">
<circle opacity="0.1" cx="47.5" cy="47" r="47" fill="#E5EAF7"/>
<path d="M11 14.2827L11 99.0044C11 100.107 11.9551 101 13.1332 101H82.9522C84.1304 101 85.0854 100.107 85.0854 99.0044V14.2827C85.0854 13.1805 84.1304 12.2871 82.9522 12.2871H13.1332C11.9551 12.2871 11 13.1805 11 14.2827Z" fill="#4D4D4D"/>
<path d="M60.5333 47.4703C60.532 46.2398 60.0425 45.06 59.1724 44.1899C58.3023 43.3198 57.1225 42.8304 55.892 42.829H55.0548V41.9833C55.0548 41.7225 54.9512 41.4724 54.7668 41.288C54.5824 41.1036 54.3323 41 54.0715 41C53.8107 41 53.5605 41.1036 53.3761 41.288C53.1917 41.4724 53.0881 41.7225 53.0881 41.9833V42.829H40.446V41.9833C40.446 41.7225 40.3424 41.4724 40.158 41.288C39.9736 41.1036 39.7235 41 39.4627 41C39.2019 41 38.9518 41.1036 38.7673 41.288C38.5829 41.4724 38.4793 41.7225 38.4793 41.9833V42.829H37.6413C36.4108 42.8304 35.231 43.3198 34.3609 44.1899C33.4908 45.06 33.0014 46.2398 33 47.4703V63.892C33.0014 65.1225 33.4908 66.3023 34.3609 67.1724C35.231 68.0425 36.4108 68.532 37.6413 68.5333H48.1561C49.7089 69.7974 51.6478 70.4915 53.65 70.5C55.9964 70.4974 58.2459 69.5642 59.905 67.905C61.5642 66.2459 62.4974 63.9964 62.5 61.65C62.4915 59.6478 61.7974 57.7089 60.5333 56.1561V47.4703ZM37.6413 44.7957H38.4785V45.6348C38.4785 45.8956 38.5821 46.1458 38.7666 46.3302C38.951 46.5146 39.2011 46.6182 39.4619 46.6182C39.7227 46.6182 39.9728 46.5146 40.1572 46.3302C40.3416 46.1458 40.4452 45.8956 40.4452 45.6348V44.7957H53.0865V45.6348C53.0865 45.8956 53.1902 46.1458 53.3746 46.3302C53.559 46.5146 53.8091 46.6182 54.0699 46.6182C54.3307 46.6182 54.5808 46.5146 54.7652 46.3302C54.9496 46.1458 55.0532 45.8956 55.0532 45.6348V44.7957H55.892C56.6011 44.7965 57.2809 45.0786 57.7824 45.58C58.2838 46.0814 58.5658 46.7612 58.5667 47.4703V48.305H34.9667V47.4703C34.9675 46.7612 35.2496 46.0814 35.751 45.58C36.2524 45.0786 36.9322 44.7965 37.6413 44.7957ZM34.9667 63.892V50.2717H58.5667V54.2982C56.8655 53.1574 54.8211 52.6426 52.7826 52.8417C50.7441 53.0407 48.8379 53.9413 47.3896 55.3896C45.9413 56.8379 45.0407 58.7441 44.8417 60.7826C44.6426 62.8211 45.1574 64.8655 46.2982 66.5667H37.6413C36.9322 66.5658 36.2524 66.2837 35.751 65.7823C35.2496 65.2809 34.9676 64.6011 34.9667 63.892ZM53.65 68.5333C52.2886 68.5333 50.9578 68.1296 49.8258 67.3733C48.6939 66.6169 47.8116 65.5419 47.2906 64.2841C46.7696 63.0264 46.6333 61.6424 46.8989 60.3071C47.1645 58.9719 47.8201 57.7454 48.7827 56.7827C49.7454 55.8201 50.9719 55.1645 52.3071 54.8989C53.6424 54.6333 55.0264 54.7696 56.2841 55.2906C57.5419 55.8116 58.6169 56.6939 59.3733 57.8258C60.1296 58.9578 60.5333 60.2886 60.5333 61.65C60.5311 63.4749 59.8052 65.2244 58.5148 66.5148C57.2244 67.8052 55.4749 68.5311 53.65 68.5333Z" fill="#999999"/>
<path d="M54.3701 66.2378C54.2756 66.2378 54.2008 66.219 54.1457 66.1816C54.0905 66.1441 54.0394 66.0992 53.9921 66.0467L51.2872 63.1023C51.2242 63.0424 51.1809 62.99 51.1573 62.945C51.1415 62.8926 51.1337 62.8139 51.1337 62.709V62.4618C51.1337 62.3868 51.1573 62.3269 51.2045 62.282C51.2596 62.2295 51.3266 62.2033 51.4053 62.2033H52.0432C52.5944 62.2033 53.0157 62.1359 53.307 62.001C53.5984 61.8661 53.7952 61.6863 53.8976 61.4616C54.0079 61.2368 54.063 60.9783 54.063 60.6861C54.063 60.4089 54.0079 60.158 53.8976 59.9332C53.7952 59.7009 53.6063 59.5174 53.3306 59.3825C53.055 59.2477 52.6652 59.1802 52.1613 59.1802H51.299C51.2203 59.1802 51.1533 59.1578 51.0982 59.1128C51.051 59.0604 51.0273 58.9967 51.0273 58.9218V58.6296C51.0273 58.5546 51.051 58.4947 51.0982 58.4498C51.1533 58.3973 51.2203 58.3711 51.299 58.3711H56.0001C56.0789 58.3711 56.1419 58.3973 56.1891 58.4498C56.2442 58.4947 56.2718 58.5546 56.2718 58.6296V58.9218C56.2718 58.9967 56.2442 59.0604 56.1891 59.1128C56.1419 59.1578 56.0789 59.1802 56.0001 59.1802H54.2047L53.9094 58.8768C54.4213 58.9967 54.7717 59.2252 54.9607 59.5623C55.1497 59.8995 55.2442 60.2891 55.2442 60.7311C55.2442 61.1432 55.1497 61.5215 54.9607 61.8661C54.7796 62.2108 54.4882 62.488 54.0866 62.6978C53.6929 62.9 53.185 63.0087 52.5629 63.0237L52.2085 63.0349L52.2203 62.5854L55.2442 65.8894C55.3072 65.9493 55.3387 66.0055 55.3387 66.058C55.3387 66.1179 55.315 66.1628 55.2678 66.1928C55.2205 66.2228 55.1615 66.2378 55.0906 66.2378H54.3701ZM51.299 60.9783C51.2124 60.9783 51.1455 60.9559 51.0982 60.9109C51.051 60.866 51.0273 60.8023 51.0273 60.7199V60.4389C51.0273 60.3565 51.051 60.2928 51.0982 60.2479C51.1533 60.2029 51.2203 60.1804 51.299 60.1804H56.0001C56.0789 60.1804 56.1419 60.2029 56.1891 60.2479C56.2442 60.2928 56.2718 60.3565 56.2718 60.4389V60.7199C56.2718 60.8023 56.2442 60.866 56.1891 60.9109C56.1419 60.9559 56.0789 60.9783 56.0001 60.9783H51.299Z" fill="#999999"/>
<path d="M12.4506 11.5352H82.4964C83.5714 11.5352 84.4448 12.4168 84.4448 13.5018V20.0151H10.3594V13.646C10.3594 12.4789 11.2972 11.5352 12.4506 11.5352Z" fill="#FF6700"/>
<path d="M15.7504 15.472C15.7504 16.2012 15.1543 16.7917 14.4182 16.7917C13.6821 16.7917 13.0859 16.2012 13.0859 15.472C13.0859 14.7429 13.6821 14.1523 14.4182 14.1523C15.1543 14.1523 15.7504 14.7429 15.7504 15.472Z" fill="white"/>
<path d="M19.3481 15.472C19.3481 16.2012 18.7519 16.7917 18.0158 16.7917C17.2797 16.7917 16.6836 16.2012 16.6836 15.472C16.6836 14.7429 17.2797 14.1523 18.0158 14.1523C18.7519 14.1523 19.3481 14.7429 19.3481 15.472Z" fill="white"/>
<path d="M22.9457 15.472C22.9457 16.2012 22.3496 16.7917 21.6135 16.7917C20.8774 16.7917 20.2812 16.2012 20.2812 15.472C20.2812 14.7429 20.8774 14.1523 21.6135 14.1523C22.3496 14.1523 22.9457 14.7429 22.9457 15.472Z" fill="white"/>
</svg>
