<svg xmlns="http://www.w3.org/2000/svg" width="16.298" height="9.3" viewBox="0 0 16.298 9.3">
  <g id="stock_report_plus" transform="translate(962.817 -5079.85)">
    <g id="Group_8689" data-name="Group 8689" transform="translate(-962.667 5086.091)">
      <g id="Group_8688" data-name="Group 8688">
        <path id="Path_28669" data-name="Path 28669" d="M22.787,192a1.454,1.454,0,1,0,1.454,1.454A1.454,1.454,0,0,0,22.787,192Zm0,2.181a.727.727,0,1,1,.727-.727A.727.727,0,0,1,22.787,194.181Z" transform="translate(-21.333 -192)" fill="#3977de" stroke="#3977de" stroke-width="0.3"/>
      </g>
    </g>
    <g id="Group_8691" data-name="Group 8691" transform="translate(-958.304 5082.707)">
      <g id="Group_8690" data-name="Group 8690">
        <path id="Path_28670" data-name="Path 28670" d="M150.787,85.333a1.454,1.454,0,1,0,1.454,1.454A1.454,1.454,0,0,0,150.787,85.333Zm0,2.181a.727.727,0,1,1,.727-.727.727.727,0,0,1-.727.727Z" transform="translate(-149.333 -85.333)" fill="#3977de" stroke="#3977de" stroke-width="0.3"/>
      </g>
    </g>
    <g id="Group_8693" data-name="Group 8693" transform="translate(-953.941 5084.062)">
      <g id="Group_8692" data-name="Group 8692">
        <path id="Path_28671" data-name="Path 28671" d="M278.787,128a1.454,1.454,0,1,0,1.454,1.454A1.454,1.454,0,0,0,278.787,128Zm0,2.181a.727.727,0,1,1,.727-.727A.727.727,0,0,1,278.787,130.181Z" transform="translate(-277.333 -128)" fill="#3977de" stroke="#3977de" stroke-width="0.3"/>
      </g>
    </g>
    <g id="Group_8695" data-name="Group 8695" transform="translate(-949.578 5080)">
      <g id="Group_8694" data-name="Group 8694">
        <path id="Path_28672" data-name="Path 28672" d="M406.787,0a1.454,1.454,0,1,0,1.454,1.454A1.454,1.454,0,0,0,406.787,0Zm0,2.181a.727.727,0,1,1,.727-.727A.727.727,0,0,1,406.787,2.181Z" transform="translate(-405.333)" fill="#3977de" stroke="#3977de" stroke-width="0.3"/>
      </g>
    </g>
    <g id="Group_8697" data-name="Group 8697" transform="translate(-952.077 5081.811)">
      <g id="Group_8696" data-name="Group 8696" transform="translate(0.113)">
        <path id="Path_28673" data-name="Path 28673" d="M335.188,54.708a.34.34,0,0,0-.482,0l-2.642,2.66a.344.344,0,0,0,0,.485.339.339,0,0,0,.482,0l2.644-2.66a.345.345,0,0,0,0-.485Z" transform="translate(-331.965 -54.608)" fill="#3977de" stroke="#3977de" stroke-width="0.3"/>
      </g>
    </g>
    <g id="Group_8699" data-name="Group 8699" transform="translate(-956.148 5084.062)">
      <g id="Group_8698" data-name="Group 8698">
        <path id="Path_28674" data-name="Path 28674" d="M214.911,126.761l-2.332-.663a.364.364,0,0,0-.2.7l2.336.666a.364.364,0,0,0,.2-.7Z" transform="translate(-212.128 -126.087)" fill="#3977de" stroke="#3977de" stroke-width="0.3"/>
      </g>
    </g>
    <g id="Group_8701" data-name="Group 8701" transform="translate(-960.804 5084.354)">
      <g id="Group_8700" data-name="Group 8700" transform="translate(0.082 0.094)">
        <path id="Path_28675" data-name="Path 28675" d="M79.185,137.4a.358.358,0,0,0-.489-.054l-2.628,2.02a.329.329,0,0,0-.111.373.348.348,0,0,0,.328.225.36.36,0,0,0,.217-.073l2.628-2.02a.328.328,0,0,0,.055-.472Z" transform="translate(-75.937 -137.273)" fill="#3977de" stroke="#3977de" stroke-width="0.3"/>
      </g>
    </g>
  </g>
</svg>
