<svg width="16" height="15" viewBox="0 0 16 15" fill="none" xmlns="http://www.w3.org/2000/svg">
<path d="M10.4275 5.06612L8.61709 1.28776C8.43605 0.904081 7.80719 0.904081 7.62615 1.28776L5.81577 5.06612C5.68237 5.34137 5.29171 5.44145 5.01539 5.2663L1.84247 3.33124C1.43275 3.08102 0.880107 3.41465 1.02303 3.84003L3.11926 10.4209C3.18596 10.6211 3.39558 10.7629 3.63379 10.7629H12.619C12.8572 10.7629 13.0668 10.6211 13.1335 10.4209L15.2297 3.84003C15.3631 3.41465 14.82 3.07268 14.4103 3.33124L11.2374 5.2663C10.9611 5.44145 10.5704 5.34137 10.437 5.06612H10.4275Z" stroke="white" stroke-width="1.48228" stroke-linejoin="round"/>
<path d="M3.61816 14.0068H12.6311" stroke="white" stroke-width="1.48228" stroke-linecap="round" stroke-linejoin="round"/>
</svg>
