<svg xmlns="http://www.w3.org/2000/svg" width="51.112" height="51.11" viewBox="0 0 51.112 51.11">
  <g id="Not_found" transform="translate(-162 -293)">
    <g id="Group_8647" data-name="Group 8647">
      <path id="Path_28497" data-name="Path 28497" d="M76.436,61.041a1,1,0,1,0-.448,1.94,13.6,13.6,0,1,1-7.349.331,1,1,0,1,0-.622-1.892,15.439,15.439,0,0,0-6.148,3.789,15.607,15.607,0,1,0,14.568-4.168Zm0,0" transform="translate(110.417 238.076)" fill="#9bbaee" fill-rule="evenodd"/>
      <path id="Path_28498" data-name="Path 28498" d="M49.756,43.2,39.321,32.762a21.31,21.31,0,1,0-6.559,6.559L43.2,49.756A4.638,4.638,0,1,0,49.757,43.2Zm-1.408,5.151a2.658,2.658,0,0,1-3.743,0L33.594,37.336a1,1,0,0,0-1.272-.114A19.332,19.332,0,0,1,7.654,7.654,19.332,19.332,0,0,1,37.223,32.322a1,1,0,0,0,.114,1.272L48.348,44.6a2.65,2.65,0,0,1,0,3.743Zm0,0" transform="translate(161.999 293)" fill="#9bbaee" fill-rule="evenodd"/>
      <path id="Path_28499" data-name="Path 28499" d="M162.765,150.742a1,1,0,0,0-1.408,0l-4.6,4.6-4.6-4.6a1,1,0,0,0-1.408,1.408l4.6,4.6-4.6,4.6a1,1,0,1,0,1.408,1.408l4.6-4.6,4.6,4.6a1,1,0,1,0,1.409-1.408l-4.6-4.6,4.6-4.6a1,1,0,0,0,0-1.408Zm0,0" transform="translate(26.569 157.569)" fill="#9bbaee" fill-rule="evenodd"/>
      <path id="Path_28500" data-name="Path 28500" d="M198,59.37a1,1,0,1,0-1-1A1,1,0,0,0,198,59.37Zm0,0" transform="translate(-15.334 241.349)" fill="#9bbaee" fill-rule="evenodd"/>
    </g>
  </g>
</svg>
