<svg xmlns="http://www.w3.org/2000/svg" xmlns:xlink="http://www.w3.org/1999/xlink" width="24" height="24" viewBox="0 0 24 24">
  <defs>
    <clipPath id="clip-path">
      <rect id="Rectangle_3457" data-name="Rectangle 3457" width="17.996" height="18" fill="#fff"/>
    </clipPath>
    <clipPath id="clip-Tools">
      <rect width="24" height="24"/>
    </clipPath>
  </defs>
  <g id="Tools" clip-path="url(#clip-Tools)">
    <g id="Group_18990" data-name="Group 18990" transform="translate(3 3)">
      <g id="Group_18048" data-name="Group 18048" clip-path="url(#clip-path)">
        <path id="Path_32621" data-name="Path 32621" d="M18.755,20.326H4.066a.619.619,0,0,0-.092-.036,1.851,1.851,0,0,1-1.473-1.8q0-7.074,0-14.148A1.841,1.841,0,0,1,4.337,2.5q7.073,0,14.145,0a1.855,1.855,0,0,1,1.761,1.306c.026.087.052.174.078.26V18.759a.708.708,0,0,0-.036.092,1.848,1.848,0,0,1-1.239,1.383c-.1.034-.194.061-.292.092M11.8,3.248v7.773h7.765c0-.047.007-.081.007-.115,0-2.163,0-4.327,0-6.49a1.326,1.326,0,0,0-.112-.536,1.1,1.1,0,0,0-1.1-.633q-3.183.006-6.367,0Zm-.777.008c-.063,0-.109-.008-.154-.008q-3.218,0-6.436,0a1.436,1.436,0,0,0-.361.039,1.1,1.1,0,0,0-.825,1.159q0,3.2,0,6.4v.172h7.777ZM3.255,11.8c0,.063-.007.109-.007.155q0,3.219,0,6.438a1.437,1.437,0,0,0,.039.361,1.1,1.1,0,0,0,1.159.825q3.2,0,6.4,0h.171V11.8ZM11.8,19.578h.176q3.192,0,6.384,0a1.569,1.569,0,0,0,.379-.036,1.106,1.106,0,0,0,.838-1.184q0-3.184,0-6.368V11.8H11.8Z" transform="translate(-2.412 -2.413)" fill="#fff"/>
        <path id="Path_32622" data-name="Path 32622" d="M16.356,18H1.638l-.015-.006-.033-.014a.269.269,0,0,0-.046-.018A1.932,1.932,0,0,1,0,16.073C0,10.84,0,6.212,0,1.924A1.927,1.927,0,0,1,1.925,0c4.149,0,8.644,0,14.145,0a1.943,1.943,0,0,1,1.844,1.367l.054.181L18,1.64V16.362l-.006.015-.014.032a.313.313,0,0,0-.019.048A1.938,1.938,0,0,1,16.664,17.9c-.068.024-.137.045-.2.065L16.369,18ZM1.672,17.825H16.33l.081-.024c.065-.019.132-.04.2-.062a1.751,1.751,0,0,0,1.183-1.321.459.459,0,0,1,.029-.078l0-.011V1.666L17.8,1.6l-.054-.18A1.768,1.768,0,0,0,16.071.175c-5.5,0-10,0-14.145,0A1.752,1.752,0,0,0,.176,1.925c0,4.287,0,8.915,0,14.148a1.759,1.759,0,0,0,1.4,1.718.406.406,0,0,1,.08.029l.011,0m3.307-.573H2.035a1.184,1.184,0,0,1-1.243-.89,1.493,1.493,0,0,1-.042-.383c0-1.979,0-3.991,0-5.937v-.5c0-.033,0-.064,0-.1,0-.018,0-.037,0-.058l0-.083H8.7v7.953H4.978M.926,9.472c0,.024,0,.046,0,.067v.5c0,1.946,0,3.958,0,5.937a1.325,1.325,0,0,0,.036.339,1.008,1.008,0,0,0,1.074.76H8.521v-7.6Zm10.9,7.779H9.3V9.3h7.951v2.025q0,2.307,0,4.613a1.2,1.2,0,0,1-.9,1.269,1.667,1.667,0,0,1-.4.038l-4.118,0m-2.355-.174H10.7c1.718,0,3.494,0,5.241,0a1.489,1.489,0,0,0,.358-.033,1.021,1.021,0,0,0,.772-1.1q0-2.307,0-4.613V9.479h-7.6ZM8.7,8.7H.748v-2q0-2.33,0-4.659A1.184,1.184,0,0,1,1.639.791,1.5,1.5,0,0,1,2.022.749c1.978,0,3.988,0,5.933,0h.5c.033,0,.064,0,.1,0l.058,0L8.7.76ZM.923,8.522h7.6V.925l-.067,0h-.5c-1.944,0-3.955,0-5.933,0a1.331,1.331,0,0,0-.339.036,1.008,1.008,0,0,0-.76,1.075q0,2.33,0,4.659Zm16.313.173H9.3V.747h1.98c1.527,0,3.107,0,4.66,0a1.181,1.181,0,0,1,1.181.684,1.407,1.407,0,0,1,.12.572c.006,1.76.005,3.55,0,5.281v1.21c0,.026,0,.051,0,.078s0,.027,0,.042ZM9.477,8.52h7.6c0-.01,0-.019,0-.028V7.283c0-1.731,0-3.52,0-5.28a1.228,1.228,0,0,0-.1-.5A1.008,1.008,0,0,0,15.943.92c-1.554,0-3.133,0-4.661,0H9.477Z" transform="translate(0 0.001)" fill="#fff"/>
        <path id="Path_32623" data-name="Path 32623" d="M334.375,130.285h1.443a.374.374,0,1,1,.012.745q-1.452.008-2.9,0a.367.367,0,0,1-.407-.377c0-.23.161-.368.43-.368h1.425" transform="translate(-320.923 -125.741)" fill="#fff"/>
        <path id="Path_32624" data-name="Path 32624" d="M331.958,128.708c-.478,0-.961,0-1.445,0a.515.515,0,0,1-.359-.129.445.445,0,0,1-.134-.335.455.455,0,0,1,.517-.455H333.4a.465.465,0,0,1,.379.78.5.5,0,0,1-.366.139c-.479,0-.966,0-1.459,0m-.835-.749h-.587c-.127,0-.341.037-.342.281a.275.275,0,0,0,.08.208.343.343,0,0,0,.24.082c.983,0,1.959,0,2.9,0a.334.334,0,0,0,.243-.087.28.28,0,0,0,.074-.2c0-.177-.123-.278-.329-.279h-2.281" transform="translate(-318.51 -123.328)" fill="#fff"/>
        <path id="Path_32625" data-name="Path 32625" d="M78.51,89.023c0-.378-.006-.737,0-1.095a.372.372,0,0,1,.572-.338.392.392,0,0,1,.184.369c0,.347,0,.694,0,1.063.375,0,.737,0,1.1,0a.367.367,0,0,1,.361.488.377.377,0,0,1-.391.257c-.29.006-.579,0-.869,0h-.2c0,.344,0,.668,0,.992a.894.894,0,0,1-.012.19.376.376,0,0,1-.744-.083c-.007-.3,0-.591,0-.887v-.213h-.824a3.028,3.028,0,0,1-.312-.008.37.37,0,0,1,.033-.738c.359,0,.718,0,1.1,0" transform="translate(-74.346 -84.479)" fill="#fff"/>
        <path id="Path_32626" data-name="Path 32626" d="M76.475,88.935l-.049,0a.456.456,0,0,1-.414-.464c0-.209,0-.42,0-.625q0-.132,0-.264v-.126h-.8a2.316,2.316,0,0,1-.259-.009.457.457,0,0,1,.041-.912c.251,0,.5,0,.763,0h.255q0-.129,0-.255c0-.259,0-.5,0-.754a.489.489,0,0,1,.243-.427.458.458,0,0,1,.461.017.473.473,0,0,1,.227.444v.976h.249c.263,0,.511,0,.765,0a.454.454,0,0,1,.443.6.462.462,0,0,1-.473.319c-.2,0-.411,0-.611,0h-.374v.181c0,.247,0,.486,0,.725v.024a.84.84,0,0,1-.014.185.452.452,0,0,1-.453.367M76.1,87.279h.087v.3c0,.088,0,.177,0,.265,0,.2,0,.414,0,.62a.289.289,0,0,0,.571.066.684.684,0,0,0,.01-.147v-.025c0-.239,0-.477,0-.724v-.355h.548c.2,0,.405,0,.607,0a.3.3,0,0,0,.309-.195.29.29,0,0,0-.037-.261.293.293,0,0,0-.241-.114c-.252,0-.5,0-.762,0h-.424V85.556a.3.3,0,0,0-.142-.294.282.282,0,0,0-.287-.014.317.317,0,0,0-.153.279c-.006.247,0,.491,0,.749,0,.113,0,.227,0,.344v.087h-.43c-.263,0-.511,0-.761,0a.282.282,0,0,0-.024.564,2.166,2.166,0,0,0,.24.008H76.1Z" transform="translate(-71.933 -82.075)" fill="#fff"/>
        <path id="Path_32627" data-name="Path 32627" d="M89.014,345.1c-.292.294-.562.573-.84.843a.372.372,0,1,1-.512-.536q.343-.346.688-.69c.04-.041.078-.083.132-.141l-.816-.813a.374.374,0,0,1-.135-.373.37.37,0,0,1,.626-.183c.241.226.471.464.7.7a1.7,1.7,0,0,1,.132.184l.725-.739c.049-.049.1-.1.149-.146a.369.369,0,0,1,.522.522c-.223.236-.456.463-.687.691a2.252,2.252,0,0,1-.19.147l.656.646c.078.078.16.153.231.236a.354.354,0,0,1-.016.514.349.349,0,0,1-.513,0c-.282-.274-.556-.559-.855-.862" transform="translate(-84.468 -331.128)" fill="#fff"/>
        <path id="Path_32628" data-name="Path 32628" d="M87.711,343.737a.456.456,0,0,1-.318-.137c-.2-.193-.391-.389-.594-.6l-.2-.2-.2.2c-.2.2-.384.389-.577.577a.486.486,0,0,1-.464.135.468.468,0,0,1-.322-.337.455.455,0,0,1,.151-.458l.375-.377.313-.313c.024-.024.046-.048.073-.077l-.179-.178-.577-.575a.463.463,0,0,1-.157-.456.456.456,0,0,1,.77-.225c.2.191.4.393.595.589l.111.113a.7.7,0,0,1,.082.107l.137-.14.513-.523.03-.031c.039-.04.079-.082.123-.12a.457.457,0,0,1,.643.648c-.2.206-.4.409-.6.6l-.09.088a1.033,1.033,0,0,1-.117.095l.125.123.459.453.054.053c.061.06.124.121.182.188a.444.444,0,0,1-.021.634.452.452,0,0,1-.317.137M86.6,342.552l.062.063.263.268c.2.207.393.4.591.593a.261.261,0,0,0,.391,0,.268.268,0,0,0,.011-.4c-.053-.062-.11-.117-.172-.177l-.055-.054-.458-.452-.269-.265.079-.061.077-.058a.923.923,0,0,0,.1-.084l.09-.088c.2-.195.4-.4.6-.6a.283.283,0,1,0-.4-.4c-.039.034-.075.072-.113.111l-.031.031-.513.523-.285.291-.06-.085c-.02-.029-.037-.055-.053-.078a.662.662,0,0,0-.07-.1l-.111-.113c-.191-.194-.388-.395-.59-.583a.29.29,0,0,0-.283-.077.294.294,0,0,0-.2.218.285.285,0,0,0,.112.289l.577.575.3.3-.058.062-.049.053c-.031.033-.057.062-.084.089l-.313.313-.375.377a.277.277,0,0,0-.107.288.29.29,0,0,0,.2.215.307.307,0,0,0,.3-.091c.192-.187.378-.375.575-.575l.264-.267Z" transform="translate(-82.053 -328.701)" fill="#fff"/>
        <path id="Path_32629" data-name="Path 32629" d="M334.394,343.777c-.469,0-.939,0-1.408,0-.278,0-.445-.143-.449-.374s.165-.383.438-.384h2.834c.274,0,.442.149.44.382a.376.376,0,0,1-.413.375c-.481,0-.962,0-1.443,0" transform="translate(-320.939 -331.055)" fill="#fff"/>
        <path id="Path_32630" data-name="Path 32630" d="M332.822,341.452h-.841v0h-.4c-.336,0-.672,0-1.009,0s-.532-.177-.536-.46a.443.443,0,0,1,.124-.325.548.548,0,0,1,.4-.147c.932,0,1.886,0,2.834,0a.554.554,0,0,1,.4.147.445.445,0,0,1,.124.323.461.461,0,0,1-.5.461l-.6,0m-.826-.175h.414c.333,0,.676,0,1.014,0a.289.289,0,0,0,.326-.288.266.266,0,0,0-.073-.2.385.385,0,0,0-.279-.095h-2.834a.381.381,0,0,0-.278.095.268.268,0,0,0-.073.2c0,.183.134.288.361.288H332Z" transform="translate(-318.527 -328.642)" fill="#fff"/>
        <path id="Path_32631" data-name="Path 32631" d="M334.408,407.66c-.475,0-.95,0-1.425,0a.378.378,0,0,1-.419-.418.364.364,0,0,1,.376-.337q1.478-.007,2.956,0a.366.366,0,0,1,.378.372.369.369,0,0,1-.387.381c-.492.006-.985,0-1.478,0" transform="translate(-320.963 -392.71)" fill="#fff"/>
        <path id="Path_32632" data-name="Path 32632" d="M332.85,405.335h-1.243c-.339,0-.69,0-1.036,0a.528.528,0,0,1-.4-.158.457.457,0,0,1-.11-.355.45.45,0,0,1,.462-.416c1.023-.005,2.018-.005,2.957,0a.451.451,0,0,1,.465.458.457.457,0,0,1-.474.47c-.208,0-.418,0-.626,0m-.823-.176h.413c.339,0,.689,0,1.035,0a.29.29,0,1,0,.009-.579c-.938,0-1.933,0-2.955,0a.293.293,0,0,0-.225.479.358.358,0,0,0,.268.1c.345,0,.7,0,1.035,0h.42Z" transform="translate(-318.552 -390.297)" fill="#fff"/>
      </g>
    </g>
  </g>
</svg>
