<svg id="transfer_fund" xmlns="http://www.w3.org/2000/svg" width="18" height="12" viewBox="0 0 18 12">
  <path id="Path_29114" data-name="Path 29114" d="M-369.464,213.146h-3.712c-1.019,0-2.039,0-3.058-.006a.876.876,0,0,1-.868-.8.893.893,0,0,1,.641-.957,1.4,1.4,0,0,1,.377-.039q3.165,0,6.33,0h.279c-.058-.071-.09-.118-.13-.158-.315-.316-.633-.629-.946-.946a.905.905,0,0,1-.024-1.309.9.9,0,0,1,1.31.034q1.285,1.283,2.567,2.57a.919.919,0,0,1-.009,1.434q-1.32,1.324-2.643,2.645a.913.913,0,0,1-1.326.03.916.916,0,0,1,.046-1.311l.992-.991C-369.591,213.288-369.547,213.236-369.464,213.146Z" transform="translate(384.36 -208.662)" fill="#717880"/>
  <path id="Path_29115" data-name="Path 29115" d="M-547.454,339.324h3.774c1,0,2,0,2.994.005a.881.881,0,0,1,.872.823.893.893,0,0,1-.662.943,2.147,2.147,0,0,1-.506.036q-3.1,0-6.2,0h-.274c.08.088.123.14.171.187.3.307.61.612.912.919a.9.9,0,0,1,.019,1.309.9.9,0,0,1-1.294-.025q-1.3-1.3-2.6-2.6a.905.905,0,0,1,.005-1.387q1.289-1.294,2.583-2.583a.9.9,0,0,1,1.308-.031.906.906,0,0,1-.029,1.31c-.3.3-.6.6-.9.9C-547.326,339.183-547.371,339.234-547.454,339.324Z" transform="translate(550.566 -331.807)" fill="#717880"/>
</svg>
