<svg width="16" height="16" viewBox="0 0 16 16" fill="none" xmlns="http://www.w3.org/2000/svg">
<mask id="mask0_5078_5211" style="mask-type:alpha" maskUnits="userSpaceOnUse" x="0" y="0" width="16" height="16">
<rect width="16" height="16" fill="#D9D9D9"/>
</mask>
<g mask="url(#mask0_5078_5211)">
<path d="M7.33203 4.00065H8.66536V2.66732H7.33203V4.00065ZM7.9987 8.00065C7.15425 8.00065 6.3487 7.82565 5.58203 7.47565C4.81536 7.12565 4.06536 6.73398 3.33203 6.30065V5.33398C3.33203 4.96732 3.46259 4.65343 3.7237 4.39232C3.98481 4.13121 4.2987 4.00065 4.66536 4.00065H5.9987V2.00065C5.9987 1.81176 6.06259 1.65343 6.19036 1.52565C6.31814 1.39787 6.47648 1.33398 6.66536 1.33398H9.33203C9.52092 1.33398 9.67925 1.39787 9.80703 1.52565C9.93481 1.65343 9.9987 1.81176 9.9987 2.00065V4.00065H11.332C11.6987 4.00065 12.0126 4.13121 12.2737 4.39232C12.5348 4.65343 12.6654 4.96732 12.6654 5.33398V6.30065C11.932 6.73398 11.182 7.12565 10.4154 7.47565C9.6487 7.82565 8.84314 8.00065 7.9987 8.00065ZM4.66536 14.0007C4.2987 14.0007 3.98481 13.8701 3.7237 13.609C3.46259 13.3479 3.33203 13.034 3.33203 12.6673V7.80065C3.95425 8.17843 4.59592 8.50065 5.25703 8.76732C5.91814 9.03398 6.60981 9.21176 7.33203 9.30065V9.33398C7.33203 9.52287 7.39592 9.68121 7.5237 9.80898C7.65148 9.93676 7.80981 10.0007 7.9987 10.0007C8.18759 10.0007 8.34592 9.93676 8.4737 9.80898C8.60148 9.68121 8.66536 9.52287 8.66536 9.33398V9.30065C9.38759 9.21176 10.0793 9.03398 10.7404 8.76732C11.4015 8.50065 12.0431 8.17843 12.6654 7.80065V12.6673C12.6654 13.034 12.5348 13.3479 12.2737 13.609C12.0126 13.8701 11.6987 14.0007 11.332 14.0007C11.332 14.1895 11.2681 14.3479 11.1404 14.4756C11.0126 14.6034 10.8543 14.6673 10.6654 14.6673C10.4876 14.6673 10.3626 14.5868 10.2904 14.4257C10.2181 14.2645 10.1209 14.1229 9.9987 14.0007H5.9987C5.9987 14.1895 5.93481 14.3479 5.80703 14.4756C5.67925 14.6034 5.52092 14.6673 5.33203 14.6673C5.15425 14.6673 5.02925 14.5868 4.95703 14.4257C4.88481 14.2645 4.78759 14.1229 4.66536 14.0007Z" fill="white"/>
</g>
</svg>
