<svg xmlns="http://www.w3.org/2000/svg" width="64" height="58" viewBox="0 0 64 58">
  <g id="Group_18026" data-name="Group 18026" transform="translate(833 -1188.745)">
    <path id="Path_32566" data-name="Path 32566" d="M-833,1238.472c.44-2.079,1.644-3.789,2.666-5.582q11.448-20.09,22.915-40.169a7.148,7.148,0,0,1,4.813-3.793,7.055,7.055,0,0,1,7.99,3.743q6.554,11.473,13.1,22.951c3.69,6.467,7.4,12.923,11.053,19.41a32.508,32.508,0,0,1,1.464,3.44v2.023a1.41,1.41,0,0,0-.119.282,7.228,7.228,0,0,1-3.1,4.769,7.869,7.869,0,0,1-4.693,1.2q-13.026-.021-26.053-.006c-7.476,0-14.953-.014-22.429.007a7.04,7.04,0,0,1-6.544-3.516,17.156,17.156,0,0,1-1.061-2.734Zm31.944,4.434h9.624q7.53,0,15.06,0a3.327,3.327,0,0,0,3.359-2.23,3.678,3.678,0,0,0-.454-3.3q-8.617-15.079-17.217-30.167-3.617-6.34-7.237-12.678a3.364,3.364,0,0,0-3.918-1.85,3.6,3.6,0,0,0-2.279,1.915q-6.887,12.081-13.782,24.158-5.317,9.319-10.639,18.635a3.651,3.651,0,0,0-.481,3.177,3.331,3.331,0,0,0,3.468,2.338Q-813.3,1242.908-801.056,1242.906Z" fill="#002953"/>
    <path id="Path_32567" data-name="Path 32567" d="M-587.953,1332.358V1351.9h-3.674v-19.539Z" transform="translate(-211.201 -125.453)" fill="#092f5e"/>
    <path id="Path_32568" data-name="Path 32568" d="M-591.993,1519.6a2.487,2.487,0,0,1-2.463,2.545,2.487,2.487,0,0,1-2.534-2.536,2.521,2.521,0,0,1,2.494-2.532A2.522,2.522,0,0,1-591.993,1519.6Z" transform="translate(-206.509 -286.811)" fill="#092f5e"/>
  </g>
</svg>
