<svg width="24" height="24" viewBox="0 0 24 24" fill="none" xmlns="http://www.w3.org/2000/svg">
<mask id="mask0_2933_44784" style="mask-type:alpha" maskUnits="userSpaceOnUse" x="0" y="0" width="24" height="24">
<rect width="24" height="24" fill="#D9D9D9"/>
</mask>
<g mask="url(#mask0_2933_44784)">
<path d="M12.0008 16.8002L8.10078 20.6752C7.91745 20.8585 7.68828 20.9544 7.41328 20.9627C7.13828 20.971 6.90078 20.8752 6.70078 20.6752C6.51745 20.4919 6.42578 20.2585 6.42578 19.9752C6.42578 19.6919 6.51745 19.4585 6.70078 19.2752L10.5758 15.4002C10.9591 15.0169 11.4341 14.8252 12.0008 14.8252C12.5674 14.8252 13.0424 15.0169 13.4258 15.4002L17.3008 19.2752C17.4841 19.4585 17.5799 19.6877 17.5883 19.9627C17.5966 20.2377 17.5008 20.4752 17.3008 20.6752C17.1174 20.8585 16.8841 20.9502 16.6008 20.9502C16.3174 20.9502 16.0841 20.8585 15.9008 20.6752L12.0008 16.8002ZM12.0008 10.8002L8.10078 14.6752C7.91745 14.8585 7.68828 14.9544 7.41328 14.9627C7.13828 14.971 6.90078 14.8752 6.70078 14.6752C6.51745 14.4919 6.42578 14.2585 6.42578 13.9752C6.42578 13.6919 6.51745 13.4585 6.70078 13.2752L10.5758 9.4002C10.9591 9.01686 11.4341 8.8252 12.0008 8.8252C12.5674 8.8252 13.0424 9.01686 13.4258 9.4002L17.3008 13.2752C17.4841 13.4585 17.5799 13.6877 17.5883 13.9627C17.5966 14.2377 17.5008 14.4752 17.3008 14.6752C17.1174 14.8585 16.8841 14.9502 16.6008 14.9502C16.3174 14.9502 16.0841 14.8585 15.9008 14.6752L12.0008 10.8002ZM12.0008 4.8002L8.10078 8.6752C7.91745 8.85853 7.68828 8.95436 7.41328 8.9627C7.13828 8.97103 6.90078 8.8752 6.70078 8.6752C6.51745 8.49186 6.42578 8.25853 6.42578 7.9752C6.42578 7.69186 6.51745 7.45853 6.70078 7.2752L10.5758 3.4002C10.9591 3.01686 11.4341 2.8252 12.0008 2.8252C12.5674 2.8252 13.0424 3.01686 13.4258 3.4002L18.0008 7.9752L16.6008 9.3752L12.0008 4.8002Z" fill="#089E86"/>
</g>
</svg>
