<svg xmlns="http://www.w3.org/2000/svg" width="90.407" height="154.004" viewBox="0 0 90.407 154.004">
  <g id="Group_2" data-name="Group 2" transform="translate(-139.493 -480)">
    <g id="Group_8882" data-name="Group 8882" transform="translate(29.493 194.004)">
      <g id="Group_8881" data-name="Group 8881">
        <g id="Group_8879" data-name="Group 8879" transform="translate(119 286)">
          <path id="Path_29297" data-name="Path 29297" d="M286.667,78.134a6.2,6.2,0,0,0-6.2,6.2V215.686a6.2,6.2,0,0,0,6.2,6.2h57.5a6.2,6.2,0,0,0,6.2-6.2V84.33a6.2,6.2,0,0,0-6.2-6.2Z" transform="translate(-268.96 -78.134)" fill="#d8e6ff"/>
          <path id="Path_29298" data-name="Path 29298" d="M508.738,142.678l1.408-10.537a24.25,24.25,0,0,1-15.656-11.654h0a4.606,4.606,0,0,1-2.753.906h-9.778a34.57,34.57,0,0,0,26.779,21.285Z" transform="translate(-432.572 -112.287)" fill="#fff"/>
          <path id="Path_29299" data-name="Path 29299" d="M558.376,111.894V101.768a5.638,5.638,0,0,0-5.64-5.64H544.61v.978a6.236,6.236,0,0,1-1.944,3.781C545.912,106.654,551.935,110.374,558.376,111.894Z" transform="translate(-480.801 -92.644)" fill="#fff"/>
          <path id="Path_29300" data-name="Path 29300" d="M318.174,101.751a4.644,4.644,0,0,1-4.643-4.644v-.979h-7.625a5.64,5.64,0,0,0-5.64,5.641v125.5a5.63,5.63,0,0,0,5.64,5.636h50.951a5.491,5.491,0,0,0,.7-.043,5.643,5.643,0,0,0,4.945-5.594V102.9Z" transform="translate(-284.922 -92.644)" fill="#fff"/>
          <path id="Path_29301" data-name="Path 29301" d="M434.011,125.168H422.947a45.788,45.788,0,0,0,38.478,32.541V147.056a35.174,35.174,0,0,1-27.414-21.888Z" transform="translate(-383.85 -116.061)" fill="#fff"/>
          <circle id="Ellipse_102" data-name="Ellipse 102" cx="4.066" cy="4.066" r="4.066" transform="translate(24.127 74.638)" fill="#d9e5f9"/>
          <circle id="Ellipse_103" data-name="Ellipse 103" cx="4.066" cy="4.066" r="4.066" transform="translate(24.127 96.324)" fill="#d9e5f9"/>
          <path id="Path_29307" data-name="Path 29307" d="M412.307,691.427c-.374,0-.678.1-.678.235s.3.235.678.235h31.947c.374,0,.678-.1.678-.235s-.3-.235-.678-.235Z" transform="translate(-374.724 -589.24)" fill="#e1eafa"/>
          <path id="Path_29321" data-name="Path 29321" d="M412.307,691.427c-.374,0-.678.1-.678.235s.3.235.678.235h31.947c.374,0,.678-.1.678-.235s-.3-.235-.678-.235Z" transform="translate(-374.724 -593.24)" fill="#e1eafa"/>
          <path id="Path_29322" data-name="Path 29322" d="M412.307,691.427c-.374,0-.678.1-.678.235s.3.235.678.235h31.947c.374,0,.678-.1.678-.235s-.3-.235-.678-.235Z" transform="translate(-374.724 -611.24)" fill="#e1eafa"/>
          <path id="Path_29323" data-name="Path 29323" d="M412.307,691.427c-.374,0-.678.1-.678.235s.3.235.678.235h31.947c.374,0,.678-.1.678-.235s-.3-.235-.678-.235Z" transform="translate(-374.724 -615.24)" fill="#e1eafa"/>
        </g>
      </g>
      <circle id="Ellipse_101" data-name="Ellipse 101" cx="23" cy="23" r="23" transform="translate(110 394)" fill="#34d178"/>
      <g id="up-arrow_1_" data-name="up-arrow (1)" transform="translate(83.013 407)">
        <g id="Group_8880" data-name="Group 8880" transform="translate(41.481)">
          <path id="Path_29320" data-name="Path 29320" d="M57.788,7.536,50.571.319a1.1,1.1,0,0,0-1.552,0L41.8,7.536a1.1,1.1,0,0,0,0,1.547l.655.656a1.086,1.086,0,0,0,.773.319,1.108,1.108,0,0,0,.783-.319l4.22-4.211V18.905A1.08,1.08,0,0,0,49.307,20h.927a1.121,1.121,0,0,0,1.123-1.095V5.48L55.6,9.739a1.084,1.084,0,0,0,1.536,0l.653-.656a1.1,1.1,0,0,0,0-1.547Z" transform="translate(-41.481)" fill="#fff"/>
        </g>
      </g>
    </g>
    <path id="Path_2" data-name="Path 2" d="M-610.435,1170.673a11.99,11.99,0,0,1-12.006-11.967,12.02,12.02,0,0,1,12-12.033,11.965,11.965,0,0,1,12.006,11.979A11.934,11.934,0,0,1-610.435,1170.673Zm4.892-12.047c.184-.093.307-.162.436-.219a3.972,3.972,0,0,0,1.453-1.057,2.884,2.884,0,0,0-.41-4.153,4.854,4.854,0,0,0-1.576-.775,11.46,11.46,0,0,0-3.312-.42c-2.584-.033-5.168-.013-7.751-.009a3.361,3.361,0,0,0-.482.071c-.018.272-.046.5-.046.722q0,5.914,0,11.828c0,.223.036.445.058.705.194.013.356.032.518.033.62,0,1.239,0,1.859,0,.673,0,.674,0,.674-.664q0-4.69,0-9.381c0-.451.013-.464.453-.465,1.1,0,2.206,0,3.309,0,1.118,0,2.236,0,3.354,0,.434,0,.456.025.462.467.006.408,0,.816,0,1.224,0,.495-.018.509-.51.51-1.315,0-2.629,0-3.944,0-.175,0-.349.03-.509.045a13.81,13.81,0,0,0,.039,3.106h.517c1.133,0,2.267,0,3.4,0,.16,0,.32.024.517.041.013.7.03,1.353-.012,2.057h-1.546c-.484,0-.967-.009-1.451,0a8.64,8.64,0,0,0-1.451.04c-.034.073-.056.1-.057.128-.007.86-.011,1.721-.018,2.581,0,.247.147.3.353.3a27.946,27.946,0,0,0,4.612-.187,6.663,6.663,0,0,0,2.212-.765,3.077,3.077,0,0,0,.013-5.191c-.262-.149-.536-.277-.8-.414C-605.273,1158.748-605.369,1158.707-605.542,1158.626Z" transform="translate(805.441 -633.674)" fill="#0072b4" opacity="0.3"/>
  </g>
</svg>
