<svg xmlns="http://www.w3.org/2000/svg" width="20" height="18.182" viewBox="0 0 20 18.182">
  <g id="Group_18064" data-name="Group 18064" transform="translate(-330 -183)">
    <path id="Path_32567" data-name="Path 32567" d="M-299.973,28.82h-2.02c-.2-.023-.4-.058-.6-.068-1.714-.085-3.429-.153-5.142-.252a2.819,2.819,0,0,1-2.912-2.5,22.49,22.49,0,0,1-.315-3.35c.016-1.927.1-3.858.273-5.778.186-2.106,1.157-2.931,3.3-3.02.874-.036,1.747-.094,2.62-.15a77.606,77.606,0,0,1,10.793.2,2.8,2.8,0,0,1,2.681,2.572,33.213,33.213,0,0,1,0,9.428,2.824,2.824,0,0,1-2.635,2.564c-.818.088-1.645.108-2.468.155Q-298.187,28.725-299.973,28.82Zm-3.719-11.3c-.431.08-.529.33-.527.69.01,1.962,0,3.924.017,5.885a.892.892,0,0,0,.277.66c.137.092.479,0,.671-.116,1.677-.97,3.342-1.961,5.008-2.95.565-.336.574-.654.022-.981q-2.543-1.508-5.094-3C-303.446,17.629-303.583,17.571-303.693,17.518Z" transform="translate(640.96 169.406)" fill="#ff6700"/>
    <rect id="Rectangle_3423" data-name="Rectangle 3423" width="10" height="2" rx="1" transform="translate(335 199.182)" fill="#ff6700"/>
  </g>
</svg>
