<svg width="14" height="15" viewBox="0 0 14 15" fill="none" xmlns="http://www.w3.org/2000/svg">
<path d="M2.90004 10.9C3.46671 10.4667 4.10004 10.125 4.80004 9.87501C5.50004 9.62501 6.23337 9.50001 7.00004 9.50001C7.76671 9.50001 8.50004 9.62501 9.20004 9.87501C9.90004 10.125 10.5334 10.4667 11.1 10.9C11.4889 10.4445 11.7917 9.92779 12.0084 9.35001C12.225 8.77223 12.3334 8.15557 12.3334 7.50001C12.3334 6.02223 11.8139 4.7639 10.775 3.72501C9.73615 2.68612 8.47782 2.16668 7.00004 2.16668C5.52226 2.16668 4.26393 2.68612 3.22504 3.72501C2.18615 4.7639 1.66671 6.02223 1.66671 7.50001C1.66671 8.15557 1.77504 8.77223 1.99171 9.35001C2.20837 9.92779 2.51115 10.4445 2.90004 10.9ZM7.00004 8.16668C6.34448 8.16668 5.79171 7.94168 5.34171 7.49168C4.89171 7.04168 4.66671 6.4889 4.66671 5.83334C4.66671 5.17779 4.89171 4.62501 5.34171 4.17501C5.79171 3.72501 6.34448 3.50001 7.00004 3.50001C7.6556 3.50001 8.20837 3.72501 8.65837 4.17501C9.10837 4.62501 9.33337 5.17779 9.33337 5.83334C9.33337 6.4889 9.10837 7.04168 8.65837 7.49168C8.20837 7.94168 7.6556 8.16668 7.00004 8.16668ZM7.00004 14.1667C6.07782 14.1667 5.21115 13.9917 4.40004 13.6417C3.58893 13.2917 2.88337 12.8167 2.28337 12.2167C1.68337 11.6167 1.20837 10.9111 0.858374 10.1C0.508374 9.2889 0.333374 8.42223 0.333374 7.50001C0.333374 6.57779 0.508374 5.71112 0.858374 4.90001C1.20837 4.0889 1.68337 3.38334 2.28337 2.78334C2.88337 2.18334 3.58893 1.70834 4.40004 1.35834C5.21115 1.00834 6.07782 0.833344 7.00004 0.833344C7.92226 0.833344 8.78893 1.00834 9.60004 1.35834C10.4112 1.70834 11.1167 2.18334 11.7167 2.78334C12.3167 3.38334 12.7917 4.0889 13.1417 4.90001C13.4917 5.71112 13.6667 6.57779 13.6667 7.50001C13.6667 8.42223 13.4917 9.2889 13.1417 10.1C12.7917 10.9111 12.3167 11.6167 11.7167 12.2167C11.1167 12.8167 10.4112 13.2917 9.60004 13.6417C8.78893 13.9917 7.92226 14.1667 7.00004 14.1667Z" fill="#E55005"/>
</svg>
