<svg xmlns="http://www.w3.org/2000/svg" xmlns:xlink="http://www.w3.org/1999/xlink" width="24" height="24" viewBox="0 0 24 24">
  <defs>
    <clipPath id="clip-Add_notification_grey">
      <rect width="24" height="24"/>
    </clipPath>
  </defs>
  <g id="Add_notification_grey" clip-path="url(#clip-Add_notification_grey)">
    <g id="Group_15365" data-name="Group 15365" transform="translate(4.016 4)">
      <g id="active" transform="translate(-0.016)">
        <path id="Path_32486" data-name="Path 32486" d="M135.764,418.909a2.431,2.431,0,0,1-2.432-2.424.486.486,0,0,1,.973,0,1.459,1.459,0,0,0,2.919,0,.486.486,0,0,1,.973,0A2.431,2.431,0,0,1,135.764,418.909Zm0,0" transform="translate(-129.279 -402.909)" fill="#999"/>
        <path id="Path_32487" data-name="Path 32487" d="M11.836,79.368H1.135A1.131,1.131,0,0,1,.4,77.377a.449.449,0,0,1,.052-.039,4.339,4.339,0,0,0,1.5-3.278v-1.8a4.5,4.5,0,0,1,3.481-4.4.485.485,0,1,1,.224.944,3.532,3.532,0,0,0-2.732,3.452v1.8a5.31,5.31,0,0,1-1.883,4.054l-.029.022a.16.16,0,0,0-.034.1.164.164,0,0,0,.162.162h10.7A.164.164,0,0,0,12,78.237a.154.154,0,0,0-.035-.1l-.028-.022a5.274,5.274,0,0,1-1.363-1.772.486.486,0,0,1,.879-.414,4.322,4.322,0,0,0,1.072,1.412.562.562,0,0,1,.049.037,1.13,1.13,0,0,1-.737,1.991Zm0,0" transform="translate(0 -65.307)" fill="#999"/>
        <path id="Path_32488" data-name="Path 32488" d="M239.506,9.645a4.823,4.823,0,1,1,4.838-4.823A4.836,4.836,0,0,1,239.506,9.645Zm0-8.532a3.71,3.71,0,1,0,3.722,3.71A3.72,3.72,0,0,0,239.506,1.113Zm0,0" transform="translate(-228.344)" fill="#999"/>
      </g>
      <path id="Path_32489" data-name="Path 32489" d="M141.871,137.407h-1.763v-1.735a.441.441,0,0,0-.882,0v1.735h-1.763a.434.434,0,1,0,0,.868h1.763v1.735a.441.441,0,0,0,.882,0v-1.735h1.763a.434.434,0,1,0,0-.868Z" transform="translate(-128.433 -133.238)" fill="#999"/>
    </g>
  </g>
</svg>
