<svg xmlns="http://www.w3.org/2000/svg" width="24" height="24" viewBox="0 0 24 24">
  <g id="added_watchlist" transform="translate(-336 -292)">
    <g id="Group_14873" data-name="Group 14873" transform="translate(336 292)">
      <g id="Rectangle_3166" data-name="Rectangle 3166" fill="#1C74D0" stroke="#1C74D0" stroke-width="1.5">
        <rect width="24" height="24" rx="6" stroke="none"/>
        <rect x="0.75" y="0.75" width="22.5" height="22.5" rx="5.25" fill="none"/>
      </g>
      <path id="Path_32424" data-name="Path 32424" d="M-537.006,415.32l3.47-2.541q1.651-1.21,3.3-2.419a1.106,1.106,0,0,1,1.218-.108.915.915,0,0,1,.543.931,1.039,1.039,0,0,1-.493.767c-2.441,1.784-4.9,3.549-7.306,5.37-.919.695-1.673.572-2.2-.39-.549-1-1.2-1.942-1.806-2.912a.955.955,0,0,1,.335-1.435,1.118,1.118,0,0,1,1.512.453C-537.965,413.784-537.5,414.535-537.006,415.32Z" transform="translate(546.472 -402.117)" fill="#fff" stroke="#1C74D0" stroke-width="0.5"/>
    </g>
  </g>
</svg>
