<svg width="24" height="22" viewBox="0 0 24 22" fill="none" xmlns="http://www.w3.org/2000/svg">
<path d="M9.18625 4.36671C8.77186 4.36671 8.43555 4.03148 8.43555 3.61842V2.87012C8.43555 2.45706 8.77186 2.12183 9.18625 2.12183C9.60064 2.12183 9.93695 2.45706 9.93695 2.87012V3.61842C9.93695 4.03148 9.60064 4.36671 9.18625 4.36671Z" fill="#002953"/>
<path d="M15.7367 10.8963C15.3223 10.8963 14.986 10.5611 14.986 10.148C14.986 7.10694 12.5086 4.51559 9.46379 4.37192C6.41518 4.23162 3.69726 6.57191 3.41012 9.5954C3.39285 9.77611 3.38422 9.96169 3.38422 10.148C3.38422 10.5611 3.0479 10.8963 2.63352 10.8963C2.21913 10.8963 1.88281 10.5611 1.88281 10.148C1.88281 9.91455 1.8937 9.68108 1.91547 9.45434C2.27693 5.64702 5.69901 2.69724 9.53473 2.8772C13.3686 3.05791 16.4874 6.31973 16.4874 10.148C16.4874 10.5614 16.151 10.8963 15.7367 10.8963Z" fill="#002953"/>
<path d="M17.1426 16.0023C16.9576 16.0023 16.7718 15.9342 16.6265 15.7976C15.5831 14.8129 14.9844 13.4263 14.9844 11.9937C14.9844 11.5806 15.3207 11.2454 15.7351 11.2454C16.1495 11.2454 16.4858 11.5806 16.4858 11.9937C16.4858 13.017 16.9133 14.0077 17.6588 14.7107C17.9598 14.9947 17.9729 15.4684 17.688 15.7688C17.5405 15.9237 17.3416 16.0023 17.1426 16.0023Z" fill="#002953"/>
<path d="M1.22341 16.0023C1.0241 16.0023 0.82554 15.9241 0.678027 15.7684C0.393135 15.4684 0.406272 14.9947 0.707304 14.7107C1.45275 14.0077 1.88028 13.0173 1.88028 11.9937C1.88028 11.5806 2.21659 11.2454 2.63098 11.2454C3.04537 11.2454 3.38168 11.5806 3.38168 11.9937C3.38168 13.427 2.783 14.8136 1.73952 15.7976C1.59388 15.9342 1.40846 16.0023 1.22341 16.0023Z" fill="#002953"/>
<path d="M9.1832 21.579C7.1488 21.579 5.42969 19.8654 5.42969 17.8375C5.42969 17.4245 5.766 17.0892 6.18039 17.0892C6.59478 17.0892 6.93109 17.4245 6.93109 17.8375C6.93109 19.0543 7.96256 20.0824 9.1832 20.0824C10.4038 20.0824 11.4353 19.0543 11.4353 17.8375C11.4353 17.4245 11.7716 17.0892 12.186 17.0892C12.6004 17.0892 12.9367 17.4245 12.9367 17.8375C12.9367 19.8654 11.2176 21.579 9.1832 21.579Z" fill="#002953"/>
<path d="M2.2562 18.5846C1.34147 18.5846 0.527705 18.0271 0.182757 17.1643C-0.162566 16.3004 0.0435014 15.337 0.707873 14.7099C1.00891 14.4256 1.48372 14.4387 1.76937 14.7387C2.05426 15.0388 2.0415 15.5125 1.74047 15.7968C1.41166 16.1074 1.53252 16.4983 1.57756 16.6106C1.62223 16.7221 1.80352 17.088 2.2562 17.088C2.67059 17.088 3.0069 17.4232 3.0069 17.8363C3.0069 18.2494 2.67096 18.5846 2.2562 18.5846Z" fill="#002953"/>
<path d="M16.1101 18.585C15.6957 18.585 15.3594 18.2498 15.3594 17.8367C15.3594 17.4237 15.6957 17.0884 16.1101 17.0884C16.5631 17.0884 16.7448 16.721 16.7898 16.6084C16.8345 16.4965 16.955 16.107 16.6262 15.7969C16.3252 15.5125 16.312 15.0392 16.5969 14.7388C16.8822 14.4387 17.357 14.4256 17.6584 14.7096C18.3228 15.3367 18.5292 16.2993 18.1846 17.1618C17.8393 18.0264 17.0248 18.585 16.1101 18.585Z" fill="#002953"/>
<path d="M2.63352 12.7394C2.21913 12.7394 1.88281 12.4042 1.88281 11.9911V10.1481C1.88281 9.73502 2.21913 9.39978 2.63352 9.39978C3.0479 9.39978 3.38422 9.73502 3.38422 10.1481V11.9911C3.38422 12.4042 3.04828 12.7394 2.63352 12.7394Z" fill="#002953"/>
<path d="M15.7351 12.7394C15.3207 12.7394 14.9844 12.4042 14.9844 11.9911V10.1481C14.9844 9.73502 15.3207 9.39978 15.7351 9.39978C16.1495 9.39978 16.4858 9.73502 16.4858 10.1481V11.9911C16.4858 12.4042 16.1495 12.7394 15.7351 12.7394Z" fill="#002953"/>
<path d="M16.1127 18.5858H2.25852C1.84413 18.5858 1.50781 18.2506 1.50781 17.8375C1.50781 17.4245 1.84413 17.0892 2.25852 17.0892H16.1124C16.5268 17.0892 16.8631 17.4245 16.8631 17.8375C16.8631 18.2506 16.5271 18.5858 16.1127 18.5858Z" fill="#002953"/>
<ellipse cx="16.8617" cy="6.37917" rx="6.38316" ry="6.36269" fill="#1C74D0"/>
<path d="M19.8492 6.30664H13.8789" stroke="white" stroke-width="0.810983" stroke-miterlimit="10" stroke-linecap="round" stroke-linejoin="round"/>
<path d="M16.8652 3.40088V9.35201" stroke="white" stroke-width="0.810983" stroke-miterlimit="10" stroke-linecap="round" stroke-linejoin="round"/>
</svg>
