<svg width="140" height="116" viewBox="0 0 140 116" fill="none" xmlns="http://www.w3.org/2000/svg">
<rect width="140" height="116" rx="8" fill="#EBF3FA"/>
<path d="M13.5798 86.7858C13.5798 86.7858 -1.66271 70.3972 11.0018 52.6544C22.2388 36.9118 35.3403 37.988 44.9525 44.3766C49.0465 47.0976 60.8499 44.7122 70.8961 28.6931C84.5964 6.84767 132.086 20.0969 123.427 53.7065C119.237 69.9709 136.18 70.5622 127.547 86.8203L13.5793 86.7858H13.5798Z" fill="#EBF3FA"/>
<path d="M42.8525 55.103C42.8525 55.103 35.3119 44.3544 32.3649 45.748C29.4179 47.1415 42.8525 55.103 42.8525 55.103Z" fill="#C7DCFB"/>
<path d="M42.3722 52.2144C42.3722 52.2144 41.2203 44.1327 39.4045 44.4495C37.5888 44.7668 42.3722 52.2144 42.3722 52.2144Z" fill="#C7DCFB"/>
<path d="M35.9966 77.4041C35.9966 77.4041 36.7214 73.808 33.9068 73.3561C33.9068 73.3561 31.9975 73.2896 30.8736 74.0105C30.8736 74.0105 34.0662 75.8564 33.6863 76.4299C33.3064 77.0035 30.2772 74.1164 30.2772 74.1164C30.2772 74.1164 26.8549 75.6174 26.0912 76.7044C26.0912 76.7044 30.1355 77.4258 29.6262 77.8885C29.1174 78.3507 24.8743 77.7959 24.8743 77.7959C24.8743 77.7959 22.1398 80.0014 23.3306 81.7571C24.5214 83.5128 25.8806 83.5005 26.3106 83.195C26.7407 82.89 28.8468 80.369 29.1145 80.712C29.3822 81.055 28.4556 83.1832 27.3592 83.8721C27.3592 83.8721 30.8023 85.033 31.8391 83.5616C32.8759 82.0907 32.3966 80.9465 33.054 80.0492C33.7114 79.1519 34.4653 78.7311 34.3305 79.3471C34.1956 79.9625 32.8218 81.2565 32.8159 82.4327C32.8099 83.6089 32.6933 84.4653 34.0352 83.4251C35.3771 82.3849 37.1589 79.9798 36.5778 78.6922L35.9966 77.4046V77.4041Z" fill="#C7DCFB"/>
<path d="M24.8428 80.9762C24.8428 80.9762 32.8729 76.0683 35.9966 77.4047C35.9966 77.4047 37.0684 78.3823 38.9122 78.7874L39.3973 79.2042C39.3973 79.2042 37.1377 78.4981 36.5778 78.6923C36.5778 78.6923 35.7491 75.3351 24.8428 80.9767V80.9762Z" fill="#AFCDFB"/>
<path d="M38.9116 78.7869C38.9116 78.7869 41.401 79.1057 42.8236 81.3684L42.52 81.5759C42.52 81.5759 40.6127 79.4807 39.0701 79.1067C37.5274 78.7331 38.9116 78.7869 38.9116 78.7869Z" fill="#82B378"/>
<path d="M38.4549 66.9106C38.4549 66.9106 44.286 63.6407 41.5648 59.2029C41.5648 59.2029 39.3879 56.4779 37.0555 55.7772C37.0555 55.7772 38.2994 62.395 37.0555 62.5507C35.8115 62.7064 36.2002 55.0765 36.2002 55.0765C36.2002 55.0765 30.0582 52.118 27.648 52.3516C27.648 52.3516 31.4576 58.8136 30.2137 58.6579C28.9697 58.5022 24.6936 51.9623 24.6936 51.9623C24.6936 51.9623 18.396 50.7945 17.3853 54.5315C16.3746 58.2686 18.0073 60.1372 18.9402 60.3707C19.8732 60.6043 25.8598 60.5264 25.7043 61.305C25.5488 62.0836 21.5059 63.3292 19.2512 62.6285C19.2512 62.6285 21.7392 68.7791 25.0046 68.4677C28.27 68.1563 29.2807 66.132 31.3021 65.9763C33.3236 65.8206 34.8008 66.3656 33.7901 66.9106C32.7793 67.4556 29.3584 67.089 27.7257 68.4791C26.093 69.8691 24.7713 70.7255 27.8035 71.3484C30.8356 71.9712 36.278 71.5819 37.3664 69.2463L38.4549 66.9106Z" fill="#A4C8FC"/>
<path d="M20.2617 55.6992C20.2617 55.6992 36.5887 60.9934 38.4547 66.9104C38.4547 66.9104 38.3769 69.5575 40.0096 72.5939V73.7617C40.0096 73.7617 38.2992 69.7911 37.3662 69.2461C37.3662 69.2461 41.0204 64.1076 20.2617 55.6992Z" fill="#78ACEA"/>
<path d="M40.0091 72.5939C40.0091 72.5939 42.527 76.4226 41.0916 81.0836L40.4441 80.9092C40.4441 80.9092 41.073 75.7756 39.7557 73.1936C38.4384 70.6115 40.0096 72.5934 40.0096 72.5934L40.0091 72.5939Z" fill="#82B378"/>
<path d="M44.3819 39.5525L35.6575 84.7196C35.4798 85.6381 36.183 86.4911 37.1174 86.4911H41.7188L44.3824 39.5525H44.3819Z" fill="#ED7D2B"/>
<path d="M102.376 52.482C102.376 52.482 98.4513 49.9753 100.52 46.9981C100.52 46.9981 102.143 45.1901 103.793 44.7964C103.793 44.7964 102.664 49.3485 103.523 49.5062C104.381 49.6644 104.415 44.3431 104.415 44.3431C104.415 44.3431 108.804 42.5312 110.471 42.7899C110.471 42.7899 107.564 47.1311 108.435 47.0725C109.306 47.0138 112.54 42.6372 112.54 42.6372C112.54 42.6372 116.966 42.0769 117.52 44.7161C118.074 47.3553 116.864 48.5892 116.206 48.7143C115.548 48.8395 111.388 48.5458 111.466 49.0938C111.543 49.6412 114.304 50.6691 115.9 50.272C115.9 50.272 113.925 54.4496 111.667 54.1022C109.409 53.7553 108.786 52.307 107.387 52.1178C105.988 51.9286 104.939 52.2489 105.62 52.6682C106.301 53.0876 108.695 52.9698 109.775 54.0011C110.855 55.033 111.74 55.6814 109.607 55.9934C107.473 56.3053 103.704 55.817 103.041 54.1495L102.377 52.482H102.376Z" fill="#C7DCFB"/>
<path d="M115.474 45.4131C115.474 45.4131 103.909 48.4421 102.376 52.4817C102.376 52.4817 102.325 54.3256 101.068 56.3715L101.021 57.1836C101.021 57.1836 102.369 54.4907 103.039 54.1492C103.039 54.1492 100.703 50.4299 115.473 45.4131H115.474Z" fill="#C7DCFB"/>
<path d="M101.068 56.3716C101.068 56.3716 99.1647 58.9334 99.9772 62.232L100.434 62.1369C100.434 62.1369 100.202 58.5422 101.221 56.7993C102.24 55.0564 101.068 56.3721 101.068 56.3721V56.3716Z" fill="#C7DCFB"/>
<path d="M91.8089 41.6007C91.8089 41.6007 85.7795 40.2747 86.9974 35.6216C86.9974 35.6216 88.1927 32.6286 90.067 31.3834C90.067 31.3834 90.7382 37.567 91.8793 37.3709C93.0204 37.1748 90.6353 30.5344 90.6353 30.5344C90.6353 30.5344 95.2731 26.271 97.4663 25.8305C97.4663 25.8305 95.8277 32.565 96.8856 32.0935C97.9436 31.6219 99.9734 24.6932 99.9734 24.6932C99.9734 24.6932 105.228 21.9712 107.121 25.0032C109.015 28.0356 108.071 30.1254 107.309 30.5822C106.547 31.039 101.234 32.5764 101.58 33.2229C101.926 33.8694 105.833 33.8856 107.638 32.6611C107.638 32.6611 107.085 38.7659 104.115 39.3666C101.146 39.9677 99.7101 38.4495 97.8816 38.8541C96.0531 39.2587 94.8932 40.1372 95.9325 40.3476C96.9718 40.5581 99.8976 39.3163 101.713 40.1072C103.528 40.8976 104.926 41.3001 102.412 42.6646C99.8986 44.029 94.9833 45.1451 93.3963 43.3727L91.8089 41.6002V41.6007Z" fill="#DFEBFD"/>
<path d="M104.891 26.8081C104.891 26.8081 91.8745 35.8694 91.8086 41.6007C91.8086 41.6007 92.5856 43.9196 91.9547 47.0422L92.2672 48.0745C92.2672 48.0745 92.7165 44.1054 93.3955 43.3736C93.3955 43.3736 88.7902 39.812 104.89 26.8086L104.891 26.8081Z" fill="#DFEBFD"/>
<path d="M91.9555 47.0418C91.9555 47.0418 90.7544 51.1022 93.2703 54.8368L93.7964 54.5091C93.7964 54.5091 91.8669 50.1398 92.3403 47.504C92.8137 44.8683 91.9555 47.0418 91.9555 47.0418Z" fill="#DFEBFD"/>
<path d="M44.4865 39.3696L38.7037 83.7163C38.5118 85.1867 39.6554 86.4906 41.136 86.4906H49.6194L44.8364 39.209L44.4865 39.3691V39.3696Z" fill="#78ACEA"/>
<path d="M44.4865 39.3696L41.8977 83.434C41.8002 85.0926 43.117 86.4911 44.7763 86.4911H57.4285L44.4865 39.3696Z" fill="#699DEE"/>
<path d="M44.3896 39.7295L45.6484 83.4341C45.5509 85.0928 46.8677 86.4912 48.527 86.4912H61.1792L44.3896 39.7295Z" fill="#5288D8"/>
<path d="M104.966 86.4911H55.0792C53.8337 86.4911 52.7659 85.5997 52.542 84.3727L44.9513 42.8027C44.6068 40.9155 46.054 39.1765 47.9702 39.1765H97.2691C98.5146 39.1765 99.5824 40.0679 99.8062 41.2949L107.503 83.4434C107.793 85.0296 106.576 86.4911 104.966 86.4911Z" fill="#D7E9FF"/>
<path d="M45.9382 48.2016H101.102L99.6874 40.353C99.5649 39.672 98.9729 39.1768 98.2821 39.1768H44.8497C44.5579 39.1768 44.337 39.4419 44.3896 39.7291L45.9382 48.2011V48.2016Z" fill="#F99746"/>
<path d="M47.2274 36.8149C45.9087 36.8149 44.8359 37.8887 44.8359 39.2093H45.2955C45.2955 38.1424 46.1621 37.2742 47.2279 37.2742C48.2937 37.2742 49.1608 38.1419 49.1608 39.2093C49.1608 39.4236 49.1258 39.6296 49.0614 39.8217C48.8714 40.3904 48.4251 40.8423 47.8597 41.0379C47.6944 41.095 47.5197 41.1315 47.3381 41.1414V41.6016C47.5502 41.5922 47.7549 41.5548 47.9493 41.4932C48.7248 41.2473 49.331 40.6146 49.5407 39.8222C49.5923 39.6266 49.6199 39.4211 49.6199 39.2097C49.6199 37.8892 48.5472 36.8154 47.2284 36.8154L47.2274 36.8149Z" fill="#2A4E96"/>
<path d="M47.9675 41.3543C47.9675 41.4021 47.9606 41.4489 47.9488 41.4928C47.8882 41.7121 47.6875 41.8732 47.4493 41.8732C47.1634 41.8732 46.9316 41.6411 46.9316 41.3548C46.9316 41.0685 47.1634 40.8364 47.4493 40.8364C47.6161 40.8364 47.7642 40.9158 47.8592 41.0385C47.9271 41.1262 47.967 41.2361 47.967 41.3553L47.9675 41.3543Z" fill="#2A4E96"/>
<path d="M55.8026 36.8149C54.4839 36.8149 53.4111 37.8887 53.4111 39.2093H53.8702C53.8702 38.1424 54.7373 37.2742 55.8031 37.2742C56.8689 37.2742 57.7355 38.1419 57.7355 39.2093C57.7355 39.4236 57.7005 39.6296 57.6361 39.8217C57.4461 40.3904 56.9998 40.8423 56.4354 41.0379C56.2701 41.095 56.0949 41.1315 55.9128 41.1414V41.6016C56.1249 41.5922 56.3296 41.5548 56.524 41.4932C57.3 41.2473 57.9062 40.6146 58.1159 39.8222C58.1675 39.6266 58.1951 39.4211 58.1951 39.2097C58.1951 37.8892 57.1224 36.8154 55.8036 36.8154L55.8026 36.8149Z" fill="#2A4E96"/>
<path d="M56.5417 41.3543C56.5417 41.4021 56.5348 41.4489 56.523 41.4928C56.4625 41.7121 56.2622 41.8732 56.0235 41.8732C55.7376 41.8732 55.5059 41.6411 55.5059 41.3548C55.5059 41.0685 55.7376 40.8364 56.0235 40.8364C56.1908 40.8364 56.3389 40.9158 56.4339 41.0385C56.5013 41.1262 56.5412 41.2361 56.5412 41.3553L56.5417 41.3543Z" fill="#2A4E96"/>
<path d="M64.3768 36.8149C63.0581 36.8149 61.9854 37.8887 61.9854 39.2093H62.4445C62.4445 38.1424 63.311 37.2742 64.3773 37.2742C65.4436 37.2742 66.3097 38.1419 66.3097 39.2093C66.3097 39.4236 66.2748 39.6296 66.2103 39.8217C66.0204 40.3904 65.574 40.8423 65.0096 41.0379C64.8443 41.095 64.6691 41.1315 64.4871 41.1414V41.6016C64.6986 41.5922 64.9038 41.5548 65.0982 41.4932C65.8747 41.2468 66.48 40.6146 66.6896 39.8222C66.7412 39.6266 66.7688 39.4211 66.7688 39.2097C66.7688 37.8892 65.6961 36.8154 64.3778 36.8154L64.3768 36.8149Z" fill="#2A4E96"/>
<path d="M65.1169 41.3543C65.1169 41.4021 65.11 41.4489 65.0982 41.4928C65.0376 41.7121 64.8369 41.8732 64.5987 41.8732C64.3128 41.8732 64.0811 41.6411 64.0811 41.3548C64.0811 41.0685 64.3128 40.8364 64.5987 40.8364C64.7655 40.8364 64.9136 40.9158 65.0091 41.0385C65.0765 41.1262 65.1164 41.2361 65.1164 41.3553L65.1169 41.3543Z" fill="#2A4E96"/>
<path d="M72.9515 36.8149C71.6328 36.8149 70.5605 37.8887 70.5605 39.2093H71.0196C71.0196 38.1424 71.8862 37.2742 72.952 37.2742C74.0179 37.2742 74.8849 38.1419 74.8849 39.2093C74.8849 39.4236 74.85 39.6296 74.7855 39.8217C74.5956 40.3904 74.1492 40.8423 73.5838 41.0379C73.4185 41.095 73.2438 41.1315 73.0622 41.1414V41.6016C73.2738 41.5922 73.479 41.5548 73.6734 41.4932C74.4499 41.2468 75.0552 40.6146 75.2648 39.8222C75.3164 39.6266 75.344 39.4211 75.344 39.2097C75.344 37.8892 74.2713 36.8154 72.9525 36.8154L72.9515 36.8149Z" fill="#2A4E96"/>
<path d="M73.6911 41.3543C73.6911 41.4021 73.6842 41.4489 73.6724 41.4928C73.6119 41.7121 73.4111 41.8732 73.1729 41.8732C72.887 41.8732 72.6553 41.6411 72.6553 41.3548C72.6553 41.0685 72.887 40.8364 73.1729 40.8364C73.3397 40.8364 73.4879 40.9158 73.5828 41.0385C73.6507 41.1262 73.6906 41.2361 73.6906 41.3553L73.6911 41.3543Z" fill="#2A4E96"/>
<path d="M81.5262 36.8149C80.2075 36.8149 79.1348 37.8887 79.1348 39.2093H79.5939C79.5939 38.1424 80.4609 37.2742 81.5267 37.2742C82.5926 37.2742 83.4591 38.1419 83.4591 39.2093C83.4591 39.4236 83.4242 39.6296 83.3597 39.8217C83.1698 40.3904 82.7235 40.8423 82.1581 41.0379C81.9937 41.095 81.818 41.1315 81.6365 41.1414V41.6016C81.849 41.5922 82.0533 41.5548 82.2476 41.4932C83.0241 41.2473 83.6299 40.6146 83.8395 39.8222C83.8912 39.6266 83.9187 39.4211 83.9187 39.2097C83.9187 37.8892 82.846 36.8154 81.5272 36.8154L81.5262 36.8149Z" fill="#2A4E96"/>
<path d="M82.2653 41.3543C82.2653 41.4021 82.2584 41.4489 82.2466 41.4928C82.1861 41.7121 81.9858 41.8732 81.7472 41.8732C81.4613 41.8732 81.2295 41.6411 81.2295 41.3548C81.2295 41.0685 81.4613 40.8364 81.7472 40.8364C81.9145 40.8364 82.0631 40.9158 82.1571 41.0385C82.225 41.1262 82.2648 41.2361 82.2648 41.3553L82.2653 41.3543Z" fill="#2A4E96"/>
<path d="M90.1005 36.8149C88.7817 36.8149 87.709 37.8887 87.709 39.2093H88.1681C88.1681 38.1424 89.0346 37.2742 90.101 37.2742C91.1673 37.2742 92.0333 38.1419 92.0333 39.2093C92.0333 39.4236 91.9984 39.6296 91.9339 39.8217C91.744 40.3904 91.2977 40.8423 90.7323 41.0379C90.5679 41.095 90.3923 41.1315 90.2107 41.1414V41.6016C90.4228 41.5922 90.6275 41.5548 90.8218 41.4932C91.5974 41.2473 92.2036 40.6146 92.4132 39.8222C92.4649 39.6266 92.4924 39.4211 92.4924 39.2097C92.4924 37.8892 91.4197 36.8154 90.1014 36.8154L90.1005 36.8149Z" fill="#2A4E96"/>
<path d="M90.8395 41.3543C90.8395 41.4021 90.8326 41.4489 90.8208 41.4928C90.7603 41.7121 90.5595 41.8732 90.3214 41.8732C90.0355 41.8732 89.8037 41.6411 89.8037 41.3548C89.8037 41.0685 90.0355 40.8364 90.3214 40.8364C90.4882 40.8364 90.6363 40.9158 90.7313 41.0385C90.7992 41.1262 90.839 41.2361 90.839 41.3553L90.8395 41.3543Z" fill="#2A4E96"/>
<path d="M98.6752 36.8149C97.3564 36.8149 96.2842 37.8887 96.2842 39.2093H96.7433C96.7433 38.1424 97.6098 37.2742 98.6757 37.2742C99.7415 37.2742 100.609 38.1419 100.609 39.2093C100.609 39.4236 100.574 39.6296 100.509 39.8217C100.319 40.3904 99.8729 40.8423 99.3075 41.0379C99.1421 41.095 98.9675 41.1315 98.7859 41.1414V41.6016C98.998 41.5922 99.2027 41.5548 99.397 41.4932C100.173 41.2473 100.779 40.6146 100.988 39.8222C101.04 39.6266 101.068 39.4211 101.068 39.2097C101.068 37.8892 99.9949 36.8154 98.6762 36.8154L98.6752 36.8149Z" fill="#2A4E96"/>
<path d="M99.4147 41.3541C99.4147 41.4019 99.4078 41.4487 99.396 41.4925C99.3355 41.7118 99.1347 41.8729 98.8966 41.8729C98.6107 41.8729 98.3789 41.6409 98.3789 41.3546C98.3789 41.0683 98.6107 40.8362 98.8966 40.8362C99.0634 40.8362 99.2115 40.9155 99.3065 41.0382C99.3744 41.1259 99.4142 41.2358 99.4142 41.3551L99.4147 41.3541Z" fill="#2A4E96"/>
<path d="M77.8391 62.9459H75.0506C74.7283 62.9459 74.4133 62.6818 74.3513 62.3591L73.8135 59.5666C73.7515 59.2439 73.9641 58.9797 74.2864 58.9797H77.075C77.3973 58.9797 77.7122 59.2439 77.7742 59.5666L78.312 62.3591C78.374 62.6818 78.1615 62.9459 77.8391 62.9459Z" fill="#AFCDFB"/>
<path d="M84.8763 62.9459H82.0877C81.7654 62.9459 81.4504 62.6818 81.3884 62.3591L80.8506 59.5666C80.7886 59.2439 81.0012 58.9797 81.3235 58.9797H84.1121C84.4344 58.9797 84.7493 59.2439 84.8113 59.5666L85.3491 62.3591C85.4111 62.6818 85.1986 62.9459 84.8763 62.9459Z" fill="#AFCDFB"/>
<path d="M91.9124 62.9459H89.1238C88.8015 62.9459 88.4866 62.6818 88.4246 62.3591L87.8867 59.5666C87.8247 59.2439 88.0373 58.9797 88.3596 58.9797H91.1482C91.4705 58.9797 91.7854 59.2439 91.8474 59.5666L92.3853 62.3591C92.4473 62.6818 92.2347 62.9459 91.9124 62.9459Z" fill="#78ACEA"/>
<path d="M56.7288 62.9459H53.9402C53.6179 62.9459 53.303 62.6818 53.241 62.3591L52.7031 59.5666C52.6411 59.2439 52.8537 58.9797 53.176 58.9797H55.9646C56.2869 58.9797 56.6018 59.2439 56.6638 59.5666L57.2017 62.3591C57.2637 62.6818 57.0511 62.9459 56.7288 62.9459Z" fill="#AFCDFB"/>
<path d="M53.6722 54.5624H52.474C52.3353 54.5624 52.2004 54.449 52.1734 54.3101L51.9421 53.1102C51.9155 52.9712 52.007 52.8579 52.1453 52.8579H53.3435C53.4823 52.8579 53.6171 52.9712 53.6442 53.1102L53.8754 54.3101C53.902 54.449 53.8105 54.5624 53.6722 54.5624Z" fill="#F99746"/>
<path d="M63.7649 62.9459H60.9763C60.654 62.9459 60.3396 62.6818 60.2771 62.3591L59.7393 59.5666C59.6773 59.2439 59.8898 58.9797 60.2121 58.9797H63.0007C63.323 58.9797 63.638 59.2439 63.7 59.5666L64.2378 62.3591C64.2998 62.6818 64.0872 62.9459 63.7649 62.9459Z" fill="#AFCDFB"/>
<path d="M70.802 62.9459H68.0135C67.6911 62.9459 67.3762 62.6818 67.3142 62.3591L66.7764 59.5666C66.7144 59.2439 66.9269 58.9797 67.2493 58.9797H70.0378C70.3602 58.9797 70.6751 59.2439 70.7371 59.5666L71.2749 62.3591C71.3369 62.6818 71.1243 62.9459 70.802 62.9459Z" fill="#AFCDFB"/>
<path d="M98.9495 62.9459H96.1609C95.8386 62.9459 95.5242 62.6818 95.4617 62.3591L94.9238 59.5666C94.8618 59.2439 95.0744 58.9797 95.3967 58.9797H98.1853C98.5076 58.9797 98.8225 59.2439 98.8845 59.5666L99.4224 62.3591C99.4844 62.6818 99.2718 62.9459 98.9495 62.9459Z" fill="#78ACEA"/>
<path d="M76.6712 56.8812H73.8826C73.5603 56.8812 73.2454 56.6171 73.1834 56.2944L72.6455 53.5019C72.5835 53.1792 72.7961 52.915 73.1184 52.915H75.907C76.2293 52.915 76.5442 53.1792 76.6062 53.5019L77.1441 56.2944C77.2061 56.6171 76.9935 56.8812 76.6712 56.8812Z" fill="#AFCDFB"/>
<path d="M83.7073 56.8812H80.9187C80.5964 56.8812 80.2815 56.6171 80.2195 56.2944L79.6816 53.5019C79.6196 53.1792 79.8322 52.915 80.1545 52.915H82.9431C83.2654 52.915 83.5804 53.1792 83.6424 53.5019L84.1802 56.2944C84.2422 56.6171 84.0296 56.8812 83.7073 56.8812Z" fill="#AFCDFB"/>
<path d="M90.7444 56.8812H87.9558C87.6335 56.8812 87.3186 56.6171 87.2566 56.2944L86.7188 53.5019C86.6568 53.1792 86.8693 52.915 87.1916 52.915H89.9802C90.3025 52.915 90.6175 53.1792 90.6795 53.5019L91.2173 56.2944C91.2793 56.6171 91.0667 56.8812 90.7444 56.8812Z" fill="#78ACEA"/>
<path d="M97.7805 56.8812H94.992C94.6697 56.8812 94.3547 56.6171 94.2927 56.2944L93.7549 53.5019C93.6929 53.1792 93.9055 52.915 94.2278 52.915H97.0164C97.3387 52.915 97.6536 53.1792 97.7156 53.5019L98.2534 56.2944C98.3154 56.6171 98.1029 56.8812 97.7805 56.8812Z" fill="#78ACEA"/>
<path d="M79.0774 69.3742H76.2888C75.9665 69.3742 75.6521 69.1101 75.5896 68.7873L75.0518 65.9948C74.9898 65.6721 75.2023 65.408 75.5246 65.408H78.3132C78.6355 65.408 78.9505 65.6721 79.0125 65.9948L79.5503 68.7873C79.6123 69.1101 79.3997 69.3742 79.0774 69.3742Z" fill="#AFCDFB"/>
<path d="M86.1136 69.3742H83.325C83.0027 69.3742 82.6877 69.1101 82.6257 68.7873L82.0879 65.9948C82.0259 65.6721 82.2385 65.408 82.5608 65.408H85.3494C85.6717 65.408 85.9866 65.6721 86.0486 65.9948L86.5864 68.7873C86.6484 69.1101 86.4359 69.3742 86.1136 69.3742Z" fill="#AFCDFB"/>
<path d="M93.1507 69.3742H90.3621C90.0398 69.3742 89.7248 69.1101 89.6628 68.7873L89.125 65.9948C89.063 65.6721 89.2756 65.408 89.5979 65.408H92.3865C92.7088 65.408 93.0237 65.6721 93.0857 65.9948L93.6235 68.7873C93.6855 69.1101 93.473 69.3742 93.1507 69.3742Z" fill="#78ACEA"/>
<path d="M57.9671 69.3742H55.1785C54.8562 69.3742 54.5412 69.1101 54.4792 68.7873L53.9414 65.9948C53.8794 65.6721 54.092 65.408 54.4143 65.408H57.2029C57.5252 65.408 57.8401 65.6721 57.9021 65.9948L58.44 68.7873C58.502 69.1101 58.2894 69.3742 57.9671 69.3742Z" fill="#AFCDFB"/>
<path d="M65.0042 69.3742H62.2156C61.8933 69.3742 61.5784 69.1101 61.5164 68.7873L60.9785 65.9948C60.9165 65.6721 61.1291 65.408 61.4514 65.408H64.24C64.5623 65.408 64.8772 65.6721 64.9392 65.9948L65.4771 68.7873C65.5391 69.1101 65.3265 69.3742 65.0042 69.3742Z" fill="#AFCDFB"/>
<path d="M72.0403 69.3742H69.2517C68.9294 69.3742 68.6145 69.1101 68.5525 68.7873L68.0147 65.9948C67.9527 65.6721 68.1652 65.408 68.4875 65.408H71.2761C71.5984 65.408 71.9134 65.6721 71.9754 65.9948L72.5132 68.7873C72.5752 69.1101 72.3626 69.3742 72.0403 69.3742Z" fill="#AFCDFB"/>
<path d="M100.188 69.3742H97.3992C97.0769 69.3742 96.762 69.1101 96.7 68.7873L96.1621 65.9948C96.1001 65.6721 96.3127 65.408 96.635 65.408H99.4236C99.7459 65.408 100.06 65.6721 100.123 65.9948L100.661 68.7873C100.723 69.1101 100.51 69.3742 100.188 69.3742Z" fill="#78ACEA"/>
<path d="M80.3157 75.8026H77.5271C77.2048 75.8026 76.8899 75.5385 76.8279 75.2158L76.29 72.4233C76.228 72.1005 76.4406 71.8364 76.7629 71.8364H79.5515C79.8738 71.8364 80.1887 72.1005 80.2508 72.4233L80.7886 75.2158C80.8506 75.5385 80.638 75.8026 80.3157 75.8026Z" fill="#AFCDFB"/>
<path d="M87.3528 75.8026H84.5642C84.2419 75.8026 83.927 75.5385 83.865 75.2158L83.3272 72.4233C83.2652 72.1005 83.4777 71.8364 83.8 71.8364H86.5886C86.9109 71.8364 87.2259 72.1005 87.2879 72.4233L87.8257 75.2158C87.8877 75.5385 87.6751 75.8026 87.3528 75.8026Z" fill="#AFCDFB"/>
<path d="M94.389 75.8026H91.6004C91.2781 75.8026 90.9631 75.5385 90.9011 75.2158L90.3633 72.4233C90.3013 72.1005 90.5139 71.8364 90.8362 71.8364H93.6248C93.9471 71.8364 94.262 72.1005 94.324 72.4233L94.8618 75.2158C94.9238 75.5385 94.7113 75.8026 94.389 75.8026Z" fill="#78ACEA"/>
<path d="M59.2054 75.8026H56.4168C56.0945 75.8026 55.7795 75.5385 55.7175 75.2158L55.1797 72.4233C55.1177 72.1005 55.3303 71.8364 55.6526 71.8364H58.4412C58.7635 71.8364 59.0779 72.1005 59.1404 72.4233L59.6782 75.2158C59.7402 75.5385 59.5277 75.8026 59.2054 75.8026Z" fill="#AFCDFB"/>
<path d="M66.2415 75.8026H63.4529C63.1306 75.8026 62.8162 75.5385 62.7537 75.2158L62.2158 72.4233C62.1538 72.1005 62.3664 71.8364 62.6887 71.8364H65.4773C65.7996 71.8364 66.1145 72.1005 66.1765 72.4233L66.7144 75.2158C66.7764 75.5385 66.5638 75.8026 66.2415 75.8026Z" fill="#F99746"/>
<path d="M73.2786 75.8026H70.49C70.1677 75.8026 69.8528 75.5385 69.7908 75.2158L69.2529 72.4233C69.1909 72.1005 69.4035 71.8364 69.7258 71.8364H72.5144C72.8367 71.8364 73.1516 72.1005 73.2136 72.4233L73.7515 75.2158C73.8135 75.5385 73.6009 75.8026 73.2786 75.8026Z" fill="#AFCDFB"/>
<path d="M101.426 75.8026H98.6375C98.3152 75.8026 98.0002 75.5385 97.9382 75.2158L97.4004 72.4233C97.3384 72.1005 97.551 71.8364 97.8733 71.8364H100.662C100.984 71.8364 101.299 72.1005 101.361 72.4233L101.899 75.2158C101.961 75.5385 101.748 75.8026 101.426 75.8026Z" fill="#78ACEA"/>
<path d="M81.4837 81.8676H78.6951C78.3728 81.8676 78.0579 81.6035 77.9959 81.2807L77.458 78.4882C77.396 78.1655 77.6086 77.9014 77.9309 77.9014H80.7195C81.0418 77.9014 81.3567 78.1655 81.4187 78.4882L81.9566 81.2807C82.0186 81.6035 81.806 81.8676 81.4837 81.8676Z" fill="#AFCDFB"/>
<path d="M88.5208 81.8676H85.7322C85.4099 81.8676 85.095 81.6035 85.033 81.2807L84.4951 78.4882C84.4331 78.1655 84.6457 77.9014 84.968 77.9014H87.7566C88.0789 77.9014 88.3938 78.1655 88.4558 78.4882L88.9937 81.2807C89.0557 81.6035 88.8431 81.8676 88.5208 81.8676Z" fill="#AFCDFB"/>
<path d="M95.5569 81.8676H92.7683C92.446 81.8676 92.1311 81.6035 92.0691 81.2807L91.5313 78.4882C91.4693 78.1655 91.6818 77.9014 92.0041 77.9014H94.7927C95.115 77.9014 95.43 78.1655 95.492 78.4882L96.0298 81.2807C96.0918 81.6035 95.8792 81.8676 95.5569 81.8676Z" fill="#78ACEA"/>
<path d="M60.3733 81.8676H57.5847C57.2624 81.8676 56.9475 81.6035 56.8855 81.2807L56.3477 78.4882C56.2857 78.1655 56.4982 77.9014 56.8205 77.9014H59.6091C59.9314 77.9014 60.2464 78.1655 60.3084 78.4882L60.8462 81.2807C60.9082 81.6035 60.6956 81.8676 60.3733 81.8676Z" fill="#AFCDFB"/>
<path d="M67.4104 81.8676H64.6218C64.2995 81.8676 63.9846 81.6035 63.9226 81.2807L63.3848 78.4882C63.3228 78.1655 63.5354 77.9014 63.8577 77.9014H66.6462C66.9686 77.9014 67.2835 78.1655 67.3455 78.4882L67.8833 81.2807C67.9453 81.6035 67.7327 81.8676 67.4104 81.8676Z" fill="#AFCDFB"/>
<path d="M74.4475 81.8676H71.659C71.3366 81.8676 71.0217 81.6035 70.9597 81.2807L70.4219 78.4882C70.3599 78.1655 70.5725 77.9014 70.8948 77.9014H73.6834C74.0057 77.9014 74.3206 78.1655 74.3826 78.4882L74.9204 81.2807C74.9824 81.6035 74.7699 81.8676 74.4475 81.8676Z" fill="#AFCDFB"/>
<path d="M62.1244 53.4606H54.7369C54.6281 53.4606 54.5391 53.3714 54.5391 53.2625C54.5391 53.1536 54.6281 53.0645 54.7369 53.0645H62.1244C62.2331 53.0645 62.3222 53.1536 62.3222 53.2625C62.3222 53.3714 62.2331 53.4606 62.1244 53.4606Z" fill="#AFCDFB"/>
<path d="M62.349 54.3564H54.9615C54.8527 54.3564 54.7637 54.2672 54.7637 54.1583C54.7637 54.0494 54.8527 53.9602 54.9615 53.9602H62.349C62.4577 53.9602 62.5468 54.0494 62.5468 54.1583C62.5468 54.2672 62.4577 54.3564 62.349 54.3564Z" fill="#AFCDFB"/>
<path d="M54.2007 46.7886H51.6655C51.4579 46.7886 51.2881 46.6186 51.2881 46.4107C51.2881 46.2027 51.4579 46.0327 51.6655 46.0327H54.2007C54.4083 46.0327 54.5781 46.2027 54.5781 46.4107C54.5781 46.6186 54.4083 46.7886 54.2007 46.7886Z" fill="white"/>
<path d="M61.1567 46.7886H58.6216C58.4139 46.7886 58.2441 46.6186 58.2441 46.4107C58.2441 46.2027 58.4139 46.0327 58.6216 46.0327H61.1567C61.3644 46.0327 61.5341 46.2027 61.5341 46.4107C61.5341 46.6186 61.3644 46.7886 61.1567 46.7886Z" fill="white"/>
<path d="M68.1128 46.7886H65.5776C65.37 46.7886 65.2002 46.6186 65.2002 46.4107C65.2002 46.2027 65.37 46.0327 65.5776 46.0327H68.1128C68.3204 46.0327 68.4902 46.2027 68.4902 46.4107C68.4902 46.6186 68.3204 46.7886 68.1128 46.7886Z" fill="white"/>
<path d="M75.0698 46.7886H72.5346C72.327 46.7886 72.1572 46.6186 72.1572 46.4107C72.1572 46.2027 72.327 46.0327 72.5346 46.0327H75.0698C75.2775 46.0327 75.4472 46.2027 75.4472 46.4107C75.4472 46.6186 75.2775 46.7886 75.0698 46.7886Z" fill="white"/>
<path d="M82.0259 46.7886H79.4907C79.283 46.7886 79.1133 46.6186 79.1133 46.4107C79.1133 46.2027 79.283 46.0327 79.4907 46.0327H82.0259C82.2335 46.0327 82.4033 46.2027 82.4033 46.4107C82.4033 46.6186 82.2335 46.7886 82.0259 46.7886Z" fill="white"/>
<path d="M88.9819 46.7886H86.4468C86.2391 46.7886 86.0693 46.6186 86.0693 46.4107C86.0693 46.2027 86.2391 46.0327 86.4468 46.0327H88.9819C89.1896 46.0327 89.3593 46.2027 89.3593 46.4107C89.3593 46.6186 89.1896 46.7886 88.9819 46.7886Z" fill="white"/>
<path d="M95.938 46.7886H93.4028C93.1952 46.7886 93.0254 46.6186 93.0254 46.4107C93.0254 46.2027 93.1952 46.0327 93.4028 46.0327H95.938C96.1456 46.0327 96.3154 46.2027 96.3154 46.4107C96.3154 46.6186 96.1456 46.7886 95.938 46.7886Z" fill="white"/>
<path d="M79.9046 56.936C79.3446 56.936 78.9371 56.7581 78.7147 56.4127C78.2886 55.7504 78.6178 54.822 79.692 53.6537C80.4768 52.8003 81.3936 52.1242 81.4024 52.1173C81.4384 52.0907 81.489 52.0986 81.5156 52.1345C81.5422 52.1705 81.5343 52.2213 81.4984 52.2479C81.4625 52.274 77.9299 54.8935 78.851 56.325C79.1428 56.7783 79.7673 56.8083 80.2402 56.7537C81.1156 56.6521 82.2567 56.1801 83.293 55.4912C84.3657 54.7777 85.121 53.9735 85.3661 53.2851C85.5265 52.8333 85.4768 52.5135 85.2185 52.3341C84.8843 52.1025 84.1861 52.1025 83.351 52.3336C82.5509 52.5549 81.7459 52.9535 81.2499 53.3743C81.2159 53.4034 81.1648 53.399 81.1357 53.365C81.1067 53.331 81.1111 53.2797 81.1451 53.2506C81.6578 52.816 82.4865 52.4051 83.3077 52.1779C84.2018 51.9305 84.9316 51.9389 85.3105 52.2016C85.5349 52.3568 85.7529 52.6805 85.5186 53.3398C85.2623 54.0607 84.4838 54.894 83.3825 55.6262C82.3261 56.3289 81.1584 56.8108 80.2589 56.9148C80.1348 56.9291 80.0168 56.9365 79.9046 56.9365V56.936Z" fill="#C65447"/>
<path d="M122.262 86.4911H117.794C117.554 86.2875 117.96 85.8258 118.383 85.7948C118.567 85.781 118.799 85.8194 119.065 85.8756C119.127 85.0576 119.478 81.3817 120.801 81.5295C122.289 81.695 120.801 83.1482 120.38 84.009C120.069 84.6467 119.74 85.5607 119.59 85.9919C119.711 86.018 119.836 86.0436 119.964 86.0673C120.161 85.4607 120.895 83.4212 121.828 83.5399C122.923 83.6789 122.483 84.4969 121.707 84.9822C121.137 85.339 120.438 85.8465 120.105 86.0914C120.386 86.1373 120.681 86.1683 120.979 86.1614C121.744 86.1432 122.117 86.3689 122.263 86.4906L122.262 86.4911Z" fill="#C7DCFB"/>
<path d="M20.2708 86.2787C20.0342 85.9062 19.3216 84.9394 18.3724 85.0675C17.3381 85.2069 19.5145 85.8894 20.1808 86.2816C20.0327 86.2836 19.9057 86.2718 19.8122 86.2383C19.3669 86.0791 18.6042 86.3841 18.3601 86.4911H22.6008C22.5713 86.3896 22.495 86.2235 22.2977 86.1028C22.2278 86.0599 22.0881 86.054 21.9075 86.0678C22.1594 85.7702 22.3346 84.8191 21.6329 85.064C21.1202 85.2429 21.1216 85.8239 21.1718 86.1673C21.0626 86.1846 20.9524 86.2018 20.8426 86.2176C20.6315 85.1399 19.8846 81.9823 18.3714 81.8981C16.8371 81.8128 19.6725 85.1729 20.6168 86.2477C20.4957 86.2624 20.3796 86.2733 20.2713 86.2782L20.2708 86.2787Z" fill="#C7DCFB"/>
<path d="M21.1053 86.4463H113.935C113.993 86.4463 114.04 86.5138 114.04 86.5971V86.6483C114.04 86.7316 113.993 86.7991 113.935 86.7991H21.1053C21.0471 86.7991 21 86.7316 21 86.6483V86.5971C21 86.5138 21.0471 86.4463 21.1053 86.4463Z" fill="#5288D8"/>
<rect x="77.6315" y="66.6364" width="53.4532" height="15.9996" rx="7.9998" fill="#F99746" stroke="white" stroke-width="0.727254"/>
<path d="M121.365 76.9998C121.324 76.9998 121.289 76.9853 121.26 76.9565C121.231 76.9277 121.217 76.8926 121.217 76.8514V72.8271C121.217 72.7818 121.231 72.7447 121.26 72.7159C121.289 72.687 121.324 72.6726 121.365 72.6726H123.022C123.343 72.6726 123.624 72.7241 123.863 72.8271C124.102 72.9261 124.287 73.0785 124.419 73.2846C124.551 73.4865 124.617 73.74 124.617 74.0449C124.617 74.354 124.551 74.6095 124.419 74.8115C124.287 75.0093 124.102 75.1576 123.863 75.2565C123.624 75.3554 123.343 75.4049 123.022 75.4049H122.101V76.8514C122.101 76.8926 122.086 76.9277 122.058 76.9565C122.033 76.9853 121.998 76.9998 121.952 76.9998H121.365ZM122.088 74.7187H122.991C123.23 74.7187 123.413 74.6631 123.541 74.5518C123.669 74.4364 123.733 74.2675 123.733 74.0449C123.733 73.8389 123.673 73.674 123.553 73.5504C123.434 73.4226 123.246 73.3588 122.991 73.3588H122.088V74.7187Z" fill="white"/>
<path d="M119.518 76.9998C119.477 76.9998 119.442 76.9853 119.413 76.9565C119.385 76.9277 119.37 76.8926 119.37 76.8514V72.821C119.37 72.7798 119.385 72.7447 119.413 72.7159C119.442 72.687 119.477 72.6726 119.518 72.6726H120.1C120.145 72.6726 120.18 72.687 120.205 72.7159C120.233 72.7447 120.248 72.7798 120.248 72.821V76.8514C120.248 76.8926 120.233 76.9277 120.205 76.9565C120.18 76.9853 120.145 76.9998 120.1 76.9998H119.518Z" fill="white"/>
<path d="M116.905 77.0616C116.522 77.0616 116.201 77.006 115.941 76.8947C115.685 76.7793 115.49 76.631 115.354 76.4497C115.222 76.2642 115.152 76.0705 115.144 75.8686C115.144 75.8315 115.156 75.8006 115.181 75.7758C115.205 75.7511 115.236 75.7388 115.273 75.7388H115.824C115.877 75.7388 115.916 75.7511 115.941 75.7758C115.97 75.7965 115.995 75.8232 116.015 75.8562C116.04 75.9345 116.087 76.0128 116.157 76.0911C116.227 76.1653 116.322 76.2271 116.442 76.2766C116.565 76.326 116.72 76.3507 116.905 76.3507C117.202 76.3507 117.423 76.3013 117.567 76.2024C117.715 76.1035 117.789 75.9695 117.789 75.8006C117.789 75.6811 117.75 75.5863 117.672 75.5162C117.594 75.442 117.472 75.3761 117.307 75.3184C117.146 75.2566 116.932 75.1927 116.664 75.1268C116.355 75.0526 116.096 74.964 115.885 74.861C115.679 74.7538 115.523 74.6199 115.416 74.4592C115.313 74.2984 115.261 74.0944 115.261 73.8472C115.261 73.6081 115.325 73.3959 115.453 73.2105C115.585 73.025 115.77 72.8787 116.009 72.7716C116.252 72.6644 116.541 72.6108 116.874 72.6108C117.142 72.6108 117.379 72.6479 117.585 72.7221C117.791 72.7922 117.962 72.887 118.098 73.0065C118.234 73.1219 118.337 73.2476 118.407 73.3835C118.482 73.5154 118.521 73.6452 118.525 73.773C118.525 73.806 118.513 73.8369 118.488 73.8657C118.467 73.8904 118.436 73.9028 118.395 73.9028H117.82C117.787 73.9028 117.754 73.8946 117.721 73.8781C117.688 73.8616 117.662 73.8307 117.641 73.7854C117.616 73.6576 117.536 73.5484 117.4 73.4577C117.264 73.3671 117.089 73.3217 116.874 73.3217C116.652 73.3217 116.473 73.3629 116.337 73.4454C116.201 73.5278 116.133 73.6555 116.133 73.8286C116.133 73.944 116.166 74.0409 116.232 74.1192C116.302 74.1933 116.411 74.2593 116.559 74.317C116.712 74.3747 116.912 74.4365 117.159 74.5024C117.509 74.5807 117.795 74.6714 118.018 74.7744C118.241 74.8774 118.403 75.0093 118.506 75.17C118.609 75.3266 118.661 75.5265 118.661 75.7697C118.661 76.0417 118.587 76.2745 118.438 76.4682C118.294 76.6578 118.09 76.8041 117.826 76.9071C117.563 77.0101 117.256 77.0616 116.905 77.0616Z" fill="white"/>
<path d="M111.734 77.0617C111.276 77.0617 110.914 76.9299 110.646 76.6661C110.378 76.4024 110.234 76.0273 110.213 75.541C110.209 75.4998 110.207 75.4483 110.207 75.3865C110.207 75.3206 110.209 75.269 110.213 75.232C110.23 74.9229 110.3 74.655 110.423 74.4283C110.551 74.2017 110.726 74.0286 110.949 73.9091C111.171 73.7854 111.433 73.7236 111.734 73.7236C112.068 73.7236 112.348 73.7937 112.575 73.9338C112.801 74.0698 112.972 74.2614 113.088 74.5087C113.203 74.7518 113.261 75.0341 113.261 75.3556V75.4854C113.261 75.5266 113.246 75.5616 113.217 75.5905C113.189 75.6193 113.152 75.6338 113.106 75.6338H111.054C111.054 75.6338 111.054 75.6399 111.054 75.6523C111.054 75.6647 111.054 75.675 111.054 75.6832C111.058 75.8275 111.085 75.9614 111.134 76.085C111.188 76.2045 111.264 76.3014 111.363 76.3756C111.466 76.4497 111.588 76.4868 111.728 76.4868C111.843 76.4868 111.94 76.4704 112.018 76.4374C112.097 76.4003 112.16 76.3591 112.21 76.3137C112.259 76.2684 112.294 76.2313 112.315 76.2025C112.352 76.153 112.381 76.1242 112.402 76.1159C112.426 76.1036 112.461 76.0974 112.507 76.0974H113.038C113.079 76.0974 113.112 76.1098 113.137 76.1345C113.166 76.1592 113.178 76.1901 113.174 76.2272C113.17 76.2931 113.135 76.3735 113.069 76.4683C113.007 76.5631 112.917 76.6558 112.797 76.7465C112.678 76.8371 112.527 76.9134 112.346 76.9752C112.169 77.0329 111.965 77.0617 111.734 77.0617ZM111.054 75.1145H112.42V75.096C112.42 74.9352 112.393 74.7951 112.34 74.6756C112.286 74.5561 112.208 74.4613 112.105 74.3913C112.002 74.3212 111.878 74.2862 111.734 74.2862C111.59 74.2862 111.466 74.3212 111.363 74.3913C111.26 74.4613 111.182 74.5561 111.128 74.6756C111.079 74.7951 111.054 74.9352 111.054 75.096V75.1145Z" fill="white"/>
<path d="M109.151 76.9998C108.904 76.9998 108.696 76.9565 108.527 76.87C108.358 76.7835 108.232 76.6557 108.15 76.4867C108.068 76.3137 108.026 76.0994 108.026 75.8438V74.4406H107.538C107.497 74.4406 107.462 74.4262 107.433 74.3973C107.404 74.3685 107.39 74.3335 107.39 74.2923V73.9337C107.39 73.8925 107.404 73.8575 107.433 73.8286C107.462 73.7998 107.497 73.7854 107.538 73.7854H108.026V72.7592C108.026 72.718 108.039 72.683 108.063 72.6541C108.092 72.6253 108.129 72.6108 108.175 72.6108H108.675C108.717 72.6108 108.752 72.6253 108.781 72.6541C108.809 72.683 108.824 72.718 108.824 72.7592V73.7854H109.597C109.638 73.7854 109.673 73.7998 109.702 73.8286C109.73 73.8575 109.745 73.8925 109.745 73.9337V74.2923C109.745 74.3335 109.73 74.3685 109.702 74.3973C109.673 74.4262 109.638 74.4406 109.597 74.4406H108.824V75.782C108.824 75.951 108.853 76.0829 108.91 76.1777C108.972 76.2724 109.077 76.3198 109.226 76.3198H109.652C109.693 76.3198 109.728 76.3343 109.757 76.3631C109.786 76.392 109.8 76.427 109.8 76.4682V76.8515C109.8 76.8927 109.786 76.9277 109.757 76.9565C109.728 76.9854 109.693 76.9998 109.652 76.9998H109.151Z" fill="white"/>
<path d="M105.131 77.0617C104.917 77.0617 104.723 77.0205 104.55 76.9381C104.377 76.8516 104.239 76.7382 104.136 76.5981C104.037 76.4539 103.987 76.2931 103.987 76.1159C103.987 75.8275 104.103 75.5987 104.333 75.4298C104.568 75.2567 104.877 75.1413 105.261 75.0836L106.108 74.96V74.8302C106.108 74.6571 106.064 74.5231 105.978 74.4283C105.891 74.3336 105.743 74.2862 105.533 74.2862C105.384 74.2862 105.263 74.3171 105.168 74.3789C105.077 74.4366 105.009 74.5149 104.964 74.6138C104.931 74.6674 104.884 74.6942 104.822 74.6942H104.333C104.288 74.6942 104.253 74.6818 104.228 74.6571C104.208 74.6323 104.197 74.5994 104.197 74.5582C104.202 74.4922 104.228 74.4119 104.278 74.3171C104.327 74.2223 104.406 74.1316 104.513 74.0451C104.62 73.9544 104.758 73.8782 104.927 73.8164C105.096 73.7545 105.3 73.7236 105.539 73.7236C105.799 73.7236 106.017 73.7566 106.194 73.8225C106.375 73.8844 106.52 73.9688 106.627 74.076C106.734 74.1831 106.812 74.3088 106.862 74.4531C106.911 74.5973 106.936 74.7498 106.936 74.9105V76.8516C106.936 76.8928 106.922 76.9278 106.893 76.9566C106.864 76.9855 106.829 76.9999 106.788 76.9999H106.287C106.242 76.9999 106.204 76.9855 106.176 76.9566C106.151 76.9278 106.139 76.8928 106.139 76.8516V76.6105C106.085 76.6888 106.013 76.7629 105.922 76.833C105.832 76.8989 105.72 76.9546 105.588 76.9999C105.461 77.0411 105.308 77.0617 105.131 77.0617ZM105.341 76.4745C105.485 76.4745 105.615 76.4436 105.731 76.3817C105.85 76.3199 105.943 76.2251 106.009 76.0974C106.079 75.9655 106.114 75.8007 106.114 75.6029V75.473L105.496 75.5719C105.252 75.609 105.071 75.6688 104.952 75.7512C104.832 75.8336 104.772 75.9346 104.772 76.0541C104.772 76.1448 104.799 76.2231 104.853 76.289C104.91 76.3508 104.983 76.3982 105.069 76.4312C105.156 76.46 105.246 76.4745 105.341 76.4745Z" fill="white"/>
<path d="M98.7675 76.9999C98.7263 76.9999 98.6913 76.9855 98.6624 76.9567C98.6336 76.9278 98.6191 76.8928 98.6191 76.8516V73.9338C98.6191 73.8926 98.6336 73.8576 98.6624 73.8287C98.6913 73.7999 98.7263 73.7855 98.7675 73.7855H99.2497C99.2909 73.7855 99.3259 73.7999 99.3548 73.8287C99.3836 73.8576 99.398 73.8926 99.398 73.9338V74.144C99.4846 74.0286 99.6 73.9318 99.7442 73.8535C99.8926 73.771 100.068 73.7278 100.27 73.7237C100.739 73.7154 101.067 73.8988 101.253 74.2738C101.347 74.109 101.483 73.9771 101.661 73.8782C101.842 73.7752 102.042 73.7237 102.26 73.7237C102.474 73.7237 102.668 73.7731 102.841 73.872C103.018 73.9709 103.156 74.1213 103.255 74.3233C103.358 74.5211 103.41 74.7725 103.41 75.0774V76.8516C103.41 76.8928 103.396 76.9278 103.367 76.9567C103.338 76.9855 103.303 76.9999 103.262 76.9999H102.755C102.713 76.9999 102.678 76.9855 102.65 76.9567C102.621 76.9278 102.606 76.8928 102.606 76.8516V75.1269C102.606 74.9414 102.58 74.7951 102.526 74.688C102.472 74.5767 102.4 74.4984 102.31 74.4531C102.219 74.4078 102.118 74.3851 102.007 74.3851C101.916 74.3851 101.825 74.4078 101.735 74.4531C101.644 74.4984 101.57 74.5767 101.512 74.688C101.454 74.7951 101.426 74.9414 101.426 75.1269V76.8516C101.426 76.8928 101.411 76.9278 101.382 76.9567C101.353 76.9855 101.318 76.9999 101.277 76.9999H100.77C100.725 76.9999 100.688 76.9855 100.659 76.9567C100.634 76.9278 100.622 76.8928 100.622 76.8516V75.1269C100.622 74.9414 100.593 74.7951 100.535 74.688C100.478 74.5767 100.404 74.4984 100.313 74.4531C100.222 74.4078 100.125 74.3851 100.022 74.3851C99.9276 74.3851 99.8349 74.4098 99.7442 74.4593C99.6535 74.5046 99.5794 74.5808 99.5217 74.688C99.464 74.7951 99.4351 74.9414 99.4351 75.1269V76.8516C99.4351 76.8928 99.4207 76.9278 99.3918 76.9567C99.363 76.9855 99.328 76.9999 99.2868 76.9999H98.7675Z" fill="white"/>
<path d="M96.3827 77.0617C96.053 77.0617 95.7748 77.004 95.5481 76.8886C95.3256 76.7733 95.1546 76.6105 95.035 76.4003C94.9197 76.1901 94.8537 75.9449 94.8372 75.6647C94.8331 75.5905 94.8311 75.4998 94.8311 75.3927C94.8311 75.2855 94.8331 75.1949 94.8372 75.1207C94.8537 74.8363 94.9217 74.5911 95.0412 74.3851C95.1649 74.1749 95.338 74.0121 95.5605 73.8967C95.7872 73.7813 96.0612 73.7236 96.3827 73.7236C96.7041 73.7236 96.9761 73.7813 97.1986 73.8967C97.4253 74.0121 97.5984 74.1749 97.7179 74.3851C97.8415 74.5911 97.9116 74.8363 97.9281 75.1207C97.9322 75.1949 97.9342 75.2855 97.9342 75.3927C97.9342 75.4998 97.9322 75.5905 97.9281 75.6647C97.9116 75.9449 97.8436 76.1901 97.7241 76.4003C97.6087 76.6105 97.4377 76.7733 97.211 76.8886C96.9885 77.004 96.7123 77.0617 96.3827 77.0617ZM96.3827 76.4497C96.6011 76.4497 96.77 76.3817 96.8895 76.2458C97.0091 76.1056 97.075 75.9016 97.0874 75.6338C97.0915 75.5719 97.0935 75.4916 97.0935 75.3927C97.0935 75.2938 97.0915 75.2134 97.0874 75.1516C97.075 74.8878 97.0091 74.6859 96.8895 74.5458C96.77 74.4057 96.6011 74.3356 96.3827 74.3356C96.1642 74.3356 95.9953 74.4057 95.8758 74.5458C95.7562 74.6859 95.6903 74.8878 95.6779 75.1516C95.6738 75.2134 95.6718 75.2938 95.6718 75.3927C95.6718 75.4916 95.6738 75.5719 95.6779 75.6338C95.6903 75.9016 95.7562 76.1056 95.8758 76.2458C95.9953 76.3817 96.1642 76.4497 96.3827 76.4497Z" fill="white"/>
<path d="M93.7637 76.9998C93.5165 76.9998 93.3083 76.9565 93.1394 76.87C92.9704 76.7835 92.8447 76.6557 92.7623 76.4867C92.6799 76.3137 92.6387 76.0994 92.6387 75.8438V74.4406H92.1503C92.1091 74.4406 92.0741 74.4262 92.0452 74.3973C92.0164 74.3685 92.002 74.3335 92.002 74.2923V73.9337C92.002 73.8925 92.0164 73.8575 92.0452 73.8286C92.0741 73.7998 92.1091 73.7854 92.1503 73.7854H92.6387V72.7592C92.6387 72.718 92.651 72.683 92.6758 72.6541C92.7046 72.6253 92.7417 72.6108 92.787 72.6108H93.2877C93.3289 72.6108 93.364 72.6253 93.3928 72.6541C93.4217 72.683 93.4361 72.718 93.4361 72.7592V73.7854H94.2088C94.25 73.7854 94.285 73.7998 94.3139 73.8286C94.3427 73.8575 94.3572 73.8925 94.3572 73.9337V74.2923C94.3572 74.3335 94.3427 74.3685 94.3139 74.3973C94.285 74.4262 94.25 74.4406 94.2088 74.4406H93.4361V75.782C93.4361 75.951 93.4649 76.0829 93.5226 76.1777C93.5845 76.2724 93.6895 76.3198 93.8379 76.3198H94.2644C94.3057 76.3198 94.3407 76.3343 94.3695 76.3631C94.3984 76.392 94.4128 76.427 94.4128 76.4682V76.8515C94.4128 76.8927 94.3984 76.9277 94.3695 76.9565C94.3407 76.9854 94.3057 76.9998 94.2644 76.9998H93.7637Z" fill="white"/>
<path d="M89.6644 77.0617C89.413 77.0617 89.1946 77.006 89.0091 76.8948C88.8278 76.7794 88.6877 76.6187 88.5888 76.4126C88.4899 76.2024 88.4404 75.9552 88.4404 75.6708V73.9338C88.4404 73.8925 88.4549 73.8575 88.4837 73.8287C88.5125 73.7998 88.5476 73.7854 88.5888 73.7854H89.1328C89.1781 73.7854 89.2131 73.7998 89.2379 73.8287C89.2667 73.8575 89.2811 73.8925 89.2811 73.9338V75.6337C89.2811 76.1447 89.5057 76.4002 89.9549 76.4002C90.1692 76.4002 90.3382 76.3322 90.4618 76.1962C90.5896 76.0603 90.6535 75.8727 90.6535 75.6337V73.9338C90.6535 73.8925 90.6679 73.8575 90.6967 73.8287C90.7256 73.7998 90.7606 73.7854 90.8018 73.7854H91.3458C91.387 73.7854 91.4221 73.7998 91.4509 73.8287C91.4797 73.8575 91.4942 73.8925 91.4942 73.9338V76.8515C91.4942 76.8927 91.4797 76.9277 91.4509 76.9566C91.4221 76.9854 91.387 76.9999 91.3458 76.9999H90.8451C90.7998 76.9999 90.7627 76.9854 90.7338 76.9566C90.7091 76.9277 90.6967 76.8927 90.6967 76.8515V76.5981C90.5855 76.7423 90.4474 76.8556 90.2826 76.938C90.1177 77.0205 89.9117 77.0617 89.6644 77.0617Z" fill="white"/>
<path d="M84.0302 76.9998C83.9972 76.9998 83.9663 76.9874 83.9375 76.9627C83.9128 76.938 83.9004 76.907 83.9004 76.87C83.9004 76.8535 83.9045 76.8349 83.9128 76.8143L85.4025 72.8271C85.4149 72.7859 85.4376 72.7509 85.4705 72.7221C85.5076 72.6891 85.5571 72.6726 85.6189 72.6726H86.2927C86.3545 72.6726 86.4019 72.6891 86.4349 72.7221C86.4678 72.7509 86.4926 72.7859 86.5091 72.8271L87.9988 76.8143C88.003 76.8349 88.005 76.8535 88.005 76.87C88.005 76.907 87.9927 76.938 87.9679 76.9627C87.9432 76.9874 87.9143 76.9998 87.8814 76.9998H87.3436C87.2859 76.9998 87.2426 76.9874 87.2138 76.9627C87.189 76.9338 87.1725 76.907 87.1643 76.8823L86.8738 76.1282H85.0378L84.7473 76.8823C84.739 76.907 84.7205 76.9338 84.6916 76.9627C84.6669 76.9874 84.6257 76.9998 84.568 76.9998H84.0302ZM85.2542 75.4173H86.6574L85.9527 73.5071L85.2542 75.4173Z" fill="white"/>
<path d="M127.807 92.03C128.192 90.1394 128.392 88.1989 128.399 86.2621L128.404 85.1159C128.405 84.7913 128.29 84.4844 128.079 84.2516C127.861 84.011 127.569 83.878 127.256 83.8767C126.989 83.8755 126.737 83.9709 126.533 84.1464C126.326 83.8227 125.979 83.6091 125.585 83.6075C125.3 83.6063 125.036 83.7167 124.832 83.9021C124.623 83.6026 124.29 83.407 123.915 83.4057C123.731 83.4049 123.555 83.4495 123.396 83.5342L123.406 80.8903C123.407 80.2147 122.895 79.6536 122.266 79.6385C121.968 79.6315 121.682 79.7473 121.46 79.9646C121.214 80.2052 121.073 80.5469 121.073 80.9021L121.062 86.6868L120.532 86.0108C120.094 85.4514 119.378 85.2677 118.752 85.5529C118.531 85.654 118.359 85.8406 118.271 86.0787C118.178 86.3275 118.187 86.6079 118.296 86.8489C118.3 86.8558 118.303 86.8624 118.306 86.8693L121.305 92.4007C121.514 92.7875 121.85 93.071 122.237 93.2053C122.397 93.2609 122.567 93.2908 122.739 93.2916L126.326 93.3063C127.033 93.3092 127.655 92.7723 127.807 92.0296L127.807 92.03Z" fill="#2A4E96"/>
<path d="M126.33 92.6684L122.743 92.6537C122.386 92.652 122.049 92.4384 121.864 92.0955L118.871 86.576C118.835 86.49 118.833 86.391 118.866 86.303C118.896 86.2245 118.949 86.1643 119.016 86.1336C119.371 85.972 119.78 86.0812 120.034 86.4049L121.129 87.8024C121.212 87.9092 121.354 87.9509 121.482 87.9068C121.61 87.8626 121.696 87.7418 121.696 87.606L121.709 80.903C121.709 80.718 121.781 80.5421 121.905 80.4205C122.003 80.324 122.126 80.2724 122.252 80.2753C122.539 80.2814 122.772 80.5564 122.772 80.8866L122.752 85.9892C122.752 86.1651 122.893 86.3084 123.069 86.3092C123.244 86.31 123.387 86.1676 123.387 85.9916L123.393 84.6363C123.394 84.4718 123.452 84.3187 123.556 84.205C123.654 84.099 123.78 84.0413 123.914 84.0417C124.199 84.0425 124.431 84.3114 124.429 84.6404L124.423 86.2003C124.423 86.3403 124.512 86.4598 124.637 86.5031C124.669 86.5142 124.704 86.5203 124.74 86.5207C124.915 86.5216 125.058 86.3791 125.058 86.2032V86.197C125.059 86.0624 125.066 84.8888 125.069 84.7566C125.105 84.4624 125.325 84.2426 125.584 84.2438C125.87 84.2447 126.101 84.5135 126.1 84.8425L126.097 85.4572L126.093 86.479C126.092 86.655 126.234 86.7982 126.41 86.799C126.585 86.7998 126.728 86.6574 126.728 86.4814L126.734 85.1077C126.735 84.9432 126.793 84.7897 126.897 84.6764C126.994 84.5704 127.121 84.5127 127.255 84.5131C127.387 84.5135 127.514 84.5725 127.61 84.6793C127.714 84.7938 127.771 84.9473 127.77 85.1118L127.765 86.258C127.758 88.1527 127.563 90.0511 127.186 91.9007C127.095 92.3468 126.736 92.6692 126.331 92.6672L126.33 92.6684Z" fill="white"/>
<path d="M59.3168 70.0882C62.804 66.6009 62.804 60.9469 59.3168 57.4597C55.8295 53.9724 50.1755 53.9724 46.6883 57.4597C43.201 60.9469 43.201 66.6009 46.6883 70.0882C50.1755 73.5754 55.8295 73.5754 59.3168 70.0882Z" fill="#E2810E"/>
<path d="M58.5267 70.1453C62.014 66.658 62.014 61.0041 58.5267 57.5168C55.0395 54.0295 49.3855 54.0295 45.8982 57.5168C42.411 61.0041 42.411 66.658 45.8982 70.1453C49.3855 73.6326 55.0395 73.6326 58.5267 70.1453Z" fill="#FFB93E"/>
<path d="M52.6579 67.3269C52.5652 67.3269 52.4923 67.307 52.4393 67.2673C52.3929 67.2209 52.3499 67.1745 52.3101 67.1281L50.1735 64.7531C50.1139 64.6868 50.0742 64.6239 50.0543 64.5643C50.041 64.5046 50.0344 64.4218 50.0344 64.3158V63.9581C50.0344 63.8918 50.0543 63.8355 50.094 63.7891C50.1404 63.7427 50.2 63.7196 50.2729 63.7196H50.74C51.1573 63.7196 51.4787 63.6666 51.7039 63.5606C51.9292 63.4479 52.0815 63.2989 52.161 63.1134C52.2472 62.9279 52.2902 62.7126 52.2902 62.4674C52.2902 62.2356 52.2472 62.0269 52.161 61.8414C52.0815 61.6559 51.9358 61.5068 51.7238 61.3942C51.5118 61.2749 51.2137 61.2153 50.8294 61.2153H50.2033C50.1371 61.2153 50.0808 61.1954 50.0344 61.1557C49.988 61.1093 49.9648 61.0497 49.9648 60.9768V60.6091C49.9648 60.5429 49.988 60.4865 50.0344 60.4402C50.0808 60.3938 50.1371 60.3706 50.2033 60.3706H54.3076C54.3738 60.3706 54.4301 60.3938 54.4765 60.4402C54.5229 60.4865 54.5461 60.5429 54.5461 60.6091V60.9768C54.5461 61.0497 54.5229 61.1093 54.4765 61.1557C54.4301 61.1954 54.3738 61.2153 54.3076 61.2153H52.7275L52.7474 60.9768C53.1117 61.0894 53.3635 61.2915 53.5026 61.583C53.6417 61.8679 53.7113 62.1892 53.7113 62.5469C53.7113 62.9312 53.6285 63.279 53.4629 63.5904C53.2972 63.9017 53.0455 64.1502 52.7076 64.3357C52.3764 64.5212 51.9656 64.6272 51.4754 64.6537L51.1275 64.6835L51.2369 64.1171L53.7908 66.999C53.8438 67.0586 53.8703 67.1083 53.8703 67.148C53.8703 67.2076 53.8504 67.254 53.8107 67.2871C53.7709 67.3136 53.7212 67.3269 53.6616 67.3269H52.6579ZM50.2033 62.8252C50.1305 62.8252 50.0708 62.802 50.0245 62.7556C49.9847 62.7092 49.9648 62.6529 49.9648 62.5867V62.219C49.9648 62.1461 49.988 62.0898 50.0344 62.0501C50.0808 62.0037 50.1371 61.9805 50.2033 61.9805H54.3076C54.3738 61.9805 54.4301 62.0037 54.4765 62.0501C54.5229 62.0898 54.5461 62.1461 54.5461 62.219L54.5361 62.5867C54.5361 62.6529 54.5129 62.7092 54.4666 62.7556C54.4268 62.802 54.3705 62.8252 54.2976 62.8252H50.2033Z" fill="white"/>
<path d="M53.2602 72.0483C51.1042 72.3199 48.9713 71.7352 47.2546 70.4028C45.5379 69.0699 44.4431 67.1486 44.1715 64.9926C43.8999 62.8366 44.4845 60.7038 45.817 58.987C47.1499 57.2703 49.0711 56.1756 51.2271 55.9039C53.3832 55.6323 55.516 56.217 57.2327 57.5494C58.9494 58.8823 60.0442 60.8035 60.3158 62.9596C60.5875 65.1156 60.0028 67.2489 58.6703 68.9651C57.3375 70.6819 55.4162 71.7766 53.2602 72.0483ZM51.288 56.3855C47.1027 56.9126 44.126 60.7464 44.6531 64.9322C45.1802 69.1175 49.014 72.0942 53.1997 71.5671C57.3851 71.04 60.3618 67.2062 59.8347 63.0204C59.3076 58.8351 55.4738 55.8584 51.2884 56.3855H51.288Z" fill="#FFA412"/>
</svg>
