<svg width="14" height="12" viewBox="0 0 14 12" fill="none" xmlns="http://www.w3.org/2000/svg">
<path d="M11.8924 2.13694H9.04656V0.990204C9.04656 0.444188 8.60235 0 8.05633 0H5.1508C4.60478 0 4.16057 0.444188 4.16057 0.990204V2.13694H1.31477C0.589787 2.13694 0 2.72675 0 3.45171V10.1763C0 10.9013 0.589787 11.4911 1.31477 11.4911H11.8924C12.6173 11.4911 13.2072 10.9013 13.2072 10.1763V3.45171C13.2072 2.72675 12.6173 2.13694 11.8924 2.13694ZM4.9993 0.990204C4.99935 0.950042 5.01533 0.911539 5.04373 0.883143C5.07213 0.854747 5.11064 0.838776 5.1508 0.838734H8.05633C8.09649 0.838776 8.135 0.854747 8.1634 0.883143C8.1918 0.911539 8.20778 0.950042 8.20783 0.990204V2.13694H4.9993V0.990204ZM0.838734 3.45171C0.838734 3.18921 1.05227 2.97567 1.31477 2.97567H11.8924C12.1549 2.97567 12.3684 3.18921 12.3684 3.45171V4.07239C12.3684 4.65458 11.978 5.17483 11.4191 5.33757L7.03289 6.61462C6.75252 6.69643 6.45461 6.69643 6.17424 6.61462L1.78808 5.33755C1.22911 5.17481 0.838734 4.65458 0.838734 4.07239V3.45171ZM11.8924 10.6524H1.31477C1.0523 10.6524 0.838734 10.4388 0.838734 10.1764V5.77998C1.05007 5.94332 1.29097 6.06638 1.5536 6.14286C6.39883 7.55356 6.14981 7.51474 6.60356 7.51474C7.06332 7.51474 6.80263 7.55521 11.6535 6.14286C11.9162 6.06638 12.1571 5.94332 12.3684 5.77998V10.1763C12.3684 10.4388 12.1549 10.6524 11.8924 10.6524Z" fill="#51667A"/>
</svg>
