<svg xmlns="http://www.w3.org/2000/svg" xmlns:xlink="http://www.w3.org/1999/xlink" width="24" height="24" viewBox="0 0 24 24">
  <defs>
    <clipPath id="clip-calendar">
      <rect width="24" height="24"/>
    </clipPath>
  </defs>
  <g id="calendar" clip-path="url(#clip-calendar)">
    <g id="Component_15_1" data-name="Component 15 – 1" transform="translate(3 3)">
      <path id="Path_32406" data-name="Path 32406" d="M78.967,199.014c0-.428,0-.835,0-1.242a.643.643,0,1,1,1.284-.008c0,.408,0,.815,0,1.237h6.427c0-.422,0-.841,0-1.26a.641.641,0,0,1,1.255-.2,1.114,1.114,0,0,1,.03.316c0,.38,0,.76,0,1.161h.23c.79,0,1.58,0,2.369,0a1.919,1.919,0,0,1,1.9,1.891q0,6.144,0,12.289a1.909,1.909,0,0,1-1.879,1.886q-7.118,0-14.236,0a1.907,1.907,0,0,1-1.876-1.909q0-5.974,0-11.947a3.325,3.325,0,0,1,.055-.756,1.918,1.918,0,0,1,1.862-1.453ZM75.753,204.8v.22q0,4.006,0,8.012a.679.679,0,0,0,.764.766l13.9,0a.667.667,0,0,0,.763-.763q0-4.006,0-8.012V204.8c-.45,0-.871,0-1.292,0a.643.643,0,0,1-.173-1.262,1.367,1.367,0,0,1,.338-.022c.372,0,.744,0,1.127,0,0-.842,0-1.657,0-2.473a.669.669,0,0,0-.749-.739H87.966c0,.448,0,.863,0,1.277a.643.643,0,1,1-1.285,0c0-.328,0-.656,0-.984v-.287H80.252c0,.417,0,.824,0,1.231a.632.632,0,0,1-.644.686.64.64,0,0,1-.641-.692c0-.406,0-.812,0-1.228-.053,0-.085-.008-.117-.008-.8,0-1.593,0-2.389,0a.656.656,0,0,0-.707.719c0,.79,0,1.58,0,2.369a1.2,1.2,0,0,0,.014.125H87.9a.645.645,0,1,1,.006,1.285H75.753Z" transform="translate(-74.468 -197.082)" fill="#ff6700"/>
    </g>
  </g>
</svg>
