<svg xmlns="http://www.w3.org/2000/svg" width="15" height="15" viewBox="0 0 15 15">
  <g id="checkbox_unselected" transform="translate(-2725.156 638.393)">
    <path id="Path_28900" data-name="Path 28900" d="M2737.321-623.393h-9.328a2.845,2.845,0,0,1-2.836-2.835v-9.328a2.845,2.845,0,0,1,2.835-2.836h9.329a2.842,2.842,0,0,1,2.835,2.836v9.327A2.842,2.842,0,0,1,2737.321-623.393Zm-9.328-13.636a1.478,1.478,0,0,0-1.472,1.474v9.326a1.478,1.478,0,0,0,1.473,1.473h9.326a1.476,1.476,0,0,0,1.473-1.473v-9.327a1.477,1.477,0,0,0-1.474-1.473Z" fill="#3977de"/>
  </g>
</svg>
