<svg xmlns="http://www.w3.org/2000/svg" width="18" height="18" viewBox="0 0 18 18">
  <path id="Subtraction_1" data-name="Subtraction 1" d="M10850-836a9.009,9.009,0,0,1-9-9,9.011,9.011,0,0,1,9-9,9.012,9.012,0,0,1,9,9A9.01,9.01,0,0,1,10850-836Zm-3.777-9.4a.628.628,0,0,0-.627.627.628.628,0,0,0,.627.627h6.094l-2.94,2.938a.632.632,0,0,0,0,.888.631.631,0,0,0,.444.183.628.628,0,0,0,.441-.183l4.011-4.012a.614.614,0,0,0,.185-.44.62.62,0,0,0-.185-.446l-4.011-4.009a.62.62,0,0,0-.442-.184.624.624,0,0,0-.443.184.631.631,0,0,0,0,.886l2.94,2.941Z" transform="translate(-10841 854.001)" fill="#d9d9d9"/>
</svg>
