<svg width="16" height="12" viewBox="0 0 16 12" fill="none" xmlns="http://www.w3.org/2000/svg">
<path d="M7.75 10C7.75 8.25 7.12153 6.78125 5.86458 5.59375C4.60764 4.40625 3.09028 3.72222 1.3125 3.54167C1.09097 3.51708 0.900139 3.43118 0.74 3.28396C0.58 3.13674 0.5 2.95889 0.5 2.75042C0.5 2.54181 0.579236 2.36458 0.737708 2.21875C0.89632 2.07292 1.08792 2.01389 1.3125 2.04167C2.85417 2.16667 4.27083 2.63542 5.5625 3.44792C6.85417 4.26042 7.83333 5.36111 8.5 6.75C8.98611 5.70833 9.65278 4.80903 10.5 4.05208C11.3472 3.29514 12.2569 2.61111 13.2292 2H10.75C10.5375 2 10.3594 1.92854 10.2156 1.78563C10.0719 1.64271 10 1.46563 10 1.25438C10 1.04313 10.0719 0.864583 10.2156 0.71875C10.3594 0.572917 10.5375 0.5 10.75 0.5H14.75C14.9625 0.5 15.1406 0.571874 15.2844 0.715624C15.4281 0.859375 15.5 1.0375 15.5 1.25V5.25C15.5 5.4625 15.4285 5.64062 15.2856 5.78438C15.1427 5.92813 14.9656 6 14.7544 6C14.5431 6 14.3646 5.92813 14.2188 5.78438C14.0729 5.64062 14 5.4625 14 5.25V3.27083C12.7222 4.04861 11.6111 4.99653 10.6667 6.11458C9.72222 7.23264 9.25 8.52778 9.25 10H10C10.2125 10 10.3906 10.0715 10.5344 10.2144C10.6781 10.3573 10.75 10.5344 10.75 10.7456C10.75 10.9569 10.6783 11.1354 10.5348 11.2812C10.3912 11.4271 10.2133 11.5 10.0013 11.5H7.00583C6.79361 11.5 6.61458 11.4285 6.46875 11.2856C6.32292 11.1427 6.25 10.9656 6.25 10.7544C6.25 10.5431 6.32188 10.3646 6.46563 10.2188C6.60938 10.0729 6.7875 10 7 10H7.75Z" fill="#FF6700"/>
</svg>
