<svg xmlns="http://www.w3.org/2000/svg" width="14" height="14" viewBox="0 0 14 14">
  <g id="Group_15806" data-name="Group 15806" transform="translate(976 -472)">
    <path id="Path_32560" data-name="Path 32560" d="M-975,564.319a3.466,3.466,0,0,1,.256-.587,1.377,1.377,0,0,1,1.222-.609h6.632c.4,0,.8,0,1.2,0a1.4,1.4,0,0,1,1.392,1.1,1.672,1.672,0,0,1,.039.379q0,3.89,0,7.779a1.4,1.4,0,0,1-1.164,1.457c-.011,0-.02.014-.03.021H-973.8a.324.324,0,0,0-.057-.024,1.376,1.376,0,0,1-1.072-.936c-.028-.078-.047-.16-.071-.24Zm5.372,8.605c1.3,0,2.594-.006,3.892,0a.5.5,0,0,0,.538-.535q-.005-3.9,0-7.8a.481.481,0,0,0-.528-.533h-7.809a.47.47,0,0,0-.523.518q0,3.917,0,7.834a.652.652,0,0,0,.018.176.456.456,0,0,0,.5.332Z" transform="translate(-1 -87.864)" fill="#2680eb"/>
    <path id="Path_32561" data-name="Path 32561" d="M-890.739,482c-.017.06-.035.12-.052.181a1.407,1.407,0,0,1-1.33,1.018.464.464,0,0,1-.482-.428.467.467,0,0,1,.426-.51c.368-.045.5-.189.5-.554q0-4.12,0-8.239a.46.46,0,0,0-.329-.511.588.588,0,0,0-.163-.019H-900.5a.456.456,0,0,0-.5.472.467.467,0,0,1-.5.452.465.465,0,0,1-.441-.495,1.409,1.409,0,0,1,1.116-1.343.746.746,0,0,0,.082-.027h8.8a.322.322,0,0,0,.057.024,1.376,1.376,0,0,1,1.072.936c.028.078.047.16.071.24Z" transform="translate(-71.261)" fill="#2680eb"/>
  </g>
</svg>
