<svg xmlns="http://www.w3.org/2000/svg" xmlns:xlink="http://www.w3.org/1999/xlink" width="24" height="24" viewBox="0 0 24 24">
  <defs>
    <clipPath id="clip-path">
      <rect id="Rectangle_3405" data-name="Rectangle 3405" width="20" height="24" fill="none"/>
    </clipPath>
  </defs>
  <g id="csv" transform="translate(-6 -5)">
    <rect id="Rectangle_1" data-name="Rectangle 1" width="24" height="24" transform="translate(6 5)" fill="none"/>
    <g id="Group_16680" data-name="Group 16680" transform="translate(8 5)">
      <g id="Group_16679" data-name="Group 16679" clip-path="url(#clip-path)">
        <path id="Path_32506" data-name="Path 32506" d="M17.492,24H2.508a1.128,1.128,0,0,1-.7-1.229c.018-1.406.006-2.812.006-4.218v-.279c-.184,0-.331,0-.477,0a1.307,1.307,0,0,1-1.326-1.4q-.017-3.444,0-6.889a1.307,1.307,0,0,1,1.347-1.4c.145,0,.29,0,.455,0v-.3q0-3.585,0-7.17C1.812.37,2.156,0,2.853,0Q8.042,0,13.231,0a.723.723,0,0,1,.608.3q2.047,2.5,4.108,4.988a1.016,1.016,0,0,1,.244.7c-.008.781,0,1.562,0,2.343v.254c.177,0,.316,0,.455,0a1.307,1.307,0,0,1,1.348,1.4q.017,3.444,0,6.889a1.307,1.307,0,0,1-1.348,1.4c-.145,0-.289,0-.455,0v.3c0,1.4-.013,2.8.006,4.194a1.128,1.128,0,0,1-.7,1.229M12.951.96H2.715V8.567H17.286V6.233h-.259q-1.752,0-3.5,0c-.413,0-.572-.171-.572-.612q0-1.066,0-2.132V.96m4.338,17.327H2.712v4.5H17.289Zm1.247-8.652c-.525,0-1.007,0-1.49.008-.049,0-.121.1-.139.165q-.646,2.393-1.281,4.79c-.043.16-.078.323-.13.538-.03-.1-.044-.149-.055-.193-.431-1.693-.866-3.384-1.288-5.079-.048-.192-.127-.247-.3-.233-.2.016-.411,0-.617,0H12.47a.794.794,0,0,0,.011.106q1.016,3.374,2.029,6.749a.2.2,0,0,0,.237.172c.441-.006.881-.011,1.322,0,.182.005.266-.05.326-.243.473-1.525.96-3.045,1.442-4.567.229-.723.456-1.447.7-2.218m-6.8.208c-.339-.091-.645-.2-.96-.253a3.112,3.112,0,0,0-2.506.495,1.966,1.966,0,0,0-.344,2.677,2.907,2.907,0,0,0,1.152.834c.349.16.7.311,1.039.5a.657.657,0,0,1,.335.7.685.685,0,0,1-.509.58,1.959,1.959,0,0,1-1.11.015c-.362-.082-.714-.214-1.085-.328l-.287,1.261a4.121,4.121,0,0,0,3.284.17,1.96,1.96,0,0,0,1.229-1.683,1.89,1.89,0,0,0-.941-1.933c-.354-.216-.745-.364-1.117-.547a5.675,5.675,0,0,1-.55-.292.6.6,0,0,1-.3-.6.583.583,0,0,1,.4-.508,1.542,1.542,0,0,1,.471-.1,3.006,3.006,0,0,1,1.461.32l.34-1.31M6.506,11.087c.08-.328.157-.636.231-.944.082-.339.081-.341-.248-.438a4.335,4.335,0,0,0-1.94-.134A3.248,3.248,0,0,0,1.889,11.6a4.27,4.27,0,0,0-.149,2.837A2.937,2.937,0,0,0,3.691,16.55a4.416,4.416,0,0,0,2.089.158c.32-.044.635-.139.959-.213l-.233-1.27a3.373,3.373,0,0,1-1.595.194A1.825,1.825,0,0,1,3.6,14.695a2.7,2.7,0,0,1-.414-2.066,1.921,1.921,0,0,1,1.751-1.768,3.231,3.231,0,0,1,1.566.226" transform="translate(0 0)"/>
      </g>
    </g>
  </g>
</svg>
