<svg xmlns="http://www.w3.org/2000/svg" width="22" height="17.707" viewBox="0 0 22 17.707">
  <g id="Group_16467" data-name="Group 16467" transform="translate(-9 -969.362)">
    <path id="Path_32380" data-name="Path 32380" d="M20,969.362a.941.941,0,0,0-.495.168l-10.2,8.049a.961.961,0,0,0-.176,1.165.833.833,0,0,0,1.165.1l9.7-7.655,9.7,7.655a.824.824,0,0,0,1.165-.1.914.914,0,0,0-.176-1.165l-10.2-8.049a.82.82,0,0,0-.495-.168Zm-6.439,7.856-1.61,1.274v7.772a.8.8,0,0,0,.8.8h5.1a.8.8,0,0,0,.8-.8v-3.22a1.341,1.341,0,0,1,2.683,0v3.219a.8.8,0,0,0,.8.8h5.1a.8.8,0,0,0,.8-.8v-7.772l-1.61-1.274v8.242H22.95v-2.415a2.951,2.951,0,0,0-5.9,0v2.415H13.559Z" transform="translate(0)" fill="#666"/>
  </g>
</svg>
