<svg id="delete_Icon_popup" xmlns="http://www.w3.org/2000/svg" width="20.999" height="24" viewBox="0 0 20.999 24">
  <path id="Path_28476" data-name="Path 28476" d="M121.291,1.313V4.435h-2.41V2.622a.4.4,0,0,0-.4-.4H110.17a.4.4,0,0,0-.4.4V4.435h-2.41V1.313A1.312,1.312,0,0,1,108.668,0h11.311A1.312,1.312,0,0,1,121.291,1.313Z" transform="translate(-103.824)" fill="#5c6777"/>
  <path id="Path_28477" data-name="Path 28477" d="M351.2,1.313V4.435H349.88V1.313A1.312,1.312,0,0,0,348.568,0h1.316A1.312,1.312,0,0,1,351.2,1.313Z" transform="translate(-333.729)" fill="#525760"/>
  <path id="Path_28478" data-name="Path 28478" d="M67.377,193.322H58.1l1.815,14.7a.281.281,0,0,0,.286.236H74.552a.281.281,0,0,0,.286-.236l1.815-14.7Z" transform="translate(-56.877 -184.26)" fill="#e1e6e9"/>
  <path id="Path_28479" data-name="Path 28479" d="M383.1,193.321l-1.815,14.7a.28.28,0,0,1-.286.235h-1.381a.281.281,0,0,0,.286-.235l1.815-14.7Z" transform="translate(-363.323 -184.259)" fill="#d2d6d8"/>
  <path id="Path_28480" data-name="Path 28480" d="M52.767,99.234H32.258a.245.245,0,0,1-.245-.245V94.852a.245.245,0,0,1,.245-.245H52.767a.245.245,0,0,1,.245.245v4.138A.245.245,0,0,1,52.767,99.234Z" transform="translate(-32.013 -90.172)" fill="#5c6777"/>
  <path id="Path_28481" data-name="Path 28481" d="M443.588,94.849v4.138a.245.245,0,0,1-.245.245H441.8a.245.245,0,0,0,.245-.245V94.849a.245.245,0,0,0-.245-.245h1.545A.245.245,0,0,1,443.588,94.849Z" transform="translate(-422.589 -90.169)" fill="#525760"/>
  <g id="Group_8051" data-name="Group 8051" transform="translate(4.217 11.267)">
    <path id="Path_28482" data-name="Path 28482" d="M233.537,250.5h-.593a.823.823,0,0,1-.823-.823v-8.256a.823.823,0,0,1,.823-.823h.593a.823.823,0,0,1,.823.823v8.256A.823.823,0,0,1,233.537,250.5Z" transform="translate(-226.958 -240.585)" fill="#5c6777"/>
    <path id="Path_28483" data-name="Path 28483" d="M330.43,250.289l-.592-.045a.823.823,0,0,1-.759-.882l.62-8.232a.823.823,0,0,1,.882-.759l.592.045a.823.823,0,0,1,.759.882l-.62,8.232A.823.823,0,0,1,330.43,250.289Z" transform="translate(-319.37 -240.369)" fill="#5c6777"/>
    <path id="Path_28484" data-name="Path 28484" d="M123.481,250.289l.592-.045a.823.823,0,0,0,.759-.882l-.62-8.232a.823.823,0,0,0-.882-.759l-.592.045a.823.823,0,0,0-.759.882l.62,8.232A.823.823,0,0,0,123.481,250.289Z" transform="translate(-121.977 -240.369)" fill="#5c6777"/>
  </g>
  <g id="Group_8052" data-name="Group 8052" transform="translate(5.021 11.267)">
    <path id="Path_28485" data-name="Path 28485" d="M248.226,241.415v8.255a.823.823,0,0,1-.823.823h-.593a.8.8,0,0,1-.141-.012.823.823,0,0,0,.682-.811v-8.255a.822.822,0,0,0-.682-.81.752.752,0,0,1,.141-.013h.593A.823.823,0,0,1,248.226,241.415Z" transform="translate(-241.628 -240.581)" fill="#525760"/>
    <path id="Path_28486" data-name="Path 28486" d="M348.283,241.295l-.619,8.232a.823.823,0,0,1-.882.758l-.548-.041a.823.823,0,0,0,.556-.717l.619-8.232a.823.823,0,0,0-.758-.882l-.043,0a.81.81,0,0,1,.325-.041l.592.045A.823.823,0,0,1,348.283,241.295Z" transform="translate(-336.525 -240.365)" fill="#525760"/>
    <path id="Path_28487" data-name="Path 28487" d="M140.422,250.244l-.591.045a.811.811,0,0,1-.326-.041l.043,0a.822.822,0,0,0,.758-.882l-.619-8.232a.823.823,0,0,0-.557-.718l.549-.041a.823.823,0,0,1,.882.759l.619,8.232A.822.822,0,0,1,140.422,250.244Z" transform="translate(-139.13 -240.368)" fill="#525760"/>
  </g>
</svg>
