<svg xmlns="http://www.w3.org/2000/svg" width="15" height="16" viewBox="0 0 15 16">
  <g id="delete_watchlist" transform="translate(-43.482 -30.155)">
    <g id="Group_14575" data-name="Group 14575" transform="translate(43.482 32.335)">
      <g id="Group_14572" data-name="Group 14572" transform="translate(1.627 0.036)">
        <g id="Group_14571" data-name="Group 14571">
          <path id="Path_32382" data-name="Path 32382" d="M98.056,103.226H94.24c-1.318,0-2.636.022-3.954,0h-.054c-.084-.007-.065,0,.044.011,0,0-.1-.022-.094-.018a.693.693,0,0,0-.116-.033c-.087-.007.145.084.018.007-.025-.015-.054-.029-.084-.047-.152-.091-.011.007-.007,0s-.174-.153-.167-.168.087.146.018.015c-.018-.036-.04-.069-.058-.1-.069-.124.025.04.015.044a1.041,1.041,0,0,1-.044-.139.732.732,0,0,0-.018-.095c.062.164.011.066.011-.007V95.375c0-1.225.029-2.458,0-3.683v-.058l-.726.729H99.308l-.726-.729v11.115c0,.168.044-.157,0,0a.967.967,0,0,1-.051.186c.011-.029.025-.058.036-.084-.015.029-.029.058-.044.084a.759.759,0,0,1-.076.12c.018-.026.036-.047.054-.073-.022.026-.04.047-.062.069s-.044.044-.069.066c-.058.051-.047.04.036-.026a.86.86,0,0,1-.12.077l-.084.044c.1-.04.113-.047.04-.022-.047.011-.094.026-.142.036-.08.015-.065.011.047-.007a.818.818,0,0,1-.1,0,.729.729,0,0,0,0,1.459,2.016,2.016,0,0,0,1.982-1.991c0-.131,0-.266,0-.4V91.629a.74.74,0,0,0-.726-.729H89.026a.74.74,0,0,0-.726.729v11.039a2.008,2.008,0,0,0,.7,1.543,2.1,2.1,0,0,0,1.369.474h7.683a.729.729,0,0,0,0-1.459Z" transform="translate(-88.3 -90.9)" fill="#e54f35"/>
        </g>
      </g>
      <g id="Group_14574" data-name="Group 14574" transform="translate(0 0)">
        <g id="Group_14573" data-name="Group 14573">
          <path id="Path_32383" data-name="Path 32383" d="M44.209,91.387H56.085c.548,0,1.1.015,1.648,0h.022a.729.729,0,0,0,0-1.459H45.879c-.548,0-1.1-.015-1.648,0h-.022a.729.729,0,0,0,0,1.459Z" transform="translate(-43.482 -89.922)" fill="#e54f35"/>
        </g>
      </g>
    </g>
    <g id="Group_14577" data-name="Group 14577" transform="translate(47.725 30.156)">
      <g id="Group_14576" data-name="Group 14576" transform="translate(0 0)">
        <path id="Path_32384" data-name="Path 32384" d="M161.806,33.067V31.784c0-.029.018-.1-.007,0-.029.12.011-.036.015-.047.025-.12-.069.1,0,0a.719.719,0,0,1,.051-.08c.015.007-.105.106-.04.055a.372.372,0,0,0,.065-.066c.051-.066-.047.055-.054.04a.251.251,0,0,1,.062-.036c.127-.069.011.015-.022,0,.011,0,.229-.062.094-.029-.094.026-.025,0,.007.007h3.217c.044,0,.087,0,.127,0a.272.272,0,0,0,.054,0c-.033.033-.149-.033-.047,0a.482.482,0,0,0,.069.018c.091.015-.113-.073-.04-.018a.254.254,0,0,0,.062.033c.018.011.094.04,0,0s.007.015.033.036.036.073,0,0c-.047-.1.007.022.022.044.036.055-.007.047,0,0-.022-.058-.025-.058,0,0,0,.015.007.033.011.047.04.131,0-.142,0,.007v1.284a.726.726,0,1,0,1.452,0v-.806a2.752,2.752,0,0,0-.127-1.1,1.643,1.643,0,0,0-1.5-1.007c-.174,0-.349,0-.523,0h-2.07a2.307,2.307,0,0,0-1.939.529,1.679,1.679,0,0,0-.425,1.1c0,.113,0,.23,0,.343v.941a.724.724,0,1,0,1.449,0Z" transform="translate(-160.356 -30.156)" fill="#e54f35"/>
      </g>
    </g>
    <g id="Group_14582" data-name="Group 14582" transform="translate(48.649 35.74)">
      <g id="Group_14579" data-name="Group 14579" transform="translate(0 0)">
        <g id="Group_14578" data-name="Group 14578">
          <path id="Path_32385" data-name="Path 32385" d="M185.8,184.012V189.6a.726.726,0,1,0,1.452,0v-5.587a.726.726,0,1,0-1.452,0Z" transform="translate(-185.8 -183.282)" fill="#e54f35"/>
        </g>
      </g>
      <g id="Group_14581" data-name="Group 14581" transform="translate(3.21 0)">
        <g id="Group_14580" data-name="Group 14580">
          <path id="Path_32386" data-name="Path 32386" d="M274.2,184.012V189.6a.726.726,0,1,0,1.452,0v-5.587a.726.726,0,1,0-1.452,0Z" transform="translate(-274.2 -183.282)" fill="#e54f35"/>
        </g>
      </g>
    </g>
  </g>
</svg>
