<svg width="16" height="16" viewBox="0 0 16 16" fill="none" xmlns="http://www.w3.org/2000/svg">
<mask id="mask0_5410_17035" style="mask-type:alpha" maskUnits="userSpaceOnUse" x="0" y="0" width="16" height="16">
<rect width="16" height="16" fill="#D9D9D9"/>
</mask>
<g mask="url(#mask0_5410_17035)">
<path d="M6.0849 14.3996C5.95156 14.3996 5.83212 14.3607 5.72656 14.2829C5.62101 14.2052 5.54601 14.1052 5.50156 13.9829L3.86823 8.59961H1.60156V7.39961H4.31823C4.45156 7.39961 4.57101 7.4385 4.67656 7.51628C4.78212 7.59405 4.85712 7.69405 4.90156 7.81628L6.00156 11.4329L8.05156 2.06628C8.07378 1.92183 8.14045 1.80794 8.25156 1.72461C8.36267 1.64128 8.49045 1.59961 8.6349 1.59961C8.77934 1.59961 8.90434 1.64405 9.0099 1.73294C9.11545 1.82183 9.1849 1.93294 9.21823 2.06628L10.6516 8.26628L11.5849 5.23294C11.6182 5.11072 11.6877 5.01072 11.7932 4.93294C11.8988 4.85517 12.0182 4.81628 12.1516 4.81628C12.2738 4.80517 12.3877 4.83572 12.4932 4.90794C12.5988 4.98017 12.6738 5.07739 12.7182 5.19961L13.5349 7.39961H14.4016V8.59961H13.1182C12.996 8.59961 12.8849 8.5635 12.7849 8.49128C12.6849 8.41905 12.6127 8.32183 12.5682 8.19961L12.2016 7.28294L11.1349 10.7496C11.0905 10.8829 11.0127 10.9913 10.9016 11.0746C10.7905 11.1579 10.6682 11.1941 10.5349 11.1829C10.4016 11.1829 10.2821 11.1385 10.1766 11.0496C10.071 10.9607 10.0071 10.8496 9.9849 10.7163L8.65156 4.93294L6.66823 13.9329C6.64601 14.0663 6.57934 14.1746 6.46823 14.2579C6.35712 14.3413 6.22934 14.3885 6.0849 14.3996Z" fill="#FF6700"/>
</g>
</svg>
