<svg xmlns="http://www.w3.org/2000/svg" xmlns:xlink="http://www.w3.org/1999/xlink" width="24" height="24" viewBox="0 0 24 24">
  <defs>
    <clipPath id="clip-edis">
      <rect width="24" height="24"/>
    </clipPath>
  </defs>
  <g id="edis" clip-path="url(#clip-edis)">
    <g id="Group_17986" data-name="Group 17986" transform="translate(-111 -437)">
      <g id="Group_17938" data-name="Group 17938" transform="translate(-512.207 275.369)">
        <path id="Path_32529" data-name="Path 32529" d="M626.985,180.5h1c.267,0,.5.13.441.484a.644.644,0,0,1-.446.416,10.918,10.918,0,0,1-1.306.021c-.336,0-.463-.206-.463-.6q.005-4.51,0-9.02c0-.413.153-.595.473-.6a.464.464,0,0,1,.087,0,3.966,3.966,0,0,0,3.147-1.049c1.251-.944,2.554-1.784,3.837-2.66a.68.68,0,0,0,.346-.6,1.117,1.117,0,1,1,2.216,0,.684.684,0,0,0,.345.6c1.526,1.041,3.058,2.068,4.564,3.152a2.73,2.73,0,0,0,1.767.571c1.393-.048,1.209-.1,1.212,1.5q.009,3.97,0,7.94c0,.7-.057.77-.629.77h-12.25c-.044,0-.087,0-.131,0-.27.018-.478-.1-.476-.466s.23-.458.489-.455c.189,0,.378,0,.567,0h11.662v-8.331H626.985Zm13.292-9.342.024-.1c-1.4-.965-2.8-1.934-4.211-2.885-.084-.056-.245.007-.35.068a1.042,1.042,0,0,1-1.049.022.6.6,0,0,0-.539.025c-1.073.712-2.132,1.455-3.2,2.189-.284.2-.567.394-.85.591l.025.089Zm-4.552-4.178c-.249-.194-.4-.406-.526-.384s-.238.27-.355.419c.13.152.248.394.394.426C635.348,167.463,635.495,167.211,635.726,166.979Z" transform="translate(0 0)" fill="#fff"/>
        <path id="Path_32530" data-name="Path 32530" d="M661.081,304.193c-.184-.327-.364-.508-.361-.684,0-.149.218-.4.343-.4s.35.238.358.385C661.43,303.667,661.255,303.857,661.081,304.193Z" transform="translate(-31.492 -122.563)" fill="#fff"/>
        <g id="Group_17937" data-name="Group 17937" transform="translate(629.207 174.272)">
          <path id="Path_32531" data-name="Path 32531" d="M651,245.653v-4.421h2.974v.748H651.81v.98h2.013v.745H651.81v1.2h2.241v.745Z" transform="translate(-651 -241.157)" fill="#fff"/>
          <path id="Path_32532" data-name="Path 32532" d="M698.546,241.232h1.48a2.635,2.635,0,0,1,.763.085,1.328,1.328,0,0,1,.6.407,1.984,1.984,0,0,1,.383.716,3.578,3.578,0,0,1,.131,1.045,3.184,3.184,0,0,1-.123.941,1.994,1.994,0,0,1-.43.781,1.4,1.4,0,0,1-.569.353,2.235,2.235,0,0,1-.717.094h-1.524Zm.81.748v2.928h.6a2,2,0,0,0,.49-.042.724.724,0,0,0,.327-.184.964.964,0,0,0,.212-.427,3.16,3.16,0,0,0,.082-.81,2.893,2.893,0,0,0-.082-.787,1.036,1.036,0,0,0-.23-.428.747.747,0,0,0-.375-.208,3.341,3.341,0,0,0-.665-.042Z" transform="translate(-694.812 -241.157)" fill="#fff"/>
          <path id="Path_32533" data-name="Path 32533" d="M749.785,245.653v-4.421h.81v4.421Z" transform="translate(-742.027 -241.157)" fill="#fff"/>
          <path id="Path_32534" data-name="Path 32534" d="M767.305,243.515l.788-.084a1.1,1.1,0,0,0,.289.642.82.82,0,0,0,.587.205.844.844,0,0,0,.59-.182.563.563,0,0,0,.2-.427.429.429,0,0,0-.083-.267.66.66,0,0,0-.291-.191q-.142-.054-.648-.193a2.105,2.105,0,0,1-.914-.437,1.2,1.2,0,0,1-.369-.889,1.22,1.22,0,0,1,.174-.632,1.117,1.117,0,0,1,.5-.448,1.841,1.841,0,0,1,.789-.154,1.587,1.587,0,0,1,1.137.365,1.347,1.347,0,0,1,.4.974l-.81.039a.786.786,0,0,0-.223-.49.761.761,0,0,0-.513-.149.862.862,0,0,0-.553.16.333.333,0,0,0-.129.274.353.353,0,0,0,.12.268,2.013,2.013,0,0,0,.744.3,3.686,3.686,0,0,1,.874.318,1.177,1.177,0,0,1,.443.449,1.421,1.421,0,0,1,.16.7,1.4,1.4,0,0,1-.191.712,1.181,1.181,0,0,1-.542.493,2.084,2.084,0,0,1-.873.161,1.63,1.63,0,0,1-1.168-.387A1.756,1.756,0,0,1,767.305,243.515Z" transform="translate(-758.171 -240.458)" fill="#fff"/>
        </g>
      </g>
      <rect id="Rectangle_3427" data-name="Rectangle 3427" width="24" height="24" transform="translate(111 437)" fill="none"/>
    </g>
  </g>
</svg>
