<svg xmlns="http://www.w3.org/2000/svg" width="16" height="16" viewBox="0 0 16 16">
  <g id="watchlist_edit" transform="translate(-7.684 -6.775)">
    <path id="Path_32375" data-name="Path 32375" d="M22.064,7.35a1.964,1.964,0,0,0-2.777,0L9.184,17.411a.345.345,0,0,0-.079.1.019.019,0,0,1-.02.02c-.02.039-.039.059-.039.1v.02L7.707,22.009a.634.634,0,0,0,.138.59.567.567,0,0,0,.414.177.546.546,0,0,0,.177-.02l4.352-1.336h.02c.039-.02.079-.02.1-.039a.019.019,0,0,0,.02-.02.2.2,0,0,0,.1-.079L23.108,11.221a1.954,1.954,0,0,0,0-2.771ZM9.164,21.282l.729-2.338,1.635,1.631ZM12.631,20l-2.186-2.161,7.641-7.624L20.272,12.4Zm9.65-9.648L21.1,11.535,18.933,9.374l1.182-1.179a.786.786,0,0,1,1.123,0L22.3,9.256A.776.776,0,0,1,22.281,10.356Z" transform="translate(0 0)" fill="#999"/>
  </g>
</svg>
