<svg xmlns="http://www.w3.org/2000/svg" width="111" height="104.898" viewBox="0 0 111 104.898">
  <g id="empty_watchlist_illustration" transform="translate(-132 -309)">
    <path id="Path_32464" data-name="Path 32464" d="M182.966,418.3l-11.618.287a1.573,1.573,0,0,0-1.53,1.153l-.987,3.57a1.611,1.611,0,0,1-1.553,1.181H157.5a1.6,1.6,0,0,0-1.07.406c-1.846,1.647-7.957,8.073.034,14.991a1.579,1.579,0,0,0,1.035.377h12.685s5.483.15,5.483,4.757v8.8a1.6,1.6,0,0,1-.666,1.307c-.946.67-3.225,1.418-8.711.913a1.5,1.5,0,0,0-.162-.007l-13.657.172s-3.26-.233-2.2,11.189a1.444,1.444,0,0,1-.063.637c-.132.351-.088,1.184,2.37,2.236.2.084.406.169.633.255a1.6,1.6,0,0,0,.565.1h4.835a1.62,1.62,0,0,1,1.61,1.549,4.462,4.462,0,0,0,.757,2.675,1.528,1.528,0,0,0,1.174.508h33.57a1.588,1.588,0,0,0,.447-.063c1.053-.3,4.954-1.836,1.264-7.06a1.644,1.644,0,0,1-.3-.822l-.027-.345a1.612,1.612,0,0,1,1.635-1.734l30.364.533a1.611,1.611,0,0,1,1.583,1.611h0a1.61,1.61,0,0,0,1.575,1.61l15.556.343a1.6,1.6,0,0,0,1.133-.431c1.451-1.373,5.121-5.873.009-12.684a1.616,1.616,0,0,0-1.347-.645l-10.257.353a1.573,1.573,0,0,1-.8-.182c-.982-.525-3.2-2.273-2.354-7.108a1.554,1.554,0,0,0,.022-.355c-.065-1.135-.167-7.756,6.321-8.116l9.712-.094a1.6,1.6,0,0,0,1.162-.512c1.4-1.525,4.888-6.361.024-12.6a1.612,1.612,0,0,0-1.331-.618l-9.464.357a1.525,1.525,0,0,0-.22.026c-.53.1-2.979.38-3.064-2.63a1.538,1.538,0,0,1,.02-.285c.136-.834.663-5.617-5.144-5.334Z" transform="translate(-10.936 -66.198)" fill="#051222"/>
    <path id="Path_32465" data-name="Path 32465" d="M302.563,314.127a2.563,2.563,0,1,1,2.563-2.563A2.566,2.566,0,0,1,302.563,314.127Zm0-4.338a1.775,1.775,0,1,0,1.775,1.775A1.777,1.777,0,0,0,302.563,309.789Z" transform="translate(-101.748)" fill="#bababa"/>
    <path id="Path_32466" data-name="Path 32466" d="M293.563,567.127a2.563,2.563,0,1,1,2.563-2.563A2.566,2.566,0,0,1,293.563,567.127Zm0-4.338a1.775,1.775,0,1,0,1.775,1.775A1.777,1.777,0,0,0,293.563,562.789Z" transform="translate(-96.298 -153.228)" fill="#7eb666"/>
    <g id="Group_8677" data-name="Group 8677" transform="translate(138.185 338.276)">
      <g id="close" transform="translate(0 0)">
        <g id="Group_583" data-name="Group 583">
          <g id="Group_582" data-name="Group 582">
            <g id="Group_15017" data-name="Group 15017">
              <path id="Path_1601" data-name="Path 1601" d="M149.254,384.8a.21.21,0,0,1,.306,0l0,0,4.983,5.213a.237.237,0,0,1,0,.324.213.213,0,0,1-.31,0l-4.983-5.213a.234.234,0,0,1,0-.321Z" transform="translate(-148.596 -384.145)" fill="#b8a6d1"/>
              <path id="Path_32467" data-name="Path 32467" d="M153.481,390.091a.81.81,0,0,1-.582-.25l-4.983-5.213a.822.822,0,0,1-.007-1.134l0,0a.809.809,0,0,1,.579-.255h.007a.806.806,0,0,1,.576.244l.019.019,4.971,5.2a.825.825,0,0,1,0,1.142A.811.811,0,0,1,153.481,390.091Zm-4.714-6.284,0,0Z" transform="translate(-147.685 -383.237)" fill="#b8a6d1"/>
            </g>
          </g>
        </g>
        <g id="Group_585" data-name="Group 585" transform="translate(0.001 0.013)">
          <g id="Group_584" data-name="Group 584">
            <g id="Group_15018" data-name="Group 15018">
              <path id="Path_1602" data-name="Path 1602" d="M149.255,390.018l4.983-5.213a.212.212,0,0,1,.31,0,.237.237,0,0,1,0,.324l-4.983,5.213a.213.213,0,0,1-.31,0A.236.236,0,0,1,149.255,390.018Z" transform="translate(-148.598 -384.159)" fill="#b8a6d1"/>
              <path id="Path_32468" data-name="Path 32468" d="M148.5,390.111a.811.811,0,0,1-.582-.25.824.824,0,0,1,0-1.141h0l4.983-5.212a.815.815,0,0,1,1.165,1.141l-4.983,5.212A.811.811,0,0,1,148.5,390.111Z" transform="translate(-147.688 -383.269)" fill="#b8a6d1"/>
            </g>
          </g>
        </g>
      </g>
    </g>
    <g id="Group_8677-2" data-name="Group 8677" transform="translate(156.81 310.71)">
      <g id="close-2" data-name="close" transform="translate(0)">
        <g id="Group_583-2" data-name="Group 583">
          <g id="Group_582-2" data-name="Group 582">
            <g id="Group_15019" data-name="Group 15019">
              <path id="Path_1601-2" data-name="Path 1601" d="M196.456,314.88a.13.13,0,0,1,.19,0l0,0,3.082,3.224a.146.146,0,0,1,0,.2.131.131,0,0,1-.191,0l-3.082-3.224a.145.145,0,0,1,0-.2Z" transform="translate(-195.823 -314.246)" fill="#b8a6d1"/>
              <path id="Path_32469" data-name="Path 32469" d="M198.724,318.027a.726.726,0,0,1-.524-.224l-3.082-3.224a.732.732,0,0,1-.006-1.012l.05-.049a.729.729,0,0,1,.472-.182.713.713,0,0,1,.524.219l.03.031,3.059,3.2a.735.735,0,0,1,0,1.018A.725.725,0,0,1,198.724,318.027Z" transform="translate(-194.912 -313.336)" fill="#00862f"/>
            </g>
          </g>
        </g>
        <g id="Group_585-2" data-name="Group 585" transform="translate(0.001 0.012)">
          <g id="Group_584-2" data-name="Group 584">
            <g id="Group_15020" data-name="Group 15020">
              <path id="Path_1602-2" data-name="Path 1602" d="M196.457,318.1l3.082-3.224a.131.131,0,0,1,.191,0,.146.146,0,0,1,0,.2l-3.082,3.224a.13.13,0,0,1-.191,0A.146.146,0,0,1,196.457,318.1Z" transform="translate(-195.825 -314.258)" fill="#b8a6d1"/>
              <path id="Path_32470" data-name="Path 32470" d="M195.642,318.045a.727.727,0,0,1-.524-.224.734.734,0,0,1,0-1.017l3.082-3.224a.748.748,0,0,1,1.047,0,.734.734,0,0,1,0,1.018l-3.081,3.224A.727.727,0,0,1,195.642,318.045Zm.332-.425h0Z" transform="translate(-194.914 -313.366)" fill="#00862f"/>
            </g>
          </g>
        </g>
      </g>
    </g>
    <g id="Group_8677-3" data-name="Group 8677" transform="translate(210.226 320.621)">
      <g id="close-3" data-name="close">
        <g id="Group_583-3" data-name="Group 583" transform="translate(0 2.572)">
          <g id="Group_582-3" data-name="Group 582">
            <g id="Group_15021" data-name="Group 15021">
              <path id="Path_1601-3" data-name="Path 1601" d="M331.866,346.651a.153.153,0,0,1,.157-.16h0l5.262.118a.173.173,0,0,1,.167.167.155.155,0,0,1-.16.16l-5.262-.119a.171.171,0,0,1-.167-.164Z" transform="translate(-331.274 -345.899)" fill="#b8a6d1"/>
              <path id="Path_32471" data-name="Path 32471" d="M336.391,346.62h-.017l-5.262-.118a.758.758,0,0,1-.745-.738l.591-.021-.591.021a.745.745,0,0,1,.746-.772h.042l5.238.118a.762.762,0,0,1,.745.743.746.746,0,0,1-.747.767Z" transform="translate(-330.366 -344.991)" fill="#00862f"/>
            </g>
          </g>
        </g>
        <g id="Group_585-3" data-name="Group 585" transform="translate(2.572)">
          <g id="Group_584-3" data-name="Group 584">
            <g id="Group_15022" data-name="Group 15022">
              <path id="Path_1602-3" data-name="Path 1602" d="M338.506,345.392l-.118-5.262a.155.155,0,0,1,.16-.16.173.173,0,0,1,.167.167l.118,5.262a.155.155,0,0,1-.16.16A.173.173,0,0,1,338.506,345.392Z" transform="translate(-337.796 -339.378)" fill="#b8a6d1"/>
              <path id="Path_32472" data-name="Path 32472" d="M337.768,345.241h-.016a.763.763,0,0,1-.746-.743v0l-.118-5.262a.753.753,0,0,1,.219-.547.73.73,0,0,1,.546-.218.761.761,0,0,1,.745.746l.118,5.262a.747.747,0,0,1-.749.765Zm-.553-6h0Z" transform="translate(-336.888 -338.468)" fill="#00862f"/>
            </g>
          </g>
        </g>
      </g>
    </g>
    <path id="Path_32473" data-name="Path 32473" d="M202.352,371.7a3.352,3.352,0,1,1,3.352-3.352A3.356,3.356,0,0,1,202.352,371.7Zm0-5.521a2.169,2.169,0,1,0,2.169,2.169A2.171,2.171,0,0,0,202.352,366.183Z" transform="translate(-40.578 -33.916)" fill="#ef6f08"/>
    <path id="Path_32474" data-name="Path 32474" d="M133.972,333.944a1.972,1.972,0,1,1,1.972-1.972A1.974,1.974,0,0,1,133.972,333.944Zm0-2.76a.789.789,0,1,0,.789.789A.79.79,0,0,0,133.972,331.183Z" transform="translate(0 -12.719)" fill="#bccbd9"/>
    <g id="Group_15023" data-name="Group 15023" transform="translate(169.069 332.661)">
      <path id="Path_32475" data-name="Path 32475" d="M262.224,370.5H227.5v69.8l49.689-.1v-55.3Z" transform="translate(-226.908 -369.908)" fill="#05182f"/>
      <path id="Path_32476" data-name="Path 32476" d="M226,439.985V369h35.554l15.318,14.747v56.138Zm1.183-69.8V438.8l48.506-.095V384.25l-14.612-14.067Z" transform="translate(-226 -369)" fill="#0f2648"/>
    </g>
    <g id="Group_15024" data-name="Group 15024" transform="translate(204.561 333.056)">
      <path id="Path_32477" data-name="Path 32477" d="M316,370v13.8l15.141.4Z" transform="translate(-316 -370)" fill="#466891"/>
      <path id="Path_32478" data-name="Path 32478" d="M317.183,372.731l10.881,10.2-10.881-.285v-9.918M316,370v13.8l15.141.4L316,370Z" transform="translate(-316 -370)" fill="#0f2648"/>
    </g>
    <g id="Group_8677-4" data-name="Group 8677" transform="translate(228.018 337.529)">
      <g id="close-4" data-name="close">
        <g id="Group_583-4" data-name="Group 583" transform="translate(0 0)">
          <g id="Group_582-4" data-name="Group 582">
            <g id="Group_15025" data-name="Group 15025">
              <path id="Path_1601-4" data-name="Path 1601" d="M376.508,384.533a.093.093,0,0,1,0-.127l1.965-2.055a.083.083,0,0,1,.122,0,.092.092,0,0,1,0,.127l-1.964,2.055h0a.083.083,0,0,1-.121,0Z" transform="translate(-376.088 -381.938)" fill="#b8a6d1"/>
              <path id="Path_32479" data-name="Path 32479" d="M375.963,384.361h-.006a.48.48,0,0,1-.344-.153h0a.485.485,0,0,1,.007-.672l1.962-2.051a.493.493,0,0,1,.692,0,.484.484,0,0,1,0,.673l-1.964,2.054A.483.483,0,0,1,375.963,384.361Zm.229-.281,0,0Zm1.961-2.051h0Zm-.449-.417v0Z" transform="translate(-375.482 -381.344)" fill="#b8a6d1"/>
            </g>
          </g>
        </g>
        <g id="Group_585-4" data-name="Group 585" transform="translate(0)">
          <g id="Group_584-4" data-name="Group 584">
            <g id="Group_15026" data-name="Group 15026">
              <path id="Path_1602-4" data-name="Path 1602" d="M376.509,382.352a.083.083,0,0,1,.122,0l1.964,2.055a.093.093,0,0,1,0,.128.084.084,0,0,1-.122,0l-1.965-2.055A.093.093,0,0,1,376.509,382.352Z" transform="translate(-376.089 -381.938)" fill="#b8a6d1"/>
              <path id="Path_32480" data-name="Path 32480" d="M377.928,384.36a.48.48,0,0,1-.347-.149l-1.964-2.054a.485.485,0,0,1,0-.674.494.494,0,0,1,.692,0l1.964,2.054a.485.485,0,0,1,0,.674A.48.48,0,0,1,377.928,384.36Zm.223-.694h0Zm-2.412-1.637h0Zm.448-.418h0Z" transform="translate(-375.482 -381.343)" fill="#b8a6d1"/>
            </g>
          </g>
        </g>
      </g>
    </g>
    <path id="Path_32481" data-name="Path 32481" d="M280.988,479.889a3.043,3.043,0,0,1-1.144-.215c-1.9-.759-2.113-3.213-2.122-3.317l1.572-.129c0,.016.168,1.6,1.141,1.984.6.237,2.057.226,5.118-2.507l.079-.07.095-.047a4.665,4.665,0,0,1,3.518-.125,6.014,6.014,0,0,1,3.243,3.735l-1.471.568a4.564,4.564,0,0,0-2.324-2.826,3.088,3.088,0,0,0-2.185.026C284.3,478.923,282.475,479.889,280.988,479.889Z" transform="translate(-88.257 -100.642)" fill="#466891"/>
    <circle id="Ellipse_571" data-name="Ellipse 571" cx="2" cy="2" r="2" transform="translate(186 363.898)" fill="#466891"/>
    <circle id="Ellipse_572" data-name="Ellipse 572" cx="2" cy="2" r="2" transform="translate(202 363.898)" fill="#466891"/>
  </g>
</svg>
