<svg xmlns="http://www.w3.org/2000/svg" width="17.998" height="18.001" viewBox="0 0 17.998 18.001">
  <path id="Intersection_1" data-name="Intersection 1" d="M-5080.394,15155a.57.57,0,0,1-.57-.57.573.573,0,0,1,.57-.574h2.442l-3.8-3.8a.579.579,0,0,1,0-.811.573.573,0,0,1,.81,0l3.8,3.8v-2.437a.573.573,0,0,1,.574-.57.57.57,0,0,1,.57.57v3.092a1.3,1.3,0,0,1-1.3,1.3Zm-12.308,0a1.3,1.3,0,0,1-1.3-1.3v-3.092a.57.57,0,0,1,.57-.57.57.57,0,0,1,.571.57v2.438l3.8-3.8a.569.569,0,0,1,.807,0,.573.573,0,0,1,0,.811l-3.8,3.8h2.438a.576.576,0,0,1,.574.574.573.573,0,0,1-.574.57Zm11.064-12.364a.575.575,0,0,1,0-.807l3.686-3.686h-2.442a.57.57,0,0,1-.57-.57.572.572,0,0,1,.57-.574h3.092a1.3,1.3,0,0,1,1.3,1.3v3.092a.57.57,0,0,1-.57.57.573.573,0,0,1-.574-.57v-2.437l-3.682,3.682a.559.559,0,0,1-.4.167A.57.57,0,0,1-5081.638,15142.636Zm-7.534,0-3.686-3.682v2.438a.57.57,0,0,1-.571.57.57.57,0,0,1-.57-.57v-3.092a1.3,1.3,0,0,1,1.3-1.3h3.092a.576.576,0,0,1,.574.574.573.573,0,0,1-.574.57h-2.438l3.686,3.686a.575.575,0,0,1,0,.807.583.583,0,0,1-.407.167A.572.572,0,0,1-5089.172,15142.636Z" transform="translate(5093.999 -15136.999)" fill="#9a9fa4"/>
</svg>
