<svg xmlns="http://www.w3.org/2000/svg" width="51" height="51" viewBox="0 0 51 51">
  <g id="face_id" transform="translate(0 0.01)">
    <path id="Path_28552" data-name="Path 28552" d="M14.85,0a1.73,1.73,0,0,1,.826.62,1.319,1.319,0,0,1,.063,1.371,1.335,1.335,0,0,1-1.265.739q-2.883.009-5.766,0a5.853,5.853,0,0,0-2.154.357A5.668,5.668,0,0,0,2.786,7.85a6.567,6.567,0,0,0-.05.927c-.006,1.9,0,3.794-.006,5.691a1.363,1.363,0,0,1-1.54,1.415,1.312,1.312,0,0,1-1.1-.833c-.025-.063-.063-.131-.094-.194V7.869c.05-.294.088-.595.157-.883A8.348,8.348,0,0,1,6.479.269C6.93.144,7.406.094,7.869.006Q11.353,0,14.85,0Z" transform="translate(0 -0.004)" fill="#3977de"/>
    <path id="Path_28553" data-name="Path 28553" d="M67.292,0c.457.088.914.15,1.365.257a8.446,8.446,0,0,1,6.4,7.03,11.031,11.031,0,0,1,.1,1.365c.013,1.934.006,3.863.006,5.8a1.356,1.356,0,0,1-1.352,1.446,1.371,1.371,0,0,1-1.377-1.459c0-2,.013-4-.006-6a5.765,5.765,0,0,0-5.108-5.647,7.659,7.659,0,0,0-.927-.05c-1.9-.006-3.794,0-5.691-.006a1.363,1.363,0,0,1-1.415-1.54,1.312,1.312,0,0,1,.833-1.1c.069-.031.131-.069.2-.1C62.634,0,64.963,0,67.292,0Z" transform="translate(-24.168)" fill="#3977de"/>
    <path id="Path_28554" data-name="Path 28554" d="M0,60.3a1.771,1.771,0,0,1,.62-.826A1.315,1.315,0,0,1,2,59.419a1.329,1.329,0,0,1,.739,1.246c.006,1.934.006,3.863,0,5.8a5.756,5.756,0,0,0,.419,2.3,5.669,5.669,0,0,0,4.7,3.612,6.924,6.924,0,0,0,.952.05c1.891.006,3.775,0,5.666.006a1.389,1.389,0,0,1,1.39,1.02,1.358,1.358,0,0,1-1.277,1.709c-2.122.006-4.245.063-6.367-.013a8.459,8.459,0,0,1-8-6.667c-.088-.394-.144-.8-.213-1.189Z" transform="translate(0 -24.194)" fill="#3977de"/>
    <path id="Path_28555" data-name="Path 28555" d="M75.149,63.816c0,.983.006,1.966,0,2.949a8.5,8.5,0,0,1-6.642,8.176,9.955,9.955,0,0,1-1.972.213c-1.947.025-3.9.013-5.847.013a1.366,1.366,0,1,1,0-2.73c1.966-.006,3.931.013,5.9-.006a5.673,5.673,0,0,0,4.739-2.41,5.468,5.468,0,0,0,1.089-3.23c.019-2.028.006-4.057.013-6.079a1.382,1.382,0,0,1,1.02-1.39,1.364,1.364,0,0,1,1.715,1.271c0,1.064-.013,2.147-.013,3.224Z" transform="translate(-24.161 -24.202)" fill="#3977de"/>
    <path id="Path_28556" data-name="Path 28556" d="M36.5,64.735a13.423,13.423,0,0,1-9.272-3.6,1.373,1.373,0,0,1-.463-1.421,1.317,1.317,0,0,1,.952-1,1.488,1.488,0,0,1,1.409.351,18.809,18.809,0,0,0,2.085,1.515A10.2,10.2,0,0,0,36.559,61.9,10.387,10.387,0,0,0,43.8,59.1a1.426,1.426,0,0,1,1.421-.394,1.39,1.39,0,0,1,.563,2.373,12.914,12.914,0,0,1-5.747,3.18,12.711,12.711,0,0,1-1.515.3C37.861,64.647,37.179,64.678,36.5,64.735Z" transform="translate(-10.989 -23.526)" fill="#3977de"/>
    <path id="Path_28557" data-name="Path 28557" d="M43.167,36.075c0,1.6.013,3.205-.006,4.808a3.542,3.542,0,0,1-1.8,3.218,3.624,3.624,0,0,1-1.646.47,12.17,12.17,0,0,1-1.265.006,1.4,1.4,0,0,1,.044-2.792c.394-.013.8,0,1.189-.038a.676.676,0,0,0,.664-.639,2.833,2.833,0,0,0,.031-.463V31.1a1.4,1.4,0,0,1,.952-1.34,1.369,1.369,0,0,1,1.546.476,1.407,1.407,0,0,1,.294.889Q43.167,33.608,43.167,36.075Z" transform="translate(-14.872 -12.097)" fill="#3977de"/>
    <path id="Path_28558" data-name="Path 28558" d="M25.676,33.019c0,.626.013,1.258,0,1.884a1.329,1.329,0,1,1-2.654.025q-.028-1.925,0-3.85a1.4,1.4,0,0,1,1.008-1.352A1.363,1.363,0,0,1,25.682,31.1v.05C25.676,31.779,25.676,32.4,25.676,33.019Z" transform="translate(-9.176 -11.919)" fill="#3977de"/>
    <path id="Path_28559" data-name="Path 28559" d="M60.569,33.031c0,.639.006,1.277,0,1.916a1.362,1.362,0,0,1-1.528,1.371,1.379,1.379,0,0,1-1.1-1.127,2.633,2.633,0,0,1-.031-.388c0-1.189-.006-2.379,0-3.568a1.446,1.446,0,0,1,.983-1.484,1.357,1.357,0,0,1,1.678,1.34v1.941Z" transform="translate(-23.095 -11.926)" fill="#3977de"/>
  </g>
</svg>
