<svg xmlns="http://www.w3.org/2000/svg" width="89" height="88.999" viewBox="0 0 89 88.999">
  <g id="fingerprint_with_circle_" data-name="fingerprint_with_circle " transform="translate(2481 1346)">
    <path id="Subtraction_4" data-name="Subtraction 4" d="M2326.5,1428a44.36,44.36,0,1,1,17.321-3.5A44.222,44.222,0,0,1,2326.5,1428Zm-.037-44.676h0a5.906,5.906,0,0,0-4.219,1.789,6.684,6.684,0,0,0-1.866,4.374,15.345,15.345,0,0,0,2.1,7.827,15.537,15.537,0,0,0,3.817,4.471,17,17,0,0,0,5.581,2.913,1.023,1.023,0,0,0,.313.049,1.066,1.066,0,0,0,1.021-.771,1.1,1.1,0,0,0-.706-1.358,13.837,13.837,0,0,1-8.185-6.4,13.273,13.273,0,0,1-1.812-6.622,4.092,4.092,0,0,1,3.965-4.1,4.017,4.017,0,0,1,3.963,4.046c0,.022,0,.045,0,.067v.008c0,.02,0,.04,0,.06a6.211,6.211,0,0,0,1.875,4.2,5.981,5.981,0,0,0,4.219,1.728,6.173,6.173,0,0,0,6.092-6.218,16.409,16.409,0,0,0-4.584-11.35,15.969,15.969,0,0,0-11.494-4.9,16.123,16.123,0,0,0-7,1.6,15.8,15.8,0,0,0-5.735,4.707,16.324,16.324,0,0,0-3.068,7.972,24.483,24.483,0,0,0,1.1,10,1.057,1.057,0,0,0,1.332.715,1.1,1.1,0,0,0,.7-1.363,22.4,22.4,0,0,1-1.034-9,14.2,14.2,0,0,1,2.664-7.014,13.86,13.86,0,0,1,21.008-1.2,14.125,14.125,0,0,1,2.923,4.489,13.963,13.963,0,0,1,1.054,5.341c0,.041,0,.083,0,.125a3.97,3.97,0,0,1-3.97,3.906h-.062a3.974,3.974,0,0,1-3.906-4.031c0-.022,0-.045,0-.067s0-.045,0-.068a6.136,6.136,0,0,0-6.085-5.933Zm.113-5.157a11.008,11.008,0,0,0-5.753,1.659c-4.143,2.506-5.961,7-5.12,12.657.664,4.467,2.992,9.109,5.792,11.552a1.051,1.051,0,0,0,1.5-.121,1.1,1.1,0,0,0-.12-1.531c-2.4-2.1-4.487-6.3-5.071-10.226a12.227,12.227,0,0,1,.489-6.171,8.454,8.454,0,0,1,3.612-4.289,8.935,8.935,0,0,1,4.668-1.349,8.6,8.6,0,0,1,6.155,2.632,9.443,9.443,0,0,1,2.643,6.691v.067a1.06,1.06,0,0,0,1.063,1.03h.035a1.062,1.062,0,0,0,1.03-1.1,11.67,11.67,0,0,0-3.287-8.249,10.88,10.88,0,0,0-3.484-2.394,10.4,10.4,0,0,0-4.156-.861Zm-.07,10.108a1.066,1.066,0,0,0-1.065,1.053,11.839,11.839,0,0,0,3.771,8.719,10.639,10.639,0,0,0,6.623,2.325c.166,0,.334,0,.517-.013a19.113,19.113,0,0,0,2.289-.145,1.087,1.087,0,0,0,.93-1.208,1.07,1.07,0,0,0-1.056-.957,1.181,1.181,0,0,0-.127.007,16.956,16.956,0,0,1-2.044.13c-.161.009-.325.014-.486.014a8.6,8.6,0,0,1-5.27-1.814,9.647,9.647,0,0,1-3.019-6.993,1.082,1.082,0,0,0-1.031-1.12Zm-.245-20.156a19.913,19.913,0,0,0-9.461,2.4,21.578,21.578,0,0,0-7.614,7.039,1.094,1.094,0,0,0,.275,1.509,1.034,1.034,0,0,0,.6.192,1.059,1.059,0,0,0,.875-.474,19.48,19.48,0,0,1,6.844-6.342,17.847,17.847,0,0,1,8.482-2.154h.094c.286,0,.573.006.854.019a19.253,19.253,0,0,1,8.5,2.426,17.823,17.823,0,0,1,6.312,5.923l.017.027a1.049,1.049,0,0,0,1.453.3,1.1,1.1,0,0,0,.315-1.5,19.994,19.994,0,0,0-7.047-6.634,21.376,21.376,0,0,0-9.453-2.706c-.32-.014-.638-.021-.945-.021Zm.178-5.119a21.886,21.886,0,0,0-11.75,3.414,1.093,1.093,0,0,0-.319,1.5,1.049,1.049,0,0,0,.9.5h.006a1.052,1.052,0,0,0,.566-.176,19.762,19.762,0,0,1,10.585-3.07h.372a19.426,19.426,0,0,1,10.487,3.066l.026.015a1.047,1.047,0,0,0,1.446-.333,1.094,1.094,0,0,0-.312-1.5,21.538,21.538,0,0,0-11.652-3.417h-.353Z" transform="translate(-4763 -2685)" fill="#3977de"/>
  </g>
</svg>
