<svg xmlns="http://www.w3.org/2000/svg" width="54" height="58" viewBox="0 0 54 58">
    <path id="Path_32297" data-name="Path 32297"
        d="M146.152,136.384a1.928,1.928,0,1,1,3.73-.975,42.225,42.225,0,0,1,.225,17.062,1.927,1.927,0,1,1-3.79-.7A38.288,38.288,0,0,0,146.152,136.384Zm-20,8a1.931,1.931,0,1,1-3.744.944,33.508,33.508,0,0,1,.542-17.761,1.929,1.929,0,1,1,3.669,1.194A29.818,29.818,0,0,0,126.153,144.388Zm3.059-21.5c-1.309,2.219-4.6.173-3.291-2.044,5.7-9.653,16.135-15.218,27.091-13.126a24.566,24.566,0,0,1,4.43,1.287c2.362.937.974,4.624-1.39,3.686a20.759,20.759,0,0,0-3.734-1.085C142.955,109.822,134.07,114.667,129.212,122.892Zm31.914-7.352c-2.055-1.528.209-4.734,2.265-3.206a29.367,29.367,0,0,1,8.856,10.917c1.732,3.625,3.562,10.256,3.164,14.268a1.933,1.933,0,1,1-3.857-.176,28.843,28.843,0,0,0-2.766-12.357A25.415,25.415,0,0,0,161.127,115.54Zm5.167,41.8a1.927,1.927,0,1,1-3.79-.7,91.7,91.7,0,0,0,1.511-13.451,1.925,1.925,0,1,1,3.85.093A95.1,95.1,0,0,1,166.294,157.336Zm1.137-22.1a1.926,1.926,0,1,1-3.8.6,18.234,18.234,0,0,0-6.185-11.737,13.227,13.227,0,0,0-6.867-3.325,15,15,0,0,0-8.013.869c-2.365.948-3.767-2.739-1.405-3.686a18.762,18.762,0,0,1,10.037-1.085,17.038,17.038,0,0,1,8.845,4.3,22.084,22.084,0,0,1,7.392,14.061Zm-32.736-12.814c1.728-1.895,4.536.8,2.808,2.695-3.526,3.863-4.223,8.26-3.229,13.329,1.081,5.514.926,14.185-4.077,17.769-2.073,1.486-4.277-1.753-2.2-3.237,3.492-2.5,3.245-9.992,2.507-13.758C129.238,132.783,130.246,127.294,134.695,122.419Zm3.289,37.533c-1.728,1.906-4.552-.79-2.824-2.695,4.1-4.568,4.676-11.138,3.42-16.946-1.831-8.465,1.823-16.069,10.8-15.088a12.328,12.328,0,0,1,7.481,3.909c1.8,1.844-.936,4.647-2.733,2.8a8.588,8.588,0,0,0-5.155-2.778c-6.331-.692-7.808,4.866-6.633,10.3,1.529,7.073.607,14.972-4.356,20.494Zm17.98-20.314a1.925,1.925,0,1,1,3.85-.03c.106,9.715-3.288,22.429-3.3,22.465a1.928,1.928,0,1,1-3.714-1.038C152.811,161,156.063,148.815,155.964,139.639Zm-11.006,17.749a1.931,1.931,0,1,1,3.669,1.208,30.83,30.83,0,0,1-2.366,5.688c-1.259,2.258-4.612.292-3.352-1.967A26.664,26.664,0,0,0,144.958,157.388Z"
        transform="translate(-121.466 -107.284)" fill="#ff6700" fill-rule="evenodd" />
</svg>
