<svg width="76" height="79" viewBox="0 0 76 79" fill="none" xmlns="http://www.w3.org/2000/svg">
<path d="M36.4254 54.2055L58.9437 15.708V11.3755C58.9437 6.35581 54.8195 2.28516 49.7337 2.28516H9.20995C4.12422 2.28516 0 6.35581 0 11.3755V69.5537C0 74.5734 4.12422 78.644 9.20995 78.644H49.7337C54.8195 78.644 58.9437 74.5734 58.9437 69.5537C58.9437 44.5437 60.5021 59.5834 48.4296 67.432L43.552 70.6136C42.5813 71.2463 41.4595 71.5808 40.3083 71.5808C38.6873 71.5808 37.1198 70.91 36.0017 69.7391C34.8836 68.5647 34.3218 67.0266 34.4213 65.4085L34.7694 59.6488C34.8854 57.738 35.4583 55.8563 36.4254 54.2037V54.2055ZM11.0519 13.1936H27.6298C28.6485 13.1936 29.4718 14.0081 29.4718 15.0116C29.4718 16.0152 28.6485 16.8297 27.6298 16.8297H11.0519C10.0333 16.8297 9.20995 16.0152 9.20995 15.0116C9.20995 14.0081 10.0333 13.1936 11.0519 13.1936ZM11.0519 24.102H44.7419C45.7606 24.102 46.5839 24.9165 46.5839 25.92C46.5839 26.9236 45.7606 27.7381 44.7419 27.7381H11.0519C10.0333 27.7381 9.20995 26.9236 9.20995 25.92C9.20995 24.9165 10.0333 24.102 11.0519 24.102ZM28.293 67.7356H25.7879C25.1726 67.7356 24.5979 67.432 24.2572 66.9284L22.102 63.7468L20.9287 65.4903C20.3208 66.3502 19.3391 66.8029 18.3112 66.6829C17.3055 66.5702 16.4453 65.9248 16.0658 64.9994L14.7359 61.7214L12.7613 66.5939C12.474 67.3047 11.7814 67.7374 11.0501 67.7374C10.8217 67.7374 10.5914 67.6956 10.3667 67.6065C9.42178 67.2338 8.96128 66.1757 9.33889 65.243L11.3098 60.3706C11.8827 58.978 13.2236 58.0817 14.7322 58.0817C16.2408 58.0817 17.5836 58.978 18.151 60.3633L18.8288 62.036L19.037 61.7287C19.7019 60.716 20.8513 60.0997 22.0984 60.0997C23.3454 60.0997 24.4948 60.7142 25.1726 61.7469L26.766 64.0995H28.2874C29.3061 64.0995 30.1294 64.914 30.1294 65.9175C30.1294 66.9211 29.3061 67.7356 28.2874 67.7356H28.293ZM31.9769 49.5549H11.0519C10.0333 49.5549 9.20995 48.7404 9.20995 47.7369C9.20995 46.7333 10.0333 45.9188 11.0519 45.9188H31.9769C32.9956 45.9188 33.8189 46.7333 33.8189 47.7369C33.8189 48.7404 32.9956 49.5549 31.9769 49.5549ZM11.0519 38.6465C10.0333 38.6465 9.20995 37.832 9.20995 36.8284C9.20995 35.8249 10.0333 35.0104 11.0519 35.0104H38.3502C39.3689 35.0104 40.1922 35.8249 40.1922 36.8284C40.1922 37.832 39.3689 38.6465 38.3502 38.6465H11.0519Z" fill="#98AFC9"/>
<path d="M8.03809 10.3223H36.1703L51.576 23.0487L36.1703 50.5111H8.03809V10.3223Z" fill="#98AFC9"/>
<path d="M8.03809 53.8604L33.491 57.8792L32.1514 66.5868L25.4533 69.2661H8.03809V53.8604Z" fill="#007AE0"/>
<path d="M37.7647 52.8657L60.283 14.3681V10.0357C60.283 5.01597 56.1588 0.945312 51.0731 0.945312H10.5493C5.46357 0.945312 1.33936 5.01597 1.33936 10.0357V68.2138C1.33936 73.2335 5.46357 77.3042 10.5493 77.3042H51.0731C56.1588 77.3042 60.283 73.2335 60.283 68.2138V50.7331L53.7182 61.9579C52.7475 63.6141 51.3825 65.0431 49.769 66.0921L44.8914 69.2738C43.9206 69.9064 42.7989 70.241 41.6476 70.241C40.0267 70.241 38.4591 69.5701 37.341 68.3993C36.223 67.2248 35.6612 65.6867 35.7606 64.0686L36.1088 58.309C36.2248 56.3982 36.7977 54.5165 37.7647 52.8639V52.8657ZM12.3913 11.8537H28.9692C29.9878 11.8537 30.8112 12.6682 30.8112 13.6718C30.8112 14.6754 29.9878 15.4899 28.9692 15.4899H12.3913C11.3727 15.4899 10.5493 14.6754 10.5493 13.6718C10.5493 12.6682 11.3727 11.8537 12.3913 11.8537ZM12.3913 22.7621H46.0813C47.0999 22.7621 47.9233 23.5766 47.9233 24.5802C47.9233 25.5838 47.0999 26.3983 46.0813 26.3983H12.3913C11.3727 26.3983 10.5493 25.5838 10.5493 24.5802C10.5493 23.5766 11.3727 22.7621 12.3913 22.7621ZM29.6323 66.3958H27.1272C26.512 66.3958 25.9373 66.0921 25.5965 65.5885L23.4414 62.4069L22.268 64.1504C21.6602 65.0104 20.6784 65.4631 19.6506 65.3431C18.6448 65.2304 17.7846 64.585 17.4052 63.6596L16.0753 60.3816L14.1007 65.254C13.8133 65.9649 13.1207 66.3976 12.3895 66.3976C12.161 66.3976 11.9308 66.3558 11.7061 66.2667C10.7611 65.894 10.3006 64.8359 10.6782 63.9032L12.6492 59.0308C13.222 57.6381 14.563 56.7418 16.0716 56.7418C17.5802 56.7418 18.923 57.6381 19.4903 59.0235L20.1682 60.6961L20.3763 60.3889C21.0413 59.3762 22.1907 58.7599 23.4377 58.7599C24.6847 58.7599 25.8341 59.3744 26.512 60.407L28.1053 62.7596H29.6268C30.6454 62.7596 31.4688 63.5741 31.4688 64.5777C31.4688 65.5813 30.6454 66.3958 29.6268 66.3958H29.6323ZM33.3163 48.2151H12.3913C11.3727 48.2151 10.5493 47.4006 10.5493 46.397C10.5493 45.3934 11.3727 44.5789 12.3913 44.5789H33.3163C34.3349 44.5789 35.1583 45.3934 35.1583 46.397C35.1583 47.4006 34.3349 48.2151 33.3163 48.2151ZM12.3913 37.3067C11.3727 37.3067 10.5493 36.4922 10.5493 35.4886C10.5493 34.485 11.3727 33.6705 12.3913 33.6705H39.6896C40.7082 33.6705 41.5316 34.485 41.5316 35.4886C41.5316 36.4922 40.7082 37.3067 39.6896 37.3067H12.3913Z" fill="#D2E2F3"/>
<path d="M71.9328 23.7188L74.3798 19.6542C75.6957 17.4697 74.9137 14.6762 72.6373 13.4165L70.5753 12.2748C68.2969 11.0132 65.3835 11.7629 64.0696 13.9455L61.6226 18.0101L71.9328 23.7188Z" fill="#007AE0"/>
<path d="M60.5254 21.0409L41.642 54.7207C40.9863 55.8882 40.6048 57.1988 40.5275 58.5437L40.1935 64.2801C40.0898 66.0667 42.0112 67.2089 43.4614 66.2224L48.1199 63.0564C49.2133 62.3125 50.1239 61.3187 50.7778 60.1493L69.6613 26.4695L60.5272 21.0391L60.5254 21.0409Z" fill="#007AE0"/>
</svg>
