<svg width="17" height="16" viewBox="0 0 17 16" fill="none" xmlns="http://www.w3.org/2000/svg">
<path d="M8.5 16C7.40278 16 6.36806 15.7917 5.39583 15.375C4.42361 14.9583 3.57292 14.3854 2.84375 13.6562C2.11458 12.9271 1.54167 12.0764 1.125 11.1042C0.708333 10.1319 0.5 9.09722 0.5 8C0.5 6.88889 0.708333 5.85069 1.125 4.88542C1.54167 3.92014 2.11458 3.07292 2.84375 2.34375C3.57292 1.61458 4.42361 1.04167 5.39583 0.625C6.36806 0.208333 7.40278 0 8.5 0C9.61111 0 10.6493 0.208333 11.6146 0.625C12.5799 1.04167 13.4271 1.61458 14.1562 2.34375C14.8854 3.07292 15.4583 3.92014 15.875 4.88542C16.2917 5.85069 16.5 6.88889 16.5 8C16.5 9.09722 16.2917 10.1319 15.875 11.1042C15.4583 12.0764 14.8854 12.9271 14.1562 13.6562C13.4271 14.3854 12.5799 14.9583 11.6146 15.375C10.6493 15.7917 9.61111 16 8.5 16ZM8.5 14.4375C8.73611 14.2014 8.97222 13.7604 9.20833 13.1146C9.44444 12.4688 9.625 11.7639 9.75 11H7.25C7.375 11.7639 7.55556 12.4688 7.79167 13.1146C8.02778 13.7604 8.26389 14.2014 8.5 14.4375ZM6.60417 14.2292C6.40972 13.8125 6.23958 13.3333 6.09375 12.7917C5.94792 12.25 5.82639 11.6528 5.72917 11H2.75C3.15278 11.7917 3.6875 12.4688 4.35417 13.0312C5.02083 13.5938 5.77083 13.9931 6.60417 14.2292ZM10.3958 14.2292C11.2292 13.9931 11.9792 13.5938 12.6458 13.0312C13.3125 12.4688 13.8472 11.7917 14.25 11H11.2708C11.1736 11.6528 11.0521 12.25 10.9062 12.7917C10.7604 13.3333 10.5903 13.8125 10.3958 14.2292ZM2.1875 9.5H5.54167C5.51389 9.23611 5.49653 8.97569 5.48958 8.71875C5.48264 8.46181 5.47917 8.20833 5.47917 7.95833C5.47917 7.70833 5.48264 7.46181 5.48958 7.21875C5.49653 6.97569 5.51389 6.73611 5.54167 6.5H2.1875C2.11806 6.76389 2.06944 7.01736 2.04167 7.26042C2.01389 7.50347 2 7.75 2 8C2 8.25 2.01389 8.49653 2.04167 8.73958C2.06944 8.98264 2.11806 9.23611 2.1875 9.5ZM7.0625 9.5H9.9375C9.96528 9.22222 9.98264 8.96181 9.98958 8.71875C9.99653 8.47569 10 8.23611 10 8C10 7.76389 9.99653 7.52083 9.98958 7.27083C9.98264 7.02083 9.96528 6.76389 9.9375 6.5H7.0625C7.03472 6.76389 7.01736 7.02083 7.01042 7.27083C7.00347 7.52083 7 7.76389 7 8C7 8.23611 7.00347 8.47917 7.01042 8.72917C7.01736 8.97917 7.03472 9.23611 7.0625 9.5ZM11.4583 9.5H14.8125C14.8819 9.23611 14.9306 8.98264 14.9583 8.73958C14.9861 8.49653 15 8.25 15 8C15 7.75 14.9861 7.5 14.9583 7.25C14.9306 7 14.8819 6.75 14.8125 6.5H11.4583C11.4861 6.76389 11.5035 7.02431 11.5104 7.28125C11.5174 7.53819 11.5208 7.79167 11.5208 8.04167C11.5208 8.29167 11.5174 8.53819 11.5104 8.78125C11.5035 9.02431 11.4861 9.26389 11.4583 9.5ZM11.2708 5H14.25C13.8472 4.20833 13.3125 3.53125 12.6458 2.96875C11.9792 2.40625 11.2292 2.00694 10.3958 1.77083C10.5903 2.1875 10.7604 2.66667 10.9062 3.20833C11.0521 3.75 11.1736 4.34722 11.2708 5ZM7.25 5H9.75C9.625 4.23611 9.44444 3.53125 9.20833 2.88542C8.97222 2.23958 8.73611 1.79861 8.5 1.5625C8.26389 1.79861 8.02778 2.23958 7.79167 2.88542C7.55556 3.53125 7.375 4.23611 7.25 5ZM2.75 5H5.72917C5.82639 4.34722 5.94792 3.75 6.09375 3.20833C6.23958 2.66667 6.40972 2.1875 6.60417 1.77083C5.77083 2.00694 5.02083 2.40625 4.35417 2.96875C3.6875 3.53125 3.15278 4.20833 2.75 5Z" fill="#002953"/>
</svg>
