<svg width="110" height="89" viewBox="0 0 110 89" fill="none" xmlns="http://www.w3.org/2000/svg">
<g filter="url(#filter0_dddddd_6_2453)">
<path d="M80.5961 60.2475H9.12325C8.48641 60.2465 7.87586 59.9273 7.42555 59.3598C6.97523 58.7922 6.72193 58.0228 6.72119 57.2202V21.9127C6.72193 21.1101 6.97523 20.3406 7.42555 19.7731C7.87586 19.2056 8.48641 18.8863 9.12325 18.8854H80.5961C81.233 18.8863 81.8435 19.2056 82.2938 19.7731C82.7441 20.3406 82.9974 21.1101 82.9982 21.9127V57.2202C82.9974 58.0228 82.7441 58.7922 82.2938 59.3598C81.8435 59.9273 81.233 60.2465 80.5961 60.2475Z" fill="white"/>
<path d="M80.5956 59.9163H9.12373C8.60251 59.9155 8.08233 59.6547 7.68497 59.1539C7.28613 58.6512 7.05307 57.9565 7.05236 57.22V21.9128C7.05307 21.1764 7.28613 20.4816 7.68497 19.9789C8.08227 19.4782 8.60236 19.2174 9.1235 19.2166H80.5959C81.117 19.2174 81.6371 19.4782 82.0344 19.9789C82.4333 20.4816 82.6663 21.1765 82.667 21.913V57.2199C82.6663 57.9564 82.4333 58.6512 82.0344 59.1539C81.637 59.6547 81.1169 59.9155 80.5956 59.9163Z" stroke="#C4DBFF" stroke-width="0.662341"/>
</g>
<path d="M75.2884 45.9308H15.5387C15.1796 45.9308 14.8351 45.7971 14.5812 45.5592C14.3272 45.3212 14.1846 44.9985 14.1846 44.662C14.1846 44.3255 14.3272 44.0027 14.5812 43.7648C14.8351 43.5268 15.1796 43.3932 15.5387 43.3932H75.2884C75.6475 43.3932 75.9919 43.5268 76.2459 43.7648C76.4998 44.0027 76.6425 44.3255 76.6425 44.662C76.6425 44.9985 76.4998 45.3212 76.2459 45.5592C75.9919 45.7971 75.6475 45.9308 75.2884 45.9308Z" fill="#E2E8F9" fill-opacity="0.8"/>
<path d="M75.2884 52.3511H15.5387C15.1796 52.3511 14.8351 52.2174 14.5812 51.9794C14.3272 51.7415 14.1846 51.4188 14.1846 51.0823C14.1846 50.7457 14.3272 50.423 14.5812 50.1851C14.8351 49.9471 15.1796 49.8134 15.5387 49.8134H75.2884C75.6475 49.8134 75.9919 49.9471 76.2459 50.1851C76.4998 50.423 76.6425 50.7457 76.6425 51.0823C76.6425 51.4188 76.4998 51.7415 76.2459 51.9794C75.9919 52.2174 75.6475 52.3511 75.2884 52.3511Z" fill="#E2E8F9" fill-opacity="0.8"/>
<path d="M75.2884 39.5106H15.5387C15.1796 39.5106 14.8351 39.3769 14.5812 39.139C14.3272 38.901 14.1846 38.5783 14.1846 38.2418C14.1846 37.9053 14.3272 37.5825 14.5812 37.3446C14.8351 37.1066 15.1796 36.973 15.5387 36.973H75.2884C75.6475 36.973 75.9919 37.1066 76.2459 37.3446C76.4998 37.5825 76.6425 37.9053 76.6425 38.2418C76.6425 38.5783 76.4998 38.901 76.2459 39.139C75.9919 39.3769 75.6475 39.5106 75.2884 39.5106Z" fill="#E2E8F9" fill-opacity="0.8"/>
<path d="M16.9505 30.5638C16.4577 30.5638 16.0391 30.479 15.6947 30.3095C15.3556 30.1346 15.096 29.8882 14.9158 29.5703C14.7356 29.2471 14.635 28.8603 14.6138 28.4099C14.6085 28.1926 14.6058 27.9595 14.6058 27.7104C14.6058 27.4614 14.6085 27.2229 14.6138 26.9951C14.635 26.55 14.7356 26.1659 14.9158 25.8426C15.1013 25.5194 15.3635 25.273 15.7027 25.1035C16.0471 24.9286 16.463 24.8412 16.9505 24.8412C17.3108 24.8412 17.634 24.8889 17.9202 24.9842C18.2063 25.0796 18.45 25.2121 18.6514 25.3816C18.8527 25.5459 19.0091 25.7393 19.1203 25.9619C19.2316 26.1844 19.2899 26.4255 19.2952 26.6851C19.3005 26.7328 19.2846 26.7726 19.2475 26.8043C19.2157 26.8361 19.176 26.852 19.1283 26.852H18.3732C18.3149 26.852 18.2672 26.8388 18.2301 26.8123C18.1931 26.7805 18.1666 26.7302 18.1507 26.6613C18.0659 26.3116 17.9202 26.0731 17.7135 25.946C17.5069 25.8188 17.2499 25.7552 16.9426 25.7552C16.5875 25.7552 16.3041 25.8559 16.0921 26.0572C15.8802 26.2533 15.7662 26.5792 15.7503 27.0348C15.7344 27.4693 15.7344 27.9144 15.7503 28.3701C15.7662 28.8258 15.8802 29.1543 16.0921 29.3557C16.3041 29.5517 16.5875 29.6498 16.9426 29.6498C17.2499 29.6498 17.5069 29.5862 17.7135 29.459C17.9202 29.3265 18.0659 29.0881 18.1507 28.7437C18.1666 28.6695 18.1931 28.6192 18.2301 28.5927C18.2672 28.5662 18.3149 28.5529 18.3732 28.5529H19.1283C19.176 28.5529 19.2157 28.5688 19.2475 28.6006C19.2846 28.6324 19.3005 28.6721 19.2952 28.7198C19.2899 28.9795 19.2316 29.2206 19.1203 29.4431C19.0091 29.6657 18.8527 29.8617 18.6514 30.0313C18.45 30.1955 18.2063 30.3254 17.9202 30.4207C17.634 30.5161 17.3108 30.5638 16.9505 30.5638ZM20.2696 30.4843C20.2166 30.4843 20.1716 30.4658 20.1345 30.4287C20.0974 30.3916 20.0788 30.3465 20.0788 30.2936V25.1194C20.0788 25.0611 20.0974 25.0134 20.1345 24.9763C20.1716 24.9392 20.2166 24.9206 20.2696 24.9206H22.2089C22.7441 24.9206 23.1839 25.0028 23.5283 25.167C23.878 25.3313 24.1403 25.575 24.3152 25.8983C24.4953 26.2215 24.588 26.6162 24.5933 27.0825C24.6039 27.3157 24.6092 27.5223 24.6092 27.7025C24.6092 27.8826 24.6039 28.0866 24.5933 28.3145C24.5827 28.8073 24.4927 29.2153 24.3231 29.5385C24.1535 29.8564 23.8966 30.0949 23.5521 30.2538C23.213 30.4075 22.7785 30.4843 22.2487 30.4843H20.2696ZM21.1836 29.5703H22.2089C22.5056 29.5703 22.7467 29.5279 22.9322 29.4431C23.1176 29.3583 23.2528 29.2232 23.3375 29.0378C23.4276 28.847 23.4753 28.598 23.4806 28.2906C23.4859 28.1317 23.4886 27.9939 23.4886 27.8773C23.4939 27.7555 23.4939 27.6362 23.4886 27.5197C23.4886 27.3978 23.4859 27.26 23.4806 27.1064C23.47 26.6719 23.3614 26.3513 23.1547 26.1447C22.9481 25.938 22.6196 25.8347 22.1692 25.8347H21.1836V29.5703ZM27.4398 30.5638C26.947 30.5638 26.5337 30.4923 26.1998 30.3492C25.8713 30.2008 25.6196 30.0101 25.4448 29.7769C25.2752 29.5385 25.1851 29.2895 25.1745 29.0298C25.1745 28.9821 25.1904 28.9424 25.2222 28.9106C25.254 28.8788 25.2938 28.8629 25.3415 28.8629H26.0488C26.1177 28.8629 26.1681 28.8788 26.1998 28.9106C26.2369 28.9371 26.2687 28.9715 26.2952 29.0139C26.327 29.1146 26.388 29.2153 26.478 29.3159C26.5681 29.4113 26.69 29.4908 26.8436 29.5544C27.0026 29.618 27.2013 29.6498 27.4398 29.6498C27.8213 29.6498 28.1047 29.5862 28.2902 29.459C28.481 29.3318 28.5763 29.1596 28.5763 28.9424C28.5763 28.7887 28.526 28.6669 28.4253 28.5768C28.3246 28.4814 28.1683 28.3966 27.9564 28.3224C27.7497 28.243 27.4742 28.1608 27.1298 28.076C26.7324 27.9807 26.3986 27.8667 26.1283 27.7343C25.8634 27.5965 25.662 27.4243 25.5243 27.2176C25.3918 27.011 25.3256 26.7487 25.3256 26.4308C25.3256 26.1235 25.4077 25.8506 25.5719 25.6121C25.7415 25.3737 25.98 25.1856 26.2873 25.0478C26.5999 24.9101 26.9708 24.8412 27.4 24.8412C27.7444 24.8412 28.0491 24.8889 28.314 24.9842C28.579 25.0743 28.7989 25.1962 28.9737 25.3498C29.1486 25.4982 29.2811 25.6598 29.3711 25.8347C29.4665 26.0042 29.5169 26.1711 29.5222 26.3354C29.5222 26.3778 29.5063 26.4175 29.4745 26.4546C29.448 26.4864 29.4082 26.5023 29.3552 26.5023H28.6161C28.5737 26.5023 28.5313 26.4917 28.4889 26.4705C28.4465 26.4493 28.4121 26.4096 28.3856 26.3513C28.3538 26.187 28.2505 26.0466 28.0756 25.9301C27.9007 25.8135 27.6755 25.7552 27.4 25.7552C27.1139 25.7552 26.8834 25.8082 26.7085 25.9142C26.5337 26.0201 26.4462 26.1844 26.4462 26.4069C26.4462 26.5553 26.4886 26.6798 26.5734 26.7805C26.6635 26.8759 26.8039 26.9607 26.9947 27.0348C27.1907 27.109 27.4477 27.1885 27.7656 27.2733C28.216 27.374 28.5843 27.4905 28.8704 27.623C29.1565 27.7555 29.3658 27.925 29.4983 28.1317C29.6308 28.333 29.697 28.59 29.697 28.9026C29.697 29.2524 29.6016 29.5517 29.4109 29.8008C29.2254 30.0445 28.9631 30.2326 28.624 30.3651C28.2849 30.4976 27.8901 30.5638 27.4398 30.5638ZM30.6397 30.4843C30.5867 30.4843 30.5416 30.4658 30.5045 30.4287C30.4675 30.3916 30.4489 30.3465 30.4489 30.2936V25.1114C30.4489 25.0584 30.4675 25.0134 30.5045 24.9763C30.5416 24.9392 30.5867 24.9206 30.6397 24.9206H31.3788C31.4318 24.9206 31.4769 24.9392 31.514 24.9763C31.551 25.0134 31.5696 25.0584 31.5696 25.1114V29.5385H34.0891C34.1474 29.5385 34.1951 29.557 34.2322 29.5941C34.2693 29.6312 34.2878 29.6789 34.2878 29.7372V30.2936C34.2878 30.3465 34.2693 30.3916 34.2322 30.4287C34.1951 30.4658 34.1474 30.4843 34.0891 30.4843H30.6397Z" fill="#5282ED"/>
<path d="M87.4212 10.1422C87.4287 10.3453 87.4806 10.5442 87.5733 10.7251C87.666 10.9059 87.7973 11.0642 87.9577 11.1888C88.1182 11.3134 88.3041 11.4013 88.5023 11.4464C88.7004 11.4914 88.906 11.4924 89.1046 11.4494L91.6755 15.6669L92.7696 13.3451L90.1606 9.69598C90.0661 9.36716 89.8544 9.08439 89.5654 8.90127C89.2764 8.71815 88.9303 8.64738 88.5927 8.70239C88.255 8.7574 87.9493 8.93435 87.7334 9.19972C87.5175 9.46509 87.4064 9.80045 87.4212 10.1422H87.4212Z" fill="#FFB6B6"/>
<path d="M106.714 22.2294L97.8543 17.4237L95.0597 14.8019C95.0597 14.8019 93.8449 14.4766 94.292 14.0816C94.7391 13.6866 93.4649 13.3056 93.4649 13.3056L91.9647 11.8981L89.833 13.4065L90.4499 14.3628C90.4499 14.3628 90.4075 15.946 91.2748 15.6414C92.1421 15.3368 91.9253 16.6499 91.9253 16.6499L97.1021 24.6744L106.714 22.2294Z" fill="#E4F2F2"/>
<path d="M80.561 17.7017C85.3404 17.7017 89.2149 13.8272 89.2149 9.04786C89.2149 4.26849 85.3404 0.394043 80.561 0.394043C75.7817 0.394043 71.9072 4.26849 71.9072 9.04786C71.9072 13.8272 75.7817 17.7017 80.561 17.7017Z" fill="#5282ED"/>
<path d="M106.742 85.262H104.942L104.086 78.3216H106.742V85.262Z" fill="#FFB6B6"/>
<path d="M107.691 88.3796H106.401L106.17 87.1613L105.58 88.3796H102.158C101.994 88.3796 101.834 88.3272 101.702 88.23C101.57 88.1327 101.472 87.9958 101.424 87.8392C101.375 87.6826 101.377 87.5145 101.431 87.3594C101.484 87.2043 101.586 87.0704 101.721 86.9772L104.454 85.0896V83.858L107.329 84.0296L107.691 88.3796Z" fill="#2F2E41"/>
<path d="M92.35 85.262H90.5506L89.6943 78.3216H92.35V85.262Z" fill="#FFB6B6"/>
<path d="M93.3 88.3796H92.0096L91.7793 87.1613L91.1893 88.3796H87.7669C87.6029 88.3796 87.4431 88.3272 87.311 88.23C87.1788 88.1327 87.0812 87.9958 87.0324 87.8392C86.9836 87.6826 86.9861 87.5145 87.0396 87.3594C87.0931 87.2043 87.1948 87.0704 87.3298 86.9772L90.0628 85.0896V83.858L92.9375 84.0296L93.3 88.3796Z" fill="#2F2E41"/>
<path d="M104.832 32.7726H95.7505V43.112H104.832V32.7726Z" fill="#FFB6B6"/>
<path d="M95.96 37.8724L94.423 39.6888L91.7684 45.2776L85.0792 61.1932L83.6646 64.5591L84.807 70.5093C84.807 70.5093 84.9919 74.7013 84.9919 75.3875C84.9919 76.7847 86.1605 77.5589 86.1605 77.5589L87.0178 82.0242L95.3312 81.6749C95.3312 81.6749 95.0412 76.7528 93.3 75.5113C91.5588 74.2697 90.7584 67.7991 90.7584 67.7991L89.8123 64.9282L99.0338 53.997L99.0934 57.818L99.1222 59.6675C99.1222 59.6675 97.7717 71.6966 99.3459 74.031C100.92 76.3655 99.378 76.0909 99.378 76.0909L99.453 80.9065L109.303 80.9763L107.13 67.1121C107.13 67.1121 106.027 66.2409 106.617 65.3651C107.207 64.4893 106.045 63.4166 106.045 63.4166L106.566 52.5932C106.566 52.5932 105.989 50.7237 106.668 50.4807C107.347 50.2377 106.757 48.63 106.757 48.63L106.858 46.5351L104.832 40.0381L95.96 37.8724Z" fill="#8AB9FF"/>
<path d="M104.972 32.7726L105.95 29.8385L106.649 28.8605L106.928 26.066C106.928 18.5211 105.245 19.7775 105.245 19.7775L104.274 17.1239L99.8025 16.9842L96.9382 19.7087L94.5629 20.5471L93.6328 25.3801L95.3314 30.5371L95.7506 33.3315C94.951 34.8076 95.0186 34.1095 95.6807 35.2178L103.575 37.3834C106.369 38.3615 106.369 35.8465 105.809 35.2178C105.249 34.589 104.972 32.7726 104.972 32.7726Z" fill="#E4F2F2"/>
<path d="M101.46 16.0463C103.749 16.0463 105.605 14.1906 105.605 11.9014C105.605 9.6123 103.749 7.75659 101.46 7.75659C99.1711 7.75659 97.3154 9.6123 97.3154 11.9014C97.3154 14.1906 99.1711 16.0463 101.46 16.0463Z" fill="#FFB6B6"/>
<path d="M106.994 17.434C107.033 17.4999 107.056 17.5738 107.063 17.6501C107.069 17.7264 107.059 17.8032 107.031 17.8748C107.004 17.9464 106.961 18.0109 106.905 18.0635C106.85 18.1161 106.783 18.1555 106.71 18.1787C106.154 18.3632 105.812 18.9011 105.412 19.3314C105.014 19.7604 104.372 20.1167 103.864 19.8246C103.357 19.534 103.322 18.7921 102.897 18.3897C102.483 17.9985 101.796 18.046 101.31 18.3436L101.295 18.3526C101.211 18.4073 101.113 18.4362 101.013 18.4357C100.913 18.4353 100.815 18.4055 100.731 18.35C100.648 18.2945 100.583 18.2158 100.544 18.1236C100.504 18.0314 100.493 17.9297 100.511 17.8311C100.681 16.9251 100.852 16.0191 101.022 15.1133C100.575 16.1906 99.9255 17.1723 99.1092 18.0055C98.8843 18.265 98.5994 18.4655 98.2792 18.5895C97.9886 18.6817 97.7064 18.3813 97.4241 18.4358C98.1255 17.8224 100.484 13.8907 100.062 11.2625C99.566 11.3184 99.07 11.3743 98.574 11.4302C98.5203 11.1955 98.4056 10.9791 98.2415 10.8029C98.2615 11.0313 98.2325 11.2614 98.1563 11.4777C97.9495 11.5015 97.7413 11.5238 97.5345 11.5476C97.2467 11.5797 96.9337 11.6077 96.6864 11.4568C96.2742 11.2053 96.2616 10.6101 96.379 10.1406C96.7227 8.77552 97.765 7.634 99.0407 7.036C100.316 6.43939 100.694 7.76813 102.038 7.34339C104.692 6.50507 106.727 7.93861 107.443 10.5989C108.046 12.8302 107.608 15.1985 106.994 17.434Z" fill="#2F2E41"/>
<path d="M79.7748 20.6953L74.4698 16.2153C74.2885 16.0619 74.1755 15.8427 74.1555 15.606C74.1356 15.3693 74.2103 15.1343 74.3634 14.9527L75.3398 13.7965C75.4932 13.6152 75.7124 13.5021 75.9491 13.4821C76.1858 13.4622 76.4208 13.5369 76.6025 13.69L81.9074 18.17C82.0887 18.3235 82.2018 18.5426 82.2217 18.7793C82.2417 19.016 82.1669 19.251 82.0138 19.4327L81.0374 20.5889C80.884 20.7702 80.6648 20.8832 80.4281 20.9032C80.1914 20.9232 79.9564 20.8484 79.7748 20.6953Z" fill="#3F3D56"/>
<path d="M74.748 15.0459C74.6655 15.1438 74.6252 15.2704 74.636 15.398C74.6467 15.5255 74.7077 15.6436 74.8054 15.7263L80.1103 20.2063C80.2082 20.2888 80.3348 20.3291 80.4624 20.3183C80.5899 20.3076 80.708 20.2466 80.7907 20.1489L81.7671 18.9928C81.8496 18.8949 81.8899 18.7682 81.8791 18.6407C81.8684 18.5131 81.8074 18.395 81.7097 18.3123L76.4048 13.8323C76.3069 13.7499 76.1803 13.7096 76.0527 13.7203C75.9252 13.7311 75.8071 13.792 75.7244 13.8897L74.748 15.0459Z" fill="white"/>
<path d="M77.8621 16.7874C77.8437 16.8131 77.8195 16.8343 77.7915 16.8491C77.7636 16.8639 77.7325 16.8719 77.7008 16.8727L76.8673 16.8918C76.8406 16.8924 76.8139 16.8878 76.7889 16.8781C76.764 16.8684 76.7411 16.8539 76.7218 16.8354C76.7024 16.8169 76.6869 16.7948 76.6761 16.7703C76.6652 16.7457 76.6594 16.7194 76.6587 16.6926C76.6581 16.6658 76.6628 16.6392 76.6725 16.6142C76.6822 16.5892 76.6967 16.5664 76.7152 16.547C76.7337 16.5277 76.7558 16.5121 76.7803 16.5013C76.8048 16.4905 76.8312 16.4846 76.858 16.484L77.4033 16.4714L76.8663 15.0545C76.8472 15.0039 76.849 14.9479 76.8713 14.8987C76.8935 14.8495 76.9344 14.8111 76.9849 14.7919C77.0354 14.7728 77.0914 14.7745 77.1407 14.7966C77.19 14.8187 77.2285 14.8594 77.2477 14.9099L77.8869 16.5965C77.8985 16.627 77.9025 16.6598 77.8988 16.6922C77.895 16.7246 77.8836 16.7557 77.8654 16.7827L77.8621 16.7874Z" fill="#6C63FF"/>
<path d="M77.9693 17.1435C78.1704 17.173 78.3625 17.2463 78.5322 17.3581C78.7019 17.4699 78.8449 17.6175 78.9514 17.7906C79.0578 17.9637 79.125 18.1581 79.1482 18.3599C79.1714 18.5618 79.1501 18.7663 79.0857 18.959L82.9987 21.9732L80.5716 22.8085L77.2279 19.8181C76.9113 19.6884 76.6532 19.4472 76.5026 19.14C76.352 18.8329 76.3193 18.4811 76.4107 18.1514C76.5021 17.8218 76.7112 17.5371 76.9985 17.3513C77.2858 17.1655 77.6312 17.0916 77.9693 17.1435L77.9693 17.1435Z" fill="#FFB6B6"/>
<path d="M98.3412 18.6339L88.3227 24.7936C88.3227 24.7936 84.2834 23.2991 85.0728 22.6072C85.8622 21.9153 83.3491 21.4475 83.3491 21.4475L80.5729 19.5798L78.9619 21.452C78.9619 21.452 79.2554 24.4931 79.7549 23.9665C80.2543 23.44 81.0009 24.8784 81.0009 24.8784C81.0009 24.8784 81.2215 26.4846 82.6433 26.0804C84.065 25.6762 87.88 29.9129 87.88 29.9129L100.21 25.3144L98.3412 18.6339Z" fill="#E4F2F2"/>
<path d="M80.2568 12.5193C80.1406 12.5193 80.0261 12.4922 79.9222 12.4403C79.8183 12.3883 79.728 12.3129 79.6583 12.22L77.8234 9.77342C77.7645 9.69482 77.7216 9.60539 77.6972 9.51021C77.6728 9.41504 77.6675 9.316 77.6814 9.21874C77.6952 9.12149 77.7282 9.02792 77.7782 8.94338C77.8283 8.85885 77.8945 8.785 77.9731 8.72605C78.1318 8.60701 78.3314 8.5559 78.5278 8.58396C78.625 8.59786 78.7186 8.63078 78.8031 8.68084C78.8877 8.73089 78.9615 8.79711 79.0205 8.87571L80.2209 10.4762L83.3041 5.85149C83.4141 5.6864 83.5853 5.57179 83.7798 5.53287C83.9744 5.49396 84.1765 5.53393 84.3416 5.64399C84.5067 5.75406 84.6213 5.9252 84.6602 6.11977C84.6991 6.31434 84.6591 6.5164 84.5491 6.6815L80.8793 12.1861C80.8129 12.2857 80.7237 12.3678 80.619 12.4258C80.5143 12.4837 80.3972 12.5157 80.2776 12.519C80.2706 12.5192 80.2637 12.5193 80.2568 12.5193Z" fill="white"/>
<defs>
<filter id="filter0_dddddd_6_2453" x="0.0977821" y="15.5737" width="89.5237" height="54.6089" filterUnits="userSpaceOnUse" color-interpolation-filters="sRGB">
<feFlood flood-opacity="0" result="BackgroundImageFix"/>
<feColorMatrix in="SourceAlpha" type="matrix" values="0 0 0 0 0 0 0 0 0 0 0 0 0 0 0 0 0 0 127 0" result="hardAlpha"/>
<feOffset dy="0.0613279"/>
<feGaussianBlur stdDeviation="0.130322"/>
<feColorMatrix type="matrix" values="0 0 0 0 0.4 0 0 0 0 0.564706 0 0 0 0 0.796078 0 0 0 0.0216667 0"/>
<feBlend mode="normal" in2="BackgroundImageFix" result="effect1_dropShadow_6_2453"/>
<feColorMatrix in="SourceAlpha" type="matrix" values="0 0 0 0 0 0 0 0 0 0 0 0 0 0 0 0 0 0 127 0" result="hardAlpha"/>
<feOffset dy="0.269843"/>
<feGaussianBlur stdDeviation="0.269843"/>
<feColorMatrix type="matrix" values="0 0 0 0 0.4 0 0 0 0 0.564706 0 0 0 0 0.796078 0 0 0 0.0353333 0"/>
<feBlend mode="normal" in2="effect1_dropShadow_6_2453" result="effect2_dropShadow_6_2453"/>
<feColorMatrix in="SourceAlpha" type="matrix" values="0 0 0 0 0 0 0 0 0 0 0 0 0 0 0 0 0 0 127 0" result="hardAlpha"/>
<feOffset dy="0.662341"/>
<feGaussianBlur stdDeviation="0.538152"/>
<feColorMatrix type="matrix" values="0 0 0 0 0.4 0 0 0 0 0.564706 0 0 0 0 0.796078 0 0 0 0.045 0"/>
<feBlend mode="normal" in2="effect2_dropShadow_6_2453" result="effect3_dropShadow_6_2453"/>
<feColorMatrix in="SourceAlpha" type="matrix" values="0 0 0 0 0 0 0 0 0 0 0 0 0 0 0 0 0 0 127 0" result="hardAlpha"/>
<feOffset dy="1.27562"/>
<feGaussianBlur stdDeviation="1.05484"/>
<feColorMatrix type="matrix" values="0 0 0 0 0.4 0 0 0 0 0.564706 0 0 0 0 0.796078 0 0 0 0.0546667 0"/>
<feBlend mode="normal" in2="effect3_dropShadow_6_2453" result="effect4_dropShadow_6_2453"/>
<feColorMatrix in="SourceAlpha" type="matrix" values="0 0 0 0 0 0 0 0 0 0 0 0 0 0 0 0 0 0 127 0" result="hardAlpha"/>
<feOffset dy="2.14648"/>
<feGaussianBlur stdDeviation="1.93949"/>
<feColorMatrix type="matrix" values="0 0 0 0 0.4 0 0 0 0 0.564706 0 0 0 0 0.796078 0 0 0 0.0683333 0"/>
<feBlend mode="normal" in2="effect4_dropShadow_6_2453" result="effect5_dropShadow_6_2453"/>
<feColorMatrix in="SourceAlpha" type="matrix" values="0 0 0 0 0 0 0 0 0 0 0 0 0 0 0 0 0 0 127 0" result="hardAlpha"/>
<feOffset dy="3.3117"/>
<feGaussianBlur stdDeviation="3.3117"/>
<feColorMatrix type="matrix" values="0 0 0 0 0.4 0 0 0 0 0.564706 0 0 0 0 0.796078 0 0 0 0.09 0"/>
<feBlend mode="normal" in2="effect5_dropShadow_6_2453" result="effect6_dropShadow_6_2453"/>
<feBlend mode="normal" in="SourceGraphic" in2="effect6_dropShadow_6_2453" result="shape"/>
</filter>
</defs>
</svg>
