<svg width="16" height="16" viewBox="0 0 16 16" fill="none" xmlns="http://www.w3.org/2000/svg">
<path d="M11.4905 15.9152C11.6975 15.9711 11.9109 15.9995 12.1252 15.9999C12.1358 15.9999 12.1464 15.9996 12.1567 15.9996C12.3614 15.9964 12.5649 15.9677 12.7624 15.9142C12.8173 15.8995 12.8658 15.8672 12.9004 15.8221C12.935 15.777 12.9537 15.7218 12.9537 15.665L12.9557 15.4073C13.0572 15.3613 13.1547 15.307 13.2472 15.245L13.2729 15.249L13.4959 15.3735C13.544 15.4004 13.5994 15.4112 13.654 15.4043C13.7087 15.3974 13.7596 15.3732 13.7995 15.3352C14.1077 15.0431 14.3293 14.6716 14.4398 14.2616C14.4546 14.2061 14.4505 14.1473 14.4282 14.0944C14.4058 14.0415 14.3664 13.9976 14.3163 13.9696L14.0842 13.8398C14.0893 13.7854 14.0918 13.7314 14.0918 13.6778C14.0918 13.6241 14.0893 13.5701 14.0842 13.5158L14.3163 13.386C14.3664 13.358 14.4057 13.3142 14.4281 13.2613C14.4504 13.2085 14.4545 13.1497 14.4398 13.0943C14.3298 12.684 14.1086 12.3121 13.8005 12.0197C13.7605 11.9818 13.7095 11.9577 13.6549 11.9508C13.6002 11.9439 13.5448 11.9546 13.4967 11.9814L13.2727 12.1066L13.3986 12.3318L13.2472 12.1106C13.1524 12.0485 13.0544 11.9913 12.9537 11.9393V11.6896C12.9537 11.6328 12.9349 11.5776 12.9004 11.5325C12.8658 11.4875 12.8173 11.4551 12.7624 11.4404C12.5449 11.3833 12.3209 11.3549 12.096 11.356C11.8914 11.3592 11.688 11.3879 11.4905 11.4414C11.4357 11.4561 11.3872 11.4884 11.3526 11.5335C11.318 11.5786 11.2993 11.6338 11.2993 11.6906L11.2968 11.9483C11.1955 11.9943 11.0981 12.0486 11.0058 12.1106L10.9801 12.1066L10.7571 11.9821C10.709 11.9554 10.6536 11.9447 10.599 11.9516C10.5444 11.9585 10.4934 11.9826 10.4535 12.0204C10.1453 12.3125 9.92371 12.684 9.81323 13.094C9.79837 13.1495 9.80244 13.2083 9.82481 13.2612C9.84717 13.3141 9.88655 13.358 9.93669 13.386L10.1687 13.5158C10.1637 13.5702 10.1612 13.6242 10.1612 13.6778C10.1612 13.7315 10.1637 13.7855 10.1687 13.8398L9.93669 13.9696C9.88661 13.9976 9.84729 14.0415 9.82493 14.0943C9.80257 14.1471 9.79845 14.2059 9.81323 14.2614C9.92305 14.6716 10.1442 15.0435 10.4522 15.336C10.4922 15.3738 10.5431 15.3979 10.5977 15.4048C10.6523 15.4117 10.7077 15.401 10.7558 15.3743L10.9801 15.249L11.0058 15.245C11.1006 15.3072 11.1986 15.3643 11.2993 15.4163V15.666C11.2993 15.7228 11.3181 15.778 11.3526 15.8231C11.3872 15.8681 11.4357 15.9005 11.4905 15.9152ZM11.2943 14.8172C11.2108 14.7625 11.1138 14.7318 11.014 14.7285C10.9143 14.7252 10.8155 14.7494 10.7286 14.7985L10.6792 14.8262C10.5496 14.6746 10.4462 14.5023 10.3736 14.3165L10.5746 14.2041C10.6219 14.1777 10.6597 14.137 10.6826 14.0879C10.7056 14.0388 10.7125 13.9838 10.7024 13.9305C10.6688 13.7637 10.6688 13.5919 10.7024 13.4251C10.7125 13.3718 10.7056 13.3168 10.6826 13.2677C10.6597 13.2186 10.6219 13.1779 10.5746 13.1515L10.3736 13.0391C10.4467 12.8535 10.5503 12.6815 10.6802 12.5301L10.7283 12.5571C10.8151 12.6062 10.9138 12.6305 11.0135 12.6273C11.1131 12.6241 11.21 12.5935 11.2935 12.5389C11.362 12.4928 11.4344 12.4525 11.5097 12.4185C11.6013 12.3764 11.6788 12.3088 11.733 12.2238C11.7872 12.1389 11.8158 12.0401 11.8153 11.9393V11.8982C11.9102 11.882 12.0063 11.8732 12.1026 11.872C12.2148 11.8697 12.327 11.8782 12.4377 11.8974V11.9393C12.4373 12.04 12.4659 12.1388 12.52 12.2237C12.5741 12.3087 12.6516 12.3763 12.743 12.4185C12.8181 12.4524 12.8903 12.4925 12.9587 12.5384C13.0423 12.5932 13.1393 12.6238 13.2391 12.6271C13.3389 12.6304 13.4377 12.6062 13.5246 12.5571L13.5738 12.5296C13.7035 12.6811 13.8068 12.8533 13.8794 13.0391L13.6783 13.1515C13.631 13.1779 13.5933 13.2186 13.5703 13.2677C13.5474 13.3168 13.5405 13.3718 13.5506 13.4251C13.5842 13.5919 13.5842 13.7637 13.5506 13.9305C13.5405 13.9838 13.5474 14.0388 13.5703 14.0879C13.5933 14.137 13.631 14.1777 13.6783 14.2041L13.8794 14.3165C13.8063 14.5021 13.7026 14.6741 13.5727 14.8255L13.5246 14.7985C13.4378 14.7495 13.3392 14.7253 13.2395 14.7285C13.1399 14.7317 13.043 14.7622 12.9595 14.8167C12.8908 14.8628 12.8184 14.903 12.743 14.9371C12.6516 14.9793 12.5741 15.0469 12.52 15.1319C12.4658 15.2168 12.4373 15.3156 12.4377 15.4163V15.4574C12.3427 15.4737 12.2465 15.4824 12.1502 15.4836C12.038 15.4859 11.9258 15.4774 11.8153 15.4582V15.4163C11.8158 15.3156 11.7872 15.2168 11.7331 15.1318C11.6789 15.0468 11.6015 14.9793 11.5099 14.9371C11.4348 14.9033 11.3626 14.8632 11.2943 14.8172Z" fill="#292D32"/>
<path d="M13.1583 13.6778C13.1583 13.4737 13.0978 13.2741 12.9844 13.1044C12.871 12.9347 12.7098 12.8024 12.5212 12.7243C12.3326 12.6462 12.1251 12.6258 11.9249 12.6656C11.7247 12.7054 11.5408 12.8037 11.3965 12.948C11.2522 13.0924 11.1539 13.2763 11.1141 13.4764C11.0742 13.6766 11.0947 13.8842 11.1728 14.0727C11.2509 14.2613 11.3832 14.4225 11.5529 14.5359C11.7226 14.6493 11.9222 14.7098 12.1263 14.7098C12.3999 14.7096 12.6622 14.6007 12.8557 14.4072C13.0492 14.2138 13.158 13.9514 13.1583 13.6778ZM11.6103 13.6778C11.6103 13.5757 11.6405 13.476 11.6972 13.3911C11.7539 13.3062 11.8345 13.2401 11.9288 13.201C12.0231 13.162 12.1268 13.1518 12.2269 13.1717C12.327 13.1916 12.419 13.2407 12.4912 13.3129C12.5633 13.3851 12.6125 13.477 12.6324 13.5771C12.6523 13.6772 12.6421 13.781 12.603 13.8753C12.564 13.9695 12.4978 14.0501 12.413 14.1068C12.3281 14.1635 12.2283 14.1938 12.1263 14.1938C11.9895 14.1936 11.8583 14.1392 11.7616 14.0425C11.6649 13.9457 11.6104 13.8146 11.6103 13.6778Z" fill="#292D32"/>
<path d="M7.99806 9.54984C8.7635 9.54984 9.51176 9.32286 10.1482 8.89761C10.7846 8.47235 11.2807 7.86792 11.5736 7.16074C11.8665 6.45357 11.9432 5.67541 11.7938 4.92468C11.6445 4.17395 11.2759 3.48436 10.7347 2.94311C10.1934 2.40186 9.50382 2.03327 8.75309 1.88394C8.00236 1.73461 7.2242 1.81125 6.51703 2.10417C5.80985 2.39709 5.20542 2.89313 4.78016 3.52958C4.35491 4.16602 4.12793 4.91427 4.12793 5.67971C4.12905 6.70579 4.53716 7.68952 5.2627 8.41507C5.98825 9.14061 6.97198 9.54872 7.99806 9.54984ZM7.99806 2.32559C8.66145 2.32559 9.30993 2.52231 9.86151 2.89086C10.4131 3.25942 10.843 3.78326 11.0969 4.39614C11.3507 5.00903 11.4172 5.68343 11.2877 6.33406C11.1583 6.9847 10.8389 7.58234 10.3698 8.05142C9.9007 8.52051 9.30305 8.83996 8.65242 8.96937C8.00178 9.09879 7.32738 9.03237 6.7145 8.77851C6.10161 8.52464 5.57777 8.09474 5.20922 7.54315C4.84066 6.99157 4.64395 6.34309 4.64395 5.67971C4.64498 4.79045 4.99868 3.93792 5.62748 3.30912C6.25628 2.68033 7.10881 2.32662 7.99806 2.32559Z" fill="#292D32"/>
<path d="M5.67622 7.22769H6.70826C6.74215 7.22771 6.7757 7.22105 6.80702 7.20809C6.83833 7.19513 6.86678 7.17613 6.89074 7.15217C6.9147 7.12821 6.93371 7.09976 6.94667 7.06844C6.95963 7.03713 6.96629 7.00357 6.96627 6.96968V5.67964C6.96629 5.64575 6.95963 5.61219 6.94667 5.58088C6.93371 5.54957 6.9147 5.52112 6.89074 5.49716C6.86678 5.47319 6.83833 5.45419 6.80702 5.44123C6.7757 5.42827 6.74215 5.42161 6.70826 5.42163H5.67622C5.64233 5.42161 5.60877 5.42827 5.57746 5.44123C5.54615 5.45419 5.5177 5.47319 5.49374 5.49716C5.46978 5.52112 5.45077 5.54957 5.43781 5.58088C5.42485 5.61219 5.41819 5.64575 5.41821 5.67964V6.96968C5.41819 7.00357 5.42485 7.03713 5.43781 7.06844C5.45077 7.09976 5.46978 7.12821 5.49374 7.15217C5.5177 7.17613 5.54615 7.19513 5.57746 7.20809C5.60877 7.22105 5.64233 7.22771 5.67622 7.22769ZM5.93423 5.93765H6.45025V6.71168H5.93423V5.93765Z" fill="#292D32"/>
<path d="M7.48213 7.2276H8.51417C8.54805 7.22762 8.58161 7.22096 8.61292 7.208C8.64424 7.19504 8.67269 7.17604 8.69665 7.15208C8.72061 7.12812 8.73961 7.09967 8.75257 7.06835C8.76553 7.03704 8.77219 7.00348 8.77217 6.9696V3.87349C8.77219 3.8396 8.76553 3.80604 8.75257 3.77473C8.73961 3.74342 8.72061 3.71497 8.69665 3.691C8.67269 3.66704 8.64424 3.64804 8.61292 3.63508C8.58161 3.62212 8.54805 3.61546 8.51417 3.61548H7.48213C7.44824 3.61546 7.41468 3.62212 7.38337 3.63508C7.35206 3.64804 7.32361 3.66704 7.29965 3.691C7.27568 3.71497 7.25668 3.74342 7.24372 3.77473C7.23076 3.80604 7.2241 3.8396 7.22412 3.87349V6.9696C7.2241 7.00348 7.23076 7.03704 7.24372 7.06835C7.25668 7.09967 7.27568 7.12812 7.29965 7.15208C7.32361 7.17604 7.35206 7.19504 7.38337 7.208C7.41468 7.22096 7.44824 7.22762 7.48213 7.2276ZM7.74014 4.1315H8.25616V6.71159H7.74014V4.1315Z" fill="#292D32"/>
<path d="M9.28828 7.22755H10.3203C10.3542 7.22757 10.3878 7.22091 10.4191 7.20795C10.4504 7.19499 10.4788 7.17599 10.5028 7.15202C10.5268 7.12806 10.5458 7.09961 10.5587 7.0683C10.5717 7.03699 10.5783 7.00343 10.5783 6.96954V4.90547C10.5783 4.87158 10.5717 4.83802 10.5587 4.80671C10.5458 4.7754 10.5268 4.74695 10.5028 4.72299C10.4788 4.69902 10.4504 4.68002 10.4191 4.66706C10.3878 4.6541 10.3542 4.64744 10.3203 4.64746H9.28828C9.25439 4.64744 9.22084 4.6541 9.18952 4.66706C9.15821 4.68002 9.12976 4.69902 9.1058 4.72299C9.08184 4.74695 9.06283 4.7754 9.04987 4.80671C9.03692 4.83802 9.03025 4.87158 9.03027 4.90547V6.96954C9.03025 7.00343 9.03692 7.03699 9.04987 7.0683C9.06283 7.09961 9.08184 7.12806 9.1058 7.15202C9.12976 7.17599 9.15821 7.19499 9.18952 7.20795C9.22084 7.22091 9.25439 7.22757 9.28828 7.22755ZM9.54629 5.16348H10.0623V6.71153H9.54629V5.16348Z" fill="#292D32"/>
<path d="M0.774027 2.84151C0.888343 2.84198 1.00133 2.81702 1.10481 2.76843C1.20829 2.71984 1.29967 2.64885 1.37232 2.56059C1.44498 2.47233 1.4971 2.36902 1.5249 2.25814C1.55271 2.14725 1.55551 2.03157 1.53309 1.91948L2.60299 1.36906C2.73213 1.47933 2.89441 1.54327 3.06406 1.55074C3.2337 1.55821 3.40098 1.50877 3.5393 1.41027L4.59125 2.16244C3.93659 2.79411 3.47104 3.59582 3.24691 4.47749C3.02277 5.35917 3.04893 6.28588 3.32245 7.15351C3.59597 8.02114 4.10601 8.7953 4.79527 9.38904C5.48452 9.98277 6.32569 10.3725 7.22425 10.5146V11.3558H7.1726C7.04949 11.356 6.93147 11.4049 6.84442 11.492C6.75737 11.579 6.70839 11.6971 6.70823 11.8202V14.9679C6.70841 15.1047 6.76283 15.2359 6.85957 15.3326C6.9563 15.4294 7.08745 15.4838 7.22425 15.484H8.77231C8.90911 15.4838 9.04026 15.4294 9.13699 15.3326C9.23372 15.2359 9.28815 15.1047 9.28832 14.9679V11.8202C9.28816 11.6971 9.23919 11.579 9.15214 11.492C9.06509 11.4049 8.94707 11.356 8.82396 11.3558H8.77231V10.5146C9.53173 10.3955 10.2523 10.0988 10.8755 9.64879C11.4987 9.19874 12.0069 8.60798 12.3587 7.92452C12.7106 7.24107 12.8961 6.48423 12.9004 5.71554C12.9046 4.94685 12.7274 4.18802 12.3831 3.50073L13.7057 2.66599C13.8309 2.76997 13.986 2.83107 14.1485 2.84029C14.3109 2.84952 14.472 2.80639 14.6081 2.71725L15.605 3.32025L15.8721 2.87881L14.9234 2.30498C14.9496 2.22849 14.9635 2.14833 14.9645 2.06749C14.9647 1.95893 14.9421 1.85154 14.8981 1.7523C14.8541 1.65305 14.7897 1.56417 14.7092 1.49143C14.6286 1.41869 14.5336 1.36371 14.4304 1.33006C14.3272 1.29642 14.218 1.28486 14.1101 1.29614C14.0021 1.30742 13.8977 1.34128 13.8037 1.39554C13.7096 1.44979 13.6281 1.52321 13.5643 1.61104C13.5005 1.69887 13.4559 1.79913 13.4333 1.90533C13.4108 2.01152 13.4109 2.12127 13.4335 2.22744L12.129 3.05072C11.7643 2.47393 11.2828 1.97999 10.7155 1.60076C10.1481 1.22154 9.50762 0.965457 8.83522 0.849033C8.16282 0.732609 7.47348 0.758432 6.81168 0.924835C6.14988 1.09124 5.53031 1.39453 4.99294 1.81513L3.83714 0.988698C3.85799 0.920176 3.8691 0.84906 3.87013 0.777443C3.87061 0.669238 3.8484 0.562134 3.80492 0.463045C3.76145 0.363956 3.69768 0.275083 3.61774 0.202162C3.53779 0.129241 3.44344 0.0738923 3.34079 0.039688C3.23813 0.00548376 3.12944 -0.00681608 3.02173 0.00358237C2.91403 0.0139808 2.8097 0.0468465 2.71548 0.100058C2.62126 0.15327 2.53925 0.225645 2.47473 0.312514C2.41021 0.399382 2.36462 0.498812 2.34091 0.604388C2.31719 0.709964 2.31588 0.819339 2.33705 0.925455L1.26715 1.47587C1.12941 1.35884 0.954763 1.29424 0.774027 1.29346C0.568742 1.29346 0.371865 1.37501 0.226707 1.52017C0.081549 1.66533 0 1.8622 0 2.06749C0 2.27277 0.081549 2.46965 0.226707 2.61481C0.371865 2.75997 0.568742 2.84151 0.774027 2.84151ZM14.1905 1.80948C14.2415 1.80948 14.2914 1.82461 14.3338 1.85296C14.3763 1.88131 14.4093 1.92161 14.4289 1.96875C14.4484 2.0159 14.4535 2.06777 14.4435 2.11782C14.4336 2.16787 14.409 2.21384 14.3729 2.24993C14.3369 2.28601 14.2909 2.31058 14.2408 2.32054C14.1908 2.33049 14.1389 2.32539 14.0918 2.30586C14.0446 2.28633 14.0043 2.25326 13.976 2.21083C13.9476 2.1684 13.9325 2.11852 13.9325 2.06749C13.9325 1.99907 13.9597 1.93347 14.0081 1.8851C14.0565 1.83672 14.1221 1.80952 14.1905 1.80948ZM8.77282 14.9679H7.22425V11.8718H8.77231L8.77282 14.9679ZM7.74027 11.3558V10.5687C7.82625 10.5732 7.9112 10.5818 7.99828 10.5818C8.08536 10.5818 8.17031 10.5732 8.25629 10.5687V11.3558H7.74027ZM7.99828 1.29346C8.86578 1.29346 9.7138 1.5507 10.4351 2.03266C11.1564 2.51462 11.7186 3.19964 12.0506 4.00111C12.3825 4.80257 12.4694 5.68448 12.3002 6.53531C12.1309 7.38614 11.7132 8.16768 11.0998 8.78109C10.4863 9.39451 9.7048 9.81225 8.85397 9.98149C8.00314 10.1507 7.12124 10.0639 6.31977 9.73189C5.51831 9.39991 4.83328 8.83773 4.35133 8.11643C3.86937 7.39513 3.61213 6.54711 3.61213 5.67961C3.61342 4.51673 4.07595 3.40185 4.89823 2.57957C5.72052 1.75729 6.8354 1.29476 7.99828 1.29346ZM3.09611 0.519434C3.14714 0.519434 3.19702 0.534566 3.23945 0.562917C3.28188 0.591267 3.31495 0.631562 3.33448 0.678707C3.35401 0.725852 3.35911 0.777729 3.34916 0.827778C3.3392 0.877827 3.31463 0.9238 3.27855 0.959883C3.24246 0.995966 3.19649 1.02054 3.14644 1.03049C3.09639 1.04045 3.04452 1.03534 2.99737 1.01581C2.95023 0.996284 2.90993 0.963215 2.88158 0.920785C2.85323 0.878356 2.8381 0.828473 2.8381 0.777443C2.83814 0.709029 2.86534 0.64343 2.91372 0.595054C2.96209 0.546678 3.02769 0.51948 3.09611 0.519434ZM0.774027 1.80948C0.825056 1.80948 0.87494 1.82461 0.917369 1.85296C0.959798 1.88131 0.992868 1.92161 1.0124 1.96875C1.03192 2.0159 1.03703 2.06777 1.02708 2.11782C1.01712 2.16787 0.99255 2.21384 0.956467 2.24993C0.920384 2.28601 0.874411 2.31058 0.824362 2.32054C0.774313 2.33049 0.722436 2.32539 0.675291 2.30586C0.628146 2.28633 0.587851 2.25326 0.5595 2.21083C0.53115 2.1684 0.516018 2.11852 0.516018 2.06749C0.516064 1.99907 0.543261 1.93347 0.591638 1.8851C0.640014 1.83672 0.705613 1.80952 0.774027 1.80948Z" fill="#292D32"/>
</svg>
