<svg xmlns="http://www.w3.org/2000/svg" width="18.586" height="14" viewBox="0 0 18.586 14">
  <g id="Group_18594" data-name="Group 18594" transform="translate(213.428 511.082)">
    <path id="Path_34455" data-name="Path 34455" d="M-80.919-343.225a2.953,2.953,0,0,1-.156.3.933.933,0,0,1-.747.417c-.024,0-.048,0-.073,0q-6.168,0-12.336,0a.938.938,0,0,1-.976-.933.937.937,0,0,1,.975-.933q6.168,0,12.336,0a.936.936,0,0,1,.938.661.28.28,0,0,0,.038.055Z" transform="translate(-113.922 -160.642)" fill="#aeb2b7"/>
    <path id="Path_34456" data-name="Path 34456" d="M-80.971-503.28a3.387,3.387,0,0,1-.3.484.756.756,0,0,1-.567.244c-.054,0-.109,0-.163,0q-6.106,0-12.212,0a.98.98,0,0,1-.823-.336.882.882,0,0,1-.136-.967.892.892,0,0,1,.806-.554c.072-.005.145,0,.218,0,4,0,8,.006,11.994-.007a1.082,1.082,0,0,1,1.184.732Z" transform="translate(-113.871 -6.429)" fill="#aeb2b7"/>
    <path id="Path_34457" data-name="Path 34457" d="M-80.9-183.219a1,1,0,0,1-.733.7,1.061,1.061,0,0,1-.216.021q-6.2,0-12.393,0a.921.921,0,0,1-.939-.85.919.919,0,0,1,.7-.975,1.68,1.68,0,0,1,.4-.029c4.01,0,8.02,0,12.03-.008a1.056,1.056,0,0,1,1.158.739Z" transform="translate(-113.944 -314.842)" fill="#aeb2b7"/>
    <path id="Path_34458" data-name="Path 34458" d="M-212.337-192.419c-.039-.013-.078-.029-.118-.038a1.255,1.255,0,0,1-.967-1.362,1.259,1.259,0,0,1,1.163-1.1,1.239,1.239,0,0,1,1.3,1.037,1.244,1.244,0,0,1-.941,1.423,1.194,1.194,0,0,0-.115.04Z" transform="translate(0 -304.663)" fill="#aeb2b7"/>
    <path id="Path_34459" data-name="Path 34459" d="M-213.351-509.827a1.251,1.251,0,0,1,1.236-1.254,1.264,1.264,0,0,1,1.26,1.255,1.255,1.255,0,0,1-1.252,1.241A1.242,1.242,0,0,1-213.351-509.827Z" transform="translate(-0.074)" fill="#aeb2b7"/>
    <path id="Path_34460" data-name="Path 34460" d="M-212.112-352.881a1.251,1.251,0,0,1,1.259,1.232,1.254,1.254,0,0,1-1.254,1.257,1.239,1.239,0,0,1-1.242-1.225A1.236,1.236,0,0,1-212.112-352.881Z" transform="translate(-0.075 -152.448)" fill="#aeb2b7"/>
  </g>
</svg>
