<svg xmlns="http://www.w3.org/2000/svg" width="20" height="20" viewBox="0 0 20 20">
  <path id="Path_32551" data-name="Path 32551" d="M-385,596.664c-.04.3-.071.6-.121.9a5.641,5.641,0,0,1-.669,2.221,2.976,2.976,0,0,1-2.586,1.52,2.868,2.868,0,0,1-2.637-2c-.01-.03-.021-.059-.043-.118a5.038,5.038,0,0,1-4.6,1.825,4.842,4.842,0,0,1-3.294-1.857,5.058,5.058,0,0,1,.42-6.792,5.1,5.1,0,0,1,7.4.342c0-.249-.012-.451,0-.651a.594.594,0,0,1,.927-.448.641.641,0,0,1,.278.571q0,.762,0,1.523c0,1.569,0,3.138,0,4.707a1.615,1.615,0,0,0,1.224,1.63,1.58,1.58,0,0,0,1.614-.534,2.669,2.669,0,0,0,.634-1.419,8.663,8.663,0,0,0-1.426-7.224,8.543,8.543,0,0,0-5.524-3.5,8.776,8.776,0,0,0-9.5,4.789,8.769,8.769,0,0,0-.86,3.155,8.785,8.785,0,0,0,6.524,9.2,8.627,8.627,0,0,0,6.092-.6c.105-.051.208-.107.314-.155a.608.608,0,0,1,.831.265.6.6,0,0,1-.294.821,9.655,9.655,0,0,1-2.722.972c-.382.073-.771.109-1.156.163a.878.878,0,0,0-.127.037H-395.7c-.23-.03-.46-.055-.689-.089a9.826,9.826,0,0,1-5.121-2.323,9.832,9.832,0,0,1-3.371-6.062c-.043-.274-.077-.549-.115-.823V595.3a1.264,1.264,0,0,0,.037-.147c.046-.347.071-.7.137-1.041a9.758,9.758,0,0,1,2.237-4.623,9.838,9.838,0,0,1,6.062-3.371c.274-.043.549-.077.823-.115h1.406a1.263,1.263,0,0,0,.147.037c.347.046.7.071,1.041.138a9.753,9.753,0,0,1,4.623,2.237,9.84,9.84,0,0,1,3.371,6.062c.043.274.077.549.115.823Zm-10.156,3.18a3.853,3.853,0,0,0,4.008-3.736,3.869,3.869,0,0,0-3.734-3.959,3.868,3.868,0,0,0-3.969,3.743A3.853,3.853,0,0,0-395.156,599.844Z" transform="translate(405 -586)" fill="#ff6700"/>
</svg>
