<svg width="18" height="16" viewBox="0 0 18 16" fill="none" xmlns="http://www.w3.org/2000/svg">
<g clip-path="url(#clip0_1139_2284)">
<path d="M17.9837 0.484821C17.9837 1.99734 17.9853 3.50987 17.9853 5.02239C17.9853 8.36084 17.9853 11.6993 17.9869 15.0377C17.9869 15.169 17.9457 15.3017 17.9982 15.4322C18.0046 15.448 17.9885 15.4709 17.9829 15.491C17.9538 15.7449 17.7601 15.8919 17.5212 15.9651C17.2806 16.0389 17.0328 15.9973 16.8302 15.8367C16.756 15.7772 16.6817 15.7169 16.6325 15.638C16.6494 15.4853 16.5679 15.3454 16.5728 15.1912C16.5857 14.7401 16.5776 14.2876 16.5768 13.8365C16.5768 13.8049 16.5881 13.7705 16.559 13.7432C16.5631 13.6278 16.5703 13.5123 16.5703 13.3961C16.5736 10.1502 16.576 6.90354 16.5784 3.65761C16.5784 3.62103 16.572 3.58804 16.5558 3.55433C16.534 3.50915 16.4912 3.52708 16.484 3.54788C16.4533 3.63537 16.3847 3.70781 16.3573 3.79387C16.3113 3.93874 16.2378 4.07572 16.1563 4.20194C16.0328 4.39199 15.9238 4.58706 15.8149 4.78357C15.3491 5.62195 14.8891 6.46176 14.3797 7.28078C14.1069 7.71969 13.91 8.19446 13.5944 8.61329C13.6162 8.71871 13.5048 8.77465 13.4757 8.8643C13.4378 8.97905 13.366 9.08591 13.3046 9.19492C13.0948 9.56928 12.8841 9.94293 12.6734 10.3166C12.6629 10.3209 12.6597 10.3281 12.6646 10.3381C12.6637 10.3431 12.6637 10.3481 12.6646 10.3532C12.5572 10.4995 12.4878 10.6637 12.3966 10.8179C12.2537 11.0596 12.1326 11.3113 11.9753 11.5465C11.788 11.9395 11.541 12.3053 11.3263 12.6861C11.0608 13.158 10.7928 13.6285 10.5288 14.1004C10.3828 14.3615 10.2431 14.6261 10.0962 14.8864C9.95819 15.1317 9.81452 15.3748 9.67407 15.6187C9.52072 15.8847 9.27292 16.0145 8.94118 15.9894C8.7063 15.9715 8.5134 15.8682 8.39555 15.6775C8.35277 15.6086 8.30031 15.5426 8.28739 15.4616C8.30677 15.425 8.30031 15.3856 8.30434 15.3476C8.31403 15.2586 8.3221 15.1704 8.36811 15.0887C8.53196 14.7939 8.70065 14.502 8.8532 14.203C8.8976 14.1155 8.98154 14.0423 8.98558 13.939C9.00495 13.9319 9.01544 13.9182 9.02513 13.9017C9.19221 13.6149 9.36332 13.3294 9.52798 13.0411C9.83308 12.5061 10.1366 11.9704 10.4384 11.4339C10.5305 11.2697 10.6055 11.0969 10.7064 10.9377C10.7581 10.8559 10.7863 10.7677 10.8356 10.6866C10.863 10.6407 10.926 10.6135 10.9268 10.5532C11.0753 10.2922 11.2303 10.0333 11.3707 9.76866C11.4433 9.63168 11.5491 9.51119 11.6032 9.36632C11.7759 9.08878 11.9099 8.79473 12.0721 8.51288C12.349 8.03094 12.629 7.54972 12.9059 7.06778C13.0584 6.80242 13.2062 6.53563 13.3595 6.27099C13.5113 6.00851 13.6404 5.73598 13.8059 5.47923C13.8599 5.43692 13.9027 5.38887 13.9003 5.32002C13.8963 5.2648 13.956 5.24185 13.9778 5.20168C14.0512 5.06686 14.1134 4.92629 14.1876 4.79218C14.3006 4.5885 14.4217 4.38841 14.5355 4.18473C14.592 4.08361 14.655 3.98464 14.6816 3.87132C14.6259 3.9036 14.5751 3.93659 14.5331 3.97747C14.4371 4.0707 14.3531 4.17541 14.2506 4.2629C13.7284 4.70755 13.2255 5.16798 12.7146 5.62195C12.5604 5.75893 12.4103 5.90021 12.2561 6.03648C11.9615 6.29681 11.6645 6.55428 11.3691 6.81389C10.934 7.19687 10.4998 7.57984 10.0647 7.96281C10.0486 7.97715 10.0284 7.99006 10.03 8.01373C10.0163 8.02162 10.0018 8.02879 9.98967 8.03883C9.7112 8.2547 9.45857 8.49495 9.2027 8.73162C9.14216 8.78756 9.05338 8.8227 9.02351 8.90374C8.99607 8.92454 8.96621 8.94391 8.94118 8.96686C8.36165 9.48609 7.78696 10.0096 7.19209 10.516C7.16384 10.5396 7.12429 10.5576 7.12672 10.6006C7.03793 10.6042 7.01936 10.6809 6.96851 10.7232C6.65373 10.9836 6.35266 11.2561 6.05321 11.53C5.71178 11.8363 5.37117 12.1425 5.02894 12.448C4.7311 12.7134 4.44053 12.9852 4.13139 13.2398C3.861 13.4621 3.62854 13.7167 3.35572 13.9362C3.30164 13.9799 3.24756 14.0229 3.19671 14.0688C2.79798 14.4246 2.40167 14.7824 2.00213 15.1374C1.74546 15.3655 1.48879 15.5928 1.22566 15.8137C1.00127 16.0023 0.716347 16.0475 0.453217 15.945C0.182822 15.8395 0.0213926 15.6452 0.0108997 15.3741C0.00767108 15.283 -0.0270363 15.1848 0.0472213 15.1001C0.134393 15.0578 0.160222 14.971 0.226408 14.9122C0.567832 14.6125 0.909255 14.3127 1.24664 14.01C1.32655 13.9383 1.42825 13.8824 1.47264 13.7827C1.57112 13.7318 1.63488 13.6479 1.71237 13.5783C2.30562 13.044 2.91583 12.5248 3.49455 11.9776C3.82871 11.6613 4.18224 11.3615 4.52851 11.056C4.73191 10.8774 4.94257 10.7053 5.14275 10.5238C5.21862 10.455 5.31951 10.4077 5.37198 10.318C5.39619 10.318 5.41475 10.3101 5.43251 10.2929C5.72712 10.0017 6.03464 9.72132 6.36396 9.46099C6.39383 9.43732 6.4253 9.41366 6.414 9.37063C6.46485 9.36776 6.49795 9.33979 6.52862 9.30751C6.57543 9.25875 6.62144 9.20854 6.66987 9.16049C6.76996 9.06009 6.88376 8.97116 6.99192 8.87793C7.14609 8.74525 7.28976 8.60396 7.44635 8.47344C7.62392 8.3257 7.79019 8.16792 7.96131 8.01445C7.96776 8.00943 7.97341 8.00441 7.97987 7.99939L7.98391 7.99795C8.17278 7.83157 8.36327 7.66662 8.55133 7.4988C8.70388 7.36253 8.8524 7.22412 9.00333 7.08642C9.55381 6.60018 10.1051 6.11537 10.6531 5.62769C10.997 5.32145 11.3295 5.00446 11.679 4.70325C12.3748 4.10297 13.056 3.48979 13.7437 2.88234C14.747 1.99448 15.7503 1.10733 16.7463 0.213012C17.0587 -0.0674041 17.4792 -0.0494747 17.7633 0.135557C17.8916 0.218749 17.9594 0.344255 17.9845 0.485538L17.9837 0.484821Z" fill="#713190"/>
<path d="M6.41118 9.3699C6.42248 9.41221 6.391 9.43588 6.36113 9.46026C6.03182 9.7206 5.72429 10.001 5.42968 10.2922C5.41193 10.3094 5.39336 10.3166 5.36915 10.3173C5.3417 10.27 5.30215 10.2298 5.27633 10.181C5.14718 9.93862 5.01481 9.69765 4.88002 9.45739C4.80334 9.32113 4.70648 9.19275 4.64029 9.05291C4.55796 8.88078 4.45303 8.71798 4.36586 8.54801C4.28515 8.39095 4.19152 8.23676 4.0995 8.08328C3.89933 7.74908 3.71853 7.40555 3.52078 7.06991C3.28832 6.67547 3.05505 6.28174 2.84116 5.87869C2.53364 5.29921 2.19544 4.73336 1.8742 4.15962C1.74909 3.93658 1.61995 3.71497 1.48031 3.48762C1.45529 3.55647 1.44964 3.61958 1.44964 3.68341C1.44964 6.95086 1.44964 10.2176 1.45206 13.485C1.45206 13.5833 1.423 13.6844 1.46901 13.7812C1.42462 13.8809 1.32292 13.9369 1.24301 14.0086C0.90562 14.312 0.564196 14.6117 0.222773 14.9108C0.156587 14.9689 0.129951 15.0564 0.043586 15.0987C0.00322859 15.0679 0.00403574 15.027 0.00403574 14.9839C0.00403574 14.4805 0.0016143 13.9763 0.0016143 13.4729C0.0016143 9.22933 0.0016143 4.9858 0 0.742276C0 0.562265 0.00807148 0.38584 0.142058 0.241688C0.288152 0.0853437 0.456846 -0.011475 0.713519 0.0071716C0.875755 0.0186464 1.0162 0.0394445 1.14454 0.124071C1.17359 0.143435 1.20265 0.164233 1.22767 0.186465C1.53116 0.455406 1.83142 0.726498 2.13733 0.993288C2.54494 1.34901 2.95739 1.70042 3.36419 2.05686C3.64185 2.29998 3.9187 2.54454 4.18425 2.7977C4.64756 3.23948 5.13185 3.6619 5.61856 4.08216C6.06733 4.46872 6.50723 4.86388 6.95116 5.25546C7.61302 5.83852 8.27084 6.42517 8.93028 7.01039C8.95611 7.03334 8.97791 7.05987 9.00131 7.08498C8.85118 7.22267 8.70186 7.36109 8.54931 7.49735C8.36125 7.66517 8.17157 7.83012 7.98189 7.99651C7.96897 7.942 7.9157 7.91546 7.87696 7.88104C6.42005 6.58439 4.96235 5.28917 3.50544 3.99252C3.44571 3.93944 3.39325 3.88064 3.33594 3.82326C3.29881 3.86773 3.32949 3.90287 3.34724 3.92797C3.42876 4.04343 3.46912 4.17468 3.54257 4.29445C3.69512 4.54259 3.82992 4.80005 3.97197 5.05322C4.0769 5.2404 4.18587 5.42543 4.28918 5.61261C4.57572 6.1297 4.87679 6.64104 5.17059 7.15526C5.28359 7.3532 5.39578 7.55114 5.50798 7.7498C5.63551 7.97571 5.75174 8.20807 5.89299 8.42753C6.08912 8.73233 6.2449 9.0529 6.41037 9.3699H6.41118Z" fill="#A9AAAB"/>
<path d="M11.9744 11.543C12.1318 11.3078 12.2537 11.056 12.3958 10.8143C12.487 10.6602 12.5556 10.4959 12.6638 10.3496C12.6993 10.3611 12.7267 10.3826 12.7525 10.4056C13.0633 10.6831 13.3741 10.9599 13.684 11.2368C13.9988 11.5179 14.3176 11.7955 14.6244 12.0838C14.898 12.3405 15.1821 12.5887 15.4695 12.8332C15.6204 12.9616 15.7754 13.0893 15.9142 13.2241C16.095 13.3998 16.3041 13.5519 16.4696 13.7412C16.4946 13.7692 16.5309 13.7986 16.5583 13.7391C16.5882 13.7663 16.5761 13.8015 16.5761 13.8323C16.5769 14.2841 16.585 14.736 16.5721 15.1871C16.568 15.342 16.6487 15.4818 16.6318 15.6339C16.5721 15.621 16.5414 15.5744 16.5026 15.5399C15.1821 14.3673 13.8616 13.1947 12.5443 12.0185C12.3804 11.8722 12.1988 11.741 12.0471 11.5839C12.0277 11.5638 12.0067 11.5437 11.9736 11.5416L11.9744 11.543Z" fill="#A9AAAB"/>
<path d="M8.98322 13.9367C8.97837 14.04 8.89524 14.1131 8.85084 14.2006C8.69748 14.499 8.52878 14.7916 8.36574 15.0864C8.32053 15.1681 8.31166 15.2571 8.30197 15.3453C8.29793 15.3833 8.30439 15.4227 8.28502 15.4593C8.20672 15.3869 8.17767 15.29 8.12762 15.2033C7.99525 14.973 7.85803 14.7457 7.73211 14.5126C7.52709 14.1318 7.30996 13.7567 7.09364 13.3809C6.841 12.9427 6.59804 12.5002 6.34701 12.0612C6.24612 11.8848 6.13231 11.7134 6.05078 11.5291C6.35024 11.2551 6.65131 10.9826 6.96611 10.7222C7.01696 10.6799 7.03552 10.6032 7.12431 10.5996C7.21714 10.7653 7.30996 10.9317 7.40359 11.0973C7.5739 11.4 7.7531 11.6991 7.91372 12.006C8.09776 12.3574 8.31731 12.6931 8.50699 13.0424C8.66842 13.34 8.87021 13.6204 8.98483 13.9374L8.98322 13.9367Z" fill="#A9AAAB"/>
<path d="M10.028 8.01367C10.0837 8.03662 10.1265 8.0732 10.1685 8.11121C10.6164 8.51069 11.066 8.90945 11.514 9.30892C11.5398 9.33187 11.5657 9.35482 11.6012 9.36558C11.5471 9.51045 11.4414 9.63094 11.3687 9.76792C11.2283 10.0326 11.0733 10.2915 10.9248 10.5525C10.8384 10.5188 10.7779 10.46 10.7125 10.4012C10.2492 9.98236 9.78506 9.56496 9.30964 9.15759C9.21278 9.0744 9.13772 8.96969 9.02148 8.90442C9.05135 8.82338 9.14014 8.78824 9.20067 8.7323C9.45655 8.49562 9.70838 8.25537 9.98766 8.03949C9.99977 8.03017 10.0143 8.02299 10.028 8.01439V8.01367Z" fill="#A9AAAB"/>
</g>
<defs>
<clipPath id="clip0_1139_2284">
<rect width="18.0018" height="16.0016" fill="white" transform="translate(-0.00390625)"/>
</clipPath>
</defs>
</svg>
