<svg xmlns="http://www.w3.org/2000/svg" width="15" height="15" viewBox="0 0 15 15">
  <g id="market" transform="translate(-6.4 -6.5)">
    <g id="Group_446" data-name="Group 446" transform="translate(6.4 6.5)">
      <path id="Path_1500" data-name="Path 1500" d="M20.87,20.441H7.459V7.03a.53.53,0,0,0-1.059,0V20.97a.524.524,0,0,0,.53.53H20.87a.53.53,0,1,0,0-1.059Z" transform="translate(-6.4 -6.5)" fill="#666"/>
      <path id="Path_1501" data-name="Path 1501" d="M47.36,45.216V36.131a.63.63,0,1,0-1.26,0v9.085a.63.63,0,1,0,1.26,0Z" transform="translate(-41.045 -32.741)" fill="#666"/>
      <path id="Path_1502" data-name="Path 1502" d="M27.56,45.216V36.131a.63.63,0,1,0-1.26,0v9.085a.63.63,0,1,0,1.26,0Z" transform="translate(-23.766 -32.741)" fill="#666"/>
      <path id="Path_1503" data-name="Path 1503" d="M86.96,45.216V36.131a.63.63,0,1,0-1.26,0v9.085a.63.63,0,1,0,1.26,0Z" transform="translate(-75.602 -32.741)" fill="#666"/>
      <path id="Path_1504" data-name="Path 1504" d="M106.76,70.164V65.63a.63.63,0,0,0-1.26,0v4.534a.63.63,0,0,0,1.26,0Z" transform="translate(-93.113 -58.13)" fill="#666"/>
      <path id="Path_1505" data-name="Path 1505" d="M67.16,70.164V65.63a.63.63,0,0,0-1.26,0v4.534a.63.63,0,0,0,1.26,0Z" transform="translate(-58.323 -58.13)" fill="#666"/>
    </g>
  </g>
</svg>
