<svg width="25" height="25" viewBox="0 0 25 25" fill="none" xmlns="http://www.w3.org/2000/svg">
<mask id="mask0_2433_491" style="mask-type:alpha" maskUnits="userSpaceOnUse" x="0" y="0" width="25" height="25">
<rect x="0.5" y="0.5" width="24" height="24" fill="#D9D9D9"/>
</mask>
<g mask="url(#mask0_2433_491)">
<path d="M14.775 17.75C14.9583 17.5833 15.0583 17.375 15.075 17.125C15.0917 16.875 15.0083 16.6583 14.825 16.475L12.05 13.55L12.075 13.475H12.325C13.225 13.475 13.9708 13.2 14.5625 12.65C15.1542 12.1 15.5167 11.4583 15.65 10.725H16.075C16.2417 10.725 16.3792 10.6667 16.4875 10.55C16.5958 10.4333 16.65 10.2917 16.65 10.125C16.65 9.95833 16.5958 9.82083 16.4875 9.7125C16.3792 9.60417 16.2417 9.55 16.075 9.55H15.625C15.575 9.3 15.4875 9.0625 15.3625 8.8375C15.2375 8.6125 15.0833 8.39167 14.9 8.175H16.075C16.2417 8.175 16.3792 8.11667 16.4875 8C16.5958 7.88333 16.65 7.74167 16.65 7.575C16.65 7.40833 16.5958 7.27083 16.4875 7.1625C16.3792 7.05417 16.2417 7 16.075 7H9.075C8.875 7 8.70417 7.07083 8.5625 7.2125C8.42083 7.35417 8.35 7.525 8.35 7.725C8.35 7.925 8.42083 8.09167 8.5625 8.225C8.70417 8.35833 8.875 8.425 9.075 8.425H12.25C12.6833 8.425 13.0375 8.53333 13.3125 8.75C13.5875 8.96667 13.775 9.23333 13.875 9.55H8.925C8.75833 9.55 8.62083 9.60833 8.5125 9.725C8.40417 9.84167 8.35 9.98333 8.35 10.15C8.35 10.3167 8.40417 10.4542 8.5125 10.5625C8.62083 10.6708 8.75833 10.725 8.925 10.725H13.9C13.8 11.0583 13.6083 11.3458 13.325 11.5875C13.0417 11.8292 12.6583 11.95 12.175 11.95H10.475C10.2583 11.95 10.0708 12 9.9125 12.1C9.75417 12.2 9.63333 12.3417 9.55 12.525C9.46667 12.7083 9.44167 12.8958 9.475 13.0875C9.50833 13.2792 9.6 13.4583 9.75 13.625L13.5 17.725C13.6667 17.9083 13.875 18 14.125 18C14.375 18 14.5917 17.9167 14.775 17.75ZM12.5 22.5C11.1167 22.5 9.81667 22.2375 8.6 21.7125C7.38333 21.1875 6.325 20.475 5.425 19.575C4.525 18.675 3.8125 17.6167 3.2875 16.4C2.7625 15.1833 2.5 13.8833 2.5 12.5C2.5 11.1167 2.7625 9.81667 3.2875 8.6C3.8125 7.38333 4.525 6.325 5.425 5.425C6.325 4.525 7.38333 3.8125 8.6 3.2875C9.81667 2.7625 11.1167 2.5 12.5 2.5C13.8833 2.5 15.1833 2.7625 16.4 3.2875C17.6167 3.8125 18.675 4.525 19.575 5.425C20.475 6.325 21.1875 7.38333 21.7125 8.6C22.2375 9.81667 22.5 11.1167 22.5 12.5C22.5 13.8833 22.2375 15.1833 21.7125 16.4C21.1875 17.6167 20.475 18.675 19.575 19.575C18.675 20.475 17.6167 21.1875 16.4 21.7125C15.1833 22.2375 13.8833 22.5 12.5 22.5ZM12.5 20.5C14.7333 20.5 16.625 19.725 18.175 18.175C19.725 16.625 20.5 14.7333 20.5 12.5C20.5 10.2667 19.725 8.375 18.175 6.825C16.625 5.275 14.7333 4.5 12.5 4.5C10.2667 4.5 8.375 5.275 6.825 6.825C5.275 8.375 4.5 10.2667 4.5 12.5C4.5 14.7333 5.275 16.625 6.825 18.175C8.375 19.725 10.2667 20.5 12.5 20.5Z" fill="#1C1B1F"/>
</g>
</svg>
