<svg width="25" height="24" viewBox="0 0 25 24" fill="none" xmlns="http://www.w3.org/2000/svg">
<mask id="mask0_5652_1271" style="mask-type:alpha" maskUnits="userSpaceOnUse" x="0" y="0" width="25" height="24">
<rect x="0.5" width="24" height="24" fill="#D9D9D9"/>
</mask>
<g mask="url(#mask0_5652_1271)">
<path d="M2.5 21C2.21667 21 1.97917 20.9042 1.7875 20.7125C1.59583 20.5208 1.5 20.2833 1.5 20C1.5 19.7167 1.59583 19.4792 1.7875 19.2875C1.97917 19.0958 2.21667 19 2.5 19H22.5C22.7833 19 23.0208 19.0958 23.2125 19.2875C23.4042 19.4792 23.5 19.7167 23.5 20C23.5 20.2833 23.4042 20.5208 23.2125 20.7125C23.0208 20.9042 22.7833 21 22.5 21H2.5ZM4.5 18C3.95 18 3.47917 17.8042 3.0875 17.4125C2.69583 17.0208 2.5 16.55 2.5 16V11H7.875L9.6 14.45C9.68333 14.6167 9.80417 14.75 9.9625 14.85C10.1208 14.95 10.2917 15 10.475 15C10.6583 15 10.8333 14.9583 11 14.875C11.1667 14.7917 11.2917 14.6667 11.375 14.5L14.45 9.125L15.1 10.45C15.1833 10.6333 15.3083 10.7708 15.475 10.8625C15.6417 10.9542 15.8167 11 16 11H22.5V16C22.5 16.55 22.3042 17.0208 21.9125 17.4125C21.5208 17.8042 21.05 18 20.5 18H4.5ZM10.575 11.875L9.4 9.55C9.31667 9.38333 9.19167 9.25 9.025 9.15C8.85833 9.05 8.68333 9 8.5 9H2.5V5C2.5 4.45 2.69583 3.97917 3.0875 3.5875C3.47917 3.19583 3.95 3 4.5 3H20.5C21.05 3 21.5208 3.19583 21.9125 3.5875C22.3042 3.97917 22.5 4.45 22.5 5V9H16.625L15.4 6.55C15.3167 6.36667 15.1917 6.22917 15.025 6.1375C14.8583 6.04583 14.6833 6 14.5 6C14.3167 6 14.15 6.04583 14 6.1375C13.85 6.22917 13.7333 6.35 13.65 6.5L10.575 11.875Z" fill="#FF6700"/>
</g>
</svg>
