<svg width="25" height="24" viewBox="0 0 25 24" fill="none" xmlns="http://www.w3.org/2000/svg">
<mask id="mask0_5652_2816" style="mask-type:alpha" maskUnits="userSpaceOnUse" x="0" y="0" width="25" height="24">
<rect x="0.75" width="24" height="24" fill="#D9D9D9"/>
</mask>
<g mask="url(#mask0_5652_2816)">
<path d="M6.75 22C6.2 22 5.72917 21.8042 5.3375 21.4125C4.94583 21.0208 4.75 20.55 4.75 20V8C4.75 7.45 4.94583 6.97917 5.3375 6.5875C5.72917 6.19583 6.2 6 6.75 6H8.75C8.75 4.9 9.14167 3.95833 9.925 3.175C10.7083 2.39167 11.65 2 12.75 2C13.85 2 14.7917 2.39167 15.575 3.175C16.3583 3.95833 16.75 4.9 16.75 6H18.75C19.3 6 19.7708 6.19583 20.1625 6.5875C20.5542 6.97917 20.75 7.45 20.75 8V20C20.75 20.55 20.5542 21.0208 20.1625 21.4125C19.7708 21.8042 19.3 22 18.75 22H6.75ZM10.75 6H14.75C14.75 5.45 14.5542 4.97917 14.1625 4.5875C13.7708 4.19583 13.3 4 12.75 4C12.2 4 11.7292 4.19583 11.3375 4.5875C10.9458 4.97917 10.75 5.45 10.75 6ZM15.75 11C16.0333 11 16.2708 10.9042 16.4625 10.7125C16.6542 10.5208 16.75 10.2833 16.75 10V8H14.75V10C14.75 10.2833 14.8458 10.5208 15.0375 10.7125C15.2292 10.9042 15.4667 11 15.75 11ZM9.75 11C10.0333 11 10.2708 10.9042 10.4625 10.7125C10.6542 10.5208 10.75 10.2833 10.75 10V8H8.75V10C8.75 10.2833 8.84583 10.5208 9.0375 10.7125C9.22917 10.9042 9.46667 11 9.75 11Z" fill="#FF6700"/>
</g>
</svg>
