<svg width="24" height="24" viewBox="0 0 24 24" fill="none" xmlns="http://www.w3.org/2000/svg">
<mask id="mask0_2933_44791" style="mask-type:alpha" maskUnits="userSpaceOnUse" x="0" y="0" width="24" height="24">
<rect width="24" height="24" fill="#D9D9D9"/>
</mask>
<g mask="url(#mask0_2933_44791)">
<path d="M4 21.0001C3.71667 21.0001 3.47917 20.9043 3.2875 20.7126C3.09583 20.5209 3 20.2834 3 20.0001V19.0001C3 18.7168 3.09583 18.4793 3.2875 18.2876C3.47917 18.0959 3.71667 18.0001 4 18.0001C4.28333 18.0001 4.52083 18.0959 4.7125 18.2876C4.90417 18.4793 5 18.7168 5 19.0001V20.0001C5 20.2834 4.90417 20.5209 4.7125 20.7126C4.52083 20.9043 4.28333 21.0001 4 21.0001ZM8 21.0001C7.71667 21.0001 7.47917 20.9043 7.2875 20.7126C7.09583 20.5209 7 20.2834 7 20.0001V14.5001C7 14.2168 7.09583 13.9793 7.2875 13.7876C7.47917 13.5959 7.71667 13.5001 8 13.5001C8.28333 13.5001 8.52083 13.5959 8.7125 13.7876C8.90417 13.9793 9 14.2168 9 14.5001V20.0001C9 20.2834 8.90417 20.5209 8.7125 20.7126C8.52083 20.9043 8.28333 21.0001 8 21.0001ZM12 21.0001C11.7167 21.0001 11.4792 20.9043 11.2875 20.7126C11.0958 20.5209 11 20.2834 11 20.0001V16.5001C11 16.2168 11.0958 15.9793 11.2875 15.7876C11.4792 15.5959 11.7167 15.5001 12 15.5001C12.2833 15.5001 12.5208 15.5959 12.7125 15.7876C12.9042 15.9793 13 16.2168 13 16.5001V20.0001C13 20.2834 12.9042 20.5209 12.7125 20.7126C12.5208 20.9043 12.2833 21.0001 12 21.0001ZM16 21.0001C15.7167 21.0001 15.4792 20.9043 15.2875 20.7126C15.0958 20.5209 15 20.2834 15 20.0001V15.0001C15 14.7168 15.0958 14.4793 15.2875 14.2876C15.4792 14.0959 15.7167 14.0001 16 14.0001C16.2833 14.0001 16.5208 14.0959 16.7125 14.2876C16.9042 14.4793 17 14.7168 17 15.0001V20.0001C17 20.2834 16.9042 20.5209 16.7125 20.7126C16.5208 20.9043 16.2833 21.0001 16 21.0001ZM20 21.0001C19.7167 21.0001 19.4792 20.9043 19.2875 20.7126C19.0958 20.5209 19 20.2834 19 20.0001V11.0001C19 10.7168 19.0958 10.4793 19.2875 10.2876C19.4792 10.0959 19.7167 10.0001 20 10.0001C20.2833 10.0001 20.5208 10.0959 20.7125 10.2876C20.9042 10.4793 21 10.7168 21 11.0001V20.0001C21 20.2834 20.9042 20.5209 20.7125 20.7126C20.5208 20.9043 20.2833 21.0001 20 21.0001ZM14 11.9751C13.7333 11.9751 13.4792 11.9251 13.2375 11.8251C12.9958 11.7251 12.775 11.5834 12.575 11.4001L10 8.82511L4.7 14.1251C4.5 14.3251 4.2625 14.4209 3.9875 14.4126C3.7125 14.4043 3.475 14.3001 3.275 14.1001C3.09167 13.9001 3.00417 13.6626 3.0125 13.3876C3.02083 13.1126 3.11667 12.8834 3.3 12.7001L8.575 7.42511C8.775 7.22511 8.99583 7.07928 9.2375 6.98761C9.47917 6.89594 9.73333 6.85011 10 6.85011C10.2667 6.85011 10.525 6.89594 10.775 6.98761C11.025 7.07928 11.2417 7.22511 11.425 7.42511L14 10.0001L19.3 4.70011C19.5 4.50011 19.7375 4.40428 20.0125 4.41261C20.2875 4.42094 20.525 4.52511 20.725 4.72511C20.9083 4.92511 20.9958 5.16261 20.9875 5.43761C20.9792 5.71261 20.8833 5.94178 20.7 6.12511L15.425 11.4001C15.2417 11.5834 15.025 11.7251 14.775 11.8251C14.525 11.9251 14.2667 11.9751 14 11.9751Z" fill="#FABA0A"/>
</g>
</svg>
