<svg width="16" height="10" viewBox="0 0 16 10" fill="none" xmlns="http://www.w3.org/2000/svg">
<path d="M1.0625 9.82296L0 8.76046L4.08333 4.67712C4.56944 4.19101 5.15972 3.94796 5.85417 3.94796C6.54861 3.94796 7.13889 4.19101 7.625 4.67712L8.33333 5.38546C8.52778 5.5799 8.76389 5.67712 9.04167 5.67712C9.31944 5.67712 9.55556 5.5799 9.75 5.38546L13.4375 1.67712H11V0.177124H16V5.17712H14.5V2.73962L10.7917 6.42712C10.3056 6.91324 9.71528 7.15629 9.02083 7.15629C8.32639 7.15629 7.73611 6.91324 7.25 6.42712L6.5625 5.73962C6.36806 5.54518 6.13194 5.44796 5.85417 5.44796C5.57639 5.44796 5.34028 5.54518 5.14583 5.73962L1.0625 9.82296Z" fill="#00B55E"/>
</svg>
