<svg width="70" height="70" viewBox="0 0 70 70" fill="none" xmlns="http://www.w3.org/2000/svg">
    <rect opacity="0.6" width="70" height="70" rx="5"  /><!--fill="#E3ECF9"-->
    <g opacity="0.7">
        <path
            d="M32.1691 40.8975H26.9272C26.6406 40.8975 26.4082 41.127 26.4082 41.4103C26.4082 41.6935 26.6406 41.9231 26.9272 41.9231H32.1691C32.4557 41.9231 32.6881 41.6935 32.6881 41.4103C32.6881 41.127 32.4557 40.8975 32.1691 40.8975Z"
            fill="#1C74D0" />
        <path
            d="M40.006 40.8975H34.7641C34.4775 40.8975 34.2451 41.127 34.2451 41.4103C34.2451 41.6935 34.4775 41.9231 34.7641 41.9231H40.006C40.2926 41.9231 40.525 41.6935 40.525 41.4103C40.525 41.127 40.2926 40.8975 40.006 40.8975Z"
            fill="#1C74D0" />
        <path
            d="M40.006 28.0771H26.9272C26.6406 28.0771 26.4082 28.3067 26.4082 28.59C26.4082 28.8732 26.6406 29.1028 26.9272 29.1028H40.006C40.2926 29.1028 40.525 28.8732 40.525 28.59C40.525 28.3067 40.2926 28.0771 40.006 28.0771Z"
            fill="#1C74D0" />
        <path
            d="M40.006 30.6411H34.7641C34.4775 30.6411 34.2451 30.8707 34.2451 31.1539C34.2451 31.4372 34.4775 31.6667 34.7641 31.6667H40.006C40.2926 31.6667 40.525 31.4372 40.525 31.1539C40.525 30.8707 40.2926 30.6411 40.006 30.6411Z"
            fill="#1C74D0" />
        <path
            d="M40.006 33.2054H34.7641C34.4775 33.2054 34.2451 33.435 34.2451 33.7183C34.2451 34.0015 34.4775 34.2311 34.7641 34.2311H40.006C40.2926 34.2311 40.525 34.0015 40.525 33.7183C40.525 33.435 40.2926 33.2054 40.006 33.2054Z"
            fill="#1C74D0" />
        <path
            d="M40.006 35.7693H34.7641C34.4775 35.7693 34.2451 35.9989 34.2451 36.2821C34.2451 36.5653 34.4775 36.7949 34.7641 36.7949H40.006C40.2926 36.7949 40.525 36.5653 40.525 36.2821C40.525 35.9989 40.2926 35.7693 40.006 35.7693Z"
            fill="#1C74D0" />
        <path
            d="M40.006 38.3336H34.7641C34.4775 38.3336 34.2451 38.5632 34.2451 38.8464C34.2451 39.1297 34.4775 39.3592 34.7641 39.3592H40.006C40.2926 39.3592 40.525 39.1297 40.525 38.8464C40.525 38.5632 40.2926 38.3336 40.006 38.3336Z"
            fill="#1C74D0" />
        <path
            d="M32.1691 38.3336H26.9272C26.6406 38.3336 26.4082 38.5632 26.4082 38.8464C26.4082 39.1297 26.6406 39.3592 26.9272 39.3592H32.1691C32.4557 39.3592 32.6881 39.1297 32.6881 38.8464C32.6881 38.5632 32.4557 38.3336 32.1691 38.3336Z"
            fill="#1C74D0" />
        <path
            d="M32.1691 30.6411H26.9272C26.6406 30.6411 26.4082 30.8707 26.4082 31.1539V36.3334C26.4082 36.6166 26.6406 36.8462 26.9272 36.8462H32.1691C32.4557 36.8462 32.6881 36.6166 32.6881 36.3334V31.1539C32.6881 30.8707 32.4557 30.6411 32.1691 30.6411ZM31.6501 35.8205H27.4462V31.6667H31.6501V35.8205Z"
            fill="#1C74D0" />
        <path
            d="M45.1957 27.5643H43.6388V26.0259C43.6388 25.4603 43.1731 25.0002 42.6007 25.0002H24.3319C23.7596 25.0002 23.2939 25.4603 23.2939 26.0259V42.436C23.2939 43.8498 24.4581 45 25.8889 45H43.6388C45.0696 45 46.2337 43.8498 46.2337 42.436V28.5899C46.2337 28.0244 45.7681 27.5643 45.1957 27.5643ZM45.1957 42.436C45.1957 43.2843 44.4973 43.9744 43.6388 43.9744H25.8889C25.0304 43.9744 24.3319 43.2843 24.3319 42.436V26.0259H42.6007V41.6667C42.6007 42.3736 43.1828 42.9488 43.8982 42.9488C44.1848 42.9488 44.4172 42.7192 44.4172 42.436C44.4172 42.1527 44.1848 41.9231 43.8982 41.9231C43.7552 41.9231 43.6388 41.8081 43.6388 41.6667V28.5899H45.1957V42.436Z"
            fill="#1C74D0" />
    </g>
</svg>
