<svg width="95" height="105" viewBox="0 0 95 105" fill="none" xmlns="http://www.w3.org/2000/svg">
<circle cx="47.5" cy="47" r="47" fill="#E5EAF7"/>
<path d="M11.75 99.0044L11.75 14.2827C11.75 13.334 12.5772 12.5371 13.6332 12.5371H83.4522C84.5083 12.5371 85.3354 13.334 85.3354 14.2827V99.0044C85.3354 99.953 84.5083 100.75 83.4522 100.75H13.6332C12.5772 100.75 11.75 99.953 11.75 99.0044Z" fill="white" stroke="#D3DAE1" stroke-width="0.5"/>
<g clip-path="url(#clip0_6395_80051)">
<path d="M50.375 61.5H46.625C46.1072 61.5 45.6875 61.0803 45.6875 60.5625C45.6875 60.0447 46.1072 59.625 46.625 59.625H50.375C50.8928 59.625 51.3125 60.0447 51.3125 60.5625C51.3125 61.0803 50.8928 61.5 50.375 61.5Z" fill="#999999"/>
<path d="M56 59.625C55.4831 59.625 55.0625 59.2044 55.0625 58.6875V55.3125C55.0625 53.6941 54.4683 52.1395 53.3893 50.9351C53.0438 50.5494 52.4511 50.5169 52.0655 50.8623C51.6798 51.2078 51.6472 51.8005 51.9927 52.1862C52.7632 53.0462 53.1875 54.1565 53.1875 55.3125V58.6875C53.1875 60.2383 54.4492 61.5 56 61.5C56.5169 61.5 56.9375 61.9206 56.9375 62.4375C56.9375 62.9544 56.5169 63.375 56 63.375H41C40.4831 63.375 40.0625 62.9544 40.0625 62.4375C40.0625 61.9206 40.4831 61.5 41 61.5C42.5508 61.5 43.8125 60.2383 43.8125 58.6875V55.3125C43.8125 52.7278 45.9153 50.625 48.5 50.625C50.0508 50.625 51.3125 49.3633 51.3125 47.8125C51.3125 46.2617 50.0508 45 48.5 45C46.9492 45 45.6875 46.2617 45.6875 47.8125C45.6875 48.3244 45.8257 48.8044 46.0657 49.2184C43.6489 50.1872 41.9375 52.5537 41.9375 55.3125V58.6875C41.9375 59.2044 41.5169 59.625 41 59.625C39.4492 59.625 38.1875 60.8867 38.1875 62.4375C38.1875 63.9883 39.4492 65.25 41 65.25H45.8488C45.7447 65.5434 45.6875 65.8589 45.6875 66.1875C45.6875 67.7383 46.9492 69 48.5 69C50.0508 69 51.3125 67.7383 51.3125 66.1875C51.3125 65.8589 51.2553 65.5434 51.1512 65.25H56C57.5508 65.25 58.8125 63.9883 58.8125 62.4375C58.8125 60.8867 57.5508 59.625 56 59.625ZM47.5625 47.8125C47.5625 47.2956 47.9831 46.875 48.5 46.875C49.0169 46.875 49.4375 47.2956 49.4375 47.8125C49.4375 48.3294 49.0169 48.75 48.5 48.75C47.9831 48.75 47.5625 48.3294 47.5625 47.8125ZM49.4375 66.1875C49.4375 66.7044 49.0169 67.125 48.5 67.125C47.9831 67.125 47.5625 66.7044 47.5625 66.1875C47.5625 65.6706 47.9831 65.25 48.5 65.25C49.0169 65.25 49.4375 65.6706 49.4375 66.1875Z" fill="#999999"/>
<path d="M40.0625 53.4375C40.0625 52.9197 39.6428 52.5 39.125 52.5H37.4375C36.9197 52.5 36.5 52.9197 36.5 53.4375C36.5 53.9553 36.9197 54.375 37.4375 54.375H39.125C39.6428 54.375 40.0625 53.9553 40.0625 53.4375Z" fill="#999999"/>
<path d="M40.3371 50.3504C40.7032 50.7166 41.2968 50.7166 41.6629 50.3504C42.029 49.9843 42.029 49.3907 41.6629 49.0246L39.7879 47.1496C39.4218 46.7835 38.8282 46.7835 38.4621 47.1496C38.096 47.5157 38.0959 48.1093 38.4621 48.4754L40.3371 50.3504Z" fill="#999999"/>
<path d="M56.6629 50.3504L58.5379 48.4754C58.9041 48.1093 58.9041 47.5157 58.5379 47.1496C58.1718 46.7835 57.5782 46.7834 57.2121 47.1496L55.3371 49.0246C54.971 49.3907 54.971 49.9843 55.3371 50.3504C55.7032 50.7165 56.2968 50.7165 56.6629 50.3504Z" fill="#999999"/>
<path d="M59.5625 52.5H57.875C57.3572 52.5 56.9375 52.9197 56.9375 53.4375C56.9375 53.9553 57.3572 54.375 57.875 54.375H59.5625C60.0803 54.375 60.5 53.9553 60.5 53.4375C60.5 52.9197 60.0803 52.5 59.5625 52.5Z" fill="#999999"/>
</g>
<path d="M12.4506 11.5352H82.4964C83.5714 11.5352 84.4448 12.4168 84.4448 13.5018V20.0151H10.3594V13.646C10.3594 12.4789 11.2972 11.5352 12.4506 11.5352Z" fill="#FF6700"/>
<path d="M15.7504 15.472C15.7504 16.2012 15.1543 16.7917 14.4182 16.7917C13.6821 16.7917 13.0859 16.2012 13.0859 15.472C13.0859 14.7429 13.6821 14.1523 14.4182 14.1523C15.1543 14.1523 15.7504 14.7429 15.7504 15.472Z" fill="white"/>
<path d="M19.3481 15.472C19.3481 16.2012 18.7519 16.7917 18.0158 16.7917C17.2797 16.7917 16.6836 16.2012 16.6836 15.472C16.6836 14.7429 17.2797 14.1523 18.0158 14.1523C18.7519 14.1523 19.3481 14.7429 19.3481 15.472Z" fill="white"/>
<path d="M22.9457 15.472C22.9457 16.2012 22.3496 16.7917 21.6135 16.7917C20.8774 16.7917 20.2812 16.2012 20.2812 15.472C20.2812 14.7429 20.8774 14.1523 21.6135 14.1523C22.3496 14.1523 22.9457 14.7429 22.9457 15.472Z" fill="white"/>
<defs>
<clipPath id="clip0_6395_80051">
<rect width="24" height="24" fill="white" transform="translate(36.5 45)"/>
</clipPath>
</defs>
</svg>
