<svg width="70" height="82" viewBox="0 0 70 82" fill="none" xmlns="http://www.w3.org/2000/svg">
<path d="M64.3167 21.8084C64.2924 21.4831 64.0201 21.2314 63.6941 21.2314H52.454V18.1091C52.454 8.12351 44.3299 0 34.3448 0C24.3598 0 16.2357 8.12351 16.2357 18.1091V21.2314H4.99554C4.66958 21.2314 4.39732 21.4831 4.37296 21.8084L0.00179035 79.2581C-0.0113232 79.4311 0.0479999 79.6022 0.166646 79.7296C0.284668 79.8576 0.450772 79.93 0.62437 79.93H68.0653C68.2389 79.93 68.405 79.8576 68.523 79.7302C68.6411 79.6028 68.701 79.4317 68.6879 79.2587L64.3167 21.8084ZM21.2313 18.1091C21.2313 10.8786 27.1137 4.99563 34.3448 4.99563C41.576 4.99563 47.4584 10.8786 47.4584 18.1091V21.2314H21.2313V18.1091ZM18.7335 38.7161C15.2897 38.7161 12.489 35.9148 12.489 32.4716C12.489 29.9794 13.7379 27.7338 16.2357 26.7485V32.4716C16.2357 33.8491 17.3566 34.9694 18.7335 34.9694C20.1104 34.9694 21.2313 33.8491 21.2313 32.4716V26.7522C23.7291 27.7376 24.978 30 24.978 32.4716C24.978 35.9148 22.1774 38.7161 18.7335 38.7161ZM49.9562 38.7161C46.5123 38.7161 43.7116 35.9148 43.7116 32.4716C43.7116 29.9794 44.9606 27.7338 47.4584 26.7485V32.4716C47.4584 33.8491 48.5793 34.9694 49.9562 34.9694C51.3331 34.9694 52.454 33.8491 52.454 32.4716V26.7522C54.9518 27.7376 56.2007 30 56.2007 32.4716C56.2007 35.9148 53.4 38.7161 49.9562 38.7161Z" fill="#98AFC9"/>
<circle cx="19.2761" cy="35.3793" r="9.1723" fill="#007AE0"/>
<circle cx="50.7239" cy="35.3793" r="9.1723" fill="#007AE0"/>
<path d="M65.6271 23.119C65.6027 22.7936 65.3304 22.542 65.0045 22.542H53.7643V19.4197C53.7643 9.43406 45.6402 1.31055 35.6552 1.31055C25.6702 1.31055 17.546 9.43406 17.546 19.4197V22.542H6.30588C5.97991 22.542 5.70765 22.7936 5.6833 23.119L1.31212 80.5687C1.29901 80.7416 1.35833 80.9127 1.47698 81.0401C1.595 81.1681 1.76111 81.2406 1.9347 81.2406H69.3756C69.5492 81.2406 69.7154 81.1681 69.8334 81.0407C69.9514 80.9133 70.0113 80.7422 69.9982 80.5693L65.6271 23.119ZM22.5417 19.4197C22.5417 12.1891 28.424 6.30617 35.6552 6.30617C42.8863 6.30617 48.7687 12.1891 48.7687 19.4197V22.542H22.5417V19.4197ZM20.0438 40.0266C16.6 40.0266 13.7993 37.2253 13.7993 33.7821C13.7993 31.2899 15.0482 29.0444 17.546 28.059V33.7821C17.546 35.1597 18.6669 36.2799 20.0438 36.2799C21.4208 36.2799 22.5417 35.1597 22.5417 33.7821V28.0627C25.0395 29.0481 26.2884 31.3105 26.2884 33.7821C26.2884 37.2253 23.4877 40.0266 20.0438 40.0266ZM51.2665 40.0266C47.8226 40.0266 45.022 37.2253 45.022 33.7821C45.022 31.2899 46.2709 29.0444 48.7687 28.059V33.7821C48.7687 35.1597 49.8896 36.2799 51.2665 36.2799C52.6434 36.2799 53.7643 35.1597 53.7643 33.7821V28.0627C56.2621 29.0481 57.511 31.3105 57.511 33.7821C57.511 37.2253 54.7104 40.0266 51.2665 40.0266Z" fill="#D2E2F3"/>
<path fill-rule="evenodd" clip-rule="evenodd" d="M20.1439 63.5335C21.2198 64.5016 22.8768 64.4142 23.8449 63.3382C27.0212 59.808 31.4457 57.6544 36.3104 57.6544C41.175 57.6544 45.5995 59.808 48.7758 63.3382C49.7439 64.4142 51.4009 64.5016 52.4768 63.5335C53.5527 62.5655 53.6402 60.9085 52.6721 59.8325C48.5829 55.2876 42.7781 52.4131 36.3104 52.4131C29.8426 52.4131 24.0378 55.2876 19.9486 59.8325C18.9805 60.9085 19.0679 62.5655 20.1439 63.5335Z" fill="#007AE0"/>
</svg>
