<svg width="79" height="77" viewBox="0 0 79 77" fill="none" xmlns="http://www.w3.org/2000/svg">
<path d="M50.6453 0H11.0394C4.94251 0 0 4.94251 0 11.0394V63.7905C0 69.8874 4.94251 74.8299 11.0394 74.8299H50.6453C56.7422 74.8299 61.6847 69.8874 61.6847 63.7905V11.0394C61.6847 4.94251 56.7422 0 50.6453 0Z" fill="url(#paint0_linear_129_1579)"/>
<rect x="10.6208" y="15.7529" width="45.9482" height="43.3226" fill="white"/>
<path d="M53.3894 0H13.7835C7.68665 0 2.74414 4.94251 2.74414 11.0394V63.7905C2.74414 69.8874 7.68665 74.8299 13.7835 74.8299H53.3894C59.4863 74.8299 64.4288 69.8874 64.4288 63.7905V11.0394C64.4288 4.94251 59.4863 0 53.3894 0ZM17.5052 20.8814H49.6676C51.0745 20.8803 52.2159 22.02 52.2171 23.427C52.2183 24.8339 51.0785 25.9755 49.6715 25.9765H49.6676H17.5052C16.0983 25.9765 14.9577 24.8359 14.9577 23.429C14.9577 22.022 16.0983 20.8814 17.5052 20.8814ZM49.2709 53.9486H17.9021C16.4951 53.9486 15.3545 52.808 15.3545 51.4011C15.3545 49.9941 16.4951 48.8535 17.9021 48.8535H49.2709C50.6778 48.8535 51.8184 49.9941 51.8184 51.4011C51.8184 52.808 50.6778 53.9486 49.2709 53.9486ZM49.2709 39.9625H17.9021C16.4951 39.9625 15.3545 38.8219 15.3545 37.415C15.3545 36.008 16.4951 34.8674 17.9021 34.8674H49.2709C50.6778 34.8674 51.8184 36.008 51.8184 37.415C51.8184 38.8219 50.6778 39.9625 49.2709 39.9625Z" fill="#D2E2F3"/>
<path d="M58.0247 58.6836L69.1475 65.1813L62.6498 76.3041L51.527 69.8064L58.0247 58.6836Z" fill="#007AE0"/>
<path d="M62.6963 21.751L78.8855 31.2083L69.4282 47.3975L53.239 37.9402L62.6963 21.751Z" fill="#007AE0"/>
<defs>
<linearGradient id="paint0_linear_129_1579" x1="-62.3361" y1="81.6545" x2="24.3163" y2="81.3263" gradientUnits="userSpaceOnUse">
<stop stop-color="#CADCF0"/>
<stop offset="1" stop-color="#95AED1"/>
</linearGradient>
</defs>
</svg>
