<svg width="94" height="105" viewBox="0 0 94 105" fill="none" xmlns="http://www.w3.org/2000/svg">
<circle cx="47" cy="47" r="47" fill="#E5EAF7"/>
<path d="M11.25 99.0044L11.25 14.2827C11.25 13.334 12.0772 12.5371 13.1332 12.5371H82.9522C84.0083 12.5371 84.8354 13.334 84.8354 14.2827V99.0044C84.8354 99.953 84.0083 100.75 82.9522 100.75H13.1332C12.0772 100.75 11.25 99.953 11.25 99.0044Z" fill="white" stroke="#D3DAE1" stroke-width="0.5"/>
<mask id="mask0_6395_80185" style="mask-type:alpha" maskUnits="userSpaceOnUse" x="32" y="40" width="31" height="32">
<rect x="32.2578" y="40.9824" width="30.7422" height="30.7422" fill="#D9D9D9"/>
</mask>
<g mask="url(#mask0_6395_80185)">
<path d="M39.0578 67.2406C38.419 67.2406 37.8734 67.0144 37.4208 66.562C36.9684 66.1094 36.7422 65.5637 36.7422 64.925V47.7804C36.7422 47.1417 36.9684 46.596 37.4208 46.1434C37.8734 45.691 38.419 45.4648 39.0578 45.4648H56.2023C56.8411 45.4648 57.3867 45.691 57.8393 46.1434C58.2917 46.596 58.5179 47.1417 58.5179 47.7804V55.8823C58.2026 55.7476 57.8868 55.6335 57.5707 55.54C57.2545 55.4462 56.9298 55.3715 56.5965 55.3158V47.7804C56.5965 47.6818 56.5554 47.5915 56.4732 47.5095C56.3912 47.4273 56.3009 47.3862 56.2023 47.3862H39.0578C38.9591 47.3862 38.8688 47.4273 38.7869 47.5095C38.7047 47.5915 38.6636 47.6818 38.6636 47.7804V64.925C38.6636 65.0236 38.7047 65.1139 38.7869 65.1959C38.8688 65.2781 38.9591 65.3192 39.0578 65.3192H46.5611C46.6087 65.6738 46.6793 66.0092 46.7728 66.3253C46.8665 66.6415 46.9806 66.9466 47.1151 67.2406H39.0578ZM38.6636 65.3192V47.3862V55.3158V55.2197V65.3192ZM41.5457 62.2891H46.6914C46.7474 61.9559 46.8303 61.6312 46.9403 61.315C47.0504 60.9988 47.1703 60.6832 47.2999 60.3681H41.5457V62.2891ZM41.5457 57.3134H49.6674C50.219 56.8454 50.8077 56.4534 51.4334 56.1372C52.0592 55.821 52.7292 55.5964 53.4435 55.4634V55.392H41.5457V57.3134ZM41.5457 52.3373H53.7144V50.4163H41.5457V52.3373ZM55.3156 69.8764C53.7161 69.8764 52.3556 69.3156 51.2339 68.1939C50.1123 67.0722 49.5514 65.7117 49.5514 64.1122C49.5514 62.5128 50.1123 61.1522 51.2339 60.0306C52.3556 58.9089 53.7161 58.3481 55.3156 58.3481C56.915 58.3481 58.2756 58.9089 59.3973 60.0306C60.5189 61.1522 61.0798 62.5128 61.0798 64.1122C61.0798 65.7117 60.5189 67.0722 59.3973 68.1939C58.2756 69.3156 56.915 69.8764 55.3156 69.8764ZM54.7491 67.881H55.8821V64.6787H59.0844V63.5457H55.8821V60.3434H54.7491V63.5457H51.5468V64.6787H54.7491V67.881Z" fill="#999999"/>
</g>
<path d="M11.9506 11.5352H81.9964C83.0714 11.5352 83.9448 12.4168 83.9448 13.5018V20.0151H9.85938V13.646C9.85938 12.4789 10.7972 11.5352 11.9506 11.5352Z" fill="#FF6700"/>
<path d="M15.2504 15.472C15.2504 16.2012 14.6543 16.7917 13.9182 16.7917C13.1821 16.7917 12.5859 16.2012 12.5859 15.472C12.5859 14.7429 13.1821 14.1523 13.9182 14.1523C14.6543 14.1523 15.2504 14.7429 15.2504 15.472Z" fill="white"/>
<path d="M18.8481 15.472C18.8481 16.2012 18.2519 16.7917 17.5158 16.7917C16.7797 16.7917 16.1836 16.2012 16.1836 15.472C16.1836 14.7429 16.7797 14.1523 17.5158 14.1523C18.2519 14.1523 18.8481 14.7429 18.8481 15.472Z" fill="white"/>
<path d="M22.4457 15.472C22.4457 16.2012 21.8496 16.7917 21.1135 16.7917C20.3774 16.7917 19.7812 16.2012 19.7812 15.472C19.7812 14.7429 20.3774 14.1523 21.1135 14.1523C21.8496 14.1523 22.4457 14.7429 22.4457 15.472Z" fill="white"/>
</svg>
