<svg width="87" height="66" viewBox="0 0 87 66" fill="none" xmlns="http://www.w3.org/2000/svg">
<path d="M25.1131 9.0308L24.0798 5.27122C23.8914 4.58783 23.1841 4.03223 22.4994 4.03223H0.94454C0.260482 4.03223 -0.141632 4.58783 0.0461651 5.27122L11.7277 47.7791H48.8107C56.8703 24.3162 69.7506 40.6975 61.0483 9.0308C21.2827 9.0308 42.6703 9.0308 25.1131 9.0308Z" fill="#98AFC9"/>
<path d="M30.9607 0L28.3871 7.81884H26.3255L25.2922 4.05926C25.1037 3.37587 24.3965 2.82027 23.7117 2.82027H2.15688C1.47282 2.82027 1.07071 3.37587 1.25851 4.05926L12.94 46.5671H50.023C52.7009 38.7713 60.2698 33.6337 69.3548 33.6337L62.2606 7.81884H31.6214L33.1909 3.05H82.1298L73.2682 34.1871C74.2669 34.4323 75.2359 34.7527 76.1682 35.1435L86.1955 0H30.9607Z" fill="url(#paint0_linear_162_3)"/>
<mask id="mask0_162_3" style="mask-type:alpha" maskUnits="userSpaceOnUse" x="1" y="0" width="86" height="47">
<path d="M30.9607 0L28.3871 7.81884H26.3255L25.2922 4.05926C25.1037 3.37587 24.3965 2.82027 23.7117 2.82027H2.15688C1.47282 2.82027 1.07071 3.37587 1.25851 4.05926L12.94 46.5671H50.023C52.7009 38.7713 60.2698 33.6337 69.3548 33.6337L62.2606 7.81884H31.6214L33.1909 3.05H82.1298L73.2682 34.1871C74.2669 34.4323 75.2359 34.7527 76.1682 35.1435L86.1955 0H30.9607Z" fill="#D2E2F3"/>
</mask>
<g mask="url(#mask0_162_3)">
<path d="M27.3283 -7.56055L76.4287 -5.13583L97.0388 0.925945L93.4017 37.2966L73.3978 36.0843L75.8226 7.5939L79.4596 5.77537L51.5754 7.69886L27.3283 7.80381V-7.56055Z" fill="#007AE0"/>
</g>
<path d="M67.9423 36.6904C59.92 36.6904 53.394 43.2165 53.394 51.2387C53.394 59.2609 59.92 65.787 67.9423 65.787C75.9645 65.787 82.4905 59.2609 82.4905 51.2387C82.4905 43.2165 75.9645 36.6904 67.9423 36.6904Z" fill="#007AE0"/>
<path d="M63.8505 45.8334L73.1348 55.1177C73.3089 55.2919 73.4068 55.5281 73.4068 55.7743C73.4068 56.0206 73.3089 56.2568 73.1348 56.431C72.9606 56.6051 72.7244 56.703 72.4782 56.703C72.2319 56.703 71.9957 56.6051 71.8215 56.431L62.5372 47.1467C62.3631 46.9725 62.2652 46.7363 62.2652 46.49C62.2652 46.2437 62.3631 46.0076 62.5372 45.8334C62.7114 45.6592 62.9476 45.5614 63.1938 45.5614C63.4401 45.5614 63.6763 45.6592 63.8505 45.8334Z" fill="url(#paint1_linear_162_3)"/>
<path d="M73.1348 47.1469L63.8505 56.4312C63.6763 56.6053 63.4401 56.7032 63.1939 56.7032C62.9476 56.7032 62.7114 56.6053 62.5372 56.4312C62.3631 56.257 62.2652 56.0208 62.2652 55.7745C62.2652 55.5283 62.3631 55.2921 62.5372 55.1179L71.8215 45.8336C71.9957 45.6594 72.2319 45.5616 72.4782 45.5616C72.7245 45.5616 72.9607 45.6594 73.1348 45.8336C73.309 46.0077 73.4068 46.2439 73.4068 46.4902C73.4068 46.7365 73.309 46.9727 73.1348 47.1469Z" fill="url(#paint2_linear_162_3)"/>
<defs>
<linearGradient id="paint0_linear_162_3" x1="1.21379" y1="23.2836" x2="86.196" y2="23.2836" gradientUnits="userSpaceOnUse">
<stop stop-color="#E9F3FC"/>
<stop offset="1" stop-color="#CADCF0"/>
</linearGradient>
<linearGradient id="paint1_linear_162_3" x1="62.5374" y1="45.8336" x2="73.1349" y2="56.431" gradientUnits="userSpaceOnUse">
<stop stop-color="#E9F3FC"/>
<stop offset="1" stop-color="#CADCF0"/>
</linearGradient>
<linearGradient id="paint2_linear_162_3" x1="73.1346" y1="45.8338" x2="62.5372" y2="56.4312" gradientUnits="userSpaceOnUse">
<stop stop-color="#E9F3FC"/>
<stop offset="1" stop-color="#CADCF0"/>
</linearGradient>
</defs>
</svg>
