<svg width="37" height="37" viewBox="0 0 37 37" fill="none" xmlns="http://www.w3.org/2000/svg">
<path d="M12.1301 21.9476L22.4288 11.6489C22.5968 11.475 22.7977 11.3363 23.0198 11.2409C23.2419 11.1455 23.4808 11.0953 23.7225 11.0932C23.9642 11.0911 24.204 11.1371 24.4277 11.2287C24.6514 11.3202 24.8547 11.4554 25.0256 11.6263C25.1966 11.7973 25.3318 12.0005 25.4233 12.2243C25.5148 12.448 25.5609 12.6877 25.5588 12.9295C25.5567 13.1712 25.5065 13.4101 25.4111 13.6322C25.3156 13.8543 25.177 14.0552 25.0031 14.2231L14.7061 24.5219C14.3648 24.8635 13.9017 25.0555 13.4188 25.0557C12.9358 25.0558 12.4726 24.8641 12.131 24.5228C11.7894 24.1814 11.5974 23.7183 11.5972 23.2354C11.597 22.7525 11.7887 22.2892 12.1301 21.9476ZM19.8546 22.7013C19.3718 22.7013 18.9087 22.8931 18.5673 23.2346C18.2259 23.576 18.0341 24.039 18.0341 24.5219C18.0357 25.0995 17.9228 25.6718 17.7019 26.2055C17.481 26.7392 17.1564 27.2239 16.747 27.6313L13.419 30.9593C12.3947 31.9838 11.0053 32.5595 9.5565 32.5597C8.1077 32.5599 6.71817 31.9845 5.6936 30.9602C4.66902 29.9359 4.09332 28.5465 4.09315 27.0977C4.09298 25.6489 4.66835 24.2593 5.69268 23.2348L9.02062 19.9068C9.4281 19.4974 9.91273 19.1728 10.4465 18.9519C10.9802 18.731 11.5524 18.6181 12.1301 18.6197C12.6129 18.6197 13.076 18.4279 13.4174 18.0865C13.7588 17.7451 13.9506 17.282 13.9506 16.7992C13.9506 16.3163 13.7588 15.8533 13.4174 15.5119C13.076 15.1705 12.6129 14.9786 12.1301 14.9786C11.0741 14.9758 10.0281 15.1824 9.0525 15.5864C8.0769 15.9905 7.19111 16.584 6.44639 17.3326L3.11845 20.6605C1.41139 22.3678 0.452466 24.6833 0.452637 27.0977C0.452807 29.512 1.41206 31.8274 3.11936 33.5344C4.82667 35.2415 7.14217 36.2004 9.5565 36.2002C11.9708 36.2001 14.2862 35.2408 15.9933 33.5335L19.3212 30.2056C20.0699 29.4609 20.6634 28.5751 21.0675 27.5995C21.4716 26.6239 21.6781 25.5778 21.6751 24.5219C21.6751 24.039 21.4833 23.576 21.1419 23.2346C20.8005 22.8931 20.3374 22.7013 19.8546 22.7013ZM21.1417 2.63908L17.8138 5.96701C17.0651 6.71134 16.4716 7.5968 16.0675 8.57211C15.6635 9.54742 15.4569 10.5932 15.4598 11.6489C15.4598 12.1317 15.6516 12.5948 15.9931 12.9362C16.3345 13.2776 16.7975 13.4694 17.2804 13.4694C17.7632 13.4694 18.2263 13.2776 18.5677 12.9362C18.9091 12.5948 19.1009 12.1317 19.1009 11.6489C19.0992 11.0715 19.2121 10.4995 19.433 9.96607C19.654 9.43263 19.9786 8.94833 20.388 8.54124L23.716 5.21331C24.7403 4.18898 26.1296 3.61351 27.5782 3.61351C29.0268 3.61351 30.4161 4.18898 31.4405 5.21331C32.4648 6.23765 33.0403 7.62694 33.0403 9.07557C33.0403 10.5242 32.4648 11.9135 31.4405 12.9378L28.1125 16.2658C27.7052 16.6754 27.2206 17 26.6868 17.221C26.1531 17.4419 25.5807 17.5547 25.0031 17.5529C24.5202 17.5529 24.0572 17.7447 23.7158 18.0861C23.3743 18.4275 23.1825 18.8906 23.1825 19.3734C23.1825 19.8562 23.3743 20.3193 23.7158 20.6607C24.0572 21.0021 24.5202 21.1939 25.0031 21.1939C26.059 21.1968 27.1051 20.9902 28.0807 20.5862C29.0563 20.1821 29.942 19.5886 30.6868 18.84L34.0147 15.5121C35.7094 13.8024 36.6579 11.4911 36.6527 9.08383C36.6474 6.67656 35.6888 4.3694 33.9866 2.66721C32.2844 0.96501 29.9772 0.00639182 27.57 0.00112049C25.1627 -0.00415084 22.8514 0.944354 21.1417 2.63908Z" fill="#002953" fill-opacity="0.8"/>
</svg>
