<svg width="100" height="39" viewBox="0 0 100 39" fill="none" xmlns="http://www.w3.org/2000/svg">
<path fill-rule="evenodd" clip-rule="evenodd" d="M53.2071 8.36267C52.8322 8.36524 52.4734 8.51276 52.2083 8.77329C51.9433 9.03381 51.7931 9.38645 51.7904 9.75488V10.1372L51.4614 9.94122C51.1347 9.7566 50.7467 9.70706 50.3828 9.80359C50.019 9.90011 49.7091 10.1347 49.5212 10.4558C49.3334 10.7769 49.283 11.1583 49.3812 11.5159C49.4794 11.8735 49.7181 12.1781 50.0448 12.3628L50.3741 12.549L50.0448 12.7353C49.7747 12.8885 49.5637 13.125 49.4443 13.4081C49.3249 13.6913 49.3039 14.0053 49.3846 14.3014C49.4653 14.5975 49.6432 14.8592 49.8907 15.0458C50.1381 15.2324 50.4411 15.3335 50.753 15.3334C51.0016 15.333 51.2459 15.2687 51.4614 15.147L51.7904 14.9608V15.3334C51.7904 15.7026 51.9398 16.0566 52.2054 16.3177C52.4711 16.5788 52.8314 16.7255 53.2071 16.7255C53.5827 16.7255 53.9428 16.5788 54.2085 16.3177C54.4741 16.0566 54.6235 15.7026 54.6235 15.3334V14.9608L54.9527 15.147C55.1138 15.2391 55.2918 15.2991 55.4765 15.3236C55.6612 15.348 55.849 15.3365 56.0291 15.2896C56.2093 15.2427 56.3782 15.1613 56.5264 15.0502C56.6746 14.9392 56.799 14.8005 56.8927 14.6421C56.9863 14.4838 57.0475 14.3088 57.0724 14.1273C57.0973 13.9457 57.0855 13.7613 57.0378 13.5842C56.9901 13.4071 56.9073 13.241 56.7943 13.0953C56.6813 12.9497 56.5402 12.8274 56.3791 12.7353L56.0498 12.549L56.3791 12.3628C56.6804 12.1648 56.8939 11.8616 56.976 11.5146C57.058 11.1676 57.0024 10.803 56.8208 10.4947C56.6392 10.1864 56.3452 9.95761 55.9982 9.85481C55.6512 9.752 55.2774 9.78292 54.9527 9.94122L54.6235 10.1372V9.75488C54.6235 9.38565 54.4741 9.03162 54.2085 8.77053C53.9428 8.50945 53.5827 8.36267 53.2071 8.36267ZM19.5113 8.36267C19.1364 8.36524 18.7776 8.51276 18.5126 8.77329C18.2475 9.03381 18.0973 9.38645 18.0947 9.75488V10.1372L17.7656 9.94122C17.4389 9.7566 17.0509 9.70706 16.687 9.80359C16.3232 9.90011 16.0133 10.1347 15.8254 10.4558C15.6376 10.7769 15.5872 11.1583 15.6854 11.5159C15.7836 11.8735 16.0223 12.1781 16.349 12.3628L16.6783 12.549L16.349 12.7353C16.0236 12.9199 15.7863 13.224 15.689 13.5807C15.5918 13.9374 15.6427 14.3174 15.8305 14.6372C16.0184 14.957 16.3278 15.1905 16.6907 15.2861C17.0536 15.3817 17.4402 15.3317 17.7656 15.147L18.0947 14.9608V15.3334C18.0782 15.5267 18.1028 15.7212 18.1667 15.9047C18.2307 16.0882 18.3327 16.2567 18.4663 16.3995C18.5999 16.5422 18.7622 16.6562 18.9429 16.7342C19.1236 16.8122 19.3188 16.8524 19.5162 16.8524C19.7135 16.8524 19.9087 16.8122 20.0894 16.7342C20.2701 16.6562 20.4327 16.5422 20.5663 16.3995C20.6999 16.2567 20.8019 16.0882 20.8658 15.9047C20.9298 15.7212 20.9541 15.5267 20.9376 15.3334V14.9608L21.2669 15.147C21.4815 15.2709 21.7262 15.3354 21.9751 15.3334C22.224 15.3344 22.4687 15.2705 22.6843 15.1482C22.8998 15.026 23.0784 14.8496 23.202 14.6372C23.295 14.4789 23.3555 14.3041 23.3798 14.1229C23.4041 13.9416 23.3917 13.7573 23.3435 13.5807C23.2953 13.4041 23.2123 13.2384 23.099 13.0934C22.9857 12.9483 22.8444 12.8267 22.6833 12.7353L22.354 12.549L22.6833 12.3628C23.01 12.1781 23.2487 11.8735 23.3469 11.5159C23.4451 11.1583 23.3947 10.7769 23.2069 10.4558C23.019 10.1347 22.7091 9.90011 22.3453 9.80359C21.9814 9.70706 21.5936 9.7566 21.2669 9.94122L20.9376 10.1372V9.75488C20.935 9.38476 20.7836 9.03074 20.5163 8.76994C20.2491 8.50913 19.8879 8.36267 19.5113 8.36267ZM30.6833 8.36267C30.3084 8.36524 29.9497 8.51276 29.6846 8.77329C29.4195 9.03381 29.2695 9.38645 29.2669 9.75488V10.1372L28.9377 9.94122C28.6109 9.7566 28.2229 9.70706 27.8591 9.80359C27.4952 9.90011 27.1853 10.1347 26.9974 10.4558C26.8096 10.7769 26.7592 11.1583 26.8574 11.5159C26.9556 11.8735 27.1946 12.1781 27.5213 12.3628L27.8503 12.549L27.5213 12.7353C27.1959 12.9199 26.9583 13.224 26.8611 13.5807C26.7638 13.9374 26.8147 14.3174 27.0026 14.6372C27.1904 14.957 27.4998 15.1905 27.8627 15.2861C28.2256 15.3817 28.6123 15.3317 28.9377 15.147L29.2669 14.9608V15.3334C29.2504 15.5267 29.2748 15.7212 29.3388 15.9047C29.4027 16.0882 29.5047 16.2567 29.6383 16.3995C29.7719 16.5422 29.9342 16.6562 30.1149 16.7342C30.2956 16.8122 30.4908 16.8524 30.6882 16.8524C30.8855 16.8524 31.081 16.8122 31.2617 16.7342C31.4424 16.6562 31.6047 16.5422 31.7383 16.3995C31.8719 16.2567 31.9739 16.0882 32.0378 15.9047C32.1018 15.7212 32.1262 15.5267 32.1097 15.3334V14.9608L32.4389 15.147C32.6535 15.2709 32.8982 15.3354 33.1471 15.3334C33.396 15.3344 33.6407 15.2705 33.8563 15.1482C34.0718 15.026 34.2505 14.8496 34.374 14.6372C34.4671 14.4789 34.5275 14.3041 34.5518 14.1229C34.5761 13.9416 34.5637 13.7573 34.5155 13.5807C34.4674 13.4041 34.3843 13.2384 34.271 13.0934C34.1577 12.9483 34.0164 12.8267 33.8553 12.7353L33.5263 12.549L33.8553 12.3628C34.182 12.1781 34.4207 11.8735 34.5189 11.5159C34.6171 11.1583 34.567 10.7769 34.3791 10.4558C34.1913 10.1347 33.8814 9.90011 33.5175 9.80359C33.1537 9.70706 32.7656 9.7566 32.4389 9.94122L32.1097 10.1372V9.75488C32.107 9.38476 31.9556 9.03074 31.6884 8.76994C31.4211 8.50913 31.0599 8.36267 30.6833 8.36267ZM8.33926 8.36267C7.9644 8.36524 7.60561 8.51276 7.34054 8.77329C7.07546 9.03381 6.92525 9.38645 6.92264 9.75488V10.1372L6.59362 9.94122C6.43185 9.8498 6.25314 9.79057 6.06808 9.76696C5.88303 9.74336 5.69518 9.75579 5.51502 9.80359C5.15117 9.90011 4.84124 10.1347 4.65341 10.4558C4.46557 10.7769 4.41516 11.1583 4.51337 11.5159C4.61159 11.8735 4.85027 12.1781 5.177 12.3628L5.50625 12.549L5.177 12.7353C4.8516 12.9199 4.6143 13.224 4.51703 13.5807C4.41975 13.9374 4.47044 14.3174 4.65828 14.6372C4.84611 14.957 5.15552 15.1905 5.51843 15.2861C5.88134 15.3817 6.26822 15.3317 6.59362 15.147L6.92264 14.9608V15.3334C6.90614 15.5267 6.93077 15.7212 6.99472 15.9047C7.05867 16.0882 7.16066 16.2567 7.29426 16.3995C7.42787 16.5422 7.59013 16.6562 7.77086 16.7342C7.95158 16.8122 8.14676 16.8524 8.34413 16.8524C8.5415 16.8524 8.73668 16.8122 8.9174 16.7342C9.09813 16.6562 9.26039 16.5422 9.394 16.3995C9.5276 16.2567 9.62959 16.0882 9.69354 15.9047C9.75749 15.7212 9.78212 15.5267 9.76562 15.3334V14.9608L10.0949 15.147C10.3095 15.2709 10.5542 15.3354 10.8031 15.3334C11.052 15.3344 11.2967 15.2705 11.5122 15.1482C11.7278 15.026 11.9064 14.8496 12.03 14.6372C12.123 14.4789 12.1832 14.3041 12.2075 14.1229C12.2318 13.9416 12.2196 13.7573 12.1715 13.5807C12.1233 13.4041 12.0403 13.2384 11.927 13.0934C11.8137 12.9483 11.6724 12.8267 11.5113 12.7353L11.182 12.549L11.5113 12.3628C11.838 12.1781 12.0767 11.8735 12.1749 11.5159C12.2731 11.1583 12.2227 10.7769 12.0349 10.4558C11.847 10.1347 11.5371 9.90011 11.1732 9.80359C10.8094 9.70706 10.4216 9.7566 10.0949 9.94122L9.76562 10.1372V9.75488C9.76299 9.38476 9.61154 9.03074 9.34432 8.76994C9.07709 8.50913 8.71585 8.36267 8.33926 8.36267ZM64.5586 8.36267C64.3726 8.36267 64.1883 8.39875 64.0165 8.46871C63.8446 8.53867 63.6885 8.64126 63.5569 8.77053C63.4254 8.89981 63.3213 9.05317 63.2501 9.22208C63.1789 9.39098 63.1422 9.57206 63.1422 9.75488V10.1372L62.8129 9.94122C62.4883 9.78292 62.1145 9.752 61.7675 9.85481C61.4204 9.95761 61.1262 10.1864 60.9446 10.4947C60.763 10.803 60.7076 11.1676 60.7897 11.5146C60.8718 11.8616 61.0852 12.1648 61.3866 12.3628L61.7158 12.549L61.3866 12.7353C61.0612 12.9212 60.8242 13.2266 60.7278 13.5842C60.6315 13.9418 60.6836 14.3223 60.8727 14.6421C61.0619 14.962 61.3727 15.1949 61.7365 15.2896C62.1004 15.3843 62.4875 15.333 62.8129 15.147L63.1422 14.9608V15.3334C63.1422 15.7026 63.2913 16.0566 63.5569 16.3177C63.8226 16.5788 64.1829 16.7255 64.5586 16.7255C64.9342 16.7255 65.2946 16.5788 65.5602 16.3177C65.8259 16.0566 65.975 15.7026 65.975 15.3334V14.9608L66.3042 15.147C66.5197 15.2687 66.7638 15.333 67.0124 15.3334C67.3243 15.3335 67.6275 15.2324 67.875 15.0458C68.1225 14.8592 68.3003 14.5975 68.3811 14.3014C68.4618 14.0053 68.4408 13.6913 68.3214 13.4081C68.202 13.125 67.9908 12.8885 67.7206 12.7353L67.3916 12.549L67.7206 12.3628C68.0473 12.1781 68.2862 11.8735 68.3845 11.5159C68.4827 11.1583 68.4323 10.7769 68.2444 10.4558C68.0566 10.1347 67.7467 9.90011 67.3828 9.80359C67.019 9.70706 66.6309 9.7566 66.3042 9.94122L65.975 10.1372V9.75488C65.975 9.38565 65.8259 9.03162 65.5602 8.77053C65.2946 8.50945 64.9342 8.36267 64.5586 8.36267ZM41.8553 8.36267C41.4805 8.36524 41.1217 8.51276 40.8566 8.77329C40.5915 9.03381 40.4416 9.38645 40.4389 9.75488V10.1372L40.1097 9.94122C39.9479 9.8498 39.7694 9.79057 39.5844 9.76696C39.3993 9.74336 39.2112 9.75579 39.0311 9.80359C38.6672 9.90011 38.3573 10.1347 38.1695 10.4558C37.9816 10.7769 37.9315 11.1583 38.0297 11.5159C38.1279 11.8735 38.3666 12.1781 38.6933 12.3628L39.0226 12.549L38.6933 12.7353C38.3679 12.9199 38.1304 13.224 38.0331 13.5807C37.9358 13.9374 37.9868 14.3174 38.1746 14.6372C38.3624 14.957 38.6718 15.1905 39.0347 15.2861C39.3977 15.3817 39.7843 15.3317 40.1097 15.147L40.4389 14.9608V15.3334C40.4225 15.5267 40.4468 15.7212 40.5108 15.9047C40.5747 16.0882 40.6767 16.2567 40.8103 16.3995C40.9439 16.5422 41.1062 16.6562 41.2869 16.7342C41.4676 16.8122 41.6631 16.8524 41.8604 16.8524C42.0578 16.8524 42.253 16.8122 42.4337 16.7342C42.6144 16.6562 42.7767 16.5422 42.9103 16.3995C43.0439 16.2567 43.1459 16.0882 43.2098 15.9047C43.2738 15.7212 43.2982 15.5267 43.2817 15.3334V14.9608L43.6109 15.147C43.8255 15.2709 44.0703 15.3354 44.3191 15.3334C44.568 15.3344 44.8127 15.2705 45.0283 15.1482C45.2439 15.026 45.4225 14.8496 45.546 14.6372C45.6391 14.4789 45.6995 14.3041 45.7238 14.1229C45.7481 13.9416 45.7357 13.7573 45.6875 13.5807C45.6394 13.4041 45.5563 13.2384 45.443 13.0934C45.3298 12.9483 45.1885 12.8267 45.0273 12.7353L44.6983 12.549L45.0273 12.3628C45.354 12.1781 45.593 11.8735 45.6912 11.5159C45.7894 11.1583 45.739 10.7769 45.5512 10.4558C45.3633 10.1347 45.0534 9.90011 44.6895 9.80359C44.3257 9.70706 43.9377 9.7566 43.6109 9.94122L43.2817 10.1372V9.75488C43.2791 9.38476 43.1276 9.03074 42.8604 8.76994C42.5932 8.50913 42.2319 8.36267 41.8553 8.36267ZM87.2518 13.9412C86.1239 13.9438 85.043 14.3859 84.2464 15.1707C83.4498 15.9555 83.0025 17.0189 83.0025 18.1275V19.5196H91.5112V18.1275C91.5112 17.0172 91.0624 15.9524 90.2636 15.1673C89.4648 14.3822 88.3815 13.9412 87.2518 13.9412ZM88.6782 1.89561e-06C90.1367 -0.00118209 91.5391 0.552308 92.5915 1.54467C93.644 2.53704 94.265 3.89121 94.3242 5.32348C94.337 5.56178 94.2871 5.79934 94.1796 6.01329C94.0721 6.22725 93.9104 6.4104 93.7101 6.54526C93.5098 6.68012 93.2776 6.76217 93.0357 6.78342C92.7939 6.80466 92.5507 6.76441 92.3292 6.66661C90.7302 5.95635 88.9966 5.58555 87.2419 5.57839C84.1 5.58408 81.0717 6.73351 78.7414 8.80476C76.4111 10.876 74.9441 13.7223 74.6235 16.7942C74.6025 16.9894 74.539 17.1779 74.4374 17.3471C74.3359 17.5162 74.1986 17.662 74.0349 17.7746C73.2997 18.2895 72.6993 18.9686 72.2832 19.7561C71.867 20.5435 71.647 21.4167 71.641 22.304V23.7059C71.6384 24.0743 71.4881 24.4269 71.2231 24.6875C70.958 24.948 70.5992 25.0955 70.2243 25.0981H5.67575C4.17043 25.0981 2.72677 24.5103 1.66235 23.4641C0.597927 22.418 0 20.9991 0 19.5196V5.59802C0 4.11852 0.597927 2.69962 1.66235 1.65346C2.72677 0.607299 4.17043 0.0196289 5.67575 0.0196289L88.6782 1.89561e-06ZM87.2518 25.0981C86.5013 25.1007 85.7824 25.3948 85.2517 25.9164C84.721 26.438 84.4215 27.1447 84.4188 27.8824C84.4254 28.3633 84.5596 28.8341 84.808 29.2485C85.0564 29.6628 85.4107 30.0064 85.8355 30.2451V32.0687C85.8653 32.419 86.0281 32.7455 86.2914 32.9835C86.5546 33.2214 86.8993 33.3535 87.257 33.3535C87.6146 33.3535 87.9593 33.2214 88.2226 32.9835C88.4858 32.7455 88.6483 32.419 88.6782 32.0687V30.2451C89.103 30.0064 89.4573 29.6628 89.7057 29.2485C89.9541 28.8341 90.0882 28.3633 90.0948 27.8824C90.0922 27.143 89.7914 26.4348 89.2585 25.913C88.7257 25.3911 88.0041 25.0981 87.2518 25.0981ZM87.2518 8.36267C89.8974 8.36267 92.4346 9.39561 94.3053 11.2342C96.1759 13.0728 97.2269 15.5665 97.2269 18.1666V19.5588C97.9542 19.5736 98.648 19.8629 99.1642 20.3666C99.6805 20.8704 99.9797 21.55 100 22.2647V36.2157C100 36.9542 99.7016 37.6624 99.1703 38.1845C98.639 38.7067 97.9183 39 97.167 39H77.3067C76.5545 39 75.8329 38.707 75.3 38.1851C74.7672 37.6632 74.4664 36.9551 74.4637 36.2157V22.2647C74.4664 21.5254 74.7672 20.8172 75.3 20.2953C75.8329 19.7734 76.5545 19.4804 77.3067 19.4804V18.0882C77.3277 15.5068 78.3837 13.0376 80.2457 11.2167C82.1076 9.3959 84.6252 8.37034 87.2518 8.36267Z" fill="#002953"/>
<path fill-rule="evenodd" clip-rule="evenodd" d="M77.3067 18.2431V19.4805C76.5545 19.4805 75.8329 19.7735 75.3 20.2954C74.7672 20.8172 74.4664 21.5254 74.4637 22.2648V36.2158C74.4664 36.9551 74.7672 37.6633 75.3 38.1852C75.8329 38.7071 76.5545 39.0001 77.3067 39H87.7728C87.4628 36.9786 87.0382 35.0172 86.5125 33.1475C86.4341 33.1004 86.36 33.0455 86.2914 32.9835C86.0281 32.7456 85.8653 32.419 85.8355 32.0687V30.9542C85.7309 30.6443 85.6235 30.3375 85.5134 30.034C85.2304 29.8195 84.9906 29.5531 84.808 29.2485C84.5596 28.8342 84.4254 28.3633 84.4188 27.8824C84.4194 27.7268 84.4332 27.5726 84.4595 27.4212C83.4212 25.096 82.2077 23.0257 80.8577 21.3013C79.8391 20.0001 78.6468 19.0067 77.3067 18.2431ZM26.4269 0.0147705L5.67575 0.0196774C4.17043 0.0196774 2.72677 0.607347 1.66235 1.65351C0.597927 2.69967 0 4.11857 0 5.59806V19.5196C0 20.9991 0.597927 22.418 1.66235 23.4642C2.72677 24.5103 4.17043 25.0981 5.67575 25.0981H70.2243C70.5992 25.0956 70.958 24.948 71.2231 24.6875C71.4881 24.427 71.6384 24.0744 71.641 23.7059V22.304C71.647 21.4167 71.867 20.5435 72.2832 19.7561C72.6993 18.9687 73.2997 18.2896 74.0349 17.7746C74.1986 17.6621 74.3359 17.5163 74.4374 17.3471C74.4949 17.2513 74.5403 17.1493 74.5725 17.0434C72.023 16.1994 69.1029 15.8634 65.9341 15.6655C65.8729 15.9104 65.7447 16.1365 65.5602 16.3178C65.2946 16.5789 64.9342 16.7255 64.5586 16.7255C64.1829 16.7255 63.8226 16.5789 63.5569 16.3178C63.3367 16.1013 63.1965 15.8209 63.1551 15.521C62.7884 15.5044 62.4192 15.4882 62.0474 15.472C60.204 15.3913 58.2998 15.308 56.3554 15.1603C56.2528 15.2164 56.1432 15.2599 56.0291 15.2896C55.849 15.3365 55.6612 15.3481 55.4765 15.3236C55.2918 15.2992 55.1138 15.2392 54.9527 15.1471L54.7303 15.0213C54.6947 15.0179 54.6591 15.0145 54.6235 15.011V15.3334C54.6235 15.7027 54.4741 16.0567 54.2085 16.3178C53.9428 16.5789 53.5827 16.7255 53.2071 16.7255C52.8314 16.7255 52.4711 16.5789 52.2054 16.3178C51.9398 16.0567 51.7904 15.7027 51.7904 15.3334V14.9609L51.4614 15.1471C51.2459 15.2688 51.0016 15.333 50.753 15.3334C50.4411 15.3335 50.1381 15.2324 49.8907 15.0458C49.6432 14.8593 49.4653 14.5976 49.3846 14.3015C49.3821 14.2924 49.3798 14.2833 49.3775 14.2743C48.1291 14.0358 46.8744 13.7446 45.6183 13.3859C45.6462 13.4489 45.6694 13.5141 45.6875 13.5808C45.7357 13.7574 45.7481 13.9416 45.7238 14.1229C45.6995 14.3042 45.6391 14.4789 45.546 14.6373C45.4225 14.8496 45.2439 15.026 45.0283 15.1483C44.8127 15.2706 44.568 15.3345 44.3191 15.3334C44.0703 15.3354 43.8255 15.271 43.6109 15.1471L43.2817 14.9609V15.3334C43.2982 15.5267 43.2738 15.7213 43.2098 15.9048C43.1459 16.0883 43.0439 16.2567 42.9103 16.3995C42.7767 16.5423 42.6144 16.6563 42.4337 16.7343C42.253 16.8122 42.0578 16.8525 41.8604 16.8525C41.6631 16.8525 41.4676 16.8122 41.2869 16.7343C41.1062 16.6563 40.9439 16.5423 40.8103 16.3995C40.6767 16.2567 40.5747 16.0883 40.5108 15.9048C40.4468 15.7213 40.4225 15.5267 40.4389 15.3334V14.9609L40.1097 15.1471C39.7843 15.3317 39.3977 15.3818 39.0347 15.2862C38.6718 15.1906 38.3624 14.9571 38.1746 14.6373C37.9868 14.3175 37.9358 13.9375 38.0331 13.5808C38.1304 13.2241 38.3679 12.92 38.6933 12.7354L39.0226 12.549L38.6933 12.3628C38.3666 12.1782 38.1279 11.8736 38.0297 11.516C37.9315 11.1584 37.9816 10.777 38.1695 10.4559C38.1865 10.4267 38.2046 10.3982 38.2236 10.3705C34.1459 8.13319 30.1562 4.85533 26.4269 0.0147705ZM18.5126 8.77334C18.7776 8.51281 19.1364 8.36529 19.5113 8.36272C19.8879 8.36271 20.2491 8.50918 20.5163 8.76999C20.7836 9.03079 20.935 9.3848 20.9376 9.75493V10.1373L21.2669 9.94126C21.5936 9.75665 21.9814 9.70711 22.3453 9.80364C22.7091 9.90016 23.019 10.1348 23.2069 10.4559C23.3947 10.777 23.4451 11.1584 23.3469 11.516C23.2487 11.8736 23.01 12.1782 22.6833 12.3628L22.354 12.549L22.6833 12.7354C22.8444 12.8268 22.9857 12.9484 23.099 13.0934C23.2123 13.2385 23.2953 13.4041 23.3435 13.5808C23.3917 13.7574 23.4041 13.9416 23.3798 14.1229C23.3555 14.3042 23.295 14.4789 23.202 14.6373C23.0784 14.8496 22.8998 15.026 22.6843 15.1483C22.4687 15.2706 22.224 15.3345 21.9751 15.3334C21.7262 15.3354 21.4815 15.271 21.2669 15.1471L20.9376 14.9609V15.3334C20.9541 15.5267 20.9298 15.7213 20.8658 15.9048C20.8019 16.0883 20.6999 16.2567 20.5663 16.3995C20.4327 16.5423 20.2701 16.6563 20.0894 16.7343C19.9087 16.8122 19.7135 16.8525 19.5162 16.8525C19.3188 16.8525 19.1236 16.8122 18.9429 16.7343C18.7622 16.6563 18.5999 16.5423 18.4663 16.3995C18.3327 16.2567 18.2307 16.0883 18.1667 15.9048C18.1028 15.7213 18.0782 15.5267 18.0947 15.3334V14.9609L17.7656 15.1471C17.4402 15.3317 17.0536 15.3818 16.6907 15.2862C16.3278 15.1906 16.0184 14.9571 15.8305 14.6373C15.6427 14.3175 15.5918 13.9375 15.689 13.5808C15.7863 13.2241 16.0236 12.92 16.349 12.7354L16.6783 12.549L16.349 12.3628C16.0223 12.1782 15.7836 11.8736 15.6854 11.516C15.5872 11.1584 15.6376 10.777 15.8254 10.4559C16.0133 10.1348 16.3232 9.90016 16.687 9.80364C17.0509 9.70711 17.4389 9.75665 17.7656 9.94126L18.0947 10.1373V9.75493C18.0973 9.3865 18.2475 9.03386 18.5126 8.77334ZM29.6846 8.77334C29.9497 8.51281 30.3084 8.36529 30.6833 8.36272C31.0599 8.36271 31.4211 8.50918 31.6884 8.76999C31.9556 9.03079 32.107 9.3848 32.1097 9.75493V10.1373L32.4389 9.94126C32.7656 9.75665 33.1537 9.70711 33.5175 9.80364C33.8814 9.90016 34.1913 10.1348 34.3791 10.4559C34.567 10.777 34.6171 11.1584 34.5189 11.516C34.4207 11.8736 34.182 12.1782 33.8553 12.3628L33.5263 12.549L33.8553 12.7354C34.0164 12.8268 34.1577 12.9484 34.271 13.0934C34.3843 13.2385 34.4674 13.4041 34.5155 13.5808C34.5637 13.7574 34.5761 13.9416 34.5518 14.1229C34.5275 14.3042 34.4671 14.4789 34.374 14.6373C34.2505 14.8496 34.0718 15.026 33.8563 15.1483C33.6407 15.2706 33.396 15.3345 33.1471 15.3334C32.8982 15.3354 32.6535 15.271 32.4389 15.1471L32.1097 14.9609V15.3334C32.1262 15.5267 32.1018 15.7213 32.0378 15.9048C31.9739 16.0883 31.8719 16.2567 31.7383 16.3995C31.6047 16.5423 31.4424 16.6563 31.2617 16.7343C31.081 16.8122 30.8855 16.8525 30.6882 16.8525C30.4908 16.8525 30.2956 16.8122 30.1149 16.7343C29.9342 16.6563 29.7719 16.5423 29.6383 16.3995C29.5047 16.2567 29.4027 16.0883 29.3388 15.9048C29.2748 15.7213 29.2504 15.5267 29.2669 15.3334V14.9609L28.9377 15.1471C28.6123 15.3317 28.2256 15.3818 27.8627 15.2862C27.4998 15.1906 27.1904 14.9571 27.0026 14.6373C26.8147 14.3175 26.7638 13.9375 26.8611 13.5808C26.9583 13.2241 27.1959 12.92 27.5213 12.7354L27.8503 12.549L27.5213 12.3628C27.1946 12.1782 26.9556 11.8736 26.8574 11.516C26.7592 11.1584 26.8096 10.777 26.9974 10.4559C27.1853 10.1348 27.4952 9.90016 27.8591 9.80364C28.2229 9.70711 28.6109 9.75665 28.9377 9.94126L29.2669 10.1373V9.75493C29.2695 9.3865 29.4195 9.03386 29.6846 8.77334ZM7.34054 8.77334C7.60561 8.51281 7.9644 8.36529 8.33926 8.36272C8.71585 8.36271 9.07709 8.50918 9.34432 8.76999C9.61154 9.03079 9.76299 9.3848 9.76562 9.75493V10.1373L10.0949 9.94126C10.4216 9.75665 10.8094 9.70711 11.1732 9.80364C11.5371 9.90016 11.847 10.1348 12.0349 10.4559C12.2227 10.777 12.2731 11.1584 12.1749 11.516C12.0767 11.8736 11.838 12.1782 11.5113 12.3628L11.182 12.549L11.5113 12.7354C11.6724 12.8268 11.8137 12.9484 11.927 13.0934C12.0403 13.2385 12.1233 13.4041 12.1715 13.5808C12.2196 13.7574 12.2318 13.9416 12.2075 14.1229C12.1832 14.3042 12.123 14.4789 12.03 14.6373C11.9064 14.8496 11.7278 15.026 11.5122 15.1483C11.2967 15.2706 11.052 15.3345 10.8031 15.3334C10.5542 15.3354 10.3095 15.271 10.0949 15.1471L9.76562 14.9609V15.3334C9.78212 15.5267 9.75749 15.7213 9.69354 15.9048C9.62959 16.0883 9.5276 16.2567 9.394 16.3995C9.26039 16.5423 9.09813 16.6563 8.9174 16.7343C8.73668 16.8122 8.5415 16.8525 8.34413 16.8525C8.14676 16.8525 7.95158 16.8122 7.77086 16.7343C7.59013 16.6563 7.42787 16.5423 7.29426 16.3995C7.16066 16.2567 7.05867 16.0883 6.99472 15.9048C6.93077 15.7213 6.90614 15.5267 6.92264 15.3334V14.9609L6.59362 15.1471C6.26822 15.3317 5.88134 15.3818 5.51843 15.2862C5.15552 15.1906 4.84611 14.9571 4.65828 14.6373C4.47044 14.3175 4.41975 13.9375 4.51703 13.5808C4.6143 13.2241 4.8516 12.92 5.177 12.7354L5.50625 12.549L5.177 12.3628C4.85027 12.1782 4.61159 11.8736 4.51337 11.516C4.41516 11.1584 4.46557 10.777 4.65341 10.4559C4.84124 10.1348 5.15117 9.90016 5.51502 9.80364C5.69518 9.75584 5.88303 9.74341 6.06808 9.76701C6.25314 9.79062 6.43185 9.84985 6.59362 9.94126L6.92264 10.1373V9.75493C6.92525 9.3865 7.07546 9.03386 7.34054 8.77334Z" fill="#4A6784"/>
</svg>
