<svg xmlns="http://www.w3.org/2000/svg" width="23" height="17" viewBox="0 0 23 17">
  <g id="percentage_down" transform="translate(862.726 15131)">
    <path id="Path_28531" data-name="Path 28531" d="M7.654,5.681l-.6.5A.541.541,0,0,1,6.64,6.3a.56.56,0,0,1-.378-.228L4.882,4.193v9.2A.588.588,0,0,1,4.314,14H3.557a.588.588,0,0,1-.568-.607v-9.2L1.61,6.076a.56.56,0,0,1-.378.228A.541.541,0,0,1,.813,6.18l-.6-.5a.635.635,0,0,1-.1-.851L3.489.233a.546.546,0,0,1,.894,0l3.368,4.6A.635.635,0,0,1,7.654,5.681Z" transform="translate(-839.726 -15116) rotate(180)" fill="#ccc"/>
    <text id="_" data-name="%" transform="translate(-862.726 -15117)" fill="#ccc" font-size="16" font-family="Arial-BoldMT, Arial" font-weight="700"><tspan x="0" y="0">%</tspan></text>
  </g>
</svg>
