<svg width="29" height="29" viewBox="0 0 29 29" fill="none" xmlns="http://www.w3.org/2000/svg">
<circle opacity="0.5" cx="14.5" cy="14.5" r="14.5" fill="#DAECFF"/>
<path fill-rule="evenodd" clip-rule="evenodd" d="M13.714 12.8385C14.9661 12.8385 15.9811 11.8235 15.9811 10.5714C15.9811 9.31935 14.9661 8.30435 13.714 8.30435C12.4619 8.30435 11.4469 9.31935 11.4469 10.5714C11.4469 11.8235 12.4619 12.8385 13.714 12.8385ZM13.714 14.1429C15.6865 14.1429 17.2854 12.5439 17.2854 10.5714C17.2854 8.59898 15.6865 7 13.714 7C11.7416 7 10.1426 8.59898 10.1426 10.5714C10.1426 12.5439 11.7416 14.1429 13.714 14.1429Z" fill="#1C74D0"/>
<path fill-rule="evenodd" clip-rule="evenodd" d="M15.1429 16.8766H12.2857C10.6392 16.8766 9.30435 18.2114 9.30435 19.858C9.30435 20.3211 9.67976 20.6965 10.1429 20.6965H17.2857C17.7488 20.6965 18.1242 20.3211 18.1242 19.858C18.1242 18.2114 16.7894 16.8766 15.1429 16.8766ZM12.2857 15.5723C9.91878 15.5723 8 17.491 8 19.858C8 21.0414 8.95939 22.0008 10.1429 22.0008H17.2857C18.4692 22.0008 19.4286 21.0414 19.4286 19.858C19.4286 17.491 17.5098 15.5723 15.1429 15.5723H12.2857Z" fill="#1C74D0"/>
<path fill-rule="evenodd" clip-rule="evenodd" d="M19.9999 11.3999C20.3313 11.3999 20.5999 11.6685 20.5999 11.9999V15.9999C20.5999 16.3313 20.3313 16.5999 19.9999 16.5999C19.6685 16.5999 19.3999 16.3313 19.3999 15.9999V11.9999C19.3999 11.6685 19.6685 11.3999 19.9999 11.3999Z" fill="#1C74D0"/>
<path fill-rule="evenodd" clip-rule="evenodd" d="M17.3999 13.9999C17.3999 13.6685 17.6685 13.3999 17.9999 13.3999H21.9999C22.3313 13.3999 22.5999 13.6685 22.5999 13.9999C22.5999 14.3313 22.3313 14.5999 21.9999 14.5999H17.9999C17.6685 14.5999 17.3999 14.3313 17.3999 13.9999Z" fill="#1C74D0"/>
</svg>
