<svg width="22" height="22" viewBox="0 0 22 22" fill="none" xmlns="http://www.w3.org/2000/svg">
<path fill-rule="evenodd" clip-rule="evenodd" d="M19.8363 1.3H2.16374C1.68671 1.3 1.3 1.68671 1.3 2.16374V19.8363C1.3 20.3133 1.68671 20.7 2.16374 20.7H19.8363C20.3133 20.7 20.7 20.3133 20.7 19.8363V2.16374C20.7 1.68671 20.3133 1.3 19.8363 1.3ZM2.16374 0C0.968741 0 0 0.968742 0 2.16374V19.8363C0 21.0313 0.968742 22 2.16374 22H19.8363C21.0313 22 22 21.0313 22 19.8363V2.16374C22 0.968741 21.0313 0 19.8363 0H2.16374Z" fill="#083059" fill-opacity="0.7"/>
<path fill-rule="evenodd" clip-rule="evenodd" d="M11.231 7.33334C11.5899 7.33334 11.881 7.62436 11.881 7.98334L11.881 13.867C11.881 14.226 11.5899 14.517 11.231 14.517C10.872 14.517 10.581 14.226 10.581 13.867L10.581 7.98334C10.581 7.62436 10.872 7.33334 11.231 7.33334Z" fill="#083059" fill-opacity="0.7"/>
<path fill-rule="evenodd" clip-rule="evenodd" d="M7.63232 10.9736C7.63232 10.6147 7.92334 10.3236 8.28232 10.3236L14.166 10.3236C14.525 10.3236 14.816 10.6147 14.816 10.9736C14.816 11.3326 14.525 11.6236 14.166 11.6236L8.28232 11.6236C7.92334 11.6236 7.63232 11.3326 7.63232 10.9736Z" fill="#083059" fill-opacity="0.7"/>
</svg>
