<svg width="17" height="15" viewBox="0 0 17 15" fill="none" xmlns="http://www.w3.org/2000/svg">
<path fill-rule="evenodd" clip-rule="evenodd" d="M16.1935 7.3682L15.5603 13.0689C15.438 14.1679 14.5088 15 13.4027 15H3.59757C2.49153 15 1.56233 14.1679 1.43996 13.0689L0.806809 7.3682C0.787862 7.20083 0.841546 7.03346 0.95365 6.90794C1.06575 6.78241 1.2268 6.71057 1.39496 6.71057H15.6053C15.7735 6.71057 15.9345 6.78241 16.0466 6.90794C16.1587 7.03346 16.2124 7.20083 16.1935 7.3682ZM14.9438 7.89477H2.05653L2.61705 12.9379C2.67231 13.4376 3.09468 13.8158 3.59757 13.8158H13.4027C13.9056 13.8158 14.328 13.4376 14.3832 12.9379L14.9438 7.89477Z" fill="#1C74D0"/>
<path fill-rule="evenodd" clip-rule="evenodd" d="M16.9867 5.32906V6.11853C16.9867 6.58984 16.7996 7.04141 16.4665 7.37456C16.1333 7.70772 15.6818 7.89482 15.2104 7.89482H1.78954C1.31823 7.89482 0.866656 7.70772 0.533502 7.37456C0.200348 7.04141 0.0132446 6.58984 0.0132446 6.11853V5.32906C0.0132446 4.85775 0.200348 4.40618 0.533502 4.07302C0.866656 3.73987 1.31823 3.55276 1.78954 3.55276H15.2104C15.6818 3.55276 16.1333 3.73987 16.4665 4.07302C16.7996 4.40618 16.9867 4.85775 16.9867 5.32906ZM15.8025 5.32906C15.8025 5.17196 15.7402 5.02117 15.6289 4.91064C15.5183 4.79933 15.3675 4.73696 15.2104 4.73696H1.78954C1.63244 4.73696 1.48165 4.79933 1.37112 4.91064C1.25981 5.02117 1.19744 5.17196 1.19744 5.32906V6.11853C1.19744 6.27563 1.25981 6.42642 1.37112 6.53694C1.48165 6.64826 1.63244 6.71062 1.78954 6.71062H15.2104C15.3675 6.71062 15.5183 6.64826 15.6289 6.53694C15.7402 6.42642 15.8025 6.27563 15.8025 6.11853V5.32906Z" fill="#1C74D0"/>
<path fill-rule="evenodd" clip-rule="evenodd" d="M5.89993 9.5921C5.89993 9.26526 6.16519 9 6.49203 9C6.81887 9 7.08413 9.26526 7.08413 9.5921V11.9605C7.08413 12.2873 6.81887 12.5526 6.49203 12.5526C6.16519 12.5526 5.89993 12.2873 5.89993 11.9605V9.5921Z" fill="#1C74D0"/>
<path fill-rule="evenodd" clip-rule="evenodd" d="M10.0841 9.5921C10.0841 9.26526 10.3494 9 10.6762 9C11.0031 9 11.2683 9.26526 11.2683 9.5921V11.9605C11.2683 12.2873 11.0031 12.5526 10.6762 12.5526C10.3494 12.5526 10.0841 12.2873 10.0841 11.9605V9.5921Z" fill="#1C74D0"/>
<path fill-rule="evenodd" clip-rule="evenodd" d="M13.5595 3.47106C13.7055 3.76316 13.5871 4.11921 13.2942 4.26526C13.0021 4.41131 12.6461 4.29289 12.5 4L9.94413 0.856735C9.79807 0.564633 9.91649 0.208585 10.2094 0.0625336C10.5015 -0.0835175 10.8575 0.0349023 11.0036 0.327794L13.5595 3.47106Z" fill="#1C74D0"/>
<path fill-rule="evenodd" clip-rule="evenodd" d="M3.56253 3.47106C3.41648 3.76316 3.5349 4.11921 3.82779 4.26526C4.1199 4.41131 4.47594 4.29289 4.62199 4L7.17788 0.856735C7.32393 0.564633 7.20552 0.208585 6.91262 0.0625336C6.62052 -0.0835175 6.26447 0.0349023 6.11842 0.327794L3.56253 3.47106Z" fill="#1C74D0"/>
</svg>
