<svg width="16" height="15" viewBox="0 0 16 15" fill="none" xmlns="http://www.w3.org/2000/svg">
<path d="M8 0C3.85786 0 0.5 3.35786 0.5 7.5C0.5 11.6421 3.85786 15 8 15C12.1421 15 15.5 11.6421 15.5 7.5C15.5 3.35786 12.1421 0 8 0ZM8 14.0625C4.37563 14.0625 1.4375 11.1244 1.4375 7.5C1.4375 3.87563 4.37563 0.9375 8 0.9375C11.6244 0.9375 14.5625 3.87563 14.5625 7.5C14.5625 11.1244 11.6244 14.0625 8 14.0625Z" fill="#156CC7"/>
<path d="M8 8.4375C8.51777 8.4375 8.9375 8.01777 8.9375 7.5C8.9375 6.98223 8.51777 6.5625 8 6.5625C7.48223 6.5625 7.0625 6.98223 7.0625 7.5C7.0625 8.01777 7.48223 8.4375 8 8.4375Z" fill="#156CC7"/>
<path d="M11.2812 8.4375C11.799 8.4375 12.2188 8.01777 12.2188 7.5C12.2188 6.98223 11.799 6.5625 11.2812 6.5625C10.7635 6.5625 10.3438 6.98223 10.3438 7.5C10.3438 8.01777 10.7635 8.4375 11.2812 8.4375Z" fill="#156CC7"/>
<path d="M4.71875 8.4375C5.23652 8.4375 5.65625 8.01777 5.65625 7.5C5.65625 6.98223 5.23652 6.5625 4.71875 6.5625C4.20098 6.5625 3.78125 6.98223 3.78125 7.5C3.78125 8.01777 4.20098 8.4375 4.71875 8.4375Z" fill="#156CC7"/>
</svg>
