<svg xmlns="http://www.w3.org/2000/svg" width="18" height="18" viewBox="0 0 18 18">
  <g id="Group_8735" data-name="Group 8735" transform="translate(-342 -443)">
    <path id="Subtraction_8" data-name="Subtraction 8" d="M-1262-733a9.01,9.01,0,0,1-9-9,9.01,9.01,0,0,1,9-9,9.01,9.01,0,0,1,9,9A9.01,9.01,0,0,1-1262-733Zm0-17.106a8.115,8.115,0,0,0-8.106,8.106,8.115,8.115,0,0,0,8.106,8.105,8.115,8.115,0,0,0,8.105-8.105A8.115,8.115,0,0,0-1262-750.106Z" transform="translate(1613 1194)" fill="#1C74D0"/>
    <path id="Path_28941" data-name="Path 28941" d="M5.063,0A5.063,5.063,0,1,1,0,5.063,5.063,5.063,0,0,1,5.063,0Z" transform="translate(345.937 446.937)" fill="#1C74D0"/>
  </g>
</svg>