<svg width="22" height="22" viewBox="0 0 22 22" fill="none" xmlns="http://www.w3.org/2000/svg">
<path d="M21.6154 6.50888C21.613 5.25282 21.2004 4.03193 20.4403 3.03195C19.6802 2.03197 18.6143 1.30763 17.4047 0.969142C16.1951 0.630651 14.908 0.696533 13.7393 1.15676C12.5706 1.617 11.5842 2.44638 10.9302 3.51875L10.6492 3.39626C10.7523 3.12459 10.806 2.83665 10.8077 2.54606C10.8113 2.17692 10.7337 1.8115 10.5806 1.47561C10.4274 1.13972 10.2024 0.841551 9.9214 0.602156C9.6404 0.362761 9.31025 0.18798 8.9543 0.0901553C8.59834 -0.00766918 8.22524 -0.0261512 7.86136 0.0360144C7.49748 0.0981801 7.15168 0.239477 6.84839 0.449928C6.54509 0.660378 6.2917 0.93485 6.10611 1.25396C5.92052 1.57307 5.80725 1.92903 5.7743 2.29671C5.74135 2.6644 5.78952 3.03483 5.91542 3.38185C4.80394 3.85047 3.85515 4.63615 3.18753 5.64078C2.51992 6.64541 2.16307 7.82446 2.16154 9.03069V10.832C2.15844 13.014 1.45086 15.1368 0.144103 16.8843C0.0638183 16.9913 0.0149284 17.1186 0.00291171 17.2519C-0.009105 17.3852 0.0162262 17.5191 0.076067 17.6388C0.135908 17.7585 0.227894 17.8592 0.341718 17.9295C0.455542 17.9999 0.586706 18.0371 0.720515 18.0371H4.32309C4.32309 19.0881 4.7406 20.0961 5.48377 20.8393C6.22695 21.5824 7.23491 21.9999 8.28591 21.9999C9.33692 21.9999 10.3449 21.5824 11.0881 20.8393C11.8312 20.0961 12.2487 19.0881 12.2487 18.0371H15.8513C16.383 18.0355 16.7278 17.4754 16.4871 17.0013L16.4277 16.8843C16.4277 16.8843 14.7172 13.8403 14.504 12.1073C14.9453 12.2138 15.3973 12.2694 15.8513 12.273C17.3801 12.273 18.8462 11.6657 19.9272 10.5847C21.0081 9.50375 21.6154 8.03762 21.6154 6.50888ZM7.20514 2.54606C7.20154 2.38265 7.23504 2.22055 7.30314 2.07196C7.37123 1.92338 7.47214 1.79217 7.59826 1.68821C7.72439 1.58426 7.87246 1.51027 8.03131 1.4718C8.19017 1.43334 8.35568 1.43141 8.51539 1.46615C8.6751 1.50089 8.82485 1.57141 8.95338 1.67239C9.0819 1.77337 9.18584 1.90219 9.25739 2.04915C9.32893 2.1961 9.36621 2.35737 9.36642 2.52082C9.36663 2.68427 9.32977 2.84563 9.25861 2.99277C8.93763 2.93477 8.61209 2.90584 8.28591 2.90631C7.95991 2.90944 7.63466 2.93835 7.31322 2.99277C7.24537 2.85342 7.2085 2.70102 7.20514 2.54606ZM8.28591 20.1987C7.68126 20.1962 7.09761 19.9766 6.64133 19.5798C6.18505 19.1831 5.88651 18.6356 5.80014 18.0371H10.8077C10.7205 18.6417 10.4167 19.1941 9.95293 19.5917C9.48911 19.9892 8.89676 20.2049 8.28591 20.1987ZM14.5112 16.5961H2.05347C3.06689 14.844 3.60117 12.856 3.60257 10.832V9.03069C3.60009 8.23551 3.80074 7.45287 4.1855 6.75697C4.57026 6.06107 5.12638 5.47497 5.80114 5.05424C6.4759 4.63351 7.24694 4.39208 8.04115 4.35285C8.83537 4.31363 9.62644 4.47789 10.3394 4.83009C10.171 5.37374 10.086 5.93976 10.0872 6.50888C10.0857 7.52214 10.3513 8.51788 10.8573 9.39576C11.3633 10.2736 12.0918 11.0026 12.9693 11.5093C13.08 13.3018 13.608 15.0437 14.5112 16.5961Z" fill="#1C74D0"/>
<path fill-rule="evenodd" clip-rule="evenodd" d="M15.35 7.14998V9H16.65V7.14998H18.5V5.84998L16.65 5.84998V4H15.35V5.84998L13.5 5.84998V7.14998H15.35Z" fill="white"/>
</svg>
