<svg width="22" height="22" viewBox="0 0 22 22" fill="none" xmlns="http://www.w3.org/2000/svg">
<path d="M20.4498 2.60009C20.1713 2.60009 19.9042 2.71071 19.7073 2.90762C19.5104 3.10454 19.3998 3.3716 19.3998 3.65008V4.70427C18.4211 3.40066 17.1528 2.3423 15.6951 1.61271C14.2373 0.883109 12.63 0.502228 10.9999 0.500112C8.61742 0.48906 6.30279 1.29298 4.4401 2.77847C2.57741 4.26397 1.27865 6.34171 0.759347 8.66693C0.697526 8.93858 0.74615 9.22366 0.894522 9.45946C1.04289 9.69526 1.27886 9.86246 1.55051 9.92429C1.82217 9.98611 2.10725 9.93748 2.34305 9.78911C2.57885 9.64074 2.74605 9.40477 2.80788 9.13312C3.22307 7.27293 4.26196 5.61069 5.75209 4.42233C7.24222 3.23397 9.09395 2.59098 10.9999 2.60009C14.0291 2.60009 16.7769 4.24332 18.2595 6.80005H16.2498C15.9714 6.80005 15.7043 6.91067 15.5074 7.10758C15.3105 7.30449 15.1998 7.57156 15.1998 7.85003C15.1998 8.12851 15.3105 8.39558 15.5074 8.59249C15.7043 8.7894 15.9714 8.90002 16.2498 8.90002H20.4498C20.7283 8.90002 20.9953 8.7894 21.1922 8.59249C21.3892 8.39558 21.4998 8.12851 21.4998 7.85003V3.65008C21.4998 3.3716 21.3892 3.10454 21.1922 2.90762C20.9953 2.71071 20.7283 2.60009 20.4498 2.60009ZM1.54999 19.3999C1.82846 19.3999 2.09553 19.2893 2.29244 19.0924C2.48935 18.8955 2.59998 18.6284 2.59998 18.3499V17.2737C3.57089 18.5872 4.83699 19.654 6.29611 20.3882C7.75523 21.1223 9.3665 21.5031 10.9999 21.4999C13.3824 21.5109 15.697 20.707 17.5597 19.2215C19.4224 17.736 20.7211 15.6583 21.2404 13.3331C21.3023 13.0614 21.2536 12.7763 21.1053 12.5405C20.9569 12.3047 20.7209 12.1375 20.4493 12.0757C20.1776 12.0139 19.8925 12.0625 19.6567 12.2109C19.4209 12.3593 19.2537 12.5952 19.1919 12.8669C18.7767 14.7271 17.7378 16.3893 16.2477 17.5777C14.7576 18.766 12.9058 19.409 10.9999 19.3999C7.96962 19.3999 5.24805 17.7955 3.74657 15.2H5.74994C6.02842 15.2 6.29549 15.0893 6.4924 14.8924C6.68931 14.6955 6.79993 14.4284 6.79993 14.15C6.79993 13.8715 6.68931 13.6044 6.4924 13.4075C6.29549 13.2106 6.02842 13.1 5.74994 13.1H1.54999C1.27151 13.1 1.00445 13.2106 0.807535 13.4075C0.610623 13.6044 0.5 13.8715 0.5 14.15V18.3499C0.5 18.6284 0.610623 18.8955 0.807535 19.0924C1.00445 19.2893 1.27151 19.3999 1.54999 19.3999Z" fill="#1C74D0"/>
</svg>
