<svg id="Group_18118" data-name="Group 18118" xmlns="http://www.w3.org/2000/svg" xmlns:xlink="http://www.w3.org/1999/xlink" width="22.91" height="23" viewBox="0 0 22.91 23">
  <defs>
    <clipPath id="clip-path">
      <rect id="Rectangle_3435" data-name="Rectangle 3435" width="22.91" height="23" fill="#fff"/>
    </clipPath>
  </defs>
  <g id="Group_18118-2" data-name="Group 18118" clip-path="url(#clip-path)">
    <path id="Path_34183" data-name="Path 34183" d="M243.348,0c.413.058.827.106,1.238.177A11.2,11.2,0,0,1,250.43,3.1a11.4,11.4,0,0,1,3.463,6.313c.056.291.1.585.146.877v.27h-1.428c-.064-.373-.114-.733-.187-1.088a9.89,9.89,0,0,0-2.981-5.305A10.071,10.071,0,0,0,247.058,2.5a.224.224,0,0,0-.32.053c-.367.383-.745.754-1.127,1.138-.062-.057-.113-.1-.16-.146Q243.776,1.873,242.1.2A.759.759,0,0,1,242,0Z" transform="translate(-231.129)" fill="#fff"/>
    <path id="Path_34184" data-name="Path 34184" d="M10.691,287.557c-.413-.058-.827-.106-1.238-.177a11.2,11.2,0,0,1-5.844-2.919,11.4,11.4,0,0,1-3.463-6.313c-.056-.291-.1-.585-.146-.877V277H1.428c.064.373.114.733.187,1.088A9.89,9.89,0,0,0,4.6,283.393a10.072,10.072,0,0,0,2.385,1.661A.224.224,0,0,0,7.3,285c.367-.383.745-.755,1.126-1.139.063.058.114.1.161.147q1.676,1.674,3.349,3.352a.76.76,0,0,1,.1.2Z" transform="translate(0 -264.557)" fill="#fff"/>
    <path id="Path_34185" data-name="Path 34185" d="M26.935,35.156a1.417,1.417,0,0,1,.454-1.061q3.007-3.011,6.02-6.017a1.434,1.434,0,0,1,2.153.03q1.585,1.575,3.161,3.159,4.089,4.089,8.179,8.178a1.429,1.429,0,0,1,.43,1.605,1.729,1.729,0,0,1-.386.592q-2.983,3-5.984,5.99a1.431,1.431,0,0,1-2.151,0q-5.706-5.7-11.4-11.4a1.44,1.44,0,0,1-.471-1.077m7.539-6.048-6.05,6.05L39.873,46.616l6.061-6.047Z" transform="translate(-25.725 -26.366)" fill="#fff"/>
  </g>
</svg>
