<svg xmlns="http://www.w3.org/2000/svg" width="12" height="12" viewBox="0 0 12 12">
  <g id="Group_16655" data-name="Group 16655" transform="translate(-308 -492)">
    <path id="Subtraction_1" data-name="Subtraction 1" d="M5446-483h-6a3,3,0,0,1-3-3v-6a3,3,0,0,1,3-3h6a3,3,0,0,1,3,3v6A3,3,0,0,1,5446-483Zm-5.543-6.2a.554.554,0,0,0-.384.148c-.122.115-.244.238-.387.387a.522.522,0,0,0-.145.3l0,.007a.063.063,0,0,0,0,.01v.152l.006.025c0,.019.009.037.015.056a.563.563,0,0,0,.15.258l.194.2,2.754,2.756a.58.58,0,0,0,.349.186.782.782,0,0,0,.1.005.532.532,0,0,0,.4-.157q1.479-1.481,2.96-2.961a.6.6,0,0,0,.189-.33.562.562,0,0,0-.145-.506c-.146-.152-.268-.274-.384-.384a.56.56,0,0,0-.387-.155.573.573,0,0,0-.407.17l-.45.448-.864.862-.015.019-.009.012-.012-.005v-4.029a.534.534,0,0,0-.477-.551l-.014,0-.012,0h-.753l-.053.014a.918.918,0,0,0-.11.033.517.517,0,0,0-.339.506v4.04l-.019-.018-.009-.008-.431-.429c-.274-.272-.584-.579-.876-.878A.6.6,0,0,0,5440.457-489.2Z" transform="translate(-5129 987)" fill="#f80"/>
    <path id="Subtraction_2" data-name="Subtraction 2" d="M5446-483h-6a3,3,0,0,1-3-3v-6a3,3,0,0,1,3-3h6a3,3,0,0,1,3,3v6A3,3,0,0,1,5446-483Zm-5.543-6.2a.554.554,0,0,0-.384.148c-.122.115-.244.238-.387.387a.522.522,0,0,0-.145.3l0,.007a.063.063,0,0,0,0,.01v.152l.006.025c0,.019.009.037.015.056a.563.563,0,0,0,.15.258l.194.2,2.754,2.756a.58.58,0,0,0,.349.186.782.782,0,0,0,.1.005.532.532,0,0,0,.4-.157q1.479-1.481,2.96-2.961a.6.6,0,0,0,.189-.33.562.562,0,0,0-.145-.506c-.146-.152-.268-.274-.384-.384a.56.56,0,0,0-.387-.155.573.573,0,0,0-.407.17l-.45.448-.864.862-.015.019-.009.012-.012-.005v-4.029a.534.534,0,0,0-.477-.551l-.014,0-.012,0h-.753l-.053.014a.918.918,0,0,0-.11.033.517.517,0,0,0-.339.506v4.04l-.019-.018-.009-.008-.431-.429c-.274-.272-.584-.579-.876-.878A.6.6,0,0,0,5440.457-489.2Z" transform="translate(-5129 987)" fill="#f80"/>
  </g>
</svg>
