<svg xmlns="http://www.w3.org/2000/svg" width="16" height="16" viewBox="0 0 16 16">
  <g id="search_close" opacity="0.5">
    <path id="Path_28494" data-name="Path 28494" d="M8,16a8,8,0,1,1,8-8A8.009,8.009,0,0,1,8,16ZM8,1a7,7,0,1,0,7,7A7.008,7.008,0,0,0,8,1ZM8,1" fill="#606060"/>
    <path id="Path_28495" data-name="Path 28495" d="M161.308,166.616a.491.491,0,0,1-.347-.838l4.859-4.859a.491.491,0,0,1,.694.694l-4.859,4.859a.491.491,0,0,1-.347.144Zm0,0" transform="translate(-155.737 -155.696)" fill="#606060"/>
    <path id="Path_28496" data-name="Path 28496" d="M166.145,166.635a.487.487,0,0,1-.347-.144l-4.859-4.859a.491.491,0,0,1,.694-.694l4.859,4.859a.49.49,0,0,1-.348.838Zm0,0" transform="translate(-155.716 -155.715)" fill="#606060"/>
  </g>
</svg>
