<svg width="19" height="18" viewBox="0 0 19 18" fill="none" xmlns="http://www.w3.org/2000/svg">
<path d="M9.88358 17.8046L9.34386 17.9623C8.92972 18.0827 8.49272 17.9085 8.24958 17.5262L5.93929 13.9251L9.82302 14.3778L10.5602 16.2968C10.7956 16.9198 10.4803 17.6301 9.88358 17.8046ZM2.38629 6.42822L1.13229 6.79781C0.319146 7.03858 -0.167433 7.95232 0.0531457 8.84141L0.847287 12.0811C1.06401 12.9698 1.90001 13.4974 2.71701 13.2563L3.97101 12.891L2.38629 6.42822ZM14.883 12.9542L11.8088 0.412611C11.7165 0.0352365 11.3065 -0.122787 11.0179 0.106947L3.48681 6.10796L5.07064 12.5684L14.3379 13.6503C14.693 13.6918 14.9756 13.3306 14.883 12.9542ZM15.3493 2.56881C15.2627 2.56881 15.1757 2.5448 15.0955 2.49418C14.8521 2.3407 14.769 2.00064 14.9094 1.73488L15.6447 0.343172C15.7849 0.0767705 16.0969 -0.0140852 16.3394 0.13972C16.5829 0.293201 16.666 0.633261 16.5256 0.899013L15.7902 2.29073C15.6958 2.46919 15.5248 2.56881 15.3493 2.56881ZM16.0755 6.43958C15.8508 6.43958 15.6453 6.27572 15.5845 6.02748C15.512 5.73091 15.6729 5.42622 15.9443 5.34639L17.3645 4.93073C17.6374 4.85155 17.9149 5.02678 17.988 5.324C18.0604 5.62058 17.8995 5.92527 17.6282 6.0051L16.2079 6.42076C16.1631 6.43374 16.1191 6.43958 16.0755 6.43958ZM18.4909 10.9924C18.4042 10.9924 18.3172 10.9684 18.2371 10.9178L16.9638 10.114C16.7203 9.96056 16.6372 9.6205 16.7776 9.35474C16.918 9.08834 17.2298 8.99749 17.4723 9.15129L18.7456 9.95504C18.989 10.1085 19.0722 10.4486 18.9317 10.7143C18.8376 10.8928 18.6663 10.9924 18.4909 10.9924Z" fill="#FF86B1"/>
</svg>
