<svg width="44" height="44" viewBox="0 0 44 44" fill="none" xmlns="http://www.w3.org/2000/svg">
<g opacity="0.16">
<path d="M39.2536 35.4103L39.1671 35.4785L38.8278 34.9693L34.9644 27.2094C34.8583 26.9958 34.7517 26.8191 34.6405 26.6695C34.1618 26.0234 33.5991 25.8885 32.6348 25.5294L32.4708 25.4683L32.489 6.91914C32.4897 6.20108 31.9545 5.60294 31.2626 5.49931L31.271 3.59263C31.2722 3.30867 31.0404 3.07533 30.7559 3.07403L30.3534 3.07227C30.0689 3.07105 29.835 3.30232 29.8337 3.58628L29.8296 4.52353C29.626 4.53033 29.4623 4.69553 29.4614 4.90056L29.4589 5.48004L24.2042 5.47492V5.11478C24.2042 4.88473 24.0677 4.6982 23.8994 4.6982H18.7127C18.5444 4.6982 18.4079 4.88473 18.4079 5.11478V5.46926L11.1256 5.46215C10.3341 5.46138 9.68586 6.10694 9.6851 6.8968L9.66356 28.8757L7.86151 30.2698C7.86182 30.2701 7.56215 30.5019 7.56215 30.5019C7.37998 30.6428 7.21405 30.7668 7.06269 30.8832L7.56376 30.4973L6.98436 30.9383C6.79299 31.0873 6.6043 31.2416 6.43914 31.4202C6.2736 31.5978 6.13618 31.8029 6.04237 32.0275C5.94688 32.2513 5.88572 32.4883 5.84541 32.7276L5.37484 35.598L4.4156 41.3319L4.38525 41.4327L3.28516 44.0008H9.30297V43.3156L9.00346 43.1878C9.02461 43.1515 9.04361 43.1139 9.06546 43.078C9.21782 42.8242 9.38811 42.5889 9.57052 42.3498L11.1888 40.1983C11.369 39.9648 11.554 39.7046 11.6881 39.4295C11.827 39.1543 11.9314 38.862 12.0014 38.5621C12.0231 38.4712 12.04 38.3791 12.0549 38.2866C12.0737 38.6174 12.4442 38.8763 12.8887 38.8526C13.3707 38.827 13.746 38.5151 13.7375 38.1469L13.7369 38.1204C13.866 38.2201 14.0495 38.2785 14.2513 38.2678C14.5912 38.2498 14.8672 38.0627 14.9447 37.8206L31.0194 37.8362C31.8109 37.837 32.4591 37.1914 32.4599 36.4016L32.4603 36.0086L34.4878 37.4761C34.8541 37.7412 35.1918 38.0417 35.4992 38.3707L34.5066 39.1536C33.4485 39.9879 33.2687 41.5201 34.1047 42.5758L35.2422 44.0008H43.1061V40.275L39.2536 35.4103Z" fill="#224D8F"/>
</g>
<g opacity="0.16">
<path d="M6.98846 30.9407L7.04333 30.8984C7.01229 30.9224 6.98286 30.9456 6.95312 30.969C6.965 30.9595 6.97665 30.95 6.98846 30.9407Z" fill="#224D8F"/>
</g>
<path d="M28.8059 6.98922L28.8047 7.26172L30.1054 7.26743L30.1066 6.99494L28.8059 6.98922Z" fill="#5164C8"/>
<path d="M29.4629 20.7017L29.4648 20.2589C29.4649 20.222 29.4347 20.1916 29.3977 20.1914C29.3606 20.1913 29.3302 20.2214 29.33 20.2583L29.3281 20.7011C29.328 20.7382 29.3582 20.7685 29.3952 20.7687C29.4323 20.7689 29.4627 20.7388 29.4629 20.7017Z" fill="#302C6F"/>
<path d="M29.318 20.6415L29.2031 20.2907L29.5879 20.2852L29.4675 20.6421L29.318 20.6415Z" fill="#5164C8"/>
<path d="M28.7266 18.834L30.0767 18.8399L29.5888 20.2865L29.204 20.292L28.7266 18.834Z" fill="#5164C8"/>
<path d="M28.8151 7.24805L30.114 7.25371C30.1522 7.25386 30.1831 7.28491 30.1829 7.323L30.1326 18.7947C30.1322 18.8803 30.0623 18.9495 29.9765 18.9491L28.85 18.9442C28.7642 18.9438 28.6949 18.8741 28.6953 18.7885L28.7457 7.3168C28.7458 7.27871 28.7769 7.24789 28.8151 7.24805Z" fill="#302C6F"/>
<path d="M28.7461 6.92046L28.7742 0.514093C28.7754 0.230128 29.0094 -0.00121882 29.2939 4.83191e-06L29.6964 0.00176345C29.9809 0.00298711 30.2128 0.236399 30.2115 0.520364L30.1833 6.92666C30.1832 6.96474 30.1521 6.99556 30.1139 6.99534L28.815 6.98968C28.7768 6.9896 28.7459 6.95855 28.7461 6.92046Z" fill="#302C6F"/>
<path d="M29.2983 3.35347L29.3075 1.26675C29.3079 1.16029 29.221 1.07273 29.1143 1.07227C29.0076 1.07181 28.9198 1.15854 28.9194 1.26507L28.9102 3.35178C28.9097 3.45824 28.9966 3.54581 29.1033 3.54627C29.2101 3.54673 29.2978 3.46 29.2983 3.35347Z" fill="#5164C8"/>
<path d="M8.06542 32.247C8.69517 32.3769 9.31696 31.9689 9.44709 31.3405L10.074 28.313C10.2041 27.6846 9.79535 27.0641 9.16559 26.9343C8.53584 26.8044 7.91405 27.2123 7.78392 27.8408L7.157 30.8682C7.02678 31.4967 7.43559 32.1171 8.06542 32.247Z" fill="#DD8B6A"/>
<path d="M9.45734 28.8566C9.73194 28.6443 10.105 28.6102 10.4137 28.7692L10.6716 28.8888C10.5384 29.0126 10.4338 29.1703 10.3747 29.3551L9.80452 31.1384L9.03106 31.8318L8.71094 29.4341L9.45734 28.8566Z" fill="#FFB29F"/>
<path d="M6.80469 27.1968L8.69763 25.7324L9.01776 28.1302L8.27787 28.7936L6.80469 27.1968Z" fill="#FFB29F"/>
<path d="M12.606 32.9647L12.6483 34.8196C12.6567 35.1877 12.2815 35.4996 11.7995 35.5253C11.3256 35.5506 10.9359 35.2547 10.9665 34.8929L11.2138 31.9805L12.606 32.9647Z" fill="#DD8B6A"/>
<path d="M13.8447 32.7829L13.8803 34.3468C13.8873 34.6573 13.571 34.9202 13.1646 34.9418C12.7651 34.9631 12.4365 34.7136 12.4624 34.4087L12.6708 31.9531L13.8447 32.7829Z" fill="#DD8B6A"/>
<path d="M29.961 34.7646L10.0353 34.7451C9.24381 34.7444 8.59681 34.0975 8.59766 33.3077L8.62655 3.82521C8.62732 3.03542 9.27554 2.38978 10.067 2.39063L29.9927 2.41005C30.7842 2.41082 31.4311 3.05767 31.4303 3.84746L31.4014 33.33C31.4007 34.1198 30.7525 34.7653 29.961 34.7646Z" fill="url(#paint0_linear_6029_96267)"/>
<path d="M28.9296 32.7204L10.5215 32.2596L9.92188 4.75977H28.9296V32.7204Z" fill="#0F2C4F"/>
<path d="M29.4686 4.29883H10.4609V32.2594H29.4686V4.29883Z" fill="white"/>
<path d="M3.41024 38.2761L2.78516 40.4079L7.19336 41.5917L7.21521 41.5205C7.37876 40.9863 7.60692 40.4754 7.89148 39.9965L3.4248 38.1855L3.41024 38.2761Z" fill="white"/>
<path d="M11.7372 24.9339C11.3474 24.8136 10.9438 24.9214 10.6663 25.1792C10.5331 25.3029 10.4286 25.4606 10.3695 25.6454L9.79928 27.4287L8.64615 31.0352C8.5853 31.2254 8.31759 31.2308 8.24908 31.0432L7.80908 29.8386C7.70623 29.557 7.78486 29.2412 8.00804 29.0404L8.3064 28.772L6.81276 27.1887L6.50229 27.429C5.50167 28.203 4.97998 28.4725 4.78102 29.7203L3.42188 38.1853L7.88848 39.9962C8.0144 39.7844 8.15021 39.5782 8.29828 39.3801L10.1611 36.8889C10.6501 36.2349 10.9192 35.4433 10.9298 34.6273L10.9656 31.8807C10.9692 31.6048 11.0096 31.3305 11.0858 31.0652L12.4503 26.3121C12.6155 25.7369 12.3101 25.1109 11.7372 24.9339Z" fill="#FFB29F"/>
<path d="M4.35086 32.5316L4.80519 29.6587C4.84404 29.4201 4.90367 29.1839 4.99733 28.9608C5.08929 28.7369 5.22479 28.5321 5.38881 28.3541C5.55243 28.1752 5.74013 28.02 5.93058 27.87L6.50737 27.4258L5.92805 27.8668C5.73668 28.0157 5.54791 28.17 5.38275 28.3485C5.21721 28.5262 5.07979 28.7313 4.98606 28.9559C4.89057 29.1797 4.82941 29.4167 4.78909 29.6559L4.31852 32.5264L3.375 38.1663L3.4777 38.2079L4.35086 32.5316Z" fill="#DD8B6A"/>
<path d="M12.5591 25.8037C12.5094 25.4908 12.334 25.196 12.0693 25.0163C11.8056 24.8358 11.4674 24.7774 11.16 24.8518C10.8522 24.9247 10.5798 25.1288 10.4251 25.4022C10.386 25.4703 10.3546 25.5426 10.3305 25.6171L10.2634 25.8314L10.1299 26.2596L9.86293 27.1158L8.79249 30.5401L8.65714 30.9676C8.63745 31.0411 8.61116 31.1075 8.54525 31.1396C8.48378 31.1718 8.40484 31.1691 8.34606 31.1316C8.28398 31.0945 8.26497 31.0213 8.23876 30.9507L8.1612 30.7404L8.00616 30.3195L7.85111 29.8987C7.79317 29.7613 7.76604 29.6124 7.79118 29.4657C7.8141 29.3198 7.88384 29.1819 7.98715 29.076C8.09483 28.9738 8.2081 28.8747 8.31839 28.7739L8.32383 28.769C8.31364 28.7708 8.30513 28.7739 8.29532 28.7753C8.18856 28.8716 8.0805 28.9653 7.97512 29.0642C7.86882 29.172 7.79655 29.313 7.7721 29.4625C7.74504 29.6121 7.77309 29.7684 7.83057 29.9062L8.13599 30.7495L8.21232 30.9604C8.22604 30.9958 8.23554 31.03 8.25271 31.0665C8.2698 31.1022 8.29624 31.1343 8.33004 31.1562C8.39794 31.1999 8.48784 31.2036 8.5595 31.1667C8.63568 31.1323 8.66979 31.0453 8.68757 30.9773L8.82537 30.5505L9.94018 27.1404L10.3591 25.8619L10.4289 25.6493C10.4518 25.5819 10.4813 25.5167 10.5175 25.4556C10.6613 25.2098 10.9105 25.0292 11.1872 24.9681C11.4632 24.9051 11.7647 24.963 11.9938 25.1248C12.2244 25.286 12.3759 25.5491 12.4157 25.826C12.4361 25.9645 12.4292 26.1068 12.3955 26.2422C12.3596 26.3804 12.3127 26.5275 12.2719 26.6697L11.7646 28.3903L11.2594 30.1115L11.0095 30.9728C10.9199 31.2641 10.8691 31.5756 10.8653 31.8834L10.837 33.6767L10.8228 34.5733C10.82 34.8661 10.7871 35.154 10.7184 35.4364C10.6512 35.7183 10.5505 35.9922 10.4199 36.2508C10.292 36.5145 10.1301 36.7457 9.94677 36.9866L8.87603 38.427L8.34069 39.1472C8.16158 39.3845 7.98171 39.6356 7.82782 39.8959C7.81586 39.9158 7.80551 39.9367 7.79379 39.9568L7.99351 40.0378C7.99972 40.0274 8.00508 40.0165 8.01129 40.0062C8.16365 39.7523 8.33395 39.5171 8.51635 39.278L10.1346 37.1265C10.3149 36.893 10.4999 36.6328 10.6339 36.3577C10.7728 36.0825 10.8773 35.7901 10.9472 35.4903C11.0185 35.1912 11.0518 34.881 11.0528 34.5762L11.062 33.6795L11.0804 31.8862C11.0827 31.5961 11.1269 31.3113 11.2114 31.0305L11.4565 30.1678L11.9412 28.4407L12.4238 26.7131C12.4633 26.5674 12.5057 26.429 12.5429 26.2774C12.5791 26.1223 12.5845 25.9604 12.5591 25.8037Z" fill="#DD8B6A"/>
<path d="M7.12712 41.4649L2.87511 40.3543L3.46501 38.2878L3.46608 38.2841C3.46654 38.281 3.47781 38.2077 3.47781 38.2077L3.37511 38.166L3.3594 38.2601L2.71983 40.3844L2.69922 40.453L2.76927 40.4723L7.16928 41.6865L7.26492 41.7129L7.29343 41.6179C7.46013 41.0632 7.69411 40.5326 7.99155 40.0377L7.79183 39.9567C7.51262 40.4318 7.28922 40.9403 7.12712 41.4649Z" fill="white"/>
<path d="M10.5251 26.1457L10.6092 25.8049C10.6244 25.7482 10.6343 25.691 10.6516 25.6342C10.6697 25.5776 10.7034 25.5263 10.7462 25.4847C10.8317 25.4004 10.9564 25.3569 11.0786 25.3692C11.2 25.388 11.3087 25.4215 11.4244 25.4469L11.7666 25.5287L11.9376 25.5696C11.9981 25.5838 12.0624 25.6092 12.1141 25.6497C12.2191 25.7287 12.2917 25.8577 12.2898 25.9947C12.2903 26.0286 12.2849 26.0624 12.2767 26.0953L12.2528 26.1814L12.2048 26.3499L12.1547 26.518C12.138 26.5741 12.1173 26.636 12.0901 26.6913C12.0357 26.8036 11.9583 26.9029 11.8673 26.9858C11.6855 27.1498 11.4367 27.2502 11.1912 27.2203C10.9459 27.1917 10.7333 27.0318 10.6195 26.8255C10.5026 26.621 10.4634 26.3722 10.5251 26.1457ZM10.5251 26.1457C10.4651 26.3726 10.5093 26.6215 10.634 26.8169C10.7566 27.0139 10.972 27.1489 11.1969 27.1606C11.4226 27.174 11.6401 27.0668 11.7963 26.911C11.876 26.8336 11.9399 26.741 11.986 26.642C12.0312 26.5456 12.0551 26.4298 12.0897 26.3171L12.1401 26.1488L12.1643 26.066C12.1704 26.0423 12.1749 26.0179 12.1747 25.9933C12.1786 25.8948 12.1303 25.7952 12.051 25.7308C12.0109 25.6981 11.9658 25.6749 11.9132 25.6592L11.745 25.6076L11.4087 25.5043C11.2974 25.4723 11.1829 25.4302 11.074 25.4063C10.9637 25.3884 10.8429 25.4192 10.7577 25.4967C10.7152 25.535 10.6807 25.5831 10.661 25.6375C10.6425 25.6921 10.6287 25.7497 10.6137 25.806L10.5251 26.1457Z" fill="#DD8B6A"/>
<path d="M15.3828 3.80273C15.4122 4.36699 15.8824 4.8199 16.4549 4.8199H24.0386C24.611 4.8199 25.0813 4.36699 25.1106 3.80273H15.3828Z" fill="#0F2C4F"/>
<path d="M22.843 1.62695H17.6564C17.488 1.62695 17.3516 1.81348 17.3516 2.04353V4.40649C17.3516 4.63653 17.488 4.82306 17.6564 4.82306H22.843C23.0114 4.82306 23.1478 4.63653 23.1478 4.40649V2.04353C23.1479 1.81341 23.0114 1.62695 22.843 1.62695Z" fill="#92B9EB"/>
<path d="M13.0618 17.4824H12.3203V17.7142H13.0618V17.4824Z" fill="#D8DFFA"/>
<path d="M22.1534 18.7617H18.8945V18.9935H22.1534V18.7617Z" fill="#D8DFFA"/>
<path d="M12.3203 16.5762V16.808H15.5906L15.3274 16.5762H12.3203Z" fill="#D8DFFA"/>
<path d="M18.3504 16.291H14.9531L15.3622 16.6512H18.3504V16.291Z" fill="#D8DFFA"/>
<path d="M22.2555 16.2832H19.125V16.6434H22.2555V16.2832Z" fill="#D8DFFA"/>
<path d="M12.3203 17.0293V17.2611H16.105L15.8418 17.0293H12.3203Z" fill="#D8DFFA"/>
<path d="M22.2554 16.9941H15.7539L16.163 17.3544H22.2554V16.9941Z" fill="#D8DFFA"/>
<path d="M14.3047 17.4824V17.7142H16.6201L16.3569 17.4824H14.3047Z" fill="#D8DFFA"/>
<path d="M22.2528 17.6973H16.5508L16.9599 18.0575H22.2528V17.6973Z" fill="#D8DFFA"/>
<path d="M22.1535 18.3164H12.3203V18.5481H22.1535V18.3164Z" fill="#D8DFFA"/>
<path d="M18.424 18.7695H12.3203V19.0013H18.424V18.7695Z" fill="#D8DFFA"/>
<path d="M21.847 19.2227H12.3203V19.4545H21.847V19.2227Z" fill="#D8DFFA"/>
<path d="M13.7644 19.7715H12.3203V20.0033H13.7644V19.7715Z" fill="#D8DFFA"/>
<path d="M22.1558 19.7676H14.25V19.9993H22.1558V19.7676Z" fill="#D8DFFA"/>
<path d="M27.9491 6.44922H25.5898V6.66443H27.9491V6.44922Z" fill="#D8DFFA"/>
<path d="M27.9491 6.86914H25.5898V7.08435H27.9491V6.86914Z" fill="#D8DFFA"/>
<path d="M27.9491 7.28906H25.5898V7.5042H27.9491V7.28906Z" fill="#D8DFFA"/>
<path d="M27.9495 7.71094H22.3281V7.92607H27.9495V7.71094Z" fill="#D8DFFA"/>
<path d="M27.9513 8.48438H23.5312V8.69951H27.9513V8.48438Z" fill="#D8DFFA"/>
<path d="M23.5312 9.12069H23.7273L23.5312 8.98242V9.12069Z" fill="#D8DFFA"/>
<path d="M27.9513 8.9043H23.5312V8.98123L23.7273 9.11951H27.9513V8.9043Z" fill="#D8DFFA"/>
<path d="M24.3213 9.54136L24.2461 9.48828L24.26 9.54136H24.3213Z" fill="#D8DFFA"/>
<path d="M24.2483 9.48831L24.0185 9.32617H23.5312V9.54138H24.2622L24.2483 9.48831Z" fill="#D8DFFA"/>
<path d="M24.0195 9.32617L24.2494 9.48831L24.2065 9.32617H24.0195Z" fill="#D8DFFA"/>
<path d="M27.949 9.54138V9.32617H24.2031L24.246 9.48831L24.3212 9.54138H27.949Z" fill="#D8DFFA"/>
<path d="M25.0053 6.44922H22.3281V6.66443H25.0053V6.44922Z" fill="#D8DFFA"/>
<path d="M25.0053 6.86914H22.3281V7.08435H25.0053V6.86914Z" fill="#D8DFFA"/>
<path d="M25.0053 7.28906H22.3281V7.5042H25.0053V7.28906Z" fill="#D8DFFA"/>
<path d="M22.9445 8.48438H22.8242L22.9445 8.56919V8.48438Z" fill="#D8DFFA"/>
<path d="M25.578 9.83594H24.3398L24.3966 10.0511H25.578V9.83594Z" fill="#D8DFFA"/>
<path d="M25.5763 10.2559H24.4492L24.506 10.4711H25.5763V10.2559Z" fill="#D8DFFA"/>
<path d="M25.5786 10.6758H24.5625L24.6193 10.891H25.5786V10.6758Z" fill="#D8DFFA"/>
<path d="M27.9502 11.0957H24.6719L24.7287 11.3108H27.9502V11.0957Z" fill="#D8DFFA"/>
<path d="M27.9524 11.5176H24.7852L24.8419 11.7328H27.9524V11.5176Z" fill="#D8DFFA"/>
<path d="M27.9508 11.9375H24.8945L24.9513 12.1526H27.9508V11.9375Z" fill="#D8DFFA"/>
<path d="M27.9492 12.3574H25.0039L25.0607 12.5726H27.9492V12.3574Z" fill="#D8DFFA"/>
<path d="M25.3282 13.0219V12.8066H25.125L25.1818 13.0219H25.3282Z" fill="#D8DFFA"/>
<path d="M25.2359 13.2266H25.1989L25.1602 13.4417H25.2927L25.2359 13.2266Z" fill="#D8DFFA"/>
<path d="M25.3265 13.4417V13.2266H25.2344L25.2912 13.4417H25.3265Z" fill="#D8DFFA"/>
<path d="M25.3256 13.6484H25.1207L25.082 13.8636H25.3256V13.6484Z" fill="#D8DFFA"/>
<path d="M25.3271 14.0684H25.0466L25.0078 14.2836H25.3271V14.0684Z" fill="#D8DFFA"/>
<path d="M25.3261 14.9102H24.8942L24.8555 15.1254H25.3261V14.9102Z" fill="#D8DFFA"/>
<path d="M23.1418 8.01953H22.3281V8.37248H23.3391V8.15872L23.1418 8.01953Z" fill="#D8DFFA"/>
<path d="M23.3392 8.47656H22.3281V8.82951H23.3392V8.47656Z" fill="#D8DFFA"/>
<path d="M23.957 9.26953H22.3281V9.62248H23.957V9.26953Z" fill="#D8DFFA"/>
<path d="M25.0514 10.2344H22.3281V10.5873H25.0514V10.2344Z" fill="#D8DFFA"/>
<path d="M25.0514 10.9258H22.3281V11.2787H25.0514V10.9258Z" fill="#D8DFFA"/>
<path d="M25.0514 11.6152H22.3281V11.9682H25.0514V11.6152Z" fill="#D8DFFA"/>
<path d="M25.0526 12.3047H24.2539V12.6576H25.0526V12.3047Z" fill="#D8DFFA"/>
<path d="M25.0514 12.9941H22.3281V13.3471H25.0514V12.9941Z" fill="#D8DFFA"/>
<path d="M23.5074 14.373H22.3281V14.726H23.5074V14.373Z" fill="#D8DFFA"/>
<path d="M25.0514 15.1094H22.3281V15.4623H25.0514V15.1094Z" fill="#D8DFFA"/>
<path d="M27.9514 15.3301H24.82L24.7812 15.5453H27.9514V15.3301Z" fill="#D8DFFA"/>
<path d="M18.1954 3.16266C18.3982 3.16266 18.5626 2.99858 18.5626 2.79617C18.5626 2.59377 18.3982 2.42969 18.1954 2.42969C17.9926 2.42969 17.8281 2.59377 17.8281 2.79617C17.8281 2.99858 17.9926 3.16266 18.1954 3.16266Z" fill="#0F2C4F"/>
<path d="M22.3009 3.16266C22.5037 3.16266 22.6681 2.99858 22.6681 2.79617C22.6681 2.59377 22.5037 2.42969 22.3009 2.42969C22.098 2.42969 21.9336 2.59377 21.9336 2.79617C21.9336 2.99858 22.098 3.16266 22.3009 3.16266Z" fill="#0F2C4F"/>
<path d="M10.0884 44.0002C10.3567 42.9033 9.80215 41.7422 8.72742 41.2837L3.08538 38.877L0.890625 44.0002H10.0884Z" fill="url(#paint1_linear_6029_96267)"/>
<path d="M8.34309 43.6292C8.64692 43.6292 8.89322 43.3834 8.89322 43.0802C8.89322 42.777 8.64692 42.5312 8.34309 42.5312C8.03927 42.5312 7.79297 42.777 7.79297 43.0802C7.79297 43.3834 8.03927 43.6292 8.34309 43.6292Z" fill="#172635"/>
<path d="M28.3767 8.01388C28.3127 8.01365 28.2615 7.96203 28.2617 7.89871L28.2884 1.82853C28.2896 1.55642 28.5119 1.33594 28.7843 1.33594C28.7864 1.33594 29.0559 1.33716 29.0559 1.33716C29.1193 1.33747 29.1706 1.38901 29.1703 1.45241C29.17 1.51559 29.1186 1.5666 29.0553 1.5666C29.0548 1.5666 28.7853 1.56537 28.7853 1.56537C28.6381 1.56537 28.5188 1.68361 28.5182 1.82961L28.4916 7.89978C28.4914 7.96287 28.4399 8.01388 28.3767 8.01388Z" fill="#5164C8"/>
<path d="M19.5732 7.41016L19.3438 7.63913L19.7686 7.62208C19.7059 7.55004 19.6414 7.47899 19.5732 7.41016Z" fill="#FC619D"/>
<path d="M20.5915 7.02344L20.0992 7.04324L18.207 8.93142C18.2346 8.95605 18.2631 8.97937 18.2895 9.00583C19.0653 9.77995 19.0706 11.0303 18.3079 11.8124L20.3706 13.8612C22.2336 11.9773 22.3065 8.99459 20.5915 7.02344Z" fill="#FF0000"/>
<path d="M18.3082 11.8121C18.3019 11.8187 18.2964 11.8259 18.2899 11.8324C17.5077 12.613 16.2394 12.613 15.4571 11.8324C15.4306 11.8059 15.4072 11.7775 15.3826 11.75L14.0752 13.0546L13.9141 14.4723C15.8816 15.8269 18.5969 15.6326 20.3475 13.8856C20.3556 13.8776 20.363 13.8691 20.3709 13.861L18.3082 11.8121Z" fill="#1056AA"/>
<path d="M19.4606 7.30292C18.6701 6.51404 17.6338 6.12025 16.5977 6.1211L16.6236 8.18571L17.6213 7.59652L19.2621 7.53052L19.475 7.31798C19.4701 7.31301 19.4656 7.30781 19.4606 7.30292Z" fill="#00B500"/>
<path d="M16.8047 7.86114L16.8117 8.42302C17.3099 8.4078 17.8114 8.57743 18.2071 8.93114L20.0992 7.04297L18.0504 7.12541L16.8047 7.86114Z" fill="#00B500"/>
<path d="M16.5966 6.12109C15.5653 6.12194 14.5343 6.51381 13.7461 7.29695L15.3798 8.91967L15.385 8.91653L16.6225 8.18571L16.5966 6.12109Z" fill="#00B500"/>
<path d="M15.1602 9.13652C15.163 9.13938 15.1664 9.13281 15.1664 9.13281L15.1602 9.13652Z" fill="#E5EAF7"/>
<path d="M16.5069 8.83073L16.5008 8.3457L15.1672 9.13335L15.1641 9.13932L15.349 9.3231C15.6716 9.00694 16.0872 8.84358 16.5069 8.83073Z" fill="#E5EAF7"/>
<path d="M15.4734 8.99417L15.2592 8.78125L14.3707 10.4826L14.0781 13.0552L15.3855 11.7507C14.681 10.9659 14.7043 9.7604 15.46 9.00625C15.4643 9.00204 15.4691 8.99845 15.4734 8.99417Z" fill="#FABA0A"/>
<path d="M14.4704 10.6671L14.6701 10.2845L15.3817 8.92197C15.3793 8.9196 15.1936 9.02919 15.1936 9.02919L15.3793 8.9196L13.7456 7.29688C13.7435 7.29894 13.7414 7.30078 13.7393 7.30284C12.1598 8.87898 12.1598 11.4344 13.7393 13.0105C13.7443 13.0154 13.7495 13.0199 13.7544 13.0249L14.4357 12.345L14.67 10.2846L14.4704 10.6671Z" fill="#FABA0A"/>
<path d="M14.662 27.5293H13.3828V30.3216H14.662V27.5293Z" fill="#E5EAF7"/>
<path d="M16.5761 26.4922H15.2969V30.3209H16.5761V26.4922Z" fill="#FF0000"/>
<path d="M18.4901 28.252H17.2109V30.3219H18.4901V28.252Z" fill="#A4B9DD"/>
<path d="M20.4042 23.0469H19.125V30.3225H20.4042V23.0469Z" fill="#00B500"/>
<path d="M22.3183 25.8887H21.0391V30.3221H22.3183V25.8887Z" fill="#FF0000"/>
<path d="M24.2323 23.3848H22.9531V30.3213H24.2323V23.3848Z" fill="#00B500"/>
<path d="M26.1464 21.3105H24.8672V30.3213H26.1464V21.3105Z" fill="#E5EAF7"/>
<g opacity="0.16">
<path d="M31.1964 25.5599C30.9893 25.4816 30.7603 25.4014 30.5015 25.3051L30.1335 25.168L27.8896 24.3323L27.0048 24.0027C26.7497 23.9077 26.4702 23.9369 26.2419 24.0706L25.0982 22.3917C24.6674 21.7593 23.8659 21.5224 23.1743 21.7685L22.4921 20.6879C24.9399 18.7323 25.585 15.214 23.8836 12.5194C22.0602 9.63165 18.2332 8.78427 15.3356 10.6267C12.4381 12.4692 11.5673 16.3037 13.3907 19.1915C15.1231 21.9351 18.6635 22.835 21.4976 21.3382L22.2671 22.5569C21.9967 23.0782 22.0122 23.7288 22.3645 24.246L23.7514 26.2818L22.9147 27.2667C22.7429 27.5415 22.8044 27.9012 23.0577 28.1037C23.0816 28.1228 23.1062 28.1409 23.1313 28.1579C23.4751 28.3902 23.9257 28.3845 24.2868 28.1823L24.2117 30.6347C24.204 30.8882 24.3739 31.1131 24.6203 31.1755C24.9415 31.3027 25.3078 31.2236 25.5478 30.9754L25.5679 30.9546C25.6642 30.855 25.7517 30.7481 25.831 30.6361L25.8259 30.6533L26.7182 32.2396C26.86 32.4917 27.1381 32.6478 27.4256 32.6119C27.6317 32.5861 27.7848 32.4791 27.8771 32.3379L28.0687 32.6192C28.1035 32.6702 28.1424 32.7168 28.1829 32.7613L28.4218 33.4922C28.549 33.8813 28.7365 34.2452 28.9752 34.5717C29.0161 34.6278 29.0605 34.6811 29.1043 34.7349H29.4799C30.4278 34.7349 31.1963 33.9681 31.1963 33.0222V25.5599H31.1964ZM21.2046 20.3305C20.6135 20.6875 19.9799 20.9101 19.3388 21.0132C17.3103 21.3396 15.2016 20.4414 14.0845 18.5761C12.6143 16.1212 13.4184 12.9263 15.8805 11.4403C16.347 11.1589 16.8396 10.9596 17.3416 10.837C19.4888 10.3128 21.809 11.2051 23.0007 13.1949C24.4709 15.6499 23.6669 18.8445 21.2046 20.3305Z" fill="#224D8F"/>
</g>
<path d="M31.5218 27.5234C30.9593 27.8344 30.2441 27.6296 29.9324 27.0683L28.4308 24.3643C28.1191 23.8029 28.3244 23.0892 28.8868 22.7782C29.4493 22.4671 30.1646 22.6719 30.4763 23.2332L31.9778 25.9373C32.2895 26.4985 32.0844 27.2123 31.5218 27.5234Z" fill="#DD8B6A"/>
<path d="M28.0793 21.1559C27.7538 21.0346 27.3874 21.1129 27.1401 21.3565L26.9297 21.5472C27.0937 21.6258 27.2406 21.7453 27.3521 21.9041L28.4284 23.4372L29.3736 23.8695L28.964 21.4852L28.0793 21.1559Z" fill="#FFB29F"/>
<path d="M26.9023 27.8066L27.8123 29.4245C27.9929 29.7456 28.3958 29.8664 28.724 29.698C29.0466 29.5322 29.1517 29.1227 28.9489 28.8226L27.3151 26.4062L26.9023 27.8066Z" fill="#F08C7A"/>
<path d="M23.8171 20.4595L24.8197 19.822L23.3893 17.5566L22.3867 18.1942L23.8171 20.4595Z" fill="#423D88"/>
<path d="M23.0129 18.2365C25.9105 16.394 26.7813 12.5595 24.9578 9.67174C23.1344 6.78399 19.3074 5.93661 16.4098 7.77905C13.5123 9.6215 12.6415 13.4561 14.4649 16.3438C16.2884 19.2316 20.1154 20.0789 23.0129 18.2365ZM15.1587 15.7284C13.6886 13.2734 14.4926 10.0786 16.9547 8.59256C17.4213 8.31119 17.9138 8.11189 18.4158 7.98929C20.563 7.46511 22.8832 8.35738 24.0749 10.3472C25.5452 12.8022 24.7412 15.9968 22.2788 17.4828C21.6877 17.8397 21.0542 18.0623 20.413 18.1655C18.3845 18.4919 16.2759 17.5937 15.1587 15.7284Z" fill="#302C6F"/>
<path d="M25.3715 24.9768L25.2854 27.7877C25.2777 28.0413 25.4476 28.2662 25.694 28.3285C26.0152 28.4556 26.3816 28.3766 26.6215 28.1284L26.6416 28.1077C27.048 27.6873 27.3079 27.1475 27.3828 26.5683L26.0358 24.5938L25.3715 24.9768Z" fill="#DD8B6A"/>
<path d="M24.8553 23.3984L23.9877 24.4196C23.8159 24.6944 23.8774 25.0541 24.1307 25.2566C24.1546 25.2758 24.1791 25.2938 24.2042 25.3108C24.5587 25.5504 25.0277 25.5388 25.3941 25.3177L25.9539 24.9799L24.8553 23.3984Z" fill="#FFB29F"/>
<path d="M31.537 29.7051L30.9357 30.113C30.3493 30.5108 29.5434 30.3575 29.1448 29.7724L23.4406 21.399C22.9295 20.6488 23.1265 19.6178 23.8783 19.1079C24.63 18.598 25.6632 18.7945 26.1743 19.5447L31.8784 27.9181C32.277 28.5032 32.1234 29.3073 31.537 29.7051Z" fill="#17416D"/>
<path d="M37.7703 31.8968L33.9069 24.1369C33.3448 23.0048 32.7664 22.9025 31.5802 22.4607L31.2122 22.3237L30.2585 24.2788L30.6235 24.4464C30.8964 24.5717 31.0657 24.8499 31.0515 25.1493L30.9908 26.4299C30.9814 26.6294 30.7241 26.7037 30.6093 26.5402L28.4327 23.4398L27.3565 21.9067C27.2449 21.7479 27.098 21.6284 26.934 21.5498C26.5922 21.386 26.1747 21.403 25.8384 21.6338C25.3443 21.9729 25.2395 22.6612 25.5687 23.1614L28.2892 27.2937C28.441 27.5244 28.5614 27.7741 28.6472 28.0365L29.5006 30.648C29.7542 31.4238 30.2472 32.0997 30.9091 32.5787L33.4306 34.4037C33.6246 34.5442 33.8099 34.6953 33.9879 34.8543L37.7851 31.9188L37.7703 31.8968Z" fill="#FFB29F"/>
<path d="M37.7816 31.9199L33.9844 34.8554C34.4061 35.2319 34.7823 35.6574 35.1022 36.1253L35.1443 36.187L38.9996 33.7474L37.7816 31.9199Z" fill="white"/>
<path d="M30.2615 24.28L30.2651 24.2728C30.2626 24.2717 30.2603 24.2706 30.2578 24.2695L30.2615 24.28Z" fill="#DD8B6A"/>
<path d="M35.2288 36.1246C35.2107 36.0975 35.1904 36.0718 35.1718 36.0449L35.0898 36.096L35.2288 36.1246Z" fill="#DD8B6A"/>
<path d="M38.9631 33.6836L38.9023 33.7215L38.9421 33.7821L38.9631 33.6836Z" fill="#DD8B6A"/>
<path d="M34.038 34.754C33.8135 34.5511 33.5669 34.3649 33.3251 34.1915L32.5992 33.663L31.1473 32.6059C30.9004 32.4304 30.6769 32.2578 30.4761 32.0439C30.2743 31.8359 30.0964 31.6043 29.9482 31.3551C29.7984 31.106 29.6812 30.8409 29.5912 30.5622L29.3101 29.7104L28.7481 28.007C28.6528 27.7141 28.5114 27.4318 28.3389 27.1805L27.8435 26.4323L26.8478 24.9393L25.8502 23.4475C25.7688 23.3238 25.6801 23.1973 25.6046 23.076C25.532 22.9568 25.483 22.823 25.4612 22.6847C25.4166 22.4087 25.4829 22.1125 25.6549 21.8901C25.8253 21.6675 26.0959 21.5227 26.3781 21.5009C26.6605 21.4771 26.9524 21.5754 27.1629 21.7674C27.2158 21.815 27.2633 21.8684 27.3053 21.926L27.4354 22.1082L27.6958 22.4736L28.2166 23.2043L30.2981 26.1287L30.5569 26.4952C30.5942 26.5549 30.6527 26.6278 30.7357 26.638C30.8151 26.6519 30.8999 26.6216 30.9516 26.5598C30.9773 26.5288 30.993 26.4903 30.9987 26.4511C31.0042 26.4112 31.003 26.3757 31.0056 26.3378L31.0155 26.1139L31.0355 25.6659L31.0555 25.218C31.0693 25.0693 31.0494 24.9119 30.979 24.7771C30.9111 24.6416 30.8 24.5285 30.6664 24.4572C30.5329 24.3924 30.3985 24.3338 30.2646 24.272L30.2614 24.2786L30.258 24.2689C30.2602 24.2699 30.2624 24.2709 30.2645 24.2719L31.2091 22.3216L31.5766 22.4573L31.209 22.3192C31.2076 22.3197 30.2484 24.2722 30.2484 24.2722L30.2452 24.2787L30.2519 24.2818C30.3872 24.3453 30.5249 24.4063 30.6582 24.4719C30.7885 24.5422 30.8961 24.6533 30.9615 24.7857C31.0293 24.9183 31.0478 25.0685 31.0335 25.2169L31.0109 25.6646L30.9885 26.1124L30.9772 26.3364C30.9732 26.4115 30.9769 26.487 30.9287 26.5409C30.8837 26.5941 30.8092 26.6202 30.7409 26.6077C30.6684 26.5966 30.6234 26.5409 30.5828 26.4767L30.326 26.1088L28.2827 23.1577L27.7723 22.4196L27.5172 22.0505L27.3892 21.8657C27.3441 21.8018 27.2924 21.7421 27.2349 21.6888C27.0056 21.4737 26.6847 21.3598 26.3691 21.3815C26.0534 21.4018 25.748 21.5581 25.5501 21.8087C25.351 22.0588 25.2714 22.3924 25.3173 22.7059C25.3399 22.863 25.3933 23.016 25.4741 23.1532C25.5548 23.2869 25.6366 23.4065 25.7178 23.5338L26.6939 25.0397L27.6718 26.5445L28.1631 27.2954C28.3275 27.5384 28.4547 27.7971 28.5434 28.0733L29.0959 29.78L29.3721 30.6333C29.464 30.9239 29.5883 31.2103 29.7456 31.4746C29.9018 31.74 30.0888 31.9881 30.3035 32.2096C30.5135 32.4324 30.7678 32.6258 31.0095 32.7951L32.4673 33.844L33.1962 34.3685C33.4417 34.5426 33.6744 34.7166 33.8956 34.9136C33.898 34.9157 33.9001 34.918 33.9025 34.9201L34.0737 34.7878C34.0615 34.7769 34.0503 34.7649 34.038 34.754Z" fill="#DD8B6A"/>
<path d="M39.058 33.7047L37.8274 31.8867L37.7405 31.9539L38.9007 33.7221L38.9615 33.6843L38.9405 33.7828L38.9007 33.7221L35.1714 36.0462C35.1899 36.0731 35.2102 36.0988 35.2284 36.1259L35.0894 36.0973L35.1714 36.0462C34.8564 35.5879 34.4878 35.1628 34.0735 34.7888L33.9023 34.9212C34.3422 35.3095 34.7301 35.7532 35.0597 36.2407L35.1153 36.3229L35.1986 36.2693L39.037 33.8033L39.0981 33.764L39.058 33.7047Z" fill="white"/>
<path d="M32.9229 23.011C33.1326 23.1323 33.323 23.2875 33.4777 23.474C33.6337 23.6591 33.761 23.867 33.8693 24.0833L35.16 26.6909L37.7194 31.9173C37.7228 31.9233 37.7422 31.9528 37.7422 31.9528L37.8291 31.8855L37.8154 31.8653L37.8172 31.8688L37.8137 31.8629C37.8154 31.8653 35.1893 26.6763 35.1893 26.6763L33.8838 24.0758C33.774 23.8594 33.6448 23.6512 33.4869 23.466C33.3304 23.2794 33.138 23.1244 32.927 23.004C32.7161 22.8826 32.4898 22.7914 32.2628 22.706L31.5781 22.457L32.2613 22.7098C32.4879 22.7964 32.7134 22.8888 32.9229 23.011Z" fill="#DD8B6A"/>
<path d="M37.8151 31.8699L37.813 31.8659C37.8111 31.8631 37.8151 31.8699 37.8151 31.8699Z" fill="#DD8B6A"/>
<path d="M27.3547 22.4284L27.1689 22.1304C27.1376 22.0812 27.1074 22.0303 27.0734 21.9836C27.0385 21.9376 26.9912 21.9019 26.9392 21.878C26.8346 21.8293 26.7101 21.8358 26.6102 21.8857C26.5133 21.9407 26.4167 22.0149 26.3199 22.0786L26.0296 22.277L25.8845 22.3762C25.839 22.4069 25.8029 22.4424 25.7743 22.4855C25.7178 22.5706 25.7013 22.6801 25.7345 22.7729C25.7416 22.7965 25.7531 22.8184 25.7661 22.8393L25.8138 22.9111L25.9121 23.0569C25.9787 23.1541 26.0361 23.2576 26.108 23.3362C26.1815 23.417 26.2702 23.4864 26.3694 23.5366C26.565 23.639 26.8046 23.6766 27.0161 23.5969C27.2273 23.5189 27.3927 23.3261 27.4509 23.1015C27.5117 22.8779 27.4797 22.6273 27.3547 22.4284ZM27.3547 22.4284C27.4813 22.6262 27.5181 22.8755 27.4673 23.1055C27.4201 23.3363 27.2649 23.5521 27.0392 23.6523C26.8137 23.7537 26.5463 23.7318 26.3238 23.6292C26.2121 23.5771 26.1087 23.5053 26.0232 23.4142C25.9807 23.3694 25.9426 23.3164 25.9098 23.2679L25.8119 23.1223L25.7157 22.9756L25.6672 22.9006C25.6497 22.8717 25.6344 22.841 25.6248 22.8084C25.5821 22.6781 25.6129 22.5334 25.6896 22.4268C25.727 22.3728 25.7807 22.3295 25.8342 22.298L25.9853 22.2081L26.2876 22.0283C26.3905 21.9697 26.4843 21.9055 26.5946 21.8515C26.7076 21.8035 26.8396 21.808 26.9463 21.863C26.9997 21.89 27.0471 21.929 27.0813 21.9776C27.1147 22.0267 27.1412 22.0784 27.1727 22.128L27.3547 22.4284Z" fill="#DD8B6A"/>
<path d="M31.2088 22.3201L28.9648 21.4844L29.3745 23.8685L30.2788 24.2821L31.2088 22.3201Z" fill="#FFB29F"/>
<path d="M36.6348 43.9999H43.1063V38.7213L38.1945 32.3379L33.4474 36.0813C32.3894 36.9156 32.2095 38.4478 33.0456 39.5035L36.6348 43.9999Z" fill="url(#paint2_linear_6029_96267)"/>
<path d="M35.1956 38.2834C35.2873 37.8813 35.0351 37.4811 34.6322 37.3895C34.2293 37.2979 33.8283 37.5496 33.7365 37.9517C33.6447 38.3538 33.8969 38.7539 34.2998 38.8455C34.7028 38.9371 35.1038 38.6854 35.1956 38.2834Z" fill="#172635"/>
<defs>
<linearGradient id="paint0_linear_6029_96267" x1="20.014" y1="1.02797" x2="20.014" y2="30.1583" gradientUnits="userSpaceOnUse">
<stop stop-color="#0B5B96"/>
<stop offset="1" stop-color="#482C5B"/>
</linearGradient>
<linearGradient id="paint1_linear_6029_96267" x1="-0.00348602" y1="43.3964" x2="7.84872" y2="41.0538" gradientUnits="userSpaceOnUse">
<stop stop-color="#232D59"/>
<stop offset="1" stop-color="#303C84"/>
</linearGradient>
<linearGradient id="paint2_linear_6029_96267" x1="38.9639" y1="44.9971" x2="37.053" y2="34.1058" gradientUnits="userSpaceOnUse">
<stop stop-color="#232D59"/>
<stop offset="1" stop-color="#303C84"/>
</linearGradient>
</defs>
</svg>
