<svg xmlns="http://www.w3.org/2000/svg" width="18" height="18" viewBox="0 0 18 18">
  <g id="select_watchlist_to_add_unselected" transform="translate(-2727.868 632.047)">
    <g id="Ellipse_70" data-name="Ellipse 70">
      <circle id="Ellipse_94" data-name="Ellipse 94" cx="9" cy="9" r="9" transform="translate(2727.868 -632.047)" fill="none"/>
      <path id="Path_28904" data-name="Path 28904" d="M2736.868-614.047a9.01,9.01,0,0,1-9-9,9.01,9.01,0,0,1,9-9,9.01,9.01,0,0,1,9,9A9.01,9.01,0,0,1,2736.868-614.047Zm0-17a8.009,8.009,0,0,0-8,8,8.009,8.009,0,0,0,8,8,8.009,8.009,0,0,0,8-8A8.009,8.009,0,0,0,2736.868-631.047Z" fill="#9a9fa4"/>
    </g>
  </g>
</svg>
