<svg xmlns="http://www.w3.org/2000/svg" width="12" height="12" viewBox="0 0 12 12">
  <g id="success" transform="translate(-113.323 -243.833)">
    <path id="Subtraction_9" data-name="Subtraction 9" d="M5171.323,2902.833a6,6,0,1,1,6-6A6.007,6.007,0,0,1,5171.323,2902.833Zm-2.4-6.134a.6.6,0,0,0-.427.177.607.607,0,0,0,0,.854l1.346,1.344a.587.587,0,0,0,.425.176.6.6,0,0,0,.428-.176l3.21-3.211a.6.6,0,0,0,.175-.427.607.607,0,0,0-.175-.425.6.6,0,0,0-.854,0l-2.782,2.781-.921-.915A.6.6,0,0,0,5168.926,2896.7Z" transform="translate(-5052 -2647)" fill="#3977de"/>
  </g>
</svg>
