<svg width="42" height="42" viewBox="0 0 42 42" fill="none" xmlns="http://www.w3.org/2000/svg">
<g clip-path="url(#clip0_480_1367)">
<path d="M39.7963 24.3772L39.7844 24.3831C38.379 25.4609 37.7836 27.2949 38.2838 28.9921L38.2897 29.004C39.0876 31.7015 37.1107 34.4228 34.3 34.4943H34.2881C32.5136 34.5419 30.9534 35.6733 30.3639 37.3466V37.3525C29.423 40.0083 26.2195 41.0503 23.903 39.4485C22.4647 38.4663 20.5632 38.415 19.0499 39.4485H19.044C16.7276 41.0443 13.524 40.0082 12.5891 37.3465C11.9942 35.669 10.4364 34.5418 8.6649 34.4942H8.65297C5.84239 34.4227 3.86534 31.7015 4.66332 29.0039L4.66924 28.992C5.16933 27.2948 4.57387 25.4608 3.16866 24.383L3.15673 24.3771C0.923669 22.6621 0.923669 19.3037 3.15673 17.5887L3.16866 17.5828C4.57387 16.505 5.16933 14.6709 4.66332 12.9738V12.9619C3.85933 10.2645 5.84231 7.54309 8.65297 7.47166H8.6649C10.4334 7.42401 11.9995 6.29259 12.5891 4.61936V4.61343C13.5239 1.95764 16.7276 0.915584 19.044 2.51747H19.0499C20.5088 3.52381 22.4381 3.52381 23.903 2.51747C26.2428 0.90173 29.4285 1.97358 30.3639 4.61343V4.61936C30.9534 6.28666 32.5135 7.42409 34.2881 7.47166H34.3C37.1107 7.54309 39.0876 10.2645 38.2897 12.9619L38.2838 12.9738C37.7836 14.6709 38.379 16.505 39.7844 17.5828L39.7963 17.5887C42.0294 19.3037 42.0294 22.6622 39.7963 24.3772Z" fill="#3EB655"/>
<path d="M21.4766 32.0737C27.6026 32.0737 32.5688 27.1076 32.5688 20.9816C32.5688 14.8555 27.6026 9.88937 21.4766 9.88937C15.3505 9.88937 10.3844 14.8555 10.3844 20.9816C10.3844 27.1076 15.3505 32.0737 21.4766 32.0737Z" fill="#8BD399"/>
<path d="M18.8376 25.3239L16.3847 22.7143C15.7424 22.0307 15.7755 20.956 16.4588 20.3136C17.1421 19.6704 18.2173 19.7049 18.8592 20.388L20.0301 21.6332L25.0071 15.9446C25.6241 15.2387 26.6971 15.1671 27.4036 15.7849C28.1096 16.4027 28.1809 17.4754 27.5634 18.1814L21.3529 25.2791C20.6913 26.0345 19.5237 26.0543 18.8376 25.3239Z" fill="white"/>
</g>
<defs>
<clipPath id="clip0_480_1367">
<rect width="41" height="41" fill="white" transform="translate(0.976562 0.481567)"/>
</clipPath>
</defs>
</svg>
