<svg width="82" height="81" viewBox="0 0 82 81" fill="none" xmlns="http://www.w3.org/2000/svg">
<circle opacity="0.5" cx="40.8887" cy="40.5" r="40.5" fill="#E8E8E8"/>
<path d="M40.8887 54.3076C48.5145 54.3076 54.6964 48.1257 54.6964 40.4999C54.6964 32.8742 48.5145 26.6923 40.8887 26.6923C33.263 26.6923 27.0811 32.8742 27.0811 40.4999C27.0811 48.1257 33.263 54.3076 40.8887 54.3076Z" fill="#63BA6B"/>
<path d="M50.653 30.7362C53.2425 33.3257 54.6972 36.8377 54.6972 40.4997C54.6972 44.1618 53.2425 47.6738 50.653 50.2632C48.0636 52.8527 44.5515 54.3074 40.8895 54.3074C37.2275 54.3074 33.7154 52.8527 31.126 50.2632L50.653 30.7362Z" fill="#4AAE50"/>
<path d="M38.7633 45.8104H38.7352C38.5807 45.8061 38.429 45.7682 38.2906 45.6995C38.1521 45.6307 38.0303 45.5326 37.9335 45.4121L33.685 40.1015C33.5978 39.9925 33.533 39.8674 33.4941 39.7334C33.4553 39.5994 33.4432 39.459 33.4586 39.3203C33.4741 39.1816 33.5166 39.0473 33.5839 38.9251C33.6513 38.8028 33.742 38.695 33.851 38.6079C33.9599 38.5207 34.085 38.4558 34.219 38.417C34.3531 38.3781 34.4935 38.3661 34.6321 38.3815C34.7708 38.3969 34.9051 38.4395 35.0274 38.5068C35.1496 38.5741 35.2574 38.6648 35.3446 38.7738L38.8057 43.1011L46.4668 34.4838C46.5581 34.375 46.6703 34.2856 46.7967 34.2209C46.9232 34.1562 47.0613 34.1176 47.2029 34.1072C47.3446 34.0968 47.4869 34.115 47.6214 34.1606C47.7559 34.2062 47.8799 34.2783 47.9861 34.3727C48.0922 34.467 48.1784 34.5817 48.2394 34.71C48.3005 34.8382 48.3352 34.9774 48.3415 35.1193C48.3478 35.2611 48.3256 35.4029 48.2762 35.536C48.2268 35.6692 48.1512 35.7911 48.0538 35.8945L39.5568 45.4537C39.4572 45.5658 39.3351 45.6556 39.1983 45.7171C39.0615 45.7786 38.9132 45.8104 38.7633 45.8104V45.8104Z" fill="#F2F2F2"/>
</svg>
