<svg width="24" height="25" viewBox="0 0 24 25" fill="none" xmlns="http://www.w3.org/2000/svg">
<mask id="mask0_5050_40095" style="mask-type:alpha" maskUnits="userSpaceOnUse" x="0" y="0" width="24" height="25">
<rect y="0.5" width="24" height="24" fill="#D9D9D9"/>
</mask>
<g mask="url(#mask0_5050_40095)">
<path d="M12.025 19.5C11.0917 19.5 10.2 19.325 9.35 18.975C8.5 18.625 7.74167 18.1167 7.075 17.45C6.40833 16.7833 5.9 16.025 5.55 15.175C5.2 14.325 5.025 13.4333 5.025 12.5C5.025 11.65 5.16667 10.8375 5.45 10.0625C5.73333 9.2875 6.15 8.58333 6.7 7.95C6.91667 7.71667 7.18333 7.6375 7.5 7.7125C7.81667 7.7875 8.04167 7.99167 8.175 8.325C8.525 9.24167 8.9625 10.1083 9.4875 10.925C10.0125 11.7417 10.625 12.5 11.325 13.2C12.025 13.9 12.7833 14.5125 13.6 15.0375C14.4167 15.5625 15.2833 16 16.2 16.35C16.5333 16.4833 16.7375 16.7083 16.8125 17.025C16.8875 17.3417 16.8083 17.6083 16.575 17.825C15.9417 18.375 15.2375 18.7917 14.4625 19.075C13.6875 19.3583 12.875 19.5 12.025 19.5ZM17.6 14.7C17.3333 14.6167 17.1417 14.4458 17.025 14.1875C16.9083 13.9292 16.875 13.6583 16.925 13.375C17.075 12.575 17.025 11.7875 16.775 11.0125C16.525 10.2375 16.1083 9.55833 15.525 8.975C14.9417 8.39167 14.2708 7.97917 13.5125 7.7375C12.7542 7.49583 11.9833 7.44167 11.2 7.575C10.9167 7.625 10.65 7.59167 10.4 7.475C10.15 7.35833 9.975 7.16667 9.875 6.9C9.775 6.63333 9.7875 6.375 9.9125 6.125C10.0375 5.875 10.2333 5.71667 10.5 5.65C11.65 5.4 12.8 5.4375 13.95 5.7625C15.1 6.0875 16.1083 6.68333 16.975 7.55C17.825 8.4 18.4167 9.4 18.75 10.55C19.0833 11.7 19.125 12.85 18.875 14C18.8083 14.2833 18.65 14.4917 18.4 14.625C18.15 14.7583 17.8833 14.7833 17.6 14.7ZM12 3.5C11.7167 3.5 11.4792 3.40417 11.2875 3.2125C11.0958 3.02083 11 2.78333 11 2.5V1.5C11 1.21667 11.0958 0.979167 11.2875 0.7875C11.4792 0.595833 11.7167 0.5 12 0.5C12.2833 0.5 12.5208 0.595833 12.7125 0.7875C12.9042 0.979167 13 1.21667 13 1.5V2.5C13 2.78333 12.9042 3.02083 12.7125 3.2125C12.5208 3.40417 12.2833 3.5 12 3.5ZM12 24.5C11.7167 24.5 11.4792 24.4042 11.2875 24.2125C11.0958 24.0208 11 23.7833 11 23.5V22.5C11 22.2167 11.0958 21.9792 11.2875 21.7875C11.4792 21.5958 11.7167 21.5 12 21.5C12.2833 21.5 12.5208 21.5958 12.7125 21.7875C12.9042 21.9792 13 22.2167 13 22.5V23.5C13 23.7833 12.9042 24.0208 12.7125 24.2125C12.5208 24.4042 12.2833 24.5 12 24.5ZM18.375 6.15C18.175 5.95 18.075 5.7125 18.075 5.4375C18.075 5.1625 18.175 4.925 18.375 4.725L19.075 4.025C19.2583 3.84167 19.4875 3.75 19.7625 3.75C20.0375 3.75 20.275 3.84167 20.475 4.025C20.675 4.225 20.775 4.4625 20.775 4.7375C20.775 5.0125 20.675 5.25 20.475 5.45L19.775 6.15C19.575 6.35 19.3417 6.45 19.075 6.45C18.8083 6.45 18.575 6.35 18.375 6.15ZM3.525 20.975C3.325 20.775 3.225 20.5375 3.225 20.2625C3.225 19.9875 3.325 19.75 3.525 19.55L4.225 18.85C4.425 18.65 4.65833 18.55 4.925 18.55C5.19167 18.55 5.425 18.65 5.625 18.85C5.825 19.05 5.925 19.2875 5.925 19.5625C5.925 19.8375 5.825 20.075 5.625 20.275L4.925 20.975C4.74167 21.1583 4.5125 21.25 4.2375 21.25C3.9625 21.25 3.725 21.1583 3.525 20.975ZM22 13.5C21.7167 13.5 21.4792 13.4042 21.2875 13.2125C21.0958 13.0208 21 12.7833 21 12.5C21 12.2167 21.0958 11.9792 21.2875 11.7875C21.4792 11.5958 21.7167 11.5 22 11.5H23C23.2833 11.5 23.5208 11.5958 23.7125 11.7875C23.9042 11.9792 24 12.2167 24 12.5C24 12.7833 23.9042 13.0208 23.7125 13.2125C23.5208 13.4042 23.2833 13.5 23 13.5H22ZM1 13.5C0.716667 13.5 0.479167 13.4042 0.2875 13.2125C0.0958333 13.0208 0 12.7833 0 12.5C0 12.2167 0.0958333 11.9792 0.2875 11.7875C0.479167 11.5958 0.716667 11.5 1 11.5H2C2.28333 11.5 2.52083 11.5958 2.7125 11.7875C2.90417 11.9792 3 12.2167 3 12.5C3 12.7833 2.90417 13.0208 2.7125 13.2125C2.52083 13.4042 2.28333 13.5 2 13.5H1ZM20.475 20.975C20.275 21.175 20.0375 21.275 19.7625 21.275C19.4875 21.275 19.25 21.175 19.05 20.975L18.35 20.275C18.15 20.075 18.05 19.8417 18.05 19.575C18.05 19.3083 18.15 19.075 18.35 18.875C18.55 18.675 18.7875 18.575 19.0625 18.575C19.3375 18.575 19.575 18.675 19.775 18.875L20.475 19.575C20.6583 19.7583 20.75 19.9875 20.75 20.2625C20.75 20.5375 20.6583 20.775 20.475 20.975ZM5.65 6.125C5.45 6.325 5.2125 6.425 4.9375 6.425C4.6625 6.425 4.425 6.325 4.225 6.125L3.525 5.425C3.34167 5.24167 3.25 5.0125 3.25 4.7375C3.25 4.4625 3.34167 4.225 3.525 4.025C3.725 3.825 3.9625 3.725 4.2375 3.725C4.5125 3.725 4.75 3.825 4.95 4.025L5.65 4.725C5.85 4.925 5.95 5.15833 5.95 5.425C5.95 5.69167 5.85 5.925 5.65 6.125Z" fill="#666666"/>
</g>
</svg>
