<svg xmlns="http://www.w3.org/2000/svg" width="52" height="56" viewBox="0 0 52 56">
  <g id="Group_17918" data-name="Group 17918" transform="translate(591.043 -98)">
    <path id="Path_32506" data-name="Path 32506" d="M-556.532,98c.948.18,1.917.285,2.839.557,1.268.374,2.508.854,3.745,1.33a.844.844,0,0,1,.591,1.158c-.2.481-.684.623-1.284.339a16.954,16.954,0,0,0-8.027-1.724,17.808,17.808,0,0,0-16.543,14.814,17.749,17.749,0,0,0,1.433,10.427.794.794,0,0,0,.987.529,14.172,14.172,0,0,1,6.736.689,6.577,6.577,0,0,1,1.283.676,2.208,2.208,0,0,1,1.008,1.992c-.023,1.567.011,3.135-.018,4.7a.611.611,0,0,0,.517.714c9.977,3.027,18.9-2.67,21.692-11.6,2.183-6.976.428-13.049-4.668-18.17-.166-.167-.346-.32-.507-.491a.822.822,0,0,1-.085-1.171.761.761,0,0,1,1.188-.027,39.307,39.307,0,0,1,3.121,3.532,18.048,18.048,0,0,1,3.438,12.069c-.553,8.494-6.575,16.274-15.3,18a18.8,18.8,0,0,1-8.689-.379c-.2-.056-.413-.1-.661-.152v5.347c1-.26,1.979-.6,2.991-.766a14.2,14.2,0,0,1,7.677.7,5.967,5.967,0,0,1,1.259.72,2.039,2.039,0,0,1,.858,1.737q0,3.527,0,7.054a2.081,2.081,0,0,1-1.252,2.011,31.452,31.452,0,0,1-3.286,1.138,9.977,9.977,0,0,1-1.259.234h-2.912a2.2,2.2,0,0,0-.354-.1,10.019,10.019,0,0,1-4.437-1.4c-1.088.4-2.045.791-3.031,1.09a20.355,20.355,0,0,1-2.1.417h-2.912a3.1,3.1,0,0,0-.4-.108,9.981,9.981,0,0,1-4.374-1.4c-1.075.393-2.029.783-3.01,1.087a20.51,20.51,0,0,1-2.026.423h-3.019a10.27,10.27,0,0,1-1.2-.232,30.94,30.94,0,0,1-3.241-1.107,1.986,1.986,0,0,1-1.277-1.87c0-4.938-.005-9.875.013-14.813a1.827,1.827,0,0,1,.289-.968,4.01,4.01,0,0,1,2.621-1.565.69.69,0,0,1,.845.577.763.763,0,0,1-.417.958c-.176.087-.377.125-.549.218-.413.223-.816.466-1.354.777a6.838,6.838,0,0,0,1,.647,12.541,12.541,0,0,0,9.541,0,5.04,5.04,0,0,0,.853-.562,2.713,2.713,0,0,0-1.552-.973,12.8,12.8,0,0,0-3.977-.57.841.841,0,0,1-.908-.868.81.81,0,0,1,.914-.789,22.739,22.739,0,0,1,2.732.233c.924.159,1.824.459,2.761.7,0-1.564.066-3.151-.02-4.729a2.589,2.589,0,0,1,1.688-2.691c.446-.213.914-.375,1.395-.569-.09-.209-.166-.391-.245-.572a18.029,18.029,0,0,1-1.45-10.81c1.6-8.239,6.455-13.545,14.421-15.875.9-.264,1.854-.368,2.782-.546Zm-20.253,30.495a9.17,9.17,0,0,0,1.287.738,12.669,12.669,0,0,0,9.041-.041,4.819,4.819,0,0,0,.986-.7,4.386,4.386,0,0,0-.992-.743,12.722,12.722,0,0,0-9.192.029A7.425,7.425,0,0,0-576.786,128.495Zm24.351,14.882a6.6,6.6,0,0,0-1.281-.732,20.78,20.78,0,0,0-3.182-.724,11.825,11.825,0,0,0-5.859.747,7.508,7.508,0,0,0-1.063.643l.017.2a10.154,10.154,0,0,0,1.147.642,11.565,11.565,0,0,0,5.7.718,22.384,22.384,0,0,0,3.481-.837A4.828,4.828,0,0,0-552.435,143.376Zm-13-9.075a14.759,14.759,0,0,1-11.119.032c-.071,1.887-.343,1.843,1.445,2.5a11.819,11.819,0,0,0,6.048.508,18.6,18.6,0,0,0,3.026-.892,1.015,1.015,0,0,0,.573-.638A8.183,8.183,0,0,0-565.434,134.3Zm-11.117,3.812c-.078,1.824-.323,1.8,1.342,2.444a12.416,12.416,0,0,0,5.572.621,8.973,8.973,0,0,0,3.564-.947c.238-.128.555-.345.595-.565a9.049,9.049,0,0,0,.028-1.559C-570.447,139.516-571.2,139.515-576.551,138.113Zm-1.68,7.423a15.04,15.04,0,0,1-11.152.011c-.179,1.643-.008,1.96,1.355,2.425a12.58,12.58,0,0,0,6.216.516,16.375,16.375,0,0,0,2.925-.869,1.261,1.261,0,0,0,.63-.772A5.205,5.205,0,0,0-578.231,145.536Zm0,3.663a14.28,14.28,0,0,1-5.593,1.119,13.889,13.889,0,0,1-5.552-1.112c-.2,1.679,0,2.023,1.429,2.494a12.4,12.4,0,0,0,5.951.515,18.84,18.84,0,0,0,3.135-.908,1.165,1.165,0,0,0,.6-.732A6.045,6.045,0,0,0-578.231,149.2Zm14.5.032c-.149,1.765-.013,1.989,1.474,2.481a12.263,12.263,0,0,0,5.9.5,20.1,20.1,0,0,0,3.136-.9,1.01,1.01,0,0,0,.575-.63,7.5,7.5,0,0,0,.026-1.455A14.67,14.67,0,0,1-563.735,149.231Zm-25.63-7.377c-.116,1.772-.309,1.781,1.337,2.4a12.149,12.149,0,0,0,6.312.52,16.516,16.516,0,0,0,2.867-.868,1.039,1.039,0,0,0,.587-.632,7.191,7.191,0,0,0,.027-1.443A14.936,14.936,0,0,1-589.365,141.855Zm23.934,7.369a14.676,14.676,0,0,1-11.13,0c-.159,1.754-.01,1.988,1.5,2.488a12.3,12.3,0,0,0,5.891.5,18.628,18.628,0,0,0,3.083-.883,1.168,1.168,0,0,0,.626-.715A5.934,5.934,0,0,0-565.431,149.223Zm-12.8-11.112a14.752,14.752,0,0,1-11.158.031c-.04,1.789-.345,1.768,1.382,2.415a12.291,12.291,0,0,0,6.466.487,15.522,15.522,0,0,0,2.75-.87.966.966,0,0,0,.536-.606A8.187,8.187,0,0,0-578.235,138.112Zm1.672,7.438c-.139,1.75-.021,1.948,1.432,2.444a12.5,12.5,0,0,0,6.105.5,18.185,18.185,0,0,0,2.928-.852,1.045,1.045,0,0,0,.625-.6,7.358,7.358,0,0,0,.029-1.49A15.074,15.074,0,0,1-576.563,145.55Zm12.846.011c-.107,1.805-.31,1.791,1.382,2.414a11.917,11.917,0,0,0,6.095.523,18.552,18.552,0,0,0,2.977-.865,1.028,1.028,0,0,0,.606-.61,7.391,7.391,0,0,0,.028-1.472A15.057,15.057,0,0,1-563.717,145.561Zm-12.831-14.927c-.087,1.8-.323,1.752,1.477,2.468.017.007.035.008.052.013a12.9,12.9,0,0,0,6.428.389,15.672,15.672,0,0,0,2.642-.866.9.9,0,0,0,.491-.576,9.1,9.1,0,0,0,.023-1.441A14.931,14.931,0,0,1-576.548,130.634Zm0,11.222c-.1,1.829-.251,1.757.9,2.218a12.457,12.457,0,0,0,9.14.067c1.131-.412,1.371-1.07.965-2.264A14.9,14.9,0,0,1-576.545,141.857Z" fill="#092f5e"/>
    <path id="Path_32507" data-name="Path 32507" d="M-325.626,201.719a6.98,6.98,0,0,1-.363.737q-4.739,7.094-9.489,14.181c-.348.52-.816.647-1.234.362a.87.87,0,0,1-.116-1.3q4.74-7.092,9.485-14.18c.25-.374.57-.679,1.023-.47C-326.05,201.177-325.861,201.485-325.626,201.719Z" transform="translate(-226.6 -91.72)" fill="#092f5e"/>
    <path id="Path_32508" data-name="Path 32508" d="M-356.6,204.93a4.459,4.459,0,0,1-.9,2.692,2.7,2.7,0,0,1-4.425-.078,4.68,4.68,0,0,1-.049-5.135,2.7,2.7,0,0,1,4.524-.074A4.47,4.47,0,0,1-356.6,204.93Zm-1.52.158-.136-.067a2.674,2.674,0,0,0-.6-1.812,1.017,1.017,0,0,0-1.6-.037,2.825,2.825,0,0,0,.005,3.544.962.962,0,0,0,1.542-.019A9.98,9.98,0,0,0-358.119,205.088Z" transform="translate(-203.709 -91.861)" fill="#092f5e"/>
    <path id="Path_32509" data-name="Path 32509" d="M-258.049,283.064a4.175,4.175,0,0,1-.853,2.635,2.654,2.654,0,0,1-4.41-.02,4.576,4.576,0,0,1,.059-5.338,2.7,2.7,0,0,1,4.365.063A4.415,4.415,0,0,1-258.049,283.064Zm-1.476,0a9.975,9.975,0,0,0-.74-1.691.993.993,0,0,0-1.687-.009,2.837,2.837,0,0,0,0,3.383,1.011,1.011,0,0,0,1.693-.013A10.305,10.305,0,0,0-259.525,283.066Z" transform="translate(-291.654 -161.439)" fill="#092f5e"/>
  </g>
</svg>
