<svg xmlns="http://www.w3.org/2000/svg" width="23" height="13" viewBox="0 0 23 13">
  <g id="watchlist" transform="translate(-6.5 -36.3)">
    <g id="Group_445" data-name="Group 445" transform="translate(6.5 36.3)">
      <path id="Path_1498" data-name="Path 1498" d="M18,36.3c-5.612,0-11.046,5.646-11.263,5.9a.888.888,0,0,0,0,1.208c.237.25,5.651,5.9,11.263,5.9s11.046-5.646,11.263-5.9a.888.888,0,0,0,0-1.208C29.046,41.946,23.631,36.3,18,36.3Zm0,11.271c-3.932,0-7.983-3.375-9.5-4.792,1.521-1.417,5.572-4.792,9.5-4.792s7.983,3.375,9.5,4.792C25.983,44.2,21.932,47.571,18,47.571Z" transform="translate(-6.5 -36.3)" fill="#ff6700"/>
      <path id="Path_1499" data-name="Path 1499" d="M50,55.683A2.928,2.928,0,1,0,52.924,52.6,3.013,3.013,0,0,0,50,55.683Zm4.209,0a1.306,1.306,0,1,1-1.3-1.375A1.367,1.367,0,0,1,54.209,55.683Z" transform="translate(-41.405 -49.204)" fill="#ff6700"/>
    </g>
  </g>
</svg>
