<svg xmlns="http://www.w3.org/2000/svg" width="23" height="15" viewBox="0 0 23 15">
  <g id="watchlist_unselected" transform="translate(0)">
    <path id="Subtraction_6" data-name="Subtraction 6" d="M11.51,15h-.026a11.521,11.521,0,0,1-6.653-2.2A22.217,22.217,0,0,1,1.6,9.843C1.26,9.488.91,9.122.559,8.771A1.706,1.706,0,0,1,.5,6.3,16.8,16.8,0,0,1,5.739,1.565,12,12,0,0,1,11.5,0a12.006,12.006,0,0,1,5.76,1.565A16.768,16.768,0,0,1,22.5,6.3a1.692,1.692,0,0,1-.062,2.472c-.35.35-.7.717-1.04,1.071a22.217,22.217,0,0,1-3.232,2.963A11.521,11.521,0,0,1,11.51,15Zm.167-13.133a5.84,5.84,0,0,0-4.141,1.7,5.8,5.8,0,0,0,0,8.233,5.839,5.839,0,1,0,4.141-9.935Zm-.005,10.125h0a4.316,4.316,0,0,1-3.063-1.26,4.3,4.3,0,0,1,0-6.1,4.322,4.322,0,1,1,3.064,7.356Z" transform="translate(0 0)" fill="#717880"/>
  </g>
</svg>
