<svg xmlns="http://www.w3.org/2000/svg" width="20" height="20" viewBox="0 0 20 20">
  <path id="Path_32550" data-name="Path 32550" d="M-735.7,157h1.406a1.55,1.55,0,0,0,.188.039,9.675,9.675,0,0,1,3.291.879,9.965,9.965,0,0,1,4.337,3.857,9.632,9.632,0,0,1,1.363,3.719l.117.8V167.7a.892.892,0,0,0-.037.127c-.054.379-.085.762-.162,1.136a9.86,9.86,0,0,1-3.586,5.857,9.635,9.635,0,0,1-4.495,2.023c-.338.057-.678.1-1.017.154H-735.7a1.564,1.564,0,0,0-.188-.039,9.7,9.7,0,0,1-3.291-.879,9.95,9.95,0,0,1-4.347-3.873,9.611,9.611,0,0,1-1.353-3.7q-.058-.4-.117-.8V166.3c.043-.307.075-.615.129-.92a9.938,9.938,0,0,1,3.671-6.213,9.632,9.632,0,0,1,4.479-2.011C-736.382,157.1-736.042,157.051-735.7,157Zm-3.245,9.549h7.838a16.658,16.658,0,0,0-.4-3.446h-7.056Zm7.841.9h-7.783a16.748,16.748,0,0,0,.4,3.448h7A18.644,18.644,0,0,0-731.107,167.451Zm-.6-5.253a10.861,10.861,0,0,0-1.058-2.616,4.529,4.529,0,0,0-.97-1.189,1.869,1.869,0,0,0-1.488-.5,2.207,2.207,0,0,0-1.3.733,7.351,7.351,0,0,0-1.525,2.758c-.092.261-.163.529-.248.809Zm-6.576,9.607a1.173,1.173,0,0,0,.028.124c.186.532.348,1.075.566,1.594a5.4,5.4,0,0,0,1.43,2.09,1.76,1.76,0,0,0,2.242.193,4.06,4.06,0,0,0,.821-.769,7.6,7.6,0,0,0,1.243-2.433c.09-.259.162-.525.245-.8Zm-1.545-5.247.355-3.458a.412.412,0,0,0-.074-.007c-1.184,0-2.369,0-3.553,0a.188.188,0,0,0-.2.14,9.194,9.194,0,0,0-.72,2.437c-.046.291-.06.588-.09.892Zm13.922,0a1.1,1.1,0,0,0,.005-.123,9.4,9.4,0,0,0-.787-3.177.24.24,0,0,0-.26-.166c-1.145.006-2.291,0-3.436,0-.061,0-.123.006-.142.007l.354,3.456Zm-18.187.889a.928.928,0,0,0-.006.109,9.355,9.355,0,0,0,.8,3.214.214.214,0,0,0,.234.144c1.152,0,2.3,0,3.456,0h.141l-.357-3.464Zm13.567,3.456a.485.485,0,0,0,.076.007c1.184,0,2.369,0,3.553,0,.116,0,.154-.052.2-.142a9.186,9.186,0,0,0,.72-2.437c.045-.291.06-.587.09-.89h-4.279Zm-12.23-8.693h.219c1.041,0,2.081,0,3.122,0a.212.212,0,0,0,.249-.191,10.747,10.747,0,0,1,1.244-2.987c.176-.278.378-.54.6-.848A9.253,9.253,0,0,0-742.757,162.208Zm10.083-4.023c.218.309.421.57.6.849a10.8,10.8,0,0,1,1.25,3.006.192.192,0,0,0,.225.171c1.054-.006,2.107,0,3.161,0,.053,0,.106-.01.186-.017A9.226,9.226,0,0,0-732.674,158.185Zm.02,17.584a8.974,8.974,0,0,0,5.4-3.961c-.065-.007-.1-.014-.126-.014-1.086,0-2.172,0-3.258,0-.134,0-.158.068-.186.17a10.4,10.4,0,0,1-1.512,3.394C-732.439,175.494-732.548,175.63-732.653,175.768Zm-10.1-3.976a9.248,9.248,0,0,0,5.428,4.023c-.216-.306-.417-.567-.592-.844a10.674,10.674,0,0,1-1.245-2.987c-.043-.16-.111-.2-.266-.2-.9.007-1.795,0-2.692,0Z" transform="translate(745 -157)" fill="#ff6700"/>
</svg>
